<?xml version="1.0" encoding="utf-8"?>
<svg xmlns="http://www.w3.org/2000/svg" xmlns:xlink="http://www.w3.org/1999/xlink" width="600" height="400" viewBox="0 0 2400 1600">
<defs>
  <clipPath id="clip430">
    <rect x="0" y="0" width="2400" height="1600"/>
  </clipPath>
</defs>
<path clip-path="url(#clip430)" d="M0 1600 L2400 1600 L2400 8.88178e-14 L0 8.88178e-14  Z" fill="#ffffff" fill-rule="evenodd" fill-opacity="1"/>
<defs>
  <clipPath id="clip431">
    <rect x="480" y="0" width="1681" height="1600"/>
  </clipPath>
</defs>
<path clip-path="url(#clip430)" d="M276.876 1423.18 L2352.76 1423.18 L2352.76 47.2441 L276.876 47.2441  Z" fill="#ffffff" fill-rule="evenodd" fill-opacity="1"/>
<defs>
  <clipPath id="clip432">
    <rect x="276" y="47" width="2077" height="1377"/>
  </clipPath>
</defs>
<polyline clip-path="url(#clip432)" style="stroke:#000000; stroke-linecap:round; stroke-linejoin:round; stroke-width:2; stroke-opacity:0.1; fill:none" points="686.649,1423.18 686.649,47.2441 "/>
<polyline clip-path="url(#clip432)" style="stroke:#000000; stroke-linecap:round; stroke-linejoin:round; stroke-width:2; stroke-opacity:0.1; fill:none" points="1104.79,1423.18 1104.79,47.2441 "/>
<polyline clip-path="url(#clip432)" style="stroke:#000000; stroke-linecap:round; stroke-linejoin:round; stroke-width:2; stroke-opacity:0.1; fill:none" points="1522.92,1423.18 1522.92,47.2441 "/>
<polyline clip-path="url(#clip432)" style="stroke:#000000; stroke-linecap:round; stroke-linejoin:round; stroke-width:2; stroke-opacity:0.1; fill:none" points="1941.06,1423.18 1941.06,47.2441 "/>
<polyline clip-path="url(#clip432)" style="stroke:#000000; stroke-linecap:round; stroke-linejoin:round; stroke-width:2; stroke-opacity:0.1; fill:none" points="276.876,1200.18 2352.76,1200.18 "/>
<polyline clip-path="url(#clip432)" style="stroke:#000000; stroke-linecap:round; stroke-linejoin:round; stroke-width:2; stroke-opacity:0.1; fill:none" points="276.876,642.672 2352.76,642.672 "/>
<polyline clip-path="url(#clip432)" style="stroke:#000000; stroke-linecap:round; stroke-linejoin:round; stroke-width:2; stroke-opacity:0.1; fill:none" points="276.876,85.1656 2352.76,85.1656 "/>
<polyline clip-path="url(#clip430)" style="stroke:#000000; stroke-linecap:round; stroke-linejoin:round; stroke-width:4; stroke-opacity:1; fill:none" points="276.876,1423.18 2352.76,1423.18 "/>
<polyline clip-path="url(#clip430)" style="stroke:#000000; stroke-linecap:round; stroke-linejoin:round; stroke-width:4; stroke-opacity:1; fill:none" points="686.649,1423.18 686.649,1404.28 "/>
<polyline clip-path="url(#clip430)" style="stroke:#000000; stroke-linecap:round; stroke-linejoin:round; stroke-width:4; stroke-opacity:1; fill:none" points="1104.79,1423.18 1104.79,1404.28 "/>
<polyline clip-path="url(#clip430)" style="stroke:#000000; stroke-linecap:round; stroke-linejoin:round; stroke-width:4; stroke-opacity:1; fill:none" points="1522.92,1423.18 1522.92,1404.28 "/>
<polyline clip-path="url(#clip430)" style="stroke:#000000; stroke-linecap:round; stroke-linejoin:round; stroke-width:4; stroke-opacity:1; fill:none" points="1941.06,1423.18 1941.06,1404.28 "/>
<path clip-path="url(#clip430)" d="M661.348 1451.02 L679.705 1451.02 L679.705 1454.96 L665.631 1454.96 L665.631 1463.43 Q666.649 1463.08 667.668 1462.92 Q668.686 1462.73 669.705 1462.73 Q675.492 1462.73 678.872 1465.9 Q682.251 1469.08 682.251 1474.49 Q682.251 1480.07 678.779 1483.17 Q675.307 1486.25 668.987 1486.25 Q666.811 1486.25 664.543 1485.88 Q662.298 1485.51 659.89 1484.77 L659.89 1480.07 Q661.973 1481.2 664.196 1481.76 Q666.418 1482.32 668.895 1482.32 Q672.899 1482.32 675.237 1480.21 Q677.575 1478.1 677.575 1474.49 Q677.575 1470.88 675.237 1468.77 Q672.899 1466.67 668.895 1466.67 Q667.02 1466.67 665.145 1467.08 Q663.293 1467.5 661.348 1468.38 L661.348 1451.02 Z" fill="#000000" fill-rule="nonzero" fill-opacity="1" /><path clip-path="url(#clip430)" d="M701.464 1454.1 Q697.853 1454.1 696.024 1457.66 Q694.219 1461.2 694.219 1468.33 Q694.219 1475.44 696.024 1479.01 Q697.853 1482.55 701.464 1482.55 Q705.098 1482.55 706.904 1479.01 Q708.732 1475.44 708.732 1468.33 Q708.732 1461.2 706.904 1457.66 Q705.098 1454.1 701.464 1454.1 M701.464 1450.39 Q707.274 1450.39 710.33 1455 Q713.408 1459.58 713.408 1468.33 Q713.408 1477.06 710.33 1481.67 Q707.274 1486.25 701.464 1486.25 Q695.654 1486.25 692.575 1481.67 Q689.52 1477.06 689.52 1468.33 Q689.52 1459.58 692.575 1455 Q695.654 1450.39 701.464 1450.39 Z" fill="#000000" fill-rule="nonzero" fill-opacity="1" /><path clip-path="url(#clip430)" d="M1064.39 1481.64 L1072.03 1481.64 L1072.03 1455.28 L1063.72 1456.95 L1063.72 1452.69 L1071.99 1451.02 L1076.66 1451.02 L1076.66 1481.64 L1084.3 1481.64 L1084.3 1485.58 L1064.39 1485.58 L1064.39 1481.64 Z" fill="#000000" fill-rule="nonzero" fill-opacity="1" /><path clip-path="url(#clip430)" d="M1103.74 1454.1 Q1100.13 1454.1 1098.3 1457.66 Q1096.5 1461.2 1096.5 1468.33 Q1096.5 1475.44 1098.3 1479.01 Q1100.13 1482.55 1103.74 1482.55 Q1107.38 1482.55 1109.18 1479.01 Q1111.01 1475.44 1111.01 1468.33 Q1111.01 1461.2 1109.18 1457.66 Q1107.38 1454.1 1103.74 1454.1 M1103.74 1450.39 Q1109.55 1450.39 1112.61 1455 Q1115.69 1459.58 1115.69 1468.33 Q1115.69 1477.06 1112.61 1481.67 Q1109.55 1486.25 1103.74 1486.25 Q1097.93 1486.25 1094.86 1481.67 Q1091.8 1477.06 1091.8 1468.33 Q1091.8 1459.58 1094.86 1455 Q1097.93 1450.39 1103.74 1450.39 Z" fill="#000000" fill-rule="nonzero" fill-opacity="1" /><path clip-path="url(#clip430)" d="M1133.91 1454.1 Q1130.29 1454.1 1128.47 1457.66 Q1126.66 1461.2 1126.66 1468.33 Q1126.66 1475.44 1128.47 1479.01 Q1130.29 1482.55 1133.91 1482.55 Q1137.54 1482.55 1139.35 1479.01 Q1141.17 1475.44 1141.17 1468.33 Q1141.17 1461.2 1139.35 1457.66 Q1137.54 1454.1 1133.91 1454.1 M1133.91 1450.39 Q1139.72 1450.39 1142.77 1455 Q1145.85 1459.58 1145.85 1468.33 Q1145.85 1477.06 1142.77 1481.67 Q1139.72 1486.25 1133.91 1486.25 Q1128.1 1486.25 1125.02 1481.67 Q1121.96 1477.06 1121.96 1468.33 Q1121.96 1459.58 1125.02 1455 Q1128.1 1450.39 1133.91 1450.39 Z" fill="#000000" fill-rule="nonzero" fill-opacity="1" /><path clip-path="url(#clip430)" d="M1482.53 1481.64 L1490.17 1481.64 L1490.17 1455.28 L1481.86 1456.95 L1481.86 1452.69 L1490.12 1451.02 L1494.8 1451.02 L1494.8 1481.64 L1502.44 1481.64 L1502.44 1485.58 L1482.53 1485.58 L1482.53 1481.64 Z" fill="#000000" fill-rule="nonzero" fill-opacity="1" /><path clip-path="url(#clip430)" d="M1511.93 1451.02 L1530.28 1451.02 L1530.28 1454.96 L1516.21 1454.96 L1516.21 1463.43 Q1517.23 1463.08 1518.25 1462.92 Q1519.26 1462.73 1520.28 1462.73 Q1526.07 1462.73 1529.45 1465.9 Q1532.83 1469.08 1532.83 1474.49 Q1532.83 1480.07 1529.36 1483.17 Q1525.89 1486.25 1519.57 1486.25 Q1517.39 1486.25 1515.12 1485.88 Q1512.88 1485.51 1510.47 1484.77 L1510.47 1480.07 Q1512.55 1481.2 1514.77 1481.76 Q1517 1482.32 1519.47 1482.32 Q1523.48 1482.32 1525.82 1480.21 Q1528.15 1478.1 1528.15 1474.49 Q1528.15 1470.88 1525.82 1468.77 Q1523.48 1466.67 1519.47 1466.67 Q1517.6 1466.67 1515.72 1467.08 Q1513.87 1467.5 1511.93 1468.38 L1511.93 1451.02 Z" fill="#000000" fill-rule="nonzero" fill-opacity="1" /><path clip-path="url(#clip430)" d="M1552.04 1454.1 Q1548.43 1454.1 1546.6 1457.66 Q1544.8 1461.2 1544.8 1468.33 Q1544.8 1475.44 1546.6 1479.01 Q1548.43 1482.55 1552.04 1482.55 Q1555.68 1482.55 1557.48 1479.01 Q1559.31 1475.44 1559.31 1468.33 Q1559.31 1461.2 1557.48 1457.66 Q1555.68 1454.1 1552.04 1454.1 M1552.04 1450.39 Q1557.85 1450.39 1560.91 1455 Q1563.99 1459.58 1563.99 1468.33 Q1563.99 1477.06 1560.91 1481.67 Q1557.85 1486.25 1552.04 1486.25 Q1546.23 1486.25 1543.15 1481.67 Q1540.1 1477.06 1540.1 1468.33 Q1540.1 1459.58 1543.15 1455 Q1546.23 1450.39 1552.04 1450.39 Z" fill="#000000" fill-rule="nonzero" fill-opacity="1" /><path clip-path="url(#clip430)" d="M1904.75 1481.64 L1921.07 1481.64 L1921.07 1485.58 L1899.13 1485.58 L1899.13 1481.64 Q1901.79 1478.89 1906.37 1474.26 Q1910.98 1469.61 1912.16 1468.27 Q1914.4 1465.74 1915.28 1464.01 Q1916.19 1462.25 1916.19 1460.56 Q1916.19 1457.8 1914.24 1456.07 Q1912.32 1454.33 1909.22 1454.33 Q1907.02 1454.33 1904.57 1455.09 Q1902.14 1455.86 1899.36 1457.41 L1899.36 1452.69 Q1902.18 1451.55 1904.64 1450.97 Q1907.09 1450.39 1909.13 1450.39 Q1914.5 1450.39 1917.69 1453.08 Q1920.89 1455.77 1920.89 1460.26 Q1920.89 1462.39 1920.08 1464.31 Q1919.29 1466.2 1917.18 1468.8 Q1916.6 1469.47 1913.5 1472.69 Q1910.4 1475.88 1904.75 1481.64 Z" fill="#000000" fill-rule="nonzero" fill-opacity="1" /><path clip-path="url(#clip430)" d="M1940.89 1454.1 Q1937.27 1454.1 1935.45 1457.66 Q1933.64 1461.2 1933.64 1468.33 Q1933.64 1475.44 1935.45 1479.01 Q1937.27 1482.55 1940.89 1482.55 Q1944.52 1482.55 1946.32 1479.01 Q1948.15 1475.44 1948.15 1468.33 Q1948.15 1461.2 1946.32 1457.66 Q1944.52 1454.1 1940.89 1454.1 M1940.89 1450.39 Q1946.7 1450.39 1949.75 1455 Q1952.83 1459.58 1952.83 1468.33 Q1952.83 1477.06 1949.75 1481.67 Q1946.7 1486.25 1940.89 1486.25 Q1935.07 1486.25 1932 1481.67 Q1928.94 1477.06 1928.94 1468.33 Q1928.94 1459.58 1932 1455 Q1935.07 1450.39 1940.89 1450.39 Z" fill="#000000" fill-rule="nonzero" fill-opacity="1" /><path clip-path="url(#clip430)" d="M1971.05 1454.1 Q1967.44 1454.1 1965.61 1457.66 Q1963.8 1461.2 1963.8 1468.33 Q1963.8 1475.44 1965.61 1479.01 Q1967.44 1482.55 1971.05 1482.55 Q1974.68 1482.55 1976.49 1479.01 Q1978.32 1475.44 1978.32 1468.33 Q1978.32 1461.2 1976.49 1457.66 Q1974.68 1454.1 1971.05 1454.1 M1971.05 1450.39 Q1976.86 1450.39 1979.91 1455 Q1982.99 1459.58 1982.99 1468.33 Q1982.99 1477.06 1979.91 1481.67 Q1976.86 1486.25 1971.05 1486.25 Q1965.24 1486.25 1962.16 1481.67 Q1959.1 1477.06 1959.1 1468.33 Q1959.1 1459.58 1962.16 1455 Q1965.24 1450.39 1971.05 1450.39 Z" fill="#000000" fill-rule="nonzero" fill-opacity="1" /><path clip-path="url(#clip430)" d="M1146.61 1539.49 Q1146.61 1529.41 1153.06 1522.39 Q1159.53 1515.34 1168.51 1515.34 Q1177.56 1515.34 1184.01 1522.39 Q1190.48 1529.45 1190.48 1539.49 Q1190.48 1549.45 1184.01 1556.37 Q1177.53 1563.29 1168.51 1563.29 Q1159.63 1563.29 1153.12 1556.4 Q1146.61 1549.51 1146.61 1539.49 M1153.41 1538.56 Q1153.41 1544.68 1154.86 1549.38 Q1156.31 1554.05 1158.63 1556.59 Q1160.98 1559.14 1163.49 1560.36 Q1166 1561.59 1168.58 1561.59 Q1171.09 1561.59 1173.54 1560.4 Q1176.02 1559.2 1178.37 1556.69 Q1180.72 1554.18 1182.2 1549.48 Q1183.68 1544.78 1183.68 1538.56 Q1183.68 1533.73 1182.65 1529.86 Q1181.62 1525.97 1180.01 1523.62 Q1178.4 1521.26 1176.31 1519.72 Q1174.25 1518.17 1172.28 1517.59 Q1170.35 1516.98 1168.51 1516.98 Q1166.2 1516.98 1163.78 1518.01 Q1161.36 1519.04 1158.92 1521.33 Q1156.5 1523.58 1154.96 1528.06 Q1153.41 1532.5 1153.41 1538.56 Z" fill="#000000" fill-rule="nonzero" fill-opacity="1" /><path clip-path="url(#clip430)" d="M1198.16 1561.84 L1198.16 1559.82 Q1201.67 1559.82 1202.47 1559.4 Q1203.31 1558.95 1203.31 1556.82 L1203.31 1539.14 Q1203.31 1536.69 1202.44 1536.08 Q1201.6 1535.47 1198.16 1535.47 L1198.16 1533.41 L1207.34 1532.7 L1207.34 1539.94 Q1208.27 1537.11 1210.23 1534.92 Q1212.23 1532.7 1215.45 1532.7 Q1217.58 1532.7 1218.93 1533.89 Q1220.31 1535.08 1220.31 1536.72 Q1220.31 1538.17 1219.41 1538.91 Q1218.54 1539.62 1217.48 1539.62 Q1216.29 1539.62 1215.45 1538.88 Q1214.65 1538.11 1214.65 1536.79 Q1214.65 1535.98 1215 1535.37 Q1215.39 1534.73 1215.68 1534.5 Q1215.97 1534.28 1216.16 1534.21 Q1216.03 1534.15 1215.45 1534.15 Q1211.81 1534.15 1209.72 1537.79 Q1207.66 1541.39 1207.66 1546.55 L1207.66 1556.69 Q1207.66 1558.59 1208.43 1559.2 Q1209.24 1559.82 1212.68 1559.82 L1214.07 1559.82 L1214.07 1561.84 Q1211.43 1561.65 1205.69 1561.65 Q1204.89 1561.65 1203.63 1561.68 Q1202.38 1561.72 1200.73 1561.78 Q1199.09 1561.84 1198.16 1561.84 Z" fill="#000000" fill-rule="nonzero" fill-opacity="1" /><path clip-path="url(#clip430)" d="M1225.72 1555.56 Q1225.72 1549.96 1232.32 1547 Q1236.28 1545.1 1244.46 1544.61 L1244.46 1542.2 Q1244.46 1538.11 1242.3 1535.95 Q1240.18 1533.76 1237.47 1533.76 Q1232.64 1533.76 1230.32 1536.79 Q1232.29 1536.85 1233 1537.85 Q1233.71 1538.82 1233.71 1539.82 Q1233.71 1541.14 1232.87 1542.01 Q1232.06 1542.84 1230.68 1542.84 Q1229.36 1542.84 1228.49 1542.04 Q1227.62 1541.2 1227.62 1539.75 Q1227.62 1536.53 1230.52 1534.4 Q1233.45 1532.28 1237.6 1532.28 Q1243.01 1532.28 1246.62 1535.92 Q1247.75 1537.05 1248.29 1538.5 Q1248.87 1539.94 1248.94 1540.91 Q1249 1541.84 1249 1543.71 L1249 1556.88 Q1249 1557.27 1249.13 1557.92 Q1249.26 1558.56 1249.84 1559.4 Q1250.45 1560.2 1251.45 1560.2 Q1253.83 1560.2 1253.8 1555.98 L1253.8 1552.28 L1255.48 1552.28 L1255.48 1555.98 Q1255.48 1559.49 1253.61 1560.88 Q1251.77 1562.23 1250.07 1562.23 Q1247.88 1562.23 1246.49 1560.62 Q1245.11 1559.01 1244.91 1556.82 Q1243.91 1559.33 1241.63 1560.97 Q1239.37 1562.59 1236.28 1562.59 Q1233.9 1562.59 1231.64 1561.97 Q1229.42 1561.39 1227.55 1559.75 Q1225.72 1558.08 1225.72 1555.56 M1230.81 1555.5 Q1230.81 1557.95 1232.55 1559.53 Q1234.29 1561.1 1236.73 1561.1 Q1239.5 1561.1 1241.98 1558.98 Q1244.46 1556.82 1244.46 1552.6 L1244.46 1546 Q1237.15 1546.26 1233.96 1549.19 Q1230.81 1552.09 1230.81 1555.5 Z" fill="#000000" fill-rule="nonzero" fill-opacity="1" /><path clip-path="url(#clip430)" d="M1262.57 1558.24 Q1258.38 1553.86 1258.38 1547.61 Q1258.38 1541.33 1262.5 1536.82 Q1266.63 1532.28 1272.68 1532.28 Q1276.71 1532.28 1279.73 1534.21 Q1282.76 1536.11 1282.76 1539.36 Q1282.76 1540.81 1281.89 1541.65 Q1281.06 1542.46 1279.73 1542.46 Q1278.35 1542.46 1277.51 1541.62 Q1276.71 1540.75 1276.71 1539.43 Q1276.71 1538.85 1276.9 1538.27 Q1277.09 1537.69 1277.8 1537.08 Q1278.54 1536.47 1279.8 1536.37 Q1277.45 1533.95 1272.88 1533.95 Q1272.81 1533.95 1272.75 1533.95 Q1269.4 1533.95 1266.63 1537.11 Q1263.86 1540.27 1263.86 1547.48 Q1263.86 1551.25 1264.76 1554.02 Q1265.69 1556.76 1267.21 1558.17 Q1268.72 1559.59 1270.2 1560.27 Q1271.68 1560.91 1273.13 1560.91 Q1279.61 1560.91 1281.8 1553.99 Q1281.99 1553.34 1282.63 1553.34 Q1283.5 1553.34 1283.5 1553.99 Q1283.5 1554.31 1283.25 1555.15 Q1282.99 1555.98 1282.18 1557.3 Q1281.38 1558.62 1280.22 1559.78 Q1279.09 1560.91 1277.06 1561.75 Q1275.07 1562.59 1272.55 1562.59 Q1266.76 1562.59 1262.57 1558.24 Z" fill="#000000" fill-rule="nonzero" fill-opacity="1" /><path clip-path="url(#clip430)" d="M1286.85 1561.84 L1286.85 1559.82 Q1290.36 1559.82 1291.17 1559.4 Q1291.97 1558.95 1291.97 1556.82 L1291.97 1522.52 Q1291.97 1520.07 1291.1 1519.46 Q1290.26 1518.85 1286.85 1518.85 L1286.85 1516.79 L1296.32 1516.08 L1296.32 1556.82 Q1296.32 1558.95 1297.16 1559.4 Q1297.99 1559.82 1301.47 1559.82 L1301.47 1561.84 Q1300.67 1561.84 1298.99 1561.78 Q1297.32 1561.72 1296.09 1561.68 Q1294.87 1561.65 1294.16 1561.65 Q1293.39 1561.65 1286.85 1561.84 Z" fill="#000000" fill-rule="nonzero" fill-opacity="1" /><path clip-path="url(#clip430)" d="M1305.73 1547.32 Q1305.73 1541.1 1309.72 1536.69 Q1313.72 1532.28 1319.45 1532.28 Q1325.25 1532.28 1328.24 1536.05 Q1331.27 1539.82 1331.27 1545.23 Q1331.27 1546.22 1331.01 1546.42 Q1330.75 1546.61 1329.63 1546.61 L1311.2 1546.61 Q1311.2 1553.34 1313.2 1556.5 Q1315.97 1560.91 1320.64 1560.91 Q1321.28 1560.91 1322.06 1560.78 Q1322.83 1560.65 1324.41 1560.11 Q1325.99 1559.53 1327.37 1558.01 Q1328.76 1556.5 1329.56 1554.11 Q1329.75 1553.18 1330.4 1553.21 Q1331.27 1553.21 1331.27 1553.99 Q1331.27 1554.57 1330.62 1555.89 Q1330.01 1557.17 1328.82 1558.72 Q1327.63 1560.27 1325.31 1561.43 Q1323.02 1562.59 1320.25 1562.59 Q1314.46 1562.59 1310.08 1558.21 Q1305.73 1553.79 1305.73 1547.32 M1311.27 1545.23 L1326.92 1545.23 Q1326.92 1543.84 1326.66 1542.3 Q1326.44 1540.75 1325.73 1538.62 Q1325.05 1536.47 1323.44 1535.11 Q1321.83 1533.76 1319.45 1533.76 Q1318.39 1533.76 1317.23 1534.21 Q1316.1 1534.66 1314.71 1535.76 Q1313.33 1536.85 1312.36 1539.33 Q1311.4 1541.81 1311.27 1545.23 Z" fill="#000000" fill-rule="nonzero" fill-opacity="1" /><path clip-path="url(#clip430)" d="M1334.72 1539.3 Q1334.72 1529.35 1341.52 1522.36 Q1348.32 1515.34 1357.65 1515.34 Q1360.55 1515.34 1363.13 1516.4 Q1365.71 1517.46 1366.9 1518.4 Q1368.09 1519.3 1369.8 1521.01 L1373.11 1516.14 Q1373.63 1515.34 1374.14 1515.34 Q1374.69 1515.34 1374.79 1515.66 Q1374.88 1515.95 1374.88 1516.92 L1374.88 1532.57 Q1374.88 1533.63 1374.76 1533.89 Q1374.63 1534.15 1373.82 1534.15 Q1373.18 1534.15 1373.02 1533.95 Q1372.89 1533.76 1372.76 1533.02 Q1371.76 1525.9 1367.8 1521.65 Q1363.87 1517.4 1358.4 1517.4 Q1356.82 1517.4 1355.05 1517.75 Q1353.31 1518.11 1350.76 1519.46 Q1348.25 1520.81 1346.29 1523.07 Q1344.35 1525.29 1342.94 1529.54 Q1341.52 1533.76 1341.52 1539.36 Q1341.52 1544.9 1342.94 1549.16 Q1344.35 1553.41 1346.29 1555.63 Q1348.25 1557.82 1350.76 1559.17 Q1353.31 1560.52 1355.08 1560.91 Q1356.88 1561.26 1358.46 1561.26 Q1364.13 1561.26 1368.48 1557.24 Q1372.82 1553.21 1373.24 1546.42 Q1373.31 1546.1 1373.31 1545.97 Q1373.31 1545.81 1373.37 1545.64 Q1373.44 1545.48 1373.6 1545.42 Q1373.76 1545.35 1374.02 1545.35 Q1374.88 1545.35 1374.88 1546.48 Q1374.88 1552.76 1370.05 1558.04 Q1365.26 1563.29 1357.65 1563.29 Q1348.28 1563.29 1341.49 1556.34 Q1334.72 1549.38 1334.72 1539.3 Z" fill="#000000" fill-rule="nonzero" fill-opacity="1" /><path clip-path="url(#clip430)" d="M1387.15 1555.56 Q1387.15 1549.96 1393.75 1547 Q1397.71 1545.1 1405.89 1544.61 L1405.89 1542.2 Q1405.89 1538.11 1403.74 1535.95 Q1401.61 1533.76 1398.91 1533.76 Q1394.07 1533.76 1391.76 1536.79 Q1393.72 1536.85 1394.43 1537.85 Q1395.14 1538.82 1395.14 1539.82 Q1395.14 1541.14 1394.3 1542.01 Q1393.49 1542.84 1392.11 1542.84 Q1390.79 1542.84 1389.92 1542.04 Q1389.05 1541.2 1389.05 1539.75 Q1389.05 1536.53 1391.95 1534.4 Q1394.88 1532.28 1399.03 1532.28 Q1404.44 1532.28 1408.05 1535.92 Q1409.18 1537.05 1409.73 1538.5 Q1410.31 1539.94 1410.37 1540.91 Q1410.44 1541.84 1410.44 1543.71 L1410.44 1556.88 Q1410.44 1557.27 1410.56 1557.92 Q1410.69 1558.56 1411.27 1559.4 Q1411.88 1560.2 1412.88 1560.2 Q1415.27 1560.2 1415.23 1555.98 L1415.23 1552.28 L1416.91 1552.28 L1416.91 1555.98 Q1416.91 1559.49 1415.04 1560.88 Q1413.2 1562.23 1411.5 1562.23 Q1409.31 1562.23 1407.92 1560.62 Q1406.54 1559.01 1406.34 1556.82 Q1405.35 1559.33 1403.06 1560.97 Q1400.81 1562.59 1397.71 1562.59 Q1395.33 1562.59 1393.08 1561.97 Q1390.85 1561.39 1388.99 1559.75 Q1387.15 1558.08 1387.15 1555.56 M1392.24 1555.5 Q1392.24 1557.95 1393.98 1559.53 Q1395.72 1561.1 1398.16 1561.1 Q1400.93 1561.1 1403.41 1558.98 Q1405.89 1556.82 1405.89 1552.6 L1405.89 1546 Q1398.58 1546.26 1395.39 1549.19 Q1392.24 1552.09 1392.24 1555.5 Z" fill="#000000" fill-rule="nonzero" fill-opacity="1" /><path clip-path="url(#clip430)" d="M1419.55 1561.84 L1419.55 1559.82 Q1423.06 1559.82 1423.87 1559.4 Q1424.67 1558.95 1424.67 1556.82 L1424.67 1522.52 Q1424.67 1520.07 1423.8 1519.46 Q1422.96 1518.85 1419.55 1518.85 L1419.55 1516.79 L1429.02 1516.08 L1429.02 1556.82 Q1429.02 1558.95 1429.86 1559.4 Q1430.69 1559.82 1434.17 1559.82 L1434.17 1561.84 Q1433.37 1561.84 1431.69 1561.78 Q1430.02 1561.72 1428.79 1561.68 Q1427.57 1561.65 1426.86 1561.65 Q1426.09 1561.65 1419.55 1561.84 Z" fill="#000000" fill-rule="nonzero" fill-opacity="1" /><path clip-path="url(#clip430)" d="M1438.43 1561.84 L1438.43 1559.82 Q1441.94 1559.82 1442.74 1559.4 Q1443.55 1558.95 1443.55 1556.82 L1443.55 1522.52 Q1443.55 1520.07 1442.68 1519.46 Q1441.84 1518.85 1438.43 1518.85 L1438.43 1516.79 L1447.9 1516.08 L1447.9 1556.82 Q1447.9 1558.95 1448.73 1559.4 Q1449.57 1559.82 1453.05 1559.82 L1453.05 1561.84 Q1452.25 1561.84 1450.57 1561.78 Q1448.9 1561.72 1447.67 1561.68 Q1446.45 1561.65 1445.74 1561.65 Q1444.97 1561.65 1438.43 1561.84 Z" fill="#000000" fill-rule="nonzero" fill-opacity="1" /><path clip-path="url(#clip430)" d="M1457.31 1560.97 L1457.31 1552.28 Q1457.31 1551.54 1457.34 1551.28 Q1457.37 1551.02 1457.56 1550.83 Q1457.76 1550.64 1458.14 1550.64 Q1458.6 1550.64 1458.76 1550.83 Q1458.95 1551.02 1459.08 1551.76 Q1460.08 1556.3 1462.2 1558.72 Q1464.36 1561.1 1468.26 1561.1 Q1471.96 1561.1 1473.83 1559.46 Q1475.7 1557.82 1475.7 1555.11 Q1475.7 1550.28 1468.84 1549.06 Q1464.88 1548.25 1463.23 1547.74 Q1461.59 1547.19 1460.14 1546 Q1457.31 1543.68 1457.31 1540.4 Q1457.31 1537.11 1459.79 1534.69 Q1462.3 1532.28 1467.84 1532.28 Q1471.54 1532.28 1474.05 1534.15 Q1474.79 1533.57 1475.18 1533.08 Q1476.05 1532.28 1476.5 1532.28 Q1477.02 1532.28 1477.11 1532.63 Q1477.21 1532.96 1477.21 1533.89 L1477.21 1540.52 Q1477.21 1541.26 1477.18 1541.52 Q1477.15 1541.78 1476.95 1541.97 Q1476.76 1542.13 1476.34 1542.13 Q1475.6 1542.13 1475.57 1541.52 Q1475.05 1533.54 1467.84 1533.54 Q1463.94 1533.54 1462.2 1535.05 Q1460.46 1536.53 1460.46 1538.56 Q1460.46 1539.69 1460.98 1540.56 Q1461.53 1541.39 1462.2 1541.91 Q1462.91 1542.39 1464.2 1542.88 Q1465.49 1543.33 1466.26 1543.49 Q1467.07 1543.65 1468.58 1543.97 Q1473.86 1544.97 1476.08 1547.13 Q1478.85 1549.9 1478.85 1553.41 Q1478.85 1557.3 1476.21 1559.94 Q1473.57 1562.59 1468.26 1562.59 Q1463.97 1562.59 1460.98 1559.72 Q1460.59 1560.11 1460.3 1560.46 Q1460.01 1560.78 1459.88 1560.91 Q1459.79 1561.04 1459.75 1561.14 Q1459.72 1561.2 1459.66 1561.26 Q1458.34 1562.59 1458.02 1562.59 Q1457.5 1562.59 1457.4 1562.23 Q1457.31 1561.91 1457.31 1560.97 Z" fill="#000000" fill-rule="nonzero" fill-opacity="1" /><polyline clip-path="url(#clip430)" style="stroke:#000000; stroke-linecap:round; stroke-linejoin:round; stroke-width:4; stroke-opacity:1; fill:none" points="276.876,1423.18 276.876,47.2441 "/>
<polyline clip-path="url(#clip430)" style="stroke:#000000; stroke-linecap:round; stroke-linejoin:round; stroke-width:4; stroke-opacity:1; fill:none" points="276.876,1200.18 295.773,1200.18 "/>
<polyline clip-path="url(#clip430)" style="stroke:#000000; stroke-linecap:round; stroke-linejoin:round; stroke-width:4; stroke-opacity:1; fill:none" points="276.876,642.672 295.773,642.672 "/>
<polyline clip-path="url(#clip430)" style="stroke:#000000; stroke-linecap:round; stroke-linejoin:round; stroke-width:4; stroke-opacity:1; fill:none" points="276.876,85.1656 295.773,85.1656 "/>
<path clip-path="url(#clip430)" d="M114.931 1219.97 L122.57 1219.97 L122.57 1193.6 L114.26 1195.27 L114.26 1191.01 L122.524 1189.35 L127.2 1189.35 L127.2 1219.97 L134.839 1219.97 L134.839 1223.91 L114.931 1223.91 L114.931 1219.97 Z" fill="#000000" fill-rule="nonzero" fill-opacity="1" /><path clip-path="url(#clip430)" d="M154.283 1192.42 Q150.672 1192.42 148.843 1195.99 Q147.038 1199.53 147.038 1206.66 Q147.038 1213.77 148.843 1217.33 Q150.672 1220.87 154.283 1220.87 Q157.917 1220.87 159.723 1217.33 Q161.552 1213.77 161.552 1206.66 Q161.552 1199.53 159.723 1195.99 Q157.917 1192.42 154.283 1192.42 M154.283 1188.72 Q160.093 1188.72 163.149 1193.33 Q166.227 1197.91 166.227 1206.66 Q166.227 1215.39 163.149 1219.99 Q160.093 1224.58 154.283 1224.58 Q148.473 1224.58 145.394 1219.99 Q142.339 1215.39 142.339 1206.66 Q142.339 1197.91 145.394 1193.33 Q148.473 1188.72 154.283 1188.72 Z" fill="#000000" fill-rule="nonzero" fill-opacity="1" /><path clip-path="url(#clip430)" d="M166.227 1182.82 L190.339 1182.82 L190.339 1186.02 L166.227 1186.02 L166.227 1182.82 Z" fill="#000000" fill-rule="nonzero" fill-opacity="1" /><path clip-path="url(#clip430)" d="M199.197 1193.3 L205.404 1193.3 L205.404 1171.88 L198.652 1173.23 L198.652 1169.77 L205.366 1168.41 L209.166 1168.41 L209.166 1193.3 L215.372 1193.3 L215.372 1196.49 L199.197 1196.49 L199.197 1193.3 Z" fill="#000000" fill-rule="nonzero" fill-opacity="1" /><path clip-path="url(#clip430)" d="M231.171 1170.92 Q228.237 1170.92 226.751 1173.81 Q225.284 1176.69 225.284 1182.48 Q225.284 1188.26 226.751 1191.15 Q228.237 1194.03 231.171 1194.03 Q234.124 1194.03 235.591 1191.15 Q237.076 1188.26 237.076 1182.48 Q237.076 1176.69 235.591 1173.81 Q234.124 1170.92 231.171 1170.92 M231.171 1167.91 Q235.891 1167.91 238.374 1171.65 Q240.876 1175.37 240.876 1182.48 Q240.876 1189.57 238.374 1193.32 Q235.891 1197.04 231.171 1197.04 Q226.45 1197.04 223.949 1193.32 Q221.466 1189.57 221.466 1182.48 Q221.466 1175.37 223.949 1171.65 Q226.45 1167.91 231.171 1167.91 Z" fill="#000000" fill-rule="nonzero" fill-opacity="1" /><path clip-path="url(#clip430)" d="M140.247 662.464 L147.886 662.464 L147.886 636.098 L139.575 637.765 L139.575 633.506 L147.839 631.839 L152.515 631.839 L152.515 662.464 L160.154 662.464 L160.154 666.399 L140.247 666.399 L140.247 662.464 Z" fill="#000000" fill-rule="nonzero" fill-opacity="1" /><path clip-path="url(#clip430)" d="M179.598 634.918 Q175.987 634.918 174.159 638.483 Q172.353 642.024 172.353 649.154 Q172.353 656.26 174.159 659.825 Q175.987 663.367 179.598 663.367 Q183.233 663.367 185.038 659.825 Q186.867 656.26 186.867 649.154 Q186.867 642.024 185.038 638.483 Q183.233 634.918 179.598 634.918 M179.598 631.214 Q185.409 631.214 188.464 635.821 Q191.543 640.404 191.543 649.154 Q191.543 657.881 188.464 662.487 Q185.409 667.07 179.598 667.07 Q173.788 667.07 170.71 662.487 Q167.654 657.881 167.654 649.154 Q167.654 640.404 170.71 635.821 Q173.788 631.214 179.598 631.214 Z" fill="#000000" fill-rule="nonzero" fill-opacity="1" /><path clip-path="url(#clip430)" d="M191.543 625.315 L215.654 625.315 L215.654 628.513 L191.543 628.513 L191.543 625.315 Z" fill="#000000" fill-rule="nonzero" fill-opacity="1" /><path clip-path="url(#clip430)" d="M223.892 610.909 L238.807 610.909 L238.807 614.106 L227.372 614.106 L227.372 620.99 Q228.199 620.708 229.027 620.576 Q229.854 620.425 230.682 620.425 Q235.384 620.425 238.13 623.002 Q240.876 625.579 240.876 629.98 Q240.876 634.512 238.054 637.033 Q235.233 639.534 230.099 639.534 Q228.331 639.534 226.488 639.233 Q224.663 638.932 222.707 638.33 L222.707 634.512 Q224.4 635.434 226.205 635.885 Q228.011 636.337 230.023 636.337 Q233.277 636.337 235.177 634.625 Q237.076 632.914 237.076 629.98 Q237.076 627.046 235.177 625.334 Q233.277 623.623 230.023 623.623 Q228.5 623.623 226.977 623.961 Q225.472 624.3 223.892 625.015 L223.892 610.909 Z" fill="#000000" fill-rule="nonzero" fill-opacity="1" /><path clip-path="url(#clip430)" d="M170.17 104.958 L177.809 104.958 L177.809 78.5924 L169.499 80.2591 L169.499 75.9998 L177.762 74.3332 L182.438 74.3332 L182.438 104.958 L190.077 104.958 L190.077 108.893 L170.17 108.893 L170.17 104.958 Z" fill="#000000" fill-rule="nonzero" fill-opacity="1" /><path clip-path="url(#clip430)" d="M209.522 77.4118 Q205.91 77.4118 204.082 80.9766 Q202.276 84.5183 202.276 91.6479 Q202.276 98.7543 204.082 102.319 Q205.91 105.861 209.522 105.861 Q213.156 105.861 214.961 102.319 Q216.79 98.7543 216.79 91.6479 Q216.79 84.5183 214.961 80.9766 Q213.156 77.4118 209.522 77.4118 M209.522 73.7082 Q215.332 73.7082 218.387 78.3146 Q221.466 82.8979 221.466 91.6479 Q221.466 100.375 218.387 104.981 Q215.332 109.564 209.522 109.564 Q203.711 109.564 200.633 104.981 Q197.577 100.375 197.577 91.6479 Q197.577 82.8979 200.633 78.3146 Q203.711 73.7082 209.522 73.7082 Z" fill="#000000" fill-rule="nonzero" fill-opacity="1" /><path clip-path="url(#clip430)" d="M231.171 55.9042 Q228.237 55.9042 226.751 58.8006 Q225.284 61.6782 225.284 67.471 Q225.284 73.245 226.751 76.1414 Q228.237 79.0189 231.171 79.0189 Q234.124 79.0189 235.591 76.1414 Q237.076 73.245 237.076 67.471 Q237.076 61.6782 235.591 58.8006 Q234.124 55.9042 231.171 55.9042 M231.171 52.8949 Q235.891 52.8949 238.374 56.6377 Q240.876 60.3616 240.876 67.471 Q240.876 74.5615 238.374 78.3042 Q235.891 82.0282 231.171 82.0282 Q226.45 82.0282 223.949 78.3042 Q221.466 74.5615 221.466 67.471 Q221.466 60.3616 223.949 56.6377 Q226.45 52.8949 231.171 52.8949 Z" fill="#000000" fill-rule="nonzero" fill-opacity="1" /><path clip-path="url(#clip430)" d="M66.0841 1072.66 L64.0551 1072.66 Q64.0551 1070.27 63.6042 1068.76 Q63.1212 1067.25 62.2516 1066.7 Q61.3498 1066.12 60.7701 1065.99 Q60.1582 1065.86 59.1598 1065.86 L26.181 1065.86 Q24.2809 1065.86 23.7012 1066.7 Q23.0893 1067.5 23.0893 1071.08 L23.0893 1072.66 L21.0281 1072.66 L21.0281 1061.51 Q21.0281 1060.32 21.2535 1060 Q21.4468 1059.68 22.4774 1059.19 L59.4175 1044.9 L22.2841 1030.47 Q21.3502 1030.14 21.1891 1029.85 Q21.0281 1029.53 21.0281 1028.28 L21.0281 1017.13 L23.0893 1017.13 L23.0893 1018.71 Q23.0893 1022.29 23.7012 1023.12 Q24.2809 1023.93 26.181 1023.93 L60.9312 1023.93 Q62.8313 1023.93 63.4432 1023.12 Q64.0551 1022.29 64.0551 1018.71 L64.0551 1017.13 L66.0841 1017.13 Q65.8909 1019.58 65.8909 1026.57 Q65.8909 1033.62 66.0841 1036.07 L64.0551 1036.07 L64.0551 1034.46 Q64.0551 1030.89 63.4754 1030.08 Q62.8635 1029.28 60.9312 1029.28 L23.0893 1029.28 L23.0893 1029.34 L64.8281 1045.54 Q66.0841 1045.99 66.0841 1046.73 Q66.0841 1047.54 64.6348 1048.05 L23.6046 1063.96 L23.6046 1064.03 L59.1598 1064.03 Q60.1582 1064.03 60.7701 1063.9 Q61.3498 1063.77 62.2516 1063.22 Q63.1212 1062.64 63.6042 1061.13 Q64.0551 1059.61 64.0551 1057.23 L66.0841 1057.23 Q65.8909 1064.15 65.8909 1064.96 Q65.8909 1065.73 66.0841 1072.66 Z" fill="#000000" fill-rule="nonzero" fill-opacity="1" /><path clip-path="url(#clip430)" d="M66.0841 1006.77 L64.0551 1006.77 Q64.0551 1003.26 63.6364 1002.46 Q63.1856 1001.65 61.06 1001.65 L43.3146 1001.65 Q40.8669 1001.65 40.2872 1002.49 Q39.7075 1003.3 39.7075 1006.52 L37.6463 1006.52 L36.9378 997.306 L61.1244 997.306 Q63.0889 997.306 63.572 996.598 Q64.0551 995.889 64.0551 992.669 L66.0841 992.669 Q65.8909 999.4 65.8909 999.528 Q65.8909 1000.43 66.0841 1006.77 M25.4403 1004.01 Q24.1199 1004.01 23.0571 1003.01 Q21.9621 1001.98 21.9621 1000.53 Q21.9621 999.078 22.9604 998.047 Q23.9266 997.016 25.4725 997.016 Q26.9862 997.016 27.9846 998.047 Q28.9507 999.078 28.9507 1000.53 Q28.9507 1002.04 27.8879 1003.04 Q26.8252 1004.01 25.4403 1004.01 Z" fill="#000000" fill-rule="nonzero" fill-opacity="1" /><path clip-path="url(#clip430)" d="M66.0841 988.16 L64.0551 988.16 Q64.0551 984.65 63.6364 983.845 Q63.1856 983.04 61.06 983.04 L43.379 983.04 Q40.9313 983.04 40.3194 983.909 Q39.7075 984.747 39.7075 988.16 L37.6463 988.16 L36.9378 978.885 L43.8621 978.885 Q36.9378 975.793 36.9378 969.127 Q36.9378 964.167 39.3854 962.202 Q41.0279 960.753 42.8637 960.463 Q44.6994 960.141 49.4659 960.141 L62.0584 960.141 Q63.4432 960.077 63.7653 959.014 Q64.0551 957.951 64.0551 954.988 L66.0841 954.988 Q65.8909 961.719 65.8909 962.396 Q65.8909 962.911 66.0841 969.835 L64.0551 969.835 Q64.0551 966.325 63.6364 965.52 Q63.1856 964.682 61.06 964.682 L45.6978 964.682 Q42.3484 964.682 40.3838 965.713 Q38.3871 966.743 38.3871 969.578 Q38.3871 972.991 41.2534 975.729 Q44.1197 978.466 48.9506 978.466 L61.06 978.466 Q63.1856 978.466 63.6364 977.661 Q64.0551 976.824 64.0551 973.346 L66.0841 973.346 Q65.8909 980.077 65.8909 980.721 Q65.8909 981.236 66.0841 988.16 Z" fill="#000000" fill-rule="nonzero" fill-opacity="1" /><path clip-path="url(#clip430)" d="M66.0841 951.66 L64.0551 951.66 Q64.0551 948.149 63.6364 947.344 Q63.1856 946.539 61.06 946.539 L43.3146 946.539 Q40.8669 946.539 40.2872 947.376 Q39.7075 948.181 39.7075 951.402 L37.6463 951.402 L36.9378 942.191 L61.1244 942.191 Q63.0889 942.191 63.572 941.483 Q64.0551 940.774 64.0551 937.553 L66.0841 937.553 Q65.8909 944.285 65.8909 944.413 Q65.8909 945.315 66.0841 951.66 M25.4403 948.89 Q24.1199 948.89 23.0571 947.892 Q21.9621 946.861 21.9621 945.412 Q21.9621 943.962 22.9604 942.932 Q23.9266 941.901 25.4725 941.901 Q26.9862 941.901 27.9846 942.932 Q28.9507 943.962 28.9507 945.412 Q28.9507 946.925 27.8879 947.924 Q26.8252 948.89 25.4403 948.89 Z" fill="#000000" fill-rule="nonzero" fill-opacity="1" /><path clip-path="url(#clip430)" d="M66.0841 933.045 L64.0551 933.045 Q64.0551 929.535 63.6364 928.73 Q63.1856 927.924 61.06 927.924 L43.379 927.924 Q40.9313 927.924 40.3194 928.794 Q39.7075 929.631 39.7075 933.045 L37.6463 933.045 L36.9378 923.77 L43.8621 923.77 Q36.9378 920.678 36.9378 914.012 Q36.9378 906.282 43.379 905.219 Q40.8669 904.092 38.9023 901.741 Q36.9378 899.358 36.9378 895.654 Q36.9378 890.695 39.3854 888.73 Q41.0279 887.281 42.8637 886.991 Q44.6994 886.701 49.4659 886.701 L62.0584 886.701 Q63.4432 886.637 63.7653 885.574 Q64.0551 884.511 64.0551 881.548 L66.0841 881.548 Q65.8909 888.279 65.8909 888.923 Q65.8909 889.438 66.0841 896.395 L64.0551 896.395 Q64.0551 892.885 63.6364 892.079 Q63.1856 891.242 61.06 891.242 L45.6978 891.242 Q42.3484 891.242 40.3838 892.273 Q38.3871 893.303 38.3871 896.137 Q38.3871 899.551 41.2534 902.289 Q44.1197 905.026 48.9506 905.026 L61.06 905.026 Q63.1856 905.026 63.6364 904.221 Q64.0551 903.384 64.0551 899.873 L66.0841 899.873 Q65.8909 906.604 65.8909 907.281 Q65.8909 907.796 66.0841 914.72 L64.0551 914.72 Q64.0551 911.21 63.6364 910.405 Q63.1856 909.567 61.06 909.567 L45.6978 909.567 Q42.3484 909.567 40.3838 910.598 Q38.3871 911.628 38.3871 914.462 Q38.3871 917.876 41.2534 920.614 Q44.1197 923.351 48.9506 923.351 L61.06 923.351 Q63.1856 923.351 63.6364 922.546 Q64.0551 921.709 64.0551 918.231 L66.0841 918.231 Q65.8909 924.962 65.8909 925.606 Q65.8909 926.121 66.0841 933.045 Z" fill="#000000" fill-rule="nonzero" fill-opacity="1" /><path clip-path="url(#clip430)" d="M39.7075 878.922 L37.6463 878.922 L36.9378 869.228 L58.8378 869.228 Q60.4159 869.228 61.3498 869.1 Q62.2516 868.971 63.3144 868.455 Q64.3772 867.908 64.8603 866.684 Q65.3434 865.428 65.3434 863.431 Q65.3434 859.856 62.4126 857.666 Q59.4819 855.444 55.1341 855.444 L43.379 855.444 Q40.9313 855.444 40.3194 856.314 Q39.7075 857.183 39.7075 860.597 L37.6463 860.597 L36.9378 850.903 L60.3515 850.903 Q62.7991 850.903 63.4432 850.066 Q64.0551 849.196 64.0551 845.75 L66.0841 845.75 L66.8248 855.251 L60.8667 855.251 Q66.7926 858.021 66.8248 863.753 Q66.8248 866.652 66.0841 868.649 Q65.3434 870.613 64.4416 871.612 Q63.5076 872.61 61.7363 873.157 Q59.965 873.673 58.87 873.737 Q57.775 873.802 55.6494 873.802 L45.7622 873.802 Q41.2856 873.802 40.5126 874.446 Q39.7075 875.09 39.7075 878.922 Z" fill="#000000" fill-rule="nonzero" fill-opacity="1" /><path clip-path="url(#clip430)" d="M66.0841 843.478 L64.0551 843.478 Q64.0551 839.967 63.6364 839.162 Q63.1856 838.357 61.06 838.357 L43.379 838.357 Q40.9313 838.357 40.3194 839.226 Q39.7075 840.064 39.7075 843.478 L37.6463 843.478 L36.9378 834.202 L43.8621 834.202 Q36.9378 831.111 36.9378 824.444 Q36.9378 816.715 43.379 815.652 Q40.8669 814.525 38.9023 812.173 Q36.9378 809.79 36.9378 806.087 Q36.9378 801.127 39.3854 799.162 Q41.0279 797.713 42.8637 797.423 Q44.6994 797.133 49.4659 797.133 L62.0584 797.133 Q63.4432 797.069 63.7653 796.006 Q64.0551 794.943 64.0551 791.98 L66.0841 791.98 Q65.8909 798.711 65.8909 799.356 Q65.8909 799.871 66.0841 806.827 L64.0551 806.827 Q64.0551 803.317 63.6364 802.512 Q63.1856 801.674 61.06 801.674 L45.6978 801.674 Q42.3484 801.674 40.3838 802.705 Q38.3871 803.736 38.3871 806.57 Q38.3871 809.984 41.2534 812.721 Q44.1197 815.458 48.9506 815.458 L61.06 815.458 Q63.1856 815.458 63.6364 814.653 Q64.0551 813.816 64.0551 810.306 L66.0841 810.306 Q65.8909 817.037 65.8909 817.713 Q65.8909 818.228 66.0841 825.152 L64.0551 825.152 Q64.0551 821.642 63.6364 820.837 Q63.1856 820 61.06 820 L45.6978 820 Q42.3484 820 40.3838 821.03 Q38.3871 822.061 38.3871 824.895 Q38.3871 828.309 41.2534 831.046 Q44.1197 833.784 48.9506 833.784 L61.06 833.784 Q63.1856 833.784 63.6364 832.978 Q64.0551 832.141 64.0551 828.663 L66.0841 828.663 Q65.8909 835.394 65.8909 836.038 Q65.8909 836.553 66.0841 843.478 Z" fill="#000000" fill-rule="nonzero" fill-opacity="1" /><path clip-path="url(#clip430)" d="M43.7332 788.035 Q33.6528 788.035 26.6319 781.593 Q19.5788 775.12 19.5788 766.135 Q19.5788 757.085 26.6319 750.644 Q33.685 744.17 43.7332 744.17 Q53.6848 744.17 60.6091 750.644 Q67.5334 757.117 67.5334 766.135 Q67.5334 775.023 60.6413 781.529 Q53.7493 788.035 43.7332 788.035 M42.7993 781.239 Q48.9184 781.239 53.6204 779.79 Q58.2903 778.341 60.8345 776.022 Q63.3788 773.671 64.6026 771.159 Q65.8264 768.647 65.8264 766.07 Q65.8264 763.558 64.6348 761.111 Q63.4432 758.631 60.9312 756.28 Q58.4191 753.929 53.717 752.447 Q49.015 750.966 42.7993 750.966 Q37.9684 750.966 34.1037 751.996 Q30.2068 753.027 27.8557 754.637 Q25.5047 756.247 23.9588 758.341 Q22.4129 760.402 21.8332 762.367 Q21.2213 764.299 21.2213 766.135 Q21.2213 768.453 22.2519 770.869 Q23.2825 773.284 25.5691 775.732 Q27.8235 778.147 32.3001 779.693 Q36.7446 781.239 42.7993 781.239 Z" fill="#000000" fill-rule="nonzero" fill-opacity="1" /><path clip-path="url(#clip430)" d="M23.0893 736.492 L21.0281 736.492 L20.3196 726.991 L41.2212 726.991 Q36.9378 723.159 36.9378 717.942 Q36.9378 712.273 41.2856 708.119 Q45.6334 703.964 51.8491 703.964 Q58.1292 703.964 62.477 708.312 Q66.8248 712.66 66.8248 718.682 Q66.8248 724.157 61.994 727.313 Q66.0197 729.632 66.0841 729.697 L66.0841 731.339 L26.7607 731.339 Q24.3131 731.339 23.7012 732.209 Q23.0893 733.078 23.0893 736.492 M58.5801 726.798 Q59.965 726.798 61.3498 725.864 Q65.3434 723.256 65.3434 719.004 Q65.3434 718.972 65.3434 718.94 Q65.3434 714.335 61.1244 711.468 Q57.9682 709.439 51.7847 709.439 Q45.6656 709.439 42.606 711.339 Q38.3871 713.98 38.3871 718.264 Q38.3871 723.095 42.606 726.057 Q43.6688 726.798 44.9893 726.798 L58.5801 726.798 Z" fill="#000000" fill-rule="nonzero" fill-opacity="1" /><path clip-path="url(#clip430)" d="M74.3288 704.215 Q73.0084 704.215 72.1388 703.378 Q71.3014 702.573 71.3014 701.188 Q71.3014 699.803 72.1388 698.998 Q73.0084 698.161 74.3288 698.161 Q75.5204 698.161 76.2611 698.869 Q77.0341 699.546 77.2917 700.447 Q78.1613 698.74 78.1613 696.905 Q78.1613 695.391 77.2595 694.36 Q76.3578 693.33 74.8763 692.879 Q73.3948 692.396 72.1388 692.235 Q70.915 692.074 69.4979 692.074 L43.379 692.074 Q40.9313 692.074 40.3194 693.04 Q39.7075 693.974 39.7075 697.742 L37.6463 697.742 L36.9378 687.726 L69.3691 687.726 Q73.7813 687.726 76.6798 690.367 Q79.6106 693.008 79.6106 696.744 Q79.6106 699.771 78.1935 701.993 Q76.7764 704.215 74.3288 704.215 M27.9524 693.684 Q26.9218 694.715 25.4725 694.715 Q24.0232 694.715 22.9927 693.684 Q21.9621 692.654 21.9621 691.204 Q21.9621 689.755 22.9927 688.724 Q24.0232 687.694 25.4725 687.694 Q26.9218 687.694 27.9524 688.724 Q28.9507 689.755 28.9507 691.204 Q28.9507 692.654 27.9524 693.684 Z" fill="#000000" fill-rule="nonzero" fill-opacity="1" /><path clip-path="url(#clip430)" d="M51.5593 676.919 Q45.3435 676.919 40.9313 672.925 Q36.5191 668.932 36.5191 663.199 Q36.5191 657.402 40.2872 654.407 Q44.0553 651.38 49.4659 651.38 Q50.4643 651.38 50.6575 651.637 Q50.8507 651.895 50.8507 653.022 L50.8507 671.444 Q57.5817 671.444 60.7379 669.447 Q65.1501 666.677 65.1501 662.007 Q65.1501 661.363 65.0213 660.59 Q64.8925 659.817 64.345 658.239 Q63.7653 656.661 62.2516 655.276 Q60.7379 653.892 58.3547 653.086 Q57.4207 652.893 57.4529 652.249 Q57.4529 651.38 58.2259 651.38 Q58.8056 651.38 60.126 652.024 Q61.4142 652.636 62.9601 653.827 Q64.506 655.019 65.6654 657.338 Q66.8248 659.624 66.8248 662.394 Q66.8248 668.191 62.4448 672.571 Q58.0326 676.919 51.5593 676.919 M49.4659 671.379 L49.4659 655.727 Q48.081 655.727 46.5351 655.985 Q44.9893 656.21 42.8637 656.919 Q40.7059 657.595 39.3532 659.206 Q38.0006 660.816 38.0006 663.199 Q38.0006 664.262 38.4515 665.421 Q38.9023 666.549 39.9973 667.933 Q41.0923 669.318 43.5722 670.284 Q46.052 671.251 49.4659 671.379 Z" fill="#000000" fill-rule="nonzero" fill-opacity="1" /><path clip-path="url(#clip430)" d="M62.477 643.736 Q58.097 647.923 51.8491 647.923 Q45.569 647.923 41.0601 643.801 Q36.5191 639.678 36.5191 633.624 Q36.5191 629.598 38.4515 626.571 Q40.3516 623.543 43.6044 623.543 Q45.0537 623.543 45.891 624.413 Q46.6962 625.25 46.6962 626.571 Q46.6962 627.955 45.8588 628.793 Q44.9893 629.598 43.6688 629.598 Q43.0891 629.598 42.5094 629.405 Q41.9297 629.211 41.3178 628.503 Q40.7059 627.762 40.6093 626.506 Q38.1938 628.857 38.1938 633.43 Q38.1938 633.495 38.1938 633.559 Q38.1938 636.909 41.35 639.678 Q44.5062 642.448 51.7203 642.448 Q55.4884 642.448 58.2581 641.546 Q60.9956 640.612 62.4126 639.099 Q63.8297 637.585 64.506 636.104 Q65.1501 634.622 65.1501 633.173 Q65.1501 626.699 58.2259 624.509 Q57.5817 624.316 57.5817 623.672 Q57.5817 622.803 58.2259 622.803 Q58.5479 622.803 59.3853 623.06 Q60.2226 623.318 61.5431 624.123 Q62.8635 624.928 64.0229 626.088 Q65.1501 627.215 65.9875 629.244 Q66.8248 631.24 66.8248 633.752 Q66.8248 639.55 62.477 643.736 Z" fill="#000000" fill-rule="nonzero" fill-opacity="1" /><path clip-path="url(#clip430)" d="M39.7075 620.511 L38.2582 620.511 Q38.1294 617.484 36.0038 615.487 Q33.846 613.458 31.2051 612.782 Q28.5643 612.073 25.5047 612.009 L25.5047 610.367 L37.6463 610.367 L37.6463 600.93 L39.7075 600.93 L39.7075 610.367 L58.0326 610.367 Q65.1501 610.367 65.1501 605.922 Q65.1501 604.022 63.2178 602.766 Q61.2532 601.51 57.775 601.51 L54.1357 601.51 L54.1357 599.867 L57.9038 599.867 Q61.4787 599.867 64.1517 601.51 Q66.8248 603.152 66.8248 606.405 Q66.8248 607.597 66.5028 608.788 Q66.2129 609.948 65.44 611.494 Q64.6348 613.007 62.7025 613.974 Q60.7379 614.908 57.9038 614.908 L39.7075 614.908 L39.7075 620.511 Z" fill="#000000" fill-rule="nonzero" fill-opacity="1" /><path clip-path="url(#clip430)" d="M66.0841 595.976 L64.0551 595.976 Q64.0551 592.466 63.6364 591.66 Q63.1856 590.855 61.06 590.855 L43.3146 590.855 Q40.8669 590.855 40.2872 591.693 Q39.7075 592.498 39.7075 595.718 L37.6463 595.718 L36.9378 586.507 L61.1244 586.507 Q63.0889 586.507 63.572 585.799 Q64.0551 585.09 64.0551 581.87 L66.0841 581.87 Q65.8909 588.601 65.8909 588.73 Q65.8909 589.631 66.0841 595.976 M25.4403 593.206 Q24.1199 593.206 23.0571 592.208 Q21.9621 591.177 21.9621 589.728 Q21.9621 588.279 22.9604 587.248 Q23.9266 586.218 25.4725 586.218 Q26.9862 586.218 27.9846 587.248 Q28.9507 588.279 28.9507 589.728 Q28.9507 591.242 27.8879 592.24 Q26.8252 593.206 25.4403 593.206 Z" fill="#000000" fill-rule="nonzero" fill-opacity="1" /><path clip-path="url(#clip430)" d="M39.7075 577.361 L37.6463 577.361 Q37.8396 574.399 37.8396 570.953 Q37.8396 569.697 37.6463 563.771 L39.7075 563.771 Q39.7075 567.539 41.4144 567.539 Q41.6721 567.539 42.5416 567.152 L60.9312 559.745 L44.1197 553.014 Q42.9925 552.627 42.5416 552.627 Q41.4144 552.627 40.6093 553.4 Q39.7719 554.141 39.7075 555.784 L37.6463 555.784 Q37.8396 552.434 37.8396 550.051 Q37.8396 547.346 37.6463 545.123 L39.7075 545.123 Q39.7075 547.088 40.6093 548.473 Q41.4788 549.858 42.2518 550.309 Q42.9925 550.727 44.1197 551.178 L65.5688 559.809 Q66.8248 560.325 66.8248 561.194 Q66.8248 561.774 66.5672 562.032 Q66.3417 562.257 65.5688 562.579 L42.1551 572.08 Q40.5126 572.724 40.1262 573.561 Q39.7075 574.399 39.7075 577.361 Z" fill="#000000" fill-rule="nonzero" fill-opacity="1" /><path clip-path="url(#clip430)" d="M51.5593 541.053 Q45.3435 541.053 40.9313 537.059 Q36.5191 533.066 36.5191 527.333 Q36.5191 521.536 40.2872 518.541 Q44.0553 515.514 49.4659 515.514 Q50.4643 515.514 50.6575 515.771 Q50.8507 516.029 50.8507 517.156 L50.8507 535.578 Q57.5817 535.578 60.7379 533.581 Q65.1501 530.812 65.1501 526.142 Q65.1501 525.498 65.0213 524.725 Q64.8925 523.952 64.345 522.374 Q63.7653 520.796 62.2516 519.411 Q60.7379 518.026 58.3547 517.221 Q57.4207 517.027 57.4529 516.383 Q57.4529 515.514 58.2259 515.514 Q58.8056 515.514 60.126 516.158 Q61.4142 516.77 62.9601 517.961 Q64.506 519.153 65.6654 521.472 Q66.8248 523.758 66.8248 526.528 Q66.8248 532.325 62.4448 536.705 Q58.0326 541.053 51.5593 541.053 M49.4659 535.514 L49.4659 519.862 Q48.081 519.862 46.5351 520.119 Q44.9893 520.345 42.8637 521.053 Q40.7059 521.73 39.3532 523.34 Q38.0006 524.95 38.0006 527.333 Q38.0006 528.396 38.4515 529.556 Q38.9023 530.683 39.9973 532.068 Q41.0923 533.452 43.5722 534.419 Q46.052 535.385 49.4659 535.514 Z" fill="#000000" fill-rule="nonzero" fill-opacity="1" /><path clip-path="url(#clip430)" d="M60.5447 505.294 Q53.556 512.057 43.54 512.057 Q33.4918 512.057 26.5353 505.23 Q19.5788 498.402 19.5788 489.127 Q19.5788 486.808 20.1263 484.843 Q20.6416 482.847 21.7044 481.268 Q22.735 479.69 23.4435 478.885 Q24.1199 478.048 25.2471 476.921 L20.384 473.603 Q19.5788 473.088 19.5788 472.573 Q19.5788 472.025 19.9009 471.929 Q20.1907 471.832 21.1569 471.832 L36.809 471.832 Q37.8718 471.832 38.1294 471.961 Q38.3871 472.09 38.3871 472.895 Q38.3871 473.539 38.1938 473.668 Q38.0006 473.797 37.2598 473.958 Q30.1424 474.956 25.8912 478.95 Q21.64 482.911 21.64 488.322 Q21.64 489.9 21.9943 491.671 Q22.3485 493.41 23.7012 495.987 Q25.0538 498.531 27.276 500.495 Q29.466 502.428 33.7172 503.845 Q37.9362 505.262 43.54 505.262 Q49.0794 505.262 53.3306 503.845 Q57.5817 502.428 59.804 500.463 Q61.994 498.466 63.3788 495.89 Q64.7637 493.281 65.1501 491.446 Q65.5044 489.578 65.5044 487.935 Q65.5044 486.808 65.2789 485.487 Q65.0213 484.167 64.3128 482.202 Q63.572 480.206 61.8329 478.95 Q60.0938 477.694 57.5173 477.694 L53.2984 477.694 Q51.3338 477.694 50.7219 478.66 Q50.11 479.626 50.11 483.845 L50.11 485.938 L48.081 485.938 Q48.2743 483.555 48.2743 475.343 Q48.2743 474.602 48.081 467.291 L50.11 467.291 Q50.11 470.447 50.5931 471.156 Q51.044 471.832 53.0085 471.832 L64.506 471.832 Q66.0197 471.832 66.0197 472.412 Q66.0197 472.927 64.5382 474.473 Q63.0567 475.987 61.9295 476.663 Q64.6992 478.241 66.1163 481.687 Q67.5334 485.101 67.5334 488.998 Q67.5334 498.499 60.5447 505.294 Z" fill="#000000" fill-rule="nonzero" fill-opacity="1" /><path clip-path="url(#clip430)" d="M59.804 461.388 Q54.2001 461.388 51.2372 454.786 Q49.337 450.825 48.854 442.644 L46.4385 442.644 Q42.3484 442.644 40.1906 444.802 Q38.0006 446.928 38.0006 449.633 Q38.0006 454.464 41.0279 456.783 Q41.0923 454.818 42.0907 454.11 Q43.0569 453.401 44.0553 453.401 Q45.3757 453.401 46.2453 454.239 Q47.0826 455.044 47.0826 456.429 Q47.0826 457.749 46.2775 458.619 Q45.4401 459.488 43.9909 459.488 Q40.7703 459.488 38.6447 456.59 Q36.5191 453.659 36.5191 449.504 Q36.5191 444.094 40.1584 440.487 Q41.2856 439.359 42.7348 438.812 Q44.1841 438.232 45.1503 438.168 Q46.0843 438.103 47.9522 438.103 L61.1244 438.103 Q61.5109 438.103 62.155 437.975 Q62.7991 437.846 63.6364 437.266 Q64.4416 436.654 64.4416 435.656 Q64.4416 433.272 60.2226 433.305 L56.519 433.305 L56.519 431.63 L60.2226 431.63 Q63.7331 431.63 65.1179 433.498 Q66.4706 435.334 66.4706 437.041 Q66.4706 439.231 64.8603 440.615 Q63.25 442 61.06 442.194 Q63.572 443.192 65.2145 445.479 Q66.8248 447.733 66.8248 450.825 Q66.8248 453.208 66.2129 455.462 Q65.6332 457.685 63.9907 459.552 Q62.316 461.388 59.804 461.388 M59.7395 456.3 Q62.1872 456.3 63.7653 454.561 Q65.3434 452.821 65.3434 450.374 Q65.3434 447.604 63.2178 445.124 Q61.06 442.644 56.841 442.644 L50.2388 442.644 Q50.4965 449.955 53.4272 453.144 Q56.3257 456.3 59.7395 456.3 Z" fill="#000000" fill-rule="nonzero" fill-opacity="1" /><path clip-path="url(#clip430)" d="M76.8409 434.004 Q76.8409 430.494 76.39 429.689 Q75.9713 428.851 73.8779 428.851 L42.9925 428.851 Q40.8025 428.851 40.255 429.689 Q39.7075 430.494 39.7075 434.004 L37.6463 434.004 L36.9378 424.503 L41.2856 424.503 Q36.9378 420.542 36.9378 415.26 Q36.9378 409.657 41.2856 405.566 Q45.6334 401.476 51.8491 401.476 Q58.1292 401.476 62.477 405.824 Q66.8248 410.172 66.8248 416.194 Q66.8248 419.479 65.1501 421.702 Q63.4432 423.892 62.1872 424.31 L62.7991 424.31 L73.8779 424.31 Q76.0035 424.31 76.4222 423.473 Q76.8409 422.635 76.8409 419.157 L78.8698 419.157 Q78.6766 426.082 78.6766 426.597 Q78.6766 427.241 78.8698 434.004 L76.8409 434.004 M58.5801 424.31 Q59.5785 424.31 59.9328 424.181 Q60.287 424.02 61.3498 423.376 Q65.3434 420.768 65.3434 416.516 Q65.3434 416.484 65.3434 416.452 Q65.3434 412.684 61.5109 409.818 Q57.6462 406.951 51.8491 406.951 Q46.3097 406.951 42.445 409.56 Q38.5803 412.169 38.5803 415.776 Q38.5803 418.352 39.9651 420.607 Q41.35 422.861 43.8621 424.31 L58.5801 424.31 Z" fill="#000000" fill-rule="nonzero" fill-opacity="1" /><polyline clip-path="url(#clip432)" style="stroke:#785ef0; stroke-linecap:round; stroke-linejoin:round; stroke-width:8; stroke-opacity:1; fill:none" points="276.876,96.2523 285.238,146.039 293.601,225.264 301.964,329.926 310.326,442.127 318.689,555.307 327.052,668.591 335.415,781.884 343.777,895.175 352.14,1008.46 360.503,1121.74 368.866,1235.02 377.228,1348.32 385.591,1461.96 "/>
<polyline clip-path="url(#clip432)" style="stroke:#785ef0; stroke-linecap:round; stroke-linejoin:round; stroke-width:8; stroke-opacity:1; fill:none" stroke-dasharray="32, 20" points="276.876,96.2523 285.238,145.265 293.601,222.109 301.964,323.887 310.326,434.65 318.689,547.216 327.052,660.153 335.415,773.171 343.777,886.192 352.14,999.195 360.503,1112.17 368.866,1225.11 377.228,1338.04 385.591,1451.2 "/>
<polyline clip-path="url(#clip432)" style="stroke:#fe6100; stroke-linecap:round; stroke-linejoin:round; stroke-width:8; stroke-opacity:1; fill:none" points="276.876,96.2523 285.238,140.993 293.601,217.595 301.964,217.595 310.326,217.595 318.689,320.91 327.052,432.894 335.415,546.051 343.777,546.051 352.14,659.333 360.503,772.627 368.866,880.687 377.228,993.975 385.591,1110.59 393.954,1110.59 402.316,1245.94 410.679,1245.94 419.042,1245.94 427.405,1245.94 435.767,1318.12 444.13,1318.12 452.493,1318.12 460.856,1318.12 469.218,1318.12 477.581,1318.12 485.944,1318.12 494.306,1318.12 502.669,1318.12 511.032,1318.12 519.395,1318.12 527.757,1318.12 536.12,1318.12 544.483,1318.12 552.846,1318.12 561.208,1318.12 569.571,1318.12 577.934,1318.12 586.297,1318.12 594.659,1318.12 603.022,1326.73 611.385,1326.73 619.747,1387.83 628.11,1729.86 "/>
<polyline clip-path="url(#clip432)" style="stroke:#fe6100; stroke-linecap:round; stroke-linejoin:round; stroke-width:8; stroke-opacity:1; fill:none" stroke-dasharray="32, 20" points="276.876,96.2523 285.238,146.037 293.601,225.261 301.964,325.272 310.326,325.272 318.689,427.445 327.052,429.774 335.415,542.923 343.777,544.251 352.14,657.533 360.503,770.826 368.866,884.122 377.228,884.122 385.591,987.351 393.954,1107.49 402.316,1220.94 410.679,1220.94 419.042,1220.94 427.405,1220.94 435.767,1220.94 444.13,1220.94 452.493,1220.94 460.856,1530.1 "/>
<polyline clip-path="url(#clip432)" style="stroke:#dc267f; stroke-linecap:round; stroke-linejoin:round; stroke-width:8; stroke-opacity:1; fill:none" points="276.876,96.2523 285.238,96.2523 293.601,96.2523 301.964,96.2602 310.326,96.7261 318.689,97.1952 327.052,97.6676 335.415,98.1435 343.777,98.6229 352.14,99.1058 360.503,99.5923 368.866,100.082 377.228,100.576 385.591,101.074 393.954,101.575 402.316,102.08 410.679,102.589 419.042,103.102 427.405,103.619 435.767,104.14 444.13,104.665 452.493,105.194 460.856,105.727 469.218,106.265 477.581,106.807 485.944,107.353 494.306,107.904 502.669,108.459 511.032,109.019 519.395,109.583 527.757,110.152 536.12,110.726 544.483,111.305 552.846,111.888 561.208,112.477 569.571,113.071 577.934,113.669 586.297,114.273 594.659,114.883 603.022,115.497 611.385,116.117 619.747,116.743 628.11,117.374 636.473,118.011 644.836,118.654 653.198,119.302 661.561,119.957 669.924,120.618 678.287,121.284 686.649,121.957 695.012,122.637 703.375,123.323 711.737,124.015 720.1,124.714 728.463,125.42 736.826,126.133 745.188,126.853 753.551,127.581 761.914,128.315 770.277,129.057 778.639,129.806 787.002,130.563 795.365,131.328 803.727,132.101 812.09,132.882 820.453,133.671 828.816,134.469 837.178,135.275 845.541,136.09 853.904,136.913 862.267,137.746 870.629,138.588 878.992,139.44 887.355,140.301 895.718,141.172 904.08,142.052 912.443,142.943 920.806,143.845 929.168,144.757 937.531,145.679 945.894,146.613 954.257,147.558 962.619,148.515 970.982,149.483 979.345,150.464 987.708,151.456 996.07,152.462 1004.43,153.48 1012.8,154.511 1021.16,155.555 1029.52,156.614 1037.88,157.686 1046.25,158.773 1054.61,159.875 1062.97,160.992 1071.33,162.124 1079.7,163.272 1088.06,164.436 1096.42,165.617 1104.79,166.816 1113.15,168.031 1121.51,169.265 1129.87,170.517 1138.24,171.789 1146.6,173.079 1154.96,174.39 1163.32,175.722 1171.69,177.075 1180.05,178.45 1188.41,179.847 1196.78,181.267 1205.14,182.712 1213.5,184.181 1221.86,185.675 1230.23,187.196 1238.59,188.744 1246.95,190.32 1255.31,191.925 1263.68,193.56 1272.04,195.225 1280.4,196.923 1288.77,198.655 1297.13,200.42 1305.49,202.222 1313.85,204.061 1322.22,205.938 1330.58,207.855 1338.94,209.815 1347.3,211.818 1355.67,213.866 1364.03,215.962 1372.39,218.107 1380.76,220.304 1389.12,222.556 1397.48,224.864 1405.84,227.232 1414.21,229.662 1422.57,232.158 1430.93,234.724 1439.29,237.362 1447.66,240.078 1456.02,242.876 1464.38,245.76 1472.75,248.736 1481.11,251.81 1489.47,254.988 1497.83,258.277 1506.2,261.686 1514.56,265.222 1522.92,268.896 1531.28,272.718 1539.65,276.701 1548.01,280.858 1556.37,285.206 1564.74,289.761 1573.1,294.545 1581.46,299.581 1589.82,304.897 1598.19,310.526 1606.55,316.505 1614.91,322.883 1623.27,329.713 1631.64,337.066 1640,345.027 1648.36,353.706 1656.73,363.244 1665.09,373.828 1673.45,385.717 1681.81,399.276 1690.18,413.234 1698.54,427.179 1706.9,441.113 1715.27,455.032 1723.63,468.937 1731.99,482.828 1740.35,496.703 1748.72,510.563 1757.08,524.408 1765.44,538.237 1773.8,552.05 1782.17,565.848 1790.53,579.63 1798.89,593.397 1807.26,607.149 1815.62,620.885 1823.98,634.606 1832.34,648.312 1840.71,662.003 1849.07,675.679 1857.43,689.34 1865.79,702.986 1874.16,716.618 1882.52,730.235 1890.88,743.838 1899.25,757.426 1907.61,771 1915.97,784.56 1924.33,798.106 1932.7,811.638 1941.06,825.157 1949.42,838.661 1957.78,852.152 1966.15,865.629 1974.51,879.093 1982.87,892.544 1991.24,905.981 1999.6,919.405 2007.96,932.816 2016.32,946.214 2024.69,959.599 2033.05,972.971 2041.41,986.331 2049.77,999.677 2058.14,1013.01 2066.5,1026.33 2074.86,1039.64 2083.23,1052.94 2091.59,1066.22 2099.95,1079.5 2108.31,1092.76 2116.68,1106.01 2125.04,1119.24 2133.4,1132.47 2141.76,1145.68 2150.13,1158.88 2158.49,1172.07 2166.85,1185.25 2175.22,1198.42 2183.58,1211.57 2191.94,1224.72 2200.3,1237.85 2208.67,1250.97 2217.03,1264.08 2225.39,1277.18 2233.75,1290.27 2242.12,1303.36 2250.48,1316.43 2258.84,1329.49 2267.21,1342.54 2275.57,1355.59 2283.93,1368.63 2292.29,1381.66 "/>
<polyline clip-path="url(#clip432)" style="stroke:#dc267f; stroke-linecap:round; stroke-linejoin:round; stroke-width:8; stroke-opacity:1; fill:none" stroke-dasharray="32, 20" points="276.876,96.2523 285.238,96.2523 293.601,96.2523 301.964,96.2597 310.326,96.7257 318.689,97.1946 327.052,97.667 335.415,98.1428 343.777,98.6221 352.14,99.1049 360.503,99.5913 368.866,100.081 377.228,100.575 385.591,101.072 393.954,101.574 402.316,102.079 410.679,102.587 419.042,103.1 427.405,103.617 435.767,104.138 444.13,104.663 452.493,105.192 460.856,105.725 469.218,106.262 477.581,106.804 485.944,107.35 494.306,107.901 502.669,108.456 511.032,109.016 519.395,109.58 527.757,110.149 536.12,110.723 544.483,111.301 552.846,111.885 561.208,112.473 569.571,113.067 577.934,113.665 586.297,114.269 594.659,114.878 603.022,115.493 611.385,116.113 619.747,116.738 628.11,117.369 636.473,118.006 644.836,118.648 653.198,119.297 661.561,119.951 669.924,120.612 678.287,121.278 686.649,121.951 695.012,122.63 703.375,123.316 711.737,124.008 720.1,124.707 728.463,125.413 736.826,126.126 745.188,126.846 753.551,127.573 761.914,128.307 770.277,129.049 778.639,129.798 787.002,130.555 795.365,131.319 803.727,132.092 812.09,132.872 820.453,133.661 828.816,134.459 837.178,135.265 845.541,136.079 853.904,136.903 862.267,137.735 870.629,138.577 878.992,139.428 887.355,140.289 895.718,141.159 904.08,142.04 912.443,142.931 920.806,143.832 929.168,144.743 937.531,145.666 945.894,146.599 954.257,147.544 962.619,148.5 970.982,149.468 979.345,150.448 987.708,151.44 996.07,152.445 1004.43,153.463 1012.8,154.494 1021.16,155.538 1029.52,156.596 1037.88,157.668 1046.25,158.754 1054.61,159.856 1062.97,160.972 1071.33,162.104 1079.7,163.251 1088.06,164.415 1096.42,165.596 1104.79,166.793 1113.15,168.008 1121.51,169.242 1129.87,170.493 1138.24,171.764 1146.6,173.054 1154.96,174.364 1163.32,175.695 1171.69,177.048 1180.05,178.422 1188.41,179.818 1196.78,181.238 1205.14,182.682 1213.5,184.15 1221.86,185.643 1230.23,187.163 1238.59,188.71 1246.95,190.285 1255.31,191.889 1263.68,193.523 1272.04,195.188 1280.4,196.885 1288.77,198.615 1297.13,200.38 1305.49,202.18 1313.85,204.017 1322.22,205.894 1330.58,207.81 1338.94,209.768 1347.3,211.769 1355.67,213.816 1364.03,215.91 1372.39,218.054 1380.76,220.249 1389.12,222.499 1397.48,224.805 1405.84,227.171 1414.21,229.599 1422.57,232.093 1430.93,234.656 1439.29,237.292 1447.66,240.006 1456.02,242.8 1464.38,245.682 1472.75,248.655 1481.11,251.725 1489.47,254.9 1497.83,258.186 1506.2,261.59 1514.56,265.122 1522.92,268.791 1531.28,272.608 1539.65,276.586 1548.01,280.737 1556.37,285.078 1564.74,289.626 1573.1,294.402 1581.46,299.429 1589.82,304.736 1598.19,310.353 1606.55,316.321 1614.91,322.684 1623.27,329.498 1631.64,336.833 1640,344.772 1648.36,353.425 1656.73,362.932 1665.09,373.478 1673.45,385.318 1681.81,398.815 1690.18,412.769 1698.54,426.712 1706.9,440.643 1715.27,454.561 1723.63,468.464 1731.99,482.353 1740.35,496.227 1748.72,510.086 1757.08,523.93 1765.44,537.758 1773.8,551.571 1782.17,565.368 1790.53,579.15 1798.89,592.916 1807.26,606.668 1815.62,620.403 1823.98,634.124 1832.34,647.83 1840.71,661.52 1849.07,675.196 1857.43,688.857 1865.79,702.503 1874.16,716.134 1882.52,729.751 1890.88,743.354 1899.25,756.942 1907.61,770.516 1915.97,784.076 1924.33,797.622 1932.7,811.154 1941.06,824.672 1949.42,838.177 1957.78,851.667 1966.15,865.145 1974.51,878.608 1982.87,892.059 1991.24,905.496 1999.6,918.92 2007.96,932.331 2016.32,945.729 2024.69,959.114 2033.05,972.486 2041.41,985.845 2049.77,999.192 2058.14,1012.53 2066.5,1025.85 2074.86,1039.16 2083.23,1052.45 2091.59,1065.74 2099.95,1079.01 2108.31,1092.27 2116.68,1105.52 2125.04,1118.76 2133.4,1131.98 2141.76,1145.19 2150.13,1158.4 2158.49,1171.58 2166.85,1184.76 2175.22,1197.93 2183.58,1211.08 2191.94,1224.23 2200.3,1237.36 2208.67,1250.48 2217.03,1263.6 2225.39,1276.7 2233.75,1289.79 2242.12,1302.87 2250.48,1315.94 2258.84,1329 2267.21,1342.05 2275.57,1355.09 2283.93,1368.13 2292.29,1381.16 "/>
<path clip-path="url(#clip430)" d="M1827.04 300.469 L2283.56 300.469 L2283.56 93.1086 L1827.04 93.1086  Z" fill="#000000" fill-rule="evenodd" fill-opacity="0"/>
<polyline clip-path="url(#clip430)" style="stroke:#000000; stroke-linecap:round; stroke-linejoin:round; stroke-width:4; stroke-opacity:0; fill:none" points="1827.04,300.469 2283.56,300.469 2283.56,93.1086 1827.04,93.1086 1827.04,300.469 "/>
<polyline clip-path="url(#clip430)" style="stroke:#785ef0; stroke-linecap:round; stroke-linejoin:round; stroke-width:8; stroke-opacity:1; fill:none" points="1850.1,144.949 1988.5,144.949 "/>
<path clip-path="url(#clip430)" d="M2027.95 146.025 Q2029.45 146.534 2030.87 148.201 Q2032.3 149.868 2033.74 152.784 L2038.48 162.229 L2033.46 162.229 L2029.04 153.363 Q2027.32 149.891 2025.7 148.756 Q2024.11 147.622 2021.33 147.622 L2016.24 147.622 L2016.24 162.229 L2011.56 162.229 L2011.56 127.669 L2022.12 127.669 Q2028.04 127.669 2030.96 130.145 Q2033.88 132.622 2033.88 137.622 Q2033.88 140.886 2032.35 143.039 Q2030.84 145.192 2027.95 146.025 M2016.24 131.511 L2016.24 143.78 L2022.12 143.78 Q2025.5 143.78 2027.21 142.229 Q2028.94 140.655 2028.94 137.622 Q2028.94 134.59 2027.21 133.062 Q2025.5 131.511 2022.12 131.511 L2016.24 131.511 Z" fill="#000000" fill-rule="nonzero" fill-opacity="1" /><path clip-path="url(#clip430)" d="M2049.18 131.511 L2049.18 144.497 L2055.06 144.497 Q2058.32 144.497 2060.1 142.807 Q2061.88 141.118 2061.88 137.993 Q2061.88 134.891 2060.1 133.201 Q2058.32 131.511 2055.06 131.511 L2049.18 131.511 M2044.5 127.669 L2055.06 127.669 Q2060.87 127.669 2063.83 130.307 Q2066.82 132.923 2066.82 137.993 Q2066.82 143.108 2063.83 145.724 Q2060.87 148.34 2055.06 148.34 L2049.18 148.34 L2049.18 162.229 L2044.5 162.229 L2044.5 127.669 Z" fill="#000000" fill-rule="nonzero" fill-opacity="1" /><path clip-path="url(#clip430)" d="M2077.76 145.724 L2077.76 158.386 L2085.26 158.386 Q2089.04 158.386 2090.84 156.835 Q2092.67 155.261 2092.67 152.043 Q2092.67 148.803 2090.84 147.275 Q2089.04 145.724 2085.26 145.724 L2077.76 145.724 M2077.76 131.511 L2077.76 141.928 L2084.69 141.928 Q2088.11 141.928 2089.78 140.655 Q2091.47 139.358 2091.47 136.719 Q2091.47 134.104 2089.78 132.807 Q2088.11 131.511 2084.69 131.511 L2077.76 131.511 M2073.09 127.669 L2085.03 127.669 Q2090.38 127.669 2093.27 129.891 Q2096.17 132.113 2096.17 136.21 Q2096.17 139.382 2094.69 141.257 Q2093.2 143.131 2090.33 143.594 Q2093.78 144.335 2095.68 146.696 Q2097.6 149.034 2097.6 152.553 Q2097.6 157.182 2094.45 159.705 Q2091.31 162.229 2085.5 162.229 L2073.09 162.229 L2073.09 127.669 Z" fill="#000000" fill-rule="nonzero" fill-opacity="1" /><path clip-path="url(#clip430)" d="M2130.73 126.257 Q2127.62 131.581 2126.12 136.789 Q2124.62 141.997 2124.62 147.344 Q2124.62 152.692 2126.12 157.946 Q2127.65 163.178 2130.73 168.479 L2127.02 168.479 Q2123.55 163.039 2121.81 157.784 Q2120.1 152.53 2120.1 147.344 Q2120.1 142.182 2121.81 136.951 Q2123.53 131.72 2127.02 126.257 L2130.73 126.257 Z" fill="#000000" fill-rule="nonzero" fill-opacity="1" /><path clip-path="url(#clip430)" d="M2153.2 130.84 Q2148.11 130.84 2145.1 134.636 Q2142.12 138.432 2142.12 144.983 Q2142.12 151.511 2145.1 155.307 Q2148.11 159.104 2153.2 159.104 Q2158.3 159.104 2161.26 155.307 Q2164.25 151.511 2164.25 144.983 Q2164.25 138.432 2161.26 134.636 Q2158.3 130.84 2153.2 130.84 M2153.2 127.044 Q2160.47 127.044 2164.82 131.928 Q2169.18 136.789 2169.18 144.983 Q2169.18 153.155 2164.82 158.039 Q2160.47 162.9 2153.2 162.9 Q2145.91 162.9 2141.54 158.039 Q2137.19 153.178 2137.19 144.983 Q2137.19 136.789 2141.54 131.928 Q2145.91 127.044 2153.2 127.044 Z" fill="#000000" fill-rule="nonzero" fill-opacity="1" /><path clip-path="url(#clip430)" d="M2175.87 151.997 L2175.87 136.303 L2180.12 136.303 L2180.12 151.835 Q2180.12 155.516 2181.56 157.368 Q2182.99 159.196 2185.87 159.196 Q2189.31 159.196 2191.31 156.997 Q2193.32 154.798 2193.32 151.002 L2193.32 136.303 L2197.58 136.303 L2197.58 162.229 L2193.32 162.229 L2193.32 158.247 Q2191.77 160.608 2189.71 161.766 Q2187.67 162.9 2184.96 162.9 Q2180.49 162.9 2178.18 160.122 Q2175.87 157.344 2175.87 151.997 M2186.58 135.678 L2186.58 135.678 Z" fill="#000000" fill-rule="nonzero" fill-opacity="1" /><path clip-path="url(#clip430)" d="M2221.37 140.284 Q2220.66 139.868 2219.8 139.682 Q2218.97 139.474 2217.95 139.474 Q2214.34 139.474 2212.39 141.835 Q2210.47 144.173 2210.47 148.571 L2210.47 162.229 L2206.19 162.229 L2206.19 136.303 L2210.47 136.303 L2210.47 140.331 Q2211.81 137.969 2213.97 136.835 Q2216.12 135.678 2219.2 135.678 Q2219.64 135.678 2220.17 135.747 Q2220.7 135.794 2221.35 135.909 L2221.37 140.284 Z" fill="#000000" fill-rule="nonzero" fill-opacity="1" /><path clip-path="url(#clip430)" d="M2242.37 137.067 L2242.37 141.094 Q2240.56 140.169 2238.62 139.706 Q2236.68 139.243 2234.59 139.243 Q2231.42 139.243 2229.82 140.215 Q2228.25 141.187 2228.25 143.131 Q2228.25 144.613 2229.38 145.469 Q2230.52 146.303 2233.94 147.067 L2235.4 147.391 Q2239.94 148.363 2241.84 150.145 Q2243.76 151.905 2243.76 155.076 Q2243.76 158.687 2240.89 160.793 Q2238.04 162.9 2233.04 162.9 Q2230.96 162.9 2228.69 162.483 Q2226.44 162.09 2223.94 161.28 L2223.94 156.881 Q2226.3 158.108 2228.6 158.733 Q2230.89 159.335 2233.13 159.335 Q2236.14 159.335 2237.76 158.317 Q2239.38 157.275 2239.38 155.4 Q2239.38 153.664 2238.2 152.738 Q2237.05 151.812 2233.09 150.956 L2231.61 150.608 Q2227.65 149.775 2225.89 148.062 Q2224.13 146.326 2224.13 143.317 Q2224.13 139.659 2226.72 137.669 Q2229.31 135.678 2234.08 135.678 Q2236.44 135.678 2238.53 136.025 Q2240.61 136.372 2242.37 137.067 Z" fill="#000000" fill-rule="nonzero" fill-opacity="1" /><path clip-path="url(#clip430)" d="M2249.87 126.257 L2253.57 126.257 Q2257.05 131.72 2258.76 136.951 Q2260.49 142.182 2260.49 147.344 Q2260.49 152.53 2258.76 157.784 Q2257.05 163.039 2253.57 168.479 L2249.87 168.479 Q2252.95 163.178 2254.45 157.946 Q2255.98 152.692 2255.98 147.344 Q2255.98 141.997 2254.45 136.789 Q2252.95 131.581 2249.87 126.257 Z" fill="#000000" fill-rule="nonzero" fill-opacity="1" /><polyline clip-path="url(#clip430)" style="stroke:#fe6100; stroke-linecap:round; stroke-linejoin:round; stroke-width:8; stroke-opacity:1; fill:none" points="1850.1,196.789 1988.5,196.789 "/>
<path clip-path="url(#clip430)" d="M2027.95 197.865 Q2029.45 198.374 2030.87 200.041 Q2032.3 201.708 2033.74 204.624 L2038.48 214.069 L2033.46 214.069 L2029.04 205.203 Q2027.32 201.731 2025.7 200.596 Q2024.11 199.462 2021.33 199.462 L2016.24 199.462 L2016.24 214.069 L2011.56 214.069 L2011.56 179.509 L2022.12 179.509 Q2028.04 179.509 2030.96 181.985 Q2033.88 184.462 2033.88 189.462 Q2033.88 192.726 2032.35 194.879 Q2030.84 197.032 2027.95 197.865 M2016.24 183.351 L2016.24 195.62 L2022.12 195.62 Q2025.5 195.62 2027.21 194.069 Q2028.94 192.495 2028.94 189.462 Q2028.94 186.43 2027.21 184.902 Q2025.5 183.351 2022.12 183.351 L2016.24 183.351 Z" fill="#000000" fill-rule="nonzero" fill-opacity="1" /><path clip-path="url(#clip430)" d="M2068.02 182.171 L2068.02 187.101 Q2065.66 184.902 2062.97 183.814 Q2060.31 182.726 2057.3 182.726 Q2051.38 182.726 2048.23 186.36 Q2045.08 189.972 2045.08 196.823 Q2045.08 203.652 2048.23 207.286 Q2051.38 210.897 2057.3 210.897 Q2060.31 210.897 2062.97 209.809 Q2065.66 208.721 2068.02 206.522 L2068.02 211.407 Q2065.57 213.073 2062.81 213.907 Q2060.08 214.74 2057.02 214.74 Q2049.18 214.74 2044.66 209.948 Q2040.15 205.133 2040.15 196.823 Q2040.15 188.49 2044.66 183.698 Q2049.18 178.884 2057.02 178.884 Q2060.13 178.884 2062.86 179.717 Q2065.61 180.527 2068.02 182.171 Z" fill="#000000" fill-rule="nonzero" fill-opacity="1" /><path clip-path="url(#clip430)" d="M2079.92 197.564 L2079.92 210.226 L2087.42 210.226 Q2091.19 210.226 2093 208.675 Q2094.82 207.101 2094.82 203.883 Q2094.82 200.643 2093 199.115 Q2091.19 197.564 2087.42 197.564 L2079.92 197.564 M2079.92 183.351 L2079.92 193.768 L2086.84 193.768 Q2090.26 193.768 2091.93 192.495 Q2093.62 191.198 2093.62 188.559 Q2093.62 185.944 2091.93 184.647 Q2090.26 183.351 2086.84 183.351 L2079.92 183.351 M2075.24 179.509 L2087.19 179.509 Q2092.53 179.509 2095.43 181.731 Q2098.32 183.953 2098.32 188.05 Q2098.32 191.222 2096.84 193.097 Q2095.36 194.971 2092.49 195.434 Q2095.94 196.175 2097.83 198.536 Q2099.75 200.874 2099.75 204.393 Q2099.75 209.022 2096.61 211.545 Q2093.46 214.069 2087.65 214.069 L2075.24 214.069 L2075.24 179.509 Z" fill="#000000" fill-rule="nonzero" fill-opacity="1" /><path clip-path="url(#clip430)" d="M2107.76 179.509 L2114.73 179.509 L2123.55 203.027 L2132.42 179.509 L2139.38 179.509 L2139.38 214.069 L2134.82 214.069 L2134.82 183.722 L2125.91 207.425 L2121.21 207.425 L2112.3 183.722 L2112.3 214.069 L2107.76 214.069 L2107.76 179.509 Z" fill="#000000" fill-rule="nonzero" fill-opacity="1" /><polyline clip-path="url(#clip430)" style="stroke:#dc267f; stroke-linecap:round; stroke-linejoin:round; stroke-width:8; stroke-opacity:1; fill:none" points="1850.1,248.629 1988.5,248.629 "/>
<path clip-path="url(#clip430)" d="M2016.24 235.191 L2016.24 248.177 L2022.12 248.177 Q2025.38 248.177 2027.16 246.487 Q2028.94 244.798 2028.94 241.673 Q2028.94 238.571 2027.16 236.881 Q2025.38 235.191 2022.12 235.191 L2016.24 235.191 M2011.56 231.349 L2022.12 231.349 Q2027.93 231.349 2030.89 233.987 Q2033.88 236.603 2033.88 241.673 Q2033.88 246.788 2030.89 249.404 Q2027.93 252.02 2022.12 252.02 L2016.24 252.02 L2016.24 265.909 L2011.56 265.909 L2011.56 231.349 Z" fill="#000000" fill-rule="nonzero" fill-opacity="1" /><path clip-path="url(#clip430)" d="M2044.82 249.404 L2044.82 262.066 L2052.32 262.066 Q2056.1 262.066 2057.9 260.515 Q2059.73 258.941 2059.73 255.723 Q2059.73 252.483 2057.9 250.955 Q2056.1 249.404 2052.32 249.404 L2044.82 249.404 M2044.82 235.191 L2044.82 245.608 L2051.75 245.608 Q2055.17 245.608 2056.84 244.335 Q2058.53 243.038 2058.53 240.399 Q2058.53 237.784 2056.84 236.487 Q2055.17 235.191 2051.75 235.191 L2044.82 235.191 M2040.15 231.349 L2052.09 231.349 Q2057.44 231.349 2060.33 233.571 Q2063.23 235.793 2063.23 239.89 Q2063.23 243.062 2061.75 244.937 Q2060.26 246.811 2057.39 247.274 Q2060.84 248.015 2062.74 250.376 Q2064.66 252.714 2064.66 256.233 Q2064.66 260.862 2061.51 263.385 Q2058.37 265.909 2052.56 265.909 L2040.15 265.909 L2040.15 231.349 Z" fill="#000000" fill-rule="nonzero" fill-opacity="1" /><path clip-path="url(#clip430)" d="M2084.22 235.955 L2077.88 253.154 L2090.59 253.154 L2084.22 235.955 M2081.58 231.349 L2086.88 231.349 L2100.06 265.909 L2095.19 265.909 L2092.05 257.043 L2076.47 257.043 L2073.32 265.909 L2068.39 265.909 L2081.58 231.349 Z" fill="#000000" fill-rule="nonzero" fill-opacity="1" /></svg>
