<?xml version="1.0" encoding="utf-8"?>
<svg xmlns="http://www.w3.org/2000/svg" xmlns:xlink="http://www.w3.org/1999/xlink" width="600" height="400" viewBox="0 0 2400 1600">
<defs>
  <clipPath id="clip140">
    <rect x="0" y="0" width="2400" height="1600"/>
  </clipPath>
</defs>
<path clip-path="url(#clip140)" d="M0 1600 L2400 1600 L2400 8.88178e-14 L0 8.88178e-14  Z" fill="#ffffff" fill-rule="evenodd" fill-opacity="1"/>
<defs>
  <clipPath id="clip141">
    <rect x="480" y="0" width="1681" height="1600"/>
  </clipPath>
</defs>
<path clip-path="url(#clip140)" d="M276.876 1423.18 L2352.76 1423.18 L2352.76 47.2441 L276.876 47.2441  Z" fill="#ffffff" fill-rule="evenodd" fill-opacity="1"/>
<defs>
  <clipPath id="clip142">
    <rect x="276" y="47" width="2077" height="1377"/>
  </clipPath>
</defs>
<polyline clip-path="url(#clip142)" style="stroke:#000000; stroke-linecap:round; stroke-linejoin:round; stroke-width:2; stroke-opacity:0.1; fill:none" points="276.876,1423.18 276.876,47.2441 "/>
<polyline clip-path="url(#clip142)" style="stroke:#000000; stroke-linecap:round; stroke-linejoin:round; stroke-width:2; stroke-opacity:0.1; fill:none" points="738.182,1423.18 738.182,47.2441 "/>
<polyline clip-path="url(#clip142)" style="stroke:#000000; stroke-linecap:round; stroke-linejoin:round; stroke-width:2; stroke-opacity:0.1; fill:none" points="1199.49,1423.18 1199.49,47.2441 "/>
<polyline clip-path="url(#clip142)" style="stroke:#000000; stroke-linecap:round; stroke-linejoin:round; stroke-width:2; stroke-opacity:0.1; fill:none" points="1660.8,1423.18 1660.8,47.2441 "/>
<polyline clip-path="url(#clip142)" style="stroke:#000000; stroke-linecap:round; stroke-linejoin:round; stroke-width:2; stroke-opacity:0.1; fill:none" points="2122.1,1423.18 2122.1,47.2441 "/>
<polyline clip-path="url(#clip142)" style="stroke:#000000; stroke-linecap:round; stroke-linejoin:round; stroke-width:2; stroke-opacity:0.1; fill:none" points="276.876,1194.78 2352.76,1194.78 "/>
<polyline clip-path="url(#clip142)" style="stroke:#000000; stroke-linecap:round; stroke-linejoin:round; stroke-width:2; stroke-opacity:0.1; fill:none" points="276.876,623.777 2352.76,623.777 "/>
<polyline clip-path="url(#clip142)" style="stroke:#000000; stroke-linecap:round; stroke-linejoin:round; stroke-width:2; stroke-opacity:0.1; fill:none" points="276.876,52.7757 2352.76,52.7757 "/>
<polyline clip-path="url(#clip140)" style="stroke:#000000; stroke-linecap:round; stroke-linejoin:round; stroke-width:4; stroke-opacity:1; fill:none" points="276.876,1423.18 2352.76,1423.18 "/>
<polyline clip-path="url(#clip140)" style="stroke:#000000; stroke-linecap:round; stroke-linejoin:round; stroke-width:4; stroke-opacity:1; fill:none" points="276.876,1423.18 276.876,1404.28 "/>
<polyline clip-path="url(#clip140)" style="stroke:#000000; stroke-linecap:round; stroke-linejoin:round; stroke-width:4; stroke-opacity:1; fill:none" points="738.182,1423.18 738.182,1404.28 "/>
<polyline clip-path="url(#clip140)" style="stroke:#000000; stroke-linecap:round; stroke-linejoin:round; stroke-width:4; stroke-opacity:1; fill:none" points="1199.49,1423.18 1199.49,1404.28 "/>
<polyline clip-path="url(#clip140)" style="stroke:#000000; stroke-linecap:round; stroke-linejoin:round; stroke-width:4; stroke-opacity:1; fill:none" points="1660.8,1423.18 1660.8,1404.28 "/>
<polyline clip-path="url(#clip140)" style="stroke:#000000; stroke-linecap:round; stroke-linejoin:round; stroke-width:4; stroke-opacity:1; fill:none" points="2122.1,1423.18 2122.1,1404.28 "/>
<path clip-path="url(#clip140)" d="M276.876 1454.1 Q273.264 1454.1 271.436 1457.66 Q269.63 1461.2 269.63 1468.33 Q269.63 1475.44 271.436 1479.01 Q273.264 1482.55 276.876 1482.55 Q280.51 1482.55 282.315 1479.01 Q284.144 1475.44 284.144 1468.33 Q284.144 1461.2 282.315 1457.66 Q280.51 1454.1 276.876 1454.1 M276.876 1450.39 Q282.686 1450.39 285.741 1455 Q288.82 1459.58 288.82 1468.33 Q288.82 1477.06 285.741 1481.67 Q282.686 1486.25 276.876 1486.25 Q271.065 1486.25 267.987 1481.67 Q264.931 1477.06 264.931 1468.33 Q264.931 1459.58 267.987 1455 Q271.065 1450.39 276.876 1450.39 Z" fill="#000000" fill-rule="nonzero" fill-opacity="1" /><path clip-path="url(#clip140)" d="M712.87 1481.64 L720.509 1481.64 L720.509 1455.28 L712.199 1456.95 L712.199 1452.69 L720.462 1451.02 L725.138 1451.02 L725.138 1481.64 L732.777 1481.64 L732.777 1485.58 L712.87 1485.58 L712.87 1481.64 Z" fill="#000000" fill-rule="nonzero" fill-opacity="1" /><path clip-path="url(#clip140)" d="M752.222 1454.1 Q748.61 1454.1 746.782 1457.66 Q744.976 1461.2 744.976 1468.33 Q744.976 1475.44 746.782 1479.01 Q748.61 1482.55 752.222 1482.55 Q755.856 1482.55 757.661 1479.01 Q759.49 1475.44 759.49 1468.33 Q759.49 1461.2 757.661 1457.66 Q755.856 1454.1 752.222 1454.1 M752.222 1450.39 Q758.032 1450.39 761.087 1455 Q764.166 1459.58 764.166 1468.33 Q764.166 1477.06 761.087 1481.67 Q758.032 1486.25 752.222 1486.25 Q746.411 1486.25 743.333 1481.67 Q740.277 1477.06 740.277 1468.33 Q740.277 1459.58 743.333 1455 Q746.411 1450.39 752.222 1450.39 Z" fill="#000000" fill-rule="nonzero" fill-opacity="1" /><path clip-path="url(#clip140)" d="M1178.26 1481.64 L1194.58 1481.64 L1194.58 1485.58 L1172.64 1485.58 L1172.64 1481.64 Q1175.3 1478.89 1179.88 1474.26 Q1184.49 1469.61 1185.67 1468.27 Q1187.92 1465.74 1188.79 1464.01 Q1189.7 1462.25 1189.7 1460.56 Q1189.7 1457.8 1187.75 1456.07 Q1185.83 1454.33 1182.73 1454.33 Q1180.53 1454.33 1178.08 1455.09 Q1175.65 1455.86 1172.87 1457.41 L1172.87 1452.69 Q1175.69 1451.55 1178.15 1450.97 Q1180.6 1450.39 1182.64 1450.39 Q1188.01 1450.39 1191.2 1453.08 Q1194.4 1455.77 1194.4 1460.26 Q1194.4 1462.39 1193.59 1464.31 Q1192.8 1466.2 1190.69 1468.8 Q1190.11 1469.47 1187.01 1472.69 Q1183.91 1475.88 1178.26 1481.64 Z" fill="#000000" fill-rule="nonzero" fill-opacity="1" /><path clip-path="url(#clip140)" d="M1214.4 1454.1 Q1210.79 1454.1 1208.96 1457.66 Q1207.15 1461.2 1207.15 1468.33 Q1207.15 1475.44 1208.96 1479.01 Q1210.79 1482.55 1214.4 1482.55 Q1218.03 1482.55 1219.84 1479.01 Q1221.66 1475.44 1221.66 1468.33 Q1221.66 1461.2 1219.84 1457.66 Q1218.03 1454.1 1214.4 1454.1 M1214.4 1450.39 Q1220.21 1450.39 1223.26 1455 Q1226.34 1459.58 1226.34 1468.33 Q1226.34 1477.06 1223.26 1481.67 Q1220.21 1486.25 1214.4 1486.25 Q1208.59 1486.25 1205.51 1481.67 Q1202.45 1477.06 1202.45 1468.33 Q1202.45 1459.58 1205.51 1455 Q1208.59 1450.39 1214.4 1450.39 Z" fill="#000000" fill-rule="nonzero" fill-opacity="1" /><path clip-path="url(#clip140)" d="M1649.64 1466.95 Q1652.99 1467.66 1654.87 1469.93 Q1656.77 1472.2 1656.77 1475.53 Q1656.77 1480.65 1653.25 1483.45 Q1649.73 1486.25 1643.25 1486.25 Q1641.07 1486.25 1638.76 1485.81 Q1636.47 1485.39 1634.01 1484.54 L1634.01 1480.02 Q1635.96 1481.16 1638.27 1481.74 Q1640.59 1482.32 1643.11 1482.32 Q1647.51 1482.32 1649.8 1480.58 Q1652.12 1478.84 1652.12 1475.53 Q1652.12 1472.48 1649.96 1470.77 Q1647.83 1469.03 1644.01 1469.03 L1639.99 1469.03 L1639.99 1465.19 L1644.2 1465.19 Q1647.65 1465.19 1649.48 1463.82 Q1651.31 1462.43 1651.31 1459.84 Q1651.31 1457.18 1649.41 1455.77 Q1647.53 1454.33 1644.01 1454.33 Q1642.09 1454.33 1639.89 1454.75 Q1637.69 1455.16 1635.06 1456.04 L1635.06 1451.88 Q1637.72 1451.14 1640.03 1450.77 Q1642.37 1450.39 1644.43 1450.39 Q1649.75 1450.39 1652.86 1452.83 Q1655.96 1455.23 1655.96 1459.35 Q1655.96 1462.22 1654.31 1464.21 Q1652.67 1466.18 1649.64 1466.95 Z" fill="#000000" fill-rule="nonzero" fill-opacity="1" /><path clip-path="url(#clip140)" d="M1675.63 1454.1 Q1672.02 1454.1 1670.19 1457.66 Q1668.39 1461.2 1668.39 1468.33 Q1668.39 1475.44 1670.19 1479.01 Q1672.02 1482.55 1675.63 1482.55 Q1679.27 1482.55 1681.07 1479.01 Q1682.9 1475.44 1682.9 1468.33 Q1682.9 1461.2 1681.07 1457.66 Q1679.27 1454.1 1675.63 1454.1 M1675.63 1450.39 Q1681.44 1450.39 1684.5 1455 Q1687.58 1459.58 1687.58 1468.33 Q1687.58 1477.06 1684.5 1481.67 Q1681.44 1486.25 1675.63 1486.25 Q1669.82 1486.25 1666.74 1481.67 Q1663.69 1477.06 1663.69 1468.33 Q1663.69 1459.58 1666.74 1455 Q1669.82 1450.39 1675.63 1450.39 Z" fill="#000000" fill-rule="nonzero" fill-opacity="1" /><path clip-path="url(#clip140)" d="M2110.27 1455.09 L2098.47 1473.54 L2110.27 1473.54 L2110.27 1455.09 M2109.05 1451.02 L2114.93 1451.02 L2114.93 1473.54 L2119.86 1473.54 L2119.86 1477.43 L2114.93 1477.43 L2114.93 1485.58 L2110.27 1485.58 L2110.27 1477.43 L2094.67 1477.43 L2094.67 1472.92 L2109.05 1451.02 Z" fill="#000000" fill-rule="nonzero" fill-opacity="1" /><path clip-path="url(#clip140)" d="M2137.59 1454.1 Q2133.98 1454.1 2132.15 1457.66 Q2130.34 1461.2 2130.34 1468.33 Q2130.34 1475.44 2132.15 1479.01 Q2133.98 1482.55 2137.59 1482.55 Q2141.22 1482.55 2143.03 1479.01 Q2144.86 1475.44 2144.86 1468.33 Q2144.86 1461.2 2143.03 1457.66 Q2141.22 1454.1 2137.59 1454.1 M2137.59 1450.39 Q2143.4 1450.39 2146.45 1455 Q2149.53 1459.58 2149.53 1468.33 Q2149.53 1477.06 2146.45 1481.67 Q2143.4 1486.25 2137.59 1486.25 Q2131.78 1486.25 2128.7 1481.67 Q2125.64 1477.06 2125.64 1468.33 Q2125.64 1459.58 2128.7 1455 Q2131.78 1450.39 2137.59 1450.39 Z" fill="#000000" fill-rule="nonzero" fill-opacity="1" /><path clip-path="url(#clip140)" d="M1146.61 1539.49 Q1146.61 1529.41 1153.06 1522.39 Q1159.53 1515.34 1168.51 1515.34 Q1177.56 1515.34 1184.01 1522.39 Q1190.48 1529.45 1190.48 1539.49 Q1190.48 1549.45 1184.01 1556.37 Q1177.53 1563.29 1168.51 1563.29 Q1159.63 1563.29 1153.12 1556.4 Q1146.61 1549.51 1146.61 1539.49 M1153.41 1538.56 Q1153.41 1544.68 1154.86 1549.38 Q1156.31 1554.05 1158.63 1556.59 Q1160.98 1559.14 1163.49 1560.36 Q1166 1561.59 1168.58 1561.59 Q1171.09 1561.59 1173.54 1560.4 Q1176.02 1559.2 1178.37 1556.69 Q1180.72 1554.18 1182.2 1549.48 Q1183.68 1544.78 1183.68 1538.56 Q1183.68 1533.73 1182.65 1529.86 Q1181.62 1525.97 1180.01 1523.62 Q1178.4 1521.26 1176.31 1519.72 Q1174.25 1518.17 1172.28 1517.59 Q1170.35 1516.98 1168.51 1516.98 Q1166.2 1516.98 1163.78 1518.01 Q1161.36 1519.04 1158.92 1521.33 Q1156.5 1523.58 1154.96 1528.06 Q1153.41 1532.5 1153.41 1538.56 Z" fill="#000000" fill-rule="nonzero" fill-opacity="1" /><path clip-path="url(#clip140)" d="M1198.16 1561.84 L1198.16 1559.82 Q1201.67 1559.82 1202.47 1559.4 Q1203.31 1558.95 1203.31 1556.82 L1203.31 1539.14 Q1203.31 1536.69 1202.44 1536.08 Q1201.6 1535.47 1198.16 1535.47 L1198.16 1533.41 L1207.34 1532.7 L1207.34 1539.94 Q1208.27 1537.11 1210.23 1534.92 Q1212.23 1532.7 1215.45 1532.7 Q1217.58 1532.7 1218.93 1533.89 Q1220.31 1535.08 1220.31 1536.72 Q1220.31 1538.17 1219.41 1538.91 Q1218.54 1539.62 1217.48 1539.62 Q1216.29 1539.62 1215.45 1538.88 Q1214.65 1538.11 1214.65 1536.79 Q1214.65 1535.98 1215 1535.37 Q1215.39 1534.73 1215.68 1534.5 Q1215.97 1534.28 1216.16 1534.21 Q1216.03 1534.15 1215.45 1534.15 Q1211.81 1534.15 1209.72 1537.79 Q1207.66 1541.39 1207.66 1546.55 L1207.66 1556.69 Q1207.66 1558.59 1208.43 1559.2 Q1209.24 1559.82 1212.68 1559.82 L1214.07 1559.82 L1214.07 1561.84 Q1211.43 1561.65 1205.69 1561.65 Q1204.89 1561.65 1203.63 1561.68 Q1202.38 1561.72 1200.73 1561.78 Q1199.09 1561.84 1198.16 1561.84 Z" fill="#000000" fill-rule="nonzero" fill-opacity="1" /><path clip-path="url(#clip140)" d="M1225.72 1555.56 Q1225.72 1549.96 1232.32 1547 Q1236.28 1545.1 1244.46 1544.61 L1244.46 1542.2 Q1244.46 1538.11 1242.3 1535.95 Q1240.18 1533.76 1237.47 1533.76 Q1232.64 1533.76 1230.32 1536.79 Q1232.29 1536.85 1233 1537.85 Q1233.71 1538.82 1233.71 1539.82 Q1233.71 1541.14 1232.87 1542.01 Q1232.06 1542.84 1230.68 1542.84 Q1229.36 1542.84 1228.49 1542.04 Q1227.62 1541.2 1227.62 1539.75 Q1227.62 1536.53 1230.52 1534.4 Q1233.45 1532.28 1237.6 1532.28 Q1243.01 1532.28 1246.62 1535.92 Q1247.75 1537.05 1248.29 1538.5 Q1248.87 1539.94 1248.94 1540.91 Q1249 1541.84 1249 1543.71 L1249 1556.88 Q1249 1557.27 1249.13 1557.92 Q1249.26 1558.56 1249.84 1559.4 Q1250.45 1560.2 1251.45 1560.2 Q1253.83 1560.2 1253.8 1555.98 L1253.8 1552.28 L1255.48 1552.28 L1255.48 1555.98 Q1255.48 1559.49 1253.61 1560.88 Q1251.77 1562.23 1250.07 1562.23 Q1247.88 1562.23 1246.49 1560.62 Q1245.11 1559.01 1244.91 1556.82 Q1243.91 1559.33 1241.63 1560.97 Q1239.37 1562.59 1236.28 1562.59 Q1233.9 1562.59 1231.64 1561.97 Q1229.42 1561.39 1227.55 1559.75 Q1225.72 1558.08 1225.72 1555.56 M1230.81 1555.5 Q1230.81 1557.95 1232.55 1559.53 Q1234.29 1561.1 1236.73 1561.1 Q1239.5 1561.1 1241.98 1558.98 Q1244.46 1556.82 1244.46 1552.6 L1244.46 1546 Q1237.15 1546.26 1233.96 1549.19 Q1230.81 1552.09 1230.81 1555.5 Z" fill="#000000" fill-rule="nonzero" fill-opacity="1" /><path clip-path="url(#clip140)" d="M1262.57 1558.24 Q1258.38 1553.86 1258.38 1547.61 Q1258.38 1541.33 1262.5 1536.82 Q1266.63 1532.28 1272.68 1532.28 Q1276.71 1532.28 1279.73 1534.21 Q1282.76 1536.11 1282.76 1539.36 Q1282.76 1540.81 1281.89 1541.65 Q1281.06 1542.46 1279.73 1542.46 Q1278.35 1542.46 1277.51 1541.62 Q1276.71 1540.75 1276.71 1539.43 Q1276.71 1538.85 1276.9 1538.27 Q1277.09 1537.69 1277.8 1537.08 Q1278.54 1536.47 1279.8 1536.37 Q1277.45 1533.95 1272.88 1533.95 Q1272.81 1533.95 1272.75 1533.95 Q1269.4 1533.95 1266.63 1537.11 Q1263.86 1540.27 1263.86 1547.48 Q1263.86 1551.25 1264.76 1554.02 Q1265.69 1556.76 1267.21 1558.17 Q1268.72 1559.59 1270.2 1560.27 Q1271.68 1560.91 1273.13 1560.91 Q1279.61 1560.91 1281.8 1553.99 Q1281.99 1553.34 1282.63 1553.34 Q1283.5 1553.34 1283.5 1553.99 Q1283.5 1554.31 1283.25 1555.15 Q1282.99 1555.98 1282.18 1557.3 Q1281.38 1558.62 1280.22 1559.78 Q1279.09 1560.91 1277.06 1561.75 Q1275.07 1562.59 1272.55 1562.59 Q1266.76 1562.59 1262.57 1558.24 Z" fill="#000000" fill-rule="nonzero" fill-opacity="1" /><path clip-path="url(#clip140)" d="M1286.85 1561.84 L1286.85 1559.82 Q1290.36 1559.82 1291.17 1559.4 Q1291.97 1558.95 1291.97 1556.82 L1291.97 1522.52 Q1291.97 1520.07 1291.1 1519.46 Q1290.26 1518.85 1286.85 1518.85 L1286.85 1516.79 L1296.32 1516.08 L1296.32 1556.82 Q1296.32 1558.95 1297.16 1559.4 Q1297.99 1559.82 1301.47 1559.82 L1301.47 1561.84 Q1300.67 1561.84 1298.99 1561.78 Q1297.32 1561.72 1296.09 1561.68 Q1294.87 1561.65 1294.16 1561.65 Q1293.39 1561.65 1286.85 1561.84 Z" fill="#000000" fill-rule="nonzero" fill-opacity="1" /><path clip-path="url(#clip140)" d="M1305.73 1547.32 Q1305.73 1541.1 1309.72 1536.69 Q1313.72 1532.28 1319.45 1532.28 Q1325.25 1532.28 1328.24 1536.05 Q1331.27 1539.82 1331.27 1545.23 Q1331.27 1546.22 1331.01 1546.42 Q1330.75 1546.61 1329.63 1546.61 L1311.2 1546.61 Q1311.2 1553.34 1313.2 1556.5 Q1315.97 1560.91 1320.64 1560.91 Q1321.28 1560.91 1322.06 1560.78 Q1322.83 1560.65 1324.41 1560.11 Q1325.99 1559.53 1327.37 1558.01 Q1328.76 1556.5 1329.56 1554.11 Q1329.75 1553.18 1330.4 1553.21 Q1331.27 1553.21 1331.27 1553.99 Q1331.27 1554.57 1330.62 1555.89 Q1330.01 1557.17 1328.82 1558.72 Q1327.63 1560.27 1325.31 1561.43 Q1323.02 1562.59 1320.25 1562.59 Q1314.46 1562.59 1310.08 1558.21 Q1305.73 1553.79 1305.73 1547.32 M1311.27 1545.23 L1326.92 1545.23 Q1326.92 1543.84 1326.66 1542.3 Q1326.44 1540.75 1325.73 1538.62 Q1325.05 1536.47 1323.44 1535.11 Q1321.83 1533.76 1319.45 1533.76 Q1318.39 1533.76 1317.23 1534.21 Q1316.1 1534.66 1314.71 1535.76 Q1313.33 1536.85 1312.36 1539.33 Q1311.4 1541.81 1311.27 1545.23 Z" fill="#000000" fill-rule="nonzero" fill-opacity="1" /><path clip-path="url(#clip140)" d="M1334.72 1539.3 Q1334.72 1529.35 1341.52 1522.36 Q1348.32 1515.34 1357.65 1515.34 Q1360.55 1515.34 1363.13 1516.4 Q1365.71 1517.46 1366.9 1518.4 Q1368.09 1519.3 1369.8 1521.01 L1373.11 1516.14 Q1373.63 1515.34 1374.14 1515.34 Q1374.69 1515.34 1374.79 1515.66 Q1374.88 1515.95 1374.88 1516.92 L1374.88 1532.57 Q1374.88 1533.63 1374.76 1533.89 Q1374.63 1534.15 1373.82 1534.15 Q1373.18 1534.15 1373.02 1533.95 Q1372.89 1533.76 1372.76 1533.02 Q1371.76 1525.9 1367.8 1521.65 Q1363.87 1517.4 1358.4 1517.4 Q1356.82 1517.4 1355.05 1517.75 Q1353.31 1518.11 1350.76 1519.46 Q1348.25 1520.81 1346.29 1523.07 Q1344.35 1525.29 1342.94 1529.54 Q1341.52 1533.76 1341.52 1539.36 Q1341.52 1544.9 1342.94 1549.16 Q1344.35 1553.41 1346.29 1555.63 Q1348.25 1557.82 1350.76 1559.17 Q1353.31 1560.52 1355.08 1560.91 Q1356.88 1561.26 1358.46 1561.26 Q1364.13 1561.26 1368.48 1557.24 Q1372.82 1553.21 1373.24 1546.42 Q1373.31 1546.1 1373.31 1545.97 Q1373.31 1545.81 1373.37 1545.64 Q1373.44 1545.48 1373.6 1545.42 Q1373.76 1545.35 1374.02 1545.35 Q1374.88 1545.35 1374.88 1546.48 Q1374.88 1552.76 1370.05 1558.04 Q1365.26 1563.29 1357.65 1563.29 Q1348.28 1563.29 1341.49 1556.34 Q1334.72 1549.38 1334.72 1539.3 Z" fill="#000000" fill-rule="nonzero" fill-opacity="1" /><path clip-path="url(#clip140)" d="M1387.15 1555.56 Q1387.15 1549.96 1393.75 1547 Q1397.71 1545.1 1405.89 1544.61 L1405.89 1542.2 Q1405.89 1538.11 1403.74 1535.95 Q1401.61 1533.76 1398.91 1533.76 Q1394.07 1533.76 1391.76 1536.79 Q1393.72 1536.85 1394.43 1537.85 Q1395.14 1538.82 1395.14 1539.82 Q1395.14 1541.14 1394.3 1542.01 Q1393.49 1542.84 1392.11 1542.84 Q1390.79 1542.84 1389.92 1542.04 Q1389.05 1541.2 1389.05 1539.75 Q1389.05 1536.53 1391.95 1534.4 Q1394.88 1532.28 1399.03 1532.28 Q1404.44 1532.28 1408.05 1535.92 Q1409.18 1537.05 1409.73 1538.5 Q1410.31 1539.94 1410.37 1540.91 Q1410.44 1541.84 1410.44 1543.71 L1410.44 1556.88 Q1410.44 1557.27 1410.56 1557.92 Q1410.69 1558.56 1411.27 1559.4 Q1411.88 1560.2 1412.88 1560.2 Q1415.27 1560.2 1415.23 1555.98 L1415.23 1552.28 L1416.91 1552.28 L1416.91 1555.98 Q1416.91 1559.49 1415.04 1560.88 Q1413.2 1562.23 1411.5 1562.23 Q1409.31 1562.23 1407.92 1560.62 Q1406.54 1559.01 1406.34 1556.82 Q1405.35 1559.33 1403.06 1560.97 Q1400.81 1562.59 1397.71 1562.59 Q1395.33 1562.59 1393.08 1561.97 Q1390.85 1561.39 1388.99 1559.75 Q1387.15 1558.08 1387.15 1555.56 M1392.24 1555.5 Q1392.24 1557.95 1393.98 1559.53 Q1395.72 1561.1 1398.16 1561.1 Q1400.93 1561.1 1403.41 1558.98 Q1405.89 1556.82 1405.89 1552.6 L1405.89 1546 Q1398.58 1546.26 1395.39 1549.19 Q1392.24 1552.09 1392.24 1555.5 Z" fill="#000000" fill-rule="nonzero" fill-opacity="1" /><path clip-path="url(#clip140)" d="M1419.55 1561.84 L1419.55 1559.82 Q1423.06 1559.82 1423.87 1559.4 Q1424.67 1558.95 1424.67 1556.82 L1424.67 1522.52 Q1424.67 1520.07 1423.8 1519.46 Q1422.96 1518.85 1419.55 1518.85 L1419.55 1516.79 L1429.02 1516.08 L1429.02 1556.82 Q1429.02 1558.95 1429.86 1559.4 Q1430.69 1559.82 1434.17 1559.82 L1434.17 1561.84 Q1433.37 1561.84 1431.69 1561.78 Q1430.02 1561.72 1428.79 1561.68 Q1427.57 1561.65 1426.86 1561.65 Q1426.09 1561.65 1419.55 1561.84 Z" fill="#000000" fill-rule="nonzero" fill-opacity="1" /><path clip-path="url(#clip140)" d="M1438.43 1561.84 L1438.43 1559.82 Q1441.94 1559.82 1442.74 1559.4 Q1443.55 1558.95 1443.55 1556.82 L1443.55 1522.52 Q1443.55 1520.07 1442.68 1519.46 Q1441.84 1518.85 1438.43 1518.85 L1438.43 1516.79 L1447.9 1516.08 L1447.9 1556.82 Q1447.9 1558.95 1448.73 1559.4 Q1449.57 1559.82 1453.05 1559.82 L1453.05 1561.84 Q1452.25 1561.84 1450.57 1561.78 Q1448.9 1561.72 1447.67 1561.68 Q1446.45 1561.65 1445.74 1561.65 Q1444.97 1561.65 1438.43 1561.84 Z" fill="#000000" fill-rule="nonzero" fill-opacity="1" /><path clip-path="url(#clip140)" d="M1457.31 1560.97 L1457.31 1552.28 Q1457.31 1551.54 1457.34 1551.28 Q1457.37 1551.02 1457.56 1550.83 Q1457.76 1550.64 1458.14 1550.64 Q1458.6 1550.64 1458.76 1550.83 Q1458.95 1551.02 1459.08 1551.76 Q1460.08 1556.3 1462.2 1558.72 Q1464.36 1561.1 1468.26 1561.1 Q1471.96 1561.1 1473.83 1559.46 Q1475.7 1557.82 1475.7 1555.11 Q1475.7 1550.28 1468.84 1549.06 Q1464.88 1548.25 1463.23 1547.74 Q1461.59 1547.19 1460.14 1546 Q1457.31 1543.68 1457.31 1540.4 Q1457.31 1537.11 1459.79 1534.69 Q1462.3 1532.28 1467.84 1532.28 Q1471.54 1532.28 1474.05 1534.15 Q1474.79 1533.57 1475.18 1533.08 Q1476.05 1532.28 1476.5 1532.28 Q1477.02 1532.28 1477.11 1532.63 Q1477.21 1532.96 1477.21 1533.89 L1477.21 1540.52 Q1477.21 1541.26 1477.18 1541.52 Q1477.15 1541.78 1476.95 1541.97 Q1476.76 1542.13 1476.34 1542.13 Q1475.6 1542.13 1475.57 1541.52 Q1475.05 1533.54 1467.84 1533.54 Q1463.94 1533.54 1462.2 1535.05 Q1460.46 1536.53 1460.46 1538.56 Q1460.46 1539.69 1460.98 1540.56 Q1461.53 1541.39 1462.2 1541.91 Q1462.91 1542.39 1464.2 1542.88 Q1465.49 1543.33 1466.26 1543.49 Q1467.07 1543.65 1468.58 1543.97 Q1473.86 1544.97 1476.08 1547.13 Q1478.85 1549.9 1478.85 1553.41 Q1478.85 1557.3 1476.21 1559.94 Q1473.57 1562.59 1468.26 1562.59 Q1463.97 1562.59 1460.98 1559.72 Q1460.59 1560.11 1460.3 1560.46 Q1460.01 1560.78 1459.88 1560.91 Q1459.79 1561.04 1459.75 1561.14 Q1459.72 1561.2 1459.66 1561.26 Q1458.34 1562.59 1458.02 1562.59 Q1457.5 1562.59 1457.4 1562.23 Q1457.31 1561.91 1457.31 1560.97 Z" fill="#000000" fill-rule="nonzero" fill-opacity="1" /><polyline clip-path="url(#clip140)" style="stroke:#000000; stroke-linecap:round; stroke-linejoin:round; stroke-width:4; stroke-opacity:1; fill:none" points="276.876,1423.18 276.876,47.2441 "/>
<polyline clip-path="url(#clip140)" style="stroke:#000000; stroke-linecap:round; stroke-linejoin:round; stroke-width:4; stroke-opacity:1; fill:none" points="276.876,1194.78 295.773,1194.78 "/>
<polyline clip-path="url(#clip140)" style="stroke:#000000; stroke-linecap:round; stroke-linejoin:round; stroke-width:4; stroke-opacity:1; fill:none" points="276.876,623.777 295.773,623.777 "/>
<polyline clip-path="url(#clip140)" style="stroke:#000000; stroke-linecap:round; stroke-linejoin:round; stroke-width:4; stroke-opacity:1; fill:none" points="276.876,52.7757 295.773,52.7757 "/>
<path clip-path="url(#clip140)" d="M114.931 1214.57 L122.57 1214.57 L122.57 1188.21 L114.26 1189.87 L114.26 1185.61 L122.524 1183.95 L127.2 1183.95 L127.2 1214.57 L134.839 1214.57 L134.839 1218.51 L114.931 1218.51 L114.931 1214.57 Z" fill="#000000" fill-rule="nonzero" fill-opacity="1" /><path clip-path="url(#clip140)" d="M154.283 1187.03 Q150.672 1187.03 148.843 1190.59 Q147.038 1194.13 147.038 1201.26 Q147.038 1208.37 148.843 1211.93 Q150.672 1215.47 154.283 1215.47 Q157.917 1215.47 159.723 1211.93 Q161.552 1208.37 161.552 1201.26 Q161.552 1194.13 159.723 1190.59 Q157.917 1187.03 154.283 1187.03 M154.283 1183.32 Q160.093 1183.32 163.149 1187.93 Q166.227 1192.51 166.227 1201.26 Q166.227 1209.99 163.149 1214.59 Q160.093 1219.18 154.283 1219.18 Q148.473 1219.18 145.394 1214.59 Q142.339 1209.99 142.339 1201.26 Q142.339 1192.51 145.394 1187.93 Q148.473 1183.32 154.283 1183.32 Z" fill="#000000" fill-rule="nonzero" fill-opacity="1" /><path clip-path="url(#clip140)" d="M166.227 1177.42 L190.339 1177.42 L190.339 1180.62 L166.227 1180.62 L166.227 1177.42 Z" fill="#000000" fill-rule="nonzero" fill-opacity="1" /><path clip-path="url(#clip140)" d="M199.197 1187.9 L205.404 1187.9 L205.404 1166.48 L198.652 1167.83 L198.652 1164.37 L205.366 1163.02 L209.166 1163.02 L209.166 1187.9 L215.372 1187.9 L215.372 1191.1 L199.197 1191.1 L199.197 1187.9 Z" fill="#000000" fill-rule="nonzero" fill-opacity="1" /><path clip-path="url(#clip140)" d="M231.171 1165.52 Q228.237 1165.52 226.751 1168.41 Q225.284 1171.29 225.284 1177.08 Q225.284 1182.86 226.751 1185.75 Q228.237 1188.63 231.171 1188.63 Q234.124 1188.63 235.591 1185.75 Q237.076 1182.86 237.076 1177.08 Q237.076 1171.29 235.591 1168.41 Q234.124 1165.52 231.171 1165.52 M231.171 1162.51 Q235.891 1162.51 238.374 1166.25 Q240.876 1169.98 240.876 1177.08 Q240.876 1184.18 238.374 1187.92 Q235.891 1191.64 231.171 1191.64 Q226.45 1191.64 223.949 1187.92 Q221.466 1184.18 221.466 1177.08 Q221.466 1169.98 223.949 1166.25 Q226.45 1162.51 231.171 1162.51 Z" fill="#000000" fill-rule="nonzero" fill-opacity="1" /><path clip-path="url(#clip140)" d="M140.247 643.57 L147.886 643.57 L147.886 617.204 L139.575 618.871 L139.575 614.612 L147.839 612.945 L152.515 612.945 L152.515 643.57 L160.154 643.57 L160.154 647.505 L140.247 647.505 L140.247 643.57 Z" fill="#000000" fill-rule="nonzero" fill-opacity="1" /><path clip-path="url(#clip140)" d="M179.598 616.024 Q175.987 616.024 174.159 619.588 Q172.353 623.13 172.353 630.26 Q172.353 637.366 174.159 640.931 Q175.987 644.473 179.598 644.473 Q183.233 644.473 185.038 640.931 Q186.867 637.366 186.867 630.26 Q186.867 623.13 185.038 619.588 Q183.233 616.024 179.598 616.024 M179.598 612.32 Q185.409 612.32 188.464 616.926 Q191.543 621.51 191.543 630.26 Q191.543 638.987 188.464 643.593 Q185.409 648.176 179.598 648.176 Q173.788 648.176 170.71 643.593 Q167.654 638.987 167.654 630.26 Q167.654 621.51 170.71 616.926 Q173.788 612.32 179.598 612.32 Z" fill="#000000" fill-rule="nonzero" fill-opacity="1" /><path clip-path="url(#clip140)" d="M191.543 606.421 L215.654 606.421 L215.654 609.619 L191.543 609.619 L191.543 606.421 Z" fill="#000000" fill-rule="nonzero" fill-opacity="1" /><path clip-path="url(#clip140)" d="M223.892 592.015 L238.807 592.015 L238.807 595.212 L227.372 595.212 L227.372 602.096 Q228.199 601.813 229.027 601.682 Q229.854 601.531 230.682 601.531 Q235.384 601.531 238.13 604.108 Q240.876 606.685 240.876 611.086 Q240.876 615.618 238.054 618.139 Q235.233 620.64 230.099 620.64 Q228.331 620.64 226.488 620.339 Q224.663 620.038 222.707 619.436 L222.707 615.618 Q224.4 616.54 226.205 616.991 Q228.011 617.443 230.023 617.443 Q233.277 617.443 235.177 615.731 Q237.076 614.02 237.076 611.086 Q237.076 608.152 235.177 606.44 Q233.277 604.729 230.023 604.729 Q228.5 604.729 226.977 605.067 Q225.472 605.406 223.892 606.12 L223.892 592.015 Z" fill="#000000" fill-rule="nonzero" fill-opacity="1" /><path clip-path="url(#clip140)" d="M170.17 72.5681 L177.809 72.5681 L177.809 46.2025 L169.499 47.8691 L169.499 43.6099 L177.762 41.9433 L182.438 41.9433 L182.438 72.5681 L190.077 72.5681 L190.077 76.5033 L170.17 76.5033 L170.17 72.5681 Z" fill="#000000" fill-rule="nonzero" fill-opacity="1" /><path clip-path="url(#clip140)" d="M209.522 45.0219 Q205.91 45.0219 204.082 48.5867 Q202.276 52.1284 202.276 59.258 Q202.276 66.3644 204.082 69.9292 Q205.91 73.4709 209.522 73.4709 Q213.156 73.4709 214.961 69.9292 Q216.79 66.3644 216.79 59.258 Q216.79 52.1284 214.961 48.5867 Q213.156 45.0219 209.522 45.0219 M209.522 41.3183 Q215.332 41.3183 218.387 45.9247 Q221.466 50.508 221.466 59.258 Q221.466 67.9848 218.387 72.5912 Q215.332 77.1745 209.522 77.1745 Q203.711 77.1745 200.633 72.5912 Q197.577 67.9848 197.577 59.258 Q197.577 50.508 200.633 45.9247 Q203.711 41.3183 209.522 41.3183 Z" fill="#000000" fill-rule="nonzero" fill-opacity="1" /><path clip-path="url(#clip140)" d="M231.171 23.5143 Q228.237 23.5143 226.751 26.4107 Q225.284 29.2883 225.284 35.0811 Q225.284 40.8551 226.751 43.7514 Q228.237 46.629 231.171 46.629 Q234.124 46.629 235.591 43.7514 Q237.076 40.8551 237.076 35.0811 Q237.076 29.2883 235.591 26.4107 Q234.124 23.5143 231.171 23.5143 M231.171 20.505 Q235.891 20.505 238.374 24.2478 Q240.876 27.9717 240.876 35.0811 Q240.876 42.1716 238.374 45.9143 Q235.891 49.6383 231.171 49.6383 Q226.45 49.6383 223.949 45.9143 Q221.466 42.1716 221.466 35.0811 Q221.466 27.9717 223.949 24.2478 Q226.45 20.505 231.171 20.505 Z" fill="#000000" fill-rule="nonzero" fill-opacity="1" /><path clip-path="url(#clip140)" d="M66.0841 1072.66 L64.0551 1072.66 Q64.0551 1070.27 63.6042 1068.76 Q63.1212 1067.25 62.2516 1066.7 Q61.3498 1066.12 60.7701 1065.99 Q60.1582 1065.86 59.1598 1065.86 L26.181 1065.86 Q24.2809 1065.86 23.7012 1066.7 Q23.0893 1067.5 23.0893 1071.08 L23.0893 1072.66 L21.0281 1072.66 L21.0281 1061.51 Q21.0281 1060.32 21.2535 1060 Q21.4468 1059.68 22.4774 1059.19 L59.4175 1044.9 L22.2841 1030.47 Q21.3502 1030.14 21.1891 1029.85 Q21.0281 1029.53 21.0281 1028.28 L21.0281 1017.13 L23.0893 1017.13 L23.0893 1018.71 Q23.0893 1022.29 23.7012 1023.12 Q24.2809 1023.93 26.181 1023.93 L60.9312 1023.93 Q62.8313 1023.93 63.4432 1023.12 Q64.0551 1022.29 64.0551 1018.71 L64.0551 1017.13 L66.0841 1017.13 Q65.8909 1019.58 65.8909 1026.57 Q65.8909 1033.62 66.0841 1036.07 L64.0551 1036.07 L64.0551 1034.46 Q64.0551 1030.89 63.4754 1030.08 Q62.8635 1029.28 60.9312 1029.28 L23.0893 1029.28 L23.0893 1029.34 L64.8281 1045.54 Q66.0841 1045.99 66.0841 1046.73 Q66.0841 1047.54 64.6348 1048.05 L23.6046 1063.96 L23.6046 1064.03 L59.1598 1064.03 Q60.1582 1064.03 60.7701 1063.9 Q61.3498 1063.77 62.2516 1063.22 Q63.1212 1062.64 63.6042 1061.13 Q64.0551 1059.61 64.0551 1057.23 L66.0841 1057.23 Q65.8909 1064.15 65.8909 1064.96 Q65.8909 1065.73 66.0841 1072.66 Z" fill="#000000" fill-rule="nonzero" fill-opacity="1" /><path clip-path="url(#clip140)" d="M66.0841 1006.77 L64.0551 1006.77 Q64.0551 1003.26 63.6364 1002.46 Q63.1856 1001.65 61.06 1001.65 L43.3146 1001.65 Q40.8669 1001.65 40.2872 1002.49 Q39.7075 1003.3 39.7075 1006.52 L37.6463 1006.52 L36.9378 997.306 L61.1244 997.306 Q63.0889 997.306 63.572 996.598 Q64.0551 995.889 64.0551 992.669 L66.0841 992.669 Q65.8909 999.4 65.8909 999.528 Q65.8909 1000.43 66.0841 1006.77 M25.4403 1004.01 Q24.1199 1004.01 23.0571 1003.01 Q21.9621 1001.98 21.9621 1000.53 Q21.9621 999.078 22.9604 998.047 Q23.9266 997.016 25.4725 997.016 Q26.9862 997.016 27.9846 998.047 Q28.9507 999.078 28.9507 1000.53 Q28.9507 1002.04 27.8879 1003.04 Q26.8252 1004.01 25.4403 1004.01 Z" fill="#000000" fill-rule="nonzero" fill-opacity="1" /><path clip-path="url(#clip140)" d="M66.0841 988.16 L64.0551 988.16 Q64.0551 984.65 63.6364 983.845 Q63.1856 983.04 61.06 983.04 L43.379 983.04 Q40.9313 983.04 40.3194 983.909 Q39.7075 984.747 39.7075 988.16 L37.6463 988.16 L36.9378 978.885 L43.8621 978.885 Q36.9378 975.793 36.9378 969.127 Q36.9378 964.167 39.3854 962.202 Q41.0279 960.753 42.8637 960.463 Q44.6994 960.141 49.4659 960.141 L62.0584 960.141 Q63.4432 960.077 63.7653 959.014 Q64.0551 957.951 64.0551 954.988 L66.0841 954.988 Q65.8909 961.719 65.8909 962.396 Q65.8909 962.911 66.0841 969.835 L64.0551 969.835 Q64.0551 966.325 63.6364 965.52 Q63.1856 964.682 61.06 964.682 L45.6978 964.682 Q42.3484 964.682 40.3838 965.713 Q38.3871 966.743 38.3871 969.578 Q38.3871 972.991 41.2534 975.729 Q44.1197 978.466 48.9506 978.466 L61.06 978.466 Q63.1856 978.466 63.6364 977.661 Q64.0551 976.824 64.0551 973.346 L66.0841 973.346 Q65.8909 980.077 65.8909 980.721 Q65.8909 981.236 66.0841 988.16 Z" fill="#000000" fill-rule="nonzero" fill-opacity="1" /><path clip-path="url(#clip140)" d="M66.0841 951.66 L64.0551 951.66 Q64.0551 948.149 63.6364 947.344 Q63.1856 946.539 61.06 946.539 L43.3146 946.539 Q40.8669 946.539 40.2872 947.376 Q39.7075 948.181 39.7075 951.402 L37.6463 951.402 L36.9378 942.191 L61.1244 942.191 Q63.0889 942.191 63.572 941.483 Q64.0551 940.774 64.0551 937.553 L66.0841 937.553 Q65.8909 944.285 65.8909 944.413 Q65.8909 945.315 66.0841 951.66 M25.4403 948.89 Q24.1199 948.89 23.0571 947.892 Q21.9621 946.861 21.9621 945.412 Q21.9621 943.962 22.9604 942.932 Q23.9266 941.901 25.4725 941.901 Q26.9862 941.901 27.9846 942.932 Q28.9507 943.962 28.9507 945.412 Q28.9507 946.925 27.8879 947.924 Q26.8252 948.89 25.4403 948.89 Z" fill="#000000" fill-rule="nonzero" fill-opacity="1" /><path clip-path="url(#clip140)" d="M66.0841 933.045 L64.0551 933.045 Q64.0551 929.535 63.6364 928.73 Q63.1856 927.924 61.06 927.924 L43.379 927.924 Q40.9313 927.924 40.3194 928.794 Q39.7075 929.631 39.7075 933.045 L37.6463 933.045 L36.9378 923.77 L43.8621 923.77 Q36.9378 920.678 36.9378 914.012 Q36.9378 906.282 43.379 905.219 Q40.8669 904.092 38.9023 901.741 Q36.9378 899.358 36.9378 895.654 Q36.9378 890.695 39.3854 888.73 Q41.0279 887.281 42.8637 886.991 Q44.6994 886.701 49.4659 886.701 L62.0584 886.701 Q63.4432 886.637 63.7653 885.574 Q64.0551 884.511 64.0551 881.548 L66.0841 881.548 Q65.8909 888.279 65.8909 888.923 Q65.8909 889.438 66.0841 896.395 L64.0551 896.395 Q64.0551 892.885 63.6364 892.079 Q63.1856 891.242 61.06 891.242 L45.6978 891.242 Q42.3484 891.242 40.3838 892.273 Q38.3871 893.303 38.3871 896.137 Q38.3871 899.551 41.2534 902.289 Q44.1197 905.026 48.9506 905.026 L61.06 905.026 Q63.1856 905.026 63.6364 904.221 Q64.0551 903.384 64.0551 899.873 L66.0841 899.873 Q65.8909 906.604 65.8909 907.281 Q65.8909 907.796 66.0841 914.72 L64.0551 914.72 Q64.0551 911.21 63.6364 910.405 Q63.1856 909.567 61.06 909.567 L45.6978 909.567 Q42.3484 909.567 40.3838 910.598 Q38.3871 911.628 38.3871 914.462 Q38.3871 917.876 41.2534 920.614 Q44.1197 923.351 48.9506 923.351 L61.06 923.351 Q63.1856 923.351 63.6364 922.546 Q64.0551 921.709 64.0551 918.231 L66.0841 918.231 Q65.8909 924.962 65.8909 925.606 Q65.8909 926.121 66.0841 933.045 Z" fill="#000000" fill-rule="nonzero" fill-opacity="1" /><path clip-path="url(#clip140)" d="M39.7075 878.922 L37.6463 878.922 L36.9378 869.228 L58.8378 869.228 Q60.4159 869.228 61.3498 869.1 Q62.2516 868.971 63.3144 868.455 Q64.3772 867.908 64.8603 866.684 Q65.3434 865.428 65.3434 863.431 Q65.3434 859.856 62.4126 857.666 Q59.4819 855.444 55.1341 855.444 L43.379 855.444 Q40.9313 855.444 40.3194 856.314 Q39.7075 857.183 39.7075 860.597 L37.6463 860.597 L36.9378 850.903 L60.3515 850.903 Q62.7991 850.903 63.4432 850.066 Q64.0551 849.196 64.0551 845.75 L66.0841 845.75 L66.8248 855.251 L60.8667 855.251 Q66.7926 858.021 66.8248 863.753 Q66.8248 866.652 66.0841 868.649 Q65.3434 870.613 64.4416 871.612 Q63.5076 872.61 61.7363 873.157 Q59.965 873.673 58.87 873.737 Q57.775 873.802 55.6494 873.802 L45.7622 873.802 Q41.2856 873.802 40.5126 874.446 Q39.7075 875.09 39.7075 878.922 Z" fill="#000000" fill-rule="nonzero" fill-opacity="1" /><path clip-path="url(#clip140)" d="M66.0841 843.478 L64.0551 843.478 Q64.0551 839.967 63.6364 839.162 Q63.1856 838.357 61.06 838.357 L43.379 838.357 Q40.9313 838.357 40.3194 839.226 Q39.7075 840.064 39.7075 843.478 L37.6463 843.478 L36.9378 834.202 L43.8621 834.202 Q36.9378 831.111 36.9378 824.444 Q36.9378 816.715 43.379 815.652 Q40.8669 814.525 38.9023 812.173 Q36.9378 809.79 36.9378 806.087 Q36.9378 801.127 39.3854 799.162 Q41.0279 797.713 42.8637 797.423 Q44.6994 797.133 49.4659 797.133 L62.0584 797.133 Q63.4432 797.069 63.7653 796.006 Q64.0551 794.943 64.0551 791.98 L66.0841 791.98 Q65.8909 798.711 65.8909 799.356 Q65.8909 799.871 66.0841 806.827 L64.0551 806.827 Q64.0551 803.317 63.6364 802.512 Q63.1856 801.674 61.06 801.674 L45.6978 801.674 Q42.3484 801.674 40.3838 802.705 Q38.3871 803.736 38.3871 806.57 Q38.3871 809.984 41.2534 812.721 Q44.1197 815.458 48.9506 815.458 L61.06 815.458 Q63.1856 815.458 63.6364 814.653 Q64.0551 813.816 64.0551 810.306 L66.0841 810.306 Q65.8909 817.037 65.8909 817.713 Q65.8909 818.228 66.0841 825.152 L64.0551 825.152 Q64.0551 821.642 63.6364 820.837 Q63.1856 820 61.06 820 L45.6978 820 Q42.3484 820 40.3838 821.03 Q38.3871 822.061 38.3871 824.895 Q38.3871 828.309 41.2534 831.046 Q44.1197 833.784 48.9506 833.784 L61.06 833.784 Q63.1856 833.784 63.6364 832.978 Q64.0551 832.141 64.0551 828.663 L66.0841 828.663 Q65.8909 835.394 65.8909 836.038 Q65.8909 836.553 66.0841 843.478 Z" fill="#000000" fill-rule="nonzero" fill-opacity="1" /><path clip-path="url(#clip140)" d="M43.7332 788.035 Q33.6528 788.035 26.6319 781.593 Q19.5788 775.12 19.5788 766.135 Q19.5788 757.085 26.6319 750.644 Q33.685 744.17 43.7332 744.17 Q53.6848 744.17 60.6091 750.644 Q67.5334 757.117 67.5334 766.135 Q67.5334 775.023 60.6413 781.529 Q53.7493 788.035 43.7332 788.035 M42.7993 781.239 Q48.9184 781.239 53.6204 779.79 Q58.2903 778.341 60.8345 776.022 Q63.3788 773.671 64.6026 771.159 Q65.8264 768.647 65.8264 766.07 Q65.8264 763.558 64.6348 761.111 Q63.4432 758.631 60.9312 756.28 Q58.4191 753.929 53.717 752.447 Q49.015 750.966 42.7993 750.966 Q37.9684 750.966 34.1037 751.996 Q30.2068 753.027 27.8557 754.637 Q25.5047 756.247 23.9588 758.341 Q22.4129 760.402 21.8332 762.367 Q21.2213 764.299 21.2213 766.135 Q21.2213 768.453 22.2519 770.869 Q23.2825 773.284 25.5691 775.732 Q27.8235 778.147 32.3001 779.693 Q36.7446 781.239 42.7993 781.239 Z" fill="#000000" fill-rule="nonzero" fill-opacity="1" /><path clip-path="url(#clip140)" d="M23.0893 736.492 L21.0281 736.492 L20.3196 726.991 L41.2212 726.991 Q36.9378 723.159 36.9378 717.942 Q36.9378 712.273 41.2856 708.119 Q45.6334 703.964 51.8491 703.964 Q58.1292 703.964 62.477 708.312 Q66.8248 712.66 66.8248 718.682 Q66.8248 724.157 61.994 727.313 Q66.0197 729.632 66.0841 729.697 L66.0841 731.339 L26.7607 731.339 Q24.3131 731.339 23.7012 732.209 Q23.0893 733.078 23.0893 736.492 M58.5801 726.798 Q59.965 726.798 61.3498 725.864 Q65.3434 723.256 65.3434 719.004 Q65.3434 718.972 65.3434 718.94 Q65.3434 714.335 61.1244 711.468 Q57.9682 709.439 51.7847 709.439 Q45.6656 709.439 42.606 711.339 Q38.3871 713.98 38.3871 718.264 Q38.3871 723.095 42.606 726.057 Q43.6688 726.798 44.9893 726.798 L58.5801 726.798 Z" fill="#000000" fill-rule="nonzero" fill-opacity="1" /><path clip-path="url(#clip140)" d="M74.3288 704.215 Q73.0084 704.215 72.1388 703.378 Q71.3014 702.573 71.3014 701.188 Q71.3014 699.803 72.1388 698.998 Q73.0084 698.161 74.3288 698.161 Q75.5204 698.161 76.2611 698.869 Q77.0341 699.546 77.2917 700.447 Q78.1613 698.74 78.1613 696.905 Q78.1613 695.391 77.2595 694.36 Q76.3578 693.33 74.8763 692.879 Q73.3948 692.396 72.1388 692.235 Q70.915 692.074 69.4979 692.074 L43.379 692.074 Q40.9313 692.074 40.3194 693.04 Q39.7075 693.974 39.7075 697.742 L37.6463 697.742 L36.9378 687.726 L69.3691 687.726 Q73.7813 687.726 76.6798 690.367 Q79.6106 693.008 79.6106 696.744 Q79.6106 699.771 78.1935 701.993 Q76.7764 704.215 74.3288 704.215 M27.9524 693.684 Q26.9218 694.715 25.4725 694.715 Q24.0232 694.715 22.9927 693.684 Q21.9621 692.654 21.9621 691.204 Q21.9621 689.755 22.9927 688.724 Q24.0232 687.694 25.4725 687.694 Q26.9218 687.694 27.9524 688.724 Q28.9507 689.755 28.9507 691.204 Q28.9507 692.654 27.9524 693.684 Z" fill="#000000" fill-rule="nonzero" fill-opacity="1" /><path clip-path="url(#clip140)" d="M51.5593 676.919 Q45.3435 676.919 40.9313 672.925 Q36.5191 668.932 36.5191 663.199 Q36.5191 657.402 40.2872 654.407 Q44.0553 651.38 49.4659 651.38 Q50.4643 651.38 50.6575 651.637 Q50.8507 651.895 50.8507 653.022 L50.8507 671.444 Q57.5817 671.444 60.7379 669.447 Q65.1501 666.677 65.1501 662.007 Q65.1501 661.363 65.0213 660.59 Q64.8925 659.817 64.345 658.239 Q63.7653 656.661 62.2516 655.276 Q60.7379 653.892 58.3547 653.086 Q57.4207 652.893 57.4529 652.249 Q57.4529 651.38 58.2259 651.38 Q58.8056 651.38 60.126 652.024 Q61.4142 652.636 62.9601 653.827 Q64.506 655.019 65.6654 657.338 Q66.8248 659.624 66.8248 662.394 Q66.8248 668.191 62.4448 672.571 Q58.0326 676.919 51.5593 676.919 M49.4659 671.379 L49.4659 655.727 Q48.081 655.727 46.5351 655.985 Q44.9893 656.21 42.8637 656.919 Q40.7059 657.595 39.3532 659.206 Q38.0006 660.816 38.0006 663.199 Q38.0006 664.262 38.4515 665.421 Q38.9023 666.549 39.9973 667.933 Q41.0923 669.318 43.5722 670.284 Q46.052 671.251 49.4659 671.379 Z" fill="#000000" fill-rule="nonzero" fill-opacity="1" /><path clip-path="url(#clip140)" d="M62.477 643.736 Q58.097 647.923 51.8491 647.923 Q45.569 647.923 41.0601 643.801 Q36.5191 639.678 36.5191 633.624 Q36.5191 629.598 38.4515 626.571 Q40.3516 623.543 43.6044 623.543 Q45.0537 623.543 45.891 624.413 Q46.6962 625.25 46.6962 626.571 Q46.6962 627.955 45.8588 628.793 Q44.9893 629.598 43.6688 629.598 Q43.0891 629.598 42.5094 629.405 Q41.9297 629.211 41.3178 628.503 Q40.7059 627.762 40.6093 626.506 Q38.1938 628.857 38.1938 633.43 Q38.1938 633.495 38.1938 633.559 Q38.1938 636.909 41.35 639.678 Q44.5062 642.448 51.7203 642.448 Q55.4884 642.448 58.2581 641.546 Q60.9956 640.612 62.4126 639.099 Q63.8297 637.585 64.506 636.104 Q65.1501 634.622 65.1501 633.173 Q65.1501 626.699 58.2259 624.509 Q57.5817 624.316 57.5817 623.672 Q57.5817 622.803 58.2259 622.803 Q58.5479 622.803 59.3853 623.06 Q60.2226 623.318 61.5431 624.123 Q62.8635 624.928 64.0229 626.088 Q65.1501 627.215 65.9875 629.244 Q66.8248 631.24 66.8248 633.752 Q66.8248 639.55 62.477 643.736 Z" fill="#000000" fill-rule="nonzero" fill-opacity="1" /><path clip-path="url(#clip140)" d="M39.7075 620.511 L38.2582 620.511 Q38.1294 617.484 36.0038 615.487 Q33.846 613.458 31.2051 612.782 Q28.5643 612.073 25.5047 612.009 L25.5047 610.367 L37.6463 610.367 L37.6463 600.93 L39.7075 600.93 L39.7075 610.367 L58.0326 610.367 Q65.1501 610.367 65.1501 605.922 Q65.1501 604.022 63.2178 602.766 Q61.2532 601.51 57.775 601.51 L54.1357 601.51 L54.1357 599.867 L57.9038 599.867 Q61.4787 599.867 64.1517 601.51 Q66.8248 603.152 66.8248 606.405 Q66.8248 607.597 66.5028 608.788 Q66.2129 609.948 65.44 611.494 Q64.6348 613.007 62.7025 613.974 Q60.7379 614.908 57.9038 614.908 L39.7075 614.908 L39.7075 620.511 Z" fill="#000000" fill-rule="nonzero" fill-opacity="1" /><path clip-path="url(#clip140)" d="M66.0841 595.976 L64.0551 595.976 Q64.0551 592.466 63.6364 591.66 Q63.1856 590.855 61.06 590.855 L43.3146 590.855 Q40.8669 590.855 40.2872 591.693 Q39.7075 592.498 39.7075 595.718 L37.6463 595.718 L36.9378 586.507 L61.1244 586.507 Q63.0889 586.507 63.572 585.799 Q64.0551 585.09 64.0551 581.87 L66.0841 581.87 Q65.8909 588.601 65.8909 588.73 Q65.8909 589.631 66.0841 595.976 M25.4403 593.206 Q24.1199 593.206 23.0571 592.208 Q21.9621 591.177 21.9621 589.728 Q21.9621 588.279 22.9604 587.248 Q23.9266 586.218 25.4725 586.218 Q26.9862 586.218 27.9846 587.248 Q28.9507 588.279 28.9507 589.728 Q28.9507 591.242 27.8879 592.24 Q26.8252 593.206 25.4403 593.206 Z" fill="#000000" fill-rule="nonzero" fill-opacity="1" /><path clip-path="url(#clip140)" d="M39.7075 577.361 L37.6463 577.361 Q37.8396 574.399 37.8396 570.953 Q37.8396 569.697 37.6463 563.771 L39.7075 563.771 Q39.7075 567.539 41.4144 567.539 Q41.6721 567.539 42.5416 567.152 L60.9312 559.745 L44.1197 553.014 Q42.9925 552.627 42.5416 552.627 Q41.4144 552.627 40.6093 553.4 Q39.7719 554.141 39.7075 555.784 L37.6463 555.784 Q37.8396 552.434 37.8396 550.051 Q37.8396 547.346 37.6463 545.123 L39.7075 545.123 Q39.7075 547.088 40.6093 548.473 Q41.4788 549.858 42.2518 550.309 Q42.9925 550.727 44.1197 551.178 L65.5688 559.809 Q66.8248 560.325 66.8248 561.194 Q66.8248 561.774 66.5672 562.032 Q66.3417 562.257 65.5688 562.579 L42.1551 572.08 Q40.5126 572.724 40.1262 573.561 Q39.7075 574.399 39.7075 577.361 Z" fill="#000000" fill-rule="nonzero" fill-opacity="1" /><path clip-path="url(#clip140)" d="M51.5593 541.053 Q45.3435 541.053 40.9313 537.059 Q36.5191 533.066 36.5191 527.333 Q36.5191 521.536 40.2872 518.541 Q44.0553 515.514 49.4659 515.514 Q50.4643 515.514 50.6575 515.771 Q50.8507 516.029 50.8507 517.156 L50.8507 535.578 Q57.5817 535.578 60.7379 533.581 Q65.1501 530.812 65.1501 526.142 Q65.1501 525.498 65.0213 524.725 Q64.8925 523.952 64.345 522.374 Q63.7653 520.796 62.2516 519.411 Q60.7379 518.026 58.3547 517.221 Q57.4207 517.027 57.4529 516.383 Q57.4529 515.514 58.2259 515.514 Q58.8056 515.514 60.126 516.158 Q61.4142 516.77 62.9601 517.961 Q64.506 519.153 65.6654 521.472 Q66.8248 523.758 66.8248 526.528 Q66.8248 532.325 62.4448 536.705 Q58.0326 541.053 51.5593 541.053 M49.4659 535.514 L49.4659 519.862 Q48.081 519.862 46.5351 520.119 Q44.9893 520.345 42.8637 521.053 Q40.7059 521.73 39.3532 523.34 Q38.0006 524.95 38.0006 527.333 Q38.0006 528.396 38.4515 529.556 Q38.9023 530.683 39.9973 532.068 Q41.0923 533.452 43.5722 534.419 Q46.052 535.385 49.4659 535.514 Z" fill="#000000" fill-rule="nonzero" fill-opacity="1" /><path clip-path="url(#clip140)" d="M60.5447 505.294 Q53.556 512.057 43.54 512.057 Q33.4918 512.057 26.5353 505.23 Q19.5788 498.402 19.5788 489.127 Q19.5788 486.808 20.1263 484.843 Q20.6416 482.847 21.7044 481.268 Q22.735 479.69 23.4435 478.885 Q24.1199 478.048 25.2471 476.921 L20.384 473.603 Q19.5788 473.088 19.5788 472.573 Q19.5788 472.025 19.9009 471.929 Q20.1907 471.832 21.1569 471.832 L36.809 471.832 Q37.8718 471.832 38.1294 471.961 Q38.3871 472.09 38.3871 472.895 Q38.3871 473.539 38.1938 473.668 Q38.0006 473.797 37.2598 473.958 Q30.1424 474.956 25.8912 478.95 Q21.64 482.911 21.64 488.322 Q21.64 489.9 21.9943 491.671 Q22.3485 493.41 23.7012 495.987 Q25.0538 498.531 27.276 500.495 Q29.466 502.428 33.7172 503.845 Q37.9362 505.262 43.54 505.262 Q49.0794 505.262 53.3306 503.845 Q57.5817 502.428 59.804 500.463 Q61.994 498.466 63.3788 495.89 Q64.7637 493.281 65.1501 491.446 Q65.5044 489.578 65.5044 487.935 Q65.5044 486.808 65.2789 485.487 Q65.0213 484.167 64.3128 482.202 Q63.572 480.206 61.8329 478.95 Q60.0938 477.694 57.5173 477.694 L53.2984 477.694 Q51.3338 477.694 50.7219 478.66 Q50.11 479.626 50.11 483.845 L50.11 485.938 L48.081 485.938 Q48.2743 483.555 48.2743 475.343 Q48.2743 474.602 48.081 467.291 L50.11 467.291 Q50.11 470.447 50.5931 471.156 Q51.044 471.832 53.0085 471.832 L64.506 471.832 Q66.0197 471.832 66.0197 472.412 Q66.0197 472.927 64.5382 474.473 Q63.0567 475.987 61.9295 476.663 Q64.6992 478.241 66.1163 481.687 Q67.5334 485.101 67.5334 488.998 Q67.5334 498.499 60.5447 505.294 Z" fill="#000000" fill-rule="nonzero" fill-opacity="1" /><path clip-path="url(#clip140)" d="M59.804 461.388 Q54.2001 461.388 51.2372 454.786 Q49.337 450.825 48.854 442.644 L46.4385 442.644 Q42.3484 442.644 40.1906 444.802 Q38.0006 446.928 38.0006 449.633 Q38.0006 454.464 41.0279 456.783 Q41.0923 454.818 42.0907 454.11 Q43.0569 453.401 44.0553 453.401 Q45.3757 453.401 46.2453 454.239 Q47.0826 455.044 47.0826 456.429 Q47.0826 457.749 46.2775 458.619 Q45.4401 459.488 43.9909 459.488 Q40.7703 459.488 38.6447 456.59 Q36.5191 453.659 36.5191 449.504 Q36.5191 444.094 40.1584 440.487 Q41.2856 439.359 42.7348 438.812 Q44.1841 438.232 45.1503 438.168 Q46.0843 438.103 47.9522 438.103 L61.1244 438.103 Q61.5109 438.103 62.155 437.975 Q62.7991 437.846 63.6364 437.266 Q64.4416 436.654 64.4416 435.656 Q64.4416 433.272 60.2226 433.305 L56.519 433.305 L56.519 431.63 L60.2226 431.63 Q63.7331 431.63 65.1179 433.498 Q66.4706 435.334 66.4706 437.041 Q66.4706 439.231 64.8603 440.615 Q63.25 442 61.06 442.194 Q63.572 443.192 65.2145 445.479 Q66.8248 447.733 66.8248 450.825 Q66.8248 453.208 66.2129 455.462 Q65.6332 457.685 63.9907 459.552 Q62.316 461.388 59.804 461.388 M59.7395 456.3 Q62.1872 456.3 63.7653 454.561 Q65.3434 452.821 65.3434 450.374 Q65.3434 447.604 63.2178 445.124 Q61.06 442.644 56.841 442.644 L50.2388 442.644 Q50.4965 449.955 53.4272 453.144 Q56.3257 456.3 59.7395 456.3 Z" fill="#000000" fill-rule="nonzero" fill-opacity="1" /><path clip-path="url(#clip140)" d="M76.8409 434.004 Q76.8409 430.494 76.39 429.689 Q75.9713 428.851 73.8779 428.851 L42.9925 428.851 Q40.8025 428.851 40.255 429.689 Q39.7075 430.494 39.7075 434.004 L37.6463 434.004 L36.9378 424.503 L41.2856 424.503 Q36.9378 420.542 36.9378 415.26 Q36.9378 409.657 41.2856 405.566 Q45.6334 401.476 51.8491 401.476 Q58.1292 401.476 62.477 405.824 Q66.8248 410.172 66.8248 416.194 Q66.8248 419.479 65.1501 421.702 Q63.4432 423.892 62.1872 424.31 L62.7991 424.31 L73.8779 424.31 Q76.0035 424.31 76.4222 423.473 Q76.8409 422.635 76.8409 419.157 L78.8698 419.157 Q78.6766 426.082 78.6766 426.597 Q78.6766 427.241 78.8698 434.004 L76.8409 434.004 M58.5801 424.31 Q59.5785 424.31 59.9328 424.181 Q60.287 424.02 61.3498 423.376 Q65.3434 420.768 65.3434 416.516 Q65.3434 416.484 65.3434 416.452 Q65.3434 412.684 61.5109 409.818 Q57.6462 406.951 51.8491 406.951 Q46.3097 406.951 42.445 409.56 Q38.5803 412.169 38.5803 415.776 Q38.5803 418.352 39.9651 420.607 Q41.35 422.861 43.8621 424.31 L58.5801 424.31 Z" fill="#000000" fill-rule="nonzero" fill-opacity="1" /><polyline clip-path="url(#clip142)" style="stroke:#785ef0; stroke-linecap:round; stroke-linejoin:round; stroke-width:8; stroke-opacity:1; fill:none" points="276.876,91.5919 323.006,177.203 369.137,330.426 415.268,532.972 461.398,740.32 507.529,946.114 553.66,1149.65 599.79,1350.78 645.921,1549.32 "/>
<polyline clip-path="url(#clip142)" style="stroke:#785ef0; stroke-linecap:round; stroke-linejoin:round; stroke-width:8; stroke-opacity:1; fill:none" stroke-dasharray="32, 20" points="276.876,91.5919 323.006,179.679 369.137,331.406 415.268,533.12 461.398,743.025 507.529,952.006 553.66,1159.45 599.79,1365.41 645.921,1569.85 "/>
<polyline clip-path="url(#clip142)" style="stroke:#fe6100; stroke-linecap:round; stroke-linejoin:round; stroke-width:8; stroke-opacity:1; fill:none" points="276.876,91.5919 323.006,91.5919 369.137,167.375 415.268,313.269 461.398,514.039 507.529,514.039 553.66,516.059 599.79,682.107 645.921,888.847 692.052,1093.48 738.182,1093.48 784.313,1093.48 830.444,1307.07 876.574,1307.07 922.705,1307.07 968.836,1307.07 1014.97,1307.07 1061.1,1308.1 1107.23,1308.1 1153.36,1308.1 1199.49,1308.1 1245.62,1308.1 1291.75,1308.1 1337.88,1308.1 1384.01,1308.1 1430.14,1308.1 1476.27,1308.1 1522.4,1308.1 1568.53,1308.1 1614.67,1308.1 1660.8,1308.1 1706.93,1308.1 1753.06,1308.1 1799.19,1308.1 1845.32,1369.17 1891.45,1386.91 1937.58,1386.91 1983.71,1386.91 2029.84,1386.91 2075.97,1386.91 2122.1,1386.91 2168.23,1386.91 2214.36,1386.91 2260.49,1386.91 2306.63,1386.91 2352.76,1386.91 2398.89,1386.91 2445.02,1386.91 2491.15,1386.91 2537.28,1386.91 2583.41,1386.91 2629.54,1386.91 2675.67,1386.91 2721.8,1386.91 2767.93,1416.29 2814.06,1509.57 "/>
<polyline clip-path="url(#clip142)" style="stroke:#fe6100; stroke-linecap:round; stroke-linejoin:round; stroke-width:8; stroke-opacity:1; fill:none" stroke-dasharray="32, 20" points="276.876,91.5919 323.006,91.5919 369.137,164.266 415.268,164.266 461.398,192.78 507.529,192.78 553.66,192.78 599.79,257.938 645.921,257.938 692.052,448.724 738.182,655.85 784.313,862.514 830.444,1067.05 876.574,1270.67 922.705,1270.67 968.836,1377.07 1014.97,1377.07 1061.1,1377.07 1107.23,1377.07 1153.36,1377.07 1199.49,1377.07 1245.62,1377.07 1291.75,1415.78 1337.88,1415.78 1384.01,1415.78 1430.14,1415.78 1476.27,1415.78 1522.4,1415.78 1568.53,1415.78 1614.67,1415.78 1660.8,1415.78 1706.93,1415.78 1753.06,1415.78 1799.19,1415.78 1845.32,1415.78 1891.45,1415.78 1937.58,1415.78 1983.71,1415.79 2029.84,1415.79 2075.97,1415.79 2122.1,1415.79 2168.23,1415.79 2214.36,1415.79 2260.49,1415.79 2306.63,1415.79 2352.76,1415.79 2398.89,1415.79 2445.02,1415.79 2491.15,1415.79 2537.28,1415.79 2583.41,1415.79 2629.54,1415.79 2675.67,1504.67 "/>
<polyline clip-path="url(#clip142)" style="stroke:#ffb000; stroke-linecap:round; stroke-linejoin:round; stroke-width:8; stroke-opacity:1; fill:none" points="276.876,91.5919 323.006,278.037 369.137,278.037 415.268,534.46 461.398,534.46 507.529,534.46 553.66,534.46 599.79,534.46 645.921,534.46 692.052,710.142 738.182,710.142 784.313,710.142 830.444,710.142 876.574,713.789 922.705,713.789 968.836,713.789 1014.97,713.789 1061.1,750.937 1107.23,750.937 1153.36,750.937 1199.49,750.937 1245.62,786.172 1291.75,786.172 1337.88,786.172 1384.01,786.172 1430.14,786.172 1476.27,786.172 1522.4,813.03 1568.53,813.03 1614.67,813.03 1660.8,813.03 1706.93,813.03 1753.06,813.03 1799.19,813.03 1845.32,813.03 1891.45,813.03 1937.58,813.03 1983.71,813.03 2029.84,813.03 2075.97,813.03 2122.1,813.03 2168.23,813.03 2214.36,813.03 2260.49,813.03 2306.63,813.03 2352.76,813.03 2398.89,813.03 2445.02,813.03 2491.15,813.03 2537.28,813.03 2583.41,813.03 2629.54,813.03 2675.67,813.03 2721.8,813.03 2767.93,813.03 2814.06,813.03 2860.19,813.03 2906.32,813.03 2952.45,813.03 2998.59,813.03 3044.72,813.03 3090.85,813.03 3136.98,813.03 3183.11,813.03 3229.24,813.03 3275.37,815.629 3321.5,815.629 3367.63,818.88 3413.76,818.88 3459.89,822.132 3506.02,822.132 3552.15,825.068 3598.28,825.068 3644.41,827.699 3690.55,827.699 3736.68,830.238 3782.81,830.238 3828.94,832.874 3875.07,832.874 3921.2,835.579 3967.33,835.579 4013.46,838.22 4059.59,838.22 4105.72,840.683 4151.85,840.683 4197.98,842.991 4244.11,842.991 4290.24,845.234 4336.37,845.234 4382.51,847.501 4428.64,847.501 4474.77,849.789 4520.9,849.789 4567.03,852.046 4613.16,852.046 4659.29,854.209 4705.42,854.209 4751.55,856.273 4797.68,856.273 4843.81,858.266 4889.94,858.266 4936.07,860.239 4982.2,860.239 5028.34,862.213 5074.47,862.213 5120.6,864.181 5166.73,864.181 5212.86,866.108 5258.99,866.108 5305.12,867.977 5351.25,867.977 5397.38,869.78 5443.51,869.78 5489.64,871.541 5535.77,871.541 5581.9,873.279 5628.03,873.279 5674.16,875.01 5720.3,875.01 5766.43,876.727 5812.56,876.727 5858.69,878.421 5904.82,878.421 5950.95,880.073 5997.08,880.073 6043.21,881.685 6089.34,881.685 6135.47,883.258 6181.6,883.258 6227.73,884.807 6273.86,884.807 6319.99,886.341 6366.12,886.341 6412.26,887.865 6458.39,887.865 6504.52,889.372 6550.65,889.372 6596.78,890.857 6642.91,890.857 6689.04,892.312 6735.17,892.312 6781.3,893.739 6827.43,893.739 6873.56,895.138 6919.69,895.138 6965.82,896.519 7011.95,896.519 7058.08,897.885 7104.22,897.885 7150.35,899.241 7196.48,899.241 7242.61,900.582 7288.74,900.582 7334.87,901.907 7381,901.907 7427.13,903.211 7473.26,903.211 7519.39,904.493 7565.52,904.493 7611.65,905.753 7657.78,905.753 7703.91,906.997 7750.04,906.997 7796.18,908.227 7842.31,908.227 7888.44,909.447 7934.57,909.447 7980.7,910.654 8026.83,910.654 8072.96,911.851 8119.09,911.851 8165.22,913.031 8211.35,913.031 8257.48,914.196 8303.61,914.196 8349.74,915.343 8395.87,915.343 8442.01,916.476 8488.14,916.476 8534.27,917.595 8580.4,917.595 8626.53,918.703 8672.66,918.703 8718.79,919.801 8764.92,919.801 8811.05,920.889 8857.18,920.889 8903.31,921.967 8949.44,921.967 8995.57,923.034 9041.7,923.034 9087.83,924.087 9133.97,924.087 9180.1,925.128 9226.23,925.128 9272.36,926.156 9318.49,926.156 9364.62,927.173 9410.75,927.173 9456.88,928.179 9503.01,928.179 9549.14,929.177 9595.27,929.177 9641.4,930.167 9687.53,930.167 9733.66,931.148 9779.79,931.148 9825.93,932.12 9872.06,932.12 9918.19,933.082 9964.32,933.082 10010.4,934.034 10056.6,934.034 10102.7,934.976 10148.8,934.976 10195,935.907 10241.1,935.907 10287.2,936.83 10333.4,936.83 10379.5,937.745 10425.6,937.745 10471.8,938.652 10517.9,938.652 10564,939.552 10610.1,939.552 10656.3,940.444 10702.4,940.444 10748.5,941.329 10794.7,941.329 10840.8,942.206 10886.9,942.206 10933.1,943.075 10979.2,943.075 11025.3,943.935 11071.5,943.935 11117.6,944.788 11163.7,944.788 11209.8,945.632 11256,945.632 11302.1,946.47 11348.2,946.47 11394.4,947.301 11440.5,947.301 11486.6,948.125 11532.8,948.125 11578.9,948.944 11625,948.944 11671.2,949.756 11717.3,949.756 11763.4,950.562 11809.5,950.562 11855.7,951.361 11901.8,951.361 11947.9,952.153 11994.1,952.153 12040.2,952.938 12086.3,952.938 12132.5,953.717 12178.6,953.717 12224.7,954.489 12270.9,954.489 12317,955.256 12363.1,955.256 12409.2,956.017 12455.4,956.017 12501.5,956.773 12547.6,956.773 12593.8,957.523 12639.9,957.523 12686,958.268 12732.2,958.268 12778.3,959.008 12824.4,959.008 12870.5,959.742 12916.7,959.742 12962.8,960.47 13008.9,960.47 13055.1,961.192 13101.2,961.192 13147.3,961.909 13193.5,961.909 13239.6,962.621 13285.7,962.621 13331.9,963.328 13378,963.328 13424.1,964.029 13470.2,964.029 13516.4,964.726 13562.5,964.726 13608.6,965.419 13654.8,965.419 13700.9,966.107 13747,966.107 13793.2,966.79 13839.3,966.79 13885.4,967.469 13931.6,967.469 13977.7,968.143 14023.8,968.143 14069.9,968.812 14116.1,968.812 14162.2,969.476 14208.3,969.476 14254.5,970.136 14300.6,970.136 14346.7,970.792 14392.9,970.792 14439,971.442 14485.1,971.442 14531.3,972.089 14577.4,972.089 14623.5,972.732 14669.6,972.732 14715.8,973.371 14761.9,973.371 14808,974.006 14854.2,974.006 14900.3,974.637 14946.4,974.637 14992.6,975.265 15038.7,975.265 15084.8,975.888 15131,975.888 15177.1,976.507 15223.2,976.507 15269.3,977.122 15315.5,977.122 15361.6,977.733 15407.7,977.733 15453.9,978.34 15500,978.34 15546.1,978.943 15592.3,978.943 15638.4,979.543 15684.5,979.543 15730.7,980.14 15776.8,980.14 15822.9,980.733 15869,980.733 15915.2,981.322 15961.3,981.322 16007.4,981.909 16053.6,981.909 16099.7,982.491 16145.8,982.491 16192,983.071 16238.1,983.071 16284.2,983.647 16330.4,983.647 16376.5,984.219 16422.6,984.219 16468.7,984.788 16514.9,984.788 16561,985.354 16607.1,985.354 16653.3,985.916 16699.4,985.916 16745.5,986.476 16791.7,986.476 16837.8,987.032 16883.9,987.032 16930,987.585 16976.2,987.585 17022.3,988.135 17068.4,988.135 17114.6,988.682 17160.7,988.682 17206.8,989.227 17253,989.227 17299.1,989.768 17345.2,989.768 17391.4,990.306 17437.5,990.306 17483.6,990.842 17529.7,990.842 17575.9,991.374 17622,991.374 17668.1,991.904 17714.3,991.904 17760.4,992.43 17806.5,992.43 17852.7,992.954 17898.8,992.954 17944.9,993.475 17991.1,993.475 18037.2,993.994 18083.3,993.994 18129.4,994.509 18175.6,994.509 18221.7,995.023 18267.8,995.023 18314,995.533 18360.1,995.533 18406.2,996.041 18452.4,996.041 18498.5,996.546 18544.6,996.546 18590.8,997.049 18636.9,997.049 18683,997.55 18729.1,997.55 18775.3,998.047 18821.4,998.047 18867.5,998.542 18913.7,998.542 18959.8,999.035 19005.9,999.035 19052.1,999.525 19098.2,999.525 19144.3,1000.01 19190.5,1000.01 19236.6,1000.5 19282.7,1000.5 19328.8,1000.98 19375,1000.98 19421.1,1001.46 19467.2,1001.46 19513.4,1001.94 19559.5,1001.94 19605.6,1002.42 19651.8,1002.42 19697.9,1002.89 19744,1002.89 19790.2,1003.36 19836.3,1003.36 19882.4,1003.83 19928.5,1003.83 19974.7,1004.3 20020.8,1004.3 20066.9,1004.76 20113.1,1004.76 20159.2,1005.23 20205.3,1005.23 20251.5,1005.69 20297.6,1005.69 20343.7,1006.15 20389.9,1006.15 20436,1006.6 20482.1,1006.6 20528.2,1007.06 20574.4,1007.06 20620.5,1007.51 20666.6,1007.51 20712.8,1007.96 20758.9,1007.96 20805,1008.41 20851.2,1008.41 20897.3,1008.85 20943.4,1008.85 20989.5,1009.3 21035.7,1009.3 21081.8,1009.74 21127.9,1009.74 21174.1,1010.18 21220.2,1010.18 21266.3,1010.62 21312.5,1010.62 21358.6,1011.05 21404.7,1011.05 21450.9,1011.49 21497,1011.49 21543.1,1011.92 21589.2,1011.92 21635.4,1012.35 21681.5,1012.35 21727.6,1012.78 21773.8,1012.78 21819.9,1013.21 21866,1013.21 21912.2,1013.63 21958.3,1013.63 22004.4,1014.05 22050.6,1014.05 22096.7,1014.48 22142.8,1014.48 22188.9,1014.89 22235.1,1014.89 22281.2,1015.31 22327.3,1015.31 22373.5,1015.73 22419.6,1015.73 22465.7,1016.14 22511.9,1016.14 22558,1016.56 22604.1,1016.56 22650.3,1016.97 22696.4,1016.97 22742.5,1017.38 22788.6,1017.38 22834.8,1017.78 22880.9,1017.78 22927,1018.19 22973.2,1018.19 23019.3,1018.59 23065.4,1018.59 23111.6,1019 23157.7,1019 23203.8,1019.4 23250,1019.4 23296.1,1019.8 23342.2,1019.8 "/>
<polyline clip-path="url(#clip142)" style="stroke:#ffb000; stroke-linecap:round; stroke-linejoin:round; stroke-width:8; stroke-opacity:1; fill:none" stroke-dasharray="32, 20" points="276.876,91.5919 323.006,263.458 369.137,263.458 415.268,364.08 461.398,364.08 507.529,433.737 553.66,433.737 599.79,497.813 645.921,497.813 692.052,570.866 738.182,570.866 784.313,681.615 830.444,681.615 876.574,786.026 922.705,786.026 968.836,786.026 1014.97,786.026 1061.1,786.026 1107.23,786.026 1153.36,789.974 1199.49,789.974 1245.62,789.974 1291.75,789.974 1337.88,789.974 1384.01,789.974 1430.14,789.974 1476.27,789.974 1522.4,789.974 1568.53,789.974 1614.67,789.974 1660.8,789.974 1706.93,789.974 1753.06,789.974 1799.19,789.974 1845.32,789.974 1891.45,789.974 1937.58,789.974 1983.71,789.974 2029.84,789.974 2075.97,789.974 2122.1,789.974 2168.23,789.974 2214.36,789.974 2260.49,789.974 2306.63,789.974 2352.76,789.974 2398.89,789.974 2445.02,789.974 2491.15,789.974 2537.28,789.974 2583.41,789.974 2629.54,789.974 2675.67,789.974 2721.8,789.974 2767.93,789.974 2814.06,789.974 2860.19,789.974 2906.32,789.974 2952.45,789.974 2998.59,789.974 3044.72,789.974 3090.85,789.974 3136.98,789.974 3183.11,791.481 3229.24,791.481 3275.37,794.408 3321.5,794.408 3367.63,797.359 3413.76,797.359 3459.89,800.225 3506.02,800.225 3552.15,803.089 3598.28,803.089 3644.41,805.906 3690.55,805.906 3736.68,808.715 3782.81,808.715 3828.94,811.497 3875.07,811.497 3921.2,814.271 3967.33,814.271 4013.46,817.031 4059.59,817.031 4105.72,819.787 4151.85,819.787 4197.98,822.537 4244.11,822.537 4290.24,825.288 4336.37,825.288 4382.51,828.039 4428.64,828.039 4474.77,830.795 4520.9,830.795 4567.03,833.558 4613.16,833.558 4659.29,836.33 4705.42,836.33 4751.55,839.113 4797.68,839.113 4843.81,841.909 4889.94,841.909 4936.07,844.722 4982.2,844.722 5028.34,847.553 5074.47,847.553 5120.6,850.404 5166.73,850.404 5212.86,853.277 5258.99,853.277 5305.12,856.176 5351.25,856.176 5397.38,859.102 5443.51,859.102 5489.64,862.058 5535.77,862.058 5581.9,865.046 5628.03,865.046 5674.16,868.069 5720.3,868.069 5766.43,871.13 5812.56,871.13 5858.69,874.231 5904.82,874.231 5950.95,877.376 5997.08,877.376 6043.21,880.567 6089.34,880.567 6135.47,883.808 6181.6,883.808 6227.73,887.104 6273.86,887.104 6319.99,890.456 6366.12,890.456 6412.26,893.87 6458.39,893.87 6504.52,897.35 6550.65,897.35 6596.78,900.901 6642.91,900.901 6689.04,904.527 6735.17,904.527 6781.3,908.235 6827.43,908.235 6873.56,912.031 6919.69,912.031 6965.82,915.92 7011.95,915.92 7058.08,919.911 7104.22,919.911 7150.35,924.011 7196.48,924.011 7242.61,928.23 7288.74,928.23 7334.87,932.576 7381,932.576 7427.13,937.062 7473.26,937.062 7519.39,941.699 7565.52,941.699 7611.65,946.502 7657.78,946.502 7703.91,951.484 7750.04,951.484 7796.18,956.671 7842.31,956.671 7888.44,962.061 7934.57,962.061 7980.7,967.722 8026.83,967.722 8072.96,973.501 8119.09,973.501 8165.22,979.346 8211.35,979.346 8257.48,980.576 8303.61,980.576 8349.74,980.576 8395.87,980.576 8442.01,980.576 8488.14,980.576 8534.27,980.576 8580.4,980.576 8626.53,980.576 8672.66,980.576 8718.79,980.576 8764.92,980.576 8811.05,980.576 8857.18,980.576 8903.31,980.576 8949.44,980.576 8995.57,980.576 9041.7,980.576 9087.83,980.576 9133.97,980.576 9180.1,980.576 9226.23,980.576 9272.36,980.576 9318.49,980.576 9364.62,980.576 9410.75,980.576 9456.88,980.576 9503.01,980.576 9549.14,980.576 9595.27,980.576 9641.4,980.576 9687.53,980.576 9733.66,980.576 9779.79,980.576 9825.93,980.576 9872.06,980.576 9918.19,980.576 9964.32,980.576 10010.4,980.576 10056.6,980.576 10102.7,980.576 10148.8,980.576 10195,980.576 10241.1,980.576 10287.2,980.576 10333.4,980.576 10379.5,980.576 10425.6,980.576 10471.8,980.576 10517.9,980.576 10564,980.576 10610.1,980.576 10656.3,980.576 10702.4,980.576 10748.5,980.576 10794.7,980.576 10840.8,980.576 10886.9,980.576 10933.1,980.576 10979.2,980.576 11025.3,980.576 11071.5,980.576 11117.6,980.576 11163.7,980.576 11209.8,980.576 11256,980.576 11302.1,980.576 11348.2,980.576 11394.4,980.576 11440.5,980.576 11486.6,983.252 11532.8,983.252 11578.9,987.831 11625,987.831 11671.2,992.61 11717.3,992.61 11763.4,997.286 11809.5,997.286 11855.7,1001.52 11901.8,1001.52 11947.9,1001.52 11994.1,1001.52 12040.2,1001.52 12086.3,1001.52 12132.5,1001.52 12178.6,1001.52 12224.7,1001.52 12270.9,1001.52 12317,1001.52 12363.1,1001.52 12409.2,1001.52 12455.4,1001.52 12501.5,1001.52 12547.6,1001.52 12593.8,1001.52 12639.9,1001.52 12686,1001.52 12732.2,1001.52 12778.3,1001.52 12824.4,1001.52 12870.5,1001.52 12916.7,1001.52 12962.8,1001.52 13008.9,1001.52 13055.1,1001.52 13101.2,1001.52 13147.3,1001.52 13193.5,1001.52 13239.6,1001.52 13285.7,1001.52 13331.9,1001.52 13378,1001.52 13424.1,1001.52 13470.2,1001.52 13516.4,1001.52 13562.5,1001.52 13608.6,1001.52 13654.8,1001.52 13700.9,1001.52 13747,1001.52 13793.2,1001.52 13839.3,1001.52 13885.4,1001.52 13931.6,1001.52 13977.7,1001.52 14023.8,1001.52 14069.9,1001.52 14116.1,1001.52 14162.2,1001.52 14208.3,1001.52 14254.5,1001.52 14300.6,1001.52 14346.7,1001.52 14392.9,1001.52 14439,1001.52 14485.1,1001.52 14531.3,1001.52 14577.4,1001.52 14623.5,1001.52 14669.6,1001.52 14715.8,1004.78 14761.9,1004.78 14808,1008.78 14854.2,1008.78 14900.3,1011.95 14946.4,1011.95 14992.6,1012.92 15038.7,1012.92 15084.8,1012.92 15131,1012.92 15177.1,1012.92 15223.2,1012.92 15269.3,1012.92 15315.5,1012.92 15361.6,1012.92 15407.7,1012.92 15453.9,1012.92 15500,1012.92 15546.1,1012.92 15592.3,1012.92 15638.4,1012.92 15684.5,1012.92 15730.7,1012.92 15776.8,1012.92 15822.9,1012.92 15869,1012.92 15915.2,1012.92 15961.3,1012.92 16007.4,1012.92 16053.6,1012.92 16099.7,1012.92 16145.8,1012.92 16192,1012.92 16238.1,1012.92 16284.2,1012.92 16330.4,1012.92 16376.5,1012.92 16422.6,1012.92 16468.7,1012.92 16514.9,1012.92 16561,1012.92 16607.1,1012.92 16653.3,1012.92 16699.4,1012.92 16745.5,1012.92 16791.7,1012.92 16837.8,1012.92 16883.9,1012.92 16930,1012.92 16976.2,1012.92 17022.3,1012.92 17068.4,1012.92 17114.6,1012.92 17160.7,1012.92 17206.8,1012.92 17253,1012.92 17299.1,1012.92 17345.2,1012.92 17391.4,1012.92 17437.5,1012.92 17483.6,1015.5 17529.7,1015.5 17575.9,1018.84 17622,1018.84 17668.1,1021.3 17714.3,1021.3 17760.4,1021.97 17806.5,1021.97 17852.7,1021.97 17898.8,1021.97 17944.9,1021.97 17991.1,1021.97 18037.2,1021.97 18083.3,1021.97 18129.4,1021.97 18175.6,1021.97 18221.7,1021.97 18267.8,1021.97 18314,1021.97 18360.1,1021.97 18406.2,1021.97 18452.4,1021.97 18498.5,1021.97 18544.6,1021.97 18590.8,1021.97 18636.9,1021.97 18683,1021.97 18729.1,1021.97 18775.3,1021.97 18821.4,1021.97 18867.5,1021.97 18913.7,1021.97 18959.8,1021.97 19005.9,1021.97 19052.1,1021.97 19098.2,1021.97 19144.3,1021.97 19190.5,1021.97 19236.6,1021.97 19282.7,1021.97 19328.8,1021.97 19375,1021.97 19421.1,1021.97 19467.2,1021.97 19513.4,1021.97 19559.5,1021.97 19605.6,1021.97 19651.8,1021.97 19697.9,1021.97 19744,1021.97 19790.2,1021.97 19836.3,1021.97 19882.4,1021.97 19928.5,1021.97 19974.7,1021.97 20020.8,1021.97 20066.9,1024.42 20113.1,1024.42 20159.2,1027.28 20205.3,1027.28 20251.5,1029.37 20297.6,1029.37 20343.7,1030.18 20389.9,1030.18 20436,1030.18 20482.1,1030.18 20528.2,1030.18 20574.4,1030.18 20620.5,1030.18 20666.6,1030.18 20712.8,1030.18 20758.9,1030.18 20805,1030.18 20851.2,1030.18 20897.3,1030.18 20943.4,1030.18 20989.5,1030.18 21035.7,1030.18 21081.8,1030.18 21127.9,1030.18 21174.1,1030.18 21220.2,1030.18 21266.3,1030.18 21312.5,1030.18 21358.6,1030.18 21404.7,1030.18 21450.9,1030.18 21497,1030.18 21543.1,1030.18 21589.2,1030.18 21635.4,1030.18 21681.5,1030.18 21727.6,1030.18 21773.8,1030.18 21819.9,1030.18 21866,1030.18 21912.2,1030.18 21958.3,1030.18 22004.4,1030.18 22050.6,1030.18 22096.7,1030.18 22142.8,1030.18 22188.9,1030.18 22235.1,1030.18 22281.2,1030.18 22327.3,1030.18 22373.5,1030.18 22419.6,1030.18 22465.7,1030.22 22511.9,1030.22 22558,1032.88 22604.1,1032.88 22650.3,1035.19 22696.4,1035.19 22742.5,1037.08 22788.6,1037.08 22834.8,1037.42 22880.9,1037.42 22927,1037.42 22973.2,1037.42 23019.3,1037.42 23065.4,1037.42 23111.6,1037.42 23157.7,1037.42 23203.8,1037.42 23250,1037.42 23296.1,1037.42 23342.2,1037.42 "/>
<path clip-path="url(#clip140)" d="M1827.66 300.469 L2283.56 300.469 L2283.56 93.1086 L1827.66 93.1086  Z" fill="#000000" fill-rule="evenodd" fill-opacity="0"/>
<polyline clip-path="url(#clip140)" style="stroke:#000000; stroke-linecap:round; stroke-linejoin:round; stroke-width:4; stroke-opacity:0; fill:none" points="1827.66,300.469 2283.56,300.469 2283.56,93.1086 1827.66,93.1086 1827.66,300.469 "/>
<polyline clip-path="url(#clip140)" style="stroke:#785ef0; stroke-linecap:round; stroke-linejoin:round; stroke-width:8; stroke-opacity:1; fill:none" points="1850.73,144.949 1989.12,144.949 "/>
<path clip-path="url(#clip140)" d="M2012.19 156.824 L2012.19 155.348 L2013.33 155.348 Q2015.93 155.348 2016.52 154.926 Q2017.13 154.481 2017.13 153.076 L2017.13 127.803 Q2017.13 126.421 2016.52 126 Q2015.91 125.555 2013.33 125.555 L2012.19 125.555 L2012.19 124.056 L2027.25 124.056 Q2032.47 124.056 2036.1 126.632 Q2039.75 129.185 2039.75 132.699 Q2039.75 135.392 2037.39 137.5 Q2035.02 139.608 2031.37 140.522 Q2036.12 142.161 2037.22 146.073 L2037.83 149.914 Q2038.02 151.296 2038.14 151.999 Q2038.28 152.701 2038.49 153.662 Q2038.7 154.622 2038.91 155.09 Q2039.15 155.535 2039.47 156.027 Q2039.8 156.496 2040.22 156.66 Q2040.67 156.824 2041.25 156.824 Q2042.35 156.824 2043.29 155.84 Q2044.23 154.856 2044.42 152.561 Q2044.51 151.788 2045 151.788 Q2045.61 151.788 2045.61 152.561 Q2045.61 153.24 2045.42 154.036 Q2045.24 154.809 2044.77 155.723 Q2044.32 156.636 2043.34 157.245 Q2042.35 157.878 2041.07 157.878 Q2037.32 157.878 2035.02 155.863 Q2034.06 154.997 2033.62 153.872 Q2033.2 152.748 2033.13 151.858 Q2033.06 150.968 2033.06 149.001 Q2033.06 146.213 2032.75 144.995 Q2032.47 143.777 2031.23 142.583 Q2029.54 140.943 2026.75 140.943 L2021.25 140.943 L2021.25 153.076 Q2021.25 154.458 2021.84 154.903 Q2022.44 155.348 2025.04 155.348 L2026.19 155.348 L2026.19 156.824 Q2024.46 156.683 2019.19 156.683 Q2013.92 156.683 2012.19 156.824 M2021.25 139.889 L2026.57 139.889 Q2029.12 139.889 2030.83 139.28 Q2032.56 138.648 2033.38 137.524 Q2034.2 136.399 2034.51 135.275 Q2034.81 134.127 2034.81 132.699 Q2034.81 131.012 2034.44 129.747 Q2034.06 128.482 2033.24 127.733 Q2032.42 126.983 2031.6 126.515 Q2030.78 126.023 2029.52 125.836 Q2028.25 125.648 2027.39 125.602 Q2026.52 125.555 2025.14 125.555 Q2022.8 125.555 2022.3 125.648 Q2021.77 125.695 2021.55 125.953 Q2021.34 126.21 2021.3 126.515 Q2021.25 126.796 2021.25 127.475 L2021.25 139.889 Z" fill="#000000" fill-rule="nonzero" fill-opacity="1" /><path clip-path="url(#clip140)" d="M2047.91 156.824 L2047.91 155.348 L2049.05 155.348 Q2051.65 155.348 2052.24 154.926 Q2052.85 154.481 2052.85 153.076 L2052.85 127.803 Q2052.85 126.421 2052.24 126 Q2051.63 125.555 2049.05 125.555 L2047.91 125.555 L2047.91 124.056 L2064.84 124.056 Q2069.69 124.056 2072.92 126.726 Q2076.15 129.396 2076.15 132.98 Q2076.15 136.54 2072.85 139.116 Q2069.57 141.669 2065.22 141.669 L2057.11 141.669 L2057.11 153.076 Q2057.11 154.458 2057.7 154.903 Q2058.31 155.348 2060.91 155.348 L2062.05 155.348 L2062.05 156.824 Q2060.37 156.683 2054.96 156.683 Q2049.59 156.683 2047.91 156.824 M2056.97 140.428 L2063.58 140.428 Q2065.73 140.428 2067.3 139.819 Q2068.87 139.21 2069.57 138.484 Q2070.3 137.734 2070.7 136.54 Q2071.12 135.322 2071.16 134.666 Q2071.21 133.987 2071.21 132.98 Q2071.21 131.926 2071.16 131.27 Q2071.12 130.59 2070.7 129.396 Q2070.3 128.178 2069.57 127.452 Q2068.87 126.702 2067.3 126.14 Q2065.75 125.555 2063.58 125.555 L2059.31 125.555 Q2057.67 125.555 2057.32 125.883 Q2056.97 126.21 2056.97 127.475 L2056.97 140.428 Z" fill="#000000" fill-rule="nonzero" fill-opacity="1" /><path clip-path="url(#clip140)" d="M2086.53 156.824 L2086.53 155.348 L2087.68 155.348 Q2090.28 155.348 2090.86 154.926 Q2091.47 154.481 2091.47 153.076 L2091.47 127.803 Q2091.47 126.421 2090.86 126 Q2090.25 125.555 2087.68 125.555 L2086.53 125.555 L2086.53 124.056 L2104.07 124.056 Q2108.64 124.056 2111.68 126.515 Q2114.73 128.951 2114.73 132.16 Q2114.73 134.807 2112.48 136.915 Q2110.25 139.023 2106.76 139.702 Q2110.75 140.123 2113.37 142.536 Q2116.02 144.925 2116.02 148.04 Q2116.02 151.554 2112.99 154.2 Q2109.97 156.824 2105.34 156.824 L2086.53 156.824 M2095.45 153.427 Q2095.45 154.669 2095.8 155.02 Q2096.15 155.348 2097.79 155.348 L2103.79 155.348 Q2107.23 155.348 2109.22 153.099 Q2111.21 150.827 2111.21 147.993 Q2111.21 145.159 2109.46 142.747 Q2107.72 140.311 2104.47 140.311 L2095.45 140.311 L2095.45 153.427 M2095.45 139.257 L2102.41 139.257 Q2106.11 139.257 2108.08 137.032 Q2110.07 134.807 2110.07 132.16 Q2110.07 129.818 2108.47 127.686 Q2106.91 125.555 2103.74 125.555 L2097.79 125.555 Q2096.15 125.555 2095.8 125.883 Q2095.45 126.21 2095.45 127.475 L2095.45 139.257 Z" fill="#000000" fill-rule="nonzero" fill-opacity="1" /><path clip-path="url(#clip140)" d="M2125.51 144.831 Q2125.51 136.727 2128.53 130.192 Q2129.82 127.452 2131.62 125.156 Q2133.43 122.861 2134.62 121.854 Q2135.82 120.847 2136.14 120.847 Q2136.61 120.847 2136.64 121.315 Q2136.64 121.549 2136 122.135 Q2128.27 130.005 2128.3 144.831 Q2128.3 159.705 2135.82 167.27 Q2136.64 168.09 2136.64 168.347 Q2136.64 168.816 2136.14 168.816 Q2135.82 168.816 2134.67 167.856 Q2133.52 166.895 2131.74 164.694 Q2129.96 162.492 2128.67 159.798 Q2125.51 153.263 2125.51 144.831 Z" fill="#000000" fill-rule="nonzero" fill-opacity="1" /><path clip-path="url(#clip140)" d="M2141.24 140.568 Q2141.24 133.237 2145.92 128.131 Q2150.63 123.002 2157.17 123.002 Q2163.75 123.002 2168.43 128.131 Q2173.14 133.261 2173.14 140.568 Q2173.14 147.806 2168.43 152.842 Q2163.72 157.878 2157.17 157.878 Q2150.7 157.878 2145.97 152.865 Q2141.24 147.853 2141.24 140.568 M2146.18 139.889 Q2146.18 144.339 2147.23 147.759 Q2148.29 151.155 2149.97 153.006 Q2151.68 154.856 2153.51 155.746 Q2155.34 156.636 2157.21 156.636 Q2159.04 156.636 2160.82 155.77 Q2162.62 154.903 2164.33 153.076 Q2166.04 151.249 2167.12 147.829 Q2168.2 144.41 2168.2 139.889 Q2168.2 136.376 2167.45 133.565 Q2166.7 130.731 2165.53 129.021 Q2164.36 127.311 2162.83 126.187 Q2161.33 125.063 2159.91 124.641 Q2158.5 124.196 2157.17 124.196 Q2155.48 124.196 2153.72 124.946 Q2151.97 125.695 2150.19 127.358 Q2148.43 128.998 2147.3 132.253 Q2146.18 135.486 2146.18 139.889 Z" fill="#000000" fill-rule="nonzero" fill-opacity="1" /><path clip-path="url(#clip140)" d="M2177.75 137.641 L2177.75 136.142 L2184.8 135.626 L2184.8 151.554 Q2184.8 152.701 2184.9 153.381 Q2184.99 154.036 2185.37 154.809 Q2185.77 155.582 2186.66 155.934 Q2187.57 156.285 2189.02 156.285 Q2191.62 156.285 2193.21 154.153 Q2194.83 152.022 2194.83 148.86 L2194.83 140.311 Q2194.83 138.531 2194.2 138.086 Q2193.56 137.641 2191.08 137.641 L2191.08 136.142 L2198.13 135.626 L2198.13 152.654 Q2198.13 154.435 2198.74 154.903 Q2199.37 155.348 2201.88 155.348 L2201.88 156.824 L2194.97 157.362 L2194.97 153.029 Q2192.96 157.339 2188.79 157.362 Q2186.68 157.362 2185.23 156.824 Q2183.8 156.285 2183.07 155.629 Q2182.35 154.95 2181.95 153.662 Q2181.57 152.373 2181.53 151.577 Q2181.48 150.781 2181.48 149.235 L2181.48 142.044 Q2181.48 138.788 2181.01 138.226 Q2180.54 137.641 2177.75 137.641 Z" fill="#000000" fill-rule="nonzero" fill-opacity="1" /><path clip-path="url(#clip140)" d="M2203.53 156.824 L2203.53 155.348 Q2206.08 155.348 2206.67 155.044 Q2207.27 154.716 2207.27 153.17 L2207.27 140.311 Q2207.27 138.531 2206.64 138.086 Q2206.03 137.641 2203.53 137.641 L2203.53 136.142 L2210.2 135.626 L2210.2 140.896 Q2210.88 138.835 2212.31 137.242 Q2213.76 135.626 2216.1 135.626 Q2217.65 135.626 2218.63 136.493 Q2219.64 137.36 2219.64 138.554 Q2219.64 139.608 2218.99 140.147 Q2218.35 140.662 2217.58 140.662 Q2216.71 140.662 2216.1 140.123 Q2215.52 139.561 2215.52 138.601 Q2215.52 138.015 2215.78 137.57 Q2216.06 137.102 2216.27 136.938 Q2216.48 136.774 2216.62 136.727 Q2216.53 136.68 2216.1 136.68 Q2213.46 136.68 2211.94 139.327 Q2210.44 141.95 2210.44 145.698 L2210.44 153.076 Q2210.44 154.458 2211 154.903 Q2211.58 155.348 2214.09 155.348 L2215.1 155.348 L2215.1 156.824 Q2213.18 156.683 2209.01 156.683 Q2208.42 156.683 2207.51 156.707 Q2206.59 156.73 2205.4 156.777 Q2204.21 156.824 2203.53 156.824 Z" fill="#000000" fill-rule="nonzero" fill-opacity="1" /><path clip-path="url(#clip140)" d="M2222.62 156.191 L2222.62 149.867 Q2222.62 149.328 2222.64 149.141 Q2222.66 148.954 2222.8 148.813 Q2222.95 148.673 2223.23 148.673 Q2223.55 148.673 2223.67 148.813 Q2223.81 148.954 2223.91 149.492 Q2224.63 152.795 2226.18 154.552 Q2227.75 156.285 2230.58 156.285 Q2233.27 156.285 2234.63 155.09 Q2235.99 153.896 2235.99 151.928 Q2235.99 148.415 2231 147.525 Q2228.12 146.939 2226.93 146.565 Q2225.73 146.166 2224.68 145.3 Q2222.62 143.613 2222.62 141.224 Q2222.62 138.835 2224.42 137.078 Q2226.25 135.322 2230.28 135.322 Q2232.97 135.322 2234.8 136.68 Q2235.34 136.259 2235.62 135.907 Q2236.25 135.322 2236.58 135.322 Q2236.95 135.322 2237.02 135.579 Q2237.09 135.814 2237.09 136.493 L2237.09 141.318 Q2237.09 141.857 2237.07 142.044 Q2237.05 142.231 2236.9 142.372 Q2236.76 142.489 2236.46 142.489 Q2235.92 142.489 2235.9 142.044 Q2235.52 136.235 2230.28 136.235 Q2227.44 136.235 2226.18 137.336 Q2224.91 138.414 2224.91 139.889 Q2224.91 140.709 2225.29 141.341 Q2225.69 141.95 2226.18 142.325 Q2226.69 142.676 2227.63 143.028 Q2228.57 143.356 2229.13 143.473 Q2229.71 143.59 2230.82 143.824 Q2234.66 144.55 2236.27 146.12 Q2238.29 148.134 2238.29 150.687 Q2238.29 153.521 2236.37 155.442 Q2234.45 157.362 2230.58 157.362 Q2227.47 157.362 2225.29 155.278 Q2225.01 155.559 2224.8 155.816 Q2224.58 156.051 2224.49 156.144 Q2224.42 156.238 2224.4 156.308 Q2224.37 156.355 2224.33 156.402 Q2223.37 157.362 2223.13 157.362 Q2222.76 157.362 2222.69 157.105 Q2222.62 156.87 2222.62 156.191 Z" fill="#000000" fill-rule="nonzero" fill-opacity="1" /><path clip-path="url(#clip140)" d="M2242.08 168.347 Q2242.08 168.113 2242.69 167.528 Q2250.42 159.658 2250.42 144.831 Q2250.42 129.958 2242.99 122.439 Q2242.08 121.573 2242.08 121.315 Q2242.08 120.847 2242.55 120.847 Q2242.88 120.847 2244.02 121.807 Q2245.19 122.767 2246.95 124.969 Q2248.73 127.171 2250.04 129.864 Q2253.2 136.399 2253.2 144.831 Q2253.2 152.935 2250.18 159.47 Q2248.89 162.211 2247.09 164.506 Q2245.29 166.802 2244.09 167.809 Q2242.9 168.816 2242.55 168.816 Q2242.08 168.816 2242.08 168.347 Z" fill="#000000" fill-rule="nonzero" fill-opacity="1" /><polyline clip-path="url(#clip140)" style="stroke:#fe6100; stroke-linecap:round; stroke-linejoin:round; stroke-width:8; stroke-opacity:1; fill:none" points="1850.73,196.789 1989.12,196.789 "/>
<path clip-path="url(#clip140)" d="M2012.19 213.007 L2012.19 211.532 L2013.33 211.532 Q2015.93 211.532 2016.52 211.11 Q2017.13 210.665 2017.13 209.26 L2017.13 183.987 Q2017.13 182.605 2016.52 182.183 Q2015.91 181.738 2013.33 181.738 L2012.19 181.738 L2012.19 180.239 L2027.25 180.239 Q2032.47 180.239 2036.1 182.816 Q2039.75 185.369 2039.75 188.882 Q2039.75 191.576 2037.39 193.684 Q2035.02 195.792 2031.37 196.705 Q2036.12 198.345 2037.22 202.256 L2037.83 206.098 Q2038.02 207.48 2038.14 208.182 Q2038.28 208.885 2038.49 209.845 Q2038.7 210.806 2038.91 211.274 Q2039.15 211.719 2039.47 212.211 Q2039.8 212.679 2040.22 212.843 Q2040.67 213.007 2041.25 213.007 Q2042.35 213.007 2043.29 212.024 Q2044.23 211.04 2044.42 208.744 Q2044.51 207.972 2045 207.972 Q2045.61 207.972 2045.61 208.744 Q2045.61 209.424 2045.42 210.22 Q2045.24 210.993 2044.77 211.907 Q2044.32 212.82 2043.34 213.429 Q2042.35 214.061 2041.07 214.061 Q2037.32 214.061 2035.02 212.047 Q2034.06 211.18 2033.62 210.056 Q2033.2 208.932 2033.13 208.042 Q2033.06 207.152 2033.06 205.184 Q2033.06 202.397 2032.75 201.179 Q2032.47 199.961 2031.23 198.767 Q2029.54 197.127 2026.75 197.127 L2021.25 197.127 L2021.25 209.26 Q2021.25 210.642 2021.84 211.087 Q2022.44 211.532 2025.04 211.532 L2026.19 211.532 L2026.19 213.007 Q2024.46 212.867 2019.19 212.867 Q2013.92 212.867 2012.19 213.007 M2021.25 196.073 L2026.57 196.073 Q2029.12 196.073 2030.83 195.464 Q2032.56 194.832 2033.38 193.707 Q2034.2 192.583 2034.51 191.459 Q2034.81 190.311 2034.81 188.882 Q2034.81 187.196 2034.44 185.931 Q2034.06 184.666 2033.24 183.917 Q2032.42 183.167 2031.6 182.699 Q2030.78 182.207 2029.52 182.019 Q2028.25 181.832 2027.39 181.785 Q2026.52 181.738 2025.14 181.738 Q2022.8 181.738 2022.3 181.832 Q2021.77 181.879 2021.55 182.137 Q2021.34 182.394 2021.3 182.699 Q2021.25 182.98 2021.25 183.659 L2021.25 196.073 Z" fill="#000000" fill-rule="nonzero" fill-opacity="1" /><path clip-path="url(#clip140)" d="M2045.82 196.612 Q2045.82 189.374 2050.76 184.291 Q2055.71 179.185 2062.5 179.185 Q2064.61 179.185 2066.48 179.958 Q2068.35 180.731 2069.22 181.41 Q2070.09 182.066 2071.33 183.308 L2073.74 179.771 Q2074.12 179.185 2074.49 179.185 Q2074.89 179.185 2074.96 179.42 Q2075.03 179.63 2075.03 180.333 L2075.03 191.716 Q2075.03 192.489 2074.94 192.677 Q2074.84 192.864 2074.26 192.864 Q2073.79 192.864 2073.67 192.724 Q2073.58 192.583 2073.48 192.044 Q2072.76 186.868 2069.88 183.776 Q2067.02 180.684 2063.04 180.684 Q2061.89 180.684 2060.6 180.942 Q2059.34 181.2 2057.49 182.183 Q2055.66 183.167 2054.23 184.807 Q2052.82 186.423 2051.79 189.515 Q2050.76 192.583 2050.76 196.659 Q2050.76 200.687 2051.79 203.779 Q2052.82 206.871 2054.23 208.487 Q2055.66 210.08 2057.49 211.063 Q2059.34 212.047 2060.62 212.328 Q2061.94 212.586 2063.08 212.586 Q2067.21 212.586 2070.37 209.658 Q2073.53 206.73 2073.83 201.788 Q2073.88 201.554 2073.88 201.46 Q2073.88 201.343 2073.93 201.226 Q2073.98 201.109 2074.09 201.062 Q2074.21 201.015 2074.4 201.015 Q2075.03 201.015 2075.03 201.835 Q2075.03 206.402 2071.52 210.244 Q2068.03 214.061 2062.5 214.061 Q2055.68 214.061 2050.74 209.002 Q2045.82 203.943 2045.82 196.612 Z" fill="#000000" fill-rule="nonzero" fill-opacity="1" /><path clip-path="url(#clip140)" d="M2082.98 213.007 L2082.98 211.532 L2084.13 211.532 Q2086.73 211.532 2087.31 211.11 Q2087.92 210.665 2087.92 209.26 L2087.92 183.987 Q2087.92 182.605 2087.31 182.183 Q2086.71 181.738 2084.13 181.738 L2082.98 181.738 L2082.98 180.239 L2100.52 180.239 Q2105.09 180.239 2108.14 182.699 Q2111.18 185.135 2111.18 188.344 Q2111.18 190.99 2108.93 193.098 Q2106.71 195.206 2103.22 195.886 Q2107.2 196.307 2109.82 198.72 Q2112.47 201.109 2112.47 204.224 Q2112.47 207.737 2109.45 210.384 Q2106.43 213.007 2101.79 213.007 L2082.98 213.007 M2091.91 209.611 Q2091.91 210.853 2092.26 211.204 Q2092.61 211.532 2094.25 211.532 L2100.24 211.532 Q2103.69 211.532 2105.68 209.283 Q2107.67 207.011 2107.67 204.177 Q2107.67 201.343 2105.91 198.93 Q2104.18 196.495 2100.92 196.495 L2091.91 196.495 L2091.91 209.611 M2091.91 195.441 L2098.86 195.441 Q2102.56 195.441 2104.53 193.215 Q2106.52 190.99 2106.52 188.344 Q2106.52 186.001 2104.93 183.87 Q2103.36 181.738 2100.2 181.738 L2094.25 181.738 Q2092.61 181.738 2092.26 182.066 Q2091.91 182.394 2091.91 183.659 L2091.91 195.441 Z" fill="#000000" fill-rule="nonzero" fill-opacity="1" /><path clip-path="url(#clip140)" d="M2118.32 213.007 L2118.32 211.532 Q2120.05 211.532 2121.15 211.204 Q2122.25 210.853 2122.65 210.22 Q2123.07 209.564 2123.16 209.143 Q2123.26 208.698 2123.26 207.972 L2123.26 183.987 Q2123.26 182.605 2122.65 182.183 Q2122.06 181.738 2119.46 181.738 L2118.32 181.738 L2118.32 180.239 L2126.42 180.239 Q2127.29 180.239 2127.52 180.403 Q2127.76 180.544 2128.11 181.293 L2138.51 208.159 L2149 181.153 Q2149.23 180.474 2149.44 180.356 Q2149.68 180.239 2150.59 180.239 L2158.7 180.239 L2158.7 181.738 L2157.55 181.738 Q2154.95 181.738 2154.34 182.183 Q2153.75 182.605 2153.75 183.987 L2153.75 209.26 Q2153.75 210.642 2154.34 211.087 Q2154.95 211.532 2157.55 211.532 L2158.7 211.532 L2158.7 213.007 Q2156.92 212.867 2151.83 212.867 Q2146.7 212.867 2144.92 213.007 L2144.92 211.532 L2146.1 211.532 Q2148.7 211.532 2149.28 211.11 Q2149.87 210.665 2149.87 209.26 L2149.87 181.738 L2149.82 181.738 L2138.04 212.094 Q2137.71 213.007 2137.17 213.007 Q2136.59 213.007 2136.21 211.953 L2124.64 182.113 L2124.59 182.113 L2124.59 207.972 Q2124.59 208.698 2124.69 209.143 Q2124.78 209.564 2125.18 210.22 Q2125.6 210.853 2126.7 211.204 Q2127.8 211.532 2129.54 211.532 L2129.54 213.007 Q2124.5 212.867 2123.91 212.867 Q2123.35 212.867 2118.32 213.007 Z" fill="#000000" fill-rule="nonzero" fill-opacity="1" /><polyline clip-path="url(#clip140)" style="stroke:#ffb000; stroke-linecap:round; stroke-linejoin:round; stroke-width:8; stroke-opacity:1; fill:none" points="1850.73,248.629 1989.12,248.629 "/>
<path clip-path="url(#clip140)" d="M2012.19 264.754 L2012.19 255.15 Q2012.19 254.612 2012.21 254.424 Q2012.23 254.237 2012.37 254.096 Q2012.51 253.956 2012.79 253.956 Q2013.33 253.956 2013.38 254.448 Q2013.52 259.203 2016.36 261.826 Q2019.14 264.426 2023.92 264.426 Q2026.8 264.426 2028.58 262.365 Q2030.36 260.28 2030.36 257.563 Q2030.36 254.963 2028.86 253.136 Q2028.23 252.316 2027.43 251.801 Q2026.66 251.262 2026.17 251.098 Q2025.7 250.934 2024.79 250.7 Q2018.84 249.271 2018.46 249.107 Q2015.63 248.147 2013.9 245.735 Q2012.19 243.299 2012.19 240.324 Q2012.19 236.483 2014.88 233.766 Q2017.6 231.025 2021.53 231.025 Q2023.5 231.025 2025.14 231.658 Q2026.8 232.267 2027.48 232.829 Q2028.16 233.391 2029.21 234.398 L2030.88 231.658 Q2031.25 231.025 2031.6 231.025 Q2031.98 231.025 2032.05 231.26 Q2032.14 231.47 2032.14 232.173 L2032.14 241.823 Q2032.14 242.362 2032.12 242.549 Q2032.1 242.737 2031.93 242.854 Q2031.79 242.971 2031.51 242.971 Q2031.04 242.971 2030.92 242.409 Q2029.59 232.384 2021.58 232.384 Q2018.84 232.384 2017.03 234.234 Q2015.25 236.061 2015.25 238.661 Q2015.25 240.769 2016.57 242.502 Q2017.88 244.212 2020.1 244.751 L2026.24 246.227 Q2029.31 246.953 2031.37 249.67 Q2033.43 252.387 2033.43 255.923 Q2033.43 259.999 2030.76 262.95 Q2028.11 265.901 2023.97 265.901 Q2020.99 265.901 2018.7 264.918 Q2016.4 263.934 2015.16 262.552 Q2014.2 264.145 2013.57 265.035 L2013.43 265.269 Q2013.05 265.901 2012.7 265.901 Q2012.33 265.901 2012.26 265.667 Q2012.19 265.433 2012.19 264.754 Z" fill="#000000" fill-rule="nonzero" fill-opacity="1" /><path clip-path="url(#clip140)" d="M2045.56 260.819 Q2040.65 255.736 2040.65 248.452 Q2040.65 241.144 2045.61 236.085 Q2050.58 231.025 2057.32 231.025 Q2059.01 231.025 2060.44 231.424 Q2061.89 231.798 2063.04 232.571 Q2064.19 233.321 2064.77 233.836 Q2065.38 234.328 2066.2 235.148 L2068.61 231.611 Q2068.99 231.025 2069.36 231.025 Q2069.76 231.025 2069.83 231.26 Q2069.9 231.47 2069.9 232.173 L2069.9 243.556 Q2069.9 244.329 2069.81 244.517 Q2069.71 244.704 2069.13 244.704 Q2068.66 244.704 2068.57 244.564 Q2068.47 244.423 2068.35 243.884 Q2067.63 238.708 2064.72 235.616 Q2061.84 232.524 2057.91 232.524 Q2056.76 232.524 2055.47 232.782 Q2054.21 233.04 2052.33 234.023 Q2050.48 235.007 2049.05 236.623 Q2047.65 238.216 2046.62 241.308 Q2045.59 244.376 2045.59 248.452 Q2045.59 252.48 2046.62 255.572 Q2047.65 258.664 2049.08 260.28 Q2050.53 261.873 2052.4 262.88 Q2054.3 263.887 2055.64 264.168 Q2056.99 264.426 2058.19 264.426 Q2059.01 264.426 2059.97 264.262 Q2060.93 264.074 2062.36 263.559 Q2063.81 263.02 2064.72 261.756 Q2065.64 260.491 2065.64 258.617 L2065.64 255.549 Q2065.64 254.12 2064.93 253.675 Q2064.23 253.23 2061.16 253.23 L2059.64 253.23 L2059.64 251.754 Q2061.37 251.895 2067.35 251.895 Q2067.89 251.895 2073.2 251.754 L2073.2 253.23 Q2070.91 253.23 2070.39 253.581 Q2069.9 253.909 2069.9 255.338 L2069.9 263.7 Q2069.9 264.801 2069.48 264.801 Q2069.1 264.801 2067.98 263.723 Q2066.88 262.646 2066.39 261.826 Q2065.24 263.84 2062.73 264.871 Q2060.25 265.901 2057.42 265.901 Q2050.51 265.901 2045.56 260.819 Z" fill="#000000" fill-rule="nonzero" fill-opacity="1" /><path clip-path="url(#clip140)" d="M2077.49 264.847 L2077.49 263.372 Q2079.22 263.372 2080.32 263.044 Q2081.42 262.693 2081.82 262.06 Q2082.24 261.404 2082.34 260.983 Q2082.43 260.538 2082.43 259.812 L2082.43 235.827 Q2082.43 234.445 2081.82 234.023 Q2081.23 233.578 2078.63 233.578 L2077.49 233.578 L2077.49 232.079 L2085.59 232.079 Q2086.46 232.079 2086.69 232.243 Q2086.93 232.384 2087.28 233.133 L2097.68 259.999 L2108.17 232.993 Q2108.4 232.314 2108.62 232.196 Q2108.85 232.079 2109.76 232.079 L2117.87 232.079 L2117.87 233.578 L2116.72 233.578 Q2114.12 233.578 2113.51 234.023 Q2112.93 234.445 2112.93 235.827 L2112.93 261.1 Q2112.93 262.482 2113.51 262.927 Q2114.12 263.372 2116.72 263.372 L2117.87 263.372 L2117.87 264.847 Q2116.09 264.707 2111 264.707 Q2105.87 264.707 2104.09 264.847 L2104.09 263.372 L2105.27 263.372 Q2107.87 263.372 2108.45 262.95 Q2109.04 262.505 2109.04 261.1 L2109.04 233.578 L2108.99 233.578 L2097.21 263.934 Q2096.88 264.847 2096.34 264.847 Q2095.76 264.847 2095.38 263.793 L2083.81 233.953 L2083.76 233.953 L2083.76 259.812 Q2083.76 260.538 2083.86 260.983 Q2083.95 261.404 2084.35 262.06 Q2084.77 262.693 2085.87 263.044 Q2086.97 263.372 2088.71 263.372 L2088.71 264.847 Q2083.67 264.707 2083.08 264.707 Q2082.52 264.707 2077.49 264.847 Z" fill="#000000" fill-rule="nonzero" fill-opacity="1" /></svg>
