<?xml version="1.0" encoding="utf-8"?>
<svg xmlns="http://www.w3.org/2000/svg" xmlns:xlink="http://www.w3.org/1999/xlink" width="600" height="400" viewBox="0 0 2400 1600">
<defs>
  <clipPath id="clip820">
    <rect x="0" y="0" width="2400" height="1600"/>
  </clipPath>
</defs>
<path clip-path="url(#clip820)" d="M0 1600 L2400 1600 L2400 8.88178e-14 L0 8.88178e-14  Z" fill="#ffffff" fill-rule="evenodd" fill-opacity="1"/>
<defs>
  <clipPath id="clip821">
    <rect x="480" y="0" width="1681" height="1600"/>
  </clipPath>
</defs>
<path clip-path="url(#clip820)" d="M276.876 1423.18 L2352.76 1423.18 L2352.76 47.2441 L276.876 47.2441  Z" fill="#ffffff" fill-rule="evenodd" fill-opacity="1"/>
<defs>
  <clipPath id="clip822">
    <rect x="276" y="47" width="2077" height="1377"/>
  </clipPath>
</defs>
<polyline clip-path="url(#clip822)" style="stroke:#000000; stroke-linecap:round; stroke-linejoin:round; stroke-width:2; stroke-opacity:0.1; fill:none" points="622.856,1423.18 622.856,47.2441 "/>
<polyline clip-path="url(#clip822)" style="stroke:#000000; stroke-linecap:round; stroke-linejoin:round; stroke-width:2; stroke-opacity:0.1; fill:none" points="1007.28,1423.18 1007.28,47.2441 "/>
<polyline clip-path="url(#clip822)" style="stroke:#000000; stroke-linecap:round; stroke-linejoin:round; stroke-width:2; stroke-opacity:0.1; fill:none" points="1391.7,1423.18 1391.7,47.2441 "/>
<polyline clip-path="url(#clip822)" style="stroke:#000000; stroke-linecap:round; stroke-linejoin:round; stroke-width:2; stroke-opacity:0.1; fill:none" points="1776.12,1423.18 1776.12,47.2441 "/>
<polyline clip-path="url(#clip822)" style="stroke:#000000; stroke-linecap:round; stroke-linejoin:round; stroke-width:2; stroke-opacity:0.1; fill:none" points="2160.54,1423.18 2160.54,47.2441 "/>
<polyline clip-path="url(#clip822)" style="stroke:#000000; stroke-linecap:round; stroke-linejoin:round; stroke-width:2; stroke-opacity:0.1; fill:none" points="276.876,1191.08 2352.76,1191.08 "/>
<polyline clip-path="url(#clip822)" style="stroke:#000000; stroke-linecap:round; stroke-linejoin:round; stroke-width:2; stroke-opacity:0.1; fill:none" points="276.876,610.838 2352.76,610.838 "/>
<polyline clip-path="url(#clip820)" style="stroke:#000000; stroke-linecap:round; stroke-linejoin:round; stroke-width:4; stroke-opacity:1; fill:none" points="276.876,1423.18 2352.76,1423.18 "/>
<polyline clip-path="url(#clip820)" style="stroke:#000000; stroke-linecap:round; stroke-linejoin:round; stroke-width:4; stroke-opacity:1; fill:none" points="622.856,1423.18 622.856,1404.28 "/>
<polyline clip-path="url(#clip820)" style="stroke:#000000; stroke-linecap:round; stroke-linejoin:round; stroke-width:4; stroke-opacity:1; fill:none" points="1007.28,1423.18 1007.28,1404.28 "/>
<polyline clip-path="url(#clip820)" style="stroke:#000000; stroke-linecap:round; stroke-linejoin:round; stroke-width:4; stroke-opacity:1; fill:none" points="1391.7,1423.18 1391.7,1404.28 "/>
<polyline clip-path="url(#clip820)" style="stroke:#000000; stroke-linecap:round; stroke-linejoin:round; stroke-width:4; stroke-opacity:1; fill:none" points="1776.12,1423.18 1776.12,1404.28 "/>
<polyline clip-path="url(#clip820)" style="stroke:#000000; stroke-linecap:round; stroke-linejoin:round; stroke-width:4; stroke-opacity:1; fill:none" points="2160.54,1423.18 2160.54,1404.28 "/>
<path clip-path="url(#clip820)" d="M597.543 1481.64 L605.182 1481.64 L605.182 1455.28 L596.872 1456.95 L596.872 1452.69 L605.136 1451.02 L609.812 1451.02 L609.812 1481.64 L617.451 1481.64 L617.451 1485.58 L597.543 1485.58 L597.543 1481.64 Z" fill="#000000" fill-rule="nonzero" fill-opacity="1" /><path clip-path="url(#clip820)" d="M636.895 1454.1 Q633.284 1454.1 631.455 1457.66 Q629.65 1461.2 629.65 1468.33 Q629.65 1475.44 631.455 1479.01 Q633.284 1482.55 636.895 1482.55 Q640.529 1482.55 642.335 1479.01 Q644.163 1475.44 644.163 1468.33 Q644.163 1461.2 642.335 1457.66 Q640.529 1454.1 636.895 1454.1 M636.895 1450.39 Q642.705 1450.39 645.761 1455 Q648.839 1459.58 648.839 1468.33 Q648.839 1477.06 645.761 1481.67 Q642.705 1486.25 636.895 1486.25 Q631.085 1486.25 628.006 1481.67 Q624.95 1477.06 624.95 1468.33 Q624.95 1459.58 628.006 1455 Q631.085 1450.39 636.895 1450.39 Z" fill="#000000" fill-rule="nonzero" fill-opacity="1" /><path clip-path="url(#clip820)" d="M986.051 1481.64 L1002.37 1481.64 L1002.37 1485.58 L980.426 1485.58 L980.426 1481.64 Q983.088 1478.89 987.671 1474.26 Q992.278 1469.61 993.459 1468.27 Q995.704 1465.74 996.583 1464.01 Q997.486 1462.25 997.486 1460.56 Q997.486 1457.8 995.542 1456.07 Q993.621 1454.33 990.519 1454.33 Q988.32 1454.33 985.866 1455.09 Q983.435 1455.86 980.658 1457.41 L980.658 1452.69 Q983.482 1451.55 985.935 1450.97 Q988.389 1450.39 990.426 1450.39 Q995.796 1450.39 998.991 1453.08 Q1002.19 1455.77 1002.19 1460.26 Q1002.19 1462.39 1001.38 1464.31 Q1000.59 1466.2 998.482 1468.8 Q997.903 1469.47 994.801 1472.69 Q991.699 1475.88 986.051 1481.64 Z" fill="#000000" fill-rule="nonzero" fill-opacity="1" /><path clip-path="url(#clip820)" d="M1022.19 1454.1 Q1018.57 1454.1 1016.75 1457.66 Q1014.94 1461.2 1014.94 1468.33 Q1014.94 1475.44 1016.75 1479.01 Q1018.57 1482.55 1022.19 1482.55 Q1025.82 1482.55 1027.62 1479.01 Q1029.45 1475.44 1029.45 1468.33 Q1029.45 1461.2 1027.62 1457.66 Q1025.82 1454.1 1022.19 1454.1 M1022.19 1450.39 Q1028 1450.39 1031.05 1455 Q1034.13 1459.58 1034.13 1468.33 Q1034.13 1477.06 1031.05 1481.67 Q1028 1486.25 1022.19 1486.25 Q1016.38 1486.25 1013.3 1481.67 Q1010.24 1477.06 1010.24 1468.33 Q1010.24 1459.58 1013.3 1455 Q1016.38 1450.39 1022.19 1450.39 Z" fill="#000000" fill-rule="nonzero" fill-opacity="1" /><path clip-path="url(#clip820)" d="M1380.54 1466.95 Q1383.9 1467.66 1385.77 1469.93 Q1387.67 1472.2 1387.67 1475.53 Q1387.67 1480.65 1384.15 1483.45 Q1380.64 1486.25 1374.15 1486.25 Q1371.98 1486.25 1369.66 1485.81 Q1367.37 1485.39 1364.92 1484.54 L1364.92 1480.02 Q1366.86 1481.16 1369.18 1481.74 Q1371.49 1482.32 1374.02 1482.32 Q1378.41 1482.32 1380.7 1480.58 Q1383.02 1478.84 1383.02 1475.53 Q1383.02 1472.48 1380.87 1470.77 Q1378.74 1469.03 1374.92 1469.03 L1370.89 1469.03 L1370.89 1465.19 L1375.1 1465.19 Q1378.55 1465.19 1380.38 1463.82 Q1382.21 1462.43 1382.21 1459.84 Q1382.21 1457.18 1380.31 1455.77 Q1378.44 1454.33 1374.92 1454.33 Q1373 1454.33 1370.8 1454.75 Q1368.6 1455.16 1365.96 1456.04 L1365.96 1451.88 Q1368.62 1451.14 1370.94 1450.77 Q1373.27 1450.39 1375.33 1450.39 Q1380.66 1450.39 1383.76 1452.83 Q1386.86 1455.23 1386.86 1459.35 Q1386.86 1462.22 1385.22 1464.21 Q1383.58 1466.18 1380.54 1466.95 Z" fill="#000000" fill-rule="nonzero" fill-opacity="1" /><path clip-path="url(#clip820)" d="M1406.54 1454.1 Q1402.93 1454.1 1401.1 1457.66 Q1399.29 1461.2 1399.29 1468.33 Q1399.29 1475.44 1401.1 1479.01 Q1402.93 1482.55 1406.54 1482.55 Q1410.17 1482.55 1411.98 1479.01 Q1413.81 1475.44 1413.81 1468.33 Q1413.81 1461.2 1411.98 1457.66 Q1410.17 1454.1 1406.54 1454.1 M1406.54 1450.39 Q1412.35 1450.39 1415.4 1455 Q1418.48 1459.58 1418.48 1468.33 Q1418.48 1477.06 1415.4 1481.67 Q1412.35 1486.25 1406.54 1486.25 Q1400.73 1486.25 1397.65 1481.67 Q1394.59 1477.06 1394.59 1468.33 Q1394.59 1459.58 1397.65 1455 Q1400.73 1450.39 1406.54 1450.39 Z" fill="#000000" fill-rule="nonzero" fill-opacity="1" /><path clip-path="url(#clip820)" d="M1764.29 1455.09 L1752.49 1473.54 L1764.29 1473.54 L1764.29 1455.09 M1763.07 1451.02 L1768.95 1451.02 L1768.95 1473.54 L1773.88 1473.54 L1773.88 1477.43 L1768.95 1477.43 L1768.95 1485.58 L1764.29 1485.58 L1764.29 1477.43 L1748.69 1477.43 L1748.69 1472.92 L1763.07 1451.02 Z" fill="#000000" fill-rule="nonzero" fill-opacity="1" /><path clip-path="url(#clip820)" d="M1791.61 1454.1 Q1788 1454.1 1786.17 1457.66 Q1784.36 1461.2 1784.36 1468.33 Q1784.36 1475.44 1786.17 1479.01 Q1788 1482.55 1791.61 1482.55 Q1795.24 1482.55 1797.05 1479.01 Q1798.88 1475.44 1798.88 1468.33 Q1798.88 1461.2 1797.05 1457.66 Q1795.24 1454.1 1791.61 1454.1 M1791.61 1450.39 Q1797.42 1450.39 1800.47 1455 Q1803.55 1459.58 1803.55 1468.33 Q1803.55 1477.06 1800.47 1481.67 Q1797.42 1486.25 1791.61 1486.25 Q1785.8 1486.25 1782.72 1481.67 Q1779.66 1477.06 1779.66 1468.33 Q1779.66 1459.58 1782.72 1455 Q1785.8 1450.39 1791.61 1450.39 Z" fill="#000000" fill-rule="nonzero" fill-opacity="1" /><path clip-path="url(#clip820)" d="M2135.24 1451.02 L2153.6 1451.02 L2153.6 1454.96 L2139.53 1454.96 L2139.53 1463.43 Q2140.54 1463.08 2141.56 1462.92 Q2142.58 1462.73 2143.6 1462.73 Q2149.39 1462.73 2152.77 1465.9 Q2156.15 1469.08 2156.15 1474.49 Q2156.15 1480.07 2152.67 1483.17 Q2149.2 1486.25 2142.88 1486.25 Q2140.71 1486.25 2138.44 1485.88 Q2136.19 1485.51 2133.79 1484.77 L2133.79 1480.07 Q2135.87 1481.2 2138.09 1481.76 Q2140.31 1482.32 2142.79 1482.32 Q2146.79 1482.32 2149.13 1480.21 Q2151.47 1478.1 2151.47 1474.49 Q2151.47 1470.88 2149.13 1468.77 Q2146.79 1466.67 2142.79 1466.67 Q2140.92 1466.67 2139.04 1467.08 Q2137.19 1467.5 2135.24 1468.38 L2135.24 1451.02 Z" fill="#000000" fill-rule="nonzero" fill-opacity="1" /><path clip-path="url(#clip820)" d="M2175.36 1454.1 Q2171.75 1454.1 2169.92 1457.66 Q2168.11 1461.2 2168.11 1468.33 Q2168.11 1475.44 2169.92 1479.01 Q2171.75 1482.55 2175.36 1482.55 Q2178.99 1482.55 2180.8 1479.01 Q2182.63 1475.44 2182.63 1468.33 Q2182.63 1461.2 2180.8 1457.66 Q2178.99 1454.1 2175.36 1454.1 M2175.36 1450.39 Q2181.17 1450.39 2184.23 1455 Q2187.3 1459.58 2187.3 1468.33 Q2187.3 1477.06 2184.23 1481.67 Q2181.17 1486.25 2175.36 1486.25 Q2169.55 1486.25 2166.47 1481.67 Q2163.42 1477.06 2163.42 1468.33 Q2163.42 1459.58 2166.47 1455 Q2169.55 1450.39 2175.36 1450.39 Z" fill="#000000" fill-rule="nonzero" fill-opacity="1" /><path clip-path="url(#clip820)" d="M1146.61 1539.49 Q1146.61 1529.41 1153.06 1522.39 Q1159.53 1515.34 1168.51 1515.34 Q1177.56 1515.34 1184.01 1522.39 Q1190.48 1529.45 1190.48 1539.49 Q1190.48 1549.45 1184.01 1556.37 Q1177.53 1563.29 1168.51 1563.29 Q1159.63 1563.29 1153.12 1556.4 Q1146.61 1549.51 1146.61 1539.49 M1153.41 1538.56 Q1153.41 1544.68 1154.86 1549.38 Q1156.31 1554.05 1158.63 1556.59 Q1160.98 1559.14 1163.49 1560.36 Q1166 1561.59 1168.58 1561.59 Q1171.09 1561.59 1173.54 1560.4 Q1176.02 1559.2 1178.37 1556.69 Q1180.72 1554.18 1182.2 1549.48 Q1183.68 1544.78 1183.68 1538.56 Q1183.68 1533.73 1182.65 1529.86 Q1181.62 1525.97 1180.01 1523.62 Q1178.4 1521.26 1176.31 1519.72 Q1174.25 1518.17 1172.28 1517.59 Q1170.35 1516.98 1168.51 1516.98 Q1166.2 1516.98 1163.78 1518.01 Q1161.36 1519.04 1158.92 1521.33 Q1156.5 1523.58 1154.96 1528.06 Q1153.41 1532.5 1153.41 1538.56 Z" fill="#000000" fill-rule="nonzero" fill-opacity="1" /><path clip-path="url(#clip820)" d="M1198.16 1561.84 L1198.16 1559.82 Q1201.67 1559.82 1202.47 1559.4 Q1203.31 1558.95 1203.31 1556.82 L1203.31 1539.14 Q1203.31 1536.69 1202.44 1536.08 Q1201.6 1535.47 1198.16 1535.47 L1198.16 1533.41 L1207.34 1532.7 L1207.34 1539.94 Q1208.27 1537.11 1210.23 1534.92 Q1212.23 1532.7 1215.45 1532.7 Q1217.58 1532.7 1218.93 1533.89 Q1220.31 1535.08 1220.31 1536.72 Q1220.31 1538.17 1219.41 1538.91 Q1218.54 1539.62 1217.48 1539.62 Q1216.29 1539.62 1215.45 1538.88 Q1214.65 1538.11 1214.65 1536.79 Q1214.65 1535.98 1215 1535.37 Q1215.39 1534.73 1215.68 1534.5 Q1215.97 1534.28 1216.16 1534.21 Q1216.03 1534.15 1215.45 1534.15 Q1211.81 1534.15 1209.72 1537.79 Q1207.66 1541.39 1207.66 1546.55 L1207.66 1556.69 Q1207.66 1558.59 1208.43 1559.2 Q1209.24 1559.82 1212.68 1559.82 L1214.07 1559.82 L1214.07 1561.84 Q1211.43 1561.65 1205.69 1561.65 Q1204.89 1561.65 1203.63 1561.68 Q1202.38 1561.72 1200.73 1561.78 Q1199.09 1561.84 1198.16 1561.84 Z" fill="#000000" fill-rule="nonzero" fill-opacity="1" /><path clip-path="url(#clip820)" d="M1225.72 1555.56 Q1225.72 1549.96 1232.32 1547 Q1236.28 1545.1 1244.46 1544.61 L1244.46 1542.2 Q1244.46 1538.11 1242.3 1535.95 Q1240.18 1533.76 1237.47 1533.76 Q1232.64 1533.76 1230.32 1536.79 Q1232.29 1536.85 1233 1537.85 Q1233.71 1538.82 1233.71 1539.82 Q1233.71 1541.14 1232.87 1542.01 Q1232.06 1542.84 1230.68 1542.84 Q1229.36 1542.84 1228.49 1542.04 Q1227.62 1541.2 1227.62 1539.75 Q1227.62 1536.53 1230.52 1534.4 Q1233.45 1532.28 1237.6 1532.28 Q1243.01 1532.28 1246.62 1535.92 Q1247.75 1537.05 1248.29 1538.5 Q1248.87 1539.94 1248.94 1540.91 Q1249 1541.84 1249 1543.71 L1249 1556.88 Q1249 1557.27 1249.13 1557.92 Q1249.26 1558.56 1249.84 1559.4 Q1250.45 1560.2 1251.45 1560.2 Q1253.83 1560.2 1253.8 1555.98 L1253.8 1552.28 L1255.48 1552.28 L1255.48 1555.98 Q1255.48 1559.49 1253.61 1560.88 Q1251.77 1562.23 1250.07 1562.23 Q1247.88 1562.23 1246.49 1560.62 Q1245.11 1559.01 1244.91 1556.82 Q1243.91 1559.33 1241.63 1560.97 Q1239.37 1562.59 1236.28 1562.59 Q1233.9 1562.59 1231.64 1561.97 Q1229.42 1561.39 1227.55 1559.75 Q1225.72 1558.08 1225.72 1555.56 M1230.81 1555.5 Q1230.81 1557.95 1232.55 1559.53 Q1234.29 1561.1 1236.73 1561.1 Q1239.5 1561.1 1241.98 1558.98 Q1244.46 1556.82 1244.46 1552.6 L1244.46 1546 Q1237.15 1546.26 1233.96 1549.19 Q1230.81 1552.09 1230.81 1555.5 Z" fill="#000000" fill-rule="nonzero" fill-opacity="1" /><path clip-path="url(#clip820)" d="M1262.57 1558.24 Q1258.38 1553.86 1258.38 1547.61 Q1258.38 1541.33 1262.5 1536.82 Q1266.63 1532.28 1272.68 1532.28 Q1276.71 1532.28 1279.73 1534.21 Q1282.76 1536.11 1282.76 1539.36 Q1282.76 1540.81 1281.89 1541.65 Q1281.06 1542.46 1279.73 1542.46 Q1278.35 1542.46 1277.51 1541.62 Q1276.71 1540.75 1276.71 1539.43 Q1276.71 1538.85 1276.9 1538.27 Q1277.09 1537.69 1277.8 1537.08 Q1278.54 1536.47 1279.8 1536.37 Q1277.45 1533.95 1272.88 1533.95 Q1272.81 1533.95 1272.75 1533.95 Q1269.4 1533.95 1266.63 1537.11 Q1263.86 1540.27 1263.86 1547.48 Q1263.86 1551.25 1264.76 1554.02 Q1265.69 1556.76 1267.21 1558.17 Q1268.72 1559.59 1270.2 1560.27 Q1271.68 1560.91 1273.13 1560.91 Q1279.61 1560.91 1281.8 1553.99 Q1281.99 1553.34 1282.63 1553.34 Q1283.5 1553.34 1283.5 1553.99 Q1283.5 1554.31 1283.25 1555.15 Q1282.99 1555.98 1282.18 1557.3 Q1281.38 1558.62 1280.22 1559.78 Q1279.09 1560.91 1277.06 1561.75 Q1275.07 1562.59 1272.55 1562.59 Q1266.76 1562.59 1262.57 1558.24 Z" fill="#000000" fill-rule="nonzero" fill-opacity="1" /><path clip-path="url(#clip820)" d="M1286.85 1561.84 L1286.85 1559.82 Q1290.36 1559.82 1291.17 1559.4 Q1291.97 1558.95 1291.97 1556.82 L1291.97 1522.52 Q1291.97 1520.07 1291.1 1519.46 Q1290.26 1518.85 1286.85 1518.85 L1286.85 1516.79 L1296.32 1516.08 L1296.32 1556.82 Q1296.32 1558.95 1297.16 1559.4 Q1297.99 1559.82 1301.47 1559.82 L1301.47 1561.84 Q1300.67 1561.84 1298.99 1561.78 Q1297.32 1561.72 1296.09 1561.68 Q1294.87 1561.65 1294.16 1561.65 Q1293.39 1561.65 1286.85 1561.84 Z" fill="#000000" fill-rule="nonzero" fill-opacity="1" /><path clip-path="url(#clip820)" d="M1305.73 1547.32 Q1305.73 1541.1 1309.72 1536.69 Q1313.72 1532.28 1319.45 1532.28 Q1325.25 1532.28 1328.24 1536.05 Q1331.27 1539.82 1331.27 1545.23 Q1331.27 1546.22 1331.01 1546.42 Q1330.75 1546.61 1329.63 1546.61 L1311.2 1546.61 Q1311.2 1553.34 1313.2 1556.5 Q1315.97 1560.91 1320.64 1560.91 Q1321.28 1560.91 1322.06 1560.78 Q1322.83 1560.65 1324.41 1560.11 Q1325.99 1559.53 1327.37 1558.01 Q1328.76 1556.5 1329.56 1554.11 Q1329.75 1553.18 1330.4 1553.21 Q1331.27 1553.21 1331.27 1553.99 Q1331.27 1554.57 1330.62 1555.89 Q1330.01 1557.17 1328.82 1558.72 Q1327.63 1560.27 1325.31 1561.43 Q1323.02 1562.59 1320.25 1562.59 Q1314.46 1562.59 1310.08 1558.21 Q1305.73 1553.79 1305.73 1547.32 M1311.27 1545.23 L1326.92 1545.23 Q1326.92 1543.84 1326.66 1542.3 Q1326.44 1540.75 1325.73 1538.62 Q1325.05 1536.47 1323.44 1535.11 Q1321.83 1533.76 1319.45 1533.76 Q1318.39 1533.76 1317.23 1534.21 Q1316.1 1534.66 1314.71 1535.76 Q1313.33 1536.85 1312.36 1539.33 Q1311.4 1541.81 1311.27 1545.23 Z" fill="#000000" fill-rule="nonzero" fill-opacity="1" /><path clip-path="url(#clip820)" d="M1334.72 1539.3 Q1334.72 1529.35 1341.52 1522.36 Q1348.32 1515.34 1357.65 1515.34 Q1360.55 1515.34 1363.13 1516.4 Q1365.71 1517.46 1366.9 1518.4 Q1368.09 1519.3 1369.8 1521.01 L1373.11 1516.14 Q1373.63 1515.34 1374.14 1515.34 Q1374.69 1515.34 1374.79 1515.66 Q1374.88 1515.95 1374.88 1516.92 L1374.88 1532.57 Q1374.88 1533.63 1374.76 1533.89 Q1374.63 1534.15 1373.82 1534.15 Q1373.18 1534.15 1373.02 1533.95 Q1372.89 1533.76 1372.76 1533.02 Q1371.76 1525.9 1367.8 1521.65 Q1363.87 1517.4 1358.4 1517.4 Q1356.82 1517.4 1355.05 1517.75 Q1353.31 1518.11 1350.76 1519.46 Q1348.25 1520.81 1346.29 1523.07 Q1344.35 1525.29 1342.94 1529.54 Q1341.52 1533.76 1341.52 1539.36 Q1341.52 1544.9 1342.94 1549.16 Q1344.35 1553.41 1346.29 1555.63 Q1348.25 1557.82 1350.76 1559.17 Q1353.31 1560.52 1355.08 1560.91 Q1356.88 1561.26 1358.46 1561.26 Q1364.13 1561.26 1368.48 1557.24 Q1372.82 1553.21 1373.24 1546.42 Q1373.31 1546.1 1373.31 1545.97 Q1373.31 1545.81 1373.37 1545.64 Q1373.44 1545.48 1373.6 1545.42 Q1373.76 1545.35 1374.02 1545.35 Q1374.88 1545.35 1374.88 1546.48 Q1374.88 1552.76 1370.05 1558.04 Q1365.26 1563.29 1357.65 1563.29 Q1348.28 1563.29 1341.49 1556.34 Q1334.72 1549.38 1334.72 1539.3 Z" fill="#000000" fill-rule="nonzero" fill-opacity="1" /><path clip-path="url(#clip820)" d="M1387.15 1555.56 Q1387.15 1549.96 1393.75 1547 Q1397.71 1545.1 1405.89 1544.61 L1405.89 1542.2 Q1405.89 1538.11 1403.74 1535.95 Q1401.61 1533.76 1398.91 1533.76 Q1394.07 1533.76 1391.76 1536.79 Q1393.72 1536.85 1394.43 1537.85 Q1395.14 1538.82 1395.14 1539.82 Q1395.14 1541.14 1394.3 1542.01 Q1393.49 1542.84 1392.11 1542.84 Q1390.79 1542.84 1389.92 1542.04 Q1389.05 1541.2 1389.05 1539.75 Q1389.05 1536.53 1391.95 1534.4 Q1394.88 1532.28 1399.03 1532.28 Q1404.44 1532.28 1408.05 1535.92 Q1409.18 1537.05 1409.73 1538.5 Q1410.31 1539.94 1410.37 1540.91 Q1410.44 1541.84 1410.44 1543.71 L1410.44 1556.88 Q1410.44 1557.27 1410.56 1557.92 Q1410.69 1558.56 1411.27 1559.4 Q1411.88 1560.2 1412.88 1560.2 Q1415.27 1560.2 1415.23 1555.98 L1415.23 1552.28 L1416.91 1552.28 L1416.91 1555.98 Q1416.91 1559.49 1415.04 1560.88 Q1413.2 1562.23 1411.5 1562.23 Q1409.31 1562.23 1407.92 1560.62 Q1406.54 1559.01 1406.34 1556.82 Q1405.35 1559.33 1403.06 1560.97 Q1400.81 1562.59 1397.71 1562.59 Q1395.33 1562.59 1393.08 1561.97 Q1390.85 1561.39 1388.99 1559.75 Q1387.15 1558.08 1387.15 1555.56 M1392.24 1555.5 Q1392.24 1557.95 1393.98 1559.53 Q1395.72 1561.1 1398.16 1561.1 Q1400.93 1561.1 1403.41 1558.98 Q1405.89 1556.82 1405.89 1552.6 L1405.89 1546 Q1398.58 1546.26 1395.39 1549.19 Q1392.24 1552.09 1392.24 1555.5 Z" fill="#000000" fill-rule="nonzero" fill-opacity="1" /><path clip-path="url(#clip820)" d="M1419.55 1561.84 L1419.55 1559.82 Q1423.06 1559.82 1423.87 1559.4 Q1424.67 1558.95 1424.67 1556.82 L1424.67 1522.52 Q1424.67 1520.07 1423.8 1519.46 Q1422.96 1518.85 1419.55 1518.85 L1419.55 1516.79 L1429.02 1516.08 L1429.02 1556.82 Q1429.02 1558.95 1429.86 1559.4 Q1430.69 1559.82 1434.17 1559.82 L1434.17 1561.84 Q1433.37 1561.84 1431.69 1561.78 Q1430.02 1561.72 1428.79 1561.68 Q1427.57 1561.65 1426.86 1561.65 Q1426.09 1561.65 1419.55 1561.84 Z" fill="#000000" fill-rule="nonzero" fill-opacity="1" /><path clip-path="url(#clip820)" d="M1438.43 1561.84 L1438.43 1559.82 Q1441.94 1559.82 1442.74 1559.4 Q1443.55 1558.95 1443.55 1556.82 L1443.55 1522.52 Q1443.55 1520.07 1442.68 1519.46 Q1441.84 1518.85 1438.43 1518.85 L1438.43 1516.79 L1447.9 1516.08 L1447.9 1556.82 Q1447.9 1558.95 1448.73 1559.4 Q1449.57 1559.82 1453.05 1559.82 L1453.05 1561.84 Q1452.25 1561.84 1450.57 1561.78 Q1448.9 1561.72 1447.67 1561.68 Q1446.45 1561.65 1445.74 1561.65 Q1444.97 1561.65 1438.43 1561.84 Z" fill="#000000" fill-rule="nonzero" fill-opacity="1" /><path clip-path="url(#clip820)" d="M1457.31 1560.97 L1457.31 1552.28 Q1457.31 1551.54 1457.34 1551.28 Q1457.37 1551.02 1457.56 1550.83 Q1457.76 1550.64 1458.14 1550.64 Q1458.6 1550.64 1458.76 1550.83 Q1458.95 1551.02 1459.08 1551.76 Q1460.08 1556.3 1462.2 1558.72 Q1464.36 1561.1 1468.26 1561.1 Q1471.96 1561.1 1473.83 1559.46 Q1475.7 1557.82 1475.7 1555.11 Q1475.7 1550.28 1468.84 1549.06 Q1464.88 1548.25 1463.23 1547.74 Q1461.59 1547.19 1460.14 1546 Q1457.31 1543.68 1457.31 1540.4 Q1457.31 1537.11 1459.79 1534.69 Q1462.3 1532.28 1467.84 1532.28 Q1471.54 1532.28 1474.05 1534.15 Q1474.79 1533.57 1475.18 1533.08 Q1476.05 1532.28 1476.5 1532.28 Q1477.02 1532.28 1477.11 1532.63 Q1477.21 1532.96 1477.21 1533.89 L1477.21 1540.52 Q1477.21 1541.26 1477.18 1541.52 Q1477.15 1541.78 1476.95 1541.97 Q1476.76 1542.13 1476.34 1542.13 Q1475.6 1542.13 1475.57 1541.52 Q1475.05 1533.54 1467.84 1533.54 Q1463.94 1533.54 1462.2 1535.05 Q1460.46 1536.53 1460.46 1538.56 Q1460.46 1539.69 1460.98 1540.56 Q1461.53 1541.39 1462.2 1541.91 Q1462.91 1542.39 1464.2 1542.88 Q1465.49 1543.33 1466.26 1543.49 Q1467.07 1543.65 1468.58 1543.97 Q1473.86 1544.97 1476.08 1547.13 Q1478.85 1549.9 1478.85 1553.41 Q1478.85 1557.3 1476.21 1559.94 Q1473.57 1562.59 1468.26 1562.59 Q1463.97 1562.59 1460.98 1559.72 Q1460.59 1560.11 1460.3 1560.46 Q1460.01 1560.78 1459.88 1560.91 Q1459.79 1561.04 1459.75 1561.14 Q1459.72 1561.2 1459.66 1561.26 Q1458.34 1562.59 1458.02 1562.59 Q1457.5 1562.59 1457.4 1562.23 Q1457.31 1561.91 1457.31 1560.97 Z" fill="#000000" fill-rule="nonzero" fill-opacity="1" /><polyline clip-path="url(#clip820)" style="stroke:#000000; stroke-linecap:round; stroke-linejoin:round; stroke-width:4; stroke-opacity:1; fill:none" points="276.876,1423.18 276.876,47.2441 "/>
<polyline clip-path="url(#clip820)" style="stroke:#000000; stroke-linecap:round; stroke-linejoin:round; stroke-width:4; stroke-opacity:1; fill:none" points="276.876,1191.08 295.773,1191.08 "/>
<polyline clip-path="url(#clip820)" style="stroke:#000000; stroke-linecap:round; stroke-linejoin:round; stroke-width:4; stroke-opacity:1; fill:none" points="276.876,610.838 295.773,610.838 "/>
<path clip-path="url(#clip820)" d="M114.931 1210.87 L122.57 1210.87 L122.57 1184.51 L114.26 1186.18 L114.26 1181.92 L122.524 1180.25 L127.2 1180.25 L127.2 1210.87 L134.839 1210.87 L134.839 1214.81 L114.931 1214.81 L114.931 1210.87 Z" fill="#000000" fill-rule="nonzero" fill-opacity="1" /><path clip-path="url(#clip820)" d="M154.283 1183.33 Q150.672 1183.33 148.843 1186.89 Q147.038 1190.43 147.038 1197.56 Q147.038 1204.67 148.843 1208.24 Q150.672 1211.78 154.283 1211.78 Q157.917 1211.78 159.723 1208.24 Q161.552 1204.67 161.552 1197.56 Q161.552 1190.43 159.723 1186.89 Q157.917 1183.33 154.283 1183.33 M154.283 1179.62 Q160.093 1179.62 163.149 1184.23 Q166.227 1188.81 166.227 1197.56 Q166.227 1206.29 163.149 1210.9 Q160.093 1215.48 154.283 1215.48 Q148.473 1215.48 145.394 1210.9 Q142.339 1206.29 142.339 1197.56 Q142.339 1188.81 145.394 1184.23 Q148.473 1179.62 154.283 1179.62 Z" fill="#000000" fill-rule="nonzero" fill-opacity="1" /><path clip-path="url(#clip820)" d="M166.227 1173.73 L190.339 1173.73 L190.339 1176.92 L166.227 1176.92 L166.227 1173.73 Z" fill="#000000" fill-rule="nonzero" fill-opacity="1" /><path clip-path="url(#clip820)" d="M199.197 1184.2 L205.404 1184.2 L205.404 1162.78 L198.652 1164.13 L198.652 1160.67 L205.366 1159.32 L209.166 1159.32 L209.166 1184.2 L215.372 1184.2 L215.372 1187.4 L199.197 1187.4 L199.197 1184.2 Z" fill="#000000" fill-rule="nonzero" fill-opacity="1" /><path clip-path="url(#clip820)" d="M231.171 1161.82 Q228.237 1161.82 226.751 1164.72 Q225.284 1167.59 225.284 1173.39 Q225.284 1179.16 226.751 1182.06 Q228.237 1184.94 231.171 1184.94 Q234.124 1184.94 235.591 1182.06 Q237.076 1179.16 237.076 1173.39 Q237.076 1167.59 235.591 1164.72 Q234.124 1161.82 231.171 1161.82 M231.171 1158.81 Q235.891 1158.81 238.374 1162.55 Q240.876 1166.28 240.876 1173.39 Q240.876 1180.48 238.374 1184.22 Q235.891 1187.94 231.171 1187.94 Q226.45 1187.94 223.949 1184.22 Q221.466 1180.48 221.466 1173.39 Q221.466 1166.28 223.949 1162.55 Q226.45 1158.81 231.171 1158.81 Z" fill="#000000" fill-rule="nonzero" fill-opacity="1" /><path clip-path="url(#clip820)" d="M140.247 630.63 L147.886 630.63 L147.886 604.265 L139.575 605.932 L139.575 601.672 L147.839 600.006 L152.515 600.006 L152.515 630.63 L160.154 630.63 L160.154 634.566 L140.247 634.566 L140.247 630.63 Z" fill="#000000" fill-rule="nonzero" fill-opacity="1" /><path clip-path="url(#clip820)" d="M179.598 603.084 Q175.987 603.084 174.159 606.649 Q172.353 610.191 172.353 617.32 Q172.353 624.427 174.159 627.992 Q175.987 631.533 179.598 631.533 Q183.233 631.533 185.038 627.992 Q186.867 624.427 186.867 617.32 Q186.867 610.191 185.038 606.649 Q183.233 603.084 179.598 603.084 M179.598 599.381 Q185.409 599.381 188.464 603.987 Q191.543 608.57 191.543 617.32 Q191.543 626.047 188.464 630.654 Q185.409 635.237 179.598 635.237 Q173.788 635.237 170.71 630.654 Q167.654 626.047 167.654 617.32 Q167.654 608.57 170.71 603.987 Q173.788 599.381 179.598 599.381 Z" fill="#000000" fill-rule="nonzero" fill-opacity="1" /><path clip-path="url(#clip820)" d="M191.543 593.482 L215.654 593.482 L215.654 596.679 L191.543 596.679 L191.543 593.482 Z" fill="#000000" fill-rule="nonzero" fill-opacity="1" /><path clip-path="url(#clip820)" d="M223.892 579.075 L238.807 579.075 L238.807 582.273 L227.372 582.273 L227.372 589.156 Q228.199 588.874 229.027 588.742 Q229.854 588.592 230.682 588.592 Q235.384 588.592 238.13 591.169 Q240.876 593.745 240.876 598.146 Q240.876 602.679 238.054 605.199 Q235.233 607.701 230.099 607.701 Q228.331 607.701 226.488 607.4 Q224.663 607.099 222.707 606.497 L222.707 602.679 Q224.4 603.601 226.205 604.052 Q228.011 604.503 230.023 604.503 Q233.277 604.503 235.177 602.792 Q237.076 601.08 237.076 598.146 Q237.076 595.212 235.177 593.501 Q233.277 591.789 230.023 591.789 Q228.5 591.789 226.977 592.128 Q225.472 592.466 223.892 593.181 L223.892 579.075 Z" fill="#000000" fill-rule="nonzero" fill-opacity="1" /><path clip-path="url(#clip820)" d="M66.0841 1072.66 L64.0551 1072.66 Q64.0551 1070.27 63.6042 1068.76 Q63.1212 1067.25 62.2516 1066.7 Q61.3498 1066.12 60.7701 1065.99 Q60.1582 1065.86 59.1598 1065.86 L26.181 1065.86 Q24.2809 1065.86 23.7012 1066.7 Q23.0893 1067.5 23.0893 1071.08 L23.0893 1072.66 L21.0281 1072.66 L21.0281 1061.51 Q21.0281 1060.32 21.2535 1060 Q21.4468 1059.68 22.4774 1059.19 L59.4175 1044.9 L22.2841 1030.47 Q21.3502 1030.14 21.1891 1029.85 Q21.0281 1029.53 21.0281 1028.28 L21.0281 1017.13 L23.0893 1017.13 L23.0893 1018.71 Q23.0893 1022.29 23.7012 1023.12 Q24.2809 1023.93 26.181 1023.93 L60.9312 1023.93 Q62.8313 1023.93 63.4432 1023.12 Q64.0551 1022.29 64.0551 1018.71 L64.0551 1017.13 L66.0841 1017.13 Q65.8909 1019.58 65.8909 1026.57 Q65.8909 1033.62 66.0841 1036.07 L64.0551 1036.07 L64.0551 1034.46 Q64.0551 1030.89 63.4754 1030.08 Q62.8635 1029.28 60.9312 1029.28 L23.0893 1029.28 L23.0893 1029.34 L64.8281 1045.54 Q66.0841 1045.99 66.0841 1046.73 Q66.0841 1047.54 64.6348 1048.05 L23.6046 1063.96 L23.6046 1064.03 L59.1598 1064.03 Q60.1582 1064.03 60.7701 1063.9 Q61.3498 1063.77 62.2516 1063.22 Q63.1212 1062.64 63.6042 1061.13 Q64.0551 1059.61 64.0551 1057.23 L66.0841 1057.23 Q65.8909 1064.15 65.8909 1064.96 Q65.8909 1065.73 66.0841 1072.66 Z" fill="#000000" fill-rule="nonzero" fill-opacity="1" /><path clip-path="url(#clip820)" d="M66.0841 1006.77 L64.0551 1006.77 Q64.0551 1003.26 63.6364 1002.46 Q63.1856 1001.65 61.06 1001.65 L43.3146 1001.65 Q40.8669 1001.65 40.2872 1002.49 Q39.7075 1003.3 39.7075 1006.52 L37.6463 1006.52 L36.9378 997.306 L61.1244 997.306 Q63.0889 997.306 63.572 996.598 Q64.0551 995.889 64.0551 992.669 L66.0841 992.669 Q65.8909 999.4 65.8909 999.528 Q65.8909 1000.43 66.0841 1006.77 M25.4403 1004.01 Q24.1199 1004.01 23.0571 1003.01 Q21.9621 1001.98 21.9621 1000.53 Q21.9621 999.078 22.9604 998.047 Q23.9266 997.016 25.4725 997.016 Q26.9862 997.016 27.9846 998.047 Q28.9507 999.078 28.9507 1000.53 Q28.9507 1002.04 27.8879 1003.04 Q26.8252 1004.01 25.4403 1004.01 Z" fill="#000000" fill-rule="nonzero" fill-opacity="1" /><path clip-path="url(#clip820)" d="M66.0841 988.16 L64.0551 988.16 Q64.0551 984.65 63.6364 983.845 Q63.1856 983.04 61.06 983.04 L43.379 983.04 Q40.9313 983.04 40.3194 983.909 Q39.7075 984.747 39.7075 988.16 L37.6463 988.16 L36.9378 978.885 L43.8621 978.885 Q36.9378 975.793 36.9378 969.127 Q36.9378 964.167 39.3854 962.202 Q41.0279 960.753 42.8637 960.463 Q44.6994 960.141 49.4659 960.141 L62.0584 960.141 Q63.4432 960.077 63.7653 959.014 Q64.0551 957.951 64.0551 954.988 L66.0841 954.988 Q65.8909 961.719 65.8909 962.396 Q65.8909 962.911 66.0841 969.835 L64.0551 969.835 Q64.0551 966.325 63.6364 965.52 Q63.1856 964.682 61.06 964.682 L45.6978 964.682 Q42.3484 964.682 40.3838 965.713 Q38.3871 966.743 38.3871 969.578 Q38.3871 972.991 41.2534 975.729 Q44.1197 978.466 48.9506 978.466 L61.06 978.466 Q63.1856 978.466 63.6364 977.661 Q64.0551 976.824 64.0551 973.346 L66.0841 973.346 Q65.8909 980.077 65.8909 980.721 Q65.8909 981.236 66.0841 988.16 Z" fill="#000000" fill-rule="nonzero" fill-opacity="1" /><path clip-path="url(#clip820)" d="M66.0841 951.66 L64.0551 951.66 Q64.0551 948.149 63.6364 947.344 Q63.1856 946.539 61.06 946.539 L43.3146 946.539 Q40.8669 946.539 40.2872 947.376 Q39.7075 948.181 39.7075 951.402 L37.6463 951.402 L36.9378 942.191 L61.1244 942.191 Q63.0889 942.191 63.572 941.483 Q64.0551 940.774 64.0551 937.553 L66.0841 937.553 Q65.8909 944.285 65.8909 944.413 Q65.8909 945.315 66.0841 951.66 M25.4403 948.89 Q24.1199 948.89 23.0571 947.892 Q21.9621 946.861 21.9621 945.412 Q21.9621 943.962 22.9604 942.932 Q23.9266 941.901 25.4725 941.901 Q26.9862 941.901 27.9846 942.932 Q28.9507 943.962 28.9507 945.412 Q28.9507 946.925 27.8879 947.924 Q26.8252 948.89 25.4403 948.89 Z" fill="#000000" fill-rule="nonzero" fill-opacity="1" /><path clip-path="url(#clip820)" d="M66.0841 933.045 L64.0551 933.045 Q64.0551 929.535 63.6364 928.73 Q63.1856 927.924 61.06 927.924 L43.379 927.924 Q40.9313 927.924 40.3194 928.794 Q39.7075 929.631 39.7075 933.045 L37.6463 933.045 L36.9378 923.77 L43.8621 923.77 Q36.9378 920.678 36.9378 914.012 Q36.9378 906.282 43.379 905.219 Q40.8669 904.092 38.9023 901.741 Q36.9378 899.358 36.9378 895.654 Q36.9378 890.695 39.3854 888.73 Q41.0279 887.281 42.8637 886.991 Q44.6994 886.701 49.4659 886.701 L62.0584 886.701 Q63.4432 886.637 63.7653 885.574 Q64.0551 884.511 64.0551 881.548 L66.0841 881.548 Q65.8909 888.279 65.8909 888.923 Q65.8909 889.438 66.0841 896.395 L64.0551 896.395 Q64.0551 892.885 63.6364 892.079 Q63.1856 891.242 61.06 891.242 L45.6978 891.242 Q42.3484 891.242 40.3838 892.273 Q38.3871 893.303 38.3871 896.137 Q38.3871 899.551 41.2534 902.289 Q44.1197 905.026 48.9506 905.026 L61.06 905.026 Q63.1856 905.026 63.6364 904.221 Q64.0551 903.384 64.0551 899.873 L66.0841 899.873 Q65.8909 906.604 65.8909 907.281 Q65.8909 907.796 66.0841 914.72 L64.0551 914.72 Q64.0551 911.21 63.6364 910.405 Q63.1856 909.567 61.06 909.567 L45.6978 909.567 Q42.3484 909.567 40.3838 910.598 Q38.3871 911.628 38.3871 914.462 Q38.3871 917.876 41.2534 920.614 Q44.1197 923.351 48.9506 923.351 L61.06 923.351 Q63.1856 923.351 63.6364 922.546 Q64.0551 921.709 64.0551 918.231 L66.0841 918.231 Q65.8909 924.962 65.8909 925.606 Q65.8909 926.121 66.0841 933.045 Z" fill="#000000" fill-rule="nonzero" fill-opacity="1" /><path clip-path="url(#clip820)" d="M39.7075 878.922 L37.6463 878.922 L36.9378 869.228 L58.8378 869.228 Q60.4159 869.228 61.3498 869.1 Q62.2516 868.971 63.3144 868.455 Q64.3772 867.908 64.8603 866.684 Q65.3434 865.428 65.3434 863.431 Q65.3434 859.856 62.4126 857.666 Q59.4819 855.444 55.1341 855.444 L43.379 855.444 Q40.9313 855.444 40.3194 856.314 Q39.7075 857.183 39.7075 860.597 L37.6463 860.597 L36.9378 850.903 L60.3515 850.903 Q62.7991 850.903 63.4432 850.066 Q64.0551 849.196 64.0551 845.75 L66.0841 845.75 L66.8248 855.251 L60.8667 855.251 Q66.7926 858.021 66.8248 863.753 Q66.8248 866.652 66.0841 868.649 Q65.3434 870.613 64.4416 871.612 Q63.5076 872.61 61.7363 873.157 Q59.965 873.673 58.87 873.737 Q57.775 873.802 55.6494 873.802 L45.7622 873.802 Q41.2856 873.802 40.5126 874.446 Q39.7075 875.09 39.7075 878.922 Z" fill="#000000" fill-rule="nonzero" fill-opacity="1" /><path clip-path="url(#clip820)" d="M66.0841 843.478 L64.0551 843.478 Q64.0551 839.967 63.6364 839.162 Q63.1856 838.357 61.06 838.357 L43.379 838.357 Q40.9313 838.357 40.3194 839.226 Q39.7075 840.064 39.7075 843.478 L37.6463 843.478 L36.9378 834.202 L43.8621 834.202 Q36.9378 831.111 36.9378 824.444 Q36.9378 816.715 43.379 815.652 Q40.8669 814.525 38.9023 812.173 Q36.9378 809.79 36.9378 806.087 Q36.9378 801.127 39.3854 799.162 Q41.0279 797.713 42.8637 797.423 Q44.6994 797.133 49.4659 797.133 L62.0584 797.133 Q63.4432 797.069 63.7653 796.006 Q64.0551 794.943 64.0551 791.98 L66.0841 791.98 Q65.8909 798.711 65.8909 799.356 Q65.8909 799.871 66.0841 806.827 L64.0551 806.827 Q64.0551 803.317 63.6364 802.512 Q63.1856 801.674 61.06 801.674 L45.6978 801.674 Q42.3484 801.674 40.3838 802.705 Q38.3871 803.736 38.3871 806.57 Q38.3871 809.984 41.2534 812.721 Q44.1197 815.458 48.9506 815.458 L61.06 815.458 Q63.1856 815.458 63.6364 814.653 Q64.0551 813.816 64.0551 810.306 L66.0841 810.306 Q65.8909 817.037 65.8909 817.713 Q65.8909 818.228 66.0841 825.152 L64.0551 825.152 Q64.0551 821.642 63.6364 820.837 Q63.1856 820 61.06 820 L45.6978 820 Q42.3484 820 40.3838 821.03 Q38.3871 822.061 38.3871 824.895 Q38.3871 828.309 41.2534 831.046 Q44.1197 833.784 48.9506 833.784 L61.06 833.784 Q63.1856 833.784 63.6364 832.978 Q64.0551 832.141 64.0551 828.663 L66.0841 828.663 Q65.8909 835.394 65.8909 836.038 Q65.8909 836.553 66.0841 843.478 Z" fill="#000000" fill-rule="nonzero" fill-opacity="1" /><path clip-path="url(#clip820)" d="M43.7332 788.035 Q33.6528 788.035 26.6319 781.593 Q19.5788 775.12 19.5788 766.135 Q19.5788 757.085 26.6319 750.644 Q33.685 744.17 43.7332 744.17 Q53.6848 744.17 60.6091 750.644 Q67.5334 757.117 67.5334 766.135 Q67.5334 775.023 60.6413 781.529 Q53.7493 788.035 43.7332 788.035 M42.7993 781.239 Q48.9184 781.239 53.6204 779.79 Q58.2903 778.341 60.8345 776.022 Q63.3788 773.671 64.6026 771.159 Q65.8264 768.647 65.8264 766.07 Q65.8264 763.558 64.6348 761.111 Q63.4432 758.631 60.9312 756.28 Q58.4191 753.929 53.717 752.447 Q49.015 750.966 42.7993 750.966 Q37.9684 750.966 34.1037 751.996 Q30.2068 753.027 27.8557 754.637 Q25.5047 756.247 23.9588 758.341 Q22.4129 760.402 21.8332 762.367 Q21.2213 764.299 21.2213 766.135 Q21.2213 768.453 22.2519 770.869 Q23.2825 773.284 25.5691 775.732 Q27.8235 778.147 32.3001 779.693 Q36.7446 781.239 42.7993 781.239 Z" fill="#000000" fill-rule="nonzero" fill-opacity="1" /><path clip-path="url(#clip820)" d="M23.0893 736.492 L21.0281 736.492 L20.3196 726.991 L41.2212 726.991 Q36.9378 723.159 36.9378 717.942 Q36.9378 712.273 41.2856 708.119 Q45.6334 703.964 51.8491 703.964 Q58.1292 703.964 62.477 708.312 Q66.8248 712.66 66.8248 718.682 Q66.8248 724.157 61.994 727.313 Q66.0197 729.632 66.0841 729.697 L66.0841 731.339 L26.7607 731.339 Q24.3131 731.339 23.7012 732.209 Q23.0893 733.078 23.0893 736.492 M58.5801 726.798 Q59.965 726.798 61.3498 725.864 Q65.3434 723.256 65.3434 719.004 Q65.3434 718.972 65.3434 718.94 Q65.3434 714.335 61.1244 711.468 Q57.9682 709.439 51.7847 709.439 Q45.6656 709.439 42.606 711.339 Q38.3871 713.98 38.3871 718.264 Q38.3871 723.095 42.606 726.057 Q43.6688 726.798 44.9893 726.798 L58.5801 726.798 Z" fill="#000000" fill-rule="nonzero" fill-opacity="1" /><path clip-path="url(#clip820)" d="M74.3288 704.215 Q73.0084 704.215 72.1388 703.378 Q71.3014 702.573 71.3014 701.188 Q71.3014 699.803 72.1388 698.998 Q73.0084 698.161 74.3288 698.161 Q75.5204 698.161 76.2611 698.869 Q77.0341 699.546 77.2917 700.447 Q78.1613 698.74 78.1613 696.905 Q78.1613 695.391 77.2595 694.36 Q76.3578 693.33 74.8763 692.879 Q73.3948 692.396 72.1388 692.235 Q70.915 692.074 69.4979 692.074 L43.379 692.074 Q40.9313 692.074 40.3194 693.04 Q39.7075 693.974 39.7075 697.742 L37.6463 697.742 L36.9378 687.726 L69.3691 687.726 Q73.7813 687.726 76.6798 690.367 Q79.6106 693.008 79.6106 696.744 Q79.6106 699.771 78.1935 701.993 Q76.7764 704.215 74.3288 704.215 M27.9524 693.684 Q26.9218 694.715 25.4725 694.715 Q24.0232 694.715 22.9927 693.684 Q21.9621 692.654 21.9621 691.204 Q21.9621 689.755 22.9927 688.724 Q24.0232 687.694 25.4725 687.694 Q26.9218 687.694 27.9524 688.724 Q28.9507 689.755 28.9507 691.204 Q28.9507 692.654 27.9524 693.684 Z" fill="#000000" fill-rule="nonzero" fill-opacity="1" /><path clip-path="url(#clip820)" d="M51.5593 676.919 Q45.3435 676.919 40.9313 672.925 Q36.5191 668.932 36.5191 663.199 Q36.5191 657.402 40.2872 654.407 Q44.0553 651.38 49.4659 651.38 Q50.4643 651.38 50.6575 651.637 Q50.8507 651.895 50.8507 653.022 L50.8507 671.444 Q57.5817 671.444 60.7379 669.447 Q65.1501 666.677 65.1501 662.007 Q65.1501 661.363 65.0213 660.59 Q64.8925 659.817 64.345 658.239 Q63.7653 656.661 62.2516 655.276 Q60.7379 653.892 58.3547 653.086 Q57.4207 652.893 57.4529 652.249 Q57.4529 651.38 58.2259 651.38 Q58.8056 651.38 60.126 652.024 Q61.4142 652.636 62.9601 653.827 Q64.506 655.019 65.6654 657.338 Q66.8248 659.624 66.8248 662.394 Q66.8248 668.191 62.4448 672.571 Q58.0326 676.919 51.5593 676.919 M49.4659 671.379 L49.4659 655.727 Q48.081 655.727 46.5351 655.985 Q44.9893 656.21 42.8637 656.919 Q40.7059 657.595 39.3532 659.206 Q38.0006 660.816 38.0006 663.199 Q38.0006 664.262 38.4515 665.421 Q38.9023 666.549 39.9973 667.933 Q41.0923 669.318 43.5722 670.284 Q46.052 671.251 49.4659 671.379 Z" fill="#000000" fill-rule="nonzero" fill-opacity="1" /><path clip-path="url(#clip820)" d="M62.477 643.736 Q58.097 647.923 51.8491 647.923 Q45.569 647.923 41.0601 643.801 Q36.5191 639.678 36.5191 633.624 Q36.5191 629.598 38.4515 626.571 Q40.3516 623.543 43.6044 623.543 Q45.0537 623.543 45.891 624.413 Q46.6962 625.25 46.6962 626.571 Q46.6962 627.955 45.8588 628.793 Q44.9893 629.598 43.6688 629.598 Q43.0891 629.598 42.5094 629.405 Q41.9297 629.211 41.3178 628.503 Q40.7059 627.762 40.6093 626.506 Q38.1938 628.857 38.1938 633.43 Q38.1938 633.495 38.1938 633.559 Q38.1938 636.909 41.35 639.678 Q44.5062 642.448 51.7203 642.448 Q55.4884 642.448 58.2581 641.546 Q60.9956 640.612 62.4126 639.099 Q63.8297 637.585 64.506 636.104 Q65.1501 634.622 65.1501 633.173 Q65.1501 626.699 58.2259 624.509 Q57.5817 624.316 57.5817 623.672 Q57.5817 622.803 58.2259 622.803 Q58.5479 622.803 59.3853 623.06 Q60.2226 623.318 61.5431 624.123 Q62.8635 624.928 64.0229 626.088 Q65.1501 627.215 65.9875 629.244 Q66.8248 631.24 66.8248 633.752 Q66.8248 639.55 62.477 643.736 Z" fill="#000000" fill-rule="nonzero" fill-opacity="1" /><path clip-path="url(#clip820)" d="M39.7075 620.511 L38.2582 620.511 Q38.1294 617.484 36.0038 615.487 Q33.846 613.458 31.2051 612.782 Q28.5643 612.073 25.5047 612.009 L25.5047 610.367 L37.6463 610.367 L37.6463 600.93 L39.7075 600.93 L39.7075 610.367 L58.0326 610.367 Q65.1501 610.367 65.1501 605.922 Q65.1501 604.022 63.2178 602.766 Q61.2532 601.51 57.775 601.51 L54.1357 601.51 L54.1357 599.867 L57.9038 599.867 Q61.4787 599.867 64.1517 601.51 Q66.8248 603.152 66.8248 606.405 Q66.8248 607.597 66.5028 608.788 Q66.2129 609.948 65.44 611.494 Q64.6348 613.007 62.7025 613.974 Q60.7379 614.908 57.9038 614.908 L39.7075 614.908 L39.7075 620.511 Z" fill="#000000" fill-rule="nonzero" fill-opacity="1" /><path clip-path="url(#clip820)" d="M66.0841 595.976 L64.0551 595.976 Q64.0551 592.466 63.6364 591.66 Q63.1856 590.855 61.06 590.855 L43.3146 590.855 Q40.8669 590.855 40.2872 591.693 Q39.7075 592.498 39.7075 595.718 L37.6463 595.718 L36.9378 586.507 L61.1244 586.507 Q63.0889 586.507 63.572 585.799 Q64.0551 585.09 64.0551 581.87 L66.0841 581.87 Q65.8909 588.601 65.8909 588.73 Q65.8909 589.631 66.0841 595.976 M25.4403 593.206 Q24.1199 593.206 23.0571 592.208 Q21.9621 591.177 21.9621 589.728 Q21.9621 588.279 22.9604 587.248 Q23.9266 586.218 25.4725 586.218 Q26.9862 586.218 27.9846 587.248 Q28.9507 588.279 28.9507 589.728 Q28.9507 591.242 27.8879 592.24 Q26.8252 593.206 25.4403 593.206 Z" fill="#000000" fill-rule="nonzero" fill-opacity="1" /><path clip-path="url(#clip820)" d="M39.7075 577.361 L37.6463 577.361 Q37.8396 574.399 37.8396 570.953 Q37.8396 569.697 37.6463 563.771 L39.7075 563.771 Q39.7075 567.539 41.4144 567.539 Q41.6721 567.539 42.5416 567.152 L60.9312 559.745 L44.1197 553.014 Q42.9925 552.627 42.5416 552.627 Q41.4144 552.627 40.6093 553.4 Q39.7719 554.141 39.7075 555.784 L37.6463 555.784 Q37.8396 552.434 37.8396 550.051 Q37.8396 547.346 37.6463 545.123 L39.7075 545.123 Q39.7075 547.088 40.6093 548.473 Q41.4788 549.858 42.2518 550.309 Q42.9925 550.727 44.1197 551.178 L65.5688 559.809 Q66.8248 560.325 66.8248 561.194 Q66.8248 561.774 66.5672 562.032 Q66.3417 562.257 65.5688 562.579 L42.1551 572.08 Q40.5126 572.724 40.1262 573.561 Q39.7075 574.399 39.7075 577.361 Z" fill="#000000" fill-rule="nonzero" fill-opacity="1" /><path clip-path="url(#clip820)" d="M51.5593 541.053 Q45.3435 541.053 40.9313 537.059 Q36.5191 533.066 36.5191 527.333 Q36.5191 521.536 40.2872 518.541 Q44.0553 515.514 49.4659 515.514 Q50.4643 515.514 50.6575 515.771 Q50.8507 516.029 50.8507 517.156 L50.8507 535.578 Q57.5817 535.578 60.7379 533.581 Q65.1501 530.812 65.1501 526.142 Q65.1501 525.498 65.0213 524.725 Q64.8925 523.952 64.345 522.374 Q63.7653 520.796 62.2516 519.411 Q60.7379 518.026 58.3547 517.221 Q57.4207 517.027 57.4529 516.383 Q57.4529 515.514 58.2259 515.514 Q58.8056 515.514 60.126 516.158 Q61.4142 516.77 62.9601 517.961 Q64.506 519.153 65.6654 521.472 Q66.8248 523.758 66.8248 526.528 Q66.8248 532.325 62.4448 536.705 Q58.0326 541.053 51.5593 541.053 M49.4659 535.514 L49.4659 519.862 Q48.081 519.862 46.5351 520.119 Q44.9893 520.345 42.8637 521.053 Q40.7059 521.73 39.3532 523.34 Q38.0006 524.95 38.0006 527.333 Q38.0006 528.396 38.4515 529.556 Q38.9023 530.683 39.9973 532.068 Q41.0923 533.452 43.5722 534.419 Q46.052 535.385 49.4659 535.514 Z" fill="#000000" fill-rule="nonzero" fill-opacity="1" /><path clip-path="url(#clip820)" d="M60.5447 505.294 Q53.556 512.057 43.54 512.057 Q33.4918 512.057 26.5353 505.23 Q19.5788 498.402 19.5788 489.127 Q19.5788 486.808 20.1263 484.843 Q20.6416 482.847 21.7044 481.268 Q22.735 479.69 23.4435 478.885 Q24.1199 478.048 25.2471 476.921 L20.384 473.603 Q19.5788 473.088 19.5788 472.573 Q19.5788 472.025 19.9009 471.929 Q20.1907 471.832 21.1569 471.832 L36.809 471.832 Q37.8718 471.832 38.1294 471.961 Q38.3871 472.09 38.3871 472.895 Q38.3871 473.539 38.1938 473.668 Q38.0006 473.797 37.2598 473.958 Q30.1424 474.956 25.8912 478.95 Q21.64 482.911 21.64 488.322 Q21.64 489.9 21.9943 491.671 Q22.3485 493.41 23.7012 495.987 Q25.0538 498.531 27.276 500.495 Q29.466 502.428 33.7172 503.845 Q37.9362 505.262 43.54 505.262 Q49.0794 505.262 53.3306 503.845 Q57.5817 502.428 59.804 500.463 Q61.994 498.466 63.3788 495.89 Q64.7637 493.281 65.1501 491.446 Q65.5044 489.578 65.5044 487.935 Q65.5044 486.808 65.2789 485.487 Q65.0213 484.167 64.3128 482.202 Q63.572 480.206 61.8329 478.95 Q60.0938 477.694 57.5173 477.694 L53.2984 477.694 Q51.3338 477.694 50.7219 478.66 Q50.11 479.626 50.11 483.845 L50.11 485.938 L48.081 485.938 Q48.2743 483.555 48.2743 475.343 Q48.2743 474.602 48.081 467.291 L50.11 467.291 Q50.11 470.447 50.5931 471.156 Q51.044 471.832 53.0085 471.832 L64.506 471.832 Q66.0197 471.832 66.0197 472.412 Q66.0197 472.927 64.5382 474.473 Q63.0567 475.987 61.9295 476.663 Q64.6992 478.241 66.1163 481.687 Q67.5334 485.101 67.5334 488.998 Q67.5334 498.499 60.5447 505.294 Z" fill="#000000" fill-rule="nonzero" fill-opacity="1" /><path clip-path="url(#clip820)" d="M59.804 461.388 Q54.2001 461.388 51.2372 454.786 Q49.337 450.825 48.854 442.644 L46.4385 442.644 Q42.3484 442.644 40.1906 444.802 Q38.0006 446.928 38.0006 449.633 Q38.0006 454.464 41.0279 456.783 Q41.0923 454.818 42.0907 454.11 Q43.0569 453.401 44.0553 453.401 Q45.3757 453.401 46.2453 454.239 Q47.0826 455.044 47.0826 456.429 Q47.0826 457.749 46.2775 458.619 Q45.4401 459.488 43.9909 459.488 Q40.7703 459.488 38.6447 456.59 Q36.5191 453.659 36.5191 449.504 Q36.5191 444.094 40.1584 440.487 Q41.2856 439.359 42.7348 438.812 Q44.1841 438.232 45.1503 438.168 Q46.0843 438.103 47.9522 438.103 L61.1244 438.103 Q61.5109 438.103 62.155 437.975 Q62.7991 437.846 63.6364 437.266 Q64.4416 436.654 64.4416 435.656 Q64.4416 433.272 60.2226 433.305 L56.519 433.305 L56.519 431.63 L60.2226 431.63 Q63.7331 431.63 65.1179 433.498 Q66.4706 435.334 66.4706 437.041 Q66.4706 439.231 64.8603 440.615 Q63.25 442 61.06 442.194 Q63.572 443.192 65.2145 445.479 Q66.8248 447.733 66.8248 450.825 Q66.8248 453.208 66.2129 455.462 Q65.6332 457.685 63.9907 459.552 Q62.316 461.388 59.804 461.388 M59.7395 456.3 Q62.1872 456.3 63.7653 454.561 Q65.3434 452.821 65.3434 450.374 Q65.3434 447.604 63.2178 445.124 Q61.06 442.644 56.841 442.644 L50.2388 442.644 Q50.4965 449.955 53.4272 453.144 Q56.3257 456.3 59.7395 456.3 Z" fill="#000000" fill-rule="nonzero" fill-opacity="1" /><path clip-path="url(#clip820)" d="M76.8409 434.004 Q76.8409 430.494 76.39 429.689 Q75.9713 428.851 73.8779 428.851 L42.9925 428.851 Q40.8025 428.851 40.255 429.689 Q39.7075 430.494 39.7075 434.004 L37.6463 434.004 L36.9378 424.503 L41.2856 424.503 Q36.9378 420.542 36.9378 415.26 Q36.9378 409.657 41.2856 405.566 Q45.6334 401.476 51.8491 401.476 Q58.1292 401.476 62.477 405.824 Q66.8248 410.172 66.8248 416.194 Q66.8248 419.479 65.1501 421.702 Q63.4432 423.892 62.1872 424.31 L62.7991 424.31 L73.8779 424.31 Q76.0035 424.31 76.4222 423.473 Q76.8409 422.635 76.8409 419.157 L78.8698 419.157 Q78.6766 426.082 78.6766 426.597 Q78.6766 427.241 78.8698 434.004 L76.8409 434.004 M58.5801 424.31 Q59.5785 424.31 59.9328 424.181 Q60.287 424.02 61.3498 423.376 Q65.3434 420.768 65.3434 416.516 Q65.3434 416.484 65.3434 416.452 Q65.3434 412.684 61.5109 409.818 Q57.6462 406.951 51.8491 406.951 Q46.3097 406.951 42.445 409.56 Q38.5803 412.169 38.5803 415.776 Q38.5803 418.352 39.9651 420.607 Q41.35 422.861 43.8621 424.31 L58.5801 424.31 Z" fill="#000000" fill-rule="nonzero" fill-opacity="1" /><polyline clip-path="url(#clip822)" style="stroke:#785ef0; stroke-linecap:round; stroke-linejoin:round; stroke-width:8; stroke-opacity:1; fill:none" points="276.876,100.84 315.318,178.646 353.76,178.646 392.202,463.92 430.644,634.888 469.087,784.357 507.529,928.732 545.971,1070.55 584.413,1210.92 622.856,1353.41 661.298,1887.38 "/>
<polyline clip-path="url(#clip822)" style="stroke:#785ef0; stroke-linecap:round; stroke-linejoin:round; stroke-width:8; stroke-opacity:1; fill:none" stroke-dasharray="32, 20" points="276.876,100.84 315.318,199.215 353.76,199.215 392.202,447.588 430.644,632.009 469.087,787.326 507.529,932.726 545.971,1075.29 584.413,1216.54 622.856,1360.49 661.298,1887.38 "/>
<polyline clip-path="url(#clip822)" style="stroke:#fe6100; stroke-linecap:round; stroke-linejoin:round; stroke-width:8; stroke-opacity:1; fill:none" points="276.876,100.84 315.318,201.865 353.76,201.865 392.202,201.865 430.644,201.865 469.087,246.626 507.529,246.626 545.971,273.822 584.413,283.745 622.856,394.233 661.298,394.233 699.74,462.883 738.182,479.792 776.624,505.733 815.067,552.737 853.509,552.737 891.951,597.87 930.393,597.87 968.836,625.669 1007.28,640.555 1045.72,676.538 1084.16,694.538 1122.6,725.246 1161.05,730.269 1199.49,778.957 1237.93,778.957 1276.37,816.15 1314.82,816.15 1353.26,865.464 1391.7,865.464 1430.14,904.195 1468.58,904.195 1507.03,948.871 1545.47,1026.28 1583.91,1026.28 1622.35,1026.28 1660.8,1191.41 1699.24,1191.41 1737.68,1191.41 1776.12,1191.41 1814.56,1191.41 1853.01,1191.41 1891.45,1366.27 1929.89,1366.27 1968.33,1366.27 2006.78,1366.27 2045.22,1366.27 2083.66,1366.27 2122.1,1366.27 2160.54,1366.27 2198.99,1366.27 2237.43,1366.27 2275.87,1366.27 2314.31,1366.27 2352.76,1366.27 2391.2,1366.27 2429.64,1366.27 2468.08,1366.27 2506.52,1366.27 2544.97,1366.27 2583.41,1366.27 2621.85,1366.27 2660.29,1366.27 2698.74,1366.27 2737.18,1366.27 2775.62,1366.27 2814.06,1376.46 2852.5,1376.46 2890.95,1376.46 2929.39,1376.46 2967.83,1395.04 3006.27,1395.04 3044.72,1395.04 3083.16,1408.18 3121.6,1408.18 3160.04,1408.18 3198.48,1408.18 3236.93,1408.18 3275.37,1408.18 3313.81,1887.38 "/>
<polyline clip-path="url(#clip822)" style="stroke:#fe6100; stroke-linecap:round; stroke-linejoin:round; stroke-width:8; stroke-opacity:1; fill:none" stroke-dasharray="32, 20" points="276.876,100.84 315.318,161.47 353.76,180.027 392.202,187.972 430.644,418.904 469.087,418.904 507.529,429.738 545.971,457.426 584.413,487.209 622.856,492.46 661.298,545.784 699.74,620.167 738.182,620.167 776.624,620.167 815.067,669.232 853.509,669.232 891.951,691.76 930.393,709.464 968.836,746.935 1007.28,746.935 1045.72,830.702 1084.16,830.702 1122.6,830.702 1161.05,881.058 1199.49,903.972 1237.93,944.876 1276.37,944.876 1314.82,974.749 1353.26,1008.1 1391.7,1055.02 1430.14,1058.71 1468.58,1083.8 1507.03,1114.76 1545.47,1129.74 1583.91,1248.72 1622.35,1316.57 1660.8,1316.57 1699.24,1500 "/>
<polyline clip-path="url(#clip822)" style="stroke:#dc267f; stroke-linecap:round; stroke-linejoin:round; stroke-width:8; stroke-opacity:1; fill:none" points="276.876,100.84 315.318,100.84 353.76,100.84 392.202,100.863 430.644,102.396 469.087,103.923 507.529,105.475 545.971,107.062 584.413,108.686 622.856,110.349 661.298,112.053 699.74,113.801 738.182,115.594 776.624,117.434 815.067,119.325 853.509,121.267 891.951,123.264 930.393,125.319 968.836,127.434 1007.28,129.613 1045.72,131.859 1084.16,134.176 1122.6,136.567 1161.05,139.037 1199.49,141.591 1237.93,144.233 1276.37,146.97 1314.82,149.807 1353.26,152.751 1391.7,155.81 1430.14,158.991 1468.58,162.303 1507.03,165.756 1545.47,169.362 1583.91,173.132 1622.35,177.081 1660.8,181.224 1699.24,185.579 1737.68,190.167 1776.12,195.011 1814.56,200.137 1853.01,205.577 1891.45,211.369 1929.89,217.555 1968.33,224.189 2006.78,231.334 2045.22,239.068 2083.66,247.489 2122.1,256.723 2160.54,266.933 2198.99,278.338 2237.43,291.24 2275.87,306.078 2314.31,323.517 2352.76,344.638 2391.2,371.392 2429.64,407.86 2468.08,465.257 2506.52,538.237 2544.97,608.612 2583.41,676.479 2621.85,742.09 2660.29,805.774 2698.74,867.874 2737.18,928.703 2775.62,988.521 2814.06,1047.54 2852.5,1105.92 2890.95,1163.8 2929.39,1221.37 2967.83,1278.97 3006.27,1337.54 3044.72,1400.27 3083.16,1482.95 "/>
<polyline clip-path="url(#clip822)" style="stroke:#dc267f; stroke-linecap:round; stroke-linejoin:round; stroke-width:8; stroke-opacity:1; fill:none" stroke-dasharray="32, 20" points="276.876,100.84 315.318,100.84 353.76,100.84 392.202,100.84 430.644,100.84 469.087,100.84 507.529,100.84 545.971,100.857 584.413,102.331 622.856,103.837 661.298,105.378 699.74,106.955 738.182,108.571 776.624,110.226 815.067,111.922 853.509,113.662 891.951,115.447 930.393,117.279 968.836,119.161 1007.28,121.094 1045.72,123.082 1084.16,125.127 1122.6,127.231 1161.05,129.399 1199.49,131.633 1237.93,133.937 1276.37,136.315 1314.82,138.772 1353.26,141.311 1391.7,143.938 1430.14,146.658 1468.58,149.477 1507.03,152.402 1545.47,155.44 1583.91,158.599 1622.35,161.888 1660.8,165.316 1699.24,168.894 1737.68,172.635 1776.12,176.551 1814.56,180.659 1853.01,184.976 1891.45,189.521 1929.89,194.318 1968.33,199.392 2006.78,204.775 2045.22,210.502 2083.66,216.615 2122.1,223.165 2160.54,230.214 2198.99,237.837 2237.43,246.128 2275.87,255.207 2314.31,265.229 2352.76,276.4 2391.2,289.007 2429.64,303.456 2468.08,320.362 2506.52,340.707 2544.97,366.227 2583.41,400.433 2621.85,452.359 2660.29,523.678 2698.74,592.686 2737.18,659.382 2775.62,723.945 2814.06,786.649 2852.5,847.799 2890.95,907.687 2929.39,966.563 2967.83,1024.63 3006.27,1082.06 3044.72,1138.98 3083.16,1195.53 3121.6,1251.94 3160.04,1308.75 3198.48,1367.58 3236.93,1434.55 "/>
<polyline clip-path="url(#clip822)" style="stroke:#ffb000; stroke-linecap:round; stroke-linejoin:round; stroke-width:8; stroke-opacity:1; fill:none" points="276.876,100.84 315.318,115.013 353.76,316.743 392.202,316.743 430.644,372.778 469.087,372.778 507.529,493.089 545.971,493.089 584.413,493.089 622.856,493.089 661.298,493.089 699.74,493.089 738.182,517.713 776.624,517.713 815.067,524.57 853.509,524.57 891.951,524.57 930.393,524.57 968.836,524.57 1007.28,524.57 1045.72,529.762 1084.16,529.762 1122.6,553.696 1161.05,553.696 1199.49,572.716 1237.93,572.716 1276.37,573.808 1314.82,573.808 1353.26,573.808 1391.7,573.808 1430.14,573.808 1468.58,573.808 1507.03,573.808 1545.47,573.808 1583.91,585.051 1622.35,585.051 1660.8,601.259 1699.24,601.259 1737.68,616.156 1776.12,616.156 1814.56,624.224 1853.01,624.224 1891.45,624.224 1929.89,624.224 1968.33,624.224 2006.78,624.224 2045.22,624.224 2083.66,624.224 2122.1,624.224 2160.54,624.224 2198.99,624.224 2237.43,624.224 2275.87,629.847 2314.31,629.847 2352.76,641.711 2391.2,641.711 2429.64,653.121 2468.08,653.121 2506.52,661.718 2544.97,661.718 2583.41,663.328 2621.85,663.328 2660.29,663.328 2698.74,663.328 2737.18,663.328 2775.62,663.328 2814.06,663.328 2852.5,663.328 2890.95,663.328 2929.39,663.328 2967.83,663.328 3006.27,663.328 3044.72,663.328 3083.16,663.328 3121.6,667.086 3160.04,667.086 3198.48,676.211 3236.93,676.211 3275.37,685.174 3313.81,685.174 3352.25,692.925 3390.7,692.925 3429.14,697.314 3467.58,697.314 3506.02,697.314 3544.47,697.314 3582.91,697.314 3621.35,697.314 3659.79,697.314 3698.23,697.314 3736.68,697.314 3775.12,697.314 3813.56,697.314 3852,697.314 3890.45,697.314 3928.89,697.314 3967.33,697.314 4005.77,697.314 4044.21,697.314 4082.66,697.314 4121.1,698.434 4159.54,698.434 4197.98,705.664 4236.43,705.664 4274.87,712.875 4313.31,712.875 4351.75,719.601 4390.19,719.601 4428.64,724.875 4467.08,724.875 4505.52,726.834 4543.96,726.834 4582.41,726.834 4620.85,726.834 4659.29,726.834 4697.73,726.834 4736.17,726.834 4774.62,726.834 4813.06,726.834 4851.5,726.834 4889.94,726.834 4928.39,726.834 4966.83,726.834 5005.27,726.834 5043.71,726.834 5082.15,726.834 5120.6,726.834 5159.04,726.834 5197.48,726.834 5235.92,726.834 5274.37,726.834 5312.81,726.834 5351.25,730.808 5389.69,730.808 5428.13,736.697 5466.58,736.697 5505.02,742.452 5543.46,742.452 5581.9,747.693 5620.35,747.693 5658.79,751.639 5697.23,751.639 5735.67,752.821 5774.11,752.821 5812.56,752.821 5851,752.821 5889.44,752.821 5927.88,752.821 5966.33,752.821 6004.77,752.821 6043.21,752.821 6081.65,752.821 6120.09,752.821 6158.54,752.821 6196.98,752.821 6235.42,752.821 6273.86,752.821 6312.31,752.821 6350.75,752.821 6389.19,752.821 6427.63,752.821 6466.07,752.821 6504.52,752.821 6542.96,752.821 6581.4,752.821 6619.84,752.821 6658.29,752.821 6696.73,752.821 6735.17,757.087 6773.61,757.087 6812.05,761.936 6850.5,761.936 6888.94,766.68 6927.38,766.68 6965.82,771.073 7004.27,771.073 7042.71,774.614 7081.15,774.614 7119.59,776.334 7158.03,776.334 7196.48,776.334 7234.92,776.334 7273.36,776.334 7311.8,776.334 7350.25,776.334 7388.69,776.334 7427.13,776.334 7465.57,776.334 7504.01,776.334 7542.46,776.334 7580.9,776.334 7619.34,776.334 7657.78,776.334 7696.23,776.334 7734.67,776.334 7773.11,776.334 7811.55,776.334 7849.99,776.334 7888.44,776.334 7926.88,776.334 7965.32,776.334 8003.76,776.334 8042.21,776.334 8080.65,776.334 8119.09,776.334 8157.53,776.334 8195.97,776.334 8234.42,776.334 8272.86,778.524 8311.3,778.524 8349.74,782.575 8388.19,782.575 8426.63,786.595 8465.07,786.595 8503.51,790.475 8541.95,790.475 8580.4,793.989 8618.84,793.989 8657.28,796.69 8695.72,796.69 8734.17,797.734 8772.61,797.734 8811.05,797.734 8849.49,797.734 8887.93,797.734 8926.38,797.734 8964.82,797.734 9003.26,797.734 9041.7,797.734 9080.15,797.734 9118.59,797.734 9157.03,797.734 9195.47,797.734 9233.91,797.734 9272.36,797.734 9310.8,797.734 9349.24,797.734 9387.68,797.734 9426.13,797.734 9464.57,797.734 9503.01,797.734 9541.45,797.734 9579.9,797.734 9618.34,797.734 9656.78,797.734 9695.22,797.734 9733.66,797.734 9772.11,797.734 9810.55,797.734 9848.99,797.734 9887.43,797.734 9925.88,797.734 9964.32,797.734 10002.8,797.734 10041.2,799.455 10079.6,799.455 10118.1,802.868 10156.5,802.868 10195,806.27 10233.4,806.27 10271.9,809.597 10310.3,809.597 10348.7,812.726 10387.2,812.726 10425.6,815.412 10464.1,815.412 10502.5,817.175 10541,817.175 10579.4,817.175 10617.8,817.175 10656.3,817.175 10694.7,817.175 10733.2,817.175 10771.6,817.175 10810,817.175 10848.5,817.175 10886.9,817.175 10925.4,817.175 10963.8,817.175 11002.3,817.175 11040.7,817.175 11079.1,817.175 11117.6,817.175 11156,817.175 11194.5,817.175 11232.9,817.175 11271.4,817.175 11309.8,817.175 11348.2,817.175 11386.7,817.175 11425.1,817.175 11463.6,817.175 11502,817.175 11540.4,817.175 11578.9,817.175 11617.3,817.175 11655.8,817.175 11694.2,817.175 11732.7,817.175 11771.1,817.175 11809.5,817.175 11848,817.175 11886.4,817.175 11924.9,817.175 11963.3,817.175 12001.8,817.175 12040.2,819.038 12078.6,819.038 12117.1,821.938 12155.5,821.938 12194,824.835 12232.4,824.835 12270.9,827.691 12309.3,827.691 12347.7,830.436 12386.2,830.436 12424.6,832.927 12463.1,832.927 12501.5,834.891 12539.9,834.891 12578.4,835.813 12616.8,835.813 12655.3,835.813 12693.7,835.813 12732.2,835.813 12770.6,835.813 12809,835.813 12847.5,835.813 12885.9,835.813 12924.4,835.813 12962.8,835.813 13001.3,835.813 13039.7,835.813 13078.1,835.813 13116.6,835.813 13155,835.813 13193.5,835.813 13231.9,835.813 13270.3,835.813 13308.8,835.813 13347.2,835.813 13385.7,835.813 13424.1,835.813 13462.6,835.813 13501,835.813 13539.4,835.813 13577.9,835.813 13616.3,835.813 13654.8,835.813 13693.2,835.813 13731.7,835.813 13770.1,835.813 13808.5,835.813 13847,835.813 13885.4,835.813 13923.9,835.813 13962.3,835.813 14000.8,835.813 14039.2,835.813 14077.6,835.813 14116.1,835.813 14154.5,835.813 14193,835.813 14231.4,835.813 14269.8,836.851 14308.3,836.851 14346.7,839.33 14385.2,839.33 14423.6,841.813 14462.1,841.813 14500.5,844.282 14538.9,844.282 14577.4,846.699 14615.8,846.699 14654.3,848.991 14692.7,848.991 14731.2,851.023 14769.6,851.023 14808,852.529 14846.5,852.529 14884.9,853.024 14923.4,853.024 14961.8,853.024 15000.2,853.024 15038.7,853.024 15077.1,853.024 15115.6,853.024 15154,853.024 15192.5,853.024 15230.9,853.024 15269.3,853.024 15307.8,853.024 15346.2,853.024 15384.7,853.024 15423.1,853.024 15461.6,853.024 15500,853.024 15538.4,853.024 15576.9,853.024 15615.3,853.024 15653.8,853.024 15692.2,853.024 15730.7,853.024 15769.1,853.024 15807.5,853.024 15846,853.024 15884.4,853.024 15922.9,853.024 15961.3,853.024 15999.7,853.024 16038.2,853.024 16076.6,853.024 16115.1,853.024 16153.5,853.024 16192,853.024 16230.4,853.024 16268.8,853.024 16307.3,853.024 16345.7,853.024 16384.2,853.024 16422.6,853.024 16461.1,853.024 16499.5,853.024 16537.9,853.024 16576.4,853.024 16614.8,853.024 16653.3,853.024 16691.7,853.024 16730.1,853.024 16768.6,853.024 16807,854.851 16845.5,854.851 16883.9,856.988 16922.4,856.988 16960.8,859.127 16999.2,859.127 17037.7,861.255 17076.1,861.255 17114.6,863.343 17153,863.343 17191.5,865.341 17229.9,865.341 17268.3,867.15 17306.8,867.15 17345.2,868.584 17383.7,868.584 17422.1,869.297 17460.6,869.297 17499,869.297 17537.4,869.297 17575.9,869.297 17614.3,869.297 17652.8,869.297 17691.2,869.297 17729.6,869.297 17768.1,869.297 17806.5,869.297 17845,869.297 17883.4,869.297 17921.9,869.297 17960.3,869.297 17998.7,869.297 18037.2,869.297 18075.6,869.297 18114.1,869.297 18152.5,869.297 18191,869.297 18229.4,869.297 18267.8,869.297 18306.3,869.297 18344.7,869.297 18383.2,869.297 18421.6,869.297 18460.1,869.297 18498.5,869.297 18536.9,869.297 18575.4,869.297 18613.8,869.297 18652.3,869.297 18690.7,869.297 18729.1,869.297 18767.6,869.297 18806,869.297 18844.5,869.297 18882.9,869.297 18921.4,869.297 18959.8,869.297 18998.2,869.297 19036.7,869.297 19075.1,869.297 19113.6,869.297 19152,869.297 19190.5,869.297 19228.9,869.297 19267.3,869.297 19305.8,869.297 19344.2,869.297 19382.7,869.297 19421.1,869.297 19459.5,869.297 19498,869.297 "/>
<polyline clip-path="url(#clip822)" style="stroke:#ffb000; stroke-linecap:round; stroke-linejoin:round; stroke-width:8; stroke-opacity:1; fill:none" stroke-dasharray="32, 20" points="276.876,100.84 315.318,133.893 353.76,235.212 392.202,235.212 430.644,301.744 469.087,301.744 507.529,360.209 545.971,360.209 584.413,434.582 622.856,434.582 661.298,552.377 699.74,552.377 738.182,663.657 776.624,663.657 815.067,663.657 853.509,663.657 891.951,663.657 930.393,663.657 968.836,663.657 1007.28,663.657 1045.72,663.657 1084.16,663.657 1122.6,663.657 1161.05,663.657 1199.49,663.657 1237.93,663.657 1276.37,663.657 1314.82,663.657 1353.26,663.657 1391.7,663.657 1430.14,663.657 1468.58,663.657 1507.03,663.657 1545.47,663.657 1583.91,663.657 1622.35,663.657 1660.8,663.657 1699.24,663.657 1737.68,663.657 1776.12,663.657 1814.56,663.657 1853.01,663.657 1891.45,663.657 1929.89,663.657 1968.33,663.657 2006.78,663.657 2045.22,663.657 2083.66,663.657 2122.1,663.657 2160.54,663.657 2198.99,663.657 2237.43,663.657 2275.87,663.657 2314.31,663.657 2352.76,663.657 2391.2,663.657 2429.64,663.657 2468.08,663.657 2506.52,663.657 2544.97,663.657 2583.41,663.657 2621.85,663.657 2660.29,663.657 2698.74,663.657 2737.18,663.657 2775.62,663.657 2814.06,663.657 2852.5,663.657 2890.95,667.637 2929.39,667.637 2967.83,678.26 3006.27,678.26 3044.72,688.003 3083.16,688.003 3121.6,698.836 3160.04,698.836 3198.48,705.333 3236.93,705.333 3275.37,707.629 3313.81,707.629 3352.25,707.629 3390.7,707.629 3429.14,707.629 3467.58,707.629 3506.02,707.629 3544.47,707.629 3582.91,707.629 3621.35,707.629 3659.79,707.629 3698.23,707.629 3736.68,707.629 3775.12,707.629 3813.56,707.629 3852,707.629 3890.45,707.629 3928.89,707.629 3967.33,707.629 4005.77,707.629 4044.21,707.629 4082.66,707.629 4121.1,707.629 4159.54,707.629 4197.98,707.629 4236.43,707.629 4274.87,711.14 4313.31,711.14 4351.75,718.557 4390.19,718.557 4428.64,725.906 4467.08,725.906 4505.52,733.891 4543.96,733.891 4582.41,741.249 4620.85,741.249 4659.29,748.785 4697.73,748.785 4736.17,750.878 4774.62,750.878 4813.06,750.878 4851.5,750.878 4889.94,750.878 4928.39,750.878 4966.83,750.878 5005.27,750.878 5043.71,750.878 5082.15,750.878 5120.6,750.878 5159.04,750.878 5197.48,750.878 5235.92,750.878 5274.37,750.878 5312.81,750.878 5351.25,750.878 5389.69,750.878 5428.13,750.878 5466.58,750.878 5505.02,750.878 5543.46,750.878 5581.9,750.878 5620.35,750.878 5658.79,750.878 5697.23,750.878 5735.67,750.878 5774.11,750.878 5812.56,750.878 5851,750.878 5889.44,750.878 5927.88,750.878 5966.33,750.878 6004.77,750.878 6043.21,754.357 6081.65,754.357 6120.09,760.235 6158.54,760.235 6196.98,766.476 6235.42,766.476 6273.86,772.566 6312.31,772.566 6350.75,778.972 6389.19,778.972 6427.63,783.789 6466.07,783.789 6504.52,786.141 6542.96,786.141 6581.4,786.141 6619.84,786.141 6658.29,786.141 6696.73,786.141 6735.17,786.141 6773.61,786.141 6812.05,786.141 6850.5,786.141 6888.94,786.141 6927.38,786.141 6965.82,786.141 7004.27,786.141 7042.71,786.141 7081.15,786.141 7119.59,786.141 7158.03,786.141 7196.48,786.141 7234.92,786.141 7273.36,786.141 7311.8,786.141 7350.25,786.141 7388.69,786.141 7427.13,786.141 7465.57,786.141 7504.01,786.141 7542.46,786.141 7580.9,786.141 7619.34,786.141 7657.78,786.141 7696.23,786.141 7734.67,786.141 7773.11,786.141 7811.55,786.141 7849.99,786.141 7888.44,786.141 7926.88,786.141 7965.32,786.141 8003.76,786.141 8042.21,786.141 8080.65,786.141 8119.09,789.47 8157.53,789.47 8195.97,794.34 8234.42,794.34 8272.86,799.211 8311.3,799.211 8349.74,804.318 8388.19,804.318 8426.63,809.065 8465.07,809.065 8503.51,813.585 8541.95,813.585 8580.4,814.708 8618.84,814.708 8657.28,814.708 8695.72,814.708 8734.17,814.708 8772.61,814.708 8811.05,814.708 8849.49,814.708 8887.93,814.708 8926.38,814.708 8964.82,814.708 9003.26,814.708 9041.7,814.708 9080.15,814.708 9118.59,814.708 9157.03,814.708 9195.47,814.708 9233.91,814.708 9272.36,814.708 9310.8,814.708 9349.24,814.708 9387.68,814.708 9426.13,814.708 9464.57,814.708 9503.01,814.708 9541.45,814.708 9579.9,814.708 9618.34,814.708 9656.78,814.708 9695.22,814.708 9733.66,814.708 9772.11,814.708 9810.55,814.708 9848.99,814.708 9887.43,814.708 9925.88,814.708 9964.32,814.708 10002.8,814.708 10041.2,814.708 10079.6,814.708 10118.1,814.708 10156.5,814.708 10195,814.708 10233.4,814.708 10271.9,814.708 10310.3,814.708 10348.7,814.708 10387.2,814.708 10425.6,814.708 10464.1,814.708 10502.5,815.969 10541,815.969 10579.4,819.749 10617.8,819.749 10656.3,823.657 10694.7,823.657 10733.2,827.57 10771.6,827.57 10810,831.629 10848.5,831.629 10886.9,835.456 10925.4,835.456 10963.8,839.135 11002.3,839.135 11040.7,840.725 11079.1,840.725 11117.6,840.725 11156,840.725 11194.5,840.725 11232.9,840.725 11271.4,840.725 11309.8,840.725 11348.2,840.725 11386.7,840.725 11425.1,840.725 11463.6,840.725 11502,840.725 11540.4,840.725 11578.9,840.725 11617.3,840.725 11655.8,840.725 11694.2,840.725 11732.7,840.725 11771.1,840.725 11809.5,840.725 11848,840.725 11886.4,840.725 11924.9,840.725 11963.3,840.725 12001.8,840.725 12040.2,840.725 12078.6,840.725 12117.1,840.725 12155.5,840.725 12194,840.725 12232.4,840.725 12270.9,840.725 12309.3,840.725 12347.7,840.725 12386.2,840.725 12424.6,840.725 12463.1,840.725 12501.5,840.725 12539.9,840.725 12578.4,840.725 12616.8,840.725 12655.3,840.725 12693.7,840.725 12732.2,840.725 12770.6,840.725 12809,840.725 12847.5,840.725 12885.9,840.725 12924.4,840.725 12962.8,840.725 13001.3,840.725 13039.7,840.725 13078.1,840.725 13116.6,840.725 13155,840.725 13193.5,840.725 13231.9,840.725 13270.3,840.725 13308.8,840.725 13347.2,840.804 13385.7,840.804 13424.1,843.834 13462.6,843.834 13501,846.897 13539.4,846.897 13577.9,850.044 13616.3,850.044 13654.8,853.196 13693.2,853.196 13731.7,856.44 13770.1,856.44 13808.5,859.537 13847,859.537 13885.4,862.548 13923.9,862.548 13962.3,864.305 14000.8,864.305 14039.2,864.305 14077.6,864.305 14116.1,864.305 14154.5,864.305 14193,864.305 14231.4,864.305 14269.8,864.305 14308.3,864.305 14346.7,864.305 14385.2,864.305 14423.6,864.305 14462.1,864.305 14500.5,864.305 14538.9,864.305 14577.4,864.305 14615.8,864.305 14654.3,864.305 14692.7,864.305 14731.2,864.305 14769.6,864.305 14808,864.305 14846.5,864.305 14884.9,864.305 14923.4,864.305 14961.8,864.305 15000.2,864.305 15038.7,864.305 15077.1,864.305 15115.6,864.305 15154,864.305 15192.5,864.305 15230.9,864.305 15269.3,864.305 15307.8,864.305 15346.2,864.305 15384.7,864.305 15423.1,864.305 15461.6,864.305 15500,864.305 15538.4,864.305 15576.9,864.305 15615.3,864.305 15653.8,864.305 15692.2,864.305 15730.7,864.305 15769.1,864.305 15807.5,864.305 15846,864.305 15884.4,864.305 15922.9,864.305 15961.3,864.305 15999.7,864.305 16038.2,864.305 16076.6,864.305 16115.1,864.305 16153.5,864.305 16192,864.305 16230.4,864.305 16268.8,864.305 16307.3,864.305 16345.7,864.305 16384.2,864.305 16422.6,864.305 16461.1,864.305 16499.5,864.305 16537.9,864.305 16576.4,864.305 16614.8,864.305 16653.3,864.305 16691.7,864.305 16730.1,864.43 16768.6,864.43 16807,866.865 16845.5,866.865 16883.9,869.327 16922.4,869.327 16960.8,871.838 16999.2,871.838 17037.7,874.367 17076.1,874.367 17114.6,876.955 17153,876.955 17191.5,879.514 17229.9,879.514 17268.3,882.112 17306.8,882.112 17345.2,884.421 17383.7,884.421 17422.1,886.302 17460.6,886.302 17499,886.302 17537.4,886.302 17575.9,886.302 17614.3,886.302 17652.8,886.302 17691.2,886.302 17729.6,886.302 17768.1,886.302 17806.5,886.302 17845,886.302 17883.4,886.302 17921.9,886.302 17960.3,886.302 17998.7,886.302 18037.2,886.302 18075.6,886.302 18114.1,886.302 18152.5,886.302 18191,886.302 18229.4,886.302 18267.8,886.302 18306.3,886.302 18344.7,886.302 18383.2,886.302 18421.6,886.302 18460.1,886.302 18498.5,886.302 18536.9,886.302 18575.4,886.302 18613.8,886.302 18652.3,886.302 18690.7,886.302 18729.1,886.302 18767.6,886.302 18806,886.302 18844.5,886.302 18882.9,886.302 18921.4,886.302 18959.8,886.302 18998.2,886.302 19036.7,886.302 19075.1,886.302 19113.6,886.302 19152,886.302 19190.5,886.302 19228.9,886.302 19267.3,886.302 19305.8,886.302 19344.2,886.302 19382.7,886.302 19421.1,886.302 19459.5,886.302 19498,886.302 "/>
<path clip-path="url(#clip820)" d="M1827.66 352.309 L2283.56 352.309 L2283.56 93.1086 L1827.66 93.1086  Z" fill="#000000" fill-rule="evenodd" fill-opacity="0"/>
<polyline clip-path="url(#clip820)" style="stroke:#000000; stroke-linecap:round; stroke-linejoin:round; stroke-width:4; stroke-opacity:0; fill:none" points="1827.66,352.309 2283.56,352.309 2283.56,93.1086 1827.66,93.1086 1827.66,352.309 "/>
<polyline clip-path="url(#clip820)" style="stroke:#785ef0; stroke-linecap:round; stroke-linejoin:round; stroke-width:8; stroke-opacity:1; fill:none" points="1850.73,144.949 1989.12,144.949 "/>
<path clip-path="url(#clip820)" d="M2012.19 156.824 L2012.19 155.348 L2013.33 155.348 Q2015.93 155.348 2016.52 154.926 Q2017.13 154.481 2017.13 153.076 L2017.13 127.803 Q2017.13 126.421 2016.52 126 Q2015.91 125.555 2013.33 125.555 L2012.19 125.555 L2012.19 124.056 L2027.25 124.056 Q2032.47 124.056 2036.1 126.632 Q2039.75 129.185 2039.75 132.699 Q2039.75 135.392 2037.39 137.5 Q2035.02 139.608 2031.37 140.522 Q2036.12 142.161 2037.22 146.073 L2037.83 149.914 Q2038.02 151.296 2038.14 151.999 Q2038.28 152.701 2038.49 153.662 Q2038.7 154.622 2038.91 155.09 Q2039.15 155.535 2039.47 156.027 Q2039.8 156.496 2040.22 156.66 Q2040.67 156.824 2041.25 156.824 Q2042.35 156.824 2043.29 155.84 Q2044.23 154.856 2044.42 152.561 Q2044.51 151.788 2045 151.788 Q2045.61 151.788 2045.61 152.561 Q2045.61 153.24 2045.42 154.036 Q2045.24 154.809 2044.77 155.723 Q2044.32 156.636 2043.34 157.245 Q2042.35 157.878 2041.07 157.878 Q2037.32 157.878 2035.02 155.863 Q2034.06 154.997 2033.62 153.872 Q2033.2 152.748 2033.13 151.858 Q2033.06 150.968 2033.06 149.001 Q2033.06 146.213 2032.75 144.995 Q2032.47 143.777 2031.23 142.583 Q2029.54 140.943 2026.75 140.943 L2021.25 140.943 L2021.25 153.076 Q2021.25 154.458 2021.84 154.903 Q2022.44 155.348 2025.04 155.348 L2026.19 155.348 L2026.19 156.824 Q2024.46 156.683 2019.19 156.683 Q2013.92 156.683 2012.19 156.824 M2021.25 139.889 L2026.57 139.889 Q2029.12 139.889 2030.83 139.28 Q2032.56 138.648 2033.38 137.524 Q2034.2 136.399 2034.51 135.275 Q2034.81 134.127 2034.81 132.699 Q2034.81 131.012 2034.44 129.747 Q2034.06 128.482 2033.24 127.733 Q2032.42 126.983 2031.6 126.515 Q2030.78 126.023 2029.52 125.836 Q2028.25 125.648 2027.39 125.602 Q2026.52 125.555 2025.14 125.555 Q2022.8 125.555 2022.3 125.648 Q2021.77 125.695 2021.55 125.953 Q2021.34 126.21 2021.3 126.515 Q2021.25 126.796 2021.25 127.475 L2021.25 139.889 Z" fill="#000000" fill-rule="nonzero" fill-opacity="1" /><path clip-path="url(#clip820)" d="M2047.91 156.824 L2047.91 155.348 L2049.05 155.348 Q2051.65 155.348 2052.24 154.926 Q2052.85 154.481 2052.85 153.076 L2052.85 127.803 Q2052.85 126.421 2052.24 126 Q2051.63 125.555 2049.05 125.555 L2047.91 125.555 L2047.91 124.056 L2064.84 124.056 Q2069.69 124.056 2072.92 126.726 Q2076.15 129.396 2076.15 132.98 Q2076.15 136.54 2072.85 139.116 Q2069.57 141.669 2065.22 141.669 L2057.11 141.669 L2057.11 153.076 Q2057.11 154.458 2057.7 154.903 Q2058.31 155.348 2060.91 155.348 L2062.05 155.348 L2062.05 156.824 Q2060.37 156.683 2054.96 156.683 Q2049.59 156.683 2047.91 156.824 M2056.97 140.428 L2063.58 140.428 Q2065.73 140.428 2067.3 139.819 Q2068.87 139.21 2069.57 138.484 Q2070.3 137.734 2070.7 136.54 Q2071.12 135.322 2071.16 134.666 Q2071.21 133.987 2071.21 132.98 Q2071.21 131.926 2071.16 131.27 Q2071.12 130.59 2070.7 129.396 Q2070.3 128.178 2069.57 127.452 Q2068.87 126.702 2067.3 126.14 Q2065.75 125.555 2063.58 125.555 L2059.31 125.555 Q2057.67 125.555 2057.32 125.883 Q2056.97 126.21 2056.97 127.475 L2056.97 140.428 Z" fill="#000000" fill-rule="nonzero" fill-opacity="1" /><path clip-path="url(#clip820)" d="M2086.53 156.824 L2086.53 155.348 L2087.68 155.348 Q2090.28 155.348 2090.86 154.926 Q2091.47 154.481 2091.47 153.076 L2091.47 127.803 Q2091.47 126.421 2090.86 126 Q2090.25 125.555 2087.68 125.555 L2086.53 125.555 L2086.53 124.056 L2104.07 124.056 Q2108.64 124.056 2111.68 126.515 Q2114.73 128.951 2114.73 132.16 Q2114.73 134.807 2112.48 136.915 Q2110.25 139.023 2106.76 139.702 Q2110.75 140.123 2113.37 142.536 Q2116.02 144.925 2116.02 148.04 Q2116.02 151.554 2112.99 154.2 Q2109.97 156.824 2105.34 156.824 L2086.53 156.824 M2095.45 153.427 Q2095.45 154.669 2095.8 155.02 Q2096.15 155.348 2097.79 155.348 L2103.79 155.348 Q2107.23 155.348 2109.22 153.099 Q2111.21 150.827 2111.21 147.993 Q2111.21 145.159 2109.46 142.747 Q2107.72 140.311 2104.47 140.311 L2095.45 140.311 L2095.45 153.427 M2095.45 139.257 L2102.41 139.257 Q2106.11 139.257 2108.08 137.032 Q2110.07 134.807 2110.07 132.16 Q2110.07 129.818 2108.47 127.686 Q2106.91 125.555 2103.74 125.555 L2097.79 125.555 Q2096.15 125.555 2095.8 125.883 Q2095.45 126.21 2095.45 127.475 L2095.45 139.257 Z" fill="#000000" fill-rule="nonzero" fill-opacity="1" /><path clip-path="url(#clip820)" d="M2125.51 144.831 Q2125.51 136.727 2128.53 130.192 Q2129.82 127.452 2131.62 125.156 Q2133.43 122.861 2134.62 121.854 Q2135.82 120.847 2136.14 120.847 Q2136.61 120.847 2136.64 121.315 Q2136.64 121.549 2136 122.135 Q2128.27 130.005 2128.3 144.831 Q2128.3 159.705 2135.82 167.27 Q2136.64 168.09 2136.64 168.347 Q2136.64 168.816 2136.14 168.816 Q2135.82 168.816 2134.67 167.856 Q2133.52 166.895 2131.74 164.694 Q2129.96 162.492 2128.67 159.798 Q2125.51 153.263 2125.51 144.831 Z" fill="#000000" fill-rule="nonzero" fill-opacity="1" /><path clip-path="url(#clip820)" d="M2141.24 140.568 Q2141.24 133.237 2145.92 128.131 Q2150.63 123.002 2157.17 123.002 Q2163.75 123.002 2168.43 128.131 Q2173.14 133.261 2173.14 140.568 Q2173.14 147.806 2168.43 152.842 Q2163.72 157.878 2157.17 157.878 Q2150.7 157.878 2145.97 152.865 Q2141.24 147.853 2141.24 140.568 M2146.18 139.889 Q2146.18 144.339 2147.23 147.759 Q2148.29 151.155 2149.97 153.006 Q2151.68 154.856 2153.51 155.746 Q2155.34 156.636 2157.21 156.636 Q2159.04 156.636 2160.82 155.77 Q2162.62 154.903 2164.33 153.076 Q2166.04 151.249 2167.12 147.829 Q2168.2 144.41 2168.2 139.889 Q2168.2 136.376 2167.45 133.565 Q2166.7 130.731 2165.53 129.021 Q2164.36 127.311 2162.83 126.187 Q2161.33 125.063 2159.91 124.641 Q2158.5 124.196 2157.17 124.196 Q2155.48 124.196 2153.72 124.946 Q2151.97 125.695 2150.19 127.358 Q2148.43 128.998 2147.3 132.253 Q2146.18 135.486 2146.18 139.889 Z" fill="#000000" fill-rule="nonzero" fill-opacity="1" /><path clip-path="url(#clip820)" d="M2177.75 137.641 L2177.75 136.142 L2184.8 135.626 L2184.8 151.554 Q2184.8 152.701 2184.9 153.381 Q2184.99 154.036 2185.37 154.809 Q2185.77 155.582 2186.66 155.934 Q2187.57 156.285 2189.02 156.285 Q2191.62 156.285 2193.21 154.153 Q2194.83 152.022 2194.83 148.86 L2194.83 140.311 Q2194.83 138.531 2194.2 138.086 Q2193.56 137.641 2191.08 137.641 L2191.08 136.142 L2198.13 135.626 L2198.13 152.654 Q2198.13 154.435 2198.74 154.903 Q2199.37 155.348 2201.88 155.348 L2201.88 156.824 L2194.97 157.362 L2194.97 153.029 Q2192.96 157.339 2188.79 157.362 Q2186.68 157.362 2185.23 156.824 Q2183.8 156.285 2183.07 155.629 Q2182.35 154.95 2181.95 153.662 Q2181.57 152.373 2181.53 151.577 Q2181.48 150.781 2181.48 149.235 L2181.48 142.044 Q2181.48 138.788 2181.01 138.226 Q2180.54 137.641 2177.75 137.641 Z" fill="#000000" fill-rule="nonzero" fill-opacity="1" /><path clip-path="url(#clip820)" d="M2203.53 156.824 L2203.53 155.348 Q2206.08 155.348 2206.67 155.044 Q2207.27 154.716 2207.27 153.17 L2207.27 140.311 Q2207.27 138.531 2206.64 138.086 Q2206.03 137.641 2203.53 137.641 L2203.53 136.142 L2210.2 135.626 L2210.2 140.896 Q2210.88 138.835 2212.31 137.242 Q2213.76 135.626 2216.1 135.626 Q2217.65 135.626 2218.63 136.493 Q2219.64 137.36 2219.64 138.554 Q2219.64 139.608 2218.99 140.147 Q2218.35 140.662 2217.58 140.662 Q2216.71 140.662 2216.1 140.123 Q2215.52 139.561 2215.52 138.601 Q2215.52 138.015 2215.78 137.57 Q2216.06 137.102 2216.27 136.938 Q2216.48 136.774 2216.62 136.727 Q2216.53 136.68 2216.1 136.68 Q2213.46 136.68 2211.94 139.327 Q2210.44 141.95 2210.44 145.698 L2210.44 153.076 Q2210.44 154.458 2211 154.903 Q2211.58 155.348 2214.09 155.348 L2215.1 155.348 L2215.1 156.824 Q2213.18 156.683 2209.01 156.683 Q2208.42 156.683 2207.51 156.707 Q2206.59 156.73 2205.4 156.777 Q2204.21 156.824 2203.53 156.824 Z" fill="#000000" fill-rule="nonzero" fill-opacity="1" /><path clip-path="url(#clip820)" d="M2222.62 156.191 L2222.62 149.867 Q2222.62 149.328 2222.64 149.141 Q2222.66 148.954 2222.8 148.813 Q2222.95 148.673 2223.23 148.673 Q2223.55 148.673 2223.67 148.813 Q2223.81 148.954 2223.91 149.492 Q2224.63 152.795 2226.18 154.552 Q2227.75 156.285 2230.58 156.285 Q2233.27 156.285 2234.63 155.09 Q2235.99 153.896 2235.99 151.928 Q2235.99 148.415 2231 147.525 Q2228.12 146.939 2226.93 146.565 Q2225.73 146.166 2224.68 145.3 Q2222.62 143.613 2222.62 141.224 Q2222.62 138.835 2224.42 137.078 Q2226.25 135.322 2230.28 135.322 Q2232.97 135.322 2234.8 136.68 Q2235.34 136.259 2235.62 135.907 Q2236.25 135.322 2236.58 135.322 Q2236.95 135.322 2237.02 135.579 Q2237.09 135.814 2237.09 136.493 L2237.09 141.318 Q2237.09 141.857 2237.07 142.044 Q2237.05 142.231 2236.9 142.372 Q2236.76 142.489 2236.46 142.489 Q2235.92 142.489 2235.9 142.044 Q2235.52 136.235 2230.28 136.235 Q2227.44 136.235 2226.18 137.336 Q2224.91 138.414 2224.91 139.889 Q2224.91 140.709 2225.29 141.341 Q2225.69 141.95 2226.18 142.325 Q2226.69 142.676 2227.63 143.028 Q2228.57 143.356 2229.13 143.473 Q2229.71 143.59 2230.82 143.824 Q2234.66 144.55 2236.27 146.12 Q2238.29 148.134 2238.29 150.687 Q2238.29 153.521 2236.37 155.442 Q2234.45 157.362 2230.58 157.362 Q2227.47 157.362 2225.29 155.278 Q2225.01 155.559 2224.8 155.816 Q2224.58 156.051 2224.49 156.144 Q2224.42 156.238 2224.4 156.308 Q2224.37 156.355 2224.33 156.402 Q2223.37 157.362 2223.13 157.362 Q2222.76 157.362 2222.69 157.105 Q2222.62 156.87 2222.62 156.191 Z" fill="#000000" fill-rule="nonzero" fill-opacity="1" /><path clip-path="url(#clip820)" d="M2242.08 168.347 Q2242.08 168.113 2242.69 167.528 Q2250.42 159.658 2250.42 144.831 Q2250.42 129.958 2242.99 122.439 Q2242.08 121.573 2242.08 121.315 Q2242.08 120.847 2242.55 120.847 Q2242.88 120.847 2244.02 121.807 Q2245.19 122.767 2246.95 124.969 Q2248.73 127.171 2250.04 129.864 Q2253.2 136.399 2253.2 144.831 Q2253.2 152.935 2250.18 159.47 Q2248.89 162.211 2247.09 164.506 Q2245.29 166.802 2244.09 167.809 Q2242.9 168.816 2242.55 168.816 Q2242.08 168.816 2242.08 168.347 Z" fill="#000000" fill-rule="nonzero" fill-opacity="1" /><polyline clip-path="url(#clip820)" style="stroke:#fe6100; stroke-linecap:round; stroke-linejoin:round; stroke-width:8; stroke-opacity:1; fill:none" points="1850.73,196.789 1989.12,196.789 "/>
<path clip-path="url(#clip820)" d="M2012.19 213.007 L2012.19 211.532 L2013.33 211.532 Q2015.93 211.532 2016.52 211.11 Q2017.13 210.665 2017.13 209.26 L2017.13 183.987 Q2017.13 182.605 2016.52 182.183 Q2015.91 181.738 2013.33 181.738 L2012.19 181.738 L2012.19 180.239 L2027.25 180.239 Q2032.47 180.239 2036.1 182.816 Q2039.75 185.369 2039.75 188.882 Q2039.75 191.576 2037.39 193.684 Q2035.02 195.792 2031.37 196.705 Q2036.12 198.345 2037.22 202.256 L2037.83 206.098 Q2038.02 207.48 2038.14 208.182 Q2038.28 208.885 2038.49 209.845 Q2038.7 210.806 2038.91 211.274 Q2039.15 211.719 2039.47 212.211 Q2039.8 212.679 2040.22 212.843 Q2040.67 213.007 2041.25 213.007 Q2042.35 213.007 2043.29 212.024 Q2044.23 211.04 2044.42 208.744 Q2044.51 207.972 2045 207.972 Q2045.61 207.972 2045.61 208.744 Q2045.61 209.424 2045.42 210.22 Q2045.24 210.993 2044.77 211.907 Q2044.32 212.82 2043.34 213.429 Q2042.35 214.061 2041.07 214.061 Q2037.32 214.061 2035.02 212.047 Q2034.06 211.18 2033.62 210.056 Q2033.2 208.932 2033.13 208.042 Q2033.06 207.152 2033.06 205.184 Q2033.06 202.397 2032.75 201.179 Q2032.47 199.961 2031.23 198.767 Q2029.54 197.127 2026.75 197.127 L2021.25 197.127 L2021.25 209.26 Q2021.25 210.642 2021.84 211.087 Q2022.44 211.532 2025.04 211.532 L2026.19 211.532 L2026.19 213.007 Q2024.46 212.867 2019.19 212.867 Q2013.92 212.867 2012.19 213.007 M2021.25 196.073 L2026.57 196.073 Q2029.12 196.073 2030.83 195.464 Q2032.56 194.832 2033.38 193.707 Q2034.2 192.583 2034.51 191.459 Q2034.81 190.311 2034.81 188.882 Q2034.81 187.196 2034.44 185.931 Q2034.06 184.666 2033.24 183.917 Q2032.42 183.167 2031.6 182.699 Q2030.78 182.207 2029.52 182.019 Q2028.25 181.832 2027.39 181.785 Q2026.52 181.738 2025.14 181.738 Q2022.8 181.738 2022.3 181.832 Q2021.77 181.879 2021.55 182.137 Q2021.34 182.394 2021.3 182.699 Q2021.25 182.98 2021.25 183.659 L2021.25 196.073 Z" fill="#000000" fill-rule="nonzero" fill-opacity="1" /><path clip-path="url(#clip820)" d="M2045.82 196.612 Q2045.82 189.374 2050.76 184.291 Q2055.71 179.185 2062.5 179.185 Q2064.61 179.185 2066.48 179.958 Q2068.35 180.731 2069.22 181.41 Q2070.09 182.066 2071.33 183.308 L2073.74 179.771 Q2074.12 179.185 2074.49 179.185 Q2074.89 179.185 2074.96 179.42 Q2075.03 179.63 2075.03 180.333 L2075.03 191.716 Q2075.03 192.489 2074.94 192.677 Q2074.84 192.864 2074.26 192.864 Q2073.79 192.864 2073.67 192.724 Q2073.58 192.583 2073.48 192.044 Q2072.76 186.868 2069.88 183.776 Q2067.02 180.684 2063.04 180.684 Q2061.89 180.684 2060.6 180.942 Q2059.34 181.2 2057.49 182.183 Q2055.66 183.167 2054.23 184.807 Q2052.82 186.423 2051.79 189.515 Q2050.76 192.583 2050.76 196.659 Q2050.76 200.687 2051.79 203.779 Q2052.82 206.871 2054.23 208.487 Q2055.66 210.08 2057.49 211.063 Q2059.34 212.047 2060.62 212.328 Q2061.94 212.586 2063.08 212.586 Q2067.21 212.586 2070.37 209.658 Q2073.53 206.73 2073.83 201.788 Q2073.88 201.554 2073.88 201.46 Q2073.88 201.343 2073.93 201.226 Q2073.98 201.109 2074.09 201.062 Q2074.21 201.015 2074.4 201.015 Q2075.03 201.015 2075.03 201.835 Q2075.03 206.402 2071.52 210.244 Q2068.03 214.061 2062.5 214.061 Q2055.68 214.061 2050.74 209.002 Q2045.82 203.943 2045.82 196.612 Z" fill="#000000" fill-rule="nonzero" fill-opacity="1" /><path clip-path="url(#clip820)" d="M2082.98 213.007 L2082.98 211.532 L2084.13 211.532 Q2086.73 211.532 2087.31 211.11 Q2087.92 210.665 2087.92 209.26 L2087.92 183.987 Q2087.92 182.605 2087.31 182.183 Q2086.71 181.738 2084.13 181.738 L2082.98 181.738 L2082.98 180.239 L2100.52 180.239 Q2105.09 180.239 2108.14 182.699 Q2111.18 185.135 2111.18 188.344 Q2111.18 190.99 2108.93 193.098 Q2106.71 195.206 2103.22 195.886 Q2107.2 196.307 2109.82 198.72 Q2112.47 201.109 2112.47 204.224 Q2112.47 207.737 2109.45 210.384 Q2106.43 213.007 2101.79 213.007 L2082.98 213.007 M2091.91 209.611 Q2091.91 210.853 2092.26 211.204 Q2092.61 211.532 2094.25 211.532 L2100.24 211.532 Q2103.69 211.532 2105.68 209.283 Q2107.67 207.011 2107.67 204.177 Q2107.67 201.343 2105.91 198.93 Q2104.18 196.495 2100.92 196.495 L2091.91 196.495 L2091.91 209.611 M2091.91 195.441 L2098.86 195.441 Q2102.56 195.441 2104.53 193.215 Q2106.52 190.99 2106.52 188.344 Q2106.52 186.001 2104.93 183.87 Q2103.36 181.738 2100.2 181.738 L2094.25 181.738 Q2092.61 181.738 2092.26 182.066 Q2091.91 182.394 2091.91 183.659 L2091.91 195.441 Z" fill="#000000" fill-rule="nonzero" fill-opacity="1" /><path clip-path="url(#clip820)" d="M2118.32 213.007 L2118.32 211.532 Q2120.05 211.532 2121.15 211.204 Q2122.25 210.853 2122.65 210.22 Q2123.07 209.564 2123.16 209.143 Q2123.26 208.698 2123.26 207.972 L2123.26 183.987 Q2123.26 182.605 2122.65 182.183 Q2122.06 181.738 2119.46 181.738 L2118.32 181.738 L2118.32 180.239 L2126.42 180.239 Q2127.29 180.239 2127.52 180.403 Q2127.76 180.544 2128.11 181.293 L2138.51 208.159 L2149 181.153 Q2149.23 180.474 2149.44 180.356 Q2149.68 180.239 2150.59 180.239 L2158.7 180.239 L2158.7 181.738 L2157.55 181.738 Q2154.95 181.738 2154.34 182.183 Q2153.75 182.605 2153.75 183.987 L2153.75 209.26 Q2153.75 210.642 2154.34 211.087 Q2154.95 211.532 2157.55 211.532 L2158.7 211.532 L2158.7 213.007 Q2156.92 212.867 2151.83 212.867 Q2146.7 212.867 2144.92 213.007 L2144.92 211.532 L2146.1 211.532 Q2148.7 211.532 2149.28 211.11 Q2149.87 210.665 2149.87 209.26 L2149.87 181.738 L2149.82 181.738 L2138.04 212.094 Q2137.71 213.007 2137.17 213.007 Q2136.59 213.007 2136.21 211.953 L2124.64 182.113 L2124.59 182.113 L2124.59 207.972 Q2124.59 208.698 2124.69 209.143 Q2124.78 209.564 2125.18 210.22 Q2125.6 210.853 2126.7 211.204 Q2127.8 211.532 2129.54 211.532 L2129.54 213.007 Q2124.5 212.867 2123.91 212.867 Q2123.35 212.867 2118.32 213.007 Z" fill="#000000" fill-rule="nonzero" fill-opacity="1" /><polyline clip-path="url(#clip820)" style="stroke:#dc267f; stroke-linecap:round; stroke-linejoin:round; stroke-width:8; stroke-opacity:1; fill:none" points="1850.73,248.629 1989.12,248.629 "/>
<path clip-path="url(#clip820)" d="M2012.19 265.629 L2012.19 264.153 L2013.33 264.153 Q2015.93 264.153 2016.52 263.731 Q2017.13 263.286 2017.13 261.881 L2017.13 236.608 Q2017.13 235.226 2016.52 234.805 Q2015.91 234.36 2013.33 234.36 L2012.19 234.36 L2012.19 232.861 L2029.12 232.861 Q2033.97 232.861 2037.2 235.531 Q2040.43 238.201 2040.43 241.785 Q2040.43 245.345 2037.13 247.921 Q2033.85 250.474 2029.5 250.474 L2021.39 250.474 L2021.39 261.881 Q2021.39 263.263 2021.98 263.708 Q2022.59 264.153 2025.19 264.153 L2026.33 264.153 L2026.33 265.629 Q2024.65 265.488 2019.24 265.488 Q2013.87 265.488 2012.19 265.629 M2021.25 249.233 L2027.86 249.233 Q2030.01 249.233 2031.58 248.624 Q2033.15 248.015 2033.85 247.289 Q2034.58 246.539 2034.98 245.345 Q2035.4 244.127 2035.44 243.471 Q2035.49 242.792 2035.49 241.785 Q2035.49 240.731 2035.44 240.075 Q2035.4 239.395 2034.98 238.201 Q2034.58 236.983 2033.85 236.257 Q2033.15 235.507 2031.58 234.945 Q2030.03 234.36 2027.86 234.36 L2023.59 234.36 Q2021.95 234.36 2021.6 234.688 Q2021.25 235.015 2021.25 236.28 L2021.25 249.233 Z" fill="#000000" fill-rule="nonzero" fill-opacity="1" /><path clip-path="url(#clip820)" d="M2050.81 265.629 L2050.81 264.153 L2051.95 264.153 Q2054.55 264.153 2055.14 263.731 Q2055.75 263.286 2055.75 261.881 L2055.75 236.608 Q2055.75 235.226 2055.14 234.805 Q2054.53 234.36 2051.95 234.36 L2050.81 234.36 L2050.81 232.861 L2068.35 232.861 Q2072.92 232.861 2075.96 235.32 Q2079.01 237.756 2079.01 240.965 Q2079.01 243.612 2076.76 245.72 Q2074.53 247.828 2071.04 248.507 Q2075.03 248.928 2077.65 251.341 Q2080.3 253.73 2080.3 256.845 Q2080.3 260.359 2077.27 263.005 Q2074.25 265.629 2069.62 265.629 L2050.81 265.629 M2059.73 262.232 Q2059.73 263.474 2060.08 263.825 Q2060.43 264.153 2062.07 264.153 L2068.07 264.153 Q2071.51 264.153 2073.5 261.904 Q2075.49 259.632 2075.49 256.798 Q2075.49 253.964 2073.74 251.552 Q2072 249.116 2068.75 249.116 L2059.73 249.116 L2059.73 262.232 M2059.73 248.062 L2066.69 248.062 Q2070.39 248.062 2072.36 245.837 Q2074.35 243.612 2074.35 240.965 Q2074.35 238.623 2072.75 236.491 Q2071.18 234.36 2068.02 234.36 L2062.07 234.36 Q2060.43 234.36 2060.08 234.688 Q2059.73 235.015 2059.73 236.28 L2059.73 248.062 Z" fill="#000000" fill-rule="nonzero" fill-opacity="1" /><path clip-path="url(#clip820)" d="M2084.81 265.629 L2084.81 264.153 Q2089.07 264.059 2090.17 260.921 L2100.1 232.252 Q2100.29 231.666 2100.5 231.479 Q2100.71 231.291 2101.25 231.291 Q2101.53 231.291 2101.69 231.338 Q2101.88 231.385 2102 231.549 Q2102.12 231.713 2102.16 231.807 Q2102.21 231.9 2102.35 232.252 L2112.7 262.232 Q2113.08 263.427 2113.85 263.802 Q2114.62 264.153 2116.8 264.153 L2117.65 264.153 L2117.65 265.629 Q2114.62 265.488 2111.37 265.488 Q2106.19 265.488 2104.46 265.629 L2104.46 264.153 Q2108.44 264.153 2108.44 262.701 Q2108.44 262.607 2108.3 262.022 L2105.77 254.69 L2093.92 254.69 L2091.69 260.968 Q2091.6 261.155 2091.6 261.694 Q2091.6 262.701 2092.54 263.427 Q2093.47 264.153 2095.21 264.153 L2095.21 265.629 Q2090.59 265.488 2089.68 265.488 Q2088.11 265.488 2084.81 265.629 M2094.43 253.215 L2105.23 253.215 L2099.82 237.615 L2094.43 253.215 Z" fill="#000000" fill-rule="nonzero" fill-opacity="1" /><polyline clip-path="url(#clip820)" style="stroke:#ffb000; stroke-linecap:round; stroke-linejoin:round; stroke-width:8; stroke-opacity:1; fill:none" points="1850.73,300.469 1989.12,300.469 "/>
<path clip-path="url(#clip820)" d="M2012.19 316.594 L2012.19 306.99 Q2012.19 306.452 2012.21 306.264 Q2012.23 306.077 2012.37 305.936 Q2012.51 305.796 2012.79 305.796 Q2013.33 305.796 2013.38 306.288 Q2013.52 311.043 2016.36 313.666 Q2019.14 316.266 2023.92 316.266 Q2026.8 316.266 2028.58 314.205 Q2030.36 312.12 2030.36 309.403 Q2030.36 306.803 2028.86 304.976 Q2028.23 304.156 2027.43 303.641 Q2026.66 303.102 2026.17 302.938 Q2025.7 302.774 2024.79 302.54 Q2018.84 301.111 2018.46 300.947 Q2015.63 299.987 2013.9 297.575 Q2012.19 295.139 2012.19 292.164 Q2012.19 288.323 2014.88 285.606 Q2017.6 282.865 2021.53 282.865 Q2023.5 282.865 2025.14 283.498 Q2026.8 284.107 2027.48 284.669 Q2028.16 285.231 2029.21 286.238 L2030.88 283.498 Q2031.25 282.865 2031.6 282.865 Q2031.98 282.865 2032.05 283.1 Q2032.14 283.31 2032.14 284.013 L2032.14 293.663 Q2032.14 294.202 2032.12 294.389 Q2032.1 294.577 2031.93 294.694 Q2031.79 294.811 2031.51 294.811 Q2031.04 294.811 2030.92 294.249 Q2029.59 284.224 2021.58 284.224 Q2018.84 284.224 2017.03 286.074 Q2015.25 287.901 2015.25 290.501 Q2015.25 292.609 2016.57 294.342 Q2017.88 296.052 2020.1 296.591 L2026.24 298.067 Q2029.31 298.793 2031.37 301.51 Q2033.43 304.227 2033.43 307.763 Q2033.43 311.839 2030.76 314.79 Q2028.11 317.741 2023.97 317.741 Q2020.99 317.741 2018.7 316.758 Q2016.4 315.774 2015.16 314.392 Q2014.2 315.985 2013.57 316.875 L2013.43 317.109 Q2013.05 317.741 2012.7 317.741 Q2012.33 317.741 2012.26 317.507 Q2012.19 317.273 2012.19 316.594 Z" fill="#000000" fill-rule="nonzero" fill-opacity="1" /><path clip-path="url(#clip820)" d="M2045.56 312.659 Q2040.65 307.576 2040.65 300.292 Q2040.65 292.984 2045.61 287.925 Q2050.58 282.865 2057.32 282.865 Q2059.01 282.865 2060.44 283.264 Q2061.89 283.638 2063.04 284.411 Q2064.19 285.161 2064.77 285.676 Q2065.38 286.168 2066.2 286.988 L2068.61 283.451 Q2068.99 282.865 2069.36 282.865 Q2069.76 282.865 2069.83 283.1 Q2069.9 283.31 2069.9 284.013 L2069.9 295.396 Q2069.9 296.169 2069.81 296.357 Q2069.71 296.544 2069.13 296.544 Q2068.66 296.544 2068.57 296.404 Q2068.47 296.263 2068.35 295.724 Q2067.63 290.548 2064.72 287.456 Q2061.84 284.364 2057.91 284.364 Q2056.76 284.364 2055.47 284.622 Q2054.21 284.88 2052.33 285.863 Q2050.48 286.847 2049.05 288.463 Q2047.65 290.056 2046.62 293.148 Q2045.59 296.216 2045.59 300.292 Q2045.59 304.32 2046.62 307.412 Q2047.65 310.504 2049.08 312.12 Q2050.53 313.713 2052.4 314.72 Q2054.3 315.727 2055.64 316.008 Q2056.99 316.266 2058.19 316.266 Q2059.01 316.266 2059.97 316.102 Q2060.93 315.914 2062.36 315.399 Q2063.81 314.86 2064.72 313.596 Q2065.64 312.331 2065.64 310.457 L2065.64 307.389 Q2065.64 305.96 2064.93 305.515 Q2064.23 305.07 2061.16 305.07 L2059.64 305.07 L2059.64 303.594 Q2061.37 303.735 2067.35 303.735 Q2067.89 303.735 2073.2 303.594 L2073.2 305.07 Q2070.91 305.07 2070.39 305.421 Q2069.9 305.749 2069.9 307.178 L2069.9 315.54 Q2069.9 316.641 2069.48 316.641 Q2069.1 316.641 2067.98 315.563 Q2066.88 314.486 2066.39 313.666 Q2065.24 315.68 2062.73 316.711 Q2060.25 317.741 2057.42 317.741 Q2050.51 317.741 2045.56 312.659 Z" fill="#000000" fill-rule="nonzero" fill-opacity="1" /><path clip-path="url(#clip820)" d="M2077.49 316.687 L2077.49 315.212 Q2079.22 315.212 2080.32 314.884 Q2081.42 314.533 2081.82 313.9 Q2082.24 313.244 2082.34 312.823 Q2082.43 312.378 2082.43 311.652 L2082.43 287.667 Q2082.43 286.285 2081.82 285.863 Q2081.23 285.418 2078.63 285.418 L2077.49 285.418 L2077.49 283.919 L2085.59 283.919 Q2086.46 283.919 2086.69 284.083 Q2086.93 284.224 2087.28 284.973 L2097.68 311.839 L2108.17 284.833 Q2108.4 284.154 2108.62 284.036 Q2108.85 283.919 2109.76 283.919 L2117.87 283.919 L2117.87 285.418 L2116.72 285.418 Q2114.12 285.418 2113.51 285.863 Q2112.93 286.285 2112.93 287.667 L2112.93 312.94 Q2112.93 314.322 2113.51 314.767 Q2114.12 315.212 2116.72 315.212 L2117.87 315.212 L2117.87 316.687 Q2116.09 316.547 2111 316.547 Q2105.87 316.547 2104.09 316.687 L2104.09 315.212 L2105.27 315.212 Q2107.87 315.212 2108.45 314.79 Q2109.04 314.345 2109.04 312.94 L2109.04 285.418 L2108.99 285.418 L2097.21 315.774 Q2096.88 316.687 2096.34 316.687 Q2095.76 316.687 2095.38 315.633 L2083.81 285.793 L2083.76 285.793 L2083.76 311.652 Q2083.76 312.378 2083.86 312.823 Q2083.95 313.244 2084.35 313.9 Q2084.77 314.533 2085.87 314.884 Q2086.97 315.212 2088.71 315.212 L2088.71 316.687 Q2083.67 316.547 2083.08 316.547 Q2082.52 316.547 2077.49 316.687 Z" fill="#000000" fill-rule="nonzero" fill-opacity="1" /></svg>
