<?xml version="1.0" encoding="utf-8"?>
<svg xmlns="http://www.w3.org/2000/svg" xmlns:xlink="http://www.w3.org/1999/xlink" width="600" height="400" viewBox="0 0 2400 1600">
<defs>
  <clipPath id="clip390">
    <rect x="0" y="0" width="2400" height="1600"/>
  </clipPath>
</defs>
<path clip-path="url(#clip390)" d="M0 1600 L2400 1600 L2400 8.88178e-14 L0 8.88178e-14  Z" fill="#ffffff" fill-rule="evenodd" fill-opacity="1"/>
<defs>
  <clipPath id="clip391">
    <rect x="480" y="0" width="1681" height="1600"/>
  </clipPath>
</defs>
<path clip-path="url(#clip390)" d="M276.876 1423.18 L2352.76 1423.18 L2352.76 47.2441 L276.876 47.2441  Z" fill="#ffffff" fill-rule="evenodd" fill-opacity="1"/>
<defs>
  <clipPath id="clip392">
    <rect x="276" y="47" width="2077" height="1377"/>
  </clipPath>
</defs>
<polyline clip-path="url(#clip392)" style="stroke:#000000; stroke-linecap:round; stroke-linejoin:round; stroke-width:2; stroke-opacity:0.1; fill:none" points="276.876,1423.18 276.876,47.2441 "/>
<polyline clip-path="url(#clip392)" style="stroke:#000000; stroke-linecap:round; stroke-linejoin:round; stroke-width:2; stroke-opacity:0.1; fill:none" points="679.959,1423.18 679.959,47.2441 "/>
<polyline clip-path="url(#clip392)" style="stroke:#000000; stroke-linecap:round; stroke-linejoin:round; stroke-width:2; stroke-opacity:0.1; fill:none" points="1083.04,1423.18 1083.04,47.2441 "/>
<polyline clip-path="url(#clip392)" style="stroke:#000000; stroke-linecap:round; stroke-linejoin:round; stroke-width:2; stroke-opacity:0.1; fill:none" points="1486.13,1423.18 1486.13,47.2441 "/>
<polyline clip-path="url(#clip392)" style="stroke:#000000; stroke-linecap:round; stroke-linejoin:round; stroke-width:2; stroke-opacity:0.1; fill:none" points="1889.21,1423.18 1889.21,47.2441 "/>
<polyline clip-path="url(#clip392)" style="stroke:#000000; stroke-linecap:round; stroke-linejoin:round; stroke-width:2; stroke-opacity:0.1; fill:none" points="2292.29,1423.18 2292.29,47.2441 "/>
<polyline clip-path="url(#clip392)" style="stroke:#000000; stroke-linecap:round; stroke-linejoin:round; stroke-width:2; stroke-opacity:0.1; fill:none" points="276.876,1191.04 2352.76,1191.04 "/>
<polyline clip-path="url(#clip392)" style="stroke:#000000; stroke-linecap:round; stroke-linejoin:round; stroke-width:2; stroke-opacity:0.1; fill:none" points="276.876,610.705 2352.76,610.705 "/>
<polyline clip-path="url(#clip390)" style="stroke:#000000; stroke-linecap:round; stroke-linejoin:round; stroke-width:4; stroke-opacity:1; fill:none" points="276.876,1423.18 2352.76,1423.18 "/>
<polyline clip-path="url(#clip390)" style="stroke:#000000; stroke-linecap:round; stroke-linejoin:round; stroke-width:4; stroke-opacity:1; fill:none" points="276.876,1423.18 276.876,1404.28 "/>
<polyline clip-path="url(#clip390)" style="stroke:#000000; stroke-linecap:round; stroke-linejoin:round; stroke-width:4; stroke-opacity:1; fill:none" points="679.959,1423.18 679.959,1404.28 "/>
<polyline clip-path="url(#clip390)" style="stroke:#000000; stroke-linecap:round; stroke-linejoin:round; stroke-width:4; stroke-opacity:1; fill:none" points="1083.04,1423.18 1083.04,1404.28 "/>
<polyline clip-path="url(#clip390)" style="stroke:#000000; stroke-linecap:round; stroke-linejoin:round; stroke-width:4; stroke-opacity:1; fill:none" points="1486.13,1423.18 1486.13,1404.28 "/>
<polyline clip-path="url(#clip390)" style="stroke:#000000; stroke-linecap:round; stroke-linejoin:round; stroke-width:4; stroke-opacity:1; fill:none" points="1889.21,1423.18 1889.21,1404.28 "/>
<polyline clip-path="url(#clip390)" style="stroke:#000000; stroke-linecap:round; stroke-linejoin:round; stroke-width:4; stroke-opacity:1; fill:none" points="2292.29,1423.18 2292.29,1404.28 "/>
<path clip-path="url(#clip390)" d="M276.876 1454.1 Q273.264 1454.1 271.436 1457.66 Q269.63 1461.2 269.63 1468.33 Q269.63 1475.44 271.436 1479.01 Q273.264 1482.55 276.876 1482.55 Q280.51 1482.55 282.315 1479.01 Q284.144 1475.44 284.144 1468.33 Q284.144 1461.2 282.315 1457.66 Q280.51 1454.1 276.876 1454.1 M276.876 1450.39 Q282.686 1450.39 285.741 1455 Q288.82 1459.58 288.82 1468.33 Q288.82 1477.06 285.741 1481.67 Q282.686 1486.25 276.876 1486.25 Q271.065 1486.25 267.987 1481.67 Q264.931 1477.06 264.931 1468.33 Q264.931 1459.58 267.987 1455 Q271.065 1450.39 276.876 1450.39 Z" fill="#000000" fill-rule="nonzero" fill-opacity="1" /><path clip-path="url(#clip390)" d="M639.566 1481.64 L647.205 1481.64 L647.205 1455.28 L638.894 1456.95 L638.894 1452.69 L647.158 1451.02 L651.834 1451.02 L651.834 1481.64 L659.473 1481.64 L659.473 1485.58 L639.566 1485.58 L639.566 1481.64 Z" fill="#000000" fill-rule="nonzero" fill-opacity="1" /><path clip-path="url(#clip390)" d="M678.917 1454.1 Q675.306 1454.1 673.478 1457.66 Q671.672 1461.2 671.672 1468.33 Q671.672 1475.44 673.478 1479.01 Q675.306 1482.55 678.917 1482.55 Q682.552 1482.55 684.357 1479.01 Q686.186 1475.44 686.186 1468.33 Q686.186 1461.2 684.357 1457.66 Q682.552 1454.1 678.917 1454.1 M678.917 1450.39 Q684.728 1450.39 687.783 1455 Q690.862 1459.58 690.862 1468.33 Q690.862 1477.06 687.783 1481.67 Q684.728 1486.25 678.917 1486.25 Q673.107 1486.25 670.029 1481.67 Q666.973 1477.06 666.973 1468.33 Q666.973 1459.58 670.029 1455 Q673.107 1450.39 678.917 1450.39 Z" fill="#000000" fill-rule="nonzero" fill-opacity="1" /><path clip-path="url(#clip390)" d="M709.079 1454.1 Q705.468 1454.1 703.64 1457.66 Q701.834 1461.2 701.834 1468.33 Q701.834 1475.44 703.64 1479.01 Q705.468 1482.55 709.079 1482.55 Q712.714 1482.55 714.519 1479.01 Q716.348 1475.44 716.348 1468.33 Q716.348 1461.2 714.519 1457.66 Q712.714 1454.1 709.079 1454.1 M709.079 1450.39 Q714.889 1450.39 717.945 1455 Q721.024 1459.58 721.024 1468.33 Q721.024 1477.06 717.945 1481.67 Q714.889 1486.25 709.079 1486.25 Q703.269 1486.25 700.19 1481.67 Q697.135 1477.06 697.135 1468.33 Q697.135 1459.58 700.19 1455 Q703.269 1450.39 709.079 1450.39 Z" fill="#000000" fill-rule="nonzero" fill-opacity="1" /><path clip-path="url(#clip390)" d="M1046.73 1481.64 L1063.05 1481.64 L1063.05 1485.58 L1041.11 1485.58 L1041.11 1481.64 Q1043.77 1478.89 1048.36 1474.26 Q1052.96 1469.61 1054.14 1468.27 Q1056.39 1465.74 1057.27 1464.01 Q1058.17 1462.25 1058.17 1460.56 Q1058.17 1457.8 1056.23 1456.07 Q1054.3 1454.33 1051.2 1454.33 Q1049 1454.33 1046.55 1455.09 Q1044.12 1455.86 1041.34 1457.41 L1041.34 1452.69 Q1044.17 1451.55 1046.62 1450.97 Q1049.07 1450.39 1051.11 1450.39 Q1056.48 1450.39 1059.67 1453.08 Q1062.87 1455.77 1062.87 1460.26 Q1062.87 1462.39 1062.06 1464.31 Q1061.27 1466.2 1059.17 1468.8 Q1058.59 1469.47 1055.48 1472.69 Q1052.38 1475.88 1046.73 1481.64 Z" fill="#000000" fill-rule="nonzero" fill-opacity="1" /><path clip-path="url(#clip390)" d="M1082.87 1454.1 Q1079.26 1454.1 1077.43 1457.66 Q1075.62 1461.2 1075.62 1468.33 Q1075.62 1475.44 1077.43 1479.01 Q1079.26 1482.55 1082.87 1482.55 Q1086.5 1482.55 1088.31 1479.01 Q1090.14 1475.44 1090.14 1468.33 Q1090.14 1461.2 1088.31 1457.66 Q1086.5 1454.1 1082.87 1454.1 M1082.87 1450.39 Q1088.68 1450.39 1091.73 1455 Q1094.81 1459.58 1094.81 1468.33 Q1094.81 1477.06 1091.73 1481.67 Q1088.68 1486.25 1082.87 1486.25 Q1077.06 1486.25 1073.98 1481.67 Q1070.92 1477.06 1070.92 1468.33 Q1070.92 1459.58 1073.98 1455 Q1077.06 1450.39 1082.87 1450.39 Z" fill="#000000" fill-rule="nonzero" fill-opacity="1" /><path clip-path="url(#clip390)" d="M1113.03 1454.1 Q1109.42 1454.1 1107.59 1457.66 Q1105.79 1461.2 1105.79 1468.33 Q1105.79 1475.44 1107.59 1479.01 Q1109.42 1482.55 1113.03 1482.55 Q1116.67 1482.55 1118.47 1479.01 Q1120.3 1475.44 1120.3 1468.33 Q1120.3 1461.2 1118.47 1457.66 Q1116.67 1454.1 1113.03 1454.1 M1113.03 1450.39 Q1118.84 1450.39 1121.9 1455 Q1124.98 1459.58 1124.98 1468.33 Q1124.98 1477.06 1121.9 1481.67 Q1118.84 1486.25 1113.03 1486.25 Q1107.22 1486.25 1104.14 1481.67 Q1101.09 1477.06 1101.09 1468.33 Q1101.09 1459.58 1104.14 1455 Q1107.22 1450.39 1113.03 1450.39 Z" fill="#000000" fill-rule="nonzero" fill-opacity="1" /><path clip-path="url(#clip390)" d="M1459.89 1466.95 Q1463.24 1467.66 1465.12 1469.93 Q1467.02 1472.2 1467.02 1475.53 Q1467.02 1480.65 1463.5 1483.45 Q1459.98 1486.25 1453.5 1486.25 Q1451.32 1486.25 1449.01 1485.81 Q1446.72 1485.39 1444.26 1484.54 L1444.26 1480.02 Q1446.21 1481.16 1448.52 1481.74 Q1450.84 1482.32 1453.36 1482.32 Q1457.76 1482.32 1460.05 1480.58 Q1462.36 1478.84 1462.36 1475.53 Q1462.36 1472.48 1460.21 1470.77 Q1458.08 1469.03 1454.26 1469.03 L1450.24 1469.03 L1450.24 1465.19 L1454.45 1465.19 Q1457.9 1465.19 1459.73 1463.82 Q1461.55 1462.43 1461.55 1459.84 Q1461.55 1457.18 1459.66 1455.77 Q1457.78 1454.33 1454.26 1454.33 Q1452.34 1454.33 1450.14 1454.75 Q1447.94 1455.16 1445.3 1456.04 L1445.3 1451.88 Q1447.97 1451.14 1450.28 1450.77 Q1452.62 1450.39 1454.68 1450.39 Q1460 1450.39 1463.11 1452.83 Q1466.21 1455.23 1466.21 1459.35 Q1466.21 1462.22 1464.56 1464.21 Q1462.92 1466.18 1459.89 1466.95 Z" fill="#000000" fill-rule="nonzero" fill-opacity="1" /><path clip-path="url(#clip390)" d="M1485.88 1454.1 Q1482.27 1454.1 1480.44 1457.66 Q1478.64 1461.2 1478.64 1468.33 Q1478.64 1475.44 1480.44 1479.01 Q1482.27 1482.55 1485.88 1482.55 Q1489.52 1482.55 1491.32 1479.01 Q1493.15 1475.44 1493.15 1468.33 Q1493.15 1461.2 1491.32 1457.66 Q1489.52 1454.1 1485.88 1454.1 M1485.88 1450.39 Q1491.69 1450.39 1494.75 1455 Q1497.83 1459.58 1497.83 1468.33 Q1497.83 1477.06 1494.75 1481.67 Q1491.69 1486.25 1485.88 1486.25 Q1480.07 1486.25 1476.99 1481.67 Q1473.94 1477.06 1473.94 1468.33 Q1473.94 1459.58 1476.99 1455 Q1480.07 1450.39 1485.88 1450.39 Z" fill="#000000" fill-rule="nonzero" fill-opacity="1" /><path clip-path="url(#clip390)" d="M1516.05 1454.1 Q1512.43 1454.1 1510.61 1457.66 Q1508.8 1461.2 1508.8 1468.33 Q1508.8 1475.44 1510.61 1479.01 Q1512.43 1482.55 1516.05 1482.55 Q1519.68 1482.55 1521.48 1479.01 Q1523.31 1475.44 1523.31 1468.33 Q1523.31 1461.2 1521.48 1457.66 Q1519.68 1454.1 1516.05 1454.1 M1516.05 1450.39 Q1521.86 1450.39 1524.91 1455 Q1527.99 1459.58 1527.99 1468.33 Q1527.99 1477.06 1524.91 1481.67 Q1521.86 1486.25 1516.05 1486.25 Q1510.23 1486.25 1507.16 1481.67 Q1504.1 1477.06 1504.1 1468.33 Q1504.1 1459.58 1507.16 1455 Q1510.23 1450.39 1516.05 1450.39 Z" fill="#000000" fill-rule="nonzero" fill-opacity="1" /><path clip-path="url(#clip390)" d="M1862.3 1455.09 L1850.49 1473.54 L1862.3 1473.54 L1862.3 1455.09 M1861.07 1451.02 L1866.95 1451.02 L1866.95 1473.54 L1871.88 1473.54 L1871.88 1477.43 L1866.95 1477.43 L1866.95 1485.58 L1862.3 1485.58 L1862.3 1477.43 L1846.7 1477.43 L1846.7 1472.92 L1861.07 1451.02 Z" fill="#000000" fill-rule="nonzero" fill-opacity="1" /><path clip-path="url(#clip390)" d="M1889.61 1454.1 Q1886 1454.1 1884.18 1457.66 Q1882.37 1461.2 1882.37 1468.33 Q1882.37 1475.44 1884.18 1479.01 Q1886 1482.55 1889.61 1482.55 Q1893.25 1482.55 1895.05 1479.01 Q1896.88 1475.44 1896.88 1468.33 Q1896.88 1461.2 1895.05 1457.66 Q1893.25 1454.1 1889.61 1454.1 M1889.61 1450.39 Q1895.43 1450.39 1898.48 1455 Q1901.56 1459.58 1901.56 1468.33 Q1901.56 1477.06 1898.48 1481.67 Q1895.43 1486.25 1889.61 1486.25 Q1883.8 1486.25 1880.73 1481.67 Q1877.67 1477.06 1877.67 1468.33 Q1877.67 1459.58 1880.73 1455 Q1883.8 1450.39 1889.61 1450.39 Z" fill="#000000" fill-rule="nonzero" fill-opacity="1" /><path clip-path="url(#clip390)" d="M1919.78 1454.1 Q1916.17 1454.1 1914.34 1457.66 Q1912.53 1461.2 1912.53 1468.33 Q1912.53 1475.44 1914.34 1479.01 Q1916.17 1482.55 1919.78 1482.55 Q1923.41 1482.55 1925.22 1479.01 Q1927.05 1475.44 1927.05 1468.33 Q1927.05 1461.2 1925.22 1457.66 Q1923.41 1454.1 1919.78 1454.1 M1919.78 1450.39 Q1925.59 1450.39 1928.64 1455 Q1931.72 1459.58 1931.72 1468.33 Q1931.72 1477.06 1928.64 1481.67 Q1925.59 1486.25 1919.78 1486.25 Q1913.97 1486.25 1910.89 1481.67 Q1907.83 1477.06 1907.83 1468.33 Q1907.83 1459.58 1910.89 1455 Q1913.97 1450.39 1919.78 1450.39 Z" fill="#000000" fill-rule="nonzero" fill-opacity="1" /><path clip-path="url(#clip390)" d="M2251.91 1451.02 L2270.27 1451.02 L2270.27 1454.96 L2256.19 1454.96 L2256.19 1463.43 Q2257.21 1463.08 2258.23 1462.92 Q2259.25 1462.73 2260.27 1462.73 Q2266.06 1462.73 2269.43 1465.9 Q2272.81 1469.08 2272.81 1474.49 Q2272.81 1480.07 2269.34 1483.17 Q2265.87 1486.25 2259.55 1486.25 Q2257.37 1486.25 2255.11 1485.88 Q2252.86 1485.51 2250.45 1484.77 L2250.45 1480.07 Q2252.54 1481.2 2254.76 1481.76 Q2256.98 1482.32 2259.46 1482.32 Q2263.46 1482.32 2265.8 1480.21 Q2268.14 1478.1 2268.14 1474.49 Q2268.14 1470.88 2265.8 1468.77 Q2263.46 1466.67 2259.46 1466.67 Q2257.58 1466.67 2255.71 1467.08 Q2253.86 1467.5 2251.91 1468.38 L2251.91 1451.02 Z" fill="#000000" fill-rule="nonzero" fill-opacity="1" /><path clip-path="url(#clip390)" d="M2292.03 1454.1 Q2288.42 1454.1 2286.59 1457.66 Q2284.78 1461.2 2284.78 1468.33 Q2284.78 1475.44 2286.59 1479.01 Q2288.42 1482.55 2292.03 1482.55 Q2295.66 1482.55 2297.47 1479.01 Q2299.3 1475.44 2299.3 1468.33 Q2299.3 1461.2 2297.47 1457.66 Q2295.66 1454.1 2292.03 1454.1 M2292.03 1450.39 Q2297.84 1450.39 2300.89 1455 Q2303.97 1459.58 2303.97 1468.33 Q2303.97 1477.06 2300.89 1481.67 Q2297.84 1486.25 2292.03 1486.25 Q2286.22 1486.25 2283.14 1481.67 Q2280.08 1477.06 2280.08 1468.33 Q2280.08 1459.58 2283.14 1455 Q2286.22 1450.39 2292.03 1450.39 Z" fill="#000000" fill-rule="nonzero" fill-opacity="1" /><path clip-path="url(#clip390)" d="M2322.19 1454.1 Q2318.58 1454.1 2316.75 1457.66 Q2314.94 1461.2 2314.94 1468.33 Q2314.94 1475.44 2316.75 1479.01 Q2318.58 1482.55 2322.19 1482.55 Q2325.82 1482.55 2327.63 1479.01 Q2329.46 1475.44 2329.46 1468.33 Q2329.46 1461.2 2327.63 1457.66 Q2325.82 1454.1 2322.19 1454.1 M2322.19 1450.39 Q2328 1450.39 2331.05 1455 Q2334.13 1459.58 2334.13 1468.33 Q2334.13 1477.06 2331.05 1481.67 Q2328 1486.25 2322.19 1486.25 Q2316.38 1486.25 2313.3 1481.67 Q2310.24 1477.06 2310.24 1468.33 Q2310.24 1459.58 2313.3 1455 Q2316.38 1450.39 2322.19 1450.39 Z" fill="#000000" fill-rule="nonzero" fill-opacity="1" /><path clip-path="url(#clip390)" d="M1146.61 1539.49 Q1146.61 1529.41 1153.06 1522.39 Q1159.53 1515.34 1168.51 1515.34 Q1177.56 1515.34 1184.01 1522.39 Q1190.48 1529.45 1190.48 1539.49 Q1190.48 1549.45 1184.01 1556.37 Q1177.53 1563.29 1168.51 1563.29 Q1159.63 1563.29 1153.12 1556.4 Q1146.61 1549.51 1146.61 1539.49 M1153.41 1538.56 Q1153.41 1544.68 1154.86 1549.38 Q1156.31 1554.05 1158.63 1556.59 Q1160.98 1559.14 1163.49 1560.36 Q1166 1561.59 1168.58 1561.59 Q1171.09 1561.59 1173.54 1560.4 Q1176.02 1559.2 1178.37 1556.69 Q1180.72 1554.18 1182.2 1549.48 Q1183.68 1544.78 1183.68 1538.56 Q1183.68 1533.73 1182.65 1529.86 Q1181.62 1525.97 1180.01 1523.62 Q1178.4 1521.26 1176.31 1519.72 Q1174.25 1518.17 1172.28 1517.59 Q1170.35 1516.98 1168.51 1516.98 Q1166.2 1516.98 1163.78 1518.01 Q1161.36 1519.04 1158.92 1521.33 Q1156.5 1523.58 1154.96 1528.06 Q1153.41 1532.5 1153.41 1538.56 Z" fill="#000000" fill-rule="nonzero" fill-opacity="1" /><path clip-path="url(#clip390)" d="M1198.16 1561.84 L1198.16 1559.82 Q1201.67 1559.82 1202.47 1559.4 Q1203.31 1558.95 1203.31 1556.82 L1203.31 1539.14 Q1203.31 1536.69 1202.44 1536.08 Q1201.6 1535.47 1198.16 1535.47 L1198.16 1533.41 L1207.34 1532.7 L1207.34 1539.94 Q1208.27 1537.11 1210.23 1534.92 Q1212.23 1532.7 1215.45 1532.7 Q1217.58 1532.7 1218.93 1533.89 Q1220.31 1535.08 1220.31 1536.72 Q1220.31 1538.17 1219.41 1538.91 Q1218.54 1539.62 1217.48 1539.62 Q1216.29 1539.62 1215.45 1538.88 Q1214.65 1538.11 1214.65 1536.79 Q1214.65 1535.98 1215 1535.37 Q1215.39 1534.73 1215.68 1534.5 Q1215.97 1534.28 1216.16 1534.21 Q1216.03 1534.15 1215.45 1534.15 Q1211.81 1534.15 1209.72 1537.79 Q1207.66 1541.39 1207.66 1546.55 L1207.66 1556.69 Q1207.66 1558.59 1208.43 1559.2 Q1209.24 1559.82 1212.68 1559.82 L1214.07 1559.82 L1214.07 1561.84 Q1211.43 1561.65 1205.69 1561.65 Q1204.89 1561.65 1203.63 1561.68 Q1202.38 1561.72 1200.73 1561.78 Q1199.09 1561.84 1198.16 1561.84 Z" fill="#000000" fill-rule="nonzero" fill-opacity="1" /><path clip-path="url(#clip390)" d="M1225.72 1555.56 Q1225.72 1549.96 1232.32 1547 Q1236.28 1545.1 1244.46 1544.61 L1244.46 1542.2 Q1244.46 1538.11 1242.3 1535.95 Q1240.18 1533.76 1237.47 1533.76 Q1232.64 1533.76 1230.32 1536.79 Q1232.29 1536.85 1233 1537.85 Q1233.71 1538.82 1233.71 1539.82 Q1233.71 1541.14 1232.87 1542.01 Q1232.06 1542.84 1230.68 1542.84 Q1229.36 1542.84 1228.49 1542.04 Q1227.62 1541.2 1227.62 1539.75 Q1227.62 1536.53 1230.52 1534.4 Q1233.45 1532.28 1237.6 1532.28 Q1243.01 1532.28 1246.62 1535.92 Q1247.75 1537.05 1248.29 1538.5 Q1248.87 1539.94 1248.94 1540.91 Q1249 1541.84 1249 1543.71 L1249 1556.88 Q1249 1557.27 1249.13 1557.92 Q1249.26 1558.56 1249.84 1559.4 Q1250.45 1560.2 1251.45 1560.2 Q1253.83 1560.2 1253.8 1555.98 L1253.8 1552.28 L1255.48 1552.28 L1255.48 1555.98 Q1255.48 1559.49 1253.61 1560.88 Q1251.77 1562.23 1250.07 1562.23 Q1247.88 1562.23 1246.49 1560.62 Q1245.11 1559.01 1244.91 1556.82 Q1243.91 1559.33 1241.63 1560.97 Q1239.37 1562.59 1236.28 1562.59 Q1233.9 1562.59 1231.64 1561.97 Q1229.42 1561.39 1227.55 1559.75 Q1225.72 1558.08 1225.72 1555.56 M1230.81 1555.5 Q1230.81 1557.95 1232.55 1559.53 Q1234.29 1561.1 1236.73 1561.1 Q1239.5 1561.1 1241.98 1558.98 Q1244.46 1556.82 1244.46 1552.6 L1244.46 1546 Q1237.15 1546.26 1233.96 1549.19 Q1230.81 1552.09 1230.81 1555.5 Z" fill="#000000" fill-rule="nonzero" fill-opacity="1" /><path clip-path="url(#clip390)" d="M1262.57 1558.24 Q1258.38 1553.86 1258.38 1547.61 Q1258.38 1541.33 1262.5 1536.82 Q1266.63 1532.28 1272.68 1532.28 Q1276.71 1532.28 1279.73 1534.21 Q1282.76 1536.11 1282.76 1539.36 Q1282.76 1540.81 1281.89 1541.65 Q1281.06 1542.46 1279.73 1542.46 Q1278.35 1542.46 1277.51 1541.62 Q1276.71 1540.75 1276.71 1539.43 Q1276.71 1538.85 1276.9 1538.27 Q1277.09 1537.69 1277.8 1537.08 Q1278.54 1536.47 1279.8 1536.37 Q1277.45 1533.95 1272.88 1533.95 Q1272.81 1533.95 1272.75 1533.95 Q1269.4 1533.95 1266.63 1537.11 Q1263.86 1540.27 1263.86 1547.48 Q1263.86 1551.25 1264.76 1554.02 Q1265.69 1556.76 1267.21 1558.17 Q1268.72 1559.59 1270.2 1560.27 Q1271.68 1560.91 1273.13 1560.91 Q1279.61 1560.91 1281.8 1553.99 Q1281.99 1553.34 1282.63 1553.34 Q1283.5 1553.34 1283.5 1553.99 Q1283.5 1554.31 1283.25 1555.15 Q1282.99 1555.98 1282.18 1557.3 Q1281.38 1558.62 1280.22 1559.78 Q1279.09 1560.91 1277.06 1561.75 Q1275.07 1562.59 1272.55 1562.59 Q1266.76 1562.59 1262.57 1558.24 Z" fill="#000000" fill-rule="nonzero" fill-opacity="1" /><path clip-path="url(#clip390)" d="M1286.85 1561.84 L1286.85 1559.82 Q1290.36 1559.82 1291.17 1559.4 Q1291.97 1558.95 1291.97 1556.82 L1291.97 1522.52 Q1291.97 1520.07 1291.1 1519.46 Q1290.26 1518.85 1286.85 1518.85 L1286.85 1516.79 L1296.32 1516.08 L1296.32 1556.82 Q1296.32 1558.95 1297.16 1559.4 Q1297.99 1559.82 1301.47 1559.82 L1301.47 1561.84 Q1300.67 1561.84 1298.99 1561.78 Q1297.32 1561.72 1296.09 1561.68 Q1294.87 1561.65 1294.16 1561.65 Q1293.39 1561.65 1286.85 1561.84 Z" fill="#000000" fill-rule="nonzero" fill-opacity="1" /><path clip-path="url(#clip390)" d="M1305.73 1547.32 Q1305.73 1541.1 1309.72 1536.69 Q1313.72 1532.28 1319.45 1532.28 Q1325.25 1532.28 1328.24 1536.05 Q1331.27 1539.82 1331.27 1545.23 Q1331.27 1546.22 1331.01 1546.42 Q1330.75 1546.61 1329.63 1546.61 L1311.2 1546.61 Q1311.2 1553.34 1313.2 1556.5 Q1315.97 1560.91 1320.64 1560.91 Q1321.28 1560.91 1322.06 1560.78 Q1322.83 1560.65 1324.41 1560.11 Q1325.99 1559.53 1327.37 1558.01 Q1328.76 1556.5 1329.56 1554.11 Q1329.75 1553.18 1330.4 1553.21 Q1331.27 1553.21 1331.27 1553.99 Q1331.27 1554.57 1330.62 1555.89 Q1330.01 1557.17 1328.82 1558.72 Q1327.63 1560.27 1325.31 1561.43 Q1323.02 1562.59 1320.25 1562.59 Q1314.46 1562.59 1310.08 1558.21 Q1305.73 1553.79 1305.73 1547.32 M1311.27 1545.23 L1326.92 1545.23 Q1326.92 1543.84 1326.66 1542.3 Q1326.44 1540.75 1325.73 1538.62 Q1325.05 1536.47 1323.44 1535.11 Q1321.83 1533.76 1319.45 1533.76 Q1318.39 1533.76 1317.23 1534.21 Q1316.1 1534.66 1314.71 1535.76 Q1313.33 1536.85 1312.36 1539.33 Q1311.4 1541.81 1311.27 1545.23 Z" fill="#000000" fill-rule="nonzero" fill-opacity="1" /><path clip-path="url(#clip390)" d="M1334.72 1539.3 Q1334.72 1529.35 1341.52 1522.36 Q1348.32 1515.34 1357.65 1515.34 Q1360.55 1515.34 1363.13 1516.4 Q1365.71 1517.46 1366.9 1518.4 Q1368.09 1519.3 1369.8 1521.01 L1373.11 1516.14 Q1373.63 1515.34 1374.14 1515.34 Q1374.69 1515.34 1374.79 1515.66 Q1374.88 1515.95 1374.88 1516.92 L1374.88 1532.57 Q1374.88 1533.63 1374.76 1533.89 Q1374.63 1534.15 1373.82 1534.15 Q1373.18 1534.15 1373.02 1533.95 Q1372.89 1533.76 1372.76 1533.02 Q1371.76 1525.9 1367.8 1521.65 Q1363.87 1517.4 1358.4 1517.4 Q1356.82 1517.4 1355.05 1517.75 Q1353.31 1518.11 1350.76 1519.46 Q1348.25 1520.81 1346.29 1523.07 Q1344.35 1525.29 1342.94 1529.54 Q1341.52 1533.76 1341.52 1539.36 Q1341.52 1544.9 1342.94 1549.16 Q1344.35 1553.41 1346.29 1555.63 Q1348.25 1557.82 1350.76 1559.17 Q1353.31 1560.52 1355.08 1560.91 Q1356.88 1561.26 1358.46 1561.26 Q1364.13 1561.26 1368.48 1557.24 Q1372.82 1553.21 1373.24 1546.42 Q1373.31 1546.1 1373.31 1545.97 Q1373.31 1545.81 1373.37 1545.64 Q1373.44 1545.48 1373.6 1545.42 Q1373.76 1545.35 1374.02 1545.35 Q1374.88 1545.35 1374.88 1546.48 Q1374.88 1552.76 1370.05 1558.04 Q1365.26 1563.29 1357.65 1563.29 Q1348.28 1563.29 1341.49 1556.34 Q1334.72 1549.38 1334.72 1539.3 Z" fill="#000000" fill-rule="nonzero" fill-opacity="1" /><path clip-path="url(#clip390)" d="M1387.15 1555.56 Q1387.15 1549.96 1393.75 1547 Q1397.71 1545.1 1405.89 1544.61 L1405.89 1542.2 Q1405.89 1538.11 1403.74 1535.95 Q1401.61 1533.76 1398.91 1533.76 Q1394.07 1533.76 1391.76 1536.79 Q1393.72 1536.85 1394.43 1537.85 Q1395.14 1538.82 1395.14 1539.82 Q1395.14 1541.14 1394.3 1542.01 Q1393.49 1542.84 1392.11 1542.84 Q1390.79 1542.84 1389.92 1542.04 Q1389.05 1541.2 1389.05 1539.75 Q1389.05 1536.53 1391.95 1534.4 Q1394.88 1532.28 1399.03 1532.28 Q1404.44 1532.28 1408.05 1535.92 Q1409.18 1537.05 1409.73 1538.5 Q1410.31 1539.94 1410.37 1540.91 Q1410.44 1541.84 1410.44 1543.71 L1410.44 1556.88 Q1410.44 1557.27 1410.56 1557.92 Q1410.69 1558.56 1411.27 1559.4 Q1411.88 1560.2 1412.88 1560.2 Q1415.27 1560.2 1415.23 1555.98 L1415.23 1552.28 L1416.91 1552.28 L1416.91 1555.98 Q1416.91 1559.49 1415.04 1560.88 Q1413.2 1562.23 1411.5 1562.23 Q1409.31 1562.23 1407.92 1560.62 Q1406.54 1559.01 1406.34 1556.82 Q1405.35 1559.33 1403.06 1560.97 Q1400.81 1562.59 1397.71 1562.59 Q1395.33 1562.59 1393.08 1561.97 Q1390.85 1561.39 1388.99 1559.75 Q1387.15 1558.08 1387.15 1555.56 M1392.24 1555.5 Q1392.24 1557.95 1393.98 1559.53 Q1395.72 1561.1 1398.16 1561.1 Q1400.93 1561.1 1403.41 1558.98 Q1405.89 1556.82 1405.89 1552.6 L1405.89 1546 Q1398.58 1546.26 1395.39 1549.19 Q1392.24 1552.09 1392.24 1555.5 Z" fill="#000000" fill-rule="nonzero" fill-opacity="1" /><path clip-path="url(#clip390)" d="M1419.55 1561.84 L1419.55 1559.82 Q1423.06 1559.82 1423.87 1559.4 Q1424.67 1558.95 1424.67 1556.82 L1424.67 1522.52 Q1424.67 1520.07 1423.8 1519.46 Q1422.96 1518.85 1419.55 1518.85 L1419.55 1516.79 L1429.02 1516.08 L1429.02 1556.82 Q1429.02 1558.95 1429.86 1559.4 Q1430.69 1559.82 1434.17 1559.82 L1434.17 1561.84 Q1433.37 1561.84 1431.69 1561.78 Q1430.02 1561.72 1428.79 1561.68 Q1427.57 1561.65 1426.86 1561.65 Q1426.09 1561.65 1419.55 1561.84 Z" fill="#000000" fill-rule="nonzero" fill-opacity="1" /><path clip-path="url(#clip390)" d="M1438.43 1561.84 L1438.43 1559.82 Q1441.94 1559.82 1442.74 1559.4 Q1443.55 1558.95 1443.55 1556.82 L1443.55 1522.52 Q1443.55 1520.07 1442.68 1519.46 Q1441.84 1518.85 1438.43 1518.85 L1438.43 1516.79 L1447.9 1516.08 L1447.9 1556.82 Q1447.9 1558.95 1448.73 1559.4 Q1449.57 1559.82 1453.05 1559.82 L1453.05 1561.84 Q1452.25 1561.84 1450.57 1561.78 Q1448.9 1561.72 1447.67 1561.68 Q1446.45 1561.65 1445.74 1561.65 Q1444.97 1561.65 1438.43 1561.84 Z" fill="#000000" fill-rule="nonzero" fill-opacity="1" /><path clip-path="url(#clip390)" d="M1457.31 1560.97 L1457.31 1552.28 Q1457.31 1551.54 1457.34 1551.28 Q1457.37 1551.02 1457.56 1550.83 Q1457.76 1550.64 1458.14 1550.64 Q1458.6 1550.64 1458.76 1550.83 Q1458.95 1551.02 1459.08 1551.76 Q1460.08 1556.3 1462.2 1558.72 Q1464.36 1561.1 1468.26 1561.1 Q1471.96 1561.1 1473.83 1559.46 Q1475.7 1557.82 1475.7 1555.11 Q1475.7 1550.28 1468.84 1549.06 Q1464.88 1548.25 1463.23 1547.74 Q1461.59 1547.19 1460.14 1546 Q1457.31 1543.68 1457.31 1540.4 Q1457.31 1537.11 1459.79 1534.69 Q1462.3 1532.28 1467.84 1532.28 Q1471.54 1532.28 1474.05 1534.15 Q1474.79 1533.57 1475.18 1533.08 Q1476.05 1532.28 1476.5 1532.28 Q1477.02 1532.28 1477.11 1532.63 Q1477.21 1532.96 1477.21 1533.89 L1477.21 1540.52 Q1477.21 1541.26 1477.18 1541.52 Q1477.15 1541.78 1476.95 1541.97 Q1476.76 1542.13 1476.34 1542.13 Q1475.6 1542.13 1475.57 1541.52 Q1475.05 1533.54 1467.84 1533.54 Q1463.94 1533.54 1462.2 1535.05 Q1460.46 1536.53 1460.46 1538.56 Q1460.46 1539.69 1460.98 1540.56 Q1461.53 1541.39 1462.2 1541.91 Q1462.91 1542.39 1464.2 1542.88 Q1465.49 1543.33 1466.26 1543.49 Q1467.07 1543.65 1468.58 1543.97 Q1473.86 1544.97 1476.08 1547.13 Q1478.85 1549.9 1478.85 1553.41 Q1478.85 1557.3 1476.21 1559.94 Q1473.57 1562.59 1468.26 1562.59 Q1463.97 1562.59 1460.98 1559.72 Q1460.59 1560.11 1460.3 1560.46 Q1460.01 1560.78 1459.88 1560.91 Q1459.79 1561.04 1459.75 1561.14 Q1459.72 1561.2 1459.66 1561.26 Q1458.34 1562.59 1458.02 1562.59 Q1457.5 1562.59 1457.4 1562.23 Q1457.31 1561.91 1457.31 1560.97 Z" fill="#000000" fill-rule="nonzero" fill-opacity="1" /><polyline clip-path="url(#clip390)" style="stroke:#000000; stroke-linecap:round; stroke-linejoin:round; stroke-width:4; stroke-opacity:1; fill:none" points="276.876,1423.18 276.876,47.2441 "/>
<polyline clip-path="url(#clip390)" style="stroke:#000000; stroke-linecap:round; stroke-linejoin:round; stroke-width:4; stroke-opacity:1; fill:none" points="276.876,1191.04 295.773,1191.04 "/>
<polyline clip-path="url(#clip390)" style="stroke:#000000; stroke-linecap:round; stroke-linejoin:round; stroke-width:4; stroke-opacity:1; fill:none" points="276.876,610.705 295.773,610.705 "/>
<path clip-path="url(#clip390)" d="M114.931 1210.84 L122.57 1210.84 L122.57 1184.47 L114.26 1186.14 L114.26 1181.88 L122.524 1180.21 L127.2 1180.21 L127.2 1210.84 L134.839 1210.84 L134.839 1214.77 L114.931 1214.77 L114.931 1210.84 Z" fill="#000000" fill-rule="nonzero" fill-opacity="1" /><path clip-path="url(#clip390)" d="M154.283 1183.29 Q150.672 1183.29 148.843 1186.86 Q147.038 1190.4 147.038 1197.53 Q147.038 1204.63 148.843 1208.2 Q150.672 1211.74 154.283 1211.74 Q157.917 1211.74 159.723 1208.2 Q161.552 1204.63 161.552 1197.53 Q161.552 1190.4 159.723 1186.86 Q157.917 1183.29 154.283 1183.29 M154.283 1179.59 Q160.093 1179.59 163.149 1184.19 Q166.227 1188.78 166.227 1197.53 Q166.227 1206.25 163.149 1210.86 Q160.093 1215.44 154.283 1215.44 Q148.473 1215.44 145.394 1210.86 Q142.339 1206.25 142.339 1197.53 Q142.339 1188.78 145.394 1184.19 Q148.473 1179.59 154.283 1179.59 Z" fill="#000000" fill-rule="nonzero" fill-opacity="1" /><path clip-path="url(#clip390)" d="M166.227 1173.69 L190.339 1173.69 L190.339 1176.89 L166.227 1176.89 L166.227 1173.69 Z" fill="#000000" fill-rule="nonzero" fill-opacity="1" /><path clip-path="url(#clip390)" d="M199.197 1184.16 L205.404 1184.16 L205.404 1162.74 L198.652 1164.1 L198.652 1160.64 L205.366 1159.28 L209.166 1159.28 L209.166 1184.16 L215.372 1184.16 L215.372 1187.36 L199.197 1187.36 L199.197 1184.16 Z" fill="#000000" fill-rule="nonzero" fill-opacity="1" /><path clip-path="url(#clip390)" d="M231.171 1161.78 Q228.237 1161.78 226.751 1164.68 Q225.284 1167.56 225.284 1173.35 Q225.284 1179.12 226.751 1182.02 Q228.237 1184.9 231.171 1184.9 Q234.124 1184.9 235.591 1182.02 Q237.076 1179.12 237.076 1173.35 Q237.076 1167.56 235.591 1164.68 Q234.124 1161.78 231.171 1161.78 M231.171 1158.77 Q235.891 1158.77 238.374 1162.52 Q240.876 1166.24 240.876 1173.35 Q240.876 1180.44 238.374 1184.18 Q235.891 1187.91 231.171 1187.91 Q226.45 1187.91 223.949 1184.18 Q221.466 1180.44 221.466 1173.35 Q221.466 1166.24 223.949 1162.52 Q226.45 1158.77 231.171 1158.77 Z" fill="#000000" fill-rule="nonzero" fill-opacity="1" /><path clip-path="url(#clip390)" d="M140.247 630.497 L147.886 630.497 L147.886 604.132 L139.575 605.798 L139.575 601.539 L147.839 599.872 L152.515 599.872 L152.515 630.497 L160.154 630.497 L160.154 634.432 L140.247 634.432 L140.247 630.497 Z" fill="#000000" fill-rule="nonzero" fill-opacity="1" /><path clip-path="url(#clip390)" d="M179.598 602.951 Q175.987 602.951 174.159 606.516 Q172.353 610.058 172.353 617.187 Q172.353 624.294 174.159 627.858 Q175.987 631.4 179.598 631.4 Q183.233 631.4 185.038 627.858 Q186.867 624.294 186.867 617.187 Q186.867 610.058 185.038 606.516 Q183.233 602.951 179.598 602.951 M179.598 599.247 Q185.409 599.247 188.464 603.854 Q191.543 608.437 191.543 617.187 Q191.543 625.914 188.464 630.52 Q185.409 635.104 179.598 635.104 Q173.788 635.104 170.71 630.52 Q167.654 625.914 167.654 617.187 Q167.654 608.437 170.71 603.854 Q173.788 599.247 179.598 599.247 Z" fill="#000000" fill-rule="nonzero" fill-opacity="1" /><path clip-path="url(#clip390)" d="M191.543 593.349 L215.654 593.349 L215.654 596.546 L191.543 596.546 L191.543 593.349 Z" fill="#000000" fill-rule="nonzero" fill-opacity="1" /><path clip-path="url(#clip390)" d="M223.892 578.942 L238.807 578.942 L238.807 582.139 L227.372 582.139 L227.372 589.023 Q228.199 588.741 229.027 588.609 Q229.854 588.459 230.682 588.459 Q235.384 588.459 238.13 591.035 Q240.876 593.612 240.876 598.013 Q240.876 602.546 238.054 605.066 Q235.233 607.567 230.099 607.567 Q228.331 607.567 226.488 607.267 Q224.663 606.966 222.707 606.364 L222.707 602.546 Q224.4 603.467 226.205 603.919 Q228.011 604.37 230.023 604.37 Q233.277 604.37 235.177 602.659 Q237.076 600.947 237.076 598.013 Q237.076 595.079 235.177 593.368 Q233.277 591.656 230.023 591.656 Q228.5 591.656 226.977 591.995 Q225.472 592.333 223.892 593.048 L223.892 578.942 Z" fill="#000000" fill-rule="nonzero" fill-opacity="1" /><path clip-path="url(#clip390)" d="M66.0841 1072.66 L64.0551 1072.66 Q64.0551 1070.27 63.6042 1068.76 Q63.1212 1067.25 62.2516 1066.7 Q61.3498 1066.12 60.7701 1065.99 Q60.1582 1065.86 59.1598 1065.86 L26.181 1065.86 Q24.2809 1065.86 23.7012 1066.7 Q23.0893 1067.5 23.0893 1071.08 L23.0893 1072.66 L21.0281 1072.66 L21.0281 1061.51 Q21.0281 1060.32 21.2535 1060 Q21.4468 1059.68 22.4774 1059.19 L59.4175 1044.9 L22.2841 1030.47 Q21.3502 1030.14 21.1891 1029.85 Q21.0281 1029.53 21.0281 1028.28 L21.0281 1017.13 L23.0893 1017.13 L23.0893 1018.71 Q23.0893 1022.29 23.7012 1023.12 Q24.2809 1023.93 26.181 1023.93 L60.9312 1023.93 Q62.8313 1023.93 63.4432 1023.12 Q64.0551 1022.29 64.0551 1018.71 L64.0551 1017.13 L66.0841 1017.13 Q65.8909 1019.58 65.8909 1026.57 Q65.8909 1033.62 66.0841 1036.07 L64.0551 1036.07 L64.0551 1034.46 Q64.0551 1030.89 63.4754 1030.08 Q62.8635 1029.28 60.9312 1029.28 L23.0893 1029.28 L23.0893 1029.34 L64.8281 1045.54 Q66.0841 1045.99 66.0841 1046.73 Q66.0841 1047.54 64.6348 1048.05 L23.6046 1063.96 L23.6046 1064.03 L59.1598 1064.03 Q60.1582 1064.03 60.7701 1063.9 Q61.3498 1063.77 62.2516 1063.22 Q63.1212 1062.64 63.6042 1061.13 Q64.0551 1059.61 64.0551 1057.23 L66.0841 1057.23 Q65.8909 1064.15 65.8909 1064.96 Q65.8909 1065.73 66.0841 1072.66 Z" fill="#000000" fill-rule="nonzero" fill-opacity="1" /><path clip-path="url(#clip390)" d="M66.0841 1006.77 L64.0551 1006.77 Q64.0551 1003.26 63.6364 1002.46 Q63.1856 1001.65 61.06 1001.65 L43.3146 1001.65 Q40.8669 1001.65 40.2872 1002.49 Q39.7075 1003.3 39.7075 1006.52 L37.6463 1006.52 L36.9378 997.306 L61.1244 997.306 Q63.0889 997.306 63.572 996.598 Q64.0551 995.889 64.0551 992.669 L66.0841 992.669 Q65.8909 999.4 65.8909 999.528 Q65.8909 1000.43 66.0841 1006.77 M25.4403 1004.01 Q24.1199 1004.01 23.0571 1003.01 Q21.9621 1001.98 21.9621 1000.53 Q21.9621 999.078 22.9604 998.047 Q23.9266 997.016 25.4725 997.016 Q26.9862 997.016 27.9846 998.047 Q28.9507 999.078 28.9507 1000.53 Q28.9507 1002.04 27.8879 1003.04 Q26.8252 1004.01 25.4403 1004.01 Z" fill="#000000" fill-rule="nonzero" fill-opacity="1" /><path clip-path="url(#clip390)" d="M66.0841 988.16 L64.0551 988.16 Q64.0551 984.65 63.6364 983.845 Q63.1856 983.04 61.06 983.04 L43.379 983.04 Q40.9313 983.04 40.3194 983.909 Q39.7075 984.747 39.7075 988.16 L37.6463 988.16 L36.9378 978.885 L43.8621 978.885 Q36.9378 975.793 36.9378 969.127 Q36.9378 964.167 39.3854 962.202 Q41.0279 960.753 42.8637 960.463 Q44.6994 960.141 49.4659 960.141 L62.0584 960.141 Q63.4432 960.077 63.7653 959.014 Q64.0551 957.951 64.0551 954.988 L66.0841 954.988 Q65.8909 961.719 65.8909 962.396 Q65.8909 962.911 66.0841 969.835 L64.0551 969.835 Q64.0551 966.325 63.6364 965.52 Q63.1856 964.682 61.06 964.682 L45.6978 964.682 Q42.3484 964.682 40.3838 965.713 Q38.3871 966.743 38.3871 969.578 Q38.3871 972.991 41.2534 975.729 Q44.1197 978.466 48.9506 978.466 L61.06 978.466 Q63.1856 978.466 63.6364 977.661 Q64.0551 976.824 64.0551 973.346 L66.0841 973.346 Q65.8909 980.077 65.8909 980.721 Q65.8909 981.236 66.0841 988.16 Z" fill="#000000" fill-rule="nonzero" fill-opacity="1" /><path clip-path="url(#clip390)" d="M66.0841 951.66 L64.0551 951.66 Q64.0551 948.149 63.6364 947.344 Q63.1856 946.539 61.06 946.539 L43.3146 946.539 Q40.8669 946.539 40.2872 947.376 Q39.7075 948.181 39.7075 951.402 L37.6463 951.402 L36.9378 942.191 L61.1244 942.191 Q63.0889 942.191 63.572 941.483 Q64.0551 940.774 64.0551 937.553 L66.0841 937.553 Q65.8909 944.285 65.8909 944.413 Q65.8909 945.315 66.0841 951.66 M25.4403 948.89 Q24.1199 948.89 23.0571 947.892 Q21.9621 946.861 21.9621 945.412 Q21.9621 943.962 22.9604 942.932 Q23.9266 941.901 25.4725 941.901 Q26.9862 941.901 27.9846 942.932 Q28.9507 943.962 28.9507 945.412 Q28.9507 946.925 27.8879 947.924 Q26.8252 948.89 25.4403 948.89 Z" fill="#000000" fill-rule="nonzero" fill-opacity="1" /><path clip-path="url(#clip390)" d="M66.0841 933.045 L64.0551 933.045 Q64.0551 929.535 63.6364 928.73 Q63.1856 927.924 61.06 927.924 L43.379 927.924 Q40.9313 927.924 40.3194 928.794 Q39.7075 929.631 39.7075 933.045 L37.6463 933.045 L36.9378 923.77 L43.8621 923.77 Q36.9378 920.678 36.9378 914.012 Q36.9378 906.282 43.379 905.219 Q40.8669 904.092 38.9023 901.741 Q36.9378 899.358 36.9378 895.654 Q36.9378 890.695 39.3854 888.73 Q41.0279 887.281 42.8637 886.991 Q44.6994 886.701 49.4659 886.701 L62.0584 886.701 Q63.4432 886.637 63.7653 885.574 Q64.0551 884.511 64.0551 881.548 L66.0841 881.548 Q65.8909 888.279 65.8909 888.923 Q65.8909 889.438 66.0841 896.395 L64.0551 896.395 Q64.0551 892.885 63.6364 892.079 Q63.1856 891.242 61.06 891.242 L45.6978 891.242 Q42.3484 891.242 40.3838 892.273 Q38.3871 893.303 38.3871 896.137 Q38.3871 899.551 41.2534 902.289 Q44.1197 905.026 48.9506 905.026 L61.06 905.026 Q63.1856 905.026 63.6364 904.221 Q64.0551 903.384 64.0551 899.873 L66.0841 899.873 Q65.8909 906.604 65.8909 907.281 Q65.8909 907.796 66.0841 914.72 L64.0551 914.72 Q64.0551 911.21 63.6364 910.405 Q63.1856 909.567 61.06 909.567 L45.6978 909.567 Q42.3484 909.567 40.3838 910.598 Q38.3871 911.628 38.3871 914.462 Q38.3871 917.876 41.2534 920.614 Q44.1197 923.351 48.9506 923.351 L61.06 923.351 Q63.1856 923.351 63.6364 922.546 Q64.0551 921.709 64.0551 918.231 L66.0841 918.231 Q65.8909 924.962 65.8909 925.606 Q65.8909 926.121 66.0841 933.045 Z" fill="#000000" fill-rule="nonzero" fill-opacity="1" /><path clip-path="url(#clip390)" d="M39.7075 878.922 L37.6463 878.922 L36.9378 869.228 L58.8378 869.228 Q60.4159 869.228 61.3498 869.1 Q62.2516 868.971 63.3144 868.455 Q64.3772 867.908 64.8603 866.684 Q65.3434 865.428 65.3434 863.431 Q65.3434 859.856 62.4126 857.666 Q59.4819 855.444 55.1341 855.444 L43.379 855.444 Q40.9313 855.444 40.3194 856.314 Q39.7075 857.183 39.7075 860.597 L37.6463 860.597 L36.9378 850.903 L60.3515 850.903 Q62.7991 850.903 63.4432 850.066 Q64.0551 849.196 64.0551 845.75 L66.0841 845.75 L66.8248 855.251 L60.8667 855.251 Q66.7926 858.021 66.8248 863.753 Q66.8248 866.652 66.0841 868.649 Q65.3434 870.613 64.4416 871.612 Q63.5076 872.61 61.7363 873.157 Q59.965 873.673 58.87 873.737 Q57.775 873.802 55.6494 873.802 L45.7622 873.802 Q41.2856 873.802 40.5126 874.446 Q39.7075 875.09 39.7075 878.922 Z" fill="#000000" fill-rule="nonzero" fill-opacity="1" /><path clip-path="url(#clip390)" d="M66.0841 843.478 L64.0551 843.478 Q64.0551 839.967 63.6364 839.162 Q63.1856 838.357 61.06 838.357 L43.379 838.357 Q40.9313 838.357 40.3194 839.226 Q39.7075 840.064 39.7075 843.478 L37.6463 843.478 L36.9378 834.202 L43.8621 834.202 Q36.9378 831.111 36.9378 824.444 Q36.9378 816.715 43.379 815.652 Q40.8669 814.525 38.9023 812.173 Q36.9378 809.79 36.9378 806.087 Q36.9378 801.127 39.3854 799.162 Q41.0279 797.713 42.8637 797.423 Q44.6994 797.133 49.4659 797.133 L62.0584 797.133 Q63.4432 797.069 63.7653 796.006 Q64.0551 794.943 64.0551 791.98 L66.0841 791.98 Q65.8909 798.711 65.8909 799.356 Q65.8909 799.871 66.0841 806.827 L64.0551 806.827 Q64.0551 803.317 63.6364 802.512 Q63.1856 801.674 61.06 801.674 L45.6978 801.674 Q42.3484 801.674 40.3838 802.705 Q38.3871 803.736 38.3871 806.57 Q38.3871 809.984 41.2534 812.721 Q44.1197 815.458 48.9506 815.458 L61.06 815.458 Q63.1856 815.458 63.6364 814.653 Q64.0551 813.816 64.0551 810.306 L66.0841 810.306 Q65.8909 817.037 65.8909 817.713 Q65.8909 818.228 66.0841 825.152 L64.0551 825.152 Q64.0551 821.642 63.6364 820.837 Q63.1856 820 61.06 820 L45.6978 820 Q42.3484 820 40.3838 821.03 Q38.3871 822.061 38.3871 824.895 Q38.3871 828.309 41.2534 831.046 Q44.1197 833.784 48.9506 833.784 L61.06 833.784 Q63.1856 833.784 63.6364 832.978 Q64.0551 832.141 64.0551 828.663 L66.0841 828.663 Q65.8909 835.394 65.8909 836.038 Q65.8909 836.553 66.0841 843.478 Z" fill="#000000" fill-rule="nonzero" fill-opacity="1" /><path clip-path="url(#clip390)" d="M43.7332 788.035 Q33.6528 788.035 26.6319 781.593 Q19.5788 775.12 19.5788 766.135 Q19.5788 757.085 26.6319 750.644 Q33.685 744.17 43.7332 744.17 Q53.6848 744.17 60.6091 750.644 Q67.5334 757.117 67.5334 766.135 Q67.5334 775.023 60.6413 781.529 Q53.7493 788.035 43.7332 788.035 M42.7993 781.239 Q48.9184 781.239 53.6204 779.79 Q58.2903 778.341 60.8345 776.022 Q63.3788 773.671 64.6026 771.159 Q65.8264 768.647 65.8264 766.07 Q65.8264 763.558 64.6348 761.111 Q63.4432 758.631 60.9312 756.28 Q58.4191 753.929 53.717 752.447 Q49.015 750.966 42.7993 750.966 Q37.9684 750.966 34.1037 751.996 Q30.2068 753.027 27.8557 754.637 Q25.5047 756.247 23.9588 758.341 Q22.4129 760.402 21.8332 762.367 Q21.2213 764.299 21.2213 766.135 Q21.2213 768.453 22.2519 770.869 Q23.2825 773.284 25.5691 775.732 Q27.8235 778.147 32.3001 779.693 Q36.7446 781.239 42.7993 781.239 Z" fill="#000000" fill-rule="nonzero" fill-opacity="1" /><path clip-path="url(#clip390)" d="M23.0893 736.492 L21.0281 736.492 L20.3196 726.991 L41.2212 726.991 Q36.9378 723.159 36.9378 717.942 Q36.9378 712.273 41.2856 708.119 Q45.6334 703.964 51.8491 703.964 Q58.1292 703.964 62.477 708.312 Q66.8248 712.66 66.8248 718.682 Q66.8248 724.157 61.994 727.313 Q66.0197 729.632 66.0841 729.697 L66.0841 731.339 L26.7607 731.339 Q24.3131 731.339 23.7012 732.209 Q23.0893 733.078 23.0893 736.492 M58.5801 726.798 Q59.965 726.798 61.3498 725.864 Q65.3434 723.256 65.3434 719.004 Q65.3434 718.972 65.3434 718.94 Q65.3434 714.335 61.1244 711.468 Q57.9682 709.439 51.7847 709.439 Q45.6656 709.439 42.606 711.339 Q38.3871 713.98 38.3871 718.264 Q38.3871 723.095 42.606 726.057 Q43.6688 726.798 44.9893 726.798 L58.5801 726.798 Z" fill="#000000" fill-rule="nonzero" fill-opacity="1" /><path clip-path="url(#clip390)" d="M74.3288 704.215 Q73.0084 704.215 72.1388 703.378 Q71.3014 702.573 71.3014 701.188 Q71.3014 699.803 72.1388 698.998 Q73.0084 698.161 74.3288 698.161 Q75.5204 698.161 76.2611 698.869 Q77.0341 699.546 77.2917 700.447 Q78.1613 698.74 78.1613 696.905 Q78.1613 695.391 77.2595 694.36 Q76.3578 693.33 74.8763 692.879 Q73.3948 692.396 72.1388 692.235 Q70.915 692.074 69.4979 692.074 L43.379 692.074 Q40.9313 692.074 40.3194 693.04 Q39.7075 693.974 39.7075 697.742 L37.6463 697.742 L36.9378 687.726 L69.3691 687.726 Q73.7813 687.726 76.6798 690.367 Q79.6106 693.008 79.6106 696.744 Q79.6106 699.771 78.1935 701.993 Q76.7764 704.215 74.3288 704.215 M27.9524 693.684 Q26.9218 694.715 25.4725 694.715 Q24.0232 694.715 22.9927 693.684 Q21.9621 692.654 21.9621 691.204 Q21.9621 689.755 22.9927 688.724 Q24.0232 687.694 25.4725 687.694 Q26.9218 687.694 27.9524 688.724 Q28.9507 689.755 28.9507 691.204 Q28.9507 692.654 27.9524 693.684 Z" fill="#000000" fill-rule="nonzero" fill-opacity="1" /><path clip-path="url(#clip390)" d="M51.5593 676.919 Q45.3435 676.919 40.9313 672.925 Q36.5191 668.932 36.5191 663.199 Q36.5191 657.402 40.2872 654.407 Q44.0553 651.38 49.4659 651.38 Q50.4643 651.38 50.6575 651.637 Q50.8507 651.895 50.8507 653.022 L50.8507 671.444 Q57.5817 671.444 60.7379 669.447 Q65.1501 666.677 65.1501 662.007 Q65.1501 661.363 65.0213 660.59 Q64.8925 659.817 64.345 658.239 Q63.7653 656.661 62.2516 655.276 Q60.7379 653.892 58.3547 653.086 Q57.4207 652.893 57.4529 652.249 Q57.4529 651.38 58.2259 651.38 Q58.8056 651.38 60.126 652.024 Q61.4142 652.636 62.9601 653.827 Q64.506 655.019 65.6654 657.338 Q66.8248 659.624 66.8248 662.394 Q66.8248 668.191 62.4448 672.571 Q58.0326 676.919 51.5593 676.919 M49.4659 671.379 L49.4659 655.727 Q48.081 655.727 46.5351 655.985 Q44.9893 656.21 42.8637 656.919 Q40.7059 657.595 39.3532 659.206 Q38.0006 660.816 38.0006 663.199 Q38.0006 664.262 38.4515 665.421 Q38.9023 666.549 39.9973 667.933 Q41.0923 669.318 43.5722 670.284 Q46.052 671.251 49.4659 671.379 Z" fill="#000000" fill-rule="nonzero" fill-opacity="1" /><path clip-path="url(#clip390)" d="M62.477 643.736 Q58.097 647.923 51.8491 647.923 Q45.569 647.923 41.0601 643.801 Q36.5191 639.678 36.5191 633.624 Q36.5191 629.598 38.4515 626.571 Q40.3516 623.543 43.6044 623.543 Q45.0537 623.543 45.891 624.413 Q46.6962 625.25 46.6962 626.571 Q46.6962 627.955 45.8588 628.793 Q44.9893 629.598 43.6688 629.598 Q43.0891 629.598 42.5094 629.405 Q41.9297 629.211 41.3178 628.503 Q40.7059 627.762 40.6093 626.506 Q38.1938 628.857 38.1938 633.43 Q38.1938 633.495 38.1938 633.559 Q38.1938 636.909 41.35 639.678 Q44.5062 642.448 51.7203 642.448 Q55.4884 642.448 58.2581 641.546 Q60.9956 640.612 62.4126 639.099 Q63.8297 637.585 64.506 636.104 Q65.1501 634.622 65.1501 633.173 Q65.1501 626.699 58.2259 624.509 Q57.5817 624.316 57.5817 623.672 Q57.5817 622.803 58.2259 622.803 Q58.5479 622.803 59.3853 623.06 Q60.2226 623.318 61.5431 624.123 Q62.8635 624.928 64.0229 626.088 Q65.1501 627.215 65.9875 629.244 Q66.8248 631.24 66.8248 633.752 Q66.8248 639.55 62.477 643.736 Z" fill="#000000" fill-rule="nonzero" fill-opacity="1" /><path clip-path="url(#clip390)" d="M39.7075 620.511 L38.2582 620.511 Q38.1294 617.484 36.0038 615.487 Q33.846 613.458 31.2051 612.782 Q28.5643 612.073 25.5047 612.009 L25.5047 610.367 L37.6463 610.367 L37.6463 600.93 L39.7075 600.93 L39.7075 610.367 L58.0326 610.367 Q65.1501 610.367 65.1501 605.922 Q65.1501 604.022 63.2178 602.766 Q61.2532 601.51 57.775 601.51 L54.1357 601.51 L54.1357 599.867 L57.9038 599.867 Q61.4787 599.867 64.1517 601.51 Q66.8248 603.152 66.8248 606.405 Q66.8248 607.597 66.5028 608.788 Q66.2129 609.948 65.44 611.494 Q64.6348 613.007 62.7025 613.974 Q60.7379 614.908 57.9038 614.908 L39.7075 614.908 L39.7075 620.511 Z" fill="#000000" fill-rule="nonzero" fill-opacity="1" /><path clip-path="url(#clip390)" d="M66.0841 595.976 L64.0551 595.976 Q64.0551 592.466 63.6364 591.66 Q63.1856 590.855 61.06 590.855 L43.3146 590.855 Q40.8669 590.855 40.2872 591.693 Q39.7075 592.498 39.7075 595.718 L37.6463 595.718 L36.9378 586.507 L61.1244 586.507 Q63.0889 586.507 63.572 585.799 Q64.0551 585.09 64.0551 581.87 L66.0841 581.87 Q65.8909 588.601 65.8909 588.73 Q65.8909 589.631 66.0841 595.976 M25.4403 593.206 Q24.1199 593.206 23.0571 592.208 Q21.9621 591.177 21.9621 589.728 Q21.9621 588.279 22.9604 587.248 Q23.9266 586.218 25.4725 586.218 Q26.9862 586.218 27.9846 587.248 Q28.9507 588.279 28.9507 589.728 Q28.9507 591.242 27.8879 592.24 Q26.8252 593.206 25.4403 593.206 Z" fill="#000000" fill-rule="nonzero" fill-opacity="1" /><path clip-path="url(#clip390)" d="M39.7075 577.361 L37.6463 577.361 Q37.8396 574.399 37.8396 570.953 Q37.8396 569.697 37.6463 563.771 L39.7075 563.771 Q39.7075 567.539 41.4144 567.539 Q41.6721 567.539 42.5416 567.152 L60.9312 559.745 L44.1197 553.014 Q42.9925 552.627 42.5416 552.627 Q41.4144 552.627 40.6093 553.4 Q39.7719 554.141 39.7075 555.784 L37.6463 555.784 Q37.8396 552.434 37.8396 550.051 Q37.8396 547.346 37.6463 545.123 L39.7075 545.123 Q39.7075 547.088 40.6093 548.473 Q41.4788 549.858 42.2518 550.309 Q42.9925 550.727 44.1197 551.178 L65.5688 559.809 Q66.8248 560.325 66.8248 561.194 Q66.8248 561.774 66.5672 562.032 Q66.3417 562.257 65.5688 562.579 L42.1551 572.08 Q40.5126 572.724 40.1262 573.561 Q39.7075 574.399 39.7075 577.361 Z" fill="#000000" fill-rule="nonzero" fill-opacity="1" /><path clip-path="url(#clip390)" d="M51.5593 541.053 Q45.3435 541.053 40.9313 537.059 Q36.5191 533.066 36.5191 527.333 Q36.5191 521.536 40.2872 518.541 Q44.0553 515.514 49.4659 515.514 Q50.4643 515.514 50.6575 515.771 Q50.8507 516.029 50.8507 517.156 L50.8507 535.578 Q57.5817 535.578 60.7379 533.581 Q65.1501 530.812 65.1501 526.142 Q65.1501 525.498 65.0213 524.725 Q64.8925 523.952 64.345 522.374 Q63.7653 520.796 62.2516 519.411 Q60.7379 518.026 58.3547 517.221 Q57.4207 517.027 57.4529 516.383 Q57.4529 515.514 58.2259 515.514 Q58.8056 515.514 60.126 516.158 Q61.4142 516.77 62.9601 517.961 Q64.506 519.153 65.6654 521.472 Q66.8248 523.758 66.8248 526.528 Q66.8248 532.325 62.4448 536.705 Q58.0326 541.053 51.5593 541.053 M49.4659 535.514 L49.4659 519.862 Q48.081 519.862 46.5351 520.119 Q44.9893 520.345 42.8637 521.053 Q40.7059 521.73 39.3532 523.34 Q38.0006 524.95 38.0006 527.333 Q38.0006 528.396 38.4515 529.556 Q38.9023 530.683 39.9973 532.068 Q41.0923 533.452 43.5722 534.419 Q46.052 535.385 49.4659 535.514 Z" fill="#000000" fill-rule="nonzero" fill-opacity="1" /><path clip-path="url(#clip390)" d="M60.5447 505.294 Q53.556 512.057 43.54 512.057 Q33.4918 512.057 26.5353 505.23 Q19.5788 498.402 19.5788 489.127 Q19.5788 486.808 20.1263 484.843 Q20.6416 482.847 21.7044 481.268 Q22.735 479.69 23.4435 478.885 Q24.1199 478.048 25.2471 476.921 L20.384 473.603 Q19.5788 473.088 19.5788 472.573 Q19.5788 472.025 19.9009 471.929 Q20.1907 471.832 21.1569 471.832 L36.809 471.832 Q37.8718 471.832 38.1294 471.961 Q38.3871 472.09 38.3871 472.895 Q38.3871 473.539 38.1938 473.668 Q38.0006 473.797 37.2598 473.958 Q30.1424 474.956 25.8912 478.95 Q21.64 482.911 21.64 488.322 Q21.64 489.9 21.9943 491.671 Q22.3485 493.41 23.7012 495.987 Q25.0538 498.531 27.276 500.495 Q29.466 502.428 33.7172 503.845 Q37.9362 505.262 43.54 505.262 Q49.0794 505.262 53.3306 503.845 Q57.5817 502.428 59.804 500.463 Q61.994 498.466 63.3788 495.89 Q64.7637 493.281 65.1501 491.446 Q65.5044 489.578 65.5044 487.935 Q65.5044 486.808 65.2789 485.487 Q65.0213 484.167 64.3128 482.202 Q63.572 480.206 61.8329 478.95 Q60.0938 477.694 57.5173 477.694 L53.2984 477.694 Q51.3338 477.694 50.7219 478.66 Q50.11 479.626 50.11 483.845 L50.11 485.938 L48.081 485.938 Q48.2743 483.555 48.2743 475.343 Q48.2743 474.602 48.081 467.291 L50.11 467.291 Q50.11 470.447 50.5931 471.156 Q51.044 471.832 53.0085 471.832 L64.506 471.832 Q66.0197 471.832 66.0197 472.412 Q66.0197 472.927 64.5382 474.473 Q63.0567 475.987 61.9295 476.663 Q64.6992 478.241 66.1163 481.687 Q67.5334 485.101 67.5334 488.998 Q67.5334 498.499 60.5447 505.294 Z" fill="#000000" fill-rule="nonzero" fill-opacity="1" /><path clip-path="url(#clip390)" d="M59.804 461.388 Q54.2001 461.388 51.2372 454.786 Q49.337 450.825 48.854 442.644 L46.4385 442.644 Q42.3484 442.644 40.1906 444.802 Q38.0006 446.928 38.0006 449.633 Q38.0006 454.464 41.0279 456.783 Q41.0923 454.818 42.0907 454.11 Q43.0569 453.401 44.0553 453.401 Q45.3757 453.401 46.2453 454.239 Q47.0826 455.044 47.0826 456.429 Q47.0826 457.749 46.2775 458.619 Q45.4401 459.488 43.9909 459.488 Q40.7703 459.488 38.6447 456.59 Q36.5191 453.659 36.5191 449.504 Q36.5191 444.094 40.1584 440.487 Q41.2856 439.359 42.7348 438.812 Q44.1841 438.232 45.1503 438.168 Q46.0843 438.103 47.9522 438.103 L61.1244 438.103 Q61.5109 438.103 62.155 437.975 Q62.7991 437.846 63.6364 437.266 Q64.4416 436.654 64.4416 435.656 Q64.4416 433.272 60.2226 433.305 L56.519 433.305 L56.519 431.63 L60.2226 431.63 Q63.7331 431.63 65.1179 433.498 Q66.4706 435.334 66.4706 437.041 Q66.4706 439.231 64.8603 440.615 Q63.25 442 61.06 442.194 Q63.572 443.192 65.2145 445.479 Q66.8248 447.733 66.8248 450.825 Q66.8248 453.208 66.2129 455.462 Q65.6332 457.685 63.9907 459.552 Q62.316 461.388 59.804 461.388 M59.7395 456.3 Q62.1872 456.3 63.7653 454.561 Q65.3434 452.821 65.3434 450.374 Q65.3434 447.604 63.2178 445.124 Q61.06 442.644 56.841 442.644 L50.2388 442.644 Q50.4965 449.955 53.4272 453.144 Q56.3257 456.3 59.7395 456.3 Z" fill="#000000" fill-rule="nonzero" fill-opacity="1" /><path clip-path="url(#clip390)" d="M76.8409 434.004 Q76.8409 430.494 76.39 429.689 Q75.9713 428.851 73.8779 428.851 L42.9925 428.851 Q40.8025 428.851 40.255 429.689 Q39.7075 430.494 39.7075 434.004 L37.6463 434.004 L36.9378 424.503 L41.2856 424.503 Q36.9378 420.542 36.9378 415.26 Q36.9378 409.657 41.2856 405.566 Q45.6334 401.476 51.8491 401.476 Q58.1292 401.476 62.477 405.824 Q66.8248 410.172 66.8248 416.194 Q66.8248 419.479 65.1501 421.702 Q63.4432 423.892 62.1872 424.31 L62.7991 424.31 L73.8779 424.31 Q76.0035 424.31 76.4222 423.473 Q76.8409 422.635 76.8409 419.157 L78.8698 419.157 Q78.6766 426.082 78.6766 426.597 Q78.6766 427.241 78.8698 434.004 L76.8409 434.004 M58.5801 424.31 Q59.5785 424.31 59.9328 424.181 Q60.287 424.02 61.3498 423.376 Q65.3434 420.768 65.3434 416.516 Q65.3434 416.484 65.3434 416.452 Q65.3434 412.684 61.5109 409.818 Q57.6462 406.951 51.8491 406.951 Q46.3097 406.951 42.445 409.56 Q38.5803 412.169 38.5803 415.776 Q38.5803 418.352 39.9651 420.607 Q41.35 422.861 43.8621 424.31 L58.5801 424.31 Z" fill="#000000" fill-rule="nonzero" fill-opacity="1" /><polyline clip-path="url(#clip392)" style="stroke:#785ef0; stroke-linecap:round; stroke-linejoin:round; stroke-width:8; stroke-opacity:1; fill:none" points="276.876,90.1663 280.906,311.1 284.937,465.609 288.968,597.237 292.999,719.328 297.03,836.655 301.061,951.769 305.091,1065.49 309.122,1178.18 313.153,1290.03 317.184,1401.17 321.215,1512.08 "/>
<polyline clip-path="url(#clip392)" style="stroke:#785ef0; stroke-linecap:round; stroke-linejoin:round; stroke-width:8; stroke-opacity:1; fill:none" stroke-dasharray="32, 20" points="276.876,90.1663 280.906,341.944 284.937,462.23 288.968,568.407 292.999,676.154 297.03,782.249 301.061,888.188 305.091,993.733 309.122,1099.11 313.153,1204.34 317.184,1309.48 321.215,1414.62 325.246,1520.25 "/>
<polyline clip-path="url(#clip392)" style="stroke:#fe6100; stroke-linecap:round; stroke-linejoin:round; stroke-width:8; stroke-opacity:1; fill:none" points="276.876,90.1663 280.906,285.204 284.937,308.643 288.968,452.243 292.999,585.172 297.03,697.905 301.061,818.135 305.091,818.137 309.122,936.772 313.153,1175.82 317.184,1176.07 321.215,1181.56 325.246,1181.56 329.276,1320.82 333.307,1320.82 337.338,1320.82 341.369,1320.82 345.4,1320.82 349.431,1320.82 353.461,1320.82 357.492,1320.82 361.523,1320.82 365.554,1320.82 369.585,1320.82 373.616,1408.85 377.646,1408.85 381.677,1408.85 385.708,1408.85 389.739,1408.85 393.77,1408.85 397.801,1408.85 401.831,1408.85 405.862,1408.85 409.893,1408.85 413.924,1520.91 "/>
<polyline clip-path="url(#clip392)" style="stroke:#fe6100; stroke-linecap:round; stroke-linejoin:round; stroke-width:8; stroke-opacity:1; fill:none" stroke-dasharray="32, 20" points="276.876,90.1663 280.906,298.38 284.937,298.38 288.968,507.483 292.999,627.354 297.03,627.354 301.061,745.9 305.091,757.302 309.122,898.21 313.153,898.31 317.184,1006.47 321.215,1112.61 325.246,1217 329.276,1217 333.307,1217 337.338,1217 341.369,1462.35 "/>
<polyline clip-path="url(#clip392)" style="stroke:#dc267f; stroke-linecap:round; stroke-linejoin:round; stroke-width:8; stroke-opacity:1; fill:none" points="276.876,90.1663 280.906,90.1663 284.937,90.1663 288.968,90.1663 292.999,90.8205 297.03,91.9406 301.061,93.0667 305.091,94.2082 309.122,95.3673 313.153,96.5451 317.184,97.7424 321.215,98.9597 325.246,100.198 329.276,101.457 333.307,102.739 337.338,104.043 341.369,105.371 345.4,106.723 349.431,108.1 353.461,109.502 357.492,110.932 361.523,112.389 365.554,113.874 369.585,115.389 373.616,116.934 377.646,118.51 381.677,120.12 385.708,121.763 389.739,123.441 393.77,125.156 397.801,126.908 401.831,128.7 405.862,130.532 409.893,132.407 413.924,134.327 417.955,136.292 421.986,138.305 426.016,140.369 430.047,142.484 434.078,144.655 438.109,146.883 442.14,149.171 446.171,151.522 450.201,153.939 454.232,156.426 458.263,158.985 462.294,161.622 466.325,164.341 470.356,167.146 474.386,170.041 478.417,173.034 482.448,176.129 486.479,179.334 490.51,182.655 494.541,186.102 498.571,189.682 502.602,193.406 506.633,197.285 510.664,201.332 514.695,205.561 518.726,209.987 522.756,214.63 526.787,219.509 530.818,224.65 534.849,230.08 538.88,235.834 542.911,241.948 546.942,248.472 550.972,255.461 555.003,262.984 559.034,271.129 563.065,280.003 567.096,289.75 571.127,300.554 575.157,312.67 579.188,326.457 583.219,342.445 587.25,361.465 591.281,384.934 595.312,415.575 599.342,448.152 603.373,480.566 607.404,512.808 611.435,544.876 615.466,576.77 619.497,608.491 623.527,640.045 627.558,671.434 631.589,702.664 635.62,733.74 639.651,764.666 643.682,795.447 647.712,826.088 651.743,856.594 655.774,886.969 659.805,917.218 663.836,947.344 667.867,977.353 671.897,1007.25 675.928,1037.03 679.959,1066.71 683.99,1096.28 688.021,1125.75 692.052,1155.13 696.082,1184.41 700.113,1213.6 704.144,1242.69 708.175,1271.71 712.206,1300.64 716.237,1329.49 720.267,1358.27 724.298,1386.96 728.329,1415.62 732.36,1444.21 "/>
<polyline clip-path="url(#clip392)" style="stroke:#dc267f; stroke-linecap:round; stroke-linejoin:round; stroke-width:8; stroke-opacity:1; fill:none" stroke-dasharray="32, 20" points="276.876,90.1663 280.906,90.1663 284.937,90.1663 288.968,90.1663 292.999,90.3988 297.03,91.5218 301.061,92.6427 305.091,93.7784 309.122,94.9316 313.153,96.1034 317.184,97.2945 321.215,98.5056 325.246,99.7373 329.276,100.99 333.307,102.265 337.338,103.562 341.369,104.883 345.4,106.227 349.431,107.597 353.461,108.992 357.492,110.413 361.523,111.861 365.554,113.338 369.585,114.844 373.616,116.38 377.646,117.947 381.677,119.547 385.708,121.18 389.739,122.847 393.77,124.551 397.801,126.292 401.831,128.072 405.862,129.892 409.893,131.755 413.924,133.661 417.955,135.612 421.986,137.611 426.016,139.66 430.047,141.76 434.078,143.914 438.109,146.125 442.14,148.395 446.171,150.727 450.201,153.125 454.232,155.591 458.263,158.129 462.294,160.743 466.325,163.437 470.356,166.216 474.386,169.085 478.417,172.048 482.448,175.113 486.479,178.286 490.51,181.572 494.541,184.982 498.571,188.522 502.602,192.204 506.633,196.037 510.664,200.034 514.695,204.208 518.726,208.576 522.756,213.154 526.787,217.963 530.818,223.026 534.849,228.37 538.88,234.026 542.911,240.033 546.942,246.433 550.972,253.282 555.003,260.644 559.034,268.6 563.065,277.253 567.096,286.733 571.127,297.211 575.157,308.92 579.188,322.184 583.219,337.474 587.25,355.516 591.281,377.514 595.312,405.693 599.342,438.331 603.373,470.8 607.404,503.091 611.435,535.202 615.466,567.134 619.497,598.892 623.527,630.477 627.558,661.896 631.589,693.153 635.62,724.254 639.651,755.203 643.682,786.006 647.712,816.668 651.743,847.193 655.774,877.585 659.805,907.851 663.836,937.993 667.867,968.016 671.897,997.923 675.928,1027.72 679.959,1057.41 683.99,1086.99 688.021,1116.47 692.052,1145.86 696.082,1175.15 700.113,1204.34 704.144,1233.45 708.175,1262.47 712.206,1291.41 716.237,1320.26 720.267,1349.04 724.298,1377.75 728.329,1406.39 732.36,1434.98 "/>
<polyline clip-path="url(#clip392)" style="stroke:#ffb000; stroke-linecap:round; stroke-linejoin:round; stroke-width:8; stroke-opacity:1; fill:none" points="276.876,90.1663 280.906,208.604 284.937,208.604 288.968,349.219 292.999,349.219 297.03,549.399 301.061,549.399 305.091,549.399 309.122,549.399 313.153,549.555 317.184,549.555 321.215,617.988 325.246,617.988 329.276,617.988 333.307,617.988 337.338,654.028 341.369,654.028 345.4,654.028 349.431,654.028 353.461,654.028 357.492,654.028 361.523,704.327 365.554,704.327 369.585,704.327 373.616,704.327 377.646,704.327 381.677,704.327 385.708,704.327 389.739,704.327 393.77,717.886 397.801,717.886 401.831,717.886 405.862,717.886 409.893,717.886 413.924,717.886 417.955,717.886 421.986,717.886 426.016,717.886 430.047,717.886 434.078,718.544 438.109,718.544 442.14,718.544 446.171,718.544 450.201,718.544 454.232,718.544 458.263,718.544 462.294,718.544 466.325,718.544 470.356,718.544 474.386,725.258 478.417,725.258 482.448,732.518 486.479,732.518 490.51,732.518 494.541,732.518 498.571,732.518 502.602,732.518 506.633,732.518 510.664,732.518 514.695,732.518 518.726,732.518 522.756,737.979 526.787,737.979 530.818,747.882 534.849,747.882 538.88,750.907 542.911,750.907 546.942,750.907 550.972,750.907 555.003,750.907 559.034,750.907 563.065,750.907 567.096,750.907 571.127,750.907 575.157,750.907 579.188,755.438 583.219,755.438 587.25,763.361 591.281,763.361 595.312,768.672 599.342,768.672 603.373,769.321 607.404,769.321 611.435,769.321 615.466,769.321 619.497,769.321 623.527,769.321 627.558,769.321 631.589,769.321 635.62,769.321 639.651,769.321 643.682,774.207 647.712,774.207 651.743,780.168 655.774,780.168 659.805,784.975 663.836,784.975 667.867,787.303 671.897,787.303 675.928,787.303 679.959,787.303 683.99,787.303 688.021,787.303 692.052,787.303 696.082,787.303 700.113,787.303 704.144,787.303 708.175,788.42 712.206,788.42 716.237,792.683 720.267,792.683 724.298,797.205 728.329,797.205 732.36,801.09 736.391,801.09 740.422,803.518 744.452,803.518 748.483,804.111 752.514,804.111 756.545,804.111 760.576,804.111 764.607,804.111 768.637,804.111 772.668,804.111 776.699,804.111 780.73,804.173 784.761,804.173 788.792,806.882 792.822,806.882 796.853,810.273 800.884,810.273 804.915,813.774 808.946,813.774 812.977,816.816 817.007,816.816 821.038,818.894 825.069,818.894 829.1,819.759 833.131,819.759 837.162,819.759 841.193,819.759 845.223,819.759 849.254,819.759 853.285,819.759 857.316,819.759 861.347,819.887 865.378,819.887 869.408,821.614 873.439,821.614 877.47,824.038 881.501,824.038 885.532,826.812 889.563,826.812 893.593,829.558 897.624,829.558 901.655,831.905 905.686,831.905 909.717,833.551 913.748,833.551 917.778,834.361 921.809,834.361 925.84,834.477 929.871,834.477 933.902,834.477 937.933,834.477 941.963,834.477 945.994,834.477 950.025,834.862 954.056,834.862 958.087,836.073 962.118,836.073 966.148,837.855 970.179,837.855 974.21,840.011 978.241,840.011 982.272,842.292 986.303,842.292 990.333,844.443 994.364,844.443 998.395,846.223 1002.43,846.223 1006.46,847.464 1010.49,847.464 1014.52,848.119 1018.55,848.119 1022.58,848.314 1026.61,848.314 1030.64,848.318 1034.67,848.318 1038.7,848.45 1042.73,848.45 1046.77,848.947 1050.8,848.947 1054.83,849.91 1058.86,849.91 1062.89,851.309 1066.92,851.309 1070.95,853.027 1074.98,853.027 1079.01,854.9 1083.04,854.9 1087.07,856.751 1091.1,856.751 1095.14,858.407 1099.17,858.407 1103.2,859.725 1107.23,859.725 1111.26,860.623 1115.29,860.623 1119.32,861.116 1123.35,861.116 1127.38,861.323 1131.41,861.323 1135.44,861.442 1139.47,861.442 1143.51,861.681 1147.54,861.681 1151.57,862.194 1155.6,862.194 1159.63,863.046 1163.66,863.046 1167.69,864.223 1171.72,864.223 1175.75,865.647 1179.78,865.647 1183.81,867.207 1187.84,867.207 1191.88,868.779 1195.91,868.779 1199.94,870.238 1203.97,870.238 1208,871.476 1212.03,871.476 1216.06,872.419 1220.09,872.419 1224.12,873.047 1228.15,873.047 1232.18,873.412 1236.21,873.412 1240.25,873.623 1244.28,873.623 1248.31,873.826 1252.34,873.826 1256.37,874.155 1260.4,874.155 1264.43,874.706 1268.46,874.706 1272.49,875.511 1276.52,875.511 1280.55,876.554 1284.58,876.554 1288.62,877.779 1292.65,877.779 1296.68,879.107 1300.71,879.107 1304.74,880.446 1308.77,880.446 1312.8,881.708 1316.83,881.708 1320.86,882.812 1324.89,882.812 1328.92,883.701 1332.95,883.701 1336.99,884.353 1341.02,884.353 1345.05,884.789 1349.08,884.789 1353.11,885.074 1357.14,885.074 1361.17,885.304 1365.2,885.304 1369.23,885.581 1373.26,885.581 1377.29,885.99 1381.32,885.99 1385.36,886.58 1389.39,886.58 1393.42,887.363 1397.45,887.363 1401.48,888.319 1405.51,888.319 1409.54,889.401 1413.57,889.401 1417.6,890.55 1421.63,890.55 1425.66,891.699 1429.69,891.699 1433.73,892.782 1437.76,892.782 1441.79,893.743 1445.82,893.743 1449.85,894.54 1453.88,894.54 1457.91,895.155 1461.94,895.155 1465.97,895.601 1470,895.601 1474.03,895.92 1478.06,895.92 1482.1,896.177 1486.13,896.177 1490.16,896.447 1494.19,896.447 1498.22,896.796 1502.25,896.796 1506.28,897.272 1510.31,897.272 1514.34,897.895 1518.37,897.895 1522.4,898.664 1526.43,898.664 1530.47,899.552 1534.5,899.552 1538.53,900.522 1542.56,900.522 1546.59,901.526 1550.62,901.526 1554.65,902.515 1558.68,902.515 1562.71,903.442 1566.74,903.442 1570.77,904.265 1574.8,904.265 1578.84,904.958 1582.87,904.958 1586.9,905.509 1590.93,905.509 1594.96,905.93 1598.99,905.93 1603.02,906.253 1607.05,906.253 1611.08,906.523 1615.11,906.523 1619.14,906.795 1623.17,906.795 1627.21,907.121 1631.24,907.121 1635.27,907.538 1639.3,907.538 1643.33,908.068 1647.36,908.068 1651.39,908.713 1655.42,908.713 1659.45,909.462 1663.48,909.462 1667.51,910.288 1671.54,910.288 1675.58,911.16 1679.61,911.16 1683.64,912.039 1687.67,912.039 1691.7,912.89 1695.73,912.89 1699.76,913.677 1703.79,913.677 1707.82,914.374 1711.85,914.374 1715.88,914.965 1719.91,914.965 1723.95,915.444 1727.98,915.444 1732.01,915.826 1736.04,915.826 1740.07,916.134 1744.1,916.134 1748.13,916.405 1752.16,916.405 1756.19,916.68 1760.22,916.68 1764.25,916.997 1768.28,916.997 1772.32,917.384 1776.35,917.384 1780.38,917.858 1784.41,917.858 1788.44,918.425 1792.47,918.425 1796.5,919.077 1800.53,919.077 1804.56,919.795 1808.59,919.795 1812.62,920.558 1816.65,920.558 1820.69,921.336 1824.72,921.336 1828.75,922.102 1832.78,922.102 1836.81,922.828 1840.84,922.828 1844.87,923.492 1848.9,923.492 1852.93,924.075 1856.96,924.075 1860.99,924.57 1865.02,924.57 1869.06,924.98 1873.09,924.98 1877.12,925.318 1881.15,925.318 1885.18,925.606 1889.21,925.606 1893.24,925.873 1897.27,925.873 1901.3,926.149 1905.33,926.149 1909.36,926.463 1913.39,926.463 1917.43,926.835 1921.46,926.835 1925.49,927.277 1929.52,927.277 1933.55,927.793 1937.58,927.793 1941.61,928.376 1945.64,928.376 1949.67,929.015 1953.7,929.015 1957.73,929.691 1961.76,929.691 1965.8,930.383 1969.83,930.383 1973.86,931.069 1977.89,931.069 1981.92,931.728 1985.95,931.728 1989.98,932.341 1994.01,932.341 1998.04,932.893 2002.07,932.893 2006.1,933.376 2010.13,933.376 2014.17,933.788 2018.2,933.788 2022.23,934.136 2026.26,934.136 2030.29,934.435 2034.32,934.435 2038.35,934.704 2042.38,934.704 2046.41,934.966 2050.44,934.966 2054.47,935.244 2058.5,935.244 2062.54,935.558 2066.57,935.558 2070.6,935.922 2074.63,935.922 2078.66,936.344 2082.69,936.344 2086.72,936.826 2090.75,936.826 2094.78,937.36 2098.81,937.36 2102.84,937.939 2106.87,937.939 2110.91,938.546 2114.94,938.546 2118.97,939.166 2123,939.166 2127.03,939.781 2131.06,939.781 2135.09,940.375 2139.12,940.375 2143.15,940.933 2147.18,940.933 2151.21,941.442 2155.24,941.442 2159.28,941.896 2163.31,941.896 2167.34,942.293 2171.37,942.293 2175.4,942.635 2179.43,942.635 2183.46,942.933 2187.49,942.933 2191.52,943.201 2195.55,943.201 2199.58,943.456 2203.61,943.456 2207.65,943.716 2211.68,943.716 2215.71,943.998 2219.74,943.998 2223.77,944.314 2227.8,944.314 2231.83,944.675 2235.86,944.675 2239.89,945.085 2243.92,945.085 2247.95,945.541 2251.99,945.541 2256.02,946.039 2260.05,946.039 2264.08,946.57 2268.11,946.57 2272.14,947.121 2276.17,947.121 2280.2,947.68 2284.23,947.68 2288.26,948.232 2292.29,948.232 "/>
<polyline clip-path="url(#clip392)" style="stroke:#ffb000; stroke-linecap:round; stroke-linejoin:round; stroke-width:8; stroke-opacity:1; fill:none" stroke-dasharray="32, 20" points="276.876,90.1663 280.906,149.489 284.937,323.593 288.968,323.593 292.999,390.474 297.03,390.474 301.061,454.2 305.091,454.2 309.122,534.238 313.153,534.238 317.184,628.56 321.215,628.56 325.246,628.56 329.276,628.56 333.307,628.56 337.338,628.56 341.369,628.56 345.4,628.56 349.431,628.56 353.461,628.56 357.492,628.56 361.523,628.56 365.554,628.56 369.585,628.56 373.616,628.56 377.646,628.56 381.677,628.56 385.708,628.56 389.739,628.56 393.77,628.56 397.801,628.56 401.831,628.56 405.862,628.56 409.893,628.56 413.924,628.56 417.955,628.56 421.986,629.843 426.016,629.843 430.047,632.292 434.078,632.292 438.109,634.549 442.14,634.549 446.171,636.636 450.201,636.636 454.232,638.577 458.263,638.577 462.294,640.389 466.325,640.389 470.356,642.086 474.386,642.086 478.417,643.682 482.448,643.682 486.479,645.187 490.51,645.187 494.541,646.609 498.571,646.609 502.602,647.958 506.633,647.958 510.664,649.241 514.695,649.241 518.726,650.462 522.756,650.462 526.787,651.628 530.818,651.628 534.849,652.744 538.88,652.744 542.911,653.814 546.942,653.814 550.972,654.841 555.003,654.841 559.034,655.829 563.065,655.829 567.096,656.782 571.127,656.782 575.157,657.701 579.188,657.701 583.219,658.589 587.25,658.589 591.281,659.448 595.312,659.448 599.342,660.281 603.373,660.281 607.404,661.089 611.435,661.089 615.466,661.874 619.497,661.874 623.527,662.637 627.558,662.637 631.589,663.38 635.62,663.38 639.651,664.104 643.682,664.104 647.712,664.81 651.743,664.81 655.774,665.499 659.805,665.499 663.836,666.172 667.867,666.172 671.897,666.83 675.928,666.83 679.959,667.473 683.99,667.473 688.021,668.104 692.052,668.104 696.082,668.721 700.113,668.721 704.144,669.326 708.175,669.326 712.206,669.92 716.237,669.92 720.267,670.503 724.298,670.503 728.329,671.075 732.36,671.075 736.391,671.638 740.422,671.638 744.452,672.191 748.483,672.191 752.514,672.734 756.545,672.734 760.576,673.269 764.607,673.269 768.637,673.796 772.668,673.796 776.699,674.314 780.73,674.314 784.761,674.825 788.792,674.825 792.822,675.329 796.853,675.329 800.884,675.825 804.915,675.825 808.946,676.315 812.977,676.315 817.007,676.798 821.038,676.798 825.069,677.275 829.1,677.275 833.131,677.746 837.162,677.746 841.193,678.21 845.223,678.21 849.254,678.669 853.285,678.669 857.316,679.123 861.347,679.123 865.378,679.571 869.408,679.571 873.439,680.014 877.47,680.014 881.501,680.452 885.532,680.452 889.563,680.885 893.593,680.885 897.624,681.314 901.655,681.314 905.686,681.738 909.717,681.738 913.748,682.157 917.778,682.157 921.809,682.573 925.84,682.573 929.871,682.984 933.902,682.984 937.933,683.391 941.963,683.391 945.994,683.794 950.025,683.794 954.056,684.193 958.087,684.193 962.118,684.589 966.148,684.589 970.179,684.98 974.21,684.98 978.241,685.369 982.272,685.369 986.303,685.753 990.333,685.753 994.364,686.135 998.395,686.135 1002.43,686.513 1006.46,686.513 1010.49,686.888 1014.52,686.888 1018.55,687.26 1022.58,687.26 1026.61,687.628 1030.64,687.628 1034.67,687.994 1038.7,687.994 1042.73,688.357 1046.77,688.357 1050.8,688.717 1054.83,688.717 1058.86,689.074 1062.89,689.074 1066.92,689.428 1070.95,689.428 1074.98,689.78 1079.01,689.78 1083.04,690.129 1087.07,690.129 1091.1,690.475 1095.14,690.475 1099.17,690.819 1103.2,690.819 1107.23,691.16 1111.26,691.16 1115.29,691.499 1119.32,691.499 1123.35,691.836 1127.38,691.836 1131.41,692.17 1135.44,692.17 1139.47,692.502 1143.51,692.502 1147.54,692.831 1151.57,692.831 1155.6,693.159 1159.63,693.159 1163.66,693.484 1167.69,693.484 1171.72,693.807 1175.75,693.807 1179.78,694.128 1183.81,694.128 1187.84,694.447 1191.88,694.447 1195.91,694.763 1199.94,694.763 1203.97,695.078 1208,695.078 1212.03,695.391 1216.06,695.391 1220.09,695.702 1224.12,695.702 1228.15,696.011 1232.18,696.011 1236.21,696.318 1240.25,696.318 1244.28,696.623 1248.31,696.623 1252.34,696.926 1256.37,696.926 1260.4,697.228 1264.43,697.228 1268.46,697.528 1272.49,697.528 1276.52,697.826 1280.55,697.826 1284.58,698.122 1288.62,698.122 1292.65,698.417 1296.68,698.417 1300.71,698.71 1304.74,698.71 1308.77,699.001 1312.8,699.001 1316.83,699.291 1320.86,699.291 1324.89,699.579 1328.92,699.579 1332.95,699.865 1336.99,699.865 1341.02,700.15 1345.05,700.15 1349.08,700.434 1353.11,700.434 1357.14,700.716 1361.17,700.716 1365.2,700.996 1369.23,700.996 1373.26,701.275 1377.29,701.275 1381.32,701.553 1385.36,701.553 1389.39,701.829 1393.42,701.829 1397.45,702.103 1401.48,702.103 1405.51,702.376 1409.54,702.376 1413.57,702.648 1417.6,702.648 1421.63,702.919 1425.66,702.919 1429.69,703.188 1433.73,703.188 1437.76,703.455 1441.79,703.455 1445.82,703.722 1449.85,703.722 1453.88,703.987 1457.91,703.987 1461.94,704.251 1465.97,704.251 1470,704.513 1474.03,704.513 1478.06,704.774 1482.1,704.774 1486.13,705.034 1490.16,705.034 1494.19,705.293 1498.22,705.293 1502.25,705.551 1506.28,705.551 1510.31,705.807 1514.34,705.807 1518.37,706.062 1522.4,706.062 1526.43,706.316 1530.47,706.316 1534.5,706.569 1538.53,706.569 1542.56,706.821 1546.59,706.821 1550.62,707.071 1554.65,707.071 1558.68,707.321 1562.71,707.321 1566.74,707.569 1570.77,707.569 1574.8,707.816 1578.84,707.816 1582.87,708.062 1586.9,708.062 1590.93,708.307 1594.96,708.307 1598.99,708.551 1603.02,708.551 1607.05,708.794 1611.08,708.794 1615.11,709.035 1619.14,709.035 1623.17,709.276 1627.21,709.276 1631.24,709.516 1635.27,709.516 1639.3,709.754 1643.33,709.754 1647.36,709.992 1651.39,709.992 1655.42,710.229 1659.45,710.229 1663.48,710.464 1667.51,710.464 1671.54,710.699 1675.58,710.699 1679.61,710.933 1683.64,710.933 1687.67,711.165 1691.7,711.165 1695.73,711.397 1699.76,711.397 1703.79,711.628 1707.82,712.131 1711.85,712.131 1715.88,713.035 1719.91,713.035 1723.95,713.936 1727.98,713.936 1732.01,714.833 1736.04,714.833 1740.07,715.728 1744.1,715.728 1748.13,716.62 1752.16,716.62 1756.19,717.508 1760.22,717.508 1764.25,718.394 1768.28,718.394 1772.32,719.276 1776.35,719.276 1780.38,720.156 1784.41,720.156 1788.44,721.033 1792.47,721.033 1796.5,721.907 1800.53,721.907 1804.56,722.779 1808.59,722.779 1812.62,723.648 1816.65,723.648 1820.69,724.514 1824.72,724.514 1828.75,725.377 1832.78,725.377 1836.81,726.238 1840.84,726.238 1844.87,727.096 1848.9,727.096 1852.93,727.951 1856.96,727.951 1860.99,728.804 1865.02,728.804 1869.06,729.654 1873.09,729.654 1877.12,730.502 1881.15,730.502 1885.18,731.348 1889.21,731.348 1893.24,732.191 1897.27,732.191 1901.3,733.032 1905.33,733.032 1909.36,733.87 1913.39,733.87 1917.43,734.706 1921.46,734.706 1925.49,735.54 1929.52,735.54 1933.55,736.371 1937.58,736.371 1941.61,737.2 1945.64,737.2 1949.67,738.027 1953.7,738.027 1957.73,738.852 1961.76,738.852 1965.8,739.674 1969.83,739.674 1973.86,740.495 1977.89,740.495 1981.92,741.313 1985.95,741.313 1989.98,742.129 1994.01,742.129 1998.04,742.944 2002.07,742.944 2006.1,743.756 2010.13,743.756 2014.17,744.566 2018.2,744.566 2022.23,745.374 2026.26,745.374 2030.29,746.18 2034.32,746.18 2038.35,746.984 2042.38,746.984 2046.41,747.786 2050.44,747.786 2054.47,748.587 2058.5,748.587 2062.54,749.385 2066.57,749.385 2070.6,750.182 2074.63,750.182 2078.66,750.977 2082.69,750.977 2086.72,751.77 2090.75,751.77 2094.78,752.561 2098.81,752.561 2102.84,753.35 2106.87,753.35 2110.91,754.138 2114.94,754.138 2118.97,754.924 2123,754.924 2127.03,755.708 2131.06,755.708 2135.09,756.491 2139.12,756.491 2143.15,757.272 2147.18,757.272 2151.21,758.051 2155.24,758.051 2159.28,758.829 2163.31,758.829 2167.34,759.605 2171.37,759.605 2175.4,760.38 2179.43,760.38 2183.46,761.152 2187.49,761.152 2191.52,761.924 2195.55,761.924 2199.58,762.694 2203.61,762.694 2207.65,763.462 2211.68,763.462 2215.71,764.229 2219.74,764.229 2223.77,764.995 2227.8,764.995 2231.83,765.759 2235.86,765.759 2239.89,766.521 2243.92,766.521 2247.95,767.282 2251.99,767.282 2256.02,768.042 2260.05,768.042 2264.08,768.801 2268.11,768.801 2272.14,769.558 2276.17,769.558 2280.2,770.313 2284.23,770.313 2288.26,771.068 2292.29,771.068 "/>
<path clip-path="url(#clip390)" d="M1827.66 352.309 L2283.56 352.309 L2283.56 93.1086 L1827.66 93.1086  Z" fill="#000000" fill-rule="evenodd" fill-opacity="0"/>
<polyline clip-path="url(#clip390)" style="stroke:#000000; stroke-linecap:round; stroke-linejoin:round; stroke-width:4; stroke-opacity:0; fill:none" points="1827.66,352.309 2283.56,352.309 2283.56,93.1086 1827.66,93.1086 1827.66,352.309 "/>
<polyline clip-path="url(#clip390)" style="stroke:#785ef0; stroke-linecap:round; stroke-linejoin:round; stroke-width:8; stroke-opacity:1; fill:none" points="1850.73,144.949 1989.12,144.949 "/>
<path clip-path="url(#clip390)" d="M2012.19 156.824 L2012.19 155.348 L2013.33 155.348 Q2015.93 155.348 2016.52 154.926 Q2017.13 154.481 2017.13 153.076 L2017.13 127.803 Q2017.13 126.421 2016.52 126 Q2015.91 125.555 2013.33 125.555 L2012.19 125.555 L2012.19 124.056 L2027.25 124.056 Q2032.47 124.056 2036.1 126.632 Q2039.75 129.185 2039.75 132.699 Q2039.75 135.392 2037.39 137.5 Q2035.02 139.608 2031.37 140.522 Q2036.12 142.161 2037.22 146.073 L2037.83 149.914 Q2038.02 151.296 2038.14 151.999 Q2038.28 152.701 2038.49 153.662 Q2038.7 154.622 2038.91 155.09 Q2039.15 155.535 2039.47 156.027 Q2039.8 156.496 2040.22 156.66 Q2040.67 156.824 2041.25 156.824 Q2042.35 156.824 2043.29 155.84 Q2044.23 154.856 2044.42 152.561 Q2044.51 151.788 2045 151.788 Q2045.61 151.788 2045.61 152.561 Q2045.61 153.24 2045.42 154.036 Q2045.24 154.809 2044.77 155.723 Q2044.32 156.636 2043.34 157.245 Q2042.35 157.878 2041.07 157.878 Q2037.32 157.878 2035.02 155.863 Q2034.06 154.997 2033.62 153.872 Q2033.2 152.748 2033.13 151.858 Q2033.06 150.968 2033.06 149.001 Q2033.06 146.213 2032.75 144.995 Q2032.47 143.777 2031.23 142.583 Q2029.54 140.943 2026.75 140.943 L2021.25 140.943 L2021.25 153.076 Q2021.25 154.458 2021.84 154.903 Q2022.44 155.348 2025.04 155.348 L2026.19 155.348 L2026.19 156.824 Q2024.46 156.683 2019.19 156.683 Q2013.92 156.683 2012.19 156.824 M2021.25 139.889 L2026.57 139.889 Q2029.12 139.889 2030.83 139.28 Q2032.56 138.648 2033.38 137.524 Q2034.2 136.399 2034.51 135.275 Q2034.81 134.127 2034.81 132.699 Q2034.81 131.012 2034.44 129.747 Q2034.06 128.482 2033.24 127.733 Q2032.42 126.983 2031.6 126.515 Q2030.78 126.023 2029.52 125.836 Q2028.25 125.648 2027.39 125.602 Q2026.52 125.555 2025.14 125.555 Q2022.8 125.555 2022.3 125.648 Q2021.77 125.695 2021.55 125.953 Q2021.34 126.21 2021.3 126.515 Q2021.25 126.796 2021.25 127.475 L2021.25 139.889 Z" fill="#000000" fill-rule="nonzero" fill-opacity="1" /><path clip-path="url(#clip390)" d="M2047.91 156.824 L2047.91 155.348 L2049.05 155.348 Q2051.65 155.348 2052.24 154.926 Q2052.85 154.481 2052.85 153.076 L2052.85 127.803 Q2052.85 126.421 2052.24 126 Q2051.63 125.555 2049.05 125.555 L2047.91 125.555 L2047.91 124.056 L2064.84 124.056 Q2069.69 124.056 2072.92 126.726 Q2076.15 129.396 2076.15 132.98 Q2076.15 136.54 2072.85 139.116 Q2069.57 141.669 2065.22 141.669 L2057.11 141.669 L2057.11 153.076 Q2057.11 154.458 2057.7 154.903 Q2058.31 155.348 2060.91 155.348 L2062.05 155.348 L2062.05 156.824 Q2060.37 156.683 2054.96 156.683 Q2049.59 156.683 2047.91 156.824 M2056.97 140.428 L2063.58 140.428 Q2065.73 140.428 2067.3 139.819 Q2068.87 139.21 2069.57 138.484 Q2070.3 137.734 2070.7 136.54 Q2071.12 135.322 2071.16 134.666 Q2071.21 133.987 2071.21 132.98 Q2071.21 131.926 2071.16 131.27 Q2071.12 130.59 2070.7 129.396 Q2070.3 128.178 2069.57 127.452 Q2068.87 126.702 2067.3 126.14 Q2065.75 125.555 2063.58 125.555 L2059.31 125.555 Q2057.67 125.555 2057.32 125.883 Q2056.97 126.21 2056.97 127.475 L2056.97 140.428 Z" fill="#000000" fill-rule="nonzero" fill-opacity="1" /><path clip-path="url(#clip390)" d="M2086.53 156.824 L2086.53 155.348 L2087.68 155.348 Q2090.28 155.348 2090.86 154.926 Q2091.47 154.481 2091.47 153.076 L2091.47 127.803 Q2091.47 126.421 2090.86 126 Q2090.25 125.555 2087.68 125.555 L2086.53 125.555 L2086.53 124.056 L2104.07 124.056 Q2108.64 124.056 2111.68 126.515 Q2114.73 128.951 2114.73 132.16 Q2114.73 134.807 2112.48 136.915 Q2110.25 139.023 2106.76 139.702 Q2110.75 140.123 2113.37 142.536 Q2116.02 144.925 2116.02 148.04 Q2116.02 151.554 2112.99 154.2 Q2109.97 156.824 2105.34 156.824 L2086.53 156.824 M2095.45 153.427 Q2095.45 154.669 2095.8 155.02 Q2096.15 155.348 2097.79 155.348 L2103.79 155.348 Q2107.23 155.348 2109.22 153.099 Q2111.21 150.827 2111.21 147.993 Q2111.21 145.159 2109.46 142.747 Q2107.72 140.311 2104.47 140.311 L2095.45 140.311 L2095.45 153.427 M2095.45 139.257 L2102.41 139.257 Q2106.11 139.257 2108.08 137.032 Q2110.07 134.807 2110.07 132.16 Q2110.07 129.818 2108.47 127.686 Q2106.91 125.555 2103.74 125.555 L2097.79 125.555 Q2096.15 125.555 2095.8 125.883 Q2095.45 126.21 2095.45 127.475 L2095.45 139.257 Z" fill="#000000" fill-rule="nonzero" fill-opacity="1" /><path clip-path="url(#clip390)" d="M2125.51 144.831 Q2125.51 136.727 2128.53 130.192 Q2129.82 127.452 2131.62 125.156 Q2133.43 122.861 2134.62 121.854 Q2135.82 120.847 2136.14 120.847 Q2136.61 120.847 2136.64 121.315 Q2136.64 121.549 2136 122.135 Q2128.27 130.005 2128.3 144.831 Q2128.3 159.705 2135.82 167.27 Q2136.64 168.09 2136.64 168.347 Q2136.64 168.816 2136.14 168.816 Q2135.82 168.816 2134.67 167.856 Q2133.52 166.895 2131.74 164.694 Q2129.96 162.492 2128.67 159.798 Q2125.51 153.263 2125.51 144.831 Z" fill="#000000" fill-rule="nonzero" fill-opacity="1" /><path clip-path="url(#clip390)" d="M2141.24 140.568 Q2141.24 133.237 2145.92 128.131 Q2150.63 123.002 2157.17 123.002 Q2163.75 123.002 2168.43 128.131 Q2173.14 133.261 2173.14 140.568 Q2173.14 147.806 2168.43 152.842 Q2163.72 157.878 2157.17 157.878 Q2150.7 157.878 2145.97 152.865 Q2141.24 147.853 2141.24 140.568 M2146.18 139.889 Q2146.18 144.339 2147.23 147.759 Q2148.29 151.155 2149.97 153.006 Q2151.68 154.856 2153.51 155.746 Q2155.34 156.636 2157.21 156.636 Q2159.04 156.636 2160.82 155.77 Q2162.62 154.903 2164.33 153.076 Q2166.04 151.249 2167.12 147.829 Q2168.2 144.41 2168.2 139.889 Q2168.2 136.376 2167.45 133.565 Q2166.7 130.731 2165.53 129.021 Q2164.36 127.311 2162.83 126.187 Q2161.33 125.063 2159.91 124.641 Q2158.5 124.196 2157.17 124.196 Q2155.48 124.196 2153.72 124.946 Q2151.97 125.695 2150.19 127.358 Q2148.43 128.998 2147.3 132.253 Q2146.18 135.486 2146.18 139.889 Z" fill="#000000" fill-rule="nonzero" fill-opacity="1" /><path clip-path="url(#clip390)" d="M2177.75 137.641 L2177.75 136.142 L2184.8 135.626 L2184.8 151.554 Q2184.8 152.701 2184.9 153.381 Q2184.99 154.036 2185.37 154.809 Q2185.77 155.582 2186.66 155.934 Q2187.57 156.285 2189.02 156.285 Q2191.62 156.285 2193.21 154.153 Q2194.83 152.022 2194.83 148.86 L2194.83 140.311 Q2194.83 138.531 2194.2 138.086 Q2193.56 137.641 2191.08 137.641 L2191.08 136.142 L2198.13 135.626 L2198.13 152.654 Q2198.13 154.435 2198.74 154.903 Q2199.37 155.348 2201.88 155.348 L2201.88 156.824 L2194.97 157.362 L2194.97 153.029 Q2192.96 157.339 2188.79 157.362 Q2186.68 157.362 2185.23 156.824 Q2183.8 156.285 2183.07 155.629 Q2182.35 154.95 2181.95 153.662 Q2181.57 152.373 2181.53 151.577 Q2181.48 150.781 2181.48 149.235 L2181.48 142.044 Q2181.48 138.788 2181.01 138.226 Q2180.54 137.641 2177.75 137.641 Z" fill="#000000" fill-rule="nonzero" fill-opacity="1" /><path clip-path="url(#clip390)" d="M2203.53 156.824 L2203.53 155.348 Q2206.08 155.348 2206.67 155.044 Q2207.27 154.716 2207.27 153.17 L2207.27 140.311 Q2207.27 138.531 2206.64 138.086 Q2206.03 137.641 2203.53 137.641 L2203.53 136.142 L2210.2 135.626 L2210.2 140.896 Q2210.88 138.835 2212.31 137.242 Q2213.76 135.626 2216.1 135.626 Q2217.65 135.626 2218.63 136.493 Q2219.64 137.36 2219.64 138.554 Q2219.64 139.608 2218.99 140.147 Q2218.35 140.662 2217.58 140.662 Q2216.71 140.662 2216.1 140.123 Q2215.52 139.561 2215.52 138.601 Q2215.52 138.015 2215.78 137.57 Q2216.06 137.102 2216.27 136.938 Q2216.48 136.774 2216.62 136.727 Q2216.53 136.68 2216.1 136.68 Q2213.46 136.68 2211.94 139.327 Q2210.44 141.95 2210.44 145.698 L2210.44 153.076 Q2210.44 154.458 2211 154.903 Q2211.58 155.348 2214.09 155.348 L2215.1 155.348 L2215.1 156.824 Q2213.18 156.683 2209.01 156.683 Q2208.42 156.683 2207.51 156.707 Q2206.59 156.73 2205.4 156.777 Q2204.21 156.824 2203.53 156.824 Z" fill="#000000" fill-rule="nonzero" fill-opacity="1" /><path clip-path="url(#clip390)" d="M2222.62 156.191 L2222.62 149.867 Q2222.62 149.328 2222.64 149.141 Q2222.66 148.954 2222.8 148.813 Q2222.95 148.673 2223.23 148.673 Q2223.55 148.673 2223.67 148.813 Q2223.81 148.954 2223.91 149.492 Q2224.63 152.795 2226.18 154.552 Q2227.75 156.285 2230.58 156.285 Q2233.27 156.285 2234.63 155.09 Q2235.99 153.896 2235.99 151.928 Q2235.99 148.415 2231 147.525 Q2228.12 146.939 2226.93 146.565 Q2225.73 146.166 2224.68 145.3 Q2222.62 143.613 2222.62 141.224 Q2222.62 138.835 2224.42 137.078 Q2226.25 135.322 2230.28 135.322 Q2232.97 135.322 2234.8 136.68 Q2235.34 136.259 2235.62 135.907 Q2236.25 135.322 2236.58 135.322 Q2236.95 135.322 2237.02 135.579 Q2237.09 135.814 2237.09 136.493 L2237.09 141.318 Q2237.09 141.857 2237.07 142.044 Q2237.05 142.231 2236.9 142.372 Q2236.76 142.489 2236.46 142.489 Q2235.92 142.489 2235.9 142.044 Q2235.52 136.235 2230.28 136.235 Q2227.44 136.235 2226.18 137.336 Q2224.91 138.414 2224.91 139.889 Q2224.91 140.709 2225.29 141.341 Q2225.69 141.95 2226.18 142.325 Q2226.69 142.676 2227.63 143.028 Q2228.57 143.356 2229.13 143.473 Q2229.71 143.59 2230.82 143.824 Q2234.66 144.55 2236.27 146.12 Q2238.29 148.134 2238.29 150.687 Q2238.29 153.521 2236.37 155.442 Q2234.45 157.362 2230.58 157.362 Q2227.47 157.362 2225.29 155.278 Q2225.01 155.559 2224.8 155.816 Q2224.58 156.051 2224.49 156.144 Q2224.42 156.238 2224.4 156.308 Q2224.37 156.355 2224.33 156.402 Q2223.37 157.362 2223.13 157.362 Q2222.76 157.362 2222.69 157.105 Q2222.62 156.87 2222.62 156.191 Z" fill="#000000" fill-rule="nonzero" fill-opacity="1" /><path clip-path="url(#clip390)" d="M2242.08 168.347 Q2242.08 168.113 2242.69 167.528 Q2250.42 159.658 2250.42 144.831 Q2250.42 129.958 2242.99 122.439 Q2242.08 121.573 2242.08 121.315 Q2242.08 120.847 2242.55 120.847 Q2242.88 120.847 2244.02 121.807 Q2245.19 122.767 2246.95 124.969 Q2248.73 127.171 2250.04 129.864 Q2253.2 136.399 2253.2 144.831 Q2253.2 152.935 2250.18 159.47 Q2248.89 162.211 2247.09 164.506 Q2245.29 166.802 2244.09 167.809 Q2242.9 168.816 2242.55 168.816 Q2242.08 168.816 2242.08 168.347 Z" fill="#000000" fill-rule="nonzero" fill-opacity="1" /><polyline clip-path="url(#clip390)" style="stroke:#fe6100; stroke-linecap:round; stroke-linejoin:round; stroke-width:8; stroke-opacity:1; fill:none" points="1850.73,196.789 1989.12,196.789 "/>
<path clip-path="url(#clip390)" d="M2012.19 213.007 L2012.19 211.532 L2013.33 211.532 Q2015.93 211.532 2016.52 211.11 Q2017.13 210.665 2017.13 209.26 L2017.13 183.987 Q2017.13 182.605 2016.52 182.183 Q2015.91 181.738 2013.33 181.738 L2012.19 181.738 L2012.19 180.239 L2027.25 180.239 Q2032.47 180.239 2036.1 182.816 Q2039.75 185.369 2039.75 188.882 Q2039.75 191.576 2037.39 193.684 Q2035.02 195.792 2031.37 196.705 Q2036.12 198.345 2037.22 202.256 L2037.83 206.098 Q2038.02 207.48 2038.14 208.182 Q2038.28 208.885 2038.49 209.845 Q2038.7 210.806 2038.91 211.274 Q2039.15 211.719 2039.47 212.211 Q2039.8 212.679 2040.22 212.843 Q2040.67 213.007 2041.25 213.007 Q2042.35 213.007 2043.29 212.024 Q2044.23 211.04 2044.42 208.744 Q2044.51 207.972 2045 207.972 Q2045.61 207.972 2045.61 208.744 Q2045.61 209.424 2045.42 210.22 Q2045.24 210.993 2044.77 211.907 Q2044.32 212.82 2043.34 213.429 Q2042.35 214.061 2041.07 214.061 Q2037.32 214.061 2035.02 212.047 Q2034.06 211.18 2033.62 210.056 Q2033.2 208.932 2033.13 208.042 Q2033.06 207.152 2033.06 205.184 Q2033.06 202.397 2032.75 201.179 Q2032.47 199.961 2031.23 198.767 Q2029.54 197.127 2026.75 197.127 L2021.25 197.127 L2021.25 209.26 Q2021.25 210.642 2021.84 211.087 Q2022.44 211.532 2025.04 211.532 L2026.19 211.532 L2026.19 213.007 Q2024.46 212.867 2019.19 212.867 Q2013.92 212.867 2012.19 213.007 M2021.25 196.073 L2026.57 196.073 Q2029.12 196.073 2030.83 195.464 Q2032.56 194.832 2033.38 193.707 Q2034.2 192.583 2034.51 191.459 Q2034.81 190.311 2034.81 188.882 Q2034.81 187.196 2034.44 185.931 Q2034.06 184.666 2033.24 183.917 Q2032.42 183.167 2031.6 182.699 Q2030.78 182.207 2029.52 182.019 Q2028.25 181.832 2027.39 181.785 Q2026.52 181.738 2025.14 181.738 Q2022.8 181.738 2022.3 181.832 Q2021.77 181.879 2021.55 182.137 Q2021.34 182.394 2021.3 182.699 Q2021.25 182.98 2021.25 183.659 L2021.25 196.073 Z" fill="#000000" fill-rule="nonzero" fill-opacity="1" /><path clip-path="url(#clip390)" d="M2045.82 196.612 Q2045.82 189.374 2050.76 184.291 Q2055.71 179.185 2062.5 179.185 Q2064.61 179.185 2066.48 179.958 Q2068.35 180.731 2069.22 181.41 Q2070.09 182.066 2071.33 183.308 L2073.74 179.771 Q2074.12 179.185 2074.49 179.185 Q2074.89 179.185 2074.96 179.42 Q2075.03 179.63 2075.03 180.333 L2075.03 191.716 Q2075.03 192.489 2074.94 192.677 Q2074.84 192.864 2074.26 192.864 Q2073.79 192.864 2073.67 192.724 Q2073.58 192.583 2073.48 192.044 Q2072.76 186.868 2069.88 183.776 Q2067.02 180.684 2063.04 180.684 Q2061.89 180.684 2060.6 180.942 Q2059.34 181.2 2057.49 182.183 Q2055.66 183.167 2054.23 184.807 Q2052.82 186.423 2051.79 189.515 Q2050.76 192.583 2050.76 196.659 Q2050.76 200.687 2051.79 203.779 Q2052.82 206.871 2054.23 208.487 Q2055.66 210.08 2057.49 211.063 Q2059.34 212.047 2060.62 212.328 Q2061.94 212.586 2063.08 212.586 Q2067.21 212.586 2070.37 209.658 Q2073.53 206.73 2073.83 201.788 Q2073.88 201.554 2073.88 201.46 Q2073.88 201.343 2073.93 201.226 Q2073.98 201.109 2074.09 201.062 Q2074.21 201.015 2074.4 201.015 Q2075.03 201.015 2075.03 201.835 Q2075.03 206.402 2071.52 210.244 Q2068.03 214.061 2062.5 214.061 Q2055.68 214.061 2050.74 209.002 Q2045.82 203.943 2045.82 196.612 Z" fill="#000000" fill-rule="nonzero" fill-opacity="1" /><path clip-path="url(#clip390)" d="M2082.98 213.007 L2082.98 211.532 L2084.13 211.532 Q2086.73 211.532 2087.31 211.11 Q2087.92 210.665 2087.92 209.26 L2087.92 183.987 Q2087.92 182.605 2087.31 182.183 Q2086.71 181.738 2084.13 181.738 L2082.98 181.738 L2082.98 180.239 L2100.52 180.239 Q2105.09 180.239 2108.14 182.699 Q2111.18 185.135 2111.18 188.344 Q2111.18 190.99 2108.93 193.098 Q2106.71 195.206 2103.22 195.886 Q2107.2 196.307 2109.82 198.72 Q2112.47 201.109 2112.47 204.224 Q2112.47 207.737 2109.45 210.384 Q2106.43 213.007 2101.79 213.007 L2082.98 213.007 M2091.91 209.611 Q2091.91 210.853 2092.26 211.204 Q2092.61 211.532 2094.25 211.532 L2100.24 211.532 Q2103.69 211.532 2105.68 209.283 Q2107.67 207.011 2107.67 204.177 Q2107.67 201.343 2105.91 198.93 Q2104.18 196.495 2100.92 196.495 L2091.91 196.495 L2091.91 209.611 M2091.91 195.441 L2098.86 195.441 Q2102.56 195.441 2104.53 193.215 Q2106.52 190.99 2106.52 188.344 Q2106.52 186.001 2104.93 183.87 Q2103.36 181.738 2100.2 181.738 L2094.25 181.738 Q2092.61 181.738 2092.26 182.066 Q2091.91 182.394 2091.91 183.659 L2091.91 195.441 Z" fill="#000000" fill-rule="nonzero" fill-opacity="1" /><path clip-path="url(#clip390)" d="M2118.32 213.007 L2118.32 211.532 Q2120.05 211.532 2121.15 211.204 Q2122.25 210.853 2122.65 210.22 Q2123.07 209.564 2123.16 209.143 Q2123.26 208.698 2123.26 207.972 L2123.26 183.987 Q2123.26 182.605 2122.65 182.183 Q2122.06 181.738 2119.46 181.738 L2118.32 181.738 L2118.32 180.239 L2126.42 180.239 Q2127.29 180.239 2127.52 180.403 Q2127.76 180.544 2128.11 181.293 L2138.51 208.159 L2149 181.153 Q2149.23 180.474 2149.44 180.356 Q2149.68 180.239 2150.59 180.239 L2158.7 180.239 L2158.7 181.738 L2157.55 181.738 Q2154.95 181.738 2154.34 182.183 Q2153.75 182.605 2153.75 183.987 L2153.75 209.26 Q2153.75 210.642 2154.34 211.087 Q2154.95 211.532 2157.55 211.532 L2158.7 211.532 L2158.7 213.007 Q2156.92 212.867 2151.83 212.867 Q2146.7 212.867 2144.92 213.007 L2144.92 211.532 L2146.1 211.532 Q2148.7 211.532 2149.28 211.11 Q2149.87 210.665 2149.87 209.26 L2149.87 181.738 L2149.82 181.738 L2138.04 212.094 Q2137.71 213.007 2137.17 213.007 Q2136.59 213.007 2136.21 211.953 L2124.64 182.113 L2124.59 182.113 L2124.59 207.972 Q2124.59 208.698 2124.69 209.143 Q2124.78 209.564 2125.18 210.22 Q2125.6 210.853 2126.7 211.204 Q2127.8 211.532 2129.54 211.532 L2129.54 213.007 Q2124.5 212.867 2123.91 212.867 Q2123.35 212.867 2118.32 213.007 Z" fill="#000000" fill-rule="nonzero" fill-opacity="1" /><polyline clip-path="url(#clip390)" style="stroke:#dc267f; stroke-linecap:round; stroke-linejoin:round; stroke-width:8; stroke-opacity:1; fill:none" points="1850.73,248.629 1989.12,248.629 "/>
<path clip-path="url(#clip390)" d="M2012.19 265.629 L2012.19 264.153 L2013.33 264.153 Q2015.93 264.153 2016.52 263.731 Q2017.13 263.286 2017.13 261.881 L2017.13 236.608 Q2017.13 235.226 2016.52 234.805 Q2015.91 234.36 2013.33 234.36 L2012.19 234.36 L2012.19 232.861 L2029.12 232.861 Q2033.97 232.861 2037.2 235.531 Q2040.43 238.201 2040.43 241.785 Q2040.43 245.345 2037.13 247.921 Q2033.85 250.474 2029.5 250.474 L2021.39 250.474 L2021.39 261.881 Q2021.39 263.263 2021.98 263.708 Q2022.59 264.153 2025.19 264.153 L2026.33 264.153 L2026.33 265.629 Q2024.65 265.488 2019.24 265.488 Q2013.87 265.488 2012.19 265.629 M2021.25 249.233 L2027.86 249.233 Q2030.01 249.233 2031.58 248.624 Q2033.15 248.015 2033.85 247.289 Q2034.58 246.539 2034.98 245.345 Q2035.4 244.127 2035.44 243.471 Q2035.49 242.792 2035.49 241.785 Q2035.49 240.731 2035.44 240.075 Q2035.4 239.395 2034.98 238.201 Q2034.58 236.983 2033.85 236.257 Q2033.15 235.507 2031.58 234.945 Q2030.03 234.36 2027.86 234.36 L2023.59 234.36 Q2021.95 234.36 2021.6 234.688 Q2021.25 235.015 2021.25 236.28 L2021.25 249.233 Z" fill="#000000" fill-rule="nonzero" fill-opacity="1" /><path clip-path="url(#clip390)" d="M2050.81 265.629 L2050.81 264.153 L2051.95 264.153 Q2054.55 264.153 2055.14 263.731 Q2055.75 263.286 2055.75 261.881 L2055.75 236.608 Q2055.75 235.226 2055.14 234.805 Q2054.53 234.36 2051.95 234.36 L2050.81 234.36 L2050.81 232.861 L2068.35 232.861 Q2072.92 232.861 2075.96 235.32 Q2079.01 237.756 2079.01 240.965 Q2079.01 243.612 2076.76 245.72 Q2074.53 247.828 2071.04 248.507 Q2075.03 248.928 2077.65 251.341 Q2080.3 253.73 2080.3 256.845 Q2080.3 260.359 2077.27 263.005 Q2074.25 265.629 2069.62 265.629 L2050.81 265.629 M2059.73 262.232 Q2059.73 263.474 2060.08 263.825 Q2060.43 264.153 2062.07 264.153 L2068.07 264.153 Q2071.51 264.153 2073.5 261.904 Q2075.49 259.632 2075.49 256.798 Q2075.49 253.964 2073.74 251.552 Q2072 249.116 2068.75 249.116 L2059.73 249.116 L2059.73 262.232 M2059.73 248.062 L2066.69 248.062 Q2070.39 248.062 2072.36 245.837 Q2074.35 243.612 2074.35 240.965 Q2074.35 238.623 2072.75 236.491 Q2071.18 234.36 2068.02 234.36 L2062.07 234.36 Q2060.43 234.36 2060.08 234.688 Q2059.73 235.015 2059.73 236.28 L2059.73 248.062 Z" fill="#000000" fill-rule="nonzero" fill-opacity="1" /><path clip-path="url(#clip390)" d="M2084.81 265.629 L2084.81 264.153 Q2089.07 264.059 2090.17 260.921 L2100.1 232.252 Q2100.29 231.666 2100.5 231.479 Q2100.71 231.291 2101.25 231.291 Q2101.53 231.291 2101.69 231.338 Q2101.88 231.385 2102 231.549 Q2102.12 231.713 2102.16 231.807 Q2102.21 231.9 2102.35 232.252 L2112.7 262.232 Q2113.08 263.427 2113.85 263.802 Q2114.62 264.153 2116.8 264.153 L2117.65 264.153 L2117.65 265.629 Q2114.62 265.488 2111.37 265.488 Q2106.19 265.488 2104.46 265.629 L2104.46 264.153 Q2108.44 264.153 2108.44 262.701 Q2108.44 262.607 2108.3 262.022 L2105.77 254.69 L2093.92 254.69 L2091.69 260.968 Q2091.6 261.155 2091.6 261.694 Q2091.6 262.701 2092.54 263.427 Q2093.47 264.153 2095.21 264.153 L2095.21 265.629 Q2090.59 265.488 2089.68 265.488 Q2088.11 265.488 2084.81 265.629 M2094.43 253.215 L2105.23 253.215 L2099.82 237.615 L2094.43 253.215 Z" fill="#000000" fill-rule="nonzero" fill-opacity="1" /><polyline clip-path="url(#clip390)" style="stroke:#ffb000; stroke-linecap:round; stroke-linejoin:round; stroke-width:8; stroke-opacity:1; fill:none" points="1850.73,300.469 1989.12,300.469 "/>
<path clip-path="url(#clip390)" d="M2012.19 316.594 L2012.19 306.99 Q2012.19 306.452 2012.21 306.264 Q2012.23 306.077 2012.37 305.936 Q2012.51 305.796 2012.79 305.796 Q2013.33 305.796 2013.38 306.288 Q2013.52 311.043 2016.36 313.666 Q2019.14 316.266 2023.92 316.266 Q2026.8 316.266 2028.58 314.205 Q2030.36 312.12 2030.36 309.403 Q2030.36 306.803 2028.86 304.976 Q2028.23 304.156 2027.43 303.641 Q2026.66 303.102 2026.17 302.938 Q2025.7 302.774 2024.79 302.54 Q2018.84 301.111 2018.46 300.947 Q2015.63 299.987 2013.9 297.575 Q2012.19 295.139 2012.19 292.164 Q2012.19 288.323 2014.88 285.606 Q2017.6 282.865 2021.53 282.865 Q2023.5 282.865 2025.14 283.498 Q2026.8 284.107 2027.48 284.669 Q2028.16 285.231 2029.21 286.238 L2030.88 283.498 Q2031.25 282.865 2031.6 282.865 Q2031.98 282.865 2032.05 283.1 Q2032.14 283.31 2032.14 284.013 L2032.14 293.663 Q2032.14 294.202 2032.12 294.389 Q2032.1 294.577 2031.93 294.694 Q2031.79 294.811 2031.51 294.811 Q2031.04 294.811 2030.92 294.249 Q2029.59 284.224 2021.58 284.224 Q2018.84 284.224 2017.03 286.074 Q2015.25 287.901 2015.25 290.501 Q2015.25 292.609 2016.57 294.342 Q2017.88 296.052 2020.1 296.591 L2026.24 298.067 Q2029.31 298.793 2031.37 301.51 Q2033.43 304.227 2033.43 307.763 Q2033.43 311.839 2030.76 314.79 Q2028.11 317.741 2023.97 317.741 Q2020.99 317.741 2018.7 316.758 Q2016.4 315.774 2015.16 314.392 Q2014.2 315.985 2013.57 316.875 L2013.43 317.109 Q2013.05 317.741 2012.7 317.741 Q2012.33 317.741 2012.26 317.507 Q2012.19 317.273 2012.19 316.594 Z" fill="#000000" fill-rule="nonzero" fill-opacity="1" /><path clip-path="url(#clip390)" d="M2045.56 312.659 Q2040.65 307.576 2040.65 300.292 Q2040.65 292.984 2045.61 287.925 Q2050.58 282.865 2057.32 282.865 Q2059.01 282.865 2060.44 283.264 Q2061.89 283.638 2063.04 284.411 Q2064.19 285.161 2064.77 285.676 Q2065.38 286.168 2066.2 286.988 L2068.61 283.451 Q2068.99 282.865 2069.36 282.865 Q2069.76 282.865 2069.83 283.1 Q2069.9 283.31 2069.9 284.013 L2069.9 295.396 Q2069.9 296.169 2069.81 296.357 Q2069.71 296.544 2069.13 296.544 Q2068.66 296.544 2068.57 296.404 Q2068.47 296.263 2068.35 295.724 Q2067.63 290.548 2064.72 287.456 Q2061.84 284.364 2057.91 284.364 Q2056.76 284.364 2055.47 284.622 Q2054.21 284.88 2052.33 285.863 Q2050.48 286.847 2049.05 288.463 Q2047.65 290.056 2046.62 293.148 Q2045.59 296.216 2045.59 300.292 Q2045.59 304.32 2046.62 307.412 Q2047.65 310.504 2049.08 312.12 Q2050.53 313.713 2052.4 314.72 Q2054.3 315.727 2055.64 316.008 Q2056.99 316.266 2058.19 316.266 Q2059.01 316.266 2059.97 316.102 Q2060.93 315.914 2062.36 315.399 Q2063.81 314.86 2064.72 313.596 Q2065.64 312.331 2065.64 310.457 L2065.64 307.389 Q2065.64 305.96 2064.93 305.515 Q2064.23 305.07 2061.16 305.07 L2059.64 305.07 L2059.64 303.594 Q2061.37 303.735 2067.35 303.735 Q2067.89 303.735 2073.2 303.594 L2073.2 305.07 Q2070.91 305.07 2070.39 305.421 Q2069.9 305.749 2069.9 307.178 L2069.9 315.54 Q2069.9 316.641 2069.48 316.641 Q2069.1 316.641 2067.98 315.563 Q2066.88 314.486 2066.39 313.666 Q2065.24 315.68 2062.73 316.711 Q2060.25 317.741 2057.42 317.741 Q2050.51 317.741 2045.56 312.659 Z" fill="#000000" fill-rule="nonzero" fill-opacity="1" /><path clip-path="url(#clip390)" d="M2077.49 316.687 L2077.49 315.212 Q2079.22 315.212 2080.32 314.884 Q2081.42 314.533 2081.82 313.9 Q2082.24 313.244 2082.34 312.823 Q2082.43 312.378 2082.43 311.652 L2082.43 287.667 Q2082.43 286.285 2081.82 285.863 Q2081.23 285.418 2078.63 285.418 L2077.49 285.418 L2077.49 283.919 L2085.59 283.919 Q2086.46 283.919 2086.69 284.083 Q2086.93 284.224 2087.28 284.973 L2097.68 311.839 L2108.17 284.833 Q2108.4 284.154 2108.62 284.036 Q2108.85 283.919 2109.76 283.919 L2117.87 283.919 L2117.87 285.418 L2116.72 285.418 Q2114.12 285.418 2113.51 285.863 Q2112.93 286.285 2112.93 287.667 L2112.93 312.94 Q2112.93 314.322 2113.51 314.767 Q2114.12 315.212 2116.72 315.212 L2117.87 315.212 L2117.87 316.687 Q2116.09 316.547 2111 316.547 Q2105.87 316.547 2104.09 316.687 L2104.09 315.212 L2105.27 315.212 Q2107.87 315.212 2108.45 314.79 Q2109.04 314.345 2109.04 312.94 L2109.04 285.418 L2108.99 285.418 L2097.21 315.774 Q2096.88 316.687 2096.34 316.687 Q2095.76 316.687 2095.38 315.633 L2083.81 285.793 L2083.76 285.793 L2083.76 311.652 Q2083.76 312.378 2083.86 312.823 Q2083.95 313.244 2084.35 313.9 Q2084.77 314.533 2085.87 314.884 Q2086.97 315.212 2088.71 315.212 L2088.71 316.687 Q2083.67 316.547 2083.08 316.547 Q2082.52 316.547 2077.49 316.687 Z" fill="#000000" fill-rule="nonzero" fill-opacity="1" /></svg>
