<?xml version="1.0" encoding="utf-8"?>
<svg xmlns="http://www.w3.org/2000/svg" xmlns:xlink="http://www.w3.org/1999/xlink" width="600" height="400" viewBox="0 0 2400 1600">
<defs>
  <clipPath id="clip460">
    <rect x="0" y="0" width="2400" height="1600"/>
  </clipPath>
</defs>
<path clip-path="url(#clip460)" d="M0 1600 L2400 1600 L2400 8.88178e-14 L0 8.88178e-14  Z" fill="#ffffff" fill-rule="evenodd" fill-opacity="1"/>
<defs>
  <clipPath id="clip461">
    <rect x="480" y="0" width="1681" height="1600"/>
  </clipPath>
</defs>
<path clip-path="url(#clip460)" d="M276.876 1423.18 L2352.76 1423.18 L2352.76 47.2441 L276.876 47.2441  Z" fill="#ffffff" fill-rule="evenodd" fill-opacity="1"/>
<defs>
  <clipPath id="clip462">
    <rect x="276" y="47" width="2077" height="1377"/>
  </clipPath>
</defs>
<polyline clip-path="url(#clip462)" style="stroke:#000000; stroke-linecap:round; stroke-linejoin:round; stroke-width:2; stroke-opacity:0.1; fill:none" points="547.643,1423.18 547.643,47.2441 "/>
<polyline clip-path="url(#clip462)" style="stroke:#000000; stroke-linecap:round; stroke-linejoin:round; stroke-width:2; stroke-opacity:0.1; fill:none" points="848.495,1423.18 848.495,47.2441 "/>
<polyline clip-path="url(#clip462)" style="stroke:#000000; stroke-linecap:round; stroke-linejoin:round; stroke-width:2; stroke-opacity:0.1; fill:none" points="1149.35,1423.18 1149.35,47.2441 "/>
<polyline clip-path="url(#clip462)" style="stroke:#000000; stroke-linecap:round; stroke-linejoin:round; stroke-width:2; stroke-opacity:0.1; fill:none" points="1450.2,1423.18 1450.2,47.2441 "/>
<polyline clip-path="url(#clip462)" style="stroke:#000000; stroke-linecap:round; stroke-linejoin:round; stroke-width:2; stroke-opacity:0.1; fill:none" points="1751.05,1423.18 1751.05,47.2441 "/>
<polyline clip-path="url(#clip462)" style="stroke:#000000; stroke-linecap:round; stroke-linejoin:round; stroke-width:2; stroke-opacity:0.1; fill:none" points="2051.9,1423.18 2051.9,47.2441 "/>
<polyline clip-path="url(#clip462)" style="stroke:#000000; stroke-linecap:round; stroke-linejoin:round; stroke-width:2; stroke-opacity:0.1; fill:none" points="2352.76,1423.18 2352.76,47.2441 "/>
<polyline clip-path="url(#clip462)" style="stroke:#000000; stroke-linecap:round; stroke-linejoin:round; stroke-width:2; stroke-opacity:0.1; fill:none" points="276.876,1200.18 2352.76,1200.18 "/>
<polyline clip-path="url(#clip462)" style="stroke:#000000; stroke-linecap:round; stroke-linejoin:round; stroke-width:2; stroke-opacity:0.1; fill:none" points="276.876,642.672 2352.76,642.672 "/>
<polyline clip-path="url(#clip462)" style="stroke:#000000; stroke-linecap:round; stroke-linejoin:round; stroke-width:2; stroke-opacity:0.1; fill:none" points="276.876,85.1656 2352.76,85.1656 "/>
<polyline clip-path="url(#clip460)" style="stroke:#000000; stroke-linecap:round; stroke-linejoin:round; stroke-width:4; stroke-opacity:1; fill:none" points="276.876,1423.18 2352.76,1423.18 "/>
<polyline clip-path="url(#clip460)" style="stroke:#000000; stroke-linecap:round; stroke-linejoin:round; stroke-width:4; stroke-opacity:1; fill:none" points="547.643,1423.18 547.643,1404.28 "/>
<polyline clip-path="url(#clip460)" style="stroke:#000000; stroke-linecap:round; stroke-linejoin:round; stroke-width:4; stroke-opacity:1; fill:none" points="848.495,1423.18 848.495,1404.28 "/>
<polyline clip-path="url(#clip460)" style="stroke:#000000; stroke-linecap:round; stroke-linejoin:round; stroke-width:4; stroke-opacity:1; fill:none" points="1149.35,1423.18 1149.35,1404.28 "/>
<polyline clip-path="url(#clip460)" style="stroke:#000000; stroke-linecap:round; stroke-linejoin:round; stroke-width:4; stroke-opacity:1; fill:none" points="1450.2,1423.18 1450.2,1404.28 "/>
<polyline clip-path="url(#clip460)" style="stroke:#000000; stroke-linecap:round; stroke-linejoin:round; stroke-width:4; stroke-opacity:1; fill:none" points="1751.05,1423.18 1751.05,1404.28 "/>
<polyline clip-path="url(#clip460)" style="stroke:#000000; stroke-linecap:round; stroke-linejoin:round; stroke-width:4; stroke-opacity:1; fill:none" points="2051.9,1423.18 2051.9,1404.28 "/>
<polyline clip-path="url(#clip460)" style="stroke:#000000; stroke-linecap:round; stroke-linejoin:round; stroke-width:4; stroke-opacity:1; fill:none" points="2352.76,1423.18 2352.76,1404.28 "/>
<path clip-path="url(#clip460)" d="M522.33 1481.64 L529.969 1481.64 L529.969 1455.28 L521.659 1456.95 L521.659 1452.69 L529.923 1451.02 L534.599 1451.02 L534.599 1481.64 L542.237 1481.64 L542.237 1485.58 L522.33 1485.58 L522.33 1481.64 Z" fill="#000000" fill-rule="nonzero" fill-opacity="1" /><path clip-path="url(#clip460)" d="M561.682 1454.1 Q558.071 1454.1 556.242 1457.66 Q554.436 1461.2 554.436 1468.33 Q554.436 1475.44 556.242 1479.01 Q558.071 1482.55 561.682 1482.55 Q565.316 1482.55 567.122 1479.01 Q568.95 1475.44 568.95 1468.33 Q568.95 1461.2 567.122 1457.66 Q565.316 1454.1 561.682 1454.1 M561.682 1450.39 Q567.492 1450.39 570.547 1455 Q573.626 1459.58 573.626 1468.33 Q573.626 1477.06 570.547 1481.67 Q567.492 1486.25 561.682 1486.25 Q555.872 1486.25 552.793 1481.67 Q549.737 1477.06 549.737 1468.33 Q549.737 1459.58 552.793 1455 Q555.872 1450.39 561.682 1450.39 Z" fill="#000000" fill-rule="nonzero" fill-opacity="1" /><path clip-path="url(#clip460)" d="M827.268 1481.64 L843.587 1481.64 L843.587 1485.58 L821.643 1485.58 L821.643 1481.64 Q824.305 1478.89 828.888 1474.26 Q833.495 1469.61 834.675 1468.27 Q836.921 1465.74 837.8 1464.01 Q838.703 1462.25 838.703 1460.56 Q838.703 1457.8 836.759 1456.07 Q834.837 1454.33 831.736 1454.33 Q829.537 1454.33 827.083 1455.09 Q824.652 1455.86 821.875 1457.41 L821.875 1452.69 Q824.699 1451.55 827.152 1450.97 Q829.606 1450.39 831.643 1450.39 Q837.013 1450.39 840.208 1453.08 Q843.402 1455.77 843.402 1460.26 Q843.402 1462.39 842.592 1464.31 Q841.805 1466.2 839.698 1468.8 Q839.12 1469.47 836.018 1472.69 Q832.916 1475.88 827.268 1481.64 Z" fill="#000000" fill-rule="nonzero" fill-opacity="1" /><path clip-path="url(#clip460)" d="M863.402 1454.1 Q859.791 1454.1 857.962 1457.66 Q856.157 1461.2 856.157 1468.33 Q856.157 1475.44 857.962 1479.01 Q859.791 1482.55 863.402 1482.55 Q867.036 1482.55 868.842 1479.01 Q870.671 1475.44 870.671 1468.33 Q870.671 1461.2 868.842 1457.66 Q867.036 1454.1 863.402 1454.1 M863.402 1450.39 Q869.212 1450.39 872.268 1455 Q875.346 1459.58 875.346 1468.33 Q875.346 1477.06 872.268 1481.67 Q869.212 1486.25 863.402 1486.25 Q857.592 1486.25 854.513 1481.67 Q851.458 1477.06 851.458 1468.33 Q851.458 1459.58 854.513 1455 Q857.592 1450.39 863.402 1450.39 Z" fill="#000000" fill-rule="nonzero" fill-opacity="1" /><path clip-path="url(#clip460)" d="M1138.19 1466.95 Q1141.55 1467.66 1143.42 1469.93 Q1145.32 1472.2 1145.32 1475.53 Q1145.32 1480.65 1141.8 1483.45 Q1138.28 1486.25 1131.8 1486.25 Q1129.62 1486.25 1127.31 1485.81 Q1125.02 1485.39 1122.56 1484.54 L1122.56 1480.02 Q1124.51 1481.16 1126.82 1481.74 Q1129.14 1482.32 1131.66 1482.32 Q1136.06 1482.32 1138.35 1480.58 Q1140.67 1478.84 1140.67 1475.53 Q1140.67 1472.48 1138.51 1470.77 Q1136.38 1469.03 1132.56 1469.03 L1128.54 1469.03 L1128.54 1465.19 L1132.75 1465.19 Q1136.2 1465.19 1138.03 1463.82 Q1139.86 1462.43 1139.86 1459.84 Q1139.86 1457.18 1137.96 1455.77 Q1136.08 1454.33 1132.56 1454.33 Q1130.64 1454.33 1128.44 1454.75 Q1126.25 1455.16 1123.61 1456.04 L1123.61 1451.88 Q1126.27 1451.14 1128.58 1450.77 Q1130.92 1450.39 1132.98 1450.39 Q1138.31 1450.39 1141.41 1452.83 Q1144.51 1455.23 1144.51 1459.35 Q1144.51 1462.22 1142.87 1464.21 Q1141.22 1466.18 1138.19 1466.95 Z" fill="#000000" fill-rule="nonzero" fill-opacity="1" /><path clip-path="url(#clip460)" d="M1164.18 1454.1 Q1160.57 1454.1 1158.75 1457.66 Q1156.94 1461.2 1156.94 1468.33 Q1156.94 1475.44 1158.75 1479.01 Q1160.57 1482.55 1164.18 1482.55 Q1167.82 1482.55 1169.62 1479.01 Q1171.45 1475.44 1171.45 1468.33 Q1171.45 1461.2 1169.62 1457.66 Q1167.82 1454.1 1164.18 1454.1 M1164.18 1450.39 Q1170 1450.39 1173.05 1455 Q1176.13 1459.58 1176.13 1468.33 Q1176.13 1477.06 1173.05 1481.67 Q1170 1486.25 1164.18 1486.25 Q1158.37 1486.25 1155.3 1481.67 Q1152.24 1477.06 1152.24 1468.33 Q1152.24 1459.58 1155.3 1455 Q1158.37 1450.39 1164.18 1450.39 Z" fill="#000000" fill-rule="nonzero" fill-opacity="1" /><path clip-path="url(#clip460)" d="M1438.37 1455.09 L1426.57 1473.54 L1438.37 1473.54 L1438.37 1455.09 M1437.14 1451.02 L1443.02 1451.02 L1443.02 1473.54 L1447.95 1473.54 L1447.95 1477.43 L1443.02 1477.43 L1443.02 1485.58 L1438.37 1485.58 L1438.37 1477.43 L1422.77 1477.43 L1422.77 1472.92 L1437.14 1451.02 Z" fill="#000000" fill-rule="nonzero" fill-opacity="1" /><path clip-path="url(#clip460)" d="M1465.69 1454.1 Q1462.07 1454.1 1460.25 1457.66 Q1458.44 1461.2 1458.44 1468.33 Q1458.44 1475.44 1460.25 1479.01 Q1462.07 1482.55 1465.69 1482.55 Q1469.32 1482.55 1471.13 1479.01 Q1472.95 1475.44 1472.95 1468.33 Q1472.95 1461.2 1471.13 1457.66 Q1469.32 1454.1 1465.69 1454.1 M1465.69 1450.39 Q1471.5 1450.39 1474.55 1455 Q1477.63 1459.58 1477.63 1468.33 Q1477.63 1477.06 1474.55 1481.67 Q1471.5 1486.25 1465.69 1486.25 Q1459.88 1486.25 1456.8 1481.67 Q1453.74 1477.06 1453.74 1468.33 Q1453.74 1459.58 1456.8 1455 Q1459.88 1450.39 1465.69 1450.39 Z" fill="#000000" fill-rule="nonzero" fill-opacity="1" /><path clip-path="url(#clip460)" d="M1725.75 1451.02 L1744.11 1451.02 L1744.11 1454.96 L1730.03 1454.96 L1730.03 1463.43 Q1731.05 1463.08 1732.07 1462.92 Q1733.09 1462.73 1734.11 1462.73 Q1739.89 1462.73 1743.27 1465.9 Q1746.65 1469.08 1746.65 1474.49 Q1746.65 1480.07 1743.18 1483.17 Q1739.71 1486.25 1733.39 1486.25 Q1731.21 1486.25 1728.95 1485.88 Q1726.7 1485.51 1724.29 1484.77 L1724.29 1480.07 Q1726.38 1481.2 1728.6 1481.76 Q1730.82 1482.32 1733.3 1482.32 Q1737.3 1482.32 1739.64 1480.21 Q1741.98 1478.1 1741.98 1474.49 Q1741.98 1470.88 1739.64 1468.77 Q1737.3 1466.67 1733.3 1466.67 Q1731.42 1466.67 1729.55 1467.08 Q1727.7 1467.5 1725.75 1468.38 L1725.75 1451.02 Z" fill="#000000" fill-rule="nonzero" fill-opacity="1" /><path clip-path="url(#clip460)" d="M1765.87 1454.1 Q1762.26 1454.1 1760.43 1457.66 Q1758.62 1461.2 1758.62 1468.33 Q1758.62 1475.44 1760.43 1479.01 Q1762.26 1482.55 1765.87 1482.55 Q1769.5 1482.55 1771.31 1479.01 Q1773.13 1475.44 1773.13 1468.33 Q1773.13 1461.2 1771.31 1457.66 Q1769.5 1454.1 1765.87 1454.1 M1765.87 1450.39 Q1771.68 1450.39 1774.73 1455 Q1777.81 1459.58 1777.81 1468.33 Q1777.81 1477.06 1774.73 1481.67 Q1771.68 1486.25 1765.87 1486.25 Q1760.06 1486.25 1756.98 1481.67 Q1753.92 1477.06 1753.92 1468.33 Q1753.92 1459.58 1756.98 1455 Q1760.06 1450.39 1765.87 1450.39 Z" fill="#000000" fill-rule="nonzero" fill-opacity="1" /><path clip-path="url(#clip460)" d="M2037.31 1466.44 Q2034.16 1466.44 2032.31 1468.59 Q2030.48 1470.74 2030.48 1474.49 Q2030.48 1478.22 2032.31 1480.39 Q2034.16 1482.55 2037.31 1482.55 Q2040.46 1482.55 2042.29 1480.39 Q2044.14 1478.22 2044.14 1474.49 Q2044.14 1470.74 2042.29 1468.59 Q2040.46 1466.44 2037.31 1466.44 M2046.59 1451.78 L2046.59 1456.04 Q2044.83 1455.21 2043.03 1454.77 Q2041.24 1454.33 2039.48 1454.33 Q2034.86 1454.33 2032.4 1457.45 Q2029.97 1460.58 2029.62 1466.9 Q2030.99 1464.89 2033.05 1463.82 Q2035.11 1462.73 2037.59 1462.73 Q2042.79 1462.73 2045.8 1465.9 Q2048.84 1469.05 2048.84 1474.49 Q2048.84 1479.82 2045.69 1483.03 Q2042.54 1486.25 2037.31 1486.25 Q2031.31 1486.25 2028.14 1481.67 Q2024.97 1477.06 2024.97 1468.33 Q2024.97 1460.14 2028.86 1455.28 Q2032.75 1450.39 2039.3 1450.39 Q2041.06 1450.39 2042.84 1450.74 Q2044.65 1451.09 2046.59 1451.78 Z" fill="#000000" fill-rule="nonzero" fill-opacity="1" /><path clip-path="url(#clip460)" d="M2066.89 1454.1 Q2063.28 1454.1 2061.45 1457.66 Q2059.65 1461.2 2059.65 1468.33 Q2059.65 1475.44 2061.45 1479.01 Q2063.28 1482.55 2066.89 1482.55 Q2070.53 1482.55 2072.33 1479.01 Q2074.16 1475.44 2074.16 1468.33 Q2074.16 1461.2 2072.33 1457.66 Q2070.53 1454.1 2066.89 1454.1 M2066.89 1450.39 Q2072.7 1450.39 2075.76 1455 Q2078.84 1459.58 2078.84 1468.33 Q2078.84 1477.06 2075.76 1481.67 Q2072.7 1486.25 2066.89 1486.25 Q2061.08 1486.25 2058 1481.67 Q2054.95 1477.06 2054.95 1468.33 Q2054.95 1459.58 2058 1455 Q2061.08 1450.39 2066.89 1450.39 Z" fill="#000000" fill-rule="nonzero" fill-opacity="1" /><path clip-path="url(#clip460)" d="M2326.11 1451.02 L2348.33 1451.02 L2348.33 1453.01 L2335.79 1485.58 L2330.9 1485.58 L2342.71 1454.96 L2326.11 1454.96 L2326.11 1451.02 Z" fill="#000000" fill-rule="nonzero" fill-opacity="1" /><path clip-path="url(#clip460)" d="M2367.45 1454.1 Q2363.84 1454.1 2362.02 1457.66 Q2360.21 1461.2 2360.21 1468.33 Q2360.21 1475.44 2362.02 1479.01 Q2363.84 1482.55 2367.45 1482.55 Q2371.09 1482.55 2372.89 1479.01 Q2374.72 1475.44 2374.72 1468.33 Q2374.72 1461.2 2372.89 1457.66 Q2371.09 1454.1 2367.45 1454.1 M2367.45 1450.39 Q2373.27 1450.39 2376.32 1455 Q2379.4 1459.58 2379.4 1468.33 Q2379.4 1477.06 2376.32 1481.67 Q2373.27 1486.25 2367.45 1486.25 Q2361.64 1486.25 2358.57 1481.67 Q2355.51 1477.06 2355.51 1468.33 Q2355.51 1459.58 2358.57 1455 Q2361.64 1450.39 2367.45 1450.39 Z" fill="#000000" fill-rule="nonzero" fill-opacity="1" /><path clip-path="url(#clip460)" d="M1146.61 1539.49 Q1146.61 1529.41 1153.06 1522.39 Q1159.53 1515.34 1168.51 1515.34 Q1177.56 1515.34 1184.01 1522.39 Q1190.48 1529.45 1190.48 1539.49 Q1190.48 1549.45 1184.01 1556.37 Q1177.53 1563.29 1168.51 1563.29 Q1159.63 1563.29 1153.12 1556.4 Q1146.61 1549.51 1146.61 1539.49 M1153.41 1538.56 Q1153.41 1544.68 1154.86 1549.38 Q1156.31 1554.05 1158.63 1556.59 Q1160.98 1559.14 1163.49 1560.36 Q1166 1561.59 1168.58 1561.59 Q1171.09 1561.59 1173.54 1560.4 Q1176.02 1559.2 1178.37 1556.69 Q1180.72 1554.18 1182.2 1549.48 Q1183.68 1544.78 1183.68 1538.56 Q1183.68 1533.73 1182.65 1529.86 Q1181.62 1525.97 1180.01 1523.62 Q1178.4 1521.26 1176.31 1519.72 Q1174.25 1518.17 1172.28 1517.59 Q1170.35 1516.98 1168.51 1516.98 Q1166.2 1516.98 1163.78 1518.01 Q1161.36 1519.04 1158.92 1521.33 Q1156.5 1523.58 1154.96 1528.06 Q1153.41 1532.5 1153.41 1538.56 Z" fill="#000000" fill-rule="nonzero" fill-opacity="1" /><path clip-path="url(#clip460)" d="M1198.16 1561.84 L1198.16 1559.82 Q1201.67 1559.82 1202.47 1559.4 Q1203.31 1558.95 1203.31 1556.82 L1203.31 1539.14 Q1203.31 1536.69 1202.44 1536.08 Q1201.6 1535.47 1198.16 1535.47 L1198.16 1533.41 L1207.34 1532.7 L1207.34 1539.94 Q1208.27 1537.11 1210.23 1534.92 Q1212.23 1532.7 1215.45 1532.7 Q1217.58 1532.7 1218.93 1533.89 Q1220.31 1535.08 1220.31 1536.72 Q1220.31 1538.17 1219.41 1538.91 Q1218.54 1539.62 1217.48 1539.62 Q1216.29 1539.62 1215.45 1538.88 Q1214.65 1538.11 1214.65 1536.79 Q1214.65 1535.98 1215 1535.37 Q1215.39 1534.73 1215.68 1534.5 Q1215.97 1534.28 1216.16 1534.21 Q1216.03 1534.15 1215.45 1534.15 Q1211.81 1534.15 1209.72 1537.79 Q1207.66 1541.39 1207.66 1546.55 L1207.66 1556.69 Q1207.66 1558.59 1208.43 1559.2 Q1209.24 1559.82 1212.68 1559.82 L1214.07 1559.82 L1214.07 1561.84 Q1211.43 1561.65 1205.69 1561.65 Q1204.89 1561.65 1203.63 1561.68 Q1202.38 1561.72 1200.73 1561.78 Q1199.09 1561.84 1198.16 1561.84 Z" fill="#000000" fill-rule="nonzero" fill-opacity="1" /><path clip-path="url(#clip460)" d="M1225.72 1555.56 Q1225.72 1549.96 1232.32 1547 Q1236.28 1545.1 1244.46 1544.61 L1244.46 1542.2 Q1244.46 1538.11 1242.3 1535.95 Q1240.18 1533.76 1237.47 1533.76 Q1232.64 1533.76 1230.32 1536.79 Q1232.29 1536.85 1233 1537.85 Q1233.71 1538.82 1233.71 1539.82 Q1233.71 1541.14 1232.87 1542.01 Q1232.06 1542.84 1230.68 1542.84 Q1229.36 1542.84 1228.49 1542.04 Q1227.62 1541.2 1227.62 1539.75 Q1227.62 1536.53 1230.52 1534.4 Q1233.45 1532.28 1237.6 1532.28 Q1243.01 1532.28 1246.62 1535.92 Q1247.75 1537.05 1248.29 1538.5 Q1248.87 1539.94 1248.94 1540.91 Q1249 1541.84 1249 1543.71 L1249 1556.88 Q1249 1557.27 1249.13 1557.92 Q1249.26 1558.56 1249.84 1559.4 Q1250.45 1560.2 1251.45 1560.2 Q1253.83 1560.2 1253.8 1555.98 L1253.8 1552.28 L1255.48 1552.28 L1255.48 1555.98 Q1255.48 1559.49 1253.61 1560.88 Q1251.77 1562.23 1250.07 1562.23 Q1247.88 1562.23 1246.49 1560.62 Q1245.11 1559.01 1244.91 1556.82 Q1243.91 1559.33 1241.63 1560.97 Q1239.37 1562.59 1236.28 1562.59 Q1233.9 1562.59 1231.64 1561.97 Q1229.42 1561.39 1227.55 1559.75 Q1225.72 1558.08 1225.72 1555.56 M1230.81 1555.5 Q1230.81 1557.95 1232.55 1559.53 Q1234.29 1561.1 1236.73 1561.1 Q1239.5 1561.1 1241.98 1558.98 Q1244.46 1556.82 1244.46 1552.6 L1244.46 1546 Q1237.15 1546.26 1233.96 1549.19 Q1230.81 1552.09 1230.81 1555.5 Z" fill="#000000" fill-rule="nonzero" fill-opacity="1" /><path clip-path="url(#clip460)" d="M1262.57 1558.24 Q1258.38 1553.86 1258.38 1547.61 Q1258.38 1541.33 1262.5 1536.82 Q1266.63 1532.28 1272.68 1532.28 Q1276.71 1532.28 1279.73 1534.21 Q1282.76 1536.11 1282.76 1539.36 Q1282.76 1540.81 1281.89 1541.65 Q1281.06 1542.46 1279.73 1542.46 Q1278.35 1542.46 1277.51 1541.62 Q1276.71 1540.75 1276.71 1539.43 Q1276.71 1538.85 1276.9 1538.27 Q1277.09 1537.69 1277.8 1537.08 Q1278.54 1536.47 1279.8 1536.37 Q1277.45 1533.95 1272.88 1533.95 Q1272.81 1533.95 1272.75 1533.95 Q1269.4 1533.95 1266.63 1537.11 Q1263.86 1540.27 1263.86 1547.48 Q1263.86 1551.25 1264.76 1554.02 Q1265.69 1556.76 1267.21 1558.17 Q1268.72 1559.59 1270.2 1560.27 Q1271.68 1560.91 1273.13 1560.91 Q1279.61 1560.91 1281.8 1553.99 Q1281.99 1553.34 1282.63 1553.34 Q1283.5 1553.34 1283.5 1553.99 Q1283.5 1554.31 1283.25 1555.15 Q1282.99 1555.98 1282.18 1557.3 Q1281.38 1558.62 1280.22 1559.78 Q1279.09 1560.91 1277.06 1561.75 Q1275.07 1562.59 1272.55 1562.59 Q1266.76 1562.59 1262.57 1558.24 Z" fill="#000000" fill-rule="nonzero" fill-opacity="1" /><path clip-path="url(#clip460)" d="M1286.85 1561.84 L1286.85 1559.82 Q1290.36 1559.82 1291.17 1559.4 Q1291.97 1558.95 1291.97 1556.82 L1291.97 1522.52 Q1291.97 1520.07 1291.1 1519.46 Q1290.26 1518.85 1286.85 1518.85 L1286.85 1516.79 L1296.32 1516.08 L1296.32 1556.82 Q1296.32 1558.95 1297.16 1559.4 Q1297.99 1559.82 1301.47 1559.82 L1301.47 1561.84 Q1300.67 1561.84 1298.99 1561.78 Q1297.32 1561.72 1296.09 1561.68 Q1294.87 1561.65 1294.16 1561.65 Q1293.39 1561.65 1286.85 1561.84 Z" fill="#000000" fill-rule="nonzero" fill-opacity="1" /><path clip-path="url(#clip460)" d="M1305.73 1547.32 Q1305.73 1541.1 1309.72 1536.69 Q1313.72 1532.28 1319.45 1532.28 Q1325.25 1532.28 1328.24 1536.05 Q1331.27 1539.82 1331.27 1545.23 Q1331.27 1546.22 1331.01 1546.42 Q1330.75 1546.61 1329.63 1546.61 L1311.2 1546.61 Q1311.2 1553.34 1313.2 1556.5 Q1315.97 1560.91 1320.64 1560.91 Q1321.28 1560.91 1322.06 1560.78 Q1322.83 1560.65 1324.41 1560.11 Q1325.99 1559.53 1327.37 1558.01 Q1328.76 1556.5 1329.56 1554.11 Q1329.75 1553.18 1330.4 1553.21 Q1331.27 1553.21 1331.27 1553.99 Q1331.27 1554.57 1330.62 1555.89 Q1330.01 1557.17 1328.82 1558.72 Q1327.63 1560.27 1325.31 1561.43 Q1323.02 1562.59 1320.25 1562.59 Q1314.46 1562.59 1310.08 1558.21 Q1305.73 1553.79 1305.73 1547.32 M1311.27 1545.23 L1326.92 1545.23 Q1326.92 1543.84 1326.66 1542.3 Q1326.44 1540.75 1325.73 1538.62 Q1325.05 1536.47 1323.44 1535.11 Q1321.83 1533.76 1319.45 1533.76 Q1318.39 1533.76 1317.23 1534.21 Q1316.1 1534.66 1314.71 1535.76 Q1313.33 1536.85 1312.36 1539.33 Q1311.4 1541.81 1311.27 1545.23 Z" fill="#000000" fill-rule="nonzero" fill-opacity="1" /><path clip-path="url(#clip460)" d="M1334.72 1539.3 Q1334.72 1529.35 1341.52 1522.36 Q1348.32 1515.34 1357.65 1515.34 Q1360.55 1515.34 1363.13 1516.4 Q1365.71 1517.46 1366.9 1518.4 Q1368.09 1519.3 1369.8 1521.01 L1373.11 1516.14 Q1373.63 1515.34 1374.14 1515.34 Q1374.69 1515.34 1374.79 1515.66 Q1374.88 1515.95 1374.88 1516.92 L1374.88 1532.57 Q1374.88 1533.63 1374.76 1533.89 Q1374.63 1534.15 1373.82 1534.15 Q1373.18 1534.15 1373.02 1533.95 Q1372.89 1533.76 1372.76 1533.02 Q1371.76 1525.9 1367.8 1521.65 Q1363.87 1517.4 1358.4 1517.4 Q1356.82 1517.4 1355.05 1517.75 Q1353.31 1518.11 1350.76 1519.46 Q1348.25 1520.81 1346.29 1523.07 Q1344.35 1525.29 1342.94 1529.54 Q1341.52 1533.76 1341.52 1539.36 Q1341.52 1544.9 1342.94 1549.16 Q1344.35 1553.41 1346.29 1555.63 Q1348.25 1557.82 1350.76 1559.17 Q1353.31 1560.52 1355.08 1560.91 Q1356.88 1561.26 1358.46 1561.26 Q1364.13 1561.26 1368.48 1557.24 Q1372.82 1553.21 1373.24 1546.42 Q1373.31 1546.1 1373.31 1545.97 Q1373.31 1545.81 1373.37 1545.64 Q1373.44 1545.48 1373.6 1545.42 Q1373.76 1545.35 1374.02 1545.35 Q1374.88 1545.35 1374.88 1546.48 Q1374.88 1552.76 1370.05 1558.04 Q1365.26 1563.29 1357.65 1563.29 Q1348.28 1563.29 1341.49 1556.34 Q1334.72 1549.38 1334.72 1539.3 Z" fill="#000000" fill-rule="nonzero" fill-opacity="1" /><path clip-path="url(#clip460)" d="M1387.15 1555.56 Q1387.15 1549.96 1393.75 1547 Q1397.71 1545.1 1405.89 1544.61 L1405.89 1542.2 Q1405.89 1538.11 1403.74 1535.95 Q1401.61 1533.76 1398.91 1533.76 Q1394.07 1533.76 1391.76 1536.79 Q1393.72 1536.85 1394.43 1537.85 Q1395.14 1538.82 1395.14 1539.82 Q1395.14 1541.14 1394.3 1542.01 Q1393.49 1542.84 1392.11 1542.84 Q1390.79 1542.84 1389.92 1542.04 Q1389.05 1541.2 1389.05 1539.75 Q1389.05 1536.53 1391.95 1534.4 Q1394.88 1532.28 1399.03 1532.28 Q1404.44 1532.28 1408.05 1535.92 Q1409.18 1537.05 1409.73 1538.5 Q1410.31 1539.94 1410.37 1540.91 Q1410.44 1541.84 1410.44 1543.71 L1410.44 1556.88 Q1410.44 1557.27 1410.56 1557.92 Q1410.69 1558.56 1411.27 1559.4 Q1411.88 1560.2 1412.88 1560.2 Q1415.27 1560.2 1415.23 1555.98 L1415.23 1552.28 L1416.91 1552.28 L1416.91 1555.98 Q1416.91 1559.49 1415.04 1560.88 Q1413.2 1562.23 1411.5 1562.23 Q1409.31 1562.23 1407.92 1560.62 Q1406.54 1559.01 1406.34 1556.82 Q1405.35 1559.33 1403.06 1560.97 Q1400.81 1562.59 1397.71 1562.59 Q1395.33 1562.59 1393.08 1561.97 Q1390.85 1561.39 1388.99 1559.75 Q1387.15 1558.08 1387.15 1555.56 M1392.24 1555.5 Q1392.24 1557.95 1393.98 1559.53 Q1395.72 1561.1 1398.16 1561.1 Q1400.93 1561.1 1403.41 1558.98 Q1405.89 1556.82 1405.89 1552.6 L1405.89 1546 Q1398.58 1546.26 1395.39 1549.19 Q1392.24 1552.09 1392.24 1555.5 Z" fill="#000000" fill-rule="nonzero" fill-opacity="1" /><path clip-path="url(#clip460)" d="M1419.55 1561.84 L1419.55 1559.82 Q1423.06 1559.82 1423.87 1559.4 Q1424.67 1558.95 1424.67 1556.82 L1424.67 1522.52 Q1424.67 1520.07 1423.8 1519.46 Q1422.96 1518.85 1419.55 1518.85 L1419.55 1516.79 L1429.02 1516.08 L1429.02 1556.82 Q1429.02 1558.95 1429.86 1559.4 Q1430.69 1559.82 1434.17 1559.82 L1434.17 1561.84 Q1433.37 1561.84 1431.69 1561.78 Q1430.02 1561.72 1428.79 1561.68 Q1427.57 1561.65 1426.86 1561.65 Q1426.09 1561.65 1419.55 1561.84 Z" fill="#000000" fill-rule="nonzero" fill-opacity="1" /><path clip-path="url(#clip460)" d="M1438.43 1561.84 L1438.43 1559.82 Q1441.94 1559.82 1442.74 1559.4 Q1443.55 1558.95 1443.55 1556.82 L1443.55 1522.52 Q1443.55 1520.07 1442.68 1519.46 Q1441.84 1518.85 1438.43 1518.85 L1438.43 1516.79 L1447.9 1516.08 L1447.9 1556.82 Q1447.9 1558.95 1448.73 1559.4 Q1449.57 1559.82 1453.05 1559.82 L1453.05 1561.84 Q1452.25 1561.84 1450.57 1561.78 Q1448.9 1561.72 1447.67 1561.68 Q1446.45 1561.65 1445.74 1561.65 Q1444.97 1561.65 1438.43 1561.84 Z" fill="#000000" fill-rule="nonzero" fill-opacity="1" /><path clip-path="url(#clip460)" d="M1457.31 1560.97 L1457.31 1552.28 Q1457.31 1551.54 1457.34 1551.28 Q1457.37 1551.02 1457.56 1550.83 Q1457.76 1550.64 1458.14 1550.64 Q1458.6 1550.64 1458.76 1550.83 Q1458.95 1551.02 1459.08 1551.76 Q1460.08 1556.3 1462.2 1558.72 Q1464.36 1561.1 1468.26 1561.1 Q1471.96 1561.1 1473.83 1559.46 Q1475.7 1557.82 1475.7 1555.11 Q1475.7 1550.28 1468.84 1549.06 Q1464.88 1548.25 1463.23 1547.74 Q1461.59 1547.19 1460.14 1546 Q1457.31 1543.68 1457.31 1540.4 Q1457.31 1537.11 1459.79 1534.69 Q1462.3 1532.28 1467.84 1532.28 Q1471.54 1532.28 1474.05 1534.15 Q1474.79 1533.57 1475.18 1533.08 Q1476.05 1532.28 1476.5 1532.28 Q1477.02 1532.28 1477.11 1532.63 Q1477.21 1532.96 1477.21 1533.89 L1477.21 1540.52 Q1477.21 1541.26 1477.18 1541.52 Q1477.15 1541.78 1476.95 1541.97 Q1476.76 1542.13 1476.34 1542.13 Q1475.6 1542.13 1475.57 1541.52 Q1475.05 1533.54 1467.84 1533.54 Q1463.94 1533.54 1462.2 1535.05 Q1460.46 1536.53 1460.46 1538.56 Q1460.46 1539.69 1460.98 1540.56 Q1461.53 1541.39 1462.2 1541.91 Q1462.91 1542.39 1464.2 1542.88 Q1465.49 1543.33 1466.26 1543.49 Q1467.07 1543.65 1468.58 1543.97 Q1473.86 1544.97 1476.08 1547.13 Q1478.85 1549.9 1478.85 1553.41 Q1478.85 1557.3 1476.21 1559.94 Q1473.57 1562.59 1468.26 1562.59 Q1463.97 1562.59 1460.98 1559.72 Q1460.59 1560.11 1460.3 1560.46 Q1460.01 1560.78 1459.88 1560.91 Q1459.79 1561.04 1459.75 1561.14 Q1459.72 1561.2 1459.66 1561.26 Q1458.34 1562.59 1458.02 1562.59 Q1457.5 1562.59 1457.4 1562.23 Q1457.31 1561.91 1457.31 1560.97 Z" fill="#000000" fill-rule="nonzero" fill-opacity="1" /><polyline clip-path="url(#clip460)" style="stroke:#000000; stroke-linecap:round; stroke-linejoin:round; stroke-width:4; stroke-opacity:1; fill:none" points="276.876,1423.18 276.876,47.2441 "/>
<polyline clip-path="url(#clip460)" style="stroke:#000000; stroke-linecap:round; stroke-linejoin:round; stroke-width:4; stroke-opacity:1; fill:none" points="276.876,1200.18 295.773,1200.18 "/>
<polyline clip-path="url(#clip460)" style="stroke:#000000; stroke-linecap:round; stroke-linejoin:round; stroke-width:4; stroke-opacity:1; fill:none" points="276.876,642.672 295.773,642.672 "/>
<polyline clip-path="url(#clip460)" style="stroke:#000000; stroke-linecap:round; stroke-linejoin:round; stroke-width:4; stroke-opacity:1; fill:none" points="276.876,85.1656 295.773,85.1656 "/>
<path clip-path="url(#clip460)" d="M114.931 1219.97 L122.57 1219.97 L122.57 1193.6 L114.26 1195.27 L114.26 1191.01 L122.524 1189.35 L127.2 1189.35 L127.2 1219.97 L134.839 1219.97 L134.839 1223.91 L114.931 1223.91 L114.931 1219.97 Z" fill="#000000" fill-rule="nonzero" fill-opacity="1" /><path clip-path="url(#clip460)" d="M154.283 1192.42 Q150.672 1192.42 148.843 1195.99 Q147.038 1199.53 147.038 1206.66 Q147.038 1213.77 148.843 1217.33 Q150.672 1220.87 154.283 1220.87 Q157.917 1220.87 159.723 1217.33 Q161.552 1213.77 161.552 1206.66 Q161.552 1199.53 159.723 1195.99 Q157.917 1192.42 154.283 1192.42 M154.283 1188.72 Q160.093 1188.72 163.149 1193.33 Q166.227 1197.91 166.227 1206.66 Q166.227 1215.39 163.149 1219.99 Q160.093 1224.58 154.283 1224.58 Q148.473 1224.58 145.394 1219.99 Q142.339 1215.39 142.339 1206.66 Q142.339 1197.91 145.394 1193.33 Q148.473 1188.72 154.283 1188.72 Z" fill="#000000" fill-rule="nonzero" fill-opacity="1" /><path clip-path="url(#clip460)" d="M166.227 1182.82 L190.339 1182.82 L190.339 1186.02 L166.227 1186.02 L166.227 1182.82 Z" fill="#000000" fill-rule="nonzero" fill-opacity="1" /><path clip-path="url(#clip460)" d="M199.197 1193.3 L205.404 1193.3 L205.404 1171.88 L198.652 1173.23 L198.652 1169.77 L205.366 1168.41 L209.166 1168.41 L209.166 1193.3 L215.372 1193.3 L215.372 1196.49 L199.197 1196.49 L199.197 1193.3 Z" fill="#000000" fill-rule="nonzero" fill-opacity="1" /><path clip-path="url(#clip460)" d="M231.171 1170.92 Q228.237 1170.92 226.751 1173.81 Q225.284 1176.69 225.284 1182.48 Q225.284 1188.26 226.751 1191.15 Q228.237 1194.03 231.171 1194.03 Q234.124 1194.03 235.591 1191.15 Q237.076 1188.26 237.076 1182.48 Q237.076 1176.69 235.591 1173.81 Q234.124 1170.92 231.171 1170.92 M231.171 1167.91 Q235.891 1167.91 238.374 1171.65 Q240.876 1175.37 240.876 1182.48 Q240.876 1189.57 238.374 1193.32 Q235.891 1197.04 231.171 1197.04 Q226.45 1197.04 223.949 1193.32 Q221.466 1189.57 221.466 1182.48 Q221.466 1175.37 223.949 1171.65 Q226.45 1167.91 231.171 1167.91 Z" fill="#000000" fill-rule="nonzero" fill-opacity="1" /><path clip-path="url(#clip460)" d="M140.247 662.464 L147.886 662.464 L147.886 636.098 L139.575 637.765 L139.575 633.506 L147.839 631.839 L152.515 631.839 L152.515 662.464 L160.154 662.464 L160.154 666.399 L140.247 666.399 L140.247 662.464 Z" fill="#000000" fill-rule="nonzero" fill-opacity="1" /><path clip-path="url(#clip460)" d="M179.598 634.918 Q175.987 634.918 174.159 638.483 Q172.353 642.024 172.353 649.154 Q172.353 656.26 174.159 659.825 Q175.987 663.367 179.598 663.367 Q183.233 663.367 185.038 659.825 Q186.867 656.26 186.867 649.154 Q186.867 642.024 185.038 638.483 Q183.233 634.918 179.598 634.918 M179.598 631.214 Q185.409 631.214 188.464 635.821 Q191.543 640.404 191.543 649.154 Q191.543 657.881 188.464 662.487 Q185.409 667.07 179.598 667.07 Q173.788 667.07 170.71 662.487 Q167.654 657.881 167.654 649.154 Q167.654 640.404 170.71 635.821 Q173.788 631.214 179.598 631.214 Z" fill="#000000" fill-rule="nonzero" fill-opacity="1" /><path clip-path="url(#clip460)" d="M191.543 625.315 L215.654 625.315 L215.654 628.513 L191.543 628.513 L191.543 625.315 Z" fill="#000000" fill-rule="nonzero" fill-opacity="1" /><path clip-path="url(#clip460)" d="M223.892 610.909 L238.807 610.909 L238.807 614.106 L227.372 614.106 L227.372 620.99 Q228.199 620.708 229.027 620.576 Q229.854 620.425 230.682 620.425 Q235.384 620.425 238.13 623.002 Q240.876 625.579 240.876 629.98 Q240.876 634.512 238.054 637.033 Q235.233 639.534 230.099 639.534 Q228.331 639.534 226.488 639.233 Q224.663 638.932 222.707 638.33 L222.707 634.512 Q224.4 635.434 226.205 635.885 Q228.011 636.337 230.023 636.337 Q233.277 636.337 235.177 634.625 Q237.076 632.914 237.076 629.98 Q237.076 627.046 235.177 625.334 Q233.277 623.623 230.023 623.623 Q228.5 623.623 226.977 623.961 Q225.472 624.3 223.892 625.015 L223.892 610.909 Z" fill="#000000" fill-rule="nonzero" fill-opacity="1" /><path clip-path="url(#clip460)" d="M170.17 104.958 L177.809 104.958 L177.809 78.5924 L169.499 80.2591 L169.499 75.9998 L177.762 74.3332 L182.438 74.3332 L182.438 104.958 L190.077 104.958 L190.077 108.893 L170.17 108.893 L170.17 104.958 Z" fill="#000000" fill-rule="nonzero" fill-opacity="1" /><path clip-path="url(#clip460)" d="M209.522 77.4118 Q205.91 77.4118 204.082 80.9766 Q202.276 84.5183 202.276 91.6479 Q202.276 98.7543 204.082 102.319 Q205.91 105.861 209.522 105.861 Q213.156 105.861 214.961 102.319 Q216.79 98.7543 216.79 91.6479 Q216.79 84.5183 214.961 80.9766 Q213.156 77.4118 209.522 77.4118 M209.522 73.7082 Q215.332 73.7082 218.387 78.3146 Q221.466 82.8979 221.466 91.6479 Q221.466 100.375 218.387 104.981 Q215.332 109.564 209.522 109.564 Q203.711 109.564 200.633 104.981 Q197.577 100.375 197.577 91.6479 Q197.577 82.8979 200.633 78.3146 Q203.711 73.7082 209.522 73.7082 Z" fill="#000000" fill-rule="nonzero" fill-opacity="1" /><path clip-path="url(#clip460)" d="M231.171 55.9042 Q228.237 55.9042 226.751 58.8006 Q225.284 61.6782 225.284 67.471 Q225.284 73.245 226.751 76.1414 Q228.237 79.0189 231.171 79.0189 Q234.124 79.0189 235.591 76.1414 Q237.076 73.245 237.076 67.471 Q237.076 61.6782 235.591 58.8006 Q234.124 55.9042 231.171 55.9042 M231.171 52.8949 Q235.891 52.8949 238.374 56.6377 Q240.876 60.3616 240.876 67.471 Q240.876 74.5615 238.374 78.3042 Q235.891 82.0282 231.171 82.0282 Q226.45 82.0282 223.949 78.3042 Q221.466 74.5615 221.466 67.471 Q221.466 60.3616 223.949 56.6377 Q226.45 52.8949 231.171 52.8949 Z" fill="#000000" fill-rule="nonzero" fill-opacity="1" /><path clip-path="url(#clip460)" d="M66.0841 1072.66 L64.0551 1072.66 Q64.0551 1070.27 63.6042 1068.76 Q63.1212 1067.25 62.2516 1066.7 Q61.3498 1066.12 60.7701 1065.99 Q60.1582 1065.86 59.1598 1065.86 L26.181 1065.86 Q24.2809 1065.86 23.7012 1066.7 Q23.0893 1067.5 23.0893 1071.08 L23.0893 1072.66 L21.0281 1072.66 L21.0281 1061.51 Q21.0281 1060.32 21.2535 1060 Q21.4468 1059.68 22.4774 1059.19 L59.4175 1044.9 L22.2841 1030.47 Q21.3502 1030.14 21.1891 1029.85 Q21.0281 1029.53 21.0281 1028.28 L21.0281 1017.13 L23.0893 1017.13 L23.0893 1018.71 Q23.0893 1022.29 23.7012 1023.12 Q24.2809 1023.93 26.181 1023.93 L60.9312 1023.93 Q62.8313 1023.93 63.4432 1023.12 Q64.0551 1022.29 64.0551 1018.71 L64.0551 1017.13 L66.0841 1017.13 Q65.8909 1019.58 65.8909 1026.57 Q65.8909 1033.62 66.0841 1036.07 L64.0551 1036.07 L64.0551 1034.46 Q64.0551 1030.89 63.4754 1030.08 Q62.8635 1029.28 60.9312 1029.28 L23.0893 1029.28 L23.0893 1029.34 L64.8281 1045.54 Q66.0841 1045.99 66.0841 1046.73 Q66.0841 1047.54 64.6348 1048.05 L23.6046 1063.96 L23.6046 1064.03 L59.1598 1064.03 Q60.1582 1064.03 60.7701 1063.9 Q61.3498 1063.77 62.2516 1063.22 Q63.1212 1062.64 63.6042 1061.13 Q64.0551 1059.61 64.0551 1057.23 L66.0841 1057.23 Q65.8909 1064.15 65.8909 1064.96 Q65.8909 1065.73 66.0841 1072.66 Z" fill="#000000" fill-rule="nonzero" fill-opacity="1" /><path clip-path="url(#clip460)" d="M66.0841 1006.77 L64.0551 1006.77 Q64.0551 1003.26 63.6364 1002.46 Q63.1856 1001.65 61.06 1001.65 L43.3146 1001.65 Q40.8669 1001.65 40.2872 1002.49 Q39.7075 1003.3 39.7075 1006.52 L37.6463 1006.52 L36.9378 997.306 L61.1244 997.306 Q63.0889 997.306 63.572 996.598 Q64.0551 995.889 64.0551 992.669 L66.0841 992.669 Q65.8909 999.4 65.8909 999.528 Q65.8909 1000.43 66.0841 1006.77 M25.4403 1004.01 Q24.1199 1004.01 23.0571 1003.01 Q21.9621 1001.98 21.9621 1000.53 Q21.9621 999.078 22.9604 998.047 Q23.9266 997.016 25.4725 997.016 Q26.9862 997.016 27.9846 998.047 Q28.9507 999.078 28.9507 1000.53 Q28.9507 1002.04 27.8879 1003.04 Q26.8252 1004.01 25.4403 1004.01 Z" fill="#000000" fill-rule="nonzero" fill-opacity="1" /><path clip-path="url(#clip460)" d="M66.0841 988.16 L64.0551 988.16 Q64.0551 984.65 63.6364 983.845 Q63.1856 983.04 61.06 983.04 L43.379 983.04 Q40.9313 983.04 40.3194 983.909 Q39.7075 984.747 39.7075 988.16 L37.6463 988.16 L36.9378 978.885 L43.8621 978.885 Q36.9378 975.793 36.9378 969.127 Q36.9378 964.167 39.3854 962.202 Q41.0279 960.753 42.8637 960.463 Q44.6994 960.141 49.4659 960.141 L62.0584 960.141 Q63.4432 960.077 63.7653 959.014 Q64.0551 957.951 64.0551 954.988 L66.0841 954.988 Q65.8909 961.719 65.8909 962.396 Q65.8909 962.911 66.0841 969.835 L64.0551 969.835 Q64.0551 966.325 63.6364 965.52 Q63.1856 964.682 61.06 964.682 L45.6978 964.682 Q42.3484 964.682 40.3838 965.713 Q38.3871 966.743 38.3871 969.578 Q38.3871 972.991 41.2534 975.729 Q44.1197 978.466 48.9506 978.466 L61.06 978.466 Q63.1856 978.466 63.6364 977.661 Q64.0551 976.824 64.0551 973.346 L66.0841 973.346 Q65.8909 980.077 65.8909 980.721 Q65.8909 981.236 66.0841 988.16 Z" fill="#000000" fill-rule="nonzero" fill-opacity="1" /><path clip-path="url(#clip460)" d="M66.0841 951.66 L64.0551 951.66 Q64.0551 948.149 63.6364 947.344 Q63.1856 946.539 61.06 946.539 L43.3146 946.539 Q40.8669 946.539 40.2872 947.376 Q39.7075 948.181 39.7075 951.402 L37.6463 951.402 L36.9378 942.191 L61.1244 942.191 Q63.0889 942.191 63.572 941.483 Q64.0551 940.774 64.0551 937.553 L66.0841 937.553 Q65.8909 944.285 65.8909 944.413 Q65.8909 945.315 66.0841 951.66 M25.4403 948.89 Q24.1199 948.89 23.0571 947.892 Q21.9621 946.861 21.9621 945.412 Q21.9621 943.962 22.9604 942.932 Q23.9266 941.901 25.4725 941.901 Q26.9862 941.901 27.9846 942.932 Q28.9507 943.962 28.9507 945.412 Q28.9507 946.925 27.8879 947.924 Q26.8252 948.89 25.4403 948.89 Z" fill="#000000" fill-rule="nonzero" fill-opacity="1" /><path clip-path="url(#clip460)" d="M66.0841 933.045 L64.0551 933.045 Q64.0551 929.535 63.6364 928.73 Q63.1856 927.924 61.06 927.924 L43.379 927.924 Q40.9313 927.924 40.3194 928.794 Q39.7075 929.631 39.7075 933.045 L37.6463 933.045 L36.9378 923.77 L43.8621 923.77 Q36.9378 920.678 36.9378 914.012 Q36.9378 906.282 43.379 905.219 Q40.8669 904.092 38.9023 901.741 Q36.9378 899.358 36.9378 895.654 Q36.9378 890.695 39.3854 888.73 Q41.0279 887.281 42.8637 886.991 Q44.6994 886.701 49.4659 886.701 L62.0584 886.701 Q63.4432 886.637 63.7653 885.574 Q64.0551 884.511 64.0551 881.548 L66.0841 881.548 Q65.8909 888.279 65.8909 888.923 Q65.8909 889.438 66.0841 896.395 L64.0551 896.395 Q64.0551 892.885 63.6364 892.079 Q63.1856 891.242 61.06 891.242 L45.6978 891.242 Q42.3484 891.242 40.3838 892.273 Q38.3871 893.303 38.3871 896.137 Q38.3871 899.551 41.2534 902.289 Q44.1197 905.026 48.9506 905.026 L61.06 905.026 Q63.1856 905.026 63.6364 904.221 Q64.0551 903.384 64.0551 899.873 L66.0841 899.873 Q65.8909 906.604 65.8909 907.281 Q65.8909 907.796 66.0841 914.72 L64.0551 914.72 Q64.0551 911.21 63.6364 910.405 Q63.1856 909.567 61.06 909.567 L45.6978 909.567 Q42.3484 909.567 40.3838 910.598 Q38.3871 911.628 38.3871 914.462 Q38.3871 917.876 41.2534 920.614 Q44.1197 923.351 48.9506 923.351 L61.06 923.351 Q63.1856 923.351 63.6364 922.546 Q64.0551 921.709 64.0551 918.231 L66.0841 918.231 Q65.8909 924.962 65.8909 925.606 Q65.8909 926.121 66.0841 933.045 Z" fill="#000000" fill-rule="nonzero" fill-opacity="1" /><path clip-path="url(#clip460)" d="M39.7075 878.922 L37.6463 878.922 L36.9378 869.228 L58.8378 869.228 Q60.4159 869.228 61.3498 869.1 Q62.2516 868.971 63.3144 868.455 Q64.3772 867.908 64.8603 866.684 Q65.3434 865.428 65.3434 863.431 Q65.3434 859.856 62.4126 857.666 Q59.4819 855.444 55.1341 855.444 L43.379 855.444 Q40.9313 855.444 40.3194 856.314 Q39.7075 857.183 39.7075 860.597 L37.6463 860.597 L36.9378 850.903 L60.3515 850.903 Q62.7991 850.903 63.4432 850.066 Q64.0551 849.196 64.0551 845.75 L66.0841 845.75 L66.8248 855.251 L60.8667 855.251 Q66.7926 858.021 66.8248 863.753 Q66.8248 866.652 66.0841 868.649 Q65.3434 870.613 64.4416 871.612 Q63.5076 872.61 61.7363 873.157 Q59.965 873.673 58.87 873.737 Q57.775 873.802 55.6494 873.802 L45.7622 873.802 Q41.2856 873.802 40.5126 874.446 Q39.7075 875.09 39.7075 878.922 Z" fill="#000000" fill-rule="nonzero" fill-opacity="1" /><path clip-path="url(#clip460)" d="M66.0841 843.478 L64.0551 843.478 Q64.0551 839.967 63.6364 839.162 Q63.1856 838.357 61.06 838.357 L43.379 838.357 Q40.9313 838.357 40.3194 839.226 Q39.7075 840.064 39.7075 843.478 L37.6463 843.478 L36.9378 834.202 L43.8621 834.202 Q36.9378 831.111 36.9378 824.444 Q36.9378 816.715 43.379 815.652 Q40.8669 814.525 38.9023 812.173 Q36.9378 809.79 36.9378 806.087 Q36.9378 801.127 39.3854 799.162 Q41.0279 797.713 42.8637 797.423 Q44.6994 797.133 49.4659 797.133 L62.0584 797.133 Q63.4432 797.069 63.7653 796.006 Q64.0551 794.943 64.0551 791.98 L66.0841 791.98 Q65.8909 798.711 65.8909 799.356 Q65.8909 799.871 66.0841 806.827 L64.0551 806.827 Q64.0551 803.317 63.6364 802.512 Q63.1856 801.674 61.06 801.674 L45.6978 801.674 Q42.3484 801.674 40.3838 802.705 Q38.3871 803.736 38.3871 806.57 Q38.3871 809.984 41.2534 812.721 Q44.1197 815.458 48.9506 815.458 L61.06 815.458 Q63.1856 815.458 63.6364 814.653 Q64.0551 813.816 64.0551 810.306 L66.0841 810.306 Q65.8909 817.037 65.8909 817.713 Q65.8909 818.228 66.0841 825.152 L64.0551 825.152 Q64.0551 821.642 63.6364 820.837 Q63.1856 820 61.06 820 L45.6978 820 Q42.3484 820 40.3838 821.03 Q38.3871 822.061 38.3871 824.895 Q38.3871 828.309 41.2534 831.046 Q44.1197 833.784 48.9506 833.784 L61.06 833.784 Q63.1856 833.784 63.6364 832.978 Q64.0551 832.141 64.0551 828.663 L66.0841 828.663 Q65.8909 835.394 65.8909 836.038 Q65.8909 836.553 66.0841 843.478 Z" fill="#000000" fill-rule="nonzero" fill-opacity="1" /><path clip-path="url(#clip460)" d="M43.7332 788.035 Q33.6528 788.035 26.6319 781.593 Q19.5788 775.12 19.5788 766.135 Q19.5788 757.085 26.6319 750.644 Q33.685 744.17 43.7332 744.17 Q53.6848 744.17 60.6091 750.644 Q67.5334 757.117 67.5334 766.135 Q67.5334 775.023 60.6413 781.529 Q53.7493 788.035 43.7332 788.035 M42.7993 781.239 Q48.9184 781.239 53.6204 779.79 Q58.2903 778.341 60.8345 776.022 Q63.3788 773.671 64.6026 771.159 Q65.8264 768.647 65.8264 766.07 Q65.8264 763.558 64.6348 761.111 Q63.4432 758.631 60.9312 756.28 Q58.4191 753.929 53.717 752.447 Q49.015 750.966 42.7993 750.966 Q37.9684 750.966 34.1037 751.996 Q30.2068 753.027 27.8557 754.637 Q25.5047 756.247 23.9588 758.341 Q22.4129 760.402 21.8332 762.367 Q21.2213 764.299 21.2213 766.135 Q21.2213 768.453 22.2519 770.869 Q23.2825 773.284 25.5691 775.732 Q27.8235 778.147 32.3001 779.693 Q36.7446 781.239 42.7993 781.239 Z" fill="#000000" fill-rule="nonzero" fill-opacity="1" /><path clip-path="url(#clip460)" d="M23.0893 736.492 L21.0281 736.492 L20.3196 726.991 L41.2212 726.991 Q36.9378 723.159 36.9378 717.942 Q36.9378 712.273 41.2856 708.119 Q45.6334 703.964 51.8491 703.964 Q58.1292 703.964 62.477 708.312 Q66.8248 712.66 66.8248 718.682 Q66.8248 724.157 61.994 727.313 Q66.0197 729.632 66.0841 729.697 L66.0841 731.339 L26.7607 731.339 Q24.3131 731.339 23.7012 732.209 Q23.0893 733.078 23.0893 736.492 M58.5801 726.798 Q59.965 726.798 61.3498 725.864 Q65.3434 723.256 65.3434 719.004 Q65.3434 718.972 65.3434 718.94 Q65.3434 714.335 61.1244 711.468 Q57.9682 709.439 51.7847 709.439 Q45.6656 709.439 42.606 711.339 Q38.3871 713.98 38.3871 718.264 Q38.3871 723.095 42.606 726.057 Q43.6688 726.798 44.9893 726.798 L58.5801 726.798 Z" fill="#000000" fill-rule="nonzero" fill-opacity="1" /><path clip-path="url(#clip460)" d="M74.3288 704.215 Q73.0084 704.215 72.1388 703.378 Q71.3014 702.573 71.3014 701.188 Q71.3014 699.803 72.1388 698.998 Q73.0084 698.161 74.3288 698.161 Q75.5204 698.161 76.2611 698.869 Q77.0341 699.546 77.2917 700.447 Q78.1613 698.74 78.1613 696.905 Q78.1613 695.391 77.2595 694.36 Q76.3578 693.33 74.8763 692.879 Q73.3948 692.396 72.1388 692.235 Q70.915 692.074 69.4979 692.074 L43.379 692.074 Q40.9313 692.074 40.3194 693.04 Q39.7075 693.974 39.7075 697.742 L37.6463 697.742 L36.9378 687.726 L69.3691 687.726 Q73.7813 687.726 76.6798 690.367 Q79.6106 693.008 79.6106 696.744 Q79.6106 699.771 78.1935 701.993 Q76.7764 704.215 74.3288 704.215 M27.9524 693.684 Q26.9218 694.715 25.4725 694.715 Q24.0232 694.715 22.9927 693.684 Q21.9621 692.654 21.9621 691.204 Q21.9621 689.755 22.9927 688.724 Q24.0232 687.694 25.4725 687.694 Q26.9218 687.694 27.9524 688.724 Q28.9507 689.755 28.9507 691.204 Q28.9507 692.654 27.9524 693.684 Z" fill="#000000" fill-rule="nonzero" fill-opacity="1" /><path clip-path="url(#clip460)" d="M51.5593 676.919 Q45.3435 676.919 40.9313 672.925 Q36.5191 668.932 36.5191 663.199 Q36.5191 657.402 40.2872 654.407 Q44.0553 651.38 49.4659 651.38 Q50.4643 651.38 50.6575 651.637 Q50.8507 651.895 50.8507 653.022 L50.8507 671.444 Q57.5817 671.444 60.7379 669.447 Q65.1501 666.677 65.1501 662.007 Q65.1501 661.363 65.0213 660.59 Q64.8925 659.817 64.345 658.239 Q63.7653 656.661 62.2516 655.276 Q60.7379 653.892 58.3547 653.086 Q57.4207 652.893 57.4529 652.249 Q57.4529 651.38 58.2259 651.38 Q58.8056 651.38 60.126 652.024 Q61.4142 652.636 62.9601 653.827 Q64.506 655.019 65.6654 657.338 Q66.8248 659.624 66.8248 662.394 Q66.8248 668.191 62.4448 672.571 Q58.0326 676.919 51.5593 676.919 M49.4659 671.379 L49.4659 655.727 Q48.081 655.727 46.5351 655.985 Q44.9893 656.21 42.8637 656.919 Q40.7059 657.595 39.3532 659.206 Q38.0006 660.816 38.0006 663.199 Q38.0006 664.262 38.4515 665.421 Q38.9023 666.549 39.9973 667.933 Q41.0923 669.318 43.5722 670.284 Q46.052 671.251 49.4659 671.379 Z" fill="#000000" fill-rule="nonzero" fill-opacity="1" /><path clip-path="url(#clip460)" d="M62.477 643.736 Q58.097 647.923 51.8491 647.923 Q45.569 647.923 41.0601 643.801 Q36.5191 639.678 36.5191 633.624 Q36.5191 629.598 38.4515 626.571 Q40.3516 623.543 43.6044 623.543 Q45.0537 623.543 45.891 624.413 Q46.6962 625.25 46.6962 626.571 Q46.6962 627.955 45.8588 628.793 Q44.9893 629.598 43.6688 629.598 Q43.0891 629.598 42.5094 629.405 Q41.9297 629.211 41.3178 628.503 Q40.7059 627.762 40.6093 626.506 Q38.1938 628.857 38.1938 633.43 Q38.1938 633.495 38.1938 633.559 Q38.1938 636.909 41.35 639.678 Q44.5062 642.448 51.7203 642.448 Q55.4884 642.448 58.2581 641.546 Q60.9956 640.612 62.4126 639.099 Q63.8297 637.585 64.506 636.104 Q65.1501 634.622 65.1501 633.173 Q65.1501 626.699 58.2259 624.509 Q57.5817 624.316 57.5817 623.672 Q57.5817 622.803 58.2259 622.803 Q58.5479 622.803 59.3853 623.06 Q60.2226 623.318 61.5431 624.123 Q62.8635 624.928 64.0229 626.088 Q65.1501 627.215 65.9875 629.244 Q66.8248 631.24 66.8248 633.752 Q66.8248 639.55 62.477 643.736 Z" fill="#000000" fill-rule="nonzero" fill-opacity="1" /><path clip-path="url(#clip460)" d="M39.7075 620.511 L38.2582 620.511 Q38.1294 617.484 36.0038 615.487 Q33.846 613.458 31.2051 612.782 Q28.5643 612.073 25.5047 612.009 L25.5047 610.367 L37.6463 610.367 L37.6463 600.93 L39.7075 600.93 L39.7075 610.367 L58.0326 610.367 Q65.1501 610.367 65.1501 605.922 Q65.1501 604.022 63.2178 602.766 Q61.2532 601.51 57.775 601.51 L54.1357 601.51 L54.1357 599.867 L57.9038 599.867 Q61.4787 599.867 64.1517 601.51 Q66.8248 603.152 66.8248 606.405 Q66.8248 607.597 66.5028 608.788 Q66.2129 609.948 65.44 611.494 Q64.6348 613.007 62.7025 613.974 Q60.7379 614.908 57.9038 614.908 L39.7075 614.908 L39.7075 620.511 Z" fill="#000000" fill-rule="nonzero" fill-opacity="1" /><path clip-path="url(#clip460)" d="M66.0841 595.976 L64.0551 595.976 Q64.0551 592.466 63.6364 591.66 Q63.1856 590.855 61.06 590.855 L43.3146 590.855 Q40.8669 590.855 40.2872 591.693 Q39.7075 592.498 39.7075 595.718 L37.6463 595.718 L36.9378 586.507 L61.1244 586.507 Q63.0889 586.507 63.572 585.799 Q64.0551 585.09 64.0551 581.87 L66.0841 581.87 Q65.8909 588.601 65.8909 588.73 Q65.8909 589.631 66.0841 595.976 M25.4403 593.206 Q24.1199 593.206 23.0571 592.208 Q21.9621 591.177 21.9621 589.728 Q21.9621 588.279 22.9604 587.248 Q23.9266 586.218 25.4725 586.218 Q26.9862 586.218 27.9846 587.248 Q28.9507 588.279 28.9507 589.728 Q28.9507 591.242 27.8879 592.24 Q26.8252 593.206 25.4403 593.206 Z" fill="#000000" fill-rule="nonzero" fill-opacity="1" /><path clip-path="url(#clip460)" d="M39.7075 577.361 L37.6463 577.361 Q37.8396 574.399 37.8396 570.953 Q37.8396 569.697 37.6463 563.771 L39.7075 563.771 Q39.7075 567.539 41.4144 567.539 Q41.6721 567.539 42.5416 567.152 L60.9312 559.745 L44.1197 553.014 Q42.9925 552.627 42.5416 552.627 Q41.4144 552.627 40.6093 553.4 Q39.7719 554.141 39.7075 555.784 L37.6463 555.784 Q37.8396 552.434 37.8396 550.051 Q37.8396 547.346 37.6463 545.123 L39.7075 545.123 Q39.7075 547.088 40.6093 548.473 Q41.4788 549.858 42.2518 550.309 Q42.9925 550.727 44.1197 551.178 L65.5688 559.809 Q66.8248 560.325 66.8248 561.194 Q66.8248 561.774 66.5672 562.032 Q66.3417 562.257 65.5688 562.579 L42.1551 572.08 Q40.5126 572.724 40.1262 573.561 Q39.7075 574.399 39.7075 577.361 Z" fill="#000000" fill-rule="nonzero" fill-opacity="1" /><path clip-path="url(#clip460)" d="M51.5593 541.053 Q45.3435 541.053 40.9313 537.059 Q36.5191 533.066 36.5191 527.333 Q36.5191 521.536 40.2872 518.541 Q44.0553 515.514 49.4659 515.514 Q50.4643 515.514 50.6575 515.771 Q50.8507 516.029 50.8507 517.156 L50.8507 535.578 Q57.5817 535.578 60.7379 533.581 Q65.1501 530.812 65.1501 526.142 Q65.1501 525.498 65.0213 524.725 Q64.8925 523.952 64.345 522.374 Q63.7653 520.796 62.2516 519.411 Q60.7379 518.026 58.3547 517.221 Q57.4207 517.027 57.4529 516.383 Q57.4529 515.514 58.2259 515.514 Q58.8056 515.514 60.126 516.158 Q61.4142 516.77 62.9601 517.961 Q64.506 519.153 65.6654 521.472 Q66.8248 523.758 66.8248 526.528 Q66.8248 532.325 62.4448 536.705 Q58.0326 541.053 51.5593 541.053 M49.4659 535.514 L49.4659 519.862 Q48.081 519.862 46.5351 520.119 Q44.9893 520.345 42.8637 521.053 Q40.7059 521.73 39.3532 523.34 Q38.0006 524.95 38.0006 527.333 Q38.0006 528.396 38.4515 529.556 Q38.9023 530.683 39.9973 532.068 Q41.0923 533.452 43.5722 534.419 Q46.052 535.385 49.4659 535.514 Z" fill="#000000" fill-rule="nonzero" fill-opacity="1" /><path clip-path="url(#clip460)" d="M60.5447 505.294 Q53.556 512.057 43.54 512.057 Q33.4918 512.057 26.5353 505.23 Q19.5788 498.402 19.5788 489.127 Q19.5788 486.808 20.1263 484.843 Q20.6416 482.847 21.7044 481.268 Q22.735 479.69 23.4435 478.885 Q24.1199 478.048 25.2471 476.921 L20.384 473.603 Q19.5788 473.088 19.5788 472.573 Q19.5788 472.025 19.9009 471.929 Q20.1907 471.832 21.1569 471.832 L36.809 471.832 Q37.8718 471.832 38.1294 471.961 Q38.3871 472.09 38.3871 472.895 Q38.3871 473.539 38.1938 473.668 Q38.0006 473.797 37.2598 473.958 Q30.1424 474.956 25.8912 478.95 Q21.64 482.911 21.64 488.322 Q21.64 489.9 21.9943 491.671 Q22.3485 493.41 23.7012 495.987 Q25.0538 498.531 27.276 500.495 Q29.466 502.428 33.7172 503.845 Q37.9362 505.262 43.54 505.262 Q49.0794 505.262 53.3306 503.845 Q57.5817 502.428 59.804 500.463 Q61.994 498.466 63.3788 495.89 Q64.7637 493.281 65.1501 491.446 Q65.5044 489.578 65.5044 487.935 Q65.5044 486.808 65.2789 485.487 Q65.0213 484.167 64.3128 482.202 Q63.572 480.206 61.8329 478.95 Q60.0938 477.694 57.5173 477.694 L53.2984 477.694 Q51.3338 477.694 50.7219 478.66 Q50.11 479.626 50.11 483.845 L50.11 485.938 L48.081 485.938 Q48.2743 483.555 48.2743 475.343 Q48.2743 474.602 48.081 467.291 L50.11 467.291 Q50.11 470.447 50.5931 471.156 Q51.044 471.832 53.0085 471.832 L64.506 471.832 Q66.0197 471.832 66.0197 472.412 Q66.0197 472.927 64.5382 474.473 Q63.0567 475.987 61.9295 476.663 Q64.6992 478.241 66.1163 481.687 Q67.5334 485.101 67.5334 488.998 Q67.5334 498.499 60.5447 505.294 Z" fill="#000000" fill-rule="nonzero" fill-opacity="1" /><path clip-path="url(#clip460)" d="M59.804 461.388 Q54.2001 461.388 51.2372 454.786 Q49.337 450.825 48.854 442.644 L46.4385 442.644 Q42.3484 442.644 40.1906 444.802 Q38.0006 446.928 38.0006 449.633 Q38.0006 454.464 41.0279 456.783 Q41.0923 454.818 42.0907 454.11 Q43.0569 453.401 44.0553 453.401 Q45.3757 453.401 46.2453 454.239 Q47.0826 455.044 47.0826 456.429 Q47.0826 457.749 46.2775 458.619 Q45.4401 459.488 43.9909 459.488 Q40.7703 459.488 38.6447 456.59 Q36.5191 453.659 36.5191 449.504 Q36.5191 444.094 40.1584 440.487 Q41.2856 439.359 42.7348 438.812 Q44.1841 438.232 45.1503 438.168 Q46.0843 438.103 47.9522 438.103 L61.1244 438.103 Q61.5109 438.103 62.155 437.975 Q62.7991 437.846 63.6364 437.266 Q64.4416 436.654 64.4416 435.656 Q64.4416 433.272 60.2226 433.305 L56.519 433.305 L56.519 431.63 L60.2226 431.63 Q63.7331 431.63 65.1179 433.498 Q66.4706 435.334 66.4706 437.041 Q66.4706 439.231 64.8603 440.615 Q63.25 442 61.06 442.194 Q63.572 443.192 65.2145 445.479 Q66.8248 447.733 66.8248 450.825 Q66.8248 453.208 66.2129 455.462 Q65.6332 457.685 63.9907 459.552 Q62.316 461.388 59.804 461.388 M59.7395 456.3 Q62.1872 456.3 63.7653 454.561 Q65.3434 452.821 65.3434 450.374 Q65.3434 447.604 63.2178 445.124 Q61.06 442.644 56.841 442.644 L50.2388 442.644 Q50.4965 449.955 53.4272 453.144 Q56.3257 456.3 59.7395 456.3 Z" fill="#000000" fill-rule="nonzero" fill-opacity="1" /><path clip-path="url(#clip460)" d="M76.8409 434.004 Q76.8409 430.494 76.39 429.689 Q75.9713 428.851 73.8779 428.851 L42.9925 428.851 Q40.8025 428.851 40.255 429.689 Q39.7075 430.494 39.7075 434.004 L37.6463 434.004 L36.9378 424.503 L41.2856 424.503 Q36.9378 420.542 36.9378 415.26 Q36.9378 409.657 41.2856 405.566 Q45.6334 401.476 51.8491 401.476 Q58.1292 401.476 62.477 405.824 Q66.8248 410.172 66.8248 416.194 Q66.8248 419.479 65.1501 421.702 Q63.4432 423.892 62.1872 424.31 L62.7991 424.31 L73.8779 424.31 Q76.0035 424.31 76.4222 423.473 Q76.8409 422.635 76.8409 419.157 L78.8698 419.157 Q78.6766 426.082 78.6766 426.597 Q78.6766 427.241 78.8698 434.004 L76.8409 434.004 M58.5801 424.31 Q59.5785 424.31 59.9328 424.181 Q60.287 424.02 61.3498 423.376 Q65.3434 420.768 65.3434 416.516 Q65.3434 416.484 65.3434 416.452 Q65.3434 412.684 61.5109 409.818 Q57.6462 406.951 51.8491 406.951 Q46.3097 406.951 42.445 409.56 Q38.5803 412.169 38.5803 415.776 Q38.5803 418.352 39.9651 420.607 Q41.35 422.861 43.8621 424.31 L58.5801 424.31 Z" fill="#000000" fill-rule="nonzero" fill-opacity="1" /><polyline clip-path="url(#clip462)" style="stroke:#785ef0; stroke-linecap:round; stroke-linejoin:round; stroke-width:8; stroke-opacity:1; fill:none" points="276.876,96.2523 306.961,146.039 337.046,225.264 367.131,329.926 397.216,442.127 427.302,555.307 457.387,668.591 487.472,781.884 517.557,895.175 547.643,1008.46 577.728,1121.74 607.813,1235.02 637.898,1348.32 667.983,1461.96 "/>
<polyline clip-path="url(#clip462)" style="stroke:#785ef0; stroke-linecap:round; stroke-linejoin:round; stroke-width:8; stroke-opacity:1; fill:none" stroke-dasharray="32, 20" points="276.876,96.2523 306.961,145.265 337.046,222.109 367.131,323.887 397.216,434.65 427.302,547.216 457.387,660.153 487.472,773.171 517.557,886.192 547.643,999.195 577.728,1112.17 607.813,1225.11 637.898,1338.04 667.983,1451.2 "/>
<polyline clip-path="url(#clip462)" style="stroke:#fe6100; stroke-linecap:round; stroke-linejoin:round; stroke-width:8; stroke-opacity:1; fill:none" points="276.876,96.2523 306.961,140.993 337.046,217.595 367.131,217.595 397.216,217.595 427.302,320.91 457.387,432.894 487.472,546.051 517.557,546.051 547.643,659.333 577.728,772.627 607.813,880.687 637.898,993.975 667.983,1110.59 698.069,1110.59 728.154,1245.94 758.239,1245.94 788.324,1245.94 818.41,1245.94 848.495,1318.12 878.58,1318.12 908.665,1318.12 938.75,1318.12 968.836,1318.12 998.921,1318.12 1029.01,1318.12 1059.09,1318.12 1089.18,1318.12 1119.26,1318.12 1149.35,1318.12 1179.43,1318.12 1209.52,1318.12 1239.6,1318.12 1269.69,1318.12 1299.77,1318.12 1329.86,1318.12 1359.94,1318.12 1390.03,1318.12 1420.11,1318.12 1450.2,1326.73 1480.28,1326.73 1510.37,1387.83 1540.45,1729.86 "/>
<polyline clip-path="url(#clip462)" style="stroke:#fe6100; stroke-linecap:round; stroke-linejoin:round; stroke-width:8; stroke-opacity:1; fill:none" stroke-dasharray="32, 20" points="276.876,96.2523 306.961,146.037 337.046,225.261 367.131,325.272 397.216,325.272 427.302,427.445 457.387,429.774 487.472,542.923 517.557,544.251 547.643,657.533 577.728,770.826 607.813,884.122 637.898,884.122 667.983,987.351 698.069,1107.49 728.154,1220.94 758.239,1220.94 788.324,1220.94 818.41,1220.94 848.495,1220.94 878.58,1220.94 908.665,1220.94 938.75,1530.1 "/>
<polyline clip-path="url(#clip462)" style="stroke:#dc267f; stroke-linecap:round; stroke-linejoin:round; stroke-width:8; stroke-opacity:1; fill:none" points="276.876,96.2523 306.961,96.2523 337.046,96.2523 367.131,96.2602 397.216,96.7261 427.302,97.1952 457.387,97.6676 487.472,98.1435 517.557,98.6229 547.643,99.1058 577.728,99.5923 607.813,100.082 637.898,100.576 667.983,101.074 698.069,101.575 728.154,102.08 758.239,102.589 788.324,103.102 818.41,103.619 848.495,104.14 878.58,104.665 908.665,105.194 938.75,105.727 968.836,106.265 998.921,106.807 1029.01,107.353 1059.09,107.904 1089.18,108.459 1119.26,109.019 1149.35,109.583 1179.43,110.152 1209.52,110.726 1239.6,111.305 1269.69,111.888 1299.77,112.477 1329.86,113.071 1359.94,113.669 1390.03,114.273 1420.11,114.883 1450.2,115.497 1480.28,116.117 1510.37,116.743 1540.45,117.374 1570.54,118.011 1600.63,118.654 1630.71,119.302 1660.8,119.957 1690.88,120.618 1720.97,121.284 1751.05,121.957 1781.14,122.637 1811.22,123.323 1841.31,124.015 1871.39,124.714 1901.48,125.42 1931.56,126.133 1961.65,126.853 1991.73,127.581 2021.82,128.315 2051.9,129.057 2081.99,129.806 2112.07,130.563 2142.16,131.328 2172.24,132.101 2202.33,132.882 2232.42,133.671 2262.5,134.469 2292.59,135.275 2322.67,136.09 2352.76,136.913 2382.84,137.746 2412.93,138.588 2443.01,139.44 2473.1,140.301 2503.18,141.172 2533.27,142.052 2563.35,142.943 2593.44,143.845 2623.52,144.757 2653.61,145.679 2683.69,146.613 2713.78,147.558 2743.86,148.515 2773.95,149.483 2804.03,150.464 2834.12,151.456 2864.2,152.462 2894.29,153.48 2924.38,154.511 2954.46,155.555 2984.55,156.614 3014.63,157.686 3044.72,158.773 3074.8,159.875 3104.89,160.992 3134.97,162.124 3165.06,163.272 3195.14,164.436 3225.23,165.617 3255.31,166.816 3285.4,168.031 3315.48,169.265 3345.57,170.517 3375.65,171.789 3405.74,173.079 3435.82,174.39 3465.91,175.722 3495.99,177.075 3526.08,178.45 3556.16,179.847 3586.25,181.267 3616.34,182.712 3646.42,184.181 3676.51,185.675 3706.59,187.196 3736.68,188.744 3766.76,190.32 3796.85,191.925 3826.93,193.56 3857.02,195.225 3887.1,196.923 3917.19,198.655 3947.27,200.42 3977.36,202.222 4007.44,204.061 4037.53,205.938 4067.61,207.855 4097.7,209.815 4127.78,211.818 4157.87,213.866 4187.95,215.962 4218.04,218.107 4248.12,220.304 4278.21,222.556 4308.3,224.864 4338.38,227.232 4368.47,229.662 4398.55,232.158 4428.64,234.724 4458.72,237.362 4488.81,240.078 4518.89,242.876 4548.98,245.76 4579.06,248.736 4609.15,251.81 4639.23,254.988 4669.32,258.277 4699.4,261.686 4729.49,265.222 4759.57,268.896 4789.66,272.718 4819.74,276.701 4849.83,280.858 4879.91,285.206 4910,289.761 4940.09,294.545 4970.17,299.581 5000.26,304.897 5030.34,310.526 5060.43,316.505 5090.51,322.883 5120.6,329.713 5150.68,337.066 5180.77,345.027 5210.85,353.706 5240.94,363.244 5271.02,373.828 5301.11,385.717 5331.19,399.276 5361.28,413.234 5391.36,427.179 5421.45,441.113 5451.53,455.032 5481.62,468.937 5511.7,482.828 5541.79,496.703 5571.87,510.563 5601.96,524.408 5632.05,538.237 5662.13,552.05 5692.22,565.848 5722.3,579.63 5752.39,593.397 5782.47,607.149 5812.56,620.885 5842.64,634.606 5872.73,648.312 5902.81,662.003 5932.9,675.679 5962.98,689.34 5993.07,702.986 6023.15,716.618 6053.24,730.235 6083.32,743.838 6113.41,757.426 6143.49,771 6173.58,784.56 6203.66,798.106 6233.75,811.638 6263.83,825.157 6293.92,838.661 6324.01,852.152 6354.09,865.629 6384.18,879.093 6414.26,892.544 6444.35,905.981 6474.43,919.405 6504.52,932.816 6534.6,946.214 6564.69,959.599 6594.77,972.971 6624.86,986.331 6654.94,999.677 6685.03,1013.01 6715.11,1026.33 6745.2,1039.64 6775.28,1052.94 6805.37,1066.22 6835.45,1079.5 6865.54,1092.76 6895.62,1106.01 6925.71,1119.24 6955.8,1132.47 6985.88,1145.68 7015.97,1158.88 7046.05,1172.07 7076.14,1185.25 7106.22,1198.42 7136.31,1211.57 7166.39,1224.72 7196.48,1237.85 7226.56,1250.97 7256.65,1264.08 7286.73,1277.18 7316.82,1290.27 7346.9,1303.36 7376.99,1316.43 7407.07,1329.49 7437.16,1342.54 7467.24,1355.59 7497.33,1368.63 7527.41,1381.66 "/>
<polyline clip-path="url(#clip462)" style="stroke:#dc267f; stroke-linecap:round; stroke-linejoin:round; stroke-width:8; stroke-opacity:1; fill:none" stroke-dasharray="32, 20" points="276.876,96.2523 306.961,96.2523 337.046,96.2523 367.131,96.2597 397.216,96.7257 427.302,97.1946 457.387,97.667 487.472,98.1428 517.557,98.6221 547.643,99.1049 577.728,99.5913 607.813,100.081 637.898,100.575 667.983,101.072 698.069,101.574 728.154,102.079 758.239,102.587 788.324,103.1 818.41,103.617 848.495,104.138 878.58,104.663 908.665,105.192 938.75,105.725 968.836,106.262 998.921,106.804 1029.01,107.35 1059.09,107.901 1089.18,108.456 1119.26,109.016 1149.35,109.58 1179.43,110.149 1209.52,110.723 1239.6,111.301 1269.69,111.885 1299.77,112.473 1329.86,113.067 1359.94,113.665 1390.03,114.269 1420.11,114.878 1450.2,115.493 1480.28,116.113 1510.37,116.738 1540.45,117.369 1570.54,118.006 1600.63,118.648 1630.71,119.297 1660.8,119.951 1690.88,120.612 1720.97,121.278 1751.05,121.951 1781.14,122.63 1811.22,123.316 1841.31,124.008 1871.39,124.707 1901.48,125.413 1931.56,126.126 1961.65,126.846 1991.73,127.573 2021.82,128.307 2051.9,129.049 2081.99,129.798 2112.07,130.555 2142.16,131.319 2172.24,132.092 2202.33,132.872 2232.42,133.661 2262.5,134.459 2292.59,135.265 2322.67,136.079 2352.76,136.903 2382.84,137.735 2412.93,138.577 2443.01,139.428 2473.1,140.289 2503.18,141.159 2533.27,142.04 2563.35,142.931 2593.44,143.832 2623.52,144.743 2653.61,145.666 2683.69,146.599 2713.78,147.544 2743.86,148.5 2773.95,149.468 2804.03,150.448 2834.12,151.44 2864.2,152.445 2894.29,153.463 2924.38,154.494 2954.46,155.538 2984.55,156.596 3014.63,157.668 3044.72,158.754 3074.8,159.856 3104.89,160.972 3134.97,162.104 3165.06,163.251 3195.14,164.415 3225.23,165.596 3255.31,166.793 3285.4,168.008 3315.48,169.242 3345.57,170.493 3375.65,171.764 3405.74,173.054 3435.82,174.364 3465.91,175.695 3495.99,177.048 3526.08,178.422 3556.16,179.818 3586.25,181.238 3616.34,182.682 3646.42,184.15 3676.51,185.643 3706.59,187.163 3736.68,188.71 3766.76,190.285 3796.85,191.889 3826.93,193.523 3857.02,195.188 3887.1,196.885 3917.19,198.615 3947.27,200.38 3977.36,202.18 4007.44,204.017 4037.53,205.894 4067.61,207.81 4097.7,209.768 4127.78,211.769 4157.87,213.816 4187.95,215.91 4218.04,218.054 4248.12,220.249 4278.21,222.499 4308.3,224.805 4338.38,227.171 4368.47,229.599 4398.55,232.093 4428.64,234.656 4458.72,237.292 4488.81,240.006 4518.89,242.8 4548.98,245.682 4579.06,248.655 4609.15,251.725 4639.23,254.9 4669.32,258.186 4699.4,261.59 4729.49,265.122 4759.57,268.791 4789.66,272.608 4819.74,276.586 4849.83,280.737 4879.91,285.078 4910,289.626 4940.09,294.402 4970.17,299.429 5000.26,304.736 5030.34,310.353 5060.43,316.321 5090.51,322.684 5120.6,329.498 5150.68,336.833 5180.77,344.772 5210.85,353.425 5240.94,362.932 5271.02,373.478 5301.11,385.318 5331.19,398.815 5361.28,412.769 5391.36,426.712 5421.45,440.643 5451.53,454.561 5481.62,468.464 5511.7,482.353 5541.79,496.227 5571.87,510.086 5601.96,523.93 5632.05,537.758 5662.13,551.571 5692.22,565.368 5722.3,579.15 5752.39,592.916 5782.47,606.668 5812.56,620.403 5842.64,634.124 5872.73,647.83 5902.81,661.52 5932.9,675.196 5962.98,688.857 5993.07,702.503 6023.15,716.134 6053.24,729.751 6083.32,743.354 6113.41,756.942 6143.49,770.516 6173.58,784.076 6203.66,797.622 6233.75,811.154 6263.83,824.672 6293.92,838.177 6324.01,851.667 6354.09,865.145 6384.18,878.608 6414.26,892.059 6444.35,905.496 6474.43,918.92 6504.52,932.331 6534.6,945.729 6564.69,959.114 6594.77,972.486 6624.86,985.845 6654.94,999.192 6685.03,1012.53 6715.11,1025.85 6745.2,1039.16 6775.28,1052.45 6805.37,1065.74 6835.45,1079.01 6865.54,1092.27 6895.62,1105.52 6925.71,1118.76 6955.8,1131.98 6985.88,1145.19 7015.97,1158.4 7046.05,1171.58 7076.14,1184.76 7106.22,1197.93 7136.31,1211.08 7166.39,1224.23 7196.48,1237.36 7226.56,1250.48 7256.65,1263.6 7286.73,1276.7 7316.82,1289.79 7346.9,1302.87 7376.99,1315.94 7407.07,1329 7437.16,1342.05 7467.24,1355.09 7497.33,1368.13 7527.41,1381.16 "/>
<path clip-path="url(#clip460)" d="M1827.04 300.469 L2283.56 300.469 L2283.56 93.1086 L1827.04 93.1086  Z" fill="#000000" fill-rule="evenodd" fill-opacity="0"/>
<polyline clip-path="url(#clip460)" style="stroke:#000000; stroke-linecap:round; stroke-linejoin:round; stroke-width:4; stroke-opacity:0; fill:none" points="1827.04,300.469 2283.56,300.469 2283.56,93.1086 1827.04,93.1086 1827.04,300.469 "/>
<polyline clip-path="url(#clip460)" style="stroke:#785ef0; stroke-linecap:round; stroke-linejoin:round; stroke-width:8; stroke-opacity:1; fill:none" points="1850.1,144.949 1988.5,144.949 "/>
<path clip-path="url(#clip460)" d="M2027.95 146.025 Q2029.45 146.534 2030.87 148.201 Q2032.3 149.868 2033.74 152.784 L2038.48 162.229 L2033.46 162.229 L2029.04 153.363 Q2027.32 149.891 2025.7 148.756 Q2024.11 147.622 2021.33 147.622 L2016.24 147.622 L2016.24 162.229 L2011.56 162.229 L2011.56 127.669 L2022.12 127.669 Q2028.04 127.669 2030.96 130.145 Q2033.88 132.622 2033.88 137.622 Q2033.88 140.886 2032.35 143.039 Q2030.84 145.192 2027.95 146.025 M2016.24 131.511 L2016.24 143.78 L2022.12 143.78 Q2025.5 143.78 2027.21 142.229 Q2028.94 140.655 2028.94 137.622 Q2028.94 134.59 2027.21 133.062 Q2025.5 131.511 2022.12 131.511 L2016.24 131.511 Z" fill="#000000" fill-rule="nonzero" fill-opacity="1" /><path clip-path="url(#clip460)" d="M2049.18 131.511 L2049.18 144.497 L2055.06 144.497 Q2058.32 144.497 2060.1 142.807 Q2061.88 141.118 2061.88 137.993 Q2061.88 134.891 2060.1 133.201 Q2058.32 131.511 2055.06 131.511 L2049.18 131.511 M2044.5 127.669 L2055.06 127.669 Q2060.87 127.669 2063.83 130.307 Q2066.82 132.923 2066.82 137.993 Q2066.82 143.108 2063.83 145.724 Q2060.87 148.34 2055.06 148.34 L2049.18 148.34 L2049.18 162.229 L2044.5 162.229 L2044.5 127.669 Z" fill="#000000" fill-rule="nonzero" fill-opacity="1" /><path clip-path="url(#clip460)" d="M2077.76 145.724 L2077.76 158.386 L2085.26 158.386 Q2089.04 158.386 2090.84 156.835 Q2092.67 155.261 2092.67 152.043 Q2092.67 148.803 2090.84 147.275 Q2089.04 145.724 2085.26 145.724 L2077.76 145.724 M2077.76 131.511 L2077.76 141.928 L2084.69 141.928 Q2088.11 141.928 2089.78 140.655 Q2091.47 139.358 2091.47 136.719 Q2091.47 134.104 2089.78 132.807 Q2088.11 131.511 2084.69 131.511 L2077.76 131.511 M2073.09 127.669 L2085.03 127.669 Q2090.38 127.669 2093.27 129.891 Q2096.17 132.113 2096.17 136.21 Q2096.17 139.382 2094.69 141.257 Q2093.2 143.131 2090.33 143.594 Q2093.78 144.335 2095.68 146.696 Q2097.6 149.034 2097.6 152.553 Q2097.6 157.182 2094.45 159.705 Q2091.31 162.229 2085.5 162.229 L2073.09 162.229 L2073.09 127.669 Z" fill="#000000" fill-rule="nonzero" fill-opacity="1" /><path clip-path="url(#clip460)" d="M2130.73 126.257 Q2127.62 131.581 2126.12 136.789 Q2124.62 141.997 2124.62 147.344 Q2124.62 152.692 2126.12 157.946 Q2127.65 163.178 2130.73 168.479 L2127.02 168.479 Q2123.55 163.039 2121.81 157.784 Q2120.1 152.53 2120.1 147.344 Q2120.1 142.182 2121.81 136.951 Q2123.53 131.72 2127.02 126.257 L2130.73 126.257 Z" fill="#000000" fill-rule="nonzero" fill-opacity="1" /><path clip-path="url(#clip460)" d="M2153.2 130.84 Q2148.11 130.84 2145.1 134.636 Q2142.12 138.432 2142.12 144.983 Q2142.12 151.511 2145.1 155.307 Q2148.11 159.104 2153.2 159.104 Q2158.3 159.104 2161.26 155.307 Q2164.25 151.511 2164.25 144.983 Q2164.25 138.432 2161.26 134.636 Q2158.3 130.84 2153.2 130.84 M2153.2 127.044 Q2160.47 127.044 2164.82 131.928 Q2169.18 136.789 2169.18 144.983 Q2169.18 153.155 2164.82 158.039 Q2160.47 162.9 2153.2 162.9 Q2145.91 162.9 2141.54 158.039 Q2137.19 153.178 2137.19 144.983 Q2137.19 136.789 2141.54 131.928 Q2145.91 127.044 2153.2 127.044 Z" fill="#000000" fill-rule="nonzero" fill-opacity="1" /><path clip-path="url(#clip460)" d="M2175.87 151.997 L2175.87 136.303 L2180.12 136.303 L2180.12 151.835 Q2180.12 155.516 2181.56 157.368 Q2182.99 159.196 2185.87 159.196 Q2189.31 159.196 2191.31 156.997 Q2193.32 154.798 2193.32 151.002 L2193.32 136.303 L2197.58 136.303 L2197.58 162.229 L2193.32 162.229 L2193.32 158.247 Q2191.77 160.608 2189.71 161.766 Q2187.67 162.9 2184.96 162.9 Q2180.49 162.9 2178.18 160.122 Q2175.87 157.344 2175.87 151.997 M2186.58 135.678 L2186.58 135.678 Z" fill="#000000" fill-rule="nonzero" fill-opacity="1" /><path clip-path="url(#clip460)" d="M2221.37 140.284 Q2220.66 139.868 2219.8 139.682 Q2218.97 139.474 2217.95 139.474 Q2214.34 139.474 2212.39 141.835 Q2210.47 144.173 2210.47 148.571 L2210.47 162.229 L2206.19 162.229 L2206.19 136.303 L2210.47 136.303 L2210.47 140.331 Q2211.81 137.969 2213.97 136.835 Q2216.12 135.678 2219.2 135.678 Q2219.64 135.678 2220.17 135.747 Q2220.7 135.794 2221.35 135.909 L2221.37 140.284 Z" fill="#000000" fill-rule="nonzero" fill-opacity="1" /><path clip-path="url(#clip460)" d="M2242.37 137.067 L2242.37 141.094 Q2240.56 140.169 2238.62 139.706 Q2236.68 139.243 2234.59 139.243 Q2231.42 139.243 2229.82 140.215 Q2228.25 141.187 2228.25 143.131 Q2228.25 144.613 2229.38 145.469 Q2230.52 146.303 2233.94 147.067 L2235.4 147.391 Q2239.94 148.363 2241.84 150.145 Q2243.76 151.905 2243.76 155.076 Q2243.76 158.687 2240.89 160.793 Q2238.04 162.9 2233.04 162.9 Q2230.96 162.9 2228.69 162.483 Q2226.44 162.09 2223.94 161.28 L2223.94 156.881 Q2226.3 158.108 2228.6 158.733 Q2230.89 159.335 2233.13 159.335 Q2236.14 159.335 2237.76 158.317 Q2239.38 157.275 2239.38 155.4 Q2239.38 153.664 2238.2 152.738 Q2237.05 151.812 2233.09 150.956 L2231.61 150.608 Q2227.65 149.775 2225.89 148.062 Q2224.13 146.326 2224.13 143.317 Q2224.13 139.659 2226.72 137.669 Q2229.31 135.678 2234.08 135.678 Q2236.44 135.678 2238.53 136.025 Q2240.61 136.372 2242.37 137.067 Z" fill="#000000" fill-rule="nonzero" fill-opacity="1" /><path clip-path="url(#clip460)" d="M2249.87 126.257 L2253.57 126.257 Q2257.05 131.72 2258.76 136.951 Q2260.49 142.182 2260.49 147.344 Q2260.49 152.53 2258.76 157.784 Q2257.05 163.039 2253.57 168.479 L2249.87 168.479 Q2252.95 163.178 2254.45 157.946 Q2255.98 152.692 2255.98 147.344 Q2255.98 141.997 2254.45 136.789 Q2252.95 131.581 2249.87 126.257 Z" fill="#000000" fill-rule="nonzero" fill-opacity="1" /><polyline clip-path="url(#clip460)" style="stroke:#fe6100; stroke-linecap:round; stroke-linejoin:round; stroke-width:8; stroke-opacity:1; fill:none" points="1850.1,196.789 1988.5,196.789 "/>
<path clip-path="url(#clip460)" d="M2027.95 197.865 Q2029.45 198.374 2030.87 200.041 Q2032.3 201.708 2033.74 204.624 L2038.48 214.069 L2033.46 214.069 L2029.04 205.203 Q2027.32 201.731 2025.7 200.596 Q2024.11 199.462 2021.33 199.462 L2016.24 199.462 L2016.24 214.069 L2011.56 214.069 L2011.56 179.509 L2022.12 179.509 Q2028.04 179.509 2030.96 181.985 Q2033.88 184.462 2033.88 189.462 Q2033.88 192.726 2032.35 194.879 Q2030.84 197.032 2027.95 197.865 M2016.24 183.351 L2016.24 195.62 L2022.12 195.62 Q2025.5 195.62 2027.21 194.069 Q2028.94 192.495 2028.94 189.462 Q2028.94 186.43 2027.21 184.902 Q2025.5 183.351 2022.12 183.351 L2016.24 183.351 Z" fill="#000000" fill-rule="nonzero" fill-opacity="1" /><path clip-path="url(#clip460)" d="M2068.02 182.171 L2068.02 187.101 Q2065.66 184.902 2062.97 183.814 Q2060.31 182.726 2057.3 182.726 Q2051.38 182.726 2048.23 186.36 Q2045.08 189.972 2045.08 196.823 Q2045.08 203.652 2048.23 207.286 Q2051.38 210.897 2057.3 210.897 Q2060.31 210.897 2062.97 209.809 Q2065.66 208.721 2068.02 206.522 L2068.02 211.407 Q2065.57 213.073 2062.81 213.907 Q2060.08 214.74 2057.02 214.74 Q2049.18 214.74 2044.66 209.948 Q2040.15 205.133 2040.15 196.823 Q2040.15 188.49 2044.66 183.698 Q2049.18 178.884 2057.02 178.884 Q2060.13 178.884 2062.86 179.717 Q2065.61 180.527 2068.02 182.171 Z" fill="#000000" fill-rule="nonzero" fill-opacity="1" /><path clip-path="url(#clip460)" d="M2079.92 197.564 L2079.92 210.226 L2087.42 210.226 Q2091.19 210.226 2093 208.675 Q2094.82 207.101 2094.82 203.883 Q2094.82 200.643 2093 199.115 Q2091.19 197.564 2087.42 197.564 L2079.92 197.564 M2079.92 183.351 L2079.92 193.768 L2086.84 193.768 Q2090.26 193.768 2091.93 192.495 Q2093.62 191.198 2093.62 188.559 Q2093.62 185.944 2091.93 184.647 Q2090.26 183.351 2086.84 183.351 L2079.92 183.351 M2075.24 179.509 L2087.19 179.509 Q2092.53 179.509 2095.43 181.731 Q2098.32 183.953 2098.32 188.05 Q2098.32 191.222 2096.84 193.097 Q2095.36 194.971 2092.49 195.434 Q2095.94 196.175 2097.83 198.536 Q2099.75 200.874 2099.75 204.393 Q2099.75 209.022 2096.61 211.545 Q2093.46 214.069 2087.65 214.069 L2075.24 214.069 L2075.24 179.509 Z" fill="#000000" fill-rule="nonzero" fill-opacity="1" /><path clip-path="url(#clip460)" d="M2107.76 179.509 L2114.73 179.509 L2123.55 203.027 L2132.42 179.509 L2139.38 179.509 L2139.38 214.069 L2134.82 214.069 L2134.82 183.722 L2125.91 207.425 L2121.21 207.425 L2112.3 183.722 L2112.3 214.069 L2107.76 214.069 L2107.76 179.509 Z" fill="#000000" fill-rule="nonzero" fill-opacity="1" /><polyline clip-path="url(#clip460)" style="stroke:#dc267f; stroke-linecap:round; stroke-linejoin:round; stroke-width:8; stroke-opacity:1; fill:none" points="1850.1,248.629 1988.5,248.629 "/>
<path clip-path="url(#clip460)" d="M2016.24 235.191 L2016.24 248.177 L2022.12 248.177 Q2025.38 248.177 2027.16 246.487 Q2028.94 244.798 2028.94 241.673 Q2028.94 238.571 2027.16 236.881 Q2025.38 235.191 2022.12 235.191 L2016.24 235.191 M2011.56 231.349 L2022.12 231.349 Q2027.93 231.349 2030.89 233.987 Q2033.88 236.603 2033.88 241.673 Q2033.88 246.788 2030.89 249.404 Q2027.93 252.02 2022.12 252.02 L2016.24 252.02 L2016.24 265.909 L2011.56 265.909 L2011.56 231.349 Z" fill="#000000" fill-rule="nonzero" fill-opacity="1" /><path clip-path="url(#clip460)" d="M2044.82 249.404 L2044.82 262.066 L2052.32 262.066 Q2056.1 262.066 2057.9 260.515 Q2059.73 258.941 2059.73 255.723 Q2059.73 252.483 2057.9 250.955 Q2056.1 249.404 2052.32 249.404 L2044.82 249.404 M2044.82 235.191 L2044.82 245.608 L2051.75 245.608 Q2055.17 245.608 2056.84 244.335 Q2058.53 243.038 2058.53 240.399 Q2058.53 237.784 2056.84 236.487 Q2055.17 235.191 2051.75 235.191 L2044.82 235.191 M2040.15 231.349 L2052.09 231.349 Q2057.44 231.349 2060.33 233.571 Q2063.23 235.793 2063.23 239.89 Q2063.23 243.062 2061.75 244.937 Q2060.26 246.811 2057.39 247.274 Q2060.84 248.015 2062.74 250.376 Q2064.66 252.714 2064.66 256.233 Q2064.66 260.862 2061.51 263.385 Q2058.37 265.909 2052.56 265.909 L2040.15 265.909 L2040.15 231.349 Z" fill="#000000" fill-rule="nonzero" fill-opacity="1" /><path clip-path="url(#clip460)" d="M2084.22 235.955 L2077.88 253.154 L2090.59 253.154 L2084.22 235.955 M2081.58 231.349 L2086.88 231.349 L2100.06 265.909 L2095.19 265.909 L2092.05 257.043 L2076.47 257.043 L2073.32 265.909 L2068.39 265.909 L2081.58 231.349 Z" fill="#000000" fill-rule="nonzero" fill-opacity="1" /></svg>
