<?xml version="1.0" encoding="utf-8"?>
<svg xmlns="http://www.w3.org/2000/svg" xmlns:xlink="http://www.w3.org/1999/xlink" width="600" height="400" viewBox="0 0 2400 1600">
<defs>
  <clipPath id="clip520">
    <rect x="0" y="0" width="2400" height="1600"/>
  </clipPath>
</defs>
<path clip-path="url(#clip520)" d="M0 1600 L2400 1600 L2400 8.88178e-14 L0 8.88178e-14  Z" fill="#ffffff" fill-rule="evenodd" fill-opacity="1"/>
<defs>
  <clipPath id="clip521">
    <rect x="480" y="0" width="1681" height="1600"/>
  </clipPath>
</defs>
<path clip-path="url(#clip520)" d="M276.876 1423.18 L2352.76 1423.18 L2352.76 47.2441 L276.876 47.2441  Z" fill="#ffffff" fill-rule="evenodd" fill-opacity="1"/>
<defs>
  <clipPath id="clip522">
    <rect x="276" y="47" width="2077" height="1377"/>
  </clipPath>
</defs>
<polyline clip-path="url(#clip522)" style="stroke:#000000; stroke-linecap:round; stroke-linejoin:round; stroke-width:2; stroke-opacity:0.1; fill:none" points="276.876,1423.18 276.876,47.2441 "/>
<polyline clip-path="url(#clip522)" style="stroke:#000000; stroke-linecap:round; stroke-linejoin:round; stroke-width:2; stroke-opacity:0.1; fill:none" points="596.242,1423.18 596.242,47.2441 "/>
<polyline clip-path="url(#clip522)" style="stroke:#000000; stroke-linecap:round; stroke-linejoin:round; stroke-width:2; stroke-opacity:0.1; fill:none" points="915.608,1423.18 915.608,47.2441 "/>
<polyline clip-path="url(#clip522)" style="stroke:#000000; stroke-linecap:round; stroke-linejoin:round; stroke-width:2; stroke-opacity:0.1; fill:none" points="1234.97,1423.18 1234.97,47.2441 "/>
<polyline clip-path="url(#clip522)" style="stroke:#000000; stroke-linecap:round; stroke-linejoin:round; stroke-width:2; stroke-opacity:0.1; fill:none" points="1554.34,1423.18 1554.34,47.2441 "/>
<polyline clip-path="url(#clip522)" style="stroke:#000000; stroke-linecap:round; stroke-linejoin:round; stroke-width:2; stroke-opacity:0.1; fill:none" points="1873.71,1423.18 1873.71,47.2441 "/>
<polyline clip-path="url(#clip522)" style="stroke:#000000; stroke-linecap:round; stroke-linejoin:round; stroke-width:2; stroke-opacity:0.1; fill:none" points="2193.07,1423.18 2193.07,47.2441 "/>
<polyline clip-path="url(#clip522)" style="stroke:#000000; stroke-linecap:round; stroke-linejoin:round; stroke-width:2; stroke-opacity:0.1; fill:none" points="276.876,1184.86 2352.76,1184.86 "/>
<polyline clip-path="url(#clip522)" style="stroke:#000000; stroke-linecap:round; stroke-linejoin:round; stroke-width:2; stroke-opacity:0.1; fill:none" points="276.876,589.074 2352.76,589.074 "/>
<polyline clip-path="url(#clip520)" style="stroke:#000000; stroke-linecap:round; stroke-linejoin:round; stroke-width:4; stroke-opacity:1; fill:none" points="276.876,1423.18 2352.76,1423.18 "/>
<polyline clip-path="url(#clip520)" style="stroke:#000000; stroke-linecap:round; stroke-linejoin:round; stroke-width:4; stroke-opacity:1; fill:none" points="276.876,1423.18 276.876,1404.28 "/>
<polyline clip-path="url(#clip520)" style="stroke:#000000; stroke-linecap:round; stroke-linejoin:round; stroke-width:4; stroke-opacity:1; fill:none" points="596.242,1423.18 596.242,1404.28 "/>
<polyline clip-path="url(#clip520)" style="stroke:#000000; stroke-linecap:round; stroke-linejoin:round; stroke-width:4; stroke-opacity:1; fill:none" points="915.608,1423.18 915.608,1404.28 "/>
<polyline clip-path="url(#clip520)" style="stroke:#000000; stroke-linecap:round; stroke-linejoin:round; stroke-width:4; stroke-opacity:1; fill:none" points="1234.97,1423.18 1234.97,1404.28 "/>
<polyline clip-path="url(#clip520)" style="stroke:#000000; stroke-linecap:round; stroke-linejoin:round; stroke-width:4; stroke-opacity:1; fill:none" points="1554.34,1423.18 1554.34,1404.28 "/>
<polyline clip-path="url(#clip520)" style="stroke:#000000; stroke-linecap:round; stroke-linejoin:round; stroke-width:4; stroke-opacity:1; fill:none" points="1873.71,1423.18 1873.71,1404.28 "/>
<polyline clip-path="url(#clip520)" style="stroke:#000000; stroke-linecap:round; stroke-linejoin:round; stroke-width:4; stroke-opacity:1; fill:none" points="2193.07,1423.18 2193.07,1404.28 "/>
<path clip-path="url(#clip520)" d="M276.876 1454.1 Q273.264 1454.1 271.436 1457.66 Q269.63 1461.2 269.63 1468.33 Q269.63 1475.44 271.436 1479.01 Q273.264 1482.55 276.876 1482.55 Q280.51 1482.55 282.315 1479.01 Q284.144 1475.44 284.144 1468.33 Q284.144 1461.2 282.315 1457.66 Q280.51 1454.1 276.876 1454.1 M276.876 1450.39 Q282.686 1450.39 285.741 1455 Q288.82 1459.58 288.82 1468.33 Q288.82 1477.06 285.741 1481.67 Q282.686 1486.25 276.876 1486.25 Q271.065 1486.25 267.987 1481.67 Q264.931 1477.06 264.931 1468.33 Q264.931 1459.58 267.987 1455 Q271.065 1450.39 276.876 1450.39 Z" fill="#000000" fill-rule="nonzero" fill-opacity="1" /><path clip-path="url(#clip520)" d="M570.929 1481.64 L578.568 1481.64 L578.568 1455.28 L570.258 1456.95 L570.258 1452.69 L578.522 1451.02 L583.198 1451.02 L583.198 1481.64 L590.837 1481.64 L590.837 1485.58 L570.929 1485.58 L570.929 1481.64 Z" fill="#000000" fill-rule="nonzero" fill-opacity="1" /><path clip-path="url(#clip520)" d="M610.281 1454.1 Q606.67 1454.1 604.841 1457.66 Q603.036 1461.2 603.036 1468.33 Q603.036 1475.44 604.841 1479.01 Q606.67 1482.55 610.281 1482.55 Q613.915 1482.55 615.721 1479.01 Q617.549 1475.44 617.549 1468.33 Q617.549 1461.2 615.721 1457.66 Q613.915 1454.1 610.281 1454.1 M610.281 1450.39 Q616.091 1450.39 619.147 1455 Q622.225 1459.58 622.225 1468.33 Q622.225 1477.06 619.147 1481.67 Q616.091 1486.25 610.281 1486.25 Q604.471 1486.25 601.392 1481.67 Q598.337 1477.06 598.337 1468.33 Q598.337 1459.58 601.392 1455 Q604.471 1450.39 610.281 1450.39 Z" fill="#000000" fill-rule="nonzero" fill-opacity="1" /><path clip-path="url(#clip520)" d="M894.381 1481.64 L910.701 1481.64 L910.701 1485.58 L888.756 1485.58 L888.756 1481.64 Q891.418 1478.89 896.002 1474.26 Q900.608 1469.61 901.789 1468.27 Q904.034 1465.74 904.914 1464.01 Q905.816 1462.25 905.816 1460.56 Q905.816 1457.8 903.872 1456.07 Q901.951 1454.33 898.849 1454.33 Q896.65 1454.33 894.196 1455.09 Q891.765 1455.86 888.988 1457.41 L888.988 1452.69 Q891.812 1451.55 894.265 1450.97 Q896.719 1450.39 898.756 1450.39 Q904.127 1450.39 907.321 1453.08 Q910.515 1455.77 910.515 1460.26 Q910.515 1462.39 909.705 1464.31 Q908.918 1466.2 906.812 1468.8 Q906.233 1469.47 903.131 1472.69 Q900.029 1475.88 894.381 1481.64 Z" fill="#000000" fill-rule="nonzero" fill-opacity="1" /><path clip-path="url(#clip520)" d="M930.515 1454.1 Q926.904 1454.1 925.075 1457.66 Q923.27 1461.2 923.27 1468.33 Q923.27 1475.44 925.075 1479.01 Q926.904 1482.55 930.515 1482.55 Q934.15 1482.55 935.955 1479.01 Q937.784 1475.44 937.784 1468.33 Q937.784 1461.2 935.955 1457.66 Q934.15 1454.1 930.515 1454.1 M930.515 1450.39 Q936.325 1450.39 939.381 1455 Q942.46 1459.58 942.46 1468.33 Q942.46 1477.06 939.381 1481.67 Q936.325 1486.25 930.515 1486.25 Q924.705 1486.25 921.626 1481.67 Q918.571 1477.06 918.571 1468.33 Q918.571 1459.58 921.626 1455 Q924.705 1450.39 930.515 1450.39 Z" fill="#000000" fill-rule="nonzero" fill-opacity="1" /><path clip-path="url(#clip520)" d="M1223.82 1466.95 Q1227.17 1467.66 1229.05 1469.93 Q1230.95 1472.2 1230.95 1475.53 Q1230.95 1480.65 1227.43 1483.45 Q1223.91 1486.25 1217.43 1486.25 Q1215.25 1486.25 1212.94 1485.81 Q1210.65 1485.39 1208.19 1484.54 L1208.19 1480.02 Q1210.14 1481.16 1212.45 1481.74 Q1214.77 1482.32 1217.29 1482.32 Q1221.69 1482.32 1223.98 1480.58 Q1226.29 1478.84 1226.29 1475.53 Q1226.29 1472.48 1224.14 1470.77 Q1222.01 1469.03 1218.19 1469.03 L1214.16 1469.03 L1214.16 1465.19 L1218.38 1465.19 Q1221.83 1465.19 1223.65 1463.82 Q1225.48 1462.43 1225.48 1459.84 Q1225.48 1457.18 1223.59 1455.77 Q1221.71 1454.33 1218.19 1454.33 Q1216.27 1454.33 1214.07 1454.75 Q1211.87 1455.16 1209.23 1456.04 L1209.23 1451.88 Q1211.9 1451.14 1214.21 1450.77 Q1216.55 1450.39 1218.61 1450.39 Q1223.93 1450.39 1227.03 1452.83 Q1230.14 1455.23 1230.14 1459.35 Q1230.14 1462.22 1228.49 1464.21 Q1226.85 1466.18 1223.82 1466.95 Z" fill="#000000" fill-rule="nonzero" fill-opacity="1" /><path clip-path="url(#clip520)" d="M1249.81 1454.1 Q1246.2 1454.1 1244.37 1457.66 Q1242.57 1461.2 1242.57 1468.33 Q1242.57 1475.44 1244.37 1479.01 Q1246.2 1482.55 1249.81 1482.55 Q1253.45 1482.55 1255.25 1479.01 Q1257.08 1475.44 1257.08 1468.33 Q1257.08 1461.2 1255.25 1457.66 Q1253.45 1454.1 1249.81 1454.1 M1249.81 1450.39 Q1255.62 1450.39 1258.68 1455 Q1261.76 1459.58 1261.76 1468.33 Q1261.76 1477.06 1258.68 1481.67 Q1255.62 1486.25 1249.81 1486.25 Q1244 1486.25 1240.92 1481.67 Q1237.87 1477.06 1237.87 1468.33 Q1237.87 1459.58 1240.92 1455 Q1244 1450.39 1249.81 1450.39 Z" fill="#000000" fill-rule="nonzero" fill-opacity="1" /><path clip-path="url(#clip520)" d="M1542.51 1455.09 L1530.71 1473.54 L1542.51 1473.54 L1542.51 1455.09 M1541.28 1451.02 L1547.16 1451.02 L1547.16 1473.54 L1552.1 1473.54 L1552.1 1477.43 L1547.16 1477.43 L1547.16 1485.58 L1542.51 1485.58 L1542.51 1477.43 L1526.91 1477.43 L1526.91 1472.92 L1541.28 1451.02 Z" fill="#000000" fill-rule="nonzero" fill-opacity="1" /><path clip-path="url(#clip520)" d="M1569.83 1454.1 Q1566.22 1454.1 1564.39 1457.66 Q1562.58 1461.2 1562.58 1468.33 Q1562.58 1475.44 1564.39 1479.01 Q1566.22 1482.55 1569.83 1482.55 Q1573.46 1482.55 1575.27 1479.01 Q1577.09 1475.44 1577.09 1468.33 Q1577.09 1461.2 1575.27 1457.66 Q1573.46 1454.1 1569.83 1454.1 M1569.83 1450.39 Q1575.64 1450.39 1578.69 1455 Q1581.77 1459.58 1581.77 1468.33 Q1581.77 1477.06 1578.69 1481.67 Q1575.64 1486.25 1569.83 1486.25 Q1564.02 1486.25 1560.94 1481.67 Q1557.88 1477.06 1557.88 1468.33 Q1557.88 1459.58 1560.94 1455 Q1564.02 1450.39 1569.83 1450.39 Z" fill="#000000" fill-rule="nonzero" fill-opacity="1" /><path clip-path="url(#clip520)" d="M1848.41 1451.02 L1866.76 1451.02 L1866.76 1454.96 L1852.69 1454.96 L1852.69 1463.43 Q1853.71 1463.08 1854.73 1462.92 Q1855.74 1462.73 1856.76 1462.73 Q1862.55 1462.73 1865.93 1465.9 Q1869.31 1469.08 1869.31 1474.49 Q1869.31 1480.07 1865.84 1483.17 Q1862.36 1486.25 1856.04 1486.25 Q1853.87 1486.25 1851.6 1485.88 Q1849.35 1485.51 1846.95 1484.77 L1846.95 1480.07 Q1849.03 1481.2 1851.25 1481.76 Q1853.48 1482.32 1855.95 1482.32 Q1859.96 1482.32 1862.29 1480.21 Q1864.63 1478.1 1864.63 1474.49 Q1864.63 1470.88 1862.29 1468.77 Q1859.96 1466.67 1855.95 1466.67 Q1854.08 1466.67 1852.2 1467.08 Q1850.35 1467.5 1848.41 1468.38 L1848.41 1451.02 Z" fill="#000000" fill-rule="nonzero" fill-opacity="1" /><path clip-path="url(#clip520)" d="M1888.52 1454.1 Q1884.91 1454.1 1883.08 1457.66 Q1881.28 1461.2 1881.28 1468.33 Q1881.28 1475.44 1883.08 1479.01 Q1884.91 1482.55 1888.52 1482.55 Q1892.16 1482.55 1893.96 1479.01 Q1895.79 1475.44 1895.79 1468.33 Q1895.79 1461.2 1893.96 1457.66 Q1892.16 1454.1 1888.52 1454.1 M1888.52 1450.39 Q1894.33 1450.39 1897.39 1455 Q1900.47 1459.58 1900.47 1468.33 Q1900.47 1477.06 1897.39 1481.67 Q1894.33 1486.25 1888.52 1486.25 Q1882.71 1486.25 1879.63 1481.67 Q1876.58 1477.06 1876.58 1468.33 Q1876.58 1459.58 1879.63 1455 Q1882.71 1450.39 1888.52 1450.39 Z" fill="#000000" fill-rule="nonzero" fill-opacity="1" /><path clip-path="url(#clip520)" d="M2178.48 1466.44 Q2175.33 1466.44 2173.48 1468.59 Q2171.65 1470.74 2171.65 1474.49 Q2171.65 1478.22 2173.48 1480.39 Q2175.33 1482.55 2178.48 1482.55 Q2181.63 1482.55 2183.45 1480.39 Q2185.31 1478.22 2185.31 1474.49 Q2185.31 1470.74 2183.45 1468.59 Q2181.63 1466.44 2178.48 1466.44 M2187.76 1451.78 L2187.76 1456.04 Q2186 1455.21 2184.2 1454.77 Q2182.41 1454.33 2180.65 1454.33 Q2176.02 1454.33 2173.57 1457.45 Q2171.14 1460.58 2170.79 1466.9 Q2172.16 1464.89 2174.22 1463.82 Q2176.28 1462.73 2178.76 1462.73 Q2183.96 1462.73 2186.97 1465.9 Q2190.01 1469.05 2190.01 1474.49 Q2190.01 1479.82 2186.86 1483.03 Q2183.71 1486.25 2178.48 1486.25 Q2172.48 1486.25 2169.31 1481.67 Q2166.14 1477.06 2166.14 1468.33 Q2166.14 1460.14 2170.03 1455.28 Q2173.92 1450.39 2180.47 1450.39 Q2182.23 1450.39 2184.01 1450.74 Q2185.82 1451.09 2187.76 1451.78 Z" fill="#000000" fill-rule="nonzero" fill-opacity="1" /><path clip-path="url(#clip520)" d="M2208.06 1454.1 Q2204.45 1454.1 2202.62 1457.66 Q2200.82 1461.2 2200.82 1468.33 Q2200.82 1475.44 2202.62 1479.01 Q2204.45 1482.55 2208.06 1482.55 Q2211.7 1482.55 2213.5 1479.01 Q2215.33 1475.44 2215.33 1468.33 Q2215.33 1461.2 2213.5 1457.66 Q2211.7 1454.1 2208.06 1454.1 M2208.06 1450.39 Q2213.87 1450.39 2216.93 1455 Q2220.01 1459.58 2220.01 1468.33 Q2220.01 1477.06 2216.93 1481.67 Q2213.87 1486.25 2208.06 1486.25 Q2202.25 1486.25 2199.17 1481.67 Q2196.12 1477.06 2196.12 1468.33 Q2196.12 1459.58 2199.17 1455 Q2202.25 1450.39 2208.06 1450.39 Z" fill="#000000" fill-rule="nonzero" fill-opacity="1" /><path clip-path="url(#clip520)" d="M1146.61 1539.49 Q1146.61 1529.41 1153.06 1522.39 Q1159.53 1515.34 1168.51 1515.34 Q1177.56 1515.34 1184.01 1522.39 Q1190.48 1529.45 1190.48 1539.49 Q1190.48 1549.45 1184.01 1556.37 Q1177.53 1563.29 1168.51 1563.29 Q1159.63 1563.29 1153.12 1556.4 Q1146.61 1549.51 1146.61 1539.49 M1153.41 1538.56 Q1153.41 1544.68 1154.86 1549.38 Q1156.31 1554.05 1158.63 1556.59 Q1160.98 1559.14 1163.49 1560.36 Q1166 1561.59 1168.58 1561.59 Q1171.09 1561.59 1173.54 1560.4 Q1176.02 1559.2 1178.37 1556.69 Q1180.72 1554.18 1182.2 1549.48 Q1183.68 1544.78 1183.68 1538.56 Q1183.68 1533.73 1182.65 1529.86 Q1181.62 1525.97 1180.01 1523.62 Q1178.4 1521.26 1176.31 1519.72 Q1174.25 1518.17 1172.28 1517.59 Q1170.35 1516.98 1168.51 1516.98 Q1166.2 1516.98 1163.78 1518.01 Q1161.36 1519.04 1158.92 1521.33 Q1156.5 1523.58 1154.96 1528.06 Q1153.41 1532.5 1153.41 1538.56 Z" fill="#000000" fill-rule="nonzero" fill-opacity="1" /><path clip-path="url(#clip520)" d="M1198.16 1561.84 L1198.16 1559.82 Q1201.67 1559.82 1202.47 1559.4 Q1203.31 1558.95 1203.31 1556.82 L1203.31 1539.14 Q1203.31 1536.69 1202.44 1536.08 Q1201.6 1535.47 1198.16 1535.47 L1198.16 1533.41 L1207.34 1532.7 L1207.34 1539.94 Q1208.27 1537.11 1210.23 1534.92 Q1212.23 1532.7 1215.45 1532.7 Q1217.58 1532.7 1218.93 1533.89 Q1220.31 1535.08 1220.31 1536.72 Q1220.31 1538.17 1219.41 1538.91 Q1218.54 1539.62 1217.48 1539.62 Q1216.29 1539.62 1215.45 1538.88 Q1214.65 1538.11 1214.65 1536.79 Q1214.65 1535.98 1215 1535.37 Q1215.39 1534.73 1215.68 1534.5 Q1215.97 1534.28 1216.16 1534.21 Q1216.03 1534.15 1215.45 1534.15 Q1211.81 1534.15 1209.72 1537.79 Q1207.66 1541.39 1207.66 1546.55 L1207.66 1556.69 Q1207.66 1558.59 1208.43 1559.2 Q1209.24 1559.82 1212.68 1559.82 L1214.07 1559.82 L1214.07 1561.84 Q1211.43 1561.65 1205.69 1561.65 Q1204.89 1561.65 1203.63 1561.68 Q1202.38 1561.72 1200.73 1561.78 Q1199.09 1561.84 1198.16 1561.84 Z" fill="#000000" fill-rule="nonzero" fill-opacity="1" /><path clip-path="url(#clip520)" d="M1225.72 1555.56 Q1225.72 1549.96 1232.32 1547 Q1236.28 1545.1 1244.46 1544.61 L1244.46 1542.2 Q1244.46 1538.11 1242.3 1535.95 Q1240.18 1533.76 1237.47 1533.76 Q1232.64 1533.76 1230.32 1536.79 Q1232.29 1536.85 1233 1537.85 Q1233.71 1538.82 1233.71 1539.82 Q1233.71 1541.14 1232.87 1542.01 Q1232.06 1542.84 1230.68 1542.84 Q1229.36 1542.84 1228.49 1542.04 Q1227.62 1541.2 1227.62 1539.75 Q1227.62 1536.53 1230.52 1534.4 Q1233.45 1532.28 1237.6 1532.28 Q1243.01 1532.28 1246.62 1535.92 Q1247.75 1537.05 1248.29 1538.5 Q1248.87 1539.94 1248.94 1540.91 Q1249 1541.84 1249 1543.71 L1249 1556.88 Q1249 1557.27 1249.13 1557.92 Q1249.26 1558.56 1249.84 1559.4 Q1250.45 1560.2 1251.45 1560.2 Q1253.83 1560.2 1253.8 1555.98 L1253.8 1552.28 L1255.48 1552.28 L1255.48 1555.98 Q1255.48 1559.49 1253.61 1560.88 Q1251.77 1562.23 1250.07 1562.23 Q1247.88 1562.23 1246.49 1560.62 Q1245.11 1559.01 1244.91 1556.82 Q1243.91 1559.33 1241.63 1560.97 Q1239.37 1562.59 1236.28 1562.59 Q1233.9 1562.59 1231.64 1561.97 Q1229.42 1561.39 1227.55 1559.75 Q1225.72 1558.08 1225.72 1555.56 M1230.81 1555.5 Q1230.81 1557.95 1232.55 1559.53 Q1234.29 1561.1 1236.73 1561.1 Q1239.5 1561.1 1241.98 1558.98 Q1244.46 1556.82 1244.46 1552.6 L1244.46 1546 Q1237.15 1546.26 1233.96 1549.19 Q1230.81 1552.09 1230.81 1555.5 Z" fill="#000000" fill-rule="nonzero" fill-opacity="1" /><path clip-path="url(#clip520)" d="M1262.57 1558.24 Q1258.38 1553.86 1258.38 1547.61 Q1258.38 1541.33 1262.5 1536.82 Q1266.63 1532.28 1272.68 1532.28 Q1276.71 1532.28 1279.73 1534.21 Q1282.76 1536.11 1282.76 1539.36 Q1282.76 1540.81 1281.89 1541.65 Q1281.06 1542.46 1279.73 1542.46 Q1278.35 1542.46 1277.51 1541.62 Q1276.71 1540.75 1276.71 1539.43 Q1276.71 1538.85 1276.9 1538.27 Q1277.09 1537.69 1277.8 1537.08 Q1278.54 1536.47 1279.8 1536.37 Q1277.45 1533.95 1272.88 1533.95 Q1272.81 1533.95 1272.75 1533.95 Q1269.4 1533.95 1266.63 1537.11 Q1263.86 1540.27 1263.86 1547.48 Q1263.86 1551.25 1264.76 1554.02 Q1265.69 1556.76 1267.21 1558.17 Q1268.72 1559.59 1270.2 1560.27 Q1271.68 1560.91 1273.13 1560.91 Q1279.61 1560.91 1281.8 1553.99 Q1281.99 1553.34 1282.63 1553.34 Q1283.5 1553.34 1283.5 1553.99 Q1283.5 1554.31 1283.25 1555.15 Q1282.99 1555.98 1282.18 1557.3 Q1281.38 1558.62 1280.22 1559.78 Q1279.09 1560.91 1277.06 1561.75 Q1275.07 1562.59 1272.55 1562.59 Q1266.76 1562.59 1262.57 1558.24 Z" fill="#000000" fill-rule="nonzero" fill-opacity="1" /><path clip-path="url(#clip520)" d="M1286.85 1561.84 L1286.85 1559.82 Q1290.36 1559.82 1291.17 1559.4 Q1291.97 1558.95 1291.97 1556.82 L1291.97 1522.52 Q1291.97 1520.07 1291.1 1519.46 Q1290.26 1518.85 1286.85 1518.85 L1286.85 1516.79 L1296.32 1516.08 L1296.32 1556.82 Q1296.32 1558.95 1297.16 1559.4 Q1297.99 1559.82 1301.47 1559.82 L1301.47 1561.84 Q1300.67 1561.84 1298.99 1561.78 Q1297.32 1561.72 1296.09 1561.68 Q1294.87 1561.65 1294.16 1561.65 Q1293.39 1561.65 1286.85 1561.84 Z" fill="#000000" fill-rule="nonzero" fill-opacity="1" /><path clip-path="url(#clip520)" d="M1305.73 1547.32 Q1305.73 1541.1 1309.72 1536.69 Q1313.72 1532.28 1319.45 1532.28 Q1325.25 1532.28 1328.24 1536.05 Q1331.27 1539.82 1331.27 1545.23 Q1331.27 1546.22 1331.01 1546.42 Q1330.75 1546.61 1329.63 1546.61 L1311.2 1546.61 Q1311.2 1553.34 1313.2 1556.5 Q1315.97 1560.91 1320.64 1560.91 Q1321.28 1560.91 1322.06 1560.78 Q1322.83 1560.65 1324.41 1560.11 Q1325.99 1559.53 1327.37 1558.01 Q1328.76 1556.5 1329.56 1554.11 Q1329.75 1553.18 1330.4 1553.21 Q1331.27 1553.21 1331.27 1553.99 Q1331.27 1554.57 1330.62 1555.89 Q1330.01 1557.17 1328.82 1558.72 Q1327.63 1560.27 1325.31 1561.43 Q1323.02 1562.59 1320.25 1562.59 Q1314.46 1562.59 1310.08 1558.21 Q1305.73 1553.79 1305.73 1547.32 M1311.27 1545.23 L1326.92 1545.23 Q1326.92 1543.84 1326.66 1542.3 Q1326.44 1540.75 1325.73 1538.62 Q1325.05 1536.47 1323.44 1535.11 Q1321.83 1533.76 1319.45 1533.76 Q1318.39 1533.76 1317.23 1534.21 Q1316.1 1534.66 1314.71 1535.76 Q1313.33 1536.85 1312.36 1539.33 Q1311.4 1541.81 1311.27 1545.23 Z" fill="#000000" fill-rule="nonzero" fill-opacity="1" /><path clip-path="url(#clip520)" d="M1334.72 1539.3 Q1334.72 1529.35 1341.52 1522.36 Q1348.32 1515.34 1357.65 1515.34 Q1360.55 1515.34 1363.13 1516.4 Q1365.71 1517.46 1366.9 1518.4 Q1368.09 1519.3 1369.8 1521.01 L1373.11 1516.14 Q1373.63 1515.34 1374.14 1515.34 Q1374.69 1515.34 1374.79 1515.66 Q1374.88 1515.95 1374.88 1516.92 L1374.88 1532.57 Q1374.88 1533.63 1374.76 1533.89 Q1374.63 1534.15 1373.82 1534.15 Q1373.18 1534.15 1373.02 1533.95 Q1372.89 1533.76 1372.76 1533.02 Q1371.76 1525.9 1367.8 1521.65 Q1363.87 1517.4 1358.4 1517.4 Q1356.82 1517.4 1355.05 1517.75 Q1353.31 1518.11 1350.76 1519.46 Q1348.25 1520.81 1346.29 1523.07 Q1344.35 1525.29 1342.94 1529.54 Q1341.52 1533.76 1341.52 1539.36 Q1341.52 1544.9 1342.94 1549.16 Q1344.35 1553.41 1346.29 1555.63 Q1348.25 1557.82 1350.76 1559.17 Q1353.31 1560.52 1355.08 1560.91 Q1356.88 1561.26 1358.46 1561.26 Q1364.13 1561.26 1368.48 1557.24 Q1372.82 1553.21 1373.24 1546.42 Q1373.31 1546.1 1373.31 1545.97 Q1373.31 1545.81 1373.37 1545.64 Q1373.44 1545.48 1373.6 1545.42 Q1373.76 1545.35 1374.02 1545.35 Q1374.88 1545.35 1374.88 1546.48 Q1374.88 1552.76 1370.05 1558.04 Q1365.26 1563.29 1357.65 1563.29 Q1348.28 1563.29 1341.49 1556.34 Q1334.72 1549.38 1334.72 1539.3 Z" fill="#000000" fill-rule="nonzero" fill-opacity="1" /><path clip-path="url(#clip520)" d="M1387.15 1555.56 Q1387.15 1549.96 1393.75 1547 Q1397.71 1545.1 1405.89 1544.61 L1405.89 1542.2 Q1405.89 1538.11 1403.74 1535.95 Q1401.61 1533.76 1398.91 1533.76 Q1394.07 1533.76 1391.76 1536.79 Q1393.72 1536.85 1394.43 1537.85 Q1395.14 1538.82 1395.14 1539.82 Q1395.14 1541.14 1394.3 1542.01 Q1393.49 1542.84 1392.11 1542.84 Q1390.79 1542.84 1389.92 1542.04 Q1389.05 1541.2 1389.05 1539.75 Q1389.05 1536.53 1391.95 1534.4 Q1394.88 1532.28 1399.03 1532.28 Q1404.44 1532.28 1408.05 1535.92 Q1409.18 1537.05 1409.73 1538.5 Q1410.31 1539.94 1410.37 1540.91 Q1410.44 1541.84 1410.44 1543.71 L1410.44 1556.88 Q1410.44 1557.27 1410.56 1557.92 Q1410.69 1558.56 1411.27 1559.4 Q1411.88 1560.2 1412.88 1560.2 Q1415.27 1560.2 1415.23 1555.98 L1415.23 1552.28 L1416.91 1552.28 L1416.91 1555.98 Q1416.91 1559.49 1415.04 1560.88 Q1413.2 1562.23 1411.5 1562.23 Q1409.31 1562.23 1407.92 1560.62 Q1406.54 1559.01 1406.34 1556.82 Q1405.35 1559.33 1403.06 1560.97 Q1400.81 1562.59 1397.71 1562.59 Q1395.33 1562.59 1393.08 1561.97 Q1390.85 1561.39 1388.99 1559.75 Q1387.15 1558.08 1387.15 1555.56 M1392.24 1555.5 Q1392.24 1557.95 1393.98 1559.53 Q1395.72 1561.1 1398.16 1561.1 Q1400.93 1561.1 1403.41 1558.98 Q1405.89 1556.82 1405.89 1552.6 L1405.89 1546 Q1398.58 1546.26 1395.39 1549.19 Q1392.24 1552.09 1392.24 1555.5 Z" fill="#000000" fill-rule="nonzero" fill-opacity="1" /><path clip-path="url(#clip520)" d="M1419.55 1561.84 L1419.55 1559.82 Q1423.06 1559.82 1423.87 1559.4 Q1424.67 1558.95 1424.67 1556.82 L1424.67 1522.52 Q1424.67 1520.07 1423.8 1519.46 Q1422.96 1518.85 1419.55 1518.85 L1419.55 1516.79 L1429.02 1516.08 L1429.02 1556.82 Q1429.02 1558.95 1429.86 1559.4 Q1430.69 1559.82 1434.17 1559.82 L1434.17 1561.84 Q1433.37 1561.84 1431.69 1561.78 Q1430.02 1561.72 1428.79 1561.68 Q1427.57 1561.65 1426.86 1561.65 Q1426.09 1561.65 1419.55 1561.84 Z" fill="#000000" fill-rule="nonzero" fill-opacity="1" /><path clip-path="url(#clip520)" d="M1438.43 1561.84 L1438.43 1559.82 Q1441.94 1559.82 1442.74 1559.4 Q1443.55 1558.95 1443.55 1556.82 L1443.55 1522.52 Q1443.55 1520.07 1442.68 1519.46 Q1441.84 1518.85 1438.43 1518.85 L1438.43 1516.79 L1447.9 1516.08 L1447.9 1556.82 Q1447.9 1558.95 1448.73 1559.4 Q1449.57 1559.82 1453.05 1559.82 L1453.05 1561.84 Q1452.25 1561.84 1450.57 1561.78 Q1448.9 1561.72 1447.67 1561.68 Q1446.45 1561.65 1445.74 1561.65 Q1444.97 1561.65 1438.43 1561.84 Z" fill="#000000" fill-rule="nonzero" fill-opacity="1" /><path clip-path="url(#clip520)" d="M1457.31 1560.97 L1457.31 1552.28 Q1457.31 1551.54 1457.34 1551.28 Q1457.37 1551.02 1457.56 1550.83 Q1457.76 1550.64 1458.14 1550.64 Q1458.6 1550.64 1458.76 1550.83 Q1458.95 1551.02 1459.08 1551.76 Q1460.08 1556.3 1462.2 1558.72 Q1464.36 1561.1 1468.26 1561.1 Q1471.96 1561.1 1473.83 1559.46 Q1475.7 1557.82 1475.7 1555.11 Q1475.7 1550.28 1468.84 1549.06 Q1464.88 1548.25 1463.23 1547.74 Q1461.59 1547.19 1460.14 1546 Q1457.31 1543.68 1457.31 1540.4 Q1457.31 1537.11 1459.79 1534.69 Q1462.3 1532.28 1467.84 1532.28 Q1471.54 1532.28 1474.05 1534.15 Q1474.79 1533.57 1475.18 1533.08 Q1476.05 1532.28 1476.5 1532.28 Q1477.02 1532.28 1477.11 1532.63 Q1477.21 1532.96 1477.21 1533.89 L1477.21 1540.52 Q1477.21 1541.26 1477.18 1541.52 Q1477.15 1541.78 1476.95 1541.97 Q1476.76 1542.13 1476.34 1542.13 Q1475.6 1542.13 1475.57 1541.52 Q1475.05 1533.54 1467.84 1533.54 Q1463.94 1533.54 1462.2 1535.05 Q1460.46 1536.53 1460.46 1538.56 Q1460.46 1539.69 1460.98 1540.56 Q1461.53 1541.39 1462.2 1541.91 Q1462.91 1542.39 1464.2 1542.88 Q1465.49 1543.33 1466.26 1543.49 Q1467.07 1543.65 1468.58 1543.97 Q1473.86 1544.97 1476.08 1547.13 Q1478.85 1549.9 1478.85 1553.41 Q1478.85 1557.3 1476.21 1559.94 Q1473.57 1562.59 1468.26 1562.59 Q1463.97 1562.59 1460.98 1559.72 Q1460.59 1560.11 1460.3 1560.46 Q1460.01 1560.78 1459.88 1560.91 Q1459.79 1561.04 1459.75 1561.14 Q1459.72 1561.2 1459.66 1561.26 Q1458.34 1562.59 1458.02 1562.59 Q1457.5 1562.59 1457.4 1562.23 Q1457.31 1561.91 1457.31 1560.97 Z" fill="#000000" fill-rule="nonzero" fill-opacity="1" /><polyline clip-path="url(#clip520)" style="stroke:#000000; stroke-linecap:round; stroke-linejoin:round; stroke-width:4; stroke-opacity:1; fill:none" points="276.876,1423.18 276.876,47.2441 "/>
<polyline clip-path="url(#clip520)" style="stroke:#000000; stroke-linecap:round; stroke-linejoin:round; stroke-width:4; stroke-opacity:1; fill:none" points="276.876,1184.86 295.773,1184.86 "/>
<polyline clip-path="url(#clip520)" style="stroke:#000000; stroke-linecap:round; stroke-linejoin:round; stroke-width:4; stroke-opacity:1; fill:none" points="276.876,589.074 295.773,589.074 "/>
<path clip-path="url(#clip520)" d="M114.931 1204.66 L122.57 1204.66 L122.57 1178.29 L114.26 1179.96 L114.26 1175.7 L122.524 1174.03 L127.2 1174.03 L127.2 1204.66 L134.839 1204.66 L134.839 1208.59 L114.931 1208.59 L114.931 1204.66 Z" fill="#000000" fill-rule="nonzero" fill-opacity="1" /><path clip-path="url(#clip520)" d="M154.283 1177.11 Q150.672 1177.11 148.843 1180.68 Q147.038 1184.22 147.038 1191.35 Q147.038 1198.45 148.843 1202.02 Q150.672 1205.56 154.283 1205.56 Q157.917 1205.56 159.723 1202.02 Q161.552 1198.45 161.552 1191.35 Q161.552 1184.22 159.723 1180.68 Q157.917 1177.11 154.283 1177.11 M154.283 1173.41 Q160.093 1173.41 163.149 1178.01 Q166.227 1182.6 166.227 1191.35 Q166.227 1200.07 163.149 1204.68 Q160.093 1209.26 154.283 1209.26 Q148.473 1209.26 145.394 1204.68 Q142.339 1200.07 142.339 1191.35 Q142.339 1182.6 145.394 1178.01 Q148.473 1173.41 154.283 1173.41 Z" fill="#000000" fill-rule="nonzero" fill-opacity="1" /><path clip-path="url(#clip520)" d="M166.227 1167.51 L190.339 1167.51 L190.339 1170.71 L166.227 1170.71 L166.227 1167.51 Z" fill="#000000" fill-rule="nonzero" fill-opacity="1" /><path clip-path="url(#clip520)" d="M199.197 1177.98 L205.404 1177.98 L205.404 1156.56 L198.652 1157.92 L198.652 1154.46 L205.366 1153.1 L209.166 1153.1 L209.166 1177.98 L215.372 1177.98 L215.372 1181.18 L199.197 1181.18 L199.197 1177.98 Z" fill="#000000" fill-rule="nonzero" fill-opacity="1" /><path clip-path="url(#clip520)" d="M231.171 1155.6 Q228.237 1155.6 226.751 1158.5 Q225.284 1161.38 225.284 1167.17 Q225.284 1172.94 226.751 1175.84 Q228.237 1178.72 231.171 1178.72 Q234.124 1178.72 235.591 1175.84 Q237.076 1172.94 237.076 1167.17 Q237.076 1161.38 235.591 1158.5 Q234.124 1155.6 231.171 1155.6 M231.171 1152.59 Q235.891 1152.59 238.374 1156.34 Q240.876 1160.06 240.876 1167.17 Q240.876 1174.26 238.374 1178 Q235.891 1181.73 231.171 1181.73 Q226.45 1181.73 223.949 1178 Q221.466 1174.26 221.466 1167.17 Q221.466 1160.06 223.949 1156.34 Q226.45 1152.59 231.171 1152.59 Z" fill="#000000" fill-rule="nonzero" fill-opacity="1" /><path clip-path="url(#clip520)" d="M140.247 608.867 L147.886 608.867 L147.886 582.501 L139.575 584.168 L139.575 579.908 L147.839 578.242 L152.515 578.242 L152.515 608.867 L160.154 608.867 L160.154 612.802 L140.247 612.802 L140.247 608.867 Z" fill="#000000" fill-rule="nonzero" fill-opacity="1" /><path clip-path="url(#clip520)" d="M179.598 581.321 Q175.987 581.321 174.159 584.885 Q172.353 588.427 172.353 595.557 Q172.353 602.663 174.159 606.228 Q175.987 609.769 179.598 609.769 Q183.233 609.769 185.038 606.228 Q186.867 602.663 186.867 595.557 Q186.867 588.427 185.038 584.885 Q183.233 581.321 179.598 581.321 M179.598 577.617 Q185.409 577.617 188.464 582.223 Q191.543 586.807 191.543 595.557 Q191.543 604.283 188.464 608.89 Q185.409 613.473 179.598 613.473 Q173.788 613.473 170.71 608.89 Q167.654 604.283 167.654 595.557 Q167.654 586.807 170.71 582.223 Q173.788 577.617 179.598 577.617 Z" fill="#000000" fill-rule="nonzero" fill-opacity="1" /><path clip-path="url(#clip520)" d="M191.543 571.718 L215.654 571.718 L215.654 574.916 L191.543 574.916 L191.543 571.718 Z" fill="#000000" fill-rule="nonzero" fill-opacity="1" /><path clip-path="url(#clip520)" d="M223.892 557.311 L238.807 557.311 L238.807 560.509 L227.372 560.509 L227.372 567.392 Q228.199 567.11 229.027 566.979 Q229.854 566.828 230.682 566.828 Q235.384 566.828 238.13 569.405 Q240.876 571.981 240.876 576.383 Q240.876 580.915 238.054 583.435 Q235.233 585.937 230.099 585.937 Q228.331 585.937 226.488 585.636 Q224.663 585.335 222.707 584.733 L222.707 580.915 Q224.4 581.837 226.205 582.288 Q228.011 582.74 230.023 582.74 Q233.277 582.74 235.177 581.028 Q237.076 579.317 237.076 576.383 Q237.076 573.449 235.177 571.737 Q233.277 570.025 230.023 570.025 Q228.5 570.025 226.977 570.364 Q225.472 570.703 223.892 571.417 L223.892 557.311 Z" fill="#000000" fill-rule="nonzero" fill-opacity="1" /><path clip-path="url(#clip520)" d="M66.0841 1072.66 L64.0551 1072.66 Q64.0551 1070.27 63.6042 1068.76 Q63.1212 1067.25 62.2516 1066.7 Q61.3498 1066.12 60.7701 1065.99 Q60.1582 1065.86 59.1598 1065.86 L26.181 1065.86 Q24.2809 1065.86 23.7012 1066.7 Q23.0893 1067.5 23.0893 1071.08 L23.0893 1072.66 L21.0281 1072.66 L21.0281 1061.51 Q21.0281 1060.32 21.2535 1060 Q21.4468 1059.68 22.4774 1059.19 L59.4175 1044.9 L22.2841 1030.47 Q21.3502 1030.14 21.1891 1029.85 Q21.0281 1029.53 21.0281 1028.28 L21.0281 1017.13 L23.0893 1017.13 L23.0893 1018.71 Q23.0893 1022.29 23.7012 1023.12 Q24.2809 1023.93 26.181 1023.93 L60.9312 1023.93 Q62.8313 1023.93 63.4432 1023.12 Q64.0551 1022.29 64.0551 1018.71 L64.0551 1017.13 L66.0841 1017.13 Q65.8909 1019.58 65.8909 1026.57 Q65.8909 1033.62 66.0841 1036.07 L64.0551 1036.07 L64.0551 1034.46 Q64.0551 1030.89 63.4754 1030.08 Q62.8635 1029.28 60.9312 1029.28 L23.0893 1029.28 L23.0893 1029.34 L64.8281 1045.54 Q66.0841 1045.99 66.0841 1046.73 Q66.0841 1047.54 64.6348 1048.05 L23.6046 1063.96 L23.6046 1064.03 L59.1598 1064.03 Q60.1582 1064.03 60.7701 1063.9 Q61.3498 1063.77 62.2516 1063.22 Q63.1212 1062.64 63.6042 1061.13 Q64.0551 1059.61 64.0551 1057.23 L66.0841 1057.23 Q65.8909 1064.15 65.8909 1064.96 Q65.8909 1065.73 66.0841 1072.66 Z" fill="#000000" fill-rule="nonzero" fill-opacity="1" /><path clip-path="url(#clip520)" d="M66.0841 1006.77 L64.0551 1006.77 Q64.0551 1003.26 63.6364 1002.46 Q63.1856 1001.65 61.06 1001.65 L43.3146 1001.65 Q40.8669 1001.65 40.2872 1002.49 Q39.7075 1003.3 39.7075 1006.52 L37.6463 1006.52 L36.9378 997.306 L61.1244 997.306 Q63.0889 997.306 63.572 996.598 Q64.0551 995.889 64.0551 992.669 L66.0841 992.669 Q65.8909 999.4 65.8909 999.528 Q65.8909 1000.43 66.0841 1006.77 M25.4403 1004.01 Q24.1199 1004.01 23.0571 1003.01 Q21.9621 1001.98 21.9621 1000.53 Q21.9621 999.078 22.9604 998.047 Q23.9266 997.016 25.4725 997.016 Q26.9862 997.016 27.9846 998.047 Q28.9507 999.078 28.9507 1000.53 Q28.9507 1002.04 27.8879 1003.04 Q26.8252 1004.01 25.4403 1004.01 Z" fill="#000000" fill-rule="nonzero" fill-opacity="1" /><path clip-path="url(#clip520)" d="M66.0841 988.16 L64.0551 988.16 Q64.0551 984.65 63.6364 983.845 Q63.1856 983.04 61.06 983.04 L43.379 983.04 Q40.9313 983.04 40.3194 983.909 Q39.7075 984.747 39.7075 988.16 L37.6463 988.16 L36.9378 978.885 L43.8621 978.885 Q36.9378 975.793 36.9378 969.127 Q36.9378 964.167 39.3854 962.202 Q41.0279 960.753 42.8637 960.463 Q44.6994 960.141 49.4659 960.141 L62.0584 960.141 Q63.4432 960.077 63.7653 959.014 Q64.0551 957.951 64.0551 954.988 L66.0841 954.988 Q65.8909 961.719 65.8909 962.396 Q65.8909 962.911 66.0841 969.835 L64.0551 969.835 Q64.0551 966.325 63.6364 965.52 Q63.1856 964.682 61.06 964.682 L45.6978 964.682 Q42.3484 964.682 40.3838 965.713 Q38.3871 966.743 38.3871 969.578 Q38.3871 972.991 41.2534 975.729 Q44.1197 978.466 48.9506 978.466 L61.06 978.466 Q63.1856 978.466 63.6364 977.661 Q64.0551 976.824 64.0551 973.346 L66.0841 973.346 Q65.8909 980.077 65.8909 980.721 Q65.8909 981.236 66.0841 988.16 Z" fill="#000000" fill-rule="nonzero" fill-opacity="1" /><path clip-path="url(#clip520)" d="M66.0841 951.66 L64.0551 951.66 Q64.0551 948.149 63.6364 947.344 Q63.1856 946.539 61.06 946.539 L43.3146 946.539 Q40.8669 946.539 40.2872 947.376 Q39.7075 948.181 39.7075 951.402 L37.6463 951.402 L36.9378 942.191 L61.1244 942.191 Q63.0889 942.191 63.572 941.483 Q64.0551 940.774 64.0551 937.553 L66.0841 937.553 Q65.8909 944.285 65.8909 944.413 Q65.8909 945.315 66.0841 951.66 M25.4403 948.89 Q24.1199 948.89 23.0571 947.892 Q21.9621 946.861 21.9621 945.412 Q21.9621 943.962 22.9604 942.932 Q23.9266 941.901 25.4725 941.901 Q26.9862 941.901 27.9846 942.932 Q28.9507 943.962 28.9507 945.412 Q28.9507 946.925 27.8879 947.924 Q26.8252 948.89 25.4403 948.89 Z" fill="#000000" fill-rule="nonzero" fill-opacity="1" /><path clip-path="url(#clip520)" d="M66.0841 933.045 L64.0551 933.045 Q64.0551 929.535 63.6364 928.73 Q63.1856 927.924 61.06 927.924 L43.379 927.924 Q40.9313 927.924 40.3194 928.794 Q39.7075 929.631 39.7075 933.045 L37.6463 933.045 L36.9378 923.77 L43.8621 923.77 Q36.9378 920.678 36.9378 914.012 Q36.9378 906.282 43.379 905.219 Q40.8669 904.092 38.9023 901.741 Q36.9378 899.358 36.9378 895.654 Q36.9378 890.695 39.3854 888.73 Q41.0279 887.281 42.8637 886.991 Q44.6994 886.701 49.4659 886.701 L62.0584 886.701 Q63.4432 886.637 63.7653 885.574 Q64.0551 884.511 64.0551 881.548 L66.0841 881.548 Q65.8909 888.279 65.8909 888.923 Q65.8909 889.438 66.0841 896.395 L64.0551 896.395 Q64.0551 892.885 63.6364 892.079 Q63.1856 891.242 61.06 891.242 L45.6978 891.242 Q42.3484 891.242 40.3838 892.273 Q38.3871 893.303 38.3871 896.137 Q38.3871 899.551 41.2534 902.289 Q44.1197 905.026 48.9506 905.026 L61.06 905.026 Q63.1856 905.026 63.6364 904.221 Q64.0551 903.384 64.0551 899.873 L66.0841 899.873 Q65.8909 906.604 65.8909 907.281 Q65.8909 907.796 66.0841 914.72 L64.0551 914.72 Q64.0551 911.21 63.6364 910.405 Q63.1856 909.567 61.06 909.567 L45.6978 909.567 Q42.3484 909.567 40.3838 910.598 Q38.3871 911.628 38.3871 914.462 Q38.3871 917.876 41.2534 920.614 Q44.1197 923.351 48.9506 923.351 L61.06 923.351 Q63.1856 923.351 63.6364 922.546 Q64.0551 921.709 64.0551 918.231 L66.0841 918.231 Q65.8909 924.962 65.8909 925.606 Q65.8909 926.121 66.0841 933.045 Z" fill="#000000" fill-rule="nonzero" fill-opacity="1" /><path clip-path="url(#clip520)" d="M39.7075 878.922 L37.6463 878.922 L36.9378 869.228 L58.8378 869.228 Q60.4159 869.228 61.3498 869.1 Q62.2516 868.971 63.3144 868.455 Q64.3772 867.908 64.8603 866.684 Q65.3434 865.428 65.3434 863.431 Q65.3434 859.856 62.4126 857.666 Q59.4819 855.444 55.1341 855.444 L43.379 855.444 Q40.9313 855.444 40.3194 856.314 Q39.7075 857.183 39.7075 860.597 L37.6463 860.597 L36.9378 850.903 L60.3515 850.903 Q62.7991 850.903 63.4432 850.066 Q64.0551 849.196 64.0551 845.75 L66.0841 845.75 L66.8248 855.251 L60.8667 855.251 Q66.7926 858.021 66.8248 863.753 Q66.8248 866.652 66.0841 868.649 Q65.3434 870.613 64.4416 871.612 Q63.5076 872.61 61.7363 873.157 Q59.965 873.673 58.87 873.737 Q57.775 873.802 55.6494 873.802 L45.7622 873.802 Q41.2856 873.802 40.5126 874.446 Q39.7075 875.09 39.7075 878.922 Z" fill="#000000" fill-rule="nonzero" fill-opacity="1" /><path clip-path="url(#clip520)" d="M66.0841 843.478 L64.0551 843.478 Q64.0551 839.967 63.6364 839.162 Q63.1856 838.357 61.06 838.357 L43.379 838.357 Q40.9313 838.357 40.3194 839.226 Q39.7075 840.064 39.7075 843.478 L37.6463 843.478 L36.9378 834.202 L43.8621 834.202 Q36.9378 831.111 36.9378 824.444 Q36.9378 816.715 43.379 815.652 Q40.8669 814.525 38.9023 812.173 Q36.9378 809.79 36.9378 806.087 Q36.9378 801.127 39.3854 799.162 Q41.0279 797.713 42.8637 797.423 Q44.6994 797.133 49.4659 797.133 L62.0584 797.133 Q63.4432 797.069 63.7653 796.006 Q64.0551 794.943 64.0551 791.98 L66.0841 791.98 Q65.8909 798.711 65.8909 799.356 Q65.8909 799.871 66.0841 806.827 L64.0551 806.827 Q64.0551 803.317 63.6364 802.512 Q63.1856 801.674 61.06 801.674 L45.6978 801.674 Q42.3484 801.674 40.3838 802.705 Q38.3871 803.736 38.3871 806.57 Q38.3871 809.984 41.2534 812.721 Q44.1197 815.458 48.9506 815.458 L61.06 815.458 Q63.1856 815.458 63.6364 814.653 Q64.0551 813.816 64.0551 810.306 L66.0841 810.306 Q65.8909 817.037 65.8909 817.713 Q65.8909 818.228 66.0841 825.152 L64.0551 825.152 Q64.0551 821.642 63.6364 820.837 Q63.1856 820 61.06 820 L45.6978 820 Q42.3484 820 40.3838 821.03 Q38.3871 822.061 38.3871 824.895 Q38.3871 828.309 41.2534 831.046 Q44.1197 833.784 48.9506 833.784 L61.06 833.784 Q63.1856 833.784 63.6364 832.978 Q64.0551 832.141 64.0551 828.663 L66.0841 828.663 Q65.8909 835.394 65.8909 836.038 Q65.8909 836.553 66.0841 843.478 Z" fill="#000000" fill-rule="nonzero" fill-opacity="1" /><path clip-path="url(#clip520)" d="M43.7332 788.035 Q33.6528 788.035 26.6319 781.593 Q19.5788 775.12 19.5788 766.135 Q19.5788 757.085 26.6319 750.644 Q33.685 744.17 43.7332 744.17 Q53.6848 744.17 60.6091 750.644 Q67.5334 757.117 67.5334 766.135 Q67.5334 775.023 60.6413 781.529 Q53.7493 788.035 43.7332 788.035 M42.7993 781.239 Q48.9184 781.239 53.6204 779.79 Q58.2903 778.341 60.8345 776.022 Q63.3788 773.671 64.6026 771.159 Q65.8264 768.647 65.8264 766.07 Q65.8264 763.558 64.6348 761.111 Q63.4432 758.631 60.9312 756.28 Q58.4191 753.929 53.717 752.447 Q49.015 750.966 42.7993 750.966 Q37.9684 750.966 34.1037 751.996 Q30.2068 753.027 27.8557 754.637 Q25.5047 756.247 23.9588 758.341 Q22.4129 760.402 21.8332 762.367 Q21.2213 764.299 21.2213 766.135 Q21.2213 768.453 22.2519 770.869 Q23.2825 773.284 25.5691 775.732 Q27.8235 778.147 32.3001 779.693 Q36.7446 781.239 42.7993 781.239 Z" fill="#000000" fill-rule="nonzero" fill-opacity="1" /><path clip-path="url(#clip520)" d="M23.0893 736.492 L21.0281 736.492 L20.3196 726.991 L41.2212 726.991 Q36.9378 723.159 36.9378 717.942 Q36.9378 712.273 41.2856 708.119 Q45.6334 703.964 51.8491 703.964 Q58.1292 703.964 62.477 708.312 Q66.8248 712.66 66.8248 718.682 Q66.8248 724.157 61.994 727.313 Q66.0197 729.632 66.0841 729.697 L66.0841 731.339 L26.7607 731.339 Q24.3131 731.339 23.7012 732.209 Q23.0893 733.078 23.0893 736.492 M58.5801 726.798 Q59.965 726.798 61.3498 725.864 Q65.3434 723.256 65.3434 719.004 Q65.3434 718.972 65.3434 718.94 Q65.3434 714.335 61.1244 711.468 Q57.9682 709.439 51.7847 709.439 Q45.6656 709.439 42.606 711.339 Q38.3871 713.98 38.3871 718.264 Q38.3871 723.095 42.606 726.057 Q43.6688 726.798 44.9893 726.798 L58.5801 726.798 Z" fill="#000000" fill-rule="nonzero" fill-opacity="1" /><path clip-path="url(#clip520)" d="M74.3288 704.215 Q73.0084 704.215 72.1388 703.378 Q71.3014 702.573 71.3014 701.188 Q71.3014 699.803 72.1388 698.998 Q73.0084 698.161 74.3288 698.161 Q75.5204 698.161 76.2611 698.869 Q77.0341 699.546 77.2917 700.447 Q78.1613 698.74 78.1613 696.905 Q78.1613 695.391 77.2595 694.36 Q76.3578 693.33 74.8763 692.879 Q73.3948 692.396 72.1388 692.235 Q70.915 692.074 69.4979 692.074 L43.379 692.074 Q40.9313 692.074 40.3194 693.04 Q39.7075 693.974 39.7075 697.742 L37.6463 697.742 L36.9378 687.726 L69.3691 687.726 Q73.7813 687.726 76.6798 690.367 Q79.6106 693.008 79.6106 696.744 Q79.6106 699.771 78.1935 701.993 Q76.7764 704.215 74.3288 704.215 M27.9524 693.684 Q26.9218 694.715 25.4725 694.715 Q24.0232 694.715 22.9927 693.684 Q21.9621 692.654 21.9621 691.204 Q21.9621 689.755 22.9927 688.724 Q24.0232 687.694 25.4725 687.694 Q26.9218 687.694 27.9524 688.724 Q28.9507 689.755 28.9507 691.204 Q28.9507 692.654 27.9524 693.684 Z" fill="#000000" fill-rule="nonzero" fill-opacity="1" /><path clip-path="url(#clip520)" d="M51.5593 676.919 Q45.3435 676.919 40.9313 672.925 Q36.5191 668.932 36.5191 663.199 Q36.5191 657.402 40.2872 654.407 Q44.0553 651.38 49.4659 651.38 Q50.4643 651.38 50.6575 651.637 Q50.8507 651.895 50.8507 653.022 L50.8507 671.444 Q57.5817 671.444 60.7379 669.447 Q65.1501 666.677 65.1501 662.007 Q65.1501 661.363 65.0213 660.59 Q64.8925 659.817 64.345 658.239 Q63.7653 656.661 62.2516 655.276 Q60.7379 653.892 58.3547 653.086 Q57.4207 652.893 57.4529 652.249 Q57.4529 651.38 58.2259 651.38 Q58.8056 651.38 60.126 652.024 Q61.4142 652.636 62.9601 653.827 Q64.506 655.019 65.6654 657.338 Q66.8248 659.624 66.8248 662.394 Q66.8248 668.191 62.4448 672.571 Q58.0326 676.919 51.5593 676.919 M49.4659 671.379 L49.4659 655.727 Q48.081 655.727 46.5351 655.985 Q44.9893 656.21 42.8637 656.919 Q40.7059 657.595 39.3532 659.206 Q38.0006 660.816 38.0006 663.199 Q38.0006 664.262 38.4515 665.421 Q38.9023 666.549 39.9973 667.933 Q41.0923 669.318 43.5722 670.284 Q46.052 671.251 49.4659 671.379 Z" fill="#000000" fill-rule="nonzero" fill-opacity="1" /><path clip-path="url(#clip520)" d="M62.477 643.736 Q58.097 647.923 51.8491 647.923 Q45.569 647.923 41.0601 643.801 Q36.5191 639.678 36.5191 633.624 Q36.5191 629.598 38.4515 626.571 Q40.3516 623.543 43.6044 623.543 Q45.0537 623.543 45.891 624.413 Q46.6962 625.25 46.6962 626.571 Q46.6962 627.955 45.8588 628.793 Q44.9893 629.598 43.6688 629.598 Q43.0891 629.598 42.5094 629.405 Q41.9297 629.211 41.3178 628.503 Q40.7059 627.762 40.6093 626.506 Q38.1938 628.857 38.1938 633.43 Q38.1938 633.495 38.1938 633.559 Q38.1938 636.909 41.35 639.678 Q44.5062 642.448 51.7203 642.448 Q55.4884 642.448 58.2581 641.546 Q60.9956 640.612 62.4126 639.099 Q63.8297 637.585 64.506 636.104 Q65.1501 634.622 65.1501 633.173 Q65.1501 626.699 58.2259 624.509 Q57.5817 624.316 57.5817 623.672 Q57.5817 622.803 58.2259 622.803 Q58.5479 622.803 59.3853 623.06 Q60.2226 623.318 61.5431 624.123 Q62.8635 624.928 64.0229 626.088 Q65.1501 627.215 65.9875 629.244 Q66.8248 631.24 66.8248 633.752 Q66.8248 639.55 62.477 643.736 Z" fill="#000000" fill-rule="nonzero" fill-opacity="1" /><path clip-path="url(#clip520)" d="M39.7075 620.511 L38.2582 620.511 Q38.1294 617.484 36.0038 615.487 Q33.846 613.458 31.2051 612.782 Q28.5643 612.073 25.5047 612.009 L25.5047 610.367 L37.6463 610.367 L37.6463 600.93 L39.7075 600.93 L39.7075 610.367 L58.0326 610.367 Q65.1501 610.367 65.1501 605.922 Q65.1501 604.022 63.2178 602.766 Q61.2532 601.51 57.775 601.51 L54.1357 601.51 L54.1357 599.867 L57.9038 599.867 Q61.4787 599.867 64.1517 601.51 Q66.8248 603.152 66.8248 606.405 Q66.8248 607.597 66.5028 608.788 Q66.2129 609.948 65.44 611.494 Q64.6348 613.007 62.7025 613.974 Q60.7379 614.908 57.9038 614.908 L39.7075 614.908 L39.7075 620.511 Z" fill="#000000" fill-rule="nonzero" fill-opacity="1" /><path clip-path="url(#clip520)" d="M66.0841 595.976 L64.0551 595.976 Q64.0551 592.466 63.6364 591.66 Q63.1856 590.855 61.06 590.855 L43.3146 590.855 Q40.8669 590.855 40.2872 591.693 Q39.7075 592.498 39.7075 595.718 L37.6463 595.718 L36.9378 586.507 L61.1244 586.507 Q63.0889 586.507 63.572 585.799 Q64.0551 585.09 64.0551 581.87 L66.0841 581.87 Q65.8909 588.601 65.8909 588.73 Q65.8909 589.631 66.0841 595.976 M25.4403 593.206 Q24.1199 593.206 23.0571 592.208 Q21.9621 591.177 21.9621 589.728 Q21.9621 588.279 22.9604 587.248 Q23.9266 586.218 25.4725 586.218 Q26.9862 586.218 27.9846 587.248 Q28.9507 588.279 28.9507 589.728 Q28.9507 591.242 27.8879 592.24 Q26.8252 593.206 25.4403 593.206 Z" fill="#000000" fill-rule="nonzero" fill-opacity="1" /><path clip-path="url(#clip520)" d="M39.7075 577.361 L37.6463 577.361 Q37.8396 574.399 37.8396 570.953 Q37.8396 569.697 37.6463 563.771 L39.7075 563.771 Q39.7075 567.539 41.4144 567.539 Q41.6721 567.539 42.5416 567.152 L60.9312 559.745 L44.1197 553.014 Q42.9925 552.627 42.5416 552.627 Q41.4144 552.627 40.6093 553.4 Q39.7719 554.141 39.7075 555.784 L37.6463 555.784 Q37.8396 552.434 37.8396 550.051 Q37.8396 547.346 37.6463 545.123 L39.7075 545.123 Q39.7075 547.088 40.6093 548.473 Q41.4788 549.858 42.2518 550.309 Q42.9925 550.727 44.1197 551.178 L65.5688 559.809 Q66.8248 560.325 66.8248 561.194 Q66.8248 561.774 66.5672 562.032 Q66.3417 562.257 65.5688 562.579 L42.1551 572.08 Q40.5126 572.724 40.1262 573.561 Q39.7075 574.399 39.7075 577.361 Z" fill="#000000" fill-rule="nonzero" fill-opacity="1" /><path clip-path="url(#clip520)" d="M51.5593 541.053 Q45.3435 541.053 40.9313 537.059 Q36.5191 533.066 36.5191 527.333 Q36.5191 521.536 40.2872 518.541 Q44.0553 515.514 49.4659 515.514 Q50.4643 515.514 50.6575 515.771 Q50.8507 516.029 50.8507 517.156 L50.8507 535.578 Q57.5817 535.578 60.7379 533.581 Q65.1501 530.812 65.1501 526.142 Q65.1501 525.498 65.0213 524.725 Q64.8925 523.952 64.345 522.374 Q63.7653 520.796 62.2516 519.411 Q60.7379 518.026 58.3547 517.221 Q57.4207 517.027 57.4529 516.383 Q57.4529 515.514 58.2259 515.514 Q58.8056 515.514 60.126 516.158 Q61.4142 516.77 62.9601 517.961 Q64.506 519.153 65.6654 521.472 Q66.8248 523.758 66.8248 526.528 Q66.8248 532.325 62.4448 536.705 Q58.0326 541.053 51.5593 541.053 M49.4659 535.514 L49.4659 519.862 Q48.081 519.862 46.5351 520.119 Q44.9893 520.345 42.8637 521.053 Q40.7059 521.73 39.3532 523.34 Q38.0006 524.95 38.0006 527.333 Q38.0006 528.396 38.4515 529.556 Q38.9023 530.683 39.9973 532.068 Q41.0923 533.452 43.5722 534.419 Q46.052 535.385 49.4659 535.514 Z" fill="#000000" fill-rule="nonzero" fill-opacity="1" /><path clip-path="url(#clip520)" d="M60.5447 505.294 Q53.556 512.057 43.54 512.057 Q33.4918 512.057 26.5353 505.23 Q19.5788 498.402 19.5788 489.127 Q19.5788 486.808 20.1263 484.843 Q20.6416 482.847 21.7044 481.268 Q22.735 479.69 23.4435 478.885 Q24.1199 478.048 25.2471 476.921 L20.384 473.603 Q19.5788 473.088 19.5788 472.573 Q19.5788 472.025 19.9009 471.929 Q20.1907 471.832 21.1569 471.832 L36.809 471.832 Q37.8718 471.832 38.1294 471.961 Q38.3871 472.09 38.3871 472.895 Q38.3871 473.539 38.1938 473.668 Q38.0006 473.797 37.2598 473.958 Q30.1424 474.956 25.8912 478.95 Q21.64 482.911 21.64 488.322 Q21.64 489.9 21.9943 491.671 Q22.3485 493.41 23.7012 495.987 Q25.0538 498.531 27.276 500.495 Q29.466 502.428 33.7172 503.845 Q37.9362 505.262 43.54 505.262 Q49.0794 505.262 53.3306 503.845 Q57.5817 502.428 59.804 500.463 Q61.994 498.466 63.3788 495.89 Q64.7637 493.281 65.1501 491.446 Q65.5044 489.578 65.5044 487.935 Q65.5044 486.808 65.2789 485.487 Q65.0213 484.167 64.3128 482.202 Q63.572 480.206 61.8329 478.95 Q60.0938 477.694 57.5173 477.694 L53.2984 477.694 Q51.3338 477.694 50.7219 478.66 Q50.11 479.626 50.11 483.845 L50.11 485.938 L48.081 485.938 Q48.2743 483.555 48.2743 475.343 Q48.2743 474.602 48.081 467.291 L50.11 467.291 Q50.11 470.447 50.5931 471.156 Q51.044 471.832 53.0085 471.832 L64.506 471.832 Q66.0197 471.832 66.0197 472.412 Q66.0197 472.927 64.5382 474.473 Q63.0567 475.987 61.9295 476.663 Q64.6992 478.241 66.1163 481.687 Q67.5334 485.101 67.5334 488.998 Q67.5334 498.499 60.5447 505.294 Z" fill="#000000" fill-rule="nonzero" fill-opacity="1" /><path clip-path="url(#clip520)" d="M59.804 461.388 Q54.2001 461.388 51.2372 454.786 Q49.337 450.825 48.854 442.644 L46.4385 442.644 Q42.3484 442.644 40.1906 444.802 Q38.0006 446.928 38.0006 449.633 Q38.0006 454.464 41.0279 456.783 Q41.0923 454.818 42.0907 454.11 Q43.0569 453.401 44.0553 453.401 Q45.3757 453.401 46.2453 454.239 Q47.0826 455.044 47.0826 456.429 Q47.0826 457.749 46.2775 458.619 Q45.4401 459.488 43.9909 459.488 Q40.7703 459.488 38.6447 456.59 Q36.5191 453.659 36.5191 449.504 Q36.5191 444.094 40.1584 440.487 Q41.2856 439.359 42.7348 438.812 Q44.1841 438.232 45.1503 438.168 Q46.0843 438.103 47.9522 438.103 L61.1244 438.103 Q61.5109 438.103 62.155 437.975 Q62.7991 437.846 63.6364 437.266 Q64.4416 436.654 64.4416 435.656 Q64.4416 433.272 60.2226 433.305 L56.519 433.305 L56.519 431.63 L60.2226 431.63 Q63.7331 431.63 65.1179 433.498 Q66.4706 435.334 66.4706 437.041 Q66.4706 439.231 64.8603 440.615 Q63.25 442 61.06 442.194 Q63.572 443.192 65.2145 445.479 Q66.8248 447.733 66.8248 450.825 Q66.8248 453.208 66.2129 455.462 Q65.6332 457.685 63.9907 459.552 Q62.316 461.388 59.804 461.388 M59.7395 456.3 Q62.1872 456.3 63.7653 454.561 Q65.3434 452.821 65.3434 450.374 Q65.3434 447.604 63.2178 445.124 Q61.06 442.644 56.841 442.644 L50.2388 442.644 Q50.4965 449.955 53.4272 453.144 Q56.3257 456.3 59.7395 456.3 Z" fill="#000000" fill-rule="nonzero" fill-opacity="1" /><path clip-path="url(#clip520)" d="M76.8409 434.004 Q76.8409 430.494 76.39 429.689 Q75.9713 428.851 73.8779 428.851 L42.9925 428.851 Q40.8025 428.851 40.255 429.689 Q39.7075 430.494 39.7075 434.004 L37.6463 434.004 L36.9378 424.503 L41.2856 424.503 Q36.9378 420.542 36.9378 415.26 Q36.9378 409.657 41.2856 405.566 Q45.6334 401.476 51.8491 401.476 Q58.1292 401.476 62.477 405.824 Q66.8248 410.172 66.8248 416.194 Q66.8248 419.479 65.1501 421.702 Q63.4432 423.892 62.1872 424.31 L62.7991 424.31 L73.8779 424.31 Q76.0035 424.31 76.4222 423.473 Q76.8409 422.635 76.8409 419.157 L78.8698 419.157 Q78.6766 426.082 78.6766 426.597 Q78.6766 427.241 78.8698 434.004 L76.8409 434.004 M58.5801 424.31 Q59.5785 424.31 59.9328 424.181 Q60.287 424.02 61.3498 423.376 Q65.3434 420.768 65.3434 416.516 Q65.3434 416.484 65.3434 416.452 Q65.3434 412.684 61.5109 409.818 Q57.6462 406.951 51.8491 406.951 Q46.3097 406.951 42.445 409.56 Q38.5803 412.169 38.5803 415.776 Q38.5803 418.352 39.9651 420.607 Q41.35 422.861 43.8621 424.31 L58.5801 424.31 Z" fill="#000000" fill-rule="nonzero" fill-opacity="1" /><polyline clip-path="url(#clip522)" style="stroke:#785ef0; stroke-linecap:round; stroke-linejoin:round; stroke-width:8; stroke-opacity:1; fill:none" points="276.876,90.0917 308.812,90.0917 340.749,384.504 372.685,428.778 404.622,428.778 436.559,767.763 468.495,860.881 500.432,898.798 532.368,898.798 564.305,1179.22 596.242,1211.44 628.178,1211.44 660.115,1518.34 "/>
<polyline clip-path="url(#clip522)" style="stroke:#785ef0; stroke-linecap:round; stroke-linejoin:round; stroke-width:8; stroke-opacity:1; fill:none" stroke-dasharray="32, 20" points="276.876,90.0917 308.812,90.0917 340.749,270.641 372.685,344.959 404.622,393.207 436.559,393.207 468.495,653.112 500.432,800.161 532.368,930.837 564.305,1055.59 596.242,1174.72 628.178,1289.1 660.115,1400.19 692.052,1510.28 "/>
<polyline clip-path="url(#clip522)" style="stroke:#fe6100; stroke-linecap:round; stroke-linejoin:round; stroke-width:8; stroke-opacity:1; fill:none" points="276.876,90.0917 308.812,209.966 340.749,209.966 372.685,229.859 404.622,257.795 436.559,276.151 468.495,291.261 500.432,321.027 532.368,330.377 564.305,374.022 596.242,374.022 628.178,400.775 660.115,400.775 692.052,443.247 723.988,443.247 755.925,455.949 787.861,462.152 819.798,492.849 851.735,501.493 883.671,536.278 915.608,550.515 947.545,551.704 979.481,706.338 1011.42,706.338 1043.35,706.338 1075.29,706.338 1107.23,753.535 1139.16,753.535 1171.1,829.364 1203.04,1053.44 1234.97,1221.92 1266.91,1221.92 1298.85,1221.92 1330.78,1235.74 1362.72,1256.89 1394.66,1268.68 1426.59,1273.73 1458.53,1273.73 1490.47,1273.73 1522.4,1273.73 1554.34,1304.76 1586.28,1304.76 1618.21,1304.76 1650.15,1304.76 1682.09,1304.76 1714.02,1304.76 1745.96,1304.76 1777.9,1304.76 1809.83,1304.76 1841.77,1304.76 1873.71,1304.76 1905.64,1328.38 1937.58,1328.38 1969.52,1328.38 2001.45,1328.38 2033.39,1328.38 2065.33,1328.38 2097.26,1328.38 2129.2,1328.38 2161.14,1328.38 2193.07,1328.38 2225.01,1328.38 2256.95,1328.38 2288.88,1328.38 2320.82,1369.42 2352.76,1369.42 2384.69,1369.42 2416.63,1369.42 2448.57,1369.42 2480.5,1369.42 2512.44,1369.42 2544.38,1369.42 2576.31,1369.42 2608.25,1424.88 "/>
<polyline clip-path="url(#clip522)" style="stroke:#fe6100; stroke-linecap:round; stroke-linejoin:round; stroke-width:8; stroke-opacity:1; fill:none" stroke-dasharray="32, 20" points="276.876,90.0917 308.812,111.153 340.749,229.168 372.685,229.168 404.622,229.168 436.559,292.568 468.495,292.568 500.432,365.771 532.368,365.771 564.305,365.771 596.242,435.803 628.178,435.803 660.115,472.536 692.052,499.072 723.988,557.361 755.925,557.361 787.861,695.125 819.798,695.125 851.735,695.125 883.671,701.413 915.608,740.374 947.545,740.374 979.481,768.058 1011.42,795.605 1043.35,830.064 1075.29,830.117 1107.23,830.117 1139.16,870.496 1171.1,870.496 1203.04,905.462 1234.97,911.725 1266.91,994.261 1298.85,994.261 1330.78,994.261 1362.72,1035.75 1394.66,1261.81 1426.59,1261.81 1458.53,1279.78 1490.47,1279.78 1522.4,1279.78 1554.34,1279.78 1586.28,1279.78 1618.21,1279.78 1650.15,1279.78 1682.09,1279.78 1714.02,1279.78 1745.96,1279.78 1777.9,1279.78 1809.83,1279.78 1841.77,1279.78 1873.71,1279.78 1905.64,1279.78 1937.58,1279.78 1969.52,1279.78 2001.45,1279.78 2033.39,1279.78 2065.33,1279.78 2097.26,1279.78 2129.2,1279.78 2161.14,1279.78 2193.07,1313.31 2225.01,1313.31 2256.95,1313.31 2288.88,1313.31 2320.82,1315.81 2352.76,1315.81 2384.69,1315.81 2416.63,1315.81 2448.57,1315.81 2480.5,1315.81 2512.44,1315.81 2544.38,1315.81 2576.31,1344.63 2608.25,1344.63 2640.19,1344.63 2672.12,1344.63 2704.06,1349.73 2736,1349.73 2767.93,1349.73 2799.87,1349.73 2831.81,1349.73 2863.74,1349.73 2895.68,1349.73 2927.62,1349.73 2959.55,1349.73 2991.49,1349.73 3023.42,1349.73 3055.36,1349.73 3087.3,1382.87 3119.23,1382.87 3151.17,1383.7 3183.11,1383.7 3215.04,1383.7 3246.98,1383.7 3278.92,1383.7 3310.85,1383.7 3342.79,1383.7 3374.73,1383.7 3406.66,1383.7 3438.6,1383.7 3470.54,1383.7 3502.47,1383.7 3534.41,1398.4 3566.35,1398.4 3598.28,1398.4 3630.22,1398.4 3662.16,1398.4 3694.09,1398.4 3726.03,1398.4 3757.97,1398.4 3789.9,1398.4 3821.84,1398.4 3853.78,1398.4 3885.71,1398.4 3917.65,1398.4 3949.59,1398.4 3981.52,1398.4 4013.46,1402.31 4045.4,1402.31 4077.33,1402.31 4109.27,1402.31 4141.21,1402.31 4173.14,1410.4 4205.08,1410.4 4237.02,1410.4 4268.95,1410.4 4300.89,1410.84 4332.83,1410.84 4364.76,1410.84 4396.7,1410.84 4428.64,1410.84 4460.57,1410.84 4492.51,1410.84 4524.45,1410.84 4556.38,1410.84 4588.32,1413.13 4620.26,1413.13 4652.19,1413.13 4684.13,1413.13 4716.07,1414.55 4748,1417.81 4779.94,1417.81 4811.88,1417.81 4843.81,1417.81 4875.75,1417.81 4907.69,1417.81 4939.62,1417.81 4971.56,1417.81 5003.5,1417.81 5035.43,1417.81 5067.37,1417.81 5099.31,1445.81 "/>
<polyline clip-path="url(#clip522)" style="stroke:#ffb000; stroke-linecap:round; stroke-linejoin:round; stroke-width:8; stroke-opacity:1; fill:none" points="276.876,90.0917 308.812,90.0917 340.749,208.012 372.685,208.012 404.622,290.425 436.559,290.425 468.495,334.255 500.432,334.255 532.368,386.391 564.305,386.391 596.242,397.537 628.178,397.537 660.115,397.537 692.052,397.537 723.988,408.988 755.925,408.988 787.861,438.895 819.798,438.895 851.735,472.795 883.671,472.795 915.608,509.515 947.545,509.515 979.481,527.272 1011.42,527.272 1043.35,527.272 1075.29,527.272 1107.23,527.272 1139.16,527.272 1171.1,527.272 1203.04,527.272 1234.97,527.272 1266.91,527.272 1298.85,527.272 1330.78,527.272 1362.72,543.414 1394.66,543.414 1426.59,562.241 1458.53,562.241 1490.47,564.281 1522.4,564.281 1554.34,564.281 1586.28,564.281 1618.21,564.281 1650.15,564.281 1682.09,564.281 1714.02,564.281 1745.96,564.281 1777.9,564.281 1809.83,564.281 1841.77,564.281 1873.71,564.281 1905.64,564.281 1937.58,564.281 1969.52,564.281 2001.45,570.195 2033.39,570.195 2065.33,583.336 2097.26,583.336 2129.2,597.137 2161.14,597.137 2193.07,611.665 2225.01,611.665 2256.95,625.886 2288.88,625.886 2320.82,635.918 2352.76,635.918 2384.69,635.918 2416.63,635.918 2448.57,635.918 2480.5,635.918 2512.44,635.918 2544.38,635.918 2576.31,635.918 2608.25,635.918 2640.19,635.918 2672.12,635.918 2704.06,635.918 2736,635.918 2767.93,635.918 2799.87,635.918 2831.81,635.918 2863.74,635.918 2895.68,635.918 2927.62,635.918 2959.55,635.918 2991.49,635.918 3023.42,635.918 3055.36,635.918 3087.3,635.918 3119.23,635.918 3151.17,635.918 3183.11,635.918 3215.04,637.62 3246.98,637.62 3278.92,646.55 3310.85,646.55 3342.79,655.896 3374.73,655.896 3406.66,665.691 3438.6,665.691 3470.54,675.952 3502.47,675.952 3534.41,686.352 3566.35,686.352 3598.28,695.129 3630.22,695.129 3662.16,695.129 3694.09,695.129 3726.03,695.129 3757.97,695.129 3789.9,695.129 3821.84,695.129 3853.78,695.129 3885.71,695.129 3917.65,695.129 3949.59,695.129 3981.52,695.129 4013.46,695.129 4045.4,695.129 4077.33,695.129 4109.27,695.129 4141.21,695.129 4173.14,695.129 4205.08,695.129 4237.02,695.129 4268.95,695.129 4300.89,695.129 4332.83,695.129 4364.76,695.129 4396.7,695.129 4428.64,695.129 4460.57,695.129 4492.51,695.129 4524.45,695.129 4556.38,695.129 4588.32,695.129 4620.26,695.129 4652.19,695.129 4684.13,695.129 4716.07,695.129 4748,695.129 4779.94,695.129 4811.88,695.129 4843.81,695.129 4875.75,695.129 4907.69,695.129 4939.62,695.129 4971.56,695.129 5003.5,695.129 5035.43,695.129 5067.37,696.045 5099.31,696.045 5131.24,701.974 5163.18,701.974 5195.12,708.096 5227.05,708.096 5258.99,714.431 5290.93,714.431 5322.86,721.003 5354.8,721.003 5386.73,727.838 5418.67,727.838 5450.61,734.957 5482.54,734.957 5514.48,742.358 5546.42,742.358 5578.35,749.827 5610.29,749.827 5642.23,755.868 5674.16,755.868 5706.1,755.868 5738.04,755.868 5769.97,755.868 5801.91,755.868 5833.85,755.868 5865.78,755.868 5897.72,755.868 5929.66,755.868 5961.59,755.868 5993.53,755.868 6025.47,755.868 6057.4,755.868 6089.34,755.868 6121.28,755.868 6153.21,755.868 6185.15,755.868 6217.09,755.868 6249.02,755.868 6280.96,755.868 6312.9,755.868 6344.83,755.868 6376.77,755.868 6408.71,755.868 6440.64,755.868 6472.58,755.868 6504.52,755.868 6536.45,755.868 6568.39,755.868 6600.33,755.868 6632.26,755.868 6664.2,755.868 6696.14,755.868 6728.07,755.868 6760.01,755.868 6791.95,755.868 6823.88,755.868 6855.82,755.868 6887.76,755.868 6919.69,755.868 6951.63,755.868 6983.57,755.868 7015.5,755.868 7047.44,755.868 7079.38,755.868 7111.31,755.868 7143.25,755.868 7175.19,755.868 7207.12,755.868 7239.06,755.868 7271,755.868 7302.93,755.868 7334.87,755.868 7366.81,755.868 7398.74,755.868 7430.68,755.868 7462.62,755.868 7494.55,755.868 7526.49,755.868 7558.43,755.868 7590.36,755.868 7622.3,755.868 7654.24,755.868 7686.17,755.868 7718.11,755.868 7750.04,755.868 7781.98,755.868 7813.92,755.868 7845.85,755.868 7877.79,755.868 7909.73,755.868 7941.66,755.868 7973.6,755.868 8005.54,755.868 8037.47,755.868 8069.41,755.868 8101.35,755.868 8133.28,757.575 8165.22,757.575 8197.16,761.568 8229.09,761.568 8261.03,765.653 8292.97,765.653 8324.9,769.838 8356.84,769.838 8388.78,774.129 8420.71,774.129 8452.65,778.534 8484.59,778.534 8516.52,783.063 8548.46,783.063 8580.4,787.725 8612.33,787.725 8644.27,792.53 8676.21,792.53 8708.14,797.489 8740.08,797.489 8772.02,802.61 8803.95,802.61 8835.89,807.858 8867.83,807.858 8899.76,812.88 8931.7,812.88 8963.64,814.789 8995.57,814.789 9027.51,814.789 9059.45,814.789 9091.38,814.789 9123.32,814.789 9155.26,814.789 9187.19,814.789 9219.13,814.789 9251.07,814.789 9283,814.789 9314.94,814.789 9346.88,814.789 9378.81,814.789 9410.75,814.789 9442.69,814.789 9474.62,814.789 9506.56,814.789 9538.5,814.789 9570.43,814.789 9602.37,814.789 9634.31,814.789 9666.24,814.789 9698.18,814.789 9730.12,814.789 9762.05,814.789 9793.99,814.789 9825.93,814.789 9857.86,814.789 9889.8,814.789 9921.74,814.789 9953.67,814.789 9985.61,814.789 10017.5,814.789 10049.5,814.789 10081.4,814.789 10113.4,814.789 10145.3,814.789 10177.2,814.789 10209.2,814.789 10241.1,814.789 10273,814.789 10305,814.789 10336.9,814.789 10368.8,814.789 10400.8,814.789 10432.7,814.789 10464.7,814.789 10496.6,814.789 10528.5,814.789 10560.5,814.789 10592.4,814.789 10624.3,814.789 10656.3,814.789 10688.2,814.789 10720.2,814.789 10752.1,814.789 10784,814.789 10816,814.789 10847.9,814.789 10879.8,814.789 10911.8,814.789 10943.7,814.789 10975.6,814.789 11007.6,814.789 11039.5,814.789 11071.5,814.789 11103.4,814.789 11135.3,814.789 11167.3,814.789 11199.2,814.789 11231.1,814.789 11263.1,814.789 11295,814.789 11326.9,814.789 11358.9,814.789 11390.8,814.789 11422.8,814.789 11454.7,814.789 11486.6,814.789 11518.6,814.789 11550.5,814.789 11582.4,814.789 11614.4,814.789 11646.3,814.789 11678.2,814.789 11710.2,814.789 11742.1,814.789 11774.1,814.789 11806,814.789 11837.9,814.789 11869.9,814.789 11901.8,814.789 11933.7,814.789 11965.7,814.789 11997.6,814.789 12029.6,814.789 12061.5,814.789 12093.4,814.789 12125.4,814.789 12157.3,814.789 12189.2,814.789 12221.2,814.789 12253.1,814.789 12285,814.789 12317,814.789 12348.9,814.789 12380.9,814.789 12412.8,814.789 12444.7,814.789 12476.7,814.789 12508.6,814.789 12540.5,814.789 12572.5,814.789 12604.4,814.789 12636.3,814.789 12668.3,814.789 12700.2,814.789 12732.2,814.789 12764.1,814.789 12796,814.789 12828,814.789 12859.9,814.789 12891.8,814.789 12923.8,814.789 12955.7,814.789 12987.7,814.789 13019.6,814.789 13051.5,814.789 13083.5,814.789 13115.4,815.751 13147.3,815.751 13179.3,818.37 13211.2,818.37 13243.1,821.031 13275.1,821.031 13307,823.734 13339,823.734 13370.9,826.483 13402.8,826.483 13434.8,829.279 13466.7,829.279 13498.6,832.124 13530.6,832.124 13562.5,835.022 13594.4,835.022 13626.4,837.974 13658.3,837.974 13690.3,840.983 13722.2,840.983 13754.1,844.053 13786.1,844.053 13818,847.186 13849.9,847.186 13881.9,850.386 13913.8,850.386 13945.7,853.657 13977.7,853.657 14009.6,857.003 14041.6,857.003 14073.5,860.428 14105.4,860.428 14137.4,863.933 14169.3,863.933 14201.2,867.497 14233.2,867.497 14265.1,870.887 14297.1,870.887 14329,871.883 14360.9,871.883 14392.9,871.883 14424.8,871.883 14456.7,871.883 14488.7,871.883 14520.6,871.883 14552.5,871.883 14584.5,871.883 14616.4,871.883 14648.4,871.883 14680.3,871.883 14712.2,871.883 14744.2,871.883 14776.1,871.883 14808,871.883 14840,871.883 14871.9,871.883 14903.8,871.883 14935.8,871.883 14967.7,871.883 14999.7,871.883 15031.6,871.883 15063.5,871.883 15095.5,871.883 15127.4,871.883 15159.3,871.883 15191.3,871.883 15223.2,871.883 15255.2,871.883 15287.1,871.883 15319,871.883 15351,871.883 15382.9,871.883 15414.8,871.883 15446.8,871.883 15478.7,871.883 15510.6,871.883 15542.6,871.883 15574.5,871.883 15606.5,871.883 15638.4,871.883 15670.3,871.883 15702.3,871.883 15734.2,871.883 15766.1,871.883 15798.1,871.883 15830,871.883 15861.9,871.883 15893.9,871.883 15925.8,871.883 15957.8,871.883 15989.7,871.883 16021.6,871.883 16053.6,871.883 16085.5,871.883 16117.4,871.883 16149.4,871.883 16181.3,871.883 16213.2,871.883 16245.2,871.883 "/>
<polyline clip-path="url(#clip522)" style="stroke:#ffb000; stroke-linecap:round; stroke-linejoin:round; stroke-width:8; stroke-opacity:1; fill:none" stroke-dasharray="32, 20" points="276.876,90.0917 308.812,90.0917 340.749,90.0917 372.685,90.0917 404.622,90.0917 436.559,90.9834 468.495,141.219 500.432,220.671 532.368,365.335 564.305,365.335 596.242,388.899 628.178,388.899 660.115,388.899 692.052,388.899 723.988,388.899 755.925,388.899 787.861,388.899 819.798,388.899 851.735,394.474 883.671,394.474 915.608,404.377 947.545,404.377 979.481,413.612 1011.42,413.612 1043.35,422.334 1075.29,422.334 1107.23,430.637 1139.16,430.637 1171.1,438.592 1203.04,438.592 1234.97,446.253 1266.91,446.253 1298.85,453.666 1330.78,453.666 1362.72,460.871 1394.66,460.871 1426.59,467.903 1458.53,467.903 1490.47,474.792 1522.4,474.792 1554.34,481.567 1586.28,481.567 1618.21,488.253 1650.15,488.253 1682.09,494.875 1714.02,494.875 1745.96,501.457 1777.9,501.457 1809.83,508.021 1841.77,508.021 1873.71,514.589 1905.64,514.589 1937.58,521.183 1969.52,521.183 2001.45,527.825 2033.39,527.825 2065.33,534.539 2097.26,534.539 2129.2,541.347 2161.14,541.347 2193.07,548.276 2225.01,548.276 2256.95,555.351 2288.88,555.351 2320.82,562.604 2352.76,562.604 2384.69,570.064 2416.63,570.064 2448.57,577.769 2480.5,577.769 2512.44,585.76 2544.38,585.76 2576.31,594.083 2608.25,594.083 2640.19,602.792 2672.12,602.792 2704.06,611.951 2736,611.951 2767.93,621.638 2799.87,621.638 2831.81,631.946 2863.74,631.946 2895.68,642.991 2927.62,642.991 2959.55,654.92 2991.49,654.92 3023.42,667.923 3055.36,667.923 3087.3,682.256 3119.23,682.256 3151.17,698.27 3183.11,698.27 3215.04,716.474 3246.98,716.474 3278.92,737.644 3310.85,737.644 3342.79,763.06 3374.73,763.06 3406.66,795.08 3438.6,795.08 3470.54,838.875 3502.47,838.875 3534.41,910.244 3566.35,910.244 3598.28,1187.93 3630.22,1187.93 3662.16,1187.93 3694.09,1187.93 3726.03,1187.93 3757.97,1187.93 3789.9,1187.93 3821.84,1187.93 3853.78,1187.93 3885.71,1187.93 3917.65,1187.93 3949.59,1187.93 3981.52,1187.93 4013.46,1187.93 4045.4,1187.93 4077.33,1187.93 4109.27,1187.93 4141.21,1187.93 4173.14,1187.93 4205.08,1187.93 4237.02,1187.93 4268.95,1187.93 4300.89,1187.93 4332.83,1187.93 4364.76,1187.93 4396.7,1187.93 4428.64,1187.93 4460.57,1187.93 4492.51,1187.93 4524.45,1187.93 4556.38,1187.93 4588.32,1187.93 4620.26,1187.93 4652.19,1187.93 4684.13,1187.93 4716.07,1187.93 4748,1187.93 4779.94,1187.93 4811.88,1187.93 4843.81,1187.93 4875.75,1187.93 4907.69,1187.93 4939.62,1187.93 4971.56,1187.93 5003.5,1187.93 5035.43,1187.93 5067.37,1187.93 5099.31,1187.93 5131.24,1187.93 5163.18,1187.93 5195.12,1187.93 5227.05,1187.93 5258.99,1187.93 5290.93,1187.93 5322.86,1187.93 5354.8,1187.93 5386.73,1187.93 5418.67,1187.93 5450.61,1187.93 5482.54,1187.93 5514.48,1187.93 5546.42,1187.93 5578.35,1187.93 5610.29,1187.93 5642.23,1187.93 5674.16,1187.93 5706.1,1187.93 5738.04,1187.93 5769.97,1187.93 5801.91,1187.93 5833.85,1187.93 5865.78,1187.93 5897.72,1187.93 5929.66,1187.93 5961.59,1187.93 5993.53,1187.93 6025.47,1187.93 6057.4,1187.93 6089.34,1187.93 6121.28,1187.93 6153.21,1187.93 6185.15,1187.93 6217.09,1187.93 6249.02,1187.93 6280.96,1187.93 6312.9,1187.93 6344.83,1187.93 6376.77,1187.93 6408.71,1187.93 6440.64,1187.93 6472.58,1187.93 6504.52,1187.93 6536.45,1187.93 6568.39,1187.93 6600.33,1187.93 6632.26,1187.93 6664.2,1187.93 6696.14,1187.93 6728.07,1187.93 6760.01,1187.93 6791.95,1187.93 6823.88,1187.93 6855.82,1187.93 6887.76,1187.93 6919.69,1187.93 6951.63,1187.93 6983.57,1187.93 7015.5,1187.93 7047.44,1187.93 7079.38,1187.93 7111.31,1187.93 7143.25,1187.93 7175.19,1187.93 7207.12,1187.93 7239.06,1187.93 7271,1187.93 7302.93,1187.93 7334.87,1187.93 7366.81,1187.93 7398.74,1187.93 7430.68,1187.93 7462.62,1187.93 7494.55,1187.93 7526.49,1187.93 7558.43,1187.93 7590.36,1187.93 7622.3,1187.93 7654.24,1187.93 7686.17,1187.93 7718.11,1187.93 7750.04,1187.93 7781.98,1187.93 7813.92,1187.93 7845.85,1187.93 7877.79,1187.93 7909.73,1187.93 7941.66,1187.93 7973.6,1187.93 8005.54,1187.93 8037.47,1187.93 8069.41,1187.93 8101.35,1187.93 8133.28,1187.93 8165.22,1187.93 8197.16,1187.93 8229.09,1187.93 8261.03,1187.93 8292.97,1187.93 8324.9,1187.93 8356.84,1187.93 8388.78,1187.93 8420.71,1187.93 8452.65,1187.93 8484.59,1187.93 8516.52,1187.93 8548.46,1187.93 8580.4,1187.93 8612.33,1187.93 8644.27,1187.93 8676.21,1187.93 8708.14,1187.93 8740.08,1187.93 8772.02,1187.93 8803.95,1187.93 8835.89,1187.93 8867.83,1187.93 8899.76,1187.93 8931.7,1187.93 8963.64,1187.93 8995.57,1187.93 9027.51,1187.93 9059.45,1187.93 9091.38,1187.93 9123.32,1187.93 9155.26,1187.93 9187.19,1187.93 9219.13,1187.93 9251.07,1187.93 9283,1187.93 9314.94,1187.93 9346.88,1187.93 9378.81,1187.93 9410.75,1187.93 9442.69,1187.93 9474.62,1187.93 9506.56,1187.93 9538.5,1187.93 9570.43,1187.93 9602.37,1187.93 9634.31,1187.93 9666.24,1187.93 9698.18,1187.93 9730.12,1187.93 9762.05,1187.93 9793.99,1187.93 9825.93,1187.93 9857.86,1187.93 9889.8,1187.93 9921.74,1187.93 9953.67,1187.93 9985.61,1187.93 10017.5,1187.93 10049.5,1187.93 10081.4,1187.93 10113.4,1187.93 10145.3,1187.93 10177.2,1187.93 10209.2,1187.93 10241.1,1187.93 10273,1187.93 10305,1187.93 10336.9,1187.93 10368.8,1187.93 10400.8,1187.93 10432.7,1187.93 10464.7,1187.93 10496.6,1187.93 10528.5,1187.93 10560.5,1187.93 10592.4,1187.93 10624.3,1187.93 10656.3,1187.93 10688.2,1187.93 10720.2,1187.93 10752.1,1187.93 10784,1187.93 10816,1187.93 10847.9,1187.93 10879.8,1187.93 10911.8,1187.93 10943.7,1187.93 10975.6,1187.93 11007.6,1187.93 11039.5,1187.93 11071.5,1187.93 11103.4,1187.93 11135.3,1187.93 11167.3,1187.93 11199.2,1187.93 11231.1,1187.93 11263.1,1187.93 11295,1187.93 11326.9,1187.93 11358.9,1187.93 11390.8,1187.93 11422.8,1187.93 11454.7,1187.93 11486.6,1187.93 11518.6,1187.93 11550.5,1187.93 11582.4,1187.93 11614.4,1187.93 11646.3,1187.93 11678.2,1187.93 11710.2,1187.93 11742.1,1187.93 11774.1,1187.93 11806,1187.93 11837.9,1187.93 11869.9,1187.93 11901.8,1187.93 11933.7,1187.93 11965.7,1187.93 11997.6,1187.93 12029.6,1187.93 12061.5,1187.93 12093.4,1187.93 12125.4,1187.93 12157.3,1187.93 12189.2,1187.93 12221.2,1187.93 12253.1,1187.93 12285,1187.93 12317,1187.93 12348.9,1187.93 12380.9,1187.93 12412.8,1187.93 12444.7,1187.93 12476.7,1187.93 12508.6,1187.93 12540.5,1187.93 12572.5,1187.93 12604.4,1187.93 12636.3,1187.93 12668.3,1187.93 12700.2,1187.93 12732.2,1187.93 12764.1,1187.93 12796,1187.93 12828,1187.93 12859.9,1187.93 12891.8,1187.93 12923.8,1187.93 12955.7,1187.93 12987.7,1187.93 13019.6,1187.93 13051.5,1187.93 13083.5,1187.93 13115.4,1187.93 13147.3,1187.93 13179.3,1187.93 13211.2,1187.93 13243.1,1187.93 13275.1,1187.93 13307,1187.93 13339,1187.93 13370.9,1187.93 13402.8,1187.93 13434.8,1187.93 13466.7,1187.93 13498.6,1187.93 13530.6,1187.93 13562.5,1187.93 13594.4,1187.93 13626.4,1187.93 13658.3,1187.93 13690.3,1187.93 13722.2,1187.93 13754.1,1187.93 13786.1,1187.93 13818,1187.93 13849.9,1187.93 13881.9,1187.93 13913.8,1187.93 13945.7,1187.93 13977.7,1187.93 14009.6,1187.93 14041.6,1187.93 14073.5,1187.93 14105.4,1187.93 14137.4,1187.93 14169.3,1187.93 14201.2,1187.93 14233.2,1187.93 14265.1,1187.93 14297.1,1187.93 14329,1187.93 14360.9,1187.93 14392.9,1187.93 14424.8,1187.93 14456.7,1187.93 14488.7,1187.93 14520.6,1187.93 14552.5,1187.93 14584.5,1187.93 14616.4,1187.93 14648.4,1187.93 14680.3,1187.93 14712.2,1187.93 14744.2,1187.93 14776.1,1187.93 14808,1187.93 14840,1187.93 14871.9,1187.93 14903.8,1187.93 14935.8,1187.93 14967.7,1187.93 14999.7,1187.93 15031.6,1187.93 15063.5,1187.93 15095.5,1187.93 15127.4,1187.93 15159.3,1187.93 15191.3,1187.93 15223.2,1187.93 15255.2,1187.93 15287.1,1187.93 15319,1187.93 15351,1187.93 15382.9,1187.93 15414.8,1187.93 15446.8,1187.93 15478.7,1187.93 15510.6,1187.93 15542.6,1187.93 15574.5,1187.93 15606.5,1187.93 15638.4,1187.93 15670.3,1187.93 15702.3,1187.93 15734.2,1187.93 15766.1,1187.93 15798.1,1187.93 15830,1187.93 15861.9,1187.93 15893.9,1187.93 15925.8,1187.93 15957.8,1187.93 15989.7,1187.93 16021.6,1187.93 16053.6,1187.93 16085.5,1187.93 16117.4,1187.93 16149.4,1187.93 16181.3,1187.93 16213.2,1187.93 16245.2,1187.93 "/>
<path clip-path="url(#clip520)" d="M1827.66 300.469 L2283.56 300.469 L2283.56 93.1086 L1827.66 93.1086  Z" fill="#000000" fill-rule="evenodd" fill-opacity="0"/>
<polyline clip-path="url(#clip520)" style="stroke:#000000; stroke-linecap:round; stroke-linejoin:round; stroke-width:4; stroke-opacity:0; fill:none" points="1827.66,300.469 2283.56,300.469 2283.56,93.1086 1827.66,93.1086 1827.66,300.469 "/>
<polyline clip-path="url(#clip520)" style="stroke:#785ef0; stroke-linecap:round; stroke-linejoin:round; stroke-width:8; stroke-opacity:1; fill:none" points="1850.73,144.949 1989.12,144.949 "/>
<path clip-path="url(#clip520)" d="M2012.19 156.824 L2012.19 155.348 L2013.33 155.348 Q2015.93 155.348 2016.52 154.926 Q2017.13 154.481 2017.13 153.076 L2017.13 127.803 Q2017.13 126.421 2016.52 126 Q2015.91 125.555 2013.33 125.555 L2012.19 125.555 L2012.19 124.056 L2027.25 124.056 Q2032.47 124.056 2036.1 126.632 Q2039.75 129.185 2039.75 132.699 Q2039.75 135.392 2037.39 137.5 Q2035.02 139.608 2031.37 140.522 Q2036.12 142.161 2037.22 146.073 L2037.83 149.914 Q2038.02 151.296 2038.14 151.999 Q2038.28 152.701 2038.49 153.662 Q2038.7 154.622 2038.91 155.09 Q2039.15 155.535 2039.47 156.027 Q2039.8 156.496 2040.22 156.66 Q2040.67 156.824 2041.25 156.824 Q2042.35 156.824 2043.29 155.84 Q2044.23 154.856 2044.42 152.561 Q2044.51 151.788 2045 151.788 Q2045.61 151.788 2045.61 152.561 Q2045.61 153.24 2045.42 154.036 Q2045.24 154.809 2044.77 155.723 Q2044.32 156.636 2043.34 157.245 Q2042.35 157.878 2041.07 157.878 Q2037.32 157.878 2035.02 155.863 Q2034.06 154.997 2033.62 153.872 Q2033.2 152.748 2033.13 151.858 Q2033.06 150.968 2033.06 149.001 Q2033.06 146.213 2032.75 144.995 Q2032.47 143.777 2031.23 142.583 Q2029.54 140.943 2026.75 140.943 L2021.25 140.943 L2021.25 153.076 Q2021.25 154.458 2021.84 154.903 Q2022.44 155.348 2025.04 155.348 L2026.19 155.348 L2026.19 156.824 Q2024.46 156.683 2019.19 156.683 Q2013.92 156.683 2012.19 156.824 M2021.25 139.889 L2026.57 139.889 Q2029.12 139.889 2030.83 139.28 Q2032.56 138.648 2033.38 137.524 Q2034.2 136.399 2034.51 135.275 Q2034.81 134.127 2034.81 132.699 Q2034.81 131.012 2034.44 129.747 Q2034.06 128.482 2033.24 127.733 Q2032.42 126.983 2031.6 126.515 Q2030.78 126.023 2029.52 125.836 Q2028.25 125.648 2027.39 125.602 Q2026.52 125.555 2025.14 125.555 Q2022.8 125.555 2022.3 125.648 Q2021.77 125.695 2021.55 125.953 Q2021.34 126.21 2021.3 126.515 Q2021.25 126.796 2021.25 127.475 L2021.25 139.889 Z" fill="#000000" fill-rule="nonzero" fill-opacity="1" /><path clip-path="url(#clip520)" d="M2047.91 156.824 L2047.91 155.348 L2049.05 155.348 Q2051.65 155.348 2052.24 154.926 Q2052.85 154.481 2052.85 153.076 L2052.85 127.803 Q2052.85 126.421 2052.24 126 Q2051.63 125.555 2049.05 125.555 L2047.91 125.555 L2047.91 124.056 L2064.84 124.056 Q2069.69 124.056 2072.92 126.726 Q2076.15 129.396 2076.15 132.98 Q2076.15 136.54 2072.85 139.116 Q2069.57 141.669 2065.22 141.669 L2057.11 141.669 L2057.11 153.076 Q2057.11 154.458 2057.7 154.903 Q2058.31 155.348 2060.91 155.348 L2062.05 155.348 L2062.05 156.824 Q2060.37 156.683 2054.96 156.683 Q2049.59 156.683 2047.91 156.824 M2056.97 140.428 L2063.58 140.428 Q2065.73 140.428 2067.3 139.819 Q2068.87 139.21 2069.57 138.484 Q2070.3 137.734 2070.7 136.54 Q2071.12 135.322 2071.16 134.666 Q2071.21 133.987 2071.21 132.98 Q2071.21 131.926 2071.16 131.27 Q2071.12 130.59 2070.7 129.396 Q2070.3 128.178 2069.57 127.452 Q2068.87 126.702 2067.3 126.14 Q2065.75 125.555 2063.58 125.555 L2059.31 125.555 Q2057.67 125.555 2057.32 125.883 Q2056.97 126.21 2056.97 127.475 L2056.97 140.428 Z" fill="#000000" fill-rule="nonzero" fill-opacity="1" /><path clip-path="url(#clip520)" d="M2086.53 156.824 L2086.53 155.348 L2087.68 155.348 Q2090.28 155.348 2090.86 154.926 Q2091.47 154.481 2091.47 153.076 L2091.47 127.803 Q2091.47 126.421 2090.86 126 Q2090.25 125.555 2087.68 125.555 L2086.53 125.555 L2086.53 124.056 L2104.07 124.056 Q2108.64 124.056 2111.68 126.515 Q2114.73 128.951 2114.73 132.16 Q2114.73 134.807 2112.48 136.915 Q2110.25 139.023 2106.76 139.702 Q2110.75 140.123 2113.37 142.536 Q2116.02 144.925 2116.02 148.04 Q2116.02 151.554 2112.99 154.2 Q2109.97 156.824 2105.34 156.824 L2086.53 156.824 M2095.45 153.427 Q2095.45 154.669 2095.8 155.02 Q2096.15 155.348 2097.79 155.348 L2103.79 155.348 Q2107.23 155.348 2109.22 153.099 Q2111.21 150.827 2111.21 147.993 Q2111.21 145.159 2109.46 142.747 Q2107.72 140.311 2104.47 140.311 L2095.45 140.311 L2095.45 153.427 M2095.45 139.257 L2102.41 139.257 Q2106.11 139.257 2108.08 137.032 Q2110.07 134.807 2110.07 132.16 Q2110.07 129.818 2108.47 127.686 Q2106.91 125.555 2103.74 125.555 L2097.79 125.555 Q2096.15 125.555 2095.8 125.883 Q2095.45 126.21 2095.45 127.475 L2095.45 139.257 Z" fill="#000000" fill-rule="nonzero" fill-opacity="1" /><path clip-path="url(#clip520)" d="M2125.51 144.831 Q2125.51 136.727 2128.53 130.192 Q2129.82 127.452 2131.62 125.156 Q2133.43 122.861 2134.62 121.854 Q2135.82 120.847 2136.14 120.847 Q2136.61 120.847 2136.64 121.315 Q2136.64 121.549 2136 122.135 Q2128.27 130.005 2128.3 144.831 Q2128.3 159.705 2135.82 167.27 Q2136.64 168.09 2136.64 168.347 Q2136.64 168.816 2136.14 168.816 Q2135.82 168.816 2134.67 167.856 Q2133.52 166.895 2131.74 164.694 Q2129.96 162.492 2128.67 159.798 Q2125.51 153.263 2125.51 144.831 Z" fill="#000000" fill-rule="nonzero" fill-opacity="1" /><path clip-path="url(#clip520)" d="M2141.24 140.568 Q2141.24 133.237 2145.92 128.131 Q2150.63 123.002 2157.17 123.002 Q2163.75 123.002 2168.43 128.131 Q2173.14 133.261 2173.14 140.568 Q2173.14 147.806 2168.43 152.842 Q2163.72 157.878 2157.17 157.878 Q2150.7 157.878 2145.97 152.865 Q2141.24 147.853 2141.24 140.568 M2146.18 139.889 Q2146.18 144.339 2147.23 147.759 Q2148.29 151.155 2149.97 153.006 Q2151.68 154.856 2153.51 155.746 Q2155.34 156.636 2157.21 156.636 Q2159.04 156.636 2160.82 155.77 Q2162.62 154.903 2164.33 153.076 Q2166.04 151.249 2167.12 147.829 Q2168.2 144.41 2168.2 139.889 Q2168.2 136.376 2167.45 133.565 Q2166.7 130.731 2165.53 129.021 Q2164.36 127.311 2162.83 126.187 Q2161.33 125.063 2159.91 124.641 Q2158.5 124.196 2157.17 124.196 Q2155.48 124.196 2153.72 124.946 Q2151.97 125.695 2150.19 127.358 Q2148.43 128.998 2147.3 132.253 Q2146.18 135.486 2146.18 139.889 Z" fill="#000000" fill-rule="nonzero" fill-opacity="1" /><path clip-path="url(#clip520)" d="M2177.75 137.641 L2177.75 136.142 L2184.8 135.626 L2184.8 151.554 Q2184.8 152.701 2184.9 153.381 Q2184.99 154.036 2185.37 154.809 Q2185.77 155.582 2186.66 155.934 Q2187.57 156.285 2189.02 156.285 Q2191.62 156.285 2193.21 154.153 Q2194.83 152.022 2194.83 148.86 L2194.83 140.311 Q2194.83 138.531 2194.2 138.086 Q2193.56 137.641 2191.08 137.641 L2191.08 136.142 L2198.13 135.626 L2198.13 152.654 Q2198.13 154.435 2198.74 154.903 Q2199.37 155.348 2201.88 155.348 L2201.88 156.824 L2194.97 157.362 L2194.97 153.029 Q2192.96 157.339 2188.79 157.362 Q2186.68 157.362 2185.23 156.824 Q2183.8 156.285 2183.07 155.629 Q2182.35 154.95 2181.95 153.662 Q2181.57 152.373 2181.53 151.577 Q2181.48 150.781 2181.48 149.235 L2181.48 142.044 Q2181.48 138.788 2181.01 138.226 Q2180.54 137.641 2177.75 137.641 Z" fill="#000000" fill-rule="nonzero" fill-opacity="1" /><path clip-path="url(#clip520)" d="M2203.53 156.824 L2203.53 155.348 Q2206.08 155.348 2206.67 155.044 Q2207.27 154.716 2207.27 153.17 L2207.27 140.311 Q2207.27 138.531 2206.64 138.086 Q2206.03 137.641 2203.53 137.641 L2203.53 136.142 L2210.2 135.626 L2210.2 140.896 Q2210.88 138.835 2212.31 137.242 Q2213.76 135.626 2216.1 135.626 Q2217.65 135.626 2218.63 136.493 Q2219.64 137.36 2219.64 138.554 Q2219.64 139.608 2218.99 140.147 Q2218.35 140.662 2217.58 140.662 Q2216.71 140.662 2216.1 140.123 Q2215.52 139.561 2215.52 138.601 Q2215.52 138.015 2215.78 137.57 Q2216.06 137.102 2216.27 136.938 Q2216.48 136.774 2216.62 136.727 Q2216.53 136.68 2216.1 136.68 Q2213.46 136.68 2211.94 139.327 Q2210.44 141.95 2210.44 145.698 L2210.44 153.076 Q2210.44 154.458 2211 154.903 Q2211.58 155.348 2214.09 155.348 L2215.1 155.348 L2215.1 156.824 Q2213.18 156.683 2209.01 156.683 Q2208.42 156.683 2207.51 156.707 Q2206.59 156.73 2205.4 156.777 Q2204.21 156.824 2203.53 156.824 Z" fill="#000000" fill-rule="nonzero" fill-opacity="1" /><path clip-path="url(#clip520)" d="M2222.62 156.191 L2222.62 149.867 Q2222.62 149.328 2222.64 149.141 Q2222.66 148.954 2222.8 148.813 Q2222.95 148.673 2223.23 148.673 Q2223.55 148.673 2223.67 148.813 Q2223.81 148.954 2223.91 149.492 Q2224.63 152.795 2226.18 154.552 Q2227.75 156.285 2230.58 156.285 Q2233.27 156.285 2234.63 155.09 Q2235.99 153.896 2235.99 151.928 Q2235.99 148.415 2231 147.525 Q2228.12 146.939 2226.93 146.565 Q2225.73 146.166 2224.68 145.3 Q2222.62 143.613 2222.62 141.224 Q2222.62 138.835 2224.42 137.078 Q2226.25 135.322 2230.28 135.322 Q2232.97 135.322 2234.8 136.68 Q2235.34 136.259 2235.62 135.907 Q2236.25 135.322 2236.58 135.322 Q2236.95 135.322 2237.02 135.579 Q2237.09 135.814 2237.09 136.493 L2237.09 141.318 Q2237.09 141.857 2237.07 142.044 Q2237.05 142.231 2236.9 142.372 Q2236.76 142.489 2236.46 142.489 Q2235.92 142.489 2235.9 142.044 Q2235.52 136.235 2230.28 136.235 Q2227.44 136.235 2226.18 137.336 Q2224.91 138.414 2224.91 139.889 Q2224.91 140.709 2225.29 141.341 Q2225.69 141.95 2226.18 142.325 Q2226.69 142.676 2227.63 143.028 Q2228.57 143.356 2229.13 143.473 Q2229.71 143.59 2230.82 143.824 Q2234.66 144.55 2236.27 146.12 Q2238.29 148.134 2238.29 150.687 Q2238.29 153.521 2236.37 155.442 Q2234.45 157.362 2230.58 157.362 Q2227.47 157.362 2225.29 155.278 Q2225.01 155.559 2224.8 155.816 Q2224.58 156.051 2224.49 156.144 Q2224.42 156.238 2224.4 156.308 Q2224.37 156.355 2224.33 156.402 Q2223.37 157.362 2223.13 157.362 Q2222.76 157.362 2222.69 157.105 Q2222.62 156.87 2222.62 156.191 Z" fill="#000000" fill-rule="nonzero" fill-opacity="1" /><path clip-path="url(#clip520)" d="M2242.08 168.347 Q2242.08 168.113 2242.69 167.528 Q2250.42 159.658 2250.42 144.831 Q2250.42 129.958 2242.99 122.439 Q2242.08 121.573 2242.08 121.315 Q2242.08 120.847 2242.55 120.847 Q2242.88 120.847 2244.02 121.807 Q2245.19 122.767 2246.95 124.969 Q2248.73 127.171 2250.04 129.864 Q2253.2 136.399 2253.2 144.831 Q2253.2 152.935 2250.18 159.47 Q2248.89 162.211 2247.09 164.506 Q2245.29 166.802 2244.09 167.809 Q2242.9 168.816 2242.55 168.816 Q2242.08 168.816 2242.08 168.347 Z" fill="#000000" fill-rule="nonzero" fill-opacity="1" /><polyline clip-path="url(#clip520)" style="stroke:#fe6100; stroke-linecap:round; stroke-linejoin:round; stroke-width:8; stroke-opacity:1; fill:none" points="1850.73,196.789 1989.12,196.789 "/>
<path clip-path="url(#clip520)" d="M2012.19 213.007 L2012.19 211.532 L2013.33 211.532 Q2015.93 211.532 2016.52 211.11 Q2017.13 210.665 2017.13 209.26 L2017.13 183.987 Q2017.13 182.605 2016.52 182.183 Q2015.91 181.738 2013.33 181.738 L2012.19 181.738 L2012.19 180.239 L2027.25 180.239 Q2032.47 180.239 2036.1 182.816 Q2039.75 185.369 2039.75 188.882 Q2039.75 191.576 2037.39 193.684 Q2035.02 195.792 2031.37 196.705 Q2036.12 198.345 2037.22 202.256 L2037.83 206.098 Q2038.02 207.48 2038.14 208.182 Q2038.28 208.885 2038.49 209.845 Q2038.7 210.806 2038.91 211.274 Q2039.15 211.719 2039.47 212.211 Q2039.8 212.679 2040.22 212.843 Q2040.67 213.007 2041.25 213.007 Q2042.35 213.007 2043.29 212.024 Q2044.23 211.04 2044.42 208.744 Q2044.51 207.972 2045 207.972 Q2045.61 207.972 2045.61 208.744 Q2045.61 209.424 2045.42 210.22 Q2045.24 210.993 2044.77 211.907 Q2044.32 212.82 2043.34 213.429 Q2042.35 214.061 2041.07 214.061 Q2037.32 214.061 2035.02 212.047 Q2034.06 211.18 2033.62 210.056 Q2033.2 208.932 2033.13 208.042 Q2033.06 207.152 2033.06 205.184 Q2033.06 202.397 2032.75 201.179 Q2032.47 199.961 2031.23 198.767 Q2029.54 197.127 2026.75 197.127 L2021.25 197.127 L2021.25 209.26 Q2021.25 210.642 2021.84 211.087 Q2022.44 211.532 2025.04 211.532 L2026.19 211.532 L2026.19 213.007 Q2024.46 212.867 2019.19 212.867 Q2013.92 212.867 2012.19 213.007 M2021.25 196.073 L2026.57 196.073 Q2029.12 196.073 2030.83 195.464 Q2032.56 194.832 2033.38 193.707 Q2034.2 192.583 2034.51 191.459 Q2034.81 190.311 2034.81 188.882 Q2034.81 187.196 2034.44 185.931 Q2034.06 184.666 2033.24 183.917 Q2032.42 183.167 2031.6 182.699 Q2030.78 182.207 2029.52 182.019 Q2028.25 181.832 2027.39 181.785 Q2026.52 181.738 2025.14 181.738 Q2022.8 181.738 2022.3 181.832 Q2021.77 181.879 2021.55 182.137 Q2021.34 182.394 2021.3 182.699 Q2021.25 182.98 2021.25 183.659 L2021.25 196.073 Z" fill="#000000" fill-rule="nonzero" fill-opacity="1" /><path clip-path="url(#clip520)" d="M2045.82 196.612 Q2045.82 189.374 2050.76 184.291 Q2055.71 179.185 2062.5 179.185 Q2064.61 179.185 2066.48 179.958 Q2068.35 180.731 2069.22 181.41 Q2070.09 182.066 2071.33 183.308 L2073.74 179.771 Q2074.12 179.185 2074.49 179.185 Q2074.89 179.185 2074.96 179.42 Q2075.03 179.63 2075.03 180.333 L2075.03 191.716 Q2075.03 192.489 2074.94 192.677 Q2074.84 192.864 2074.26 192.864 Q2073.79 192.864 2073.67 192.724 Q2073.58 192.583 2073.48 192.044 Q2072.76 186.868 2069.88 183.776 Q2067.02 180.684 2063.04 180.684 Q2061.89 180.684 2060.6 180.942 Q2059.34 181.2 2057.49 182.183 Q2055.66 183.167 2054.23 184.807 Q2052.82 186.423 2051.79 189.515 Q2050.76 192.583 2050.76 196.659 Q2050.76 200.687 2051.79 203.779 Q2052.82 206.871 2054.23 208.487 Q2055.66 210.08 2057.49 211.063 Q2059.34 212.047 2060.62 212.328 Q2061.94 212.586 2063.08 212.586 Q2067.21 212.586 2070.37 209.658 Q2073.53 206.73 2073.83 201.788 Q2073.88 201.554 2073.88 201.46 Q2073.88 201.343 2073.93 201.226 Q2073.98 201.109 2074.09 201.062 Q2074.21 201.015 2074.4 201.015 Q2075.03 201.015 2075.03 201.835 Q2075.03 206.402 2071.52 210.244 Q2068.03 214.061 2062.5 214.061 Q2055.68 214.061 2050.74 209.002 Q2045.82 203.943 2045.82 196.612 Z" fill="#000000" fill-rule="nonzero" fill-opacity="1" /><path clip-path="url(#clip520)" d="M2082.98 213.007 L2082.98 211.532 L2084.13 211.532 Q2086.73 211.532 2087.31 211.11 Q2087.92 210.665 2087.92 209.26 L2087.92 183.987 Q2087.92 182.605 2087.31 182.183 Q2086.71 181.738 2084.13 181.738 L2082.98 181.738 L2082.98 180.239 L2100.52 180.239 Q2105.09 180.239 2108.14 182.699 Q2111.18 185.135 2111.18 188.344 Q2111.18 190.99 2108.93 193.098 Q2106.71 195.206 2103.22 195.886 Q2107.2 196.307 2109.82 198.72 Q2112.47 201.109 2112.47 204.224 Q2112.47 207.737 2109.45 210.384 Q2106.43 213.007 2101.79 213.007 L2082.98 213.007 M2091.91 209.611 Q2091.91 210.853 2092.26 211.204 Q2092.61 211.532 2094.25 211.532 L2100.24 211.532 Q2103.69 211.532 2105.68 209.283 Q2107.67 207.011 2107.67 204.177 Q2107.67 201.343 2105.91 198.93 Q2104.18 196.495 2100.92 196.495 L2091.91 196.495 L2091.91 209.611 M2091.91 195.441 L2098.86 195.441 Q2102.56 195.441 2104.53 193.215 Q2106.52 190.99 2106.52 188.344 Q2106.52 186.001 2104.93 183.87 Q2103.36 181.738 2100.2 181.738 L2094.25 181.738 Q2092.61 181.738 2092.26 182.066 Q2091.91 182.394 2091.91 183.659 L2091.91 195.441 Z" fill="#000000" fill-rule="nonzero" fill-opacity="1" /><path clip-path="url(#clip520)" d="M2118.32 213.007 L2118.32 211.532 Q2120.05 211.532 2121.15 211.204 Q2122.25 210.853 2122.65 210.22 Q2123.07 209.564 2123.16 209.143 Q2123.26 208.698 2123.26 207.972 L2123.26 183.987 Q2123.26 182.605 2122.65 182.183 Q2122.06 181.738 2119.46 181.738 L2118.32 181.738 L2118.32 180.239 L2126.42 180.239 Q2127.29 180.239 2127.52 180.403 Q2127.76 180.544 2128.11 181.293 L2138.51 208.159 L2149 181.153 Q2149.23 180.474 2149.44 180.356 Q2149.68 180.239 2150.59 180.239 L2158.7 180.239 L2158.7 181.738 L2157.55 181.738 Q2154.95 181.738 2154.34 182.183 Q2153.75 182.605 2153.75 183.987 L2153.75 209.26 Q2153.75 210.642 2154.34 211.087 Q2154.95 211.532 2157.55 211.532 L2158.7 211.532 L2158.7 213.007 Q2156.92 212.867 2151.83 212.867 Q2146.7 212.867 2144.92 213.007 L2144.92 211.532 L2146.1 211.532 Q2148.7 211.532 2149.28 211.11 Q2149.87 210.665 2149.87 209.26 L2149.87 181.738 L2149.82 181.738 L2138.04 212.094 Q2137.71 213.007 2137.17 213.007 Q2136.59 213.007 2136.21 211.953 L2124.64 182.113 L2124.59 182.113 L2124.59 207.972 Q2124.59 208.698 2124.69 209.143 Q2124.78 209.564 2125.18 210.22 Q2125.6 210.853 2126.7 211.204 Q2127.8 211.532 2129.54 211.532 L2129.54 213.007 Q2124.5 212.867 2123.91 212.867 Q2123.35 212.867 2118.32 213.007 Z" fill="#000000" fill-rule="nonzero" fill-opacity="1" /><polyline clip-path="url(#clip520)" style="stroke:#ffb000; stroke-linecap:round; stroke-linejoin:round; stroke-width:8; stroke-opacity:1; fill:none" points="1850.73,248.629 1989.12,248.629 "/>
<path clip-path="url(#clip520)" d="M2012.19 264.754 L2012.19 255.15 Q2012.19 254.612 2012.21 254.424 Q2012.23 254.237 2012.37 254.096 Q2012.51 253.956 2012.79 253.956 Q2013.33 253.956 2013.38 254.448 Q2013.52 259.203 2016.36 261.826 Q2019.14 264.426 2023.92 264.426 Q2026.8 264.426 2028.58 262.365 Q2030.36 260.28 2030.36 257.563 Q2030.36 254.963 2028.86 253.136 Q2028.23 252.316 2027.43 251.801 Q2026.66 251.262 2026.17 251.098 Q2025.7 250.934 2024.79 250.7 Q2018.84 249.271 2018.46 249.107 Q2015.63 248.147 2013.9 245.735 Q2012.19 243.299 2012.19 240.324 Q2012.19 236.483 2014.88 233.766 Q2017.6 231.025 2021.53 231.025 Q2023.5 231.025 2025.14 231.658 Q2026.8 232.267 2027.48 232.829 Q2028.16 233.391 2029.21 234.398 L2030.88 231.658 Q2031.25 231.025 2031.6 231.025 Q2031.98 231.025 2032.05 231.26 Q2032.14 231.47 2032.14 232.173 L2032.14 241.823 Q2032.14 242.362 2032.12 242.549 Q2032.1 242.737 2031.93 242.854 Q2031.79 242.971 2031.51 242.971 Q2031.04 242.971 2030.92 242.409 Q2029.59 232.384 2021.58 232.384 Q2018.84 232.384 2017.03 234.234 Q2015.25 236.061 2015.25 238.661 Q2015.25 240.769 2016.57 242.502 Q2017.88 244.212 2020.1 244.751 L2026.24 246.227 Q2029.31 246.953 2031.37 249.67 Q2033.43 252.387 2033.43 255.923 Q2033.43 259.999 2030.76 262.95 Q2028.11 265.901 2023.97 265.901 Q2020.99 265.901 2018.7 264.918 Q2016.4 263.934 2015.16 262.552 Q2014.2 264.145 2013.57 265.035 L2013.43 265.269 Q2013.05 265.901 2012.7 265.901 Q2012.33 265.901 2012.26 265.667 Q2012.19 265.433 2012.19 264.754 Z" fill="#000000" fill-rule="nonzero" fill-opacity="1" /><path clip-path="url(#clip520)" d="M2045.56 260.819 Q2040.65 255.736 2040.65 248.452 Q2040.65 241.144 2045.61 236.085 Q2050.58 231.025 2057.32 231.025 Q2059.01 231.025 2060.44 231.424 Q2061.89 231.798 2063.04 232.571 Q2064.19 233.321 2064.77 233.836 Q2065.38 234.328 2066.2 235.148 L2068.61 231.611 Q2068.99 231.025 2069.36 231.025 Q2069.76 231.025 2069.83 231.26 Q2069.9 231.47 2069.9 232.173 L2069.9 243.556 Q2069.9 244.329 2069.81 244.517 Q2069.71 244.704 2069.13 244.704 Q2068.66 244.704 2068.57 244.564 Q2068.47 244.423 2068.35 243.884 Q2067.63 238.708 2064.72 235.616 Q2061.84 232.524 2057.91 232.524 Q2056.76 232.524 2055.47 232.782 Q2054.21 233.04 2052.33 234.023 Q2050.48 235.007 2049.05 236.623 Q2047.65 238.216 2046.62 241.308 Q2045.59 244.376 2045.59 248.452 Q2045.59 252.48 2046.62 255.572 Q2047.65 258.664 2049.08 260.28 Q2050.53 261.873 2052.4 262.88 Q2054.3 263.887 2055.64 264.168 Q2056.99 264.426 2058.19 264.426 Q2059.01 264.426 2059.97 264.262 Q2060.93 264.074 2062.36 263.559 Q2063.81 263.02 2064.72 261.756 Q2065.64 260.491 2065.64 258.617 L2065.64 255.549 Q2065.64 254.12 2064.93 253.675 Q2064.23 253.23 2061.16 253.23 L2059.64 253.23 L2059.64 251.754 Q2061.37 251.895 2067.35 251.895 Q2067.89 251.895 2073.2 251.754 L2073.2 253.23 Q2070.91 253.23 2070.39 253.581 Q2069.9 253.909 2069.9 255.338 L2069.9 263.7 Q2069.9 264.801 2069.48 264.801 Q2069.1 264.801 2067.98 263.723 Q2066.88 262.646 2066.39 261.826 Q2065.24 263.84 2062.73 264.871 Q2060.25 265.901 2057.42 265.901 Q2050.51 265.901 2045.56 260.819 Z" fill="#000000" fill-rule="nonzero" fill-opacity="1" /><path clip-path="url(#clip520)" d="M2077.49 264.847 L2077.49 263.372 Q2079.22 263.372 2080.32 263.044 Q2081.42 262.693 2081.82 262.06 Q2082.24 261.404 2082.34 260.983 Q2082.43 260.538 2082.43 259.812 L2082.43 235.827 Q2082.43 234.445 2081.82 234.023 Q2081.23 233.578 2078.63 233.578 L2077.49 233.578 L2077.49 232.079 L2085.59 232.079 Q2086.46 232.079 2086.69 232.243 Q2086.93 232.384 2087.28 233.133 L2097.68 259.999 L2108.17 232.993 Q2108.4 232.314 2108.62 232.196 Q2108.85 232.079 2109.76 232.079 L2117.87 232.079 L2117.87 233.578 L2116.72 233.578 Q2114.12 233.578 2113.51 234.023 Q2112.93 234.445 2112.93 235.827 L2112.93 261.1 Q2112.93 262.482 2113.51 262.927 Q2114.12 263.372 2116.72 263.372 L2117.87 263.372 L2117.87 264.847 Q2116.09 264.707 2111 264.707 Q2105.87 264.707 2104.09 264.847 L2104.09 263.372 L2105.27 263.372 Q2107.87 263.372 2108.45 262.95 Q2109.04 262.505 2109.04 261.1 L2109.04 233.578 L2108.99 233.578 L2097.21 263.934 Q2096.88 264.847 2096.34 264.847 Q2095.76 264.847 2095.38 263.793 L2083.81 233.953 L2083.76 233.953 L2083.76 259.812 Q2083.76 260.538 2083.86 260.983 Q2083.95 261.404 2084.35 262.06 Q2084.77 262.693 2085.87 263.044 Q2086.97 263.372 2088.71 263.372 L2088.71 264.847 Q2083.67 264.707 2083.08 264.707 Q2082.52 264.707 2077.49 264.847 Z" fill="#000000" fill-rule="nonzero" fill-opacity="1" /></svg>
