<?xml version="1.0" encoding="utf-8"?>
<svg xmlns="http://www.w3.org/2000/svg" xmlns:xlink="http://www.w3.org/1999/xlink" width="600" height="400" viewBox="0 0 2400 1600">
<defs>
  <clipPath id="clip940">
    <rect x="0" y="0" width="2400" height="1600"/>
  </clipPath>
</defs>
<path clip-path="url(#clip940)" d="M0 1600 L2400 1600 L2400 8.88178e-14 L0 8.88178e-14  Z" fill="#ffffff" fill-rule="evenodd" fill-opacity="1"/>
<defs>
  <clipPath id="clip941">
    <rect x="480" y="0" width="1681" height="1600"/>
  </clipPath>
</defs>
<path clip-path="url(#clip940)" d="M276.876 1423.18 L2352.76 1423.18 L2352.76 47.2441 L276.876 47.2441  Z" fill="#ffffff" fill-rule="evenodd" fill-opacity="1"/>
<defs>
  <clipPath id="clip942">
    <rect x="276" y="47" width="2077" height="1377"/>
  </clipPath>
</defs>
<polyline clip-path="url(#clip942)" style="stroke:#000000; stroke-linecap:round; stroke-linejoin:round; stroke-width:2; stroke-opacity:0.1; fill:none" points="276.876,1423.18 276.876,47.2441 "/>
<polyline clip-path="url(#clip942)" style="stroke:#000000; stroke-linecap:round; stroke-linejoin:round; stroke-width:2; stroke-opacity:0.1; fill:none" points="753.273,1423.18 753.273,47.2441 "/>
<polyline clip-path="url(#clip942)" style="stroke:#000000; stroke-linecap:round; stroke-linejoin:round; stroke-width:2; stroke-opacity:0.1; fill:none" points="1229.67,1423.18 1229.67,47.2441 "/>
<polyline clip-path="url(#clip942)" style="stroke:#000000; stroke-linecap:round; stroke-linejoin:round; stroke-width:2; stroke-opacity:0.1; fill:none" points="1706.07,1423.18 1706.07,47.2441 "/>
<polyline clip-path="url(#clip942)" style="stroke:#000000; stroke-linecap:round; stroke-linejoin:round; stroke-width:2; stroke-opacity:0.1; fill:none" points="2182.46,1423.18 2182.46,47.2441 "/>
<polyline clip-path="url(#clip942)" style="stroke:#000000; stroke-linecap:round; stroke-linejoin:round; stroke-width:2; stroke-opacity:0.1; fill:none" points="276.876,1191.08 2352.76,1191.08 "/>
<polyline clip-path="url(#clip942)" style="stroke:#000000; stroke-linecap:round; stroke-linejoin:round; stroke-width:2; stroke-opacity:0.1; fill:none" points="276.876,610.838 2352.76,610.838 "/>
<polyline clip-path="url(#clip940)" style="stroke:#000000; stroke-linecap:round; stroke-linejoin:round; stroke-width:4; stroke-opacity:1; fill:none" points="276.876,1423.18 2352.76,1423.18 "/>
<polyline clip-path="url(#clip940)" style="stroke:#000000; stroke-linecap:round; stroke-linejoin:round; stroke-width:4; stroke-opacity:1; fill:none" points="276.876,1423.18 276.876,1404.28 "/>
<polyline clip-path="url(#clip940)" style="stroke:#000000; stroke-linecap:round; stroke-linejoin:round; stroke-width:4; stroke-opacity:1; fill:none" points="753.273,1423.18 753.273,1404.28 "/>
<polyline clip-path="url(#clip940)" style="stroke:#000000; stroke-linecap:round; stroke-linejoin:round; stroke-width:4; stroke-opacity:1; fill:none" points="1229.67,1423.18 1229.67,1404.28 "/>
<polyline clip-path="url(#clip940)" style="stroke:#000000; stroke-linecap:round; stroke-linejoin:round; stroke-width:4; stroke-opacity:1; fill:none" points="1706.07,1423.18 1706.07,1404.28 "/>
<polyline clip-path="url(#clip940)" style="stroke:#000000; stroke-linecap:round; stroke-linejoin:round; stroke-width:4; stroke-opacity:1; fill:none" points="2182.46,1423.18 2182.46,1404.28 "/>
<path clip-path="url(#clip940)" d="M239.179 1454.1 Q235.568 1454.1 233.739 1457.66 Q231.934 1461.2 231.934 1468.33 Q231.934 1475.44 233.739 1479.01 Q235.568 1482.55 239.179 1482.55 Q242.813 1482.55 244.619 1479.01 Q246.447 1475.44 246.447 1468.33 Q246.447 1461.2 244.619 1457.66 Q242.813 1454.1 239.179 1454.1 M239.179 1450.39 Q244.989 1450.39 248.045 1455 Q251.123 1459.58 251.123 1468.33 Q251.123 1477.06 248.045 1481.67 Q244.989 1486.25 239.179 1486.25 Q233.369 1486.25 230.29 1481.67 Q227.235 1477.06 227.235 1468.33 Q227.235 1459.58 230.29 1455 Q233.369 1450.39 239.179 1450.39 Z" fill="#000000" fill-rule="nonzero" fill-opacity="1" /><path clip-path="url(#clip940)" d="M259.341 1479.7 L264.225 1479.7 L264.225 1485.58 L259.341 1485.58 L259.341 1479.7 Z" fill="#000000" fill-rule="nonzero" fill-opacity="1" /><path clip-path="url(#clip940)" d="M284.41 1454.1 Q280.799 1454.1 278.97 1457.66 Q277.165 1461.2 277.165 1468.33 Q277.165 1475.44 278.97 1479.01 Q280.799 1482.55 284.41 1482.55 Q288.044 1482.55 289.85 1479.01 Q291.679 1475.44 291.679 1468.33 Q291.679 1461.2 289.85 1457.66 Q288.044 1454.1 284.41 1454.1 M284.41 1450.39 Q290.22 1450.39 293.276 1455 Q296.355 1459.58 296.355 1468.33 Q296.355 1477.06 293.276 1481.67 Q290.22 1486.25 284.41 1486.25 Q278.6 1486.25 275.521 1481.67 Q272.466 1477.06 272.466 1468.33 Q272.466 1459.58 275.521 1455 Q278.6 1450.39 284.41 1450.39 Z" fill="#000000" fill-rule="nonzero" fill-opacity="1" /><path clip-path="url(#clip940)" d="M314.572 1454.1 Q310.961 1454.1 309.132 1457.66 Q307.327 1461.2 307.327 1468.33 Q307.327 1475.44 309.132 1479.01 Q310.961 1482.55 314.572 1482.55 Q318.206 1482.55 320.012 1479.01 Q321.841 1475.44 321.841 1468.33 Q321.841 1461.2 320.012 1457.66 Q318.206 1454.1 314.572 1454.1 M314.572 1450.39 Q320.382 1450.39 323.438 1455 Q326.516 1459.58 326.516 1468.33 Q326.516 1477.06 323.438 1481.67 Q320.382 1486.25 314.572 1486.25 Q308.762 1486.25 305.683 1481.67 Q302.628 1477.06 302.628 1468.33 Q302.628 1459.58 305.683 1455 Q308.762 1450.39 314.572 1450.39 Z" fill="#000000" fill-rule="nonzero" fill-opacity="1" /><path clip-path="url(#clip940)" d="M716.19 1454.1 Q712.578 1454.1 710.75 1457.66 Q708.944 1461.2 708.944 1468.33 Q708.944 1475.44 710.75 1479.01 Q712.578 1482.55 716.19 1482.55 Q719.824 1482.55 721.629 1479.01 Q723.458 1475.44 723.458 1468.33 Q723.458 1461.2 721.629 1457.66 Q719.824 1454.1 716.19 1454.1 M716.19 1450.39 Q722 1450.39 725.055 1455 Q728.134 1459.58 728.134 1468.33 Q728.134 1477.06 725.055 1481.67 Q722 1486.25 716.19 1486.25 Q710.379 1486.25 707.301 1481.67 Q704.245 1477.06 704.245 1468.33 Q704.245 1459.58 707.301 1455 Q710.379 1450.39 716.19 1450.39 Z" fill="#000000" fill-rule="nonzero" fill-opacity="1" /><path clip-path="url(#clip940)" d="M736.352 1479.7 L741.236 1479.7 L741.236 1485.58 L736.352 1485.58 L736.352 1479.7 Z" fill="#000000" fill-rule="nonzero" fill-opacity="1" /><path clip-path="url(#clip940)" d="M761.421 1454.1 Q757.81 1454.1 755.981 1457.66 Q754.175 1461.2 754.175 1468.33 Q754.175 1475.44 755.981 1479.01 Q757.81 1482.55 761.421 1482.55 Q765.055 1482.55 766.861 1479.01 Q768.689 1475.44 768.689 1468.33 Q768.689 1461.2 766.861 1457.66 Q765.055 1454.1 761.421 1454.1 M761.421 1450.39 Q767.231 1450.39 770.287 1455 Q773.365 1459.58 773.365 1468.33 Q773.365 1477.06 770.287 1481.67 Q767.231 1486.25 761.421 1486.25 Q755.611 1486.25 752.532 1481.67 Q749.476 1477.06 749.476 1468.33 Q749.476 1459.58 752.532 1455 Q755.611 1450.39 761.421 1450.39 Z" fill="#000000" fill-rule="nonzero" fill-opacity="1" /><path clip-path="url(#clip940)" d="M782.393 1481.64 L790.032 1481.64 L790.032 1455.28 L781.722 1456.95 L781.722 1452.69 L789.985 1451.02 L794.661 1451.02 L794.661 1481.64 L802.3 1481.64 L802.3 1485.58 L782.393 1485.58 L782.393 1481.64 Z" fill="#000000" fill-rule="nonzero" fill-opacity="1" /><path clip-path="url(#clip940)" d="M1192.77 1454.1 Q1189.16 1454.1 1187.33 1457.66 Q1185.53 1461.2 1185.53 1468.33 Q1185.53 1475.44 1187.33 1479.01 Q1189.16 1482.55 1192.77 1482.55 Q1196.41 1482.55 1198.21 1479.01 Q1200.04 1475.44 1200.04 1468.33 Q1200.04 1461.2 1198.21 1457.66 Q1196.41 1454.1 1192.77 1454.1 M1192.77 1450.39 Q1198.58 1450.39 1201.64 1455 Q1204.72 1459.58 1204.72 1468.33 Q1204.72 1477.06 1201.64 1481.67 Q1198.58 1486.25 1192.77 1486.25 Q1186.96 1486.25 1183.88 1481.67 Q1180.83 1477.06 1180.83 1468.33 Q1180.83 1459.58 1183.88 1455 Q1186.96 1450.39 1192.77 1450.39 Z" fill="#000000" fill-rule="nonzero" fill-opacity="1" /><path clip-path="url(#clip940)" d="M1212.93 1479.7 L1217.82 1479.7 L1217.82 1485.58 L1212.93 1485.58 L1212.93 1479.7 Z" fill="#000000" fill-rule="nonzero" fill-opacity="1" /><path clip-path="url(#clip940)" d="M1238 1454.1 Q1234.39 1454.1 1232.56 1457.66 Q1230.76 1461.2 1230.76 1468.33 Q1230.76 1475.44 1232.56 1479.01 Q1234.39 1482.55 1238 1482.55 Q1241.64 1482.55 1243.44 1479.01 Q1245.27 1475.44 1245.27 1468.33 Q1245.27 1461.2 1243.44 1457.66 Q1241.64 1454.1 1238 1454.1 M1238 1450.39 Q1243.81 1450.39 1246.87 1455 Q1249.95 1459.58 1249.95 1468.33 Q1249.95 1477.06 1246.87 1481.67 Q1243.81 1486.25 1238 1486.25 Q1232.19 1486.25 1229.11 1481.67 Q1226.06 1477.06 1226.06 1468.33 Q1226.06 1459.58 1229.11 1455 Q1232.19 1450.39 1238 1450.39 Z" fill="#000000" fill-rule="nonzero" fill-opacity="1" /><path clip-path="url(#clip940)" d="M1262.19 1481.64 L1278.51 1481.64 L1278.51 1485.58 L1256.57 1485.58 L1256.57 1481.64 Q1259.23 1478.89 1263.81 1474.26 Q1268.42 1469.61 1269.6 1468.27 Q1271.85 1465.74 1272.73 1464.01 Q1273.63 1462.25 1273.63 1460.56 Q1273.63 1457.8 1271.68 1456.07 Q1269.76 1454.33 1266.66 1454.33 Q1264.46 1454.33 1262.01 1455.09 Q1259.58 1455.86 1256.8 1457.41 L1256.8 1452.69 Q1259.62 1451.55 1262.08 1450.97 Q1264.53 1450.39 1266.57 1450.39 Q1271.94 1450.39 1275.13 1453.08 Q1278.33 1455.77 1278.33 1460.26 Q1278.33 1462.39 1277.52 1464.31 Q1276.73 1466.2 1274.62 1468.8 Q1274.04 1469.47 1270.94 1472.69 Q1267.84 1475.88 1262.19 1481.64 Z" fill="#000000" fill-rule="nonzero" fill-opacity="1" /><path clip-path="url(#clip940)" d="M1668.69 1454.1 Q1665.08 1454.1 1663.25 1457.66 Q1661.45 1461.2 1661.45 1468.33 Q1661.45 1475.44 1663.25 1479.01 Q1665.08 1482.55 1668.69 1482.55 Q1672.33 1482.55 1674.13 1479.01 Q1675.96 1475.44 1675.96 1468.33 Q1675.96 1461.2 1674.13 1457.66 Q1672.33 1454.1 1668.69 1454.1 M1668.69 1450.39 Q1674.5 1450.39 1677.56 1455 Q1680.64 1459.58 1680.64 1468.33 Q1680.64 1477.06 1677.56 1481.67 Q1674.5 1486.25 1668.69 1486.25 Q1662.88 1486.25 1659.81 1481.67 Q1656.75 1477.06 1656.75 1468.33 Q1656.75 1459.58 1659.81 1455 Q1662.88 1450.39 1668.69 1450.39 Z" fill="#000000" fill-rule="nonzero" fill-opacity="1" /><path clip-path="url(#clip940)" d="M1688.86 1479.7 L1693.74 1479.7 L1693.74 1485.58 L1688.86 1485.58 L1688.86 1479.7 Z" fill="#000000" fill-rule="nonzero" fill-opacity="1" /><path clip-path="url(#clip940)" d="M1713.93 1454.1 Q1710.31 1454.1 1708.49 1457.66 Q1706.68 1461.2 1706.68 1468.33 Q1706.68 1475.44 1708.49 1479.01 Q1710.31 1482.55 1713.93 1482.55 Q1717.56 1482.55 1719.37 1479.01 Q1721.19 1475.44 1721.19 1468.33 Q1721.19 1461.2 1719.37 1457.66 Q1717.56 1454.1 1713.93 1454.1 M1713.93 1450.39 Q1719.74 1450.39 1722.79 1455 Q1725.87 1459.58 1725.87 1468.33 Q1725.87 1477.06 1722.79 1481.67 Q1719.74 1486.25 1713.93 1486.25 Q1708.12 1486.25 1705.04 1481.67 Q1701.98 1477.06 1701.98 1468.33 Q1701.98 1459.58 1705.04 1455 Q1708.12 1450.39 1713.93 1450.39 Z" fill="#000000" fill-rule="nonzero" fill-opacity="1" /><path clip-path="url(#clip940)" d="M1748.25 1466.95 Q1751.61 1467.66 1753.49 1469.93 Q1755.38 1472.2 1755.38 1475.53 Q1755.38 1480.65 1751.87 1483.45 Q1748.35 1486.25 1741.87 1486.25 Q1739.69 1486.25 1737.37 1485.81 Q1735.08 1485.39 1732.63 1484.54 L1732.63 1480.02 Q1734.57 1481.16 1736.89 1481.74 Q1739.2 1482.32 1741.73 1482.32 Q1746.12 1482.32 1748.42 1480.58 Q1750.73 1478.84 1750.73 1475.53 Q1750.73 1472.48 1748.58 1470.77 Q1746.45 1469.03 1742.63 1469.03 L1738.6 1469.03 L1738.6 1465.19 L1742.81 1465.19 Q1746.26 1465.19 1748.09 1463.82 Q1749.92 1462.43 1749.92 1459.84 Q1749.92 1457.18 1748.02 1455.77 Q1746.15 1454.33 1742.63 1454.33 Q1740.71 1454.33 1738.51 1454.75 Q1736.31 1455.16 1733.67 1456.04 L1733.67 1451.88 Q1736.33 1451.14 1738.65 1450.77 Q1740.99 1450.39 1743.05 1450.39 Q1748.37 1450.39 1751.47 1452.83 Q1754.57 1455.23 1754.57 1459.35 Q1754.57 1462.22 1752.93 1464.21 Q1751.29 1466.18 1748.25 1466.95 Z" fill="#000000" fill-rule="nonzero" fill-opacity="1" /><path clip-path="url(#clip940)" d="M2144.52 1454.1 Q2140.91 1454.1 2139.08 1457.66 Q2137.28 1461.2 2137.28 1468.33 Q2137.28 1475.44 2139.08 1479.01 Q2140.91 1482.55 2144.52 1482.55 Q2148.16 1482.55 2149.96 1479.01 Q2151.79 1475.44 2151.79 1468.33 Q2151.79 1461.2 2149.96 1457.66 Q2148.16 1454.1 2144.52 1454.1 M2144.52 1450.39 Q2150.33 1450.39 2153.39 1455 Q2156.47 1459.58 2156.47 1468.33 Q2156.47 1477.06 2153.39 1481.67 Q2150.33 1486.25 2144.52 1486.25 Q2138.71 1486.25 2135.64 1481.67 Q2132.58 1477.06 2132.58 1468.33 Q2132.58 1459.58 2135.64 1455 Q2138.71 1450.39 2144.52 1450.39 Z" fill="#000000" fill-rule="nonzero" fill-opacity="1" /><path clip-path="url(#clip940)" d="M2164.69 1479.7 L2169.57 1479.7 L2169.57 1485.58 L2164.69 1485.58 L2164.69 1479.7 Z" fill="#000000" fill-rule="nonzero" fill-opacity="1" /><path clip-path="url(#clip940)" d="M2189.76 1454.1 Q2186.14 1454.1 2184.32 1457.66 Q2182.51 1461.2 2182.51 1468.33 Q2182.51 1475.44 2184.32 1479.01 Q2186.14 1482.55 2189.76 1482.55 Q2193.39 1482.55 2195.2 1479.01 Q2197.02 1475.44 2197.02 1468.33 Q2197.02 1461.2 2195.2 1457.66 Q2193.39 1454.1 2189.76 1454.1 M2189.76 1450.39 Q2195.57 1450.39 2198.62 1455 Q2201.7 1459.58 2201.7 1468.33 Q2201.7 1477.06 2198.62 1481.67 Q2195.57 1486.25 2189.76 1486.25 Q2183.95 1486.25 2180.87 1481.67 Q2177.81 1477.06 2177.81 1468.33 Q2177.81 1459.58 2180.87 1455 Q2183.95 1450.39 2189.76 1450.39 Z" fill="#000000" fill-rule="nonzero" fill-opacity="1" /><path clip-path="url(#clip940)" d="M2222.77 1455.09 L2210.96 1473.54 L2222.77 1473.54 L2222.77 1455.09 M2221.54 1451.02 L2227.42 1451.02 L2227.42 1473.54 L2232.35 1473.54 L2232.35 1477.43 L2227.42 1477.43 L2227.42 1485.58 L2222.77 1485.58 L2222.77 1477.43 L2207.16 1477.43 L2207.16 1472.92 L2221.54 1451.02 Z" fill="#000000" fill-rule="nonzero" fill-opacity="1" /><path clip-path="url(#clip940)" d="M1104.12 1526.05 L1105.38 1511.23 L1145.66 1511.23 L1146.92 1526.05 L1145.28 1526.05 Q1145.02 1523.08 1144.76 1521.38 Q1144.54 1519.67 1143.96 1518.06 Q1143.41 1516.42 1142.7 1515.64 Q1142.03 1514.84 1140.7 1514.23 Q1139.38 1513.58 1137.68 1513.42 Q1135.97 1513.26 1133.39 1513.26 Q1130.37 1513.26 1129.63 1513.39 Q1128.82 1513.58 1128.63 1514.16 Q1128.43 1514.71 1128.43 1515.9 L1128.43 1550.65 Q1128.43 1551.97 1128.69 1552.52 Q1128.98 1553.03 1130.5 1553.45 Q1132.01 1553.84 1135.36 1553.84 L1138 1553.84 L1138 1555.87 Q1135.29 1555.67 1125.47 1555.67 Q1115.71 1555.67 1113.01 1555.87 L1113.01 1553.84 L1115.65 1553.84 Q1119 1553.84 1120.51 1553.45 Q1122.06 1553.03 1122.32 1552.52 Q1122.57 1551.97 1122.57 1550.65 L1122.57 1515.9 Q1122.57 1514.97 1122.51 1514.58 Q1122.44 1514.19 1122.15 1513.87 Q1121.86 1513.52 1121.19 1513.39 Q1120.54 1513.26 1117.65 1513.26 Q1115.07 1513.26 1113.33 1513.42 Q1111.62 1513.58 1110.3 1514.23 Q1108.98 1514.84 1108.27 1515.64 Q1107.6 1516.42 1107.02 1518.06 Q1106.47 1519.67 1106.24 1521.38 Q1106.02 1523.08 1105.76 1526.05 L1104.12 1526.05 Z" fill="#000000" fill-rule="nonzero" fill-opacity="1" /><path clip-path="url(#clip940)" d="M1156.46 1555.87 L1156.46 1553.84 Q1159.97 1553.84 1160.78 1553.42 Q1161.58 1552.97 1161.58 1550.84 L1161.58 1533.1 Q1161.58 1530.65 1160.75 1530.07 Q1159.94 1529.49 1156.72 1529.49 L1156.72 1527.43 L1165.93 1526.72 L1165.93 1550.91 Q1165.93 1552.87 1166.64 1553.36 Q1167.35 1553.84 1170.57 1553.84 L1170.57 1555.87 Q1163.84 1555.67 1163.71 1555.67 Q1162.81 1555.67 1156.46 1555.87 M1159.23 1515.22 Q1159.23 1513.9 1160.23 1512.84 Q1161.26 1511.75 1162.71 1511.75 Q1164.16 1511.75 1165.19 1512.74 Q1166.22 1513.71 1166.22 1515.26 Q1166.22 1516.77 1165.19 1517.77 Q1164.16 1518.73 1162.71 1518.73 Q1161.2 1518.73 1160.2 1517.67 Q1159.23 1516.61 1159.23 1515.22 Z" fill="#000000" fill-rule="nonzero" fill-opacity="1" /><path clip-path="url(#clip940)" d="M1175.08 1555.87 L1175.08 1553.84 Q1178.59 1553.84 1179.39 1553.42 Q1180.2 1552.97 1180.2 1550.84 L1180.2 1533.16 Q1180.2 1530.72 1179.33 1530.1 Q1178.49 1529.49 1175.08 1529.49 L1175.08 1527.43 L1184.35 1526.72 L1184.35 1533.65 Q1187.44 1526.72 1194.11 1526.72 Q1201.84 1526.72 1202.9 1533.16 Q1204.03 1530.65 1206.38 1528.69 Q1208.76 1526.72 1212.47 1526.72 Q1217.43 1526.72 1219.39 1529.17 Q1220.84 1530.81 1221.13 1532.65 Q1221.42 1534.48 1221.42 1539.25 L1221.42 1551.84 Q1221.49 1553.23 1222.55 1553.55 Q1223.61 1553.84 1226.57 1553.84 L1226.57 1555.87 Q1219.84 1555.67 1219.2 1555.67 Q1218.68 1555.67 1211.73 1555.87 L1211.73 1553.84 Q1215.24 1553.84 1216.04 1553.42 Q1216.88 1552.97 1216.88 1550.84 L1216.88 1535.48 Q1216.88 1532.13 1215.85 1530.17 Q1214.82 1528.17 1211.99 1528.17 Q1208.57 1528.17 1205.83 1531.04 Q1203.1 1533.9 1203.1 1538.73 L1203.1 1550.84 Q1203.1 1552.97 1203.9 1553.42 Q1204.74 1553.84 1208.25 1553.84 L1208.25 1555.87 Q1201.52 1555.67 1200.84 1555.67 Q1200.33 1555.67 1193.4 1555.87 L1193.4 1553.84 Q1196.91 1553.84 1197.72 1553.42 Q1198.56 1552.97 1198.56 1550.84 L1198.56 1535.48 Q1198.56 1532.13 1197.53 1530.17 Q1196.49 1528.17 1193.66 1528.17 Q1190.25 1528.17 1187.51 1531.04 Q1184.77 1533.9 1184.77 1538.73 L1184.77 1550.84 Q1184.77 1552.97 1185.58 1553.42 Q1186.41 1553.84 1189.89 1553.84 L1189.89 1555.87 Q1183.16 1555.67 1182.52 1555.67 Q1182 1555.67 1175.08 1555.87 Z" fill="#000000" fill-rule="nonzero" fill-opacity="1" /><path clip-path="url(#clip940)" d="M1230.52 1541.34 Q1230.52 1535.13 1234.51 1530.72 Q1238.51 1526.3 1244.24 1526.3 Q1250.04 1526.3 1253.03 1530.07 Q1256.06 1533.84 1256.06 1539.25 Q1256.06 1540.25 1255.8 1540.44 Q1255.54 1540.63 1254.42 1540.63 L1236 1540.63 Q1236 1547.37 1237.99 1550.52 Q1240.76 1554.93 1245.43 1554.93 Q1246.08 1554.93 1246.85 1554.8 Q1247.62 1554.68 1249.2 1554.13 Q1250.78 1553.55 1252.16 1552.04 Q1253.55 1550.52 1254.35 1548.14 Q1254.55 1547.2 1255.19 1547.24 Q1256.06 1547.24 1256.06 1548.01 Q1256.06 1548.59 1255.42 1549.91 Q1254.8 1551.2 1253.61 1552.74 Q1252.42 1554.29 1250.1 1555.45 Q1247.82 1556.61 1245.05 1556.61 Q1239.25 1556.61 1234.87 1552.23 Q1230.52 1547.82 1230.52 1541.34 M1236.06 1539.25 L1251.71 1539.25 Q1251.71 1537.86 1251.45 1536.32 Q1251.23 1534.77 1250.52 1532.65 Q1249.84 1530.49 1248.23 1529.14 Q1246.62 1527.78 1244.24 1527.78 Q1243.18 1527.78 1242.02 1528.24 Q1240.89 1528.69 1239.51 1529.78 Q1238.12 1530.88 1237.15 1533.36 Q1236.19 1535.84 1236.06 1539.25 Z" fill="#000000" fill-rule="nonzero" fill-opacity="1" /><path clip-path="url(#clip940)" d="M1263.21 1539.38 Q1263.21 1528.24 1267.37 1519.25 Q1269.14 1515.48 1271.62 1512.33 Q1274.1 1509.17 1275.74 1507.78 Q1277.38 1506.4 1277.83 1506.4 Q1278.48 1506.4 1278.51 1507.04 Q1278.51 1507.37 1277.64 1508.17 Q1267.01 1518.99 1267.04 1539.38 Q1267.04 1559.83 1277.38 1570.23 Q1278.51 1571.36 1278.51 1571.71 Q1278.51 1572.36 1277.83 1572.36 Q1277.38 1572.36 1275.8 1571.04 Q1274.23 1569.72 1271.78 1566.69 Q1269.33 1563.66 1267.56 1559.96 Q1263.21 1550.97 1263.21 1539.38 Z" fill="#000000" fill-rule="nonzero" fill-opacity="1" /><path clip-path="url(#clip940)" d="M1284.84 1555 L1284.84 1546.3 Q1284.84 1545.56 1284.88 1545.3 Q1284.91 1545.05 1285.1 1544.85 Q1285.29 1544.66 1285.68 1544.66 Q1286.13 1544.66 1286.29 1544.85 Q1286.49 1545.05 1286.61 1545.79 Q1287.61 1550.33 1289.74 1552.74 Q1291.9 1555.13 1295.79 1555.13 Q1299.5 1555.13 1301.37 1553.48 Q1303.23 1551.84 1303.23 1549.14 Q1303.23 1544.31 1296.37 1543.08 Q1292.41 1542.28 1290.77 1541.76 Q1289.13 1541.21 1287.68 1540.02 Q1284.84 1537.7 1284.84 1534.42 Q1284.84 1531.13 1287.32 1528.72 Q1289.84 1526.3 1295.37 1526.3 Q1299.08 1526.3 1301.59 1528.17 Q1302.33 1527.59 1302.72 1527.11 Q1303.59 1526.3 1304.04 1526.3 Q1304.55 1526.3 1304.65 1526.66 Q1304.75 1526.98 1304.75 1527.91 L1304.75 1534.55 Q1304.75 1535.29 1304.71 1535.55 Q1304.68 1535.8 1304.49 1536 Q1304.3 1536.16 1303.88 1536.16 Q1303.14 1536.16 1303.1 1535.55 Q1302.59 1527.56 1295.37 1527.56 Q1291.48 1527.56 1289.74 1529.07 Q1288 1530.55 1288 1532.58 Q1288 1533.71 1288.52 1534.58 Q1289.06 1535.42 1289.74 1535.93 Q1290.45 1536.42 1291.74 1536.9 Q1293.02 1537.35 1293.8 1537.51 Q1294.6 1537.67 1296.12 1537.99 Q1301.4 1538.99 1303.62 1541.15 Q1306.39 1543.92 1306.39 1547.43 Q1306.39 1551.33 1303.75 1553.97 Q1301.11 1556.61 1295.79 1556.61 Q1291.51 1556.61 1288.52 1553.74 Q1288.13 1554.13 1287.84 1554.48 Q1287.55 1554.8 1287.42 1554.93 Q1287.32 1555.06 1287.29 1555.16 Q1287.26 1555.22 1287.19 1555.29 Q1285.87 1556.61 1285.55 1556.61 Q1285.04 1556.61 1284.94 1556.25 Q1284.84 1555.93 1284.84 1555 Z" fill="#000000" fill-rule="nonzero" fill-opacity="1" /><path clip-path="url(#clip940)" d="M1310.29 1541.34 Q1310.29 1535.13 1314.28 1530.72 Q1318.28 1526.3 1324.01 1526.3 Q1329.81 1526.3 1332.8 1530.07 Q1335.83 1533.84 1335.83 1539.25 Q1335.83 1540.25 1335.57 1540.44 Q1335.31 1540.63 1334.19 1540.63 L1315.76 1540.63 Q1315.76 1547.37 1317.76 1550.52 Q1320.53 1554.93 1325.2 1554.93 Q1325.85 1554.93 1326.62 1554.8 Q1327.39 1554.68 1328.97 1554.13 Q1330.55 1553.55 1331.93 1552.04 Q1333.32 1550.52 1334.12 1548.14 Q1334.32 1547.2 1334.96 1547.24 Q1335.83 1547.24 1335.83 1548.01 Q1335.83 1548.59 1335.18 1549.91 Q1334.57 1551.2 1333.38 1552.74 Q1332.19 1554.29 1329.87 1555.45 Q1327.58 1556.61 1324.81 1556.61 Q1319.02 1556.61 1314.64 1552.23 Q1310.29 1547.82 1310.29 1541.34 M1315.83 1539.25 L1331.48 1539.25 Q1331.48 1537.86 1331.22 1536.32 Q1331 1534.77 1330.29 1532.65 Q1329.61 1530.49 1328 1529.14 Q1326.39 1527.78 1324.01 1527.78 Q1322.95 1527.78 1321.79 1528.24 Q1320.66 1528.69 1319.28 1529.78 Q1317.89 1530.88 1316.92 1533.36 Q1315.96 1535.84 1315.83 1539.25 Z" fill="#000000" fill-rule="nonzero" fill-opacity="1" /><path clip-path="url(#clip940)" d="M1343.47 1552.26 Q1339.29 1547.88 1339.29 1541.63 Q1339.29 1535.35 1343.41 1530.84 Q1347.53 1526.3 1353.58 1526.3 Q1357.61 1526.3 1360.64 1528.24 Q1363.67 1530.14 1363.67 1533.39 Q1363.67 1534.84 1362.8 1535.67 Q1361.96 1536.48 1360.64 1536.48 Q1359.25 1536.48 1358.42 1535.64 Q1357.61 1534.77 1357.61 1533.45 Q1357.61 1532.87 1357.8 1532.29 Q1358 1531.71 1358.71 1531.1 Q1359.45 1530.49 1360.7 1530.39 Q1358.35 1527.98 1353.78 1527.98 Q1353.71 1527.98 1353.65 1527.98 Q1350.3 1527.98 1347.53 1531.13 Q1344.76 1534.29 1344.76 1541.5 Q1344.76 1545.27 1345.66 1548.04 Q1346.6 1550.78 1348.11 1552.2 Q1349.62 1553.61 1351.11 1554.29 Q1352.59 1554.93 1354.04 1554.93 Q1360.51 1554.93 1362.7 1548.01 Q1362.89 1547.37 1363.54 1547.37 Q1364.41 1547.37 1364.41 1548.01 Q1364.41 1548.33 1364.15 1549.17 Q1363.89 1550.01 1363.09 1551.33 Q1362.28 1552.65 1361.12 1553.81 Q1359.99 1554.93 1357.96 1555.77 Q1355.97 1556.61 1353.46 1556.61 Q1347.66 1556.61 1343.47 1552.26 Z" fill="#000000" fill-rule="nonzero" fill-opacity="1" /><path clip-path="url(#clip940)" d="M1372.1 1552.33 Q1367.75 1548.01 1367.75 1541.76 Q1367.75 1535.48 1372 1530.91 Q1376.29 1526.3 1382.41 1526.3 Q1388.4 1526.3 1392.68 1530.88 Q1397 1535.42 1397 1541.76 Q1397 1547.98 1392.65 1552.29 Q1388.33 1556.61 1382.34 1556.61 Q1376.48 1556.61 1372.1 1552.33 M1373.23 1541.21 Q1373.23 1547.62 1374.9 1550.52 Q1377.48 1554.93 1382.41 1554.93 Q1384.85 1554.93 1386.88 1553.61 Q1388.94 1552.29 1390.07 1550.07 Q1391.52 1547.17 1391.52 1541.21 Q1391.52 1534.87 1389.78 1532.07 Q1387.21 1527.78 1382.34 1527.78 Q1380.22 1527.78 1378.12 1528.91 Q1376.06 1530.01 1374.81 1532.2 Q1373.23 1535.09 1373.23 1541.21 Z" fill="#000000" fill-rule="nonzero" fill-opacity="1" /><path clip-path="url(#clip940)" d="M1399.1 1555.87 L1399.1 1553.84 Q1402.61 1553.84 1403.41 1553.42 Q1404.22 1552.97 1404.22 1550.84 L1404.22 1533.16 Q1404.22 1530.72 1403.35 1530.1 Q1402.51 1529.49 1399.1 1529.49 L1399.1 1527.43 L1408.37 1526.72 L1408.37 1533.65 Q1411.46 1526.72 1418.13 1526.72 Q1423.09 1526.72 1425.06 1529.17 Q1426.5 1530.81 1426.79 1532.65 Q1427.12 1534.48 1427.12 1539.25 L1427.12 1551.84 Q1427.18 1553.23 1428.24 1553.55 Q1429.31 1553.84 1432.27 1553.84 L1432.27 1555.87 Q1425.54 1555.67 1424.86 1555.67 Q1424.35 1555.67 1417.42 1555.87 L1417.42 1553.84 Q1420.93 1553.84 1421.74 1553.42 Q1422.58 1552.97 1422.58 1550.84 L1422.58 1535.48 Q1422.58 1532.13 1421.54 1530.17 Q1420.51 1528.17 1417.68 1528.17 Q1414.27 1528.17 1411.53 1531.04 Q1408.79 1533.9 1408.79 1538.73 L1408.79 1550.84 Q1408.79 1552.97 1409.6 1553.42 Q1410.43 1553.84 1413.91 1553.84 L1413.91 1555.87 Q1407.18 1555.67 1406.54 1555.67 Q1406.02 1555.67 1399.1 1555.87 Z" fill="#000000" fill-rule="nonzero" fill-opacity="1" /><path clip-path="url(#clip940)" d="M1436.92 1541.7 Q1436.92 1535.42 1441.3 1531.07 Q1445.68 1526.72 1451.6 1526.72 Q1456.63 1526.72 1459.91 1530.81 L1459.91 1516.54 Q1459.91 1514.1 1459.04 1513.48 Q1458.21 1512.87 1454.79 1512.87 L1454.79 1510.81 L1464.29 1510.1 L1464.29 1550.14 Q1464.29 1552.58 1465.13 1553.23 Q1466 1553.84 1469.41 1553.84 L1469.41 1555.87 L1459.72 1556.61 L1459.72 1552.23 Q1456.31 1556.58 1450.9 1556.61 Q1445.23 1556.61 1441.07 1552.26 Q1436.92 1547.91 1436.92 1541.7 M1442.39 1541.76 Q1442.39 1547.88 1444.29 1550.91 Q1446.93 1555.13 1451.22 1555.13 Q1456.11 1555.13 1459.01 1550.52 Q1459.75 1549.39 1459.72 1548.07 L1459.72 1534.55 Q1459.72 1533.23 1459.01 1532.13 Q1456.31 1528.17 1451.89 1528.17 Q1447.29 1528.17 1444.42 1532.39 Q1442.39 1535.55 1442.39 1541.76 Z" fill="#000000" fill-rule="nonzero" fill-opacity="1" /><path clip-path="url(#clip940)" d="M1473.42 1555 L1473.42 1546.3 Q1473.42 1545.56 1473.45 1545.3 Q1473.48 1545.05 1473.68 1544.85 Q1473.87 1544.66 1474.26 1544.66 Q1474.71 1544.66 1474.87 1544.85 Q1475.06 1545.05 1475.19 1545.79 Q1476.19 1550.33 1478.31 1552.74 Q1480.47 1555.13 1484.37 1555.13 Q1488.07 1555.13 1489.94 1553.48 Q1491.81 1551.84 1491.81 1549.14 Q1491.81 1544.31 1484.95 1543.08 Q1480.99 1542.28 1479.34 1541.76 Q1477.7 1541.21 1476.25 1540.02 Q1473.42 1537.7 1473.42 1534.42 Q1473.42 1531.13 1475.9 1528.72 Q1478.41 1526.3 1483.95 1526.3 Q1487.65 1526.3 1490.17 1528.17 Q1490.91 1527.59 1491.29 1527.11 Q1492.16 1526.3 1492.61 1526.3 Q1493.13 1526.3 1493.23 1526.66 Q1493.32 1526.98 1493.32 1527.91 L1493.32 1534.55 Q1493.32 1535.29 1493.29 1535.55 Q1493.26 1535.8 1493.06 1536 Q1492.87 1536.16 1492.45 1536.16 Q1491.71 1536.16 1491.68 1535.55 Q1491.16 1527.56 1483.95 1527.56 Q1480.05 1527.56 1478.31 1529.07 Q1476.57 1530.55 1476.57 1532.58 Q1476.57 1533.71 1477.09 1534.58 Q1477.64 1535.42 1478.31 1535.93 Q1479.02 1536.42 1480.31 1536.9 Q1481.6 1537.35 1482.37 1537.51 Q1483.18 1537.67 1484.69 1537.99 Q1489.97 1538.99 1492.19 1541.15 Q1494.96 1543.92 1494.96 1547.43 Q1494.96 1551.33 1492.32 1553.97 Q1489.68 1556.61 1484.37 1556.61 Q1480.09 1556.61 1477.09 1553.74 Q1476.7 1554.13 1476.41 1554.48 Q1476.12 1554.8 1476 1554.93 Q1475.9 1555.06 1475.87 1555.16 Q1475.83 1555.22 1475.77 1555.29 Q1474.45 1556.61 1474.13 1556.61 Q1473.61 1556.61 1473.52 1556.25 Q1473.42 1555.93 1473.42 1555 Z" fill="#000000" fill-rule="nonzero" fill-opacity="1" /><path clip-path="url(#clip940)" d="M1500.18 1571.71 Q1500.18 1571.39 1501.02 1570.59 Q1511.65 1559.76 1511.65 1539.38 Q1511.65 1518.93 1501.44 1508.59 Q1500.18 1507.4 1500.18 1507.04 Q1500.18 1506.4 1500.83 1506.4 Q1501.28 1506.4 1502.86 1507.72 Q1504.47 1509.04 1506.88 1512.07 Q1509.33 1515.1 1511.13 1518.8 Q1515.48 1527.78 1515.48 1539.38 Q1515.48 1550.52 1511.33 1559.51 Q1509.56 1563.28 1507.08 1566.43 Q1504.6 1569.59 1502.95 1570.97 Q1501.31 1572.36 1500.83 1572.36 Q1500.18 1572.36 1500.18 1571.71 Z" fill="#000000" fill-rule="nonzero" fill-opacity="1" /><polyline clip-path="url(#clip940)" style="stroke:#000000; stroke-linecap:round; stroke-linejoin:round; stroke-width:4; stroke-opacity:1; fill:none" points="276.876,1423.18 276.876,47.2441 "/>
<polyline clip-path="url(#clip940)" style="stroke:#000000; stroke-linecap:round; stroke-linejoin:round; stroke-width:4; stroke-opacity:1; fill:none" points="276.876,1191.08 295.773,1191.08 "/>
<polyline clip-path="url(#clip940)" style="stroke:#000000; stroke-linecap:round; stroke-linejoin:round; stroke-width:4; stroke-opacity:1; fill:none" points="276.876,610.838 295.773,610.838 "/>
<path clip-path="url(#clip940)" d="M114.931 1210.87 L122.57 1210.87 L122.57 1184.51 L114.26 1186.18 L114.26 1181.92 L122.524 1180.25 L127.2 1180.25 L127.2 1210.87 L134.839 1210.87 L134.839 1214.81 L114.931 1214.81 L114.931 1210.87 Z" fill="#000000" fill-rule="nonzero" fill-opacity="1" /><path clip-path="url(#clip940)" d="M154.283 1183.33 Q150.672 1183.33 148.843 1186.89 Q147.038 1190.43 147.038 1197.56 Q147.038 1204.67 148.843 1208.24 Q150.672 1211.78 154.283 1211.78 Q157.917 1211.78 159.723 1208.24 Q161.552 1204.67 161.552 1197.56 Q161.552 1190.43 159.723 1186.89 Q157.917 1183.33 154.283 1183.33 M154.283 1179.62 Q160.093 1179.62 163.149 1184.23 Q166.227 1188.81 166.227 1197.56 Q166.227 1206.29 163.149 1210.9 Q160.093 1215.48 154.283 1215.48 Q148.473 1215.48 145.394 1210.9 Q142.339 1206.29 142.339 1197.56 Q142.339 1188.81 145.394 1184.23 Q148.473 1179.62 154.283 1179.62 Z" fill="#000000" fill-rule="nonzero" fill-opacity="1" /><path clip-path="url(#clip940)" d="M166.227 1173.73 L190.339 1173.73 L190.339 1176.92 L166.227 1176.92 L166.227 1173.73 Z" fill="#000000" fill-rule="nonzero" fill-opacity="1" /><path clip-path="url(#clip940)" d="M199.197 1184.2 L205.404 1184.2 L205.404 1162.78 L198.652 1164.13 L198.652 1160.67 L205.366 1159.32 L209.166 1159.32 L209.166 1184.2 L215.372 1184.2 L215.372 1187.4 L199.197 1187.4 L199.197 1184.2 Z" fill="#000000" fill-rule="nonzero" fill-opacity="1" /><path clip-path="url(#clip940)" d="M231.171 1161.82 Q228.237 1161.82 226.751 1164.72 Q225.284 1167.59 225.284 1173.39 Q225.284 1179.16 226.751 1182.06 Q228.237 1184.94 231.171 1184.94 Q234.124 1184.94 235.591 1182.06 Q237.076 1179.16 237.076 1173.39 Q237.076 1167.59 235.591 1164.72 Q234.124 1161.82 231.171 1161.82 M231.171 1158.81 Q235.891 1158.81 238.374 1162.55 Q240.876 1166.28 240.876 1173.39 Q240.876 1180.48 238.374 1184.22 Q235.891 1187.94 231.171 1187.94 Q226.45 1187.94 223.949 1184.22 Q221.466 1180.48 221.466 1173.39 Q221.466 1166.28 223.949 1162.55 Q226.45 1158.81 231.171 1158.81 Z" fill="#000000" fill-rule="nonzero" fill-opacity="1" /><path clip-path="url(#clip940)" d="M140.247 630.63 L147.886 630.63 L147.886 604.265 L139.575 605.932 L139.575 601.672 L147.839 600.006 L152.515 600.006 L152.515 630.63 L160.154 630.63 L160.154 634.566 L140.247 634.566 L140.247 630.63 Z" fill="#000000" fill-rule="nonzero" fill-opacity="1" /><path clip-path="url(#clip940)" d="M179.598 603.084 Q175.987 603.084 174.159 606.649 Q172.353 610.191 172.353 617.32 Q172.353 624.427 174.159 627.992 Q175.987 631.533 179.598 631.533 Q183.233 631.533 185.038 627.992 Q186.867 624.427 186.867 617.32 Q186.867 610.191 185.038 606.649 Q183.233 603.084 179.598 603.084 M179.598 599.381 Q185.409 599.381 188.464 603.987 Q191.543 608.57 191.543 617.32 Q191.543 626.047 188.464 630.654 Q185.409 635.237 179.598 635.237 Q173.788 635.237 170.71 630.654 Q167.654 626.047 167.654 617.32 Q167.654 608.57 170.71 603.987 Q173.788 599.381 179.598 599.381 Z" fill="#000000" fill-rule="nonzero" fill-opacity="1" /><path clip-path="url(#clip940)" d="M191.543 593.482 L215.654 593.482 L215.654 596.679 L191.543 596.679 L191.543 593.482 Z" fill="#000000" fill-rule="nonzero" fill-opacity="1" /><path clip-path="url(#clip940)" d="M223.892 579.075 L238.807 579.075 L238.807 582.273 L227.372 582.273 L227.372 589.156 Q228.199 588.874 229.027 588.742 Q229.854 588.592 230.682 588.592 Q235.384 588.592 238.13 591.169 Q240.876 593.745 240.876 598.146 Q240.876 602.679 238.054 605.199 Q235.233 607.701 230.099 607.701 Q228.331 607.701 226.488 607.4 Q224.663 607.099 222.707 606.497 L222.707 602.679 Q224.4 603.601 226.205 604.052 Q228.011 604.503 230.023 604.503 Q233.277 604.503 235.177 602.792 Q237.076 601.08 237.076 598.146 Q237.076 595.212 235.177 593.501 Q233.277 591.789 230.023 591.789 Q228.5 591.789 226.977 592.128 Q225.472 592.466 223.892 593.181 L223.892 579.075 Z" fill="#000000" fill-rule="nonzero" fill-opacity="1" /><path clip-path="url(#clip940)" d="M66.0841 1072.66 L64.0551 1072.66 Q64.0551 1070.27 63.6042 1068.76 Q63.1212 1067.25 62.2516 1066.7 Q61.3498 1066.12 60.7701 1065.99 Q60.1582 1065.86 59.1598 1065.86 L26.181 1065.86 Q24.2809 1065.86 23.7012 1066.7 Q23.0893 1067.5 23.0893 1071.08 L23.0893 1072.66 L21.0281 1072.66 L21.0281 1061.51 Q21.0281 1060.32 21.2535 1060 Q21.4468 1059.68 22.4774 1059.19 L59.4175 1044.9 L22.2841 1030.47 Q21.3502 1030.14 21.1891 1029.85 Q21.0281 1029.53 21.0281 1028.28 L21.0281 1017.13 L23.0893 1017.13 L23.0893 1018.71 Q23.0893 1022.29 23.7012 1023.12 Q24.2809 1023.93 26.181 1023.93 L60.9312 1023.93 Q62.8313 1023.93 63.4432 1023.12 Q64.0551 1022.29 64.0551 1018.71 L64.0551 1017.13 L66.0841 1017.13 Q65.8909 1019.58 65.8909 1026.57 Q65.8909 1033.62 66.0841 1036.07 L64.0551 1036.07 L64.0551 1034.46 Q64.0551 1030.89 63.4754 1030.08 Q62.8635 1029.28 60.9312 1029.28 L23.0893 1029.28 L23.0893 1029.34 L64.8281 1045.54 Q66.0841 1045.99 66.0841 1046.73 Q66.0841 1047.54 64.6348 1048.05 L23.6046 1063.96 L23.6046 1064.03 L59.1598 1064.03 Q60.1582 1064.03 60.7701 1063.9 Q61.3498 1063.77 62.2516 1063.22 Q63.1212 1062.64 63.6042 1061.13 Q64.0551 1059.61 64.0551 1057.23 L66.0841 1057.23 Q65.8909 1064.15 65.8909 1064.96 Q65.8909 1065.73 66.0841 1072.66 Z" fill="#000000" fill-rule="nonzero" fill-opacity="1" /><path clip-path="url(#clip940)" d="M66.0841 1006.77 L64.0551 1006.77 Q64.0551 1003.26 63.6364 1002.46 Q63.1856 1001.65 61.06 1001.65 L43.3146 1001.65 Q40.8669 1001.65 40.2872 1002.49 Q39.7075 1003.3 39.7075 1006.52 L37.6463 1006.52 L36.9378 997.306 L61.1244 997.306 Q63.0889 997.306 63.572 996.598 Q64.0551 995.889 64.0551 992.669 L66.0841 992.669 Q65.8909 999.4 65.8909 999.528 Q65.8909 1000.43 66.0841 1006.77 M25.4403 1004.01 Q24.1199 1004.01 23.0571 1003.01 Q21.9621 1001.98 21.9621 1000.53 Q21.9621 999.078 22.9604 998.047 Q23.9266 997.016 25.4725 997.016 Q26.9862 997.016 27.9846 998.047 Q28.9507 999.078 28.9507 1000.53 Q28.9507 1002.04 27.8879 1003.04 Q26.8252 1004.01 25.4403 1004.01 Z" fill="#000000" fill-rule="nonzero" fill-opacity="1" /><path clip-path="url(#clip940)" d="M66.0841 988.16 L64.0551 988.16 Q64.0551 984.65 63.6364 983.845 Q63.1856 983.04 61.06 983.04 L43.379 983.04 Q40.9313 983.04 40.3194 983.909 Q39.7075 984.747 39.7075 988.16 L37.6463 988.16 L36.9378 978.885 L43.8621 978.885 Q36.9378 975.793 36.9378 969.127 Q36.9378 964.167 39.3854 962.202 Q41.0279 960.753 42.8637 960.463 Q44.6994 960.141 49.4659 960.141 L62.0584 960.141 Q63.4432 960.077 63.7653 959.014 Q64.0551 957.951 64.0551 954.988 L66.0841 954.988 Q65.8909 961.719 65.8909 962.396 Q65.8909 962.911 66.0841 969.835 L64.0551 969.835 Q64.0551 966.325 63.6364 965.52 Q63.1856 964.682 61.06 964.682 L45.6978 964.682 Q42.3484 964.682 40.3838 965.713 Q38.3871 966.743 38.3871 969.578 Q38.3871 972.991 41.2534 975.729 Q44.1197 978.466 48.9506 978.466 L61.06 978.466 Q63.1856 978.466 63.6364 977.661 Q64.0551 976.824 64.0551 973.346 L66.0841 973.346 Q65.8909 980.077 65.8909 980.721 Q65.8909 981.236 66.0841 988.16 Z" fill="#000000" fill-rule="nonzero" fill-opacity="1" /><path clip-path="url(#clip940)" d="M66.0841 951.66 L64.0551 951.66 Q64.0551 948.149 63.6364 947.344 Q63.1856 946.539 61.06 946.539 L43.3146 946.539 Q40.8669 946.539 40.2872 947.376 Q39.7075 948.181 39.7075 951.402 L37.6463 951.402 L36.9378 942.191 L61.1244 942.191 Q63.0889 942.191 63.572 941.483 Q64.0551 940.774 64.0551 937.553 L66.0841 937.553 Q65.8909 944.285 65.8909 944.413 Q65.8909 945.315 66.0841 951.66 M25.4403 948.89 Q24.1199 948.89 23.0571 947.892 Q21.9621 946.861 21.9621 945.412 Q21.9621 943.962 22.9604 942.932 Q23.9266 941.901 25.4725 941.901 Q26.9862 941.901 27.9846 942.932 Q28.9507 943.962 28.9507 945.412 Q28.9507 946.925 27.8879 947.924 Q26.8252 948.89 25.4403 948.89 Z" fill="#000000" fill-rule="nonzero" fill-opacity="1" /><path clip-path="url(#clip940)" d="M66.0841 933.045 L64.0551 933.045 Q64.0551 929.535 63.6364 928.73 Q63.1856 927.924 61.06 927.924 L43.379 927.924 Q40.9313 927.924 40.3194 928.794 Q39.7075 929.631 39.7075 933.045 L37.6463 933.045 L36.9378 923.77 L43.8621 923.77 Q36.9378 920.678 36.9378 914.012 Q36.9378 906.282 43.379 905.219 Q40.8669 904.092 38.9023 901.741 Q36.9378 899.358 36.9378 895.654 Q36.9378 890.695 39.3854 888.73 Q41.0279 887.281 42.8637 886.991 Q44.6994 886.701 49.4659 886.701 L62.0584 886.701 Q63.4432 886.637 63.7653 885.574 Q64.0551 884.511 64.0551 881.548 L66.0841 881.548 Q65.8909 888.279 65.8909 888.923 Q65.8909 889.438 66.0841 896.395 L64.0551 896.395 Q64.0551 892.885 63.6364 892.079 Q63.1856 891.242 61.06 891.242 L45.6978 891.242 Q42.3484 891.242 40.3838 892.273 Q38.3871 893.303 38.3871 896.137 Q38.3871 899.551 41.2534 902.289 Q44.1197 905.026 48.9506 905.026 L61.06 905.026 Q63.1856 905.026 63.6364 904.221 Q64.0551 903.384 64.0551 899.873 L66.0841 899.873 Q65.8909 906.604 65.8909 907.281 Q65.8909 907.796 66.0841 914.72 L64.0551 914.72 Q64.0551 911.21 63.6364 910.405 Q63.1856 909.567 61.06 909.567 L45.6978 909.567 Q42.3484 909.567 40.3838 910.598 Q38.3871 911.628 38.3871 914.462 Q38.3871 917.876 41.2534 920.614 Q44.1197 923.351 48.9506 923.351 L61.06 923.351 Q63.1856 923.351 63.6364 922.546 Q64.0551 921.709 64.0551 918.231 L66.0841 918.231 Q65.8909 924.962 65.8909 925.606 Q65.8909 926.121 66.0841 933.045 Z" fill="#000000" fill-rule="nonzero" fill-opacity="1" /><path clip-path="url(#clip940)" d="M39.7075 878.922 L37.6463 878.922 L36.9378 869.228 L58.8378 869.228 Q60.4159 869.228 61.3498 869.1 Q62.2516 868.971 63.3144 868.455 Q64.3772 867.908 64.8603 866.684 Q65.3434 865.428 65.3434 863.431 Q65.3434 859.856 62.4126 857.666 Q59.4819 855.444 55.1341 855.444 L43.379 855.444 Q40.9313 855.444 40.3194 856.314 Q39.7075 857.183 39.7075 860.597 L37.6463 860.597 L36.9378 850.903 L60.3515 850.903 Q62.7991 850.903 63.4432 850.066 Q64.0551 849.196 64.0551 845.75 L66.0841 845.75 L66.8248 855.251 L60.8667 855.251 Q66.7926 858.021 66.8248 863.753 Q66.8248 866.652 66.0841 868.649 Q65.3434 870.613 64.4416 871.612 Q63.5076 872.61 61.7363 873.157 Q59.965 873.673 58.87 873.737 Q57.775 873.802 55.6494 873.802 L45.7622 873.802 Q41.2856 873.802 40.5126 874.446 Q39.7075 875.09 39.7075 878.922 Z" fill="#000000" fill-rule="nonzero" fill-opacity="1" /><path clip-path="url(#clip940)" d="M66.0841 843.478 L64.0551 843.478 Q64.0551 839.967 63.6364 839.162 Q63.1856 838.357 61.06 838.357 L43.379 838.357 Q40.9313 838.357 40.3194 839.226 Q39.7075 840.064 39.7075 843.478 L37.6463 843.478 L36.9378 834.202 L43.8621 834.202 Q36.9378 831.111 36.9378 824.444 Q36.9378 816.715 43.379 815.652 Q40.8669 814.525 38.9023 812.173 Q36.9378 809.79 36.9378 806.087 Q36.9378 801.127 39.3854 799.162 Q41.0279 797.713 42.8637 797.423 Q44.6994 797.133 49.4659 797.133 L62.0584 797.133 Q63.4432 797.069 63.7653 796.006 Q64.0551 794.943 64.0551 791.98 L66.0841 791.98 Q65.8909 798.711 65.8909 799.356 Q65.8909 799.871 66.0841 806.827 L64.0551 806.827 Q64.0551 803.317 63.6364 802.512 Q63.1856 801.674 61.06 801.674 L45.6978 801.674 Q42.3484 801.674 40.3838 802.705 Q38.3871 803.736 38.3871 806.57 Q38.3871 809.984 41.2534 812.721 Q44.1197 815.458 48.9506 815.458 L61.06 815.458 Q63.1856 815.458 63.6364 814.653 Q64.0551 813.816 64.0551 810.306 L66.0841 810.306 Q65.8909 817.037 65.8909 817.713 Q65.8909 818.228 66.0841 825.152 L64.0551 825.152 Q64.0551 821.642 63.6364 820.837 Q63.1856 820 61.06 820 L45.6978 820 Q42.3484 820 40.3838 821.03 Q38.3871 822.061 38.3871 824.895 Q38.3871 828.309 41.2534 831.046 Q44.1197 833.784 48.9506 833.784 L61.06 833.784 Q63.1856 833.784 63.6364 832.978 Q64.0551 832.141 64.0551 828.663 L66.0841 828.663 Q65.8909 835.394 65.8909 836.038 Q65.8909 836.553 66.0841 843.478 Z" fill="#000000" fill-rule="nonzero" fill-opacity="1" /><path clip-path="url(#clip940)" d="M43.7332 788.035 Q33.6528 788.035 26.6319 781.593 Q19.5788 775.12 19.5788 766.135 Q19.5788 757.085 26.6319 750.644 Q33.685 744.17 43.7332 744.17 Q53.6848 744.17 60.6091 750.644 Q67.5334 757.117 67.5334 766.135 Q67.5334 775.023 60.6413 781.529 Q53.7493 788.035 43.7332 788.035 M42.7993 781.239 Q48.9184 781.239 53.6204 779.79 Q58.2903 778.341 60.8345 776.022 Q63.3788 773.671 64.6026 771.159 Q65.8264 768.647 65.8264 766.07 Q65.8264 763.558 64.6348 761.111 Q63.4432 758.631 60.9312 756.28 Q58.4191 753.929 53.717 752.447 Q49.015 750.966 42.7993 750.966 Q37.9684 750.966 34.1037 751.996 Q30.2068 753.027 27.8557 754.637 Q25.5047 756.247 23.9588 758.341 Q22.4129 760.402 21.8332 762.367 Q21.2213 764.299 21.2213 766.135 Q21.2213 768.453 22.2519 770.869 Q23.2825 773.284 25.5691 775.732 Q27.8235 778.147 32.3001 779.693 Q36.7446 781.239 42.7993 781.239 Z" fill="#000000" fill-rule="nonzero" fill-opacity="1" /><path clip-path="url(#clip940)" d="M23.0893 736.492 L21.0281 736.492 L20.3196 726.991 L41.2212 726.991 Q36.9378 723.159 36.9378 717.942 Q36.9378 712.273 41.2856 708.119 Q45.6334 703.964 51.8491 703.964 Q58.1292 703.964 62.477 708.312 Q66.8248 712.66 66.8248 718.682 Q66.8248 724.157 61.994 727.313 Q66.0197 729.632 66.0841 729.697 L66.0841 731.339 L26.7607 731.339 Q24.3131 731.339 23.7012 732.209 Q23.0893 733.078 23.0893 736.492 M58.5801 726.798 Q59.965 726.798 61.3498 725.864 Q65.3434 723.256 65.3434 719.004 Q65.3434 718.972 65.3434 718.94 Q65.3434 714.335 61.1244 711.468 Q57.9682 709.439 51.7847 709.439 Q45.6656 709.439 42.606 711.339 Q38.3871 713.98 38.3871 718.264 Q38.3871 723.095 42.606 726.057 Q43.6688 726.798 44.9893 726.798 L58.5801 726.798 Z" fill="#000000" fill-rule="nonzero" fill-opacity="1" /><path clip-path="url(#clip940)" d="M74.3288 704.215 Q73.0084 704.215 72.1388 703.378 Q71.3014 702.573 71.3014 701.188 Q71.3014 699.803 72.1388 698.998 Q73.0084 698.161 74.3288 698.161 Q75.5204 698.161 76.2611 698.869 Q77.0341 699.546 77.2917 700.447 Q78.1613 698.74 78.1613 696.905 Q78.1613 695.391 77.2595 694.36 Q76.3578 693.33 74.8763 692.879 Q73.3948 692.396 72.1388 692.235 Q70.915 692.074 69.4979 692.074 L43.379 692.074 Q40.9313 692.074 40.3194 693.04 Q39.7075 693.974 39.7075 697.742 L37.6463 697.742 L36.9378 687.726 L69.3691 687.726 Q73.7813 687.726 76.6798 690.367 Q79.6106 693.008 79.6106 696.744 Q79.6106 699.771 78.1935 701.993 Q76.7764 704.215 74.3288 704.215 M27.9524 693.684 Q26.9218 694.715 25.4725 694.715 Q24.0232 694.715 22.9927 693.684 Q21.9621 692.654 21.9621 691.204 Q21.9621 689.755 22.9927 688.724 Q24.0232 687.694 25.4725 687.694 Q26.9218 687.694 27.9524 688.724 Q28.9507 689.755 28.9507 691.204 Q28.9507 692.654 27.9524 693.684 Z" fill="#000000" fill-rule="nonzero" fill-opacity="1" /><path clip-path="url(#clip940)" d="M51.5593 676.919 Q45.3435 676.919 40.9313 672.925 Q36.5191 668.932 36.5191 663.199 Q36.5191 657.402 40.2872 654.407 Q44.0553 651.38 49.4659 651.38 Q50.4643 651.38 50.6575 651.637 Q50.8507 651.895 50.8507 653.022 L50.8507 671.444 Q57.5817 671.444 60.7379 669.447 Q65.1501 666.677 65.1501 662.007 Q65.1501 661.363 65.0213 660.59 Q64.8925 659.817 64.345 658.239 Q63.7653 656.661 62.2516 655.276 Q60.7379 653.892 58.3547 653.086 Q57.4207 652.893 57.4529 652.249 Q57.4529 651.38 58.2259 651.38 Q58.8056 651.38 60.126 652.024 Q61.4142 652.636 62.9601 653.827 Q64.506 655.019 65.6654 657.338 Q66.8248 659.624 66.8248 662.394 Q66.8248 668.191 62.4448 672.571 Q58.0326 676.919 51.5593 676.919 M49.4659 671.379 L49.4659 655.727 Q48.081 655.727 46.5351 655.985 Q44.9893 656.21 42.8637 656.919 Q40.7059 657.595 39.3532 659.206 Q38.0006 660.816 38.0006 663.199 Q38.0006 664.262 38.4515 665.421 Q38.9023 666.549 39.9973 667.933 Q41.0923 669.318 43.5722 670.284 Q46.052 671.251 49.4659 671.379 Z" fill="#000000" fill-rule="nonzero" fill-opacity="1" /><path clip-path="url(#clip940)" d="M62.477 643.736 Q58.097 647.923 51.8491 647.923 Q45.569 647.923 41.0601 643.801 Q36.5191 639.678 36.5191 633.624 Q36.5191 629.598 38.4515 626.571 Q40.3516 623.543 43.6044 623.543 Q45.0537 623.543 45.891 624.413 Q46.6962 625.25 46.6962 626.571 Q46.6962 627.955 45.8588 628.793 Q44.9893 629.598 43.6688 629.598 Q43.0891 629.598 42.5094 629.405 Q41.9297 629.211 41.3178 628.503 Q40.7059 627.762 40.6093 626.506 Q38.1938 628.857 38.1938 633.43 Q38.1938 633.495 38.1938 633.559 Q38.1938 636.909 41.35 639.678 Q44.5062 642.448 51.7203 642.448 Q55.4884 642.448 58.2581 641.546 Q60.9956 640.612 62.4126 639.099 Q63.8297 637.585 64.506 636.104 Q65.1501 634.622 65.1501 633.173 Q65.1501 626.699 58.2259 624.509 Q57.5817 624.316 57.5817 623.672 Q57.5817 622.803 58.2259 622.803 Q58.5479 622.803 59.3853 623.06 Q60.2226 623.318 61.5431 624.123 Q62.8635 624.928 64.0229 626.088 Q65.1501 627.215 65.9875 629.244 Q66.8248 631.24 66.8248 633.752 Q66.8248 639.55 62.477 643.736 Z" fill="#000000" fill-rule="nonzero" fill-opacity="1" /><path clip-path="url(#clip940)" d="M39.7075 620.511 L38.2582 620.511 Q38.1294 617.484 36.0038 615.487 Q33.846 613.458 31.2051 612.782 Q28.5643 612.073 25.5047 612.009 L25.5047 610.367 L37.6463 610.367 L37.6463 600.93 L39.7075 600.93 L39.7075 610.367 L58.0326 610.367 Q65.1501 610.367 65.1501 605.922 Q65.1501 604.022 63.2178 602.766 Q61.2532 601.51 57.775 601.51 L54.1357 601.51 L54.1357 599.867 L57.9038 599.867 Q61.4787 599.867 64.1517 601.51 Q66.8248 603.152 66.8248 606.405 Q66.8248 607.597 66.5028 608.788 Q66.2129 609.948 65.44 611.494 Q64.6348 613.007 62.7025 613.974 Q60.7379 614.908 57.9038 614.908 L39.7075 614.908 L39.7075 620.511 Z" fill="#000000" fill-rule="nonzero" fill-opacity="1" /><path clip-path="url(#clip940)" d="M66.0841 595.976 L64.0551 595.976 Q64.0551 592.466 63.6364 591.66 Q63.1856 590.855 61.06 590.855 L43.3146 590.855 Q40.8669 590.855 40.2872 591.693 Q39.7075 592.498 39.7075 595.718 L37.6463 595.718 L36.9378 586.507 L61.1244 586.507 Q63.0889 586.507 63.572 585.799 Q64.0551 585.09 64.0551 581.87 L66.0841 581.87 Q65.8909 588.601 65.8909 588.73 Q65.8909 589.631 66.0841 595.976 M25.4403 593.206 Q24.1199 593.206 23.0571 592.208 Q21.9621 591.177 21.9621 589.728 Q21.9621 588.279 22.9604 587.248 Q23.9266 586.218 25.4725 586.218 Q26.9862 586.218 27.9846 587.248 Q28.9507 588.279 28.9507 589.728 Q28.9507 591.242 27.8879 592.24 Q26.8252 593.206 25.4403 593.206 Z" fill="#000000" fill-rule="nonzero" fill-opacity="1" /><path clip-path="url(#clip940)" d="M39.7075 577.361 L37.6463 577.361 Q37.8396 574.399 37.8396 570.953 Q37.8396 569.697 37.6463 563.771 L39.7075 563.771 Q39.7075 567.539 41.4144 567.539 Q41.6721 567.539 42.5416 567.152 L60.9312 559.745 L44.1197 553.014 Q42.9925 552.627 42.5416 552.627 Q41.4144 552.627 40.6093 553.4 Q39.7719 554.141 39.7075 555.784 L37.6463 555.784 Q37.8396 552.434 37.8396 550.051 Q37.8396 547.346 37.6463 545.123 L39.7075 545.123 Q39.7075 547.088 40.6093 548.473 Q41.4788 549.858 42.2518 550.309 Q42.9925 550.727 44.1197 551.178 L65.5688 559.809 Q66.8248 560.325 66.8248 561.194 Q66.8248 561.774 66.5672 562.032 Q66.3417 562.257 65.5688 562.579 L42.1551 572.08 Q40.5126 572.724 40.1262 573.561 Q39.7075 574.399 39.7075 577.361 Z" fill="#000000" fill-rule="nonzero" fill-opacity="1" /><path clip-path="url(#clip940)" d="M51.5593 541.053 Q45.3435 541.053 40.9313 537.059 Q36.5191 533.066 36.5191 527.333 Q36.5191 521.536 40.2872 518.541 Q44.0553 515.514 49.4659 515.514 Q50.4643 515.514 50.6575 515.771 Q50.8507 516.029 50.8507 517.156 L50.8507 535.578 Q57.5817 535.578 60.7379 533.581 Q65.1501 530.812 65.1501 526.142 Q65.1501 525.498 65.0213 524.725 Q64.8925 523.952 64.345 522.374 Q63.7653 520.796 62.2516 519.411 Q60.7379 518.026 58.3547 517.221 Q57.4207 517.027 57.4529 516.383 Q57.4529 515.514 58.2259 515.514 Q58.8056 515.514 60.126 516.158 Q61.4142 516.77 62.9601 517.961 Q64.506 519.153 65.6654 521.472 Q66.8248 523.758 66.8248 526.528 Q66.8248 532.325 62.4448 536.705 Q58.0326 541.053 51.5593 541.053 M49.4659 535.514 L49.4659 519.862 Q48.081 519.862 46.5351 520.119 Q44.9893 520.345 42.8637 521.053 Q40.7059 521.73 39.3532 523.34 Q38.0006 524.95 38.0006 527.333 Q38.0006 528.396 38.4515 529.556 Q38.9023 530.683 39.9973 532.068 Q41.0923 533.452 43.5722 534.419 Q46.052 535.385 49.4659 535.514 Z" fill="#000000" fill-rule="nonzero" fill-opacity="1" /><path clip-path="url(#clip940)" d="M60.5447 505.294 Q53.556 512.057 43.54 512.057 Q33.4918 512.057 26.5353 505.23 Q19.5788 498.402 19.5788 489.127 Q19.5788 486.808 20.1263 484.843 Q20.6416 482.847 21.7044 481.268 Q22.735 479.69 23.4435 478.885 Q24.1199 478.048 25.2471 476.921 L20.384 473.603 Q19.5788 473.088 19.5788 472.573 Q19.5788 472.025 19.9009 471.929 Q20.1907 471.832 21.1569 471.832 L36.809 471.832 Q37.8718 471.832 38.1294 471.961 Q38.3871 472.09 38.3871 472.895 Q38.3871 473.539 38.1938 473.668 Q38.0006 473.797 37.2598 473.958 Q30.1424 474.956 25.8912 478.95 Q21.64 482.911 21.64 488.322 Q21.64 489.9 21.9943 491.671 Q22.3485 493.41 23.7012 495.987 Q25.0538 498.531 27.276 500.495 Q29.466 502.428 33.7172 503.845 Q37.9362 505.262 43.54 505.262 Q49.0794 505.262 53.3306 503.845 Q57.5817 502.428 59.804 500.463 Q61.994 498.466 63.3788 495.89 Q64.7637 493.281 65.1501 491.446 Q65.5044 489.578 65.5044 487.935 Q65.5044 486.808 65.2789 485.487 Q65.0213 484.167 64.3128 482.202 Q63.572 480.206 61.8329 478.95 Q60.0938 477.694 57.5173 477.694 L53.2984 477.694 Q51.3338 477.694 50.7219 478.66 Q50.11 479.626 50.11 483.845 L50.11 485.938 L48.081 485.938 Q48.2743 483.555 48.2743 475.343 Q48.2743 474.602 48.081 467.291 L50.11 467.291 Q50.11 470.447 50.5931 471.156 Q51.044 471.832 53.0085 471.832 L64.506 471.832 Q66.0197 471.832 66.0197 472.412 Q66.0197 472.927 64.5382 474.473 Q63.0567 475.987 61.9295 476.663 Q64.6992 478.241 66.1163 481.687 Q67.5334 485.101 67.5334 488.998 Q67.5334 498.499 60.5447 505.294 Z" fill="#000000" fill-rule="nonzero" fill-opacity="1" /><path clip-path="url(#clip940)" d="M59.804 461.388 Q54.2001 461.388 51.2372 454.786 Q49.337 450.825 48.854 442.644 L46.4385 442.644 Q42.3484 442.644 40.1906 444.802 Q38.0006 446.928 38.0006 449.633 Q38.0006 454.464 41.0279 456.783 Q41.0923 454.818 42.0907 454.11 Q43.0569 453.401 44.0553 453.401 Q45.3757 453.401 46.2453 454.239 Q47.0826 455.044 47.0826 456.429 Q47.0826 457.749 46.2775 458.619 Q45.4401 459.488 43.9909 459.488 Q40.7703 459.488 38.6447 456.59 Q36.5191 453.659 36.5191 449.504 Q36.5191 444.094 40.1584 440.487 Q41.2856 439.359 42.7348 438.812 Q44.1841 438.232 45.1503 438.168 Q46.0843 438.103 47.9522 438.103 L61.1244 438.103 Q61.5109 438.103 62.155 437.975 Q62.7991 437.846 63.6364 437.266 Q64.4416 436.654 64.4416 435.656 Q64.4416 433.272 60.2226 433.305 L56.519 433.305 L56.519 431.63 L60.2226 431.63 Q63.7331 431.63 65.1179 433.498 Q66.4706 435.334 66.4706 437.041 Q66.4706 439.231 64.8603 440.615 Q63.25 442 61.06 442.194 Q63.572 443.192 65.2145 445.479 Q66.8248 447.733 66.8248 450.825 Q66.8248 453.208 66.2129 455.462 Q65.6332 457.685 63.9907 459.552 Q62.316 461.388 59.804 461.388 M59.7395 456.3 Q62.1872 456.3 63.7653 454.561 Q65.3434 452.821 65.3434 450.374 Q65.3434 447.604 63.2178 445.124 Q61.06 442.644 56.841 442.644 L50.2388 442.644 Q50.4965 449.955 53.4272 453.144 Q56.3257 456.3 59.7395 456.3 Z" fill="#000000" fill-rule="nonzero" fill-opacity="1" /><path clip-path="url(#clip940)" d="M76.8409 434.004 Q76.8409 430.494 76.39 429.689 Q75.9713 428.851 73.8779 428.851 L42.9925 428.851 Q40.8025 428.851 40.255 429.689 Q39.7075 430.494 39.7075 434.004 L37.6463 434.004 L36.9378 424.503 L41.2856 424.503 Q36.9378 420.542 36.9378 415.26 Q36.9378 409.657 41.2856 405.566 Q45.6334 401.476 51.8491 401.476 Q58.1292 401.476 62.477 405.824 Q66.8248 410.172 66.8248 416.194 Q66.8248 419.479 65.1501 421.702 Q63.4432 423.892 62.1872 424.31 L62.7991 424.31 L73.8779 424.31 Q76.0035 424.31 76.4222 423.473 Q76.8409 422.635 76.8409 419.157 L78.8698 419.157 Q78.6766 426.082 78.6766 426.597 Q78.6766 427.241 78.8698 434.004 L76.8409 434.004 M58.5801 424.31 Q59.5785 424.31 59.9328 424.181 Q60.287 424.02 61.3498 423.376 Q65.3434 420.768 65.3434 416.516 Q65.3434 416.484 65.3434 416.452 Q65.3434 412.684 61.5109 409.818 Q57.6462 406.951 51.8491 406.951 Q46.3097 406.951 42.445 409.56 Q38.5803 412.169 38.5803 415.776 Q38.5803 418.352 39.9651 420.607 Q41.35 422.861 43.8621 424.31 L58.5801 424.31 Z" fill="#000000" fill-rule="nonzero" fill-opacity="1" /><polyline clip-path="url(#clip942)" style="stroke:#785ef0; stroke-linecap:round; stroke-linejoin:round; stroke-width:8; stroke-opacity:1; fill:none" points="276.876,100.84 319.495,178.646 362.114,178.646 404.734,463.92 447.353,634.888 489.972,784.357 532.592,928.732 575.211,1070.55 617.83,1210.92 660.45,1353.41 703.069,1887.38 "/>
<polyline clip-path="url(#clip942)" style="stroke:#785ef0; stroke-linecap:round; stroke-linejoin:round; stroke-width:8; stroke-opacity:1; fill:none" stroke-dasharray="32, 20" points="276.876,100.84 318.393,199.215 359.911,199.215 401.428,447.588 442.946,632.009 484.464,787.326 525.981,932.726 567.499,1075.29 609.016,1216.54 650.534,1360.49 692.052,1887.38 "/>
<polyline clip-path="url(#clip942)" style="stroke:#fe6100; stroke-linecap:round; stroke-linejoin:round; stroke-width:8; stroke-opacity:1; fill:none" points="276.876,100.84 588.98,201.865 901.085,201.865 1213.19,201.865 1525.29,201.865 1837.4,246.626 2149.5,246.626 2461.61,273.822 2773.71,283.745 3085.82,394.233 3397.92,394.233 3710.03,462.883 4022.13,479.792 4334.24,505.733 4646.34,552.737 4958.45,552.737 5270.55,597.87 5582.66,597.87 5894.76,625.669 6206.87,640.555 6518.97,676.538 6831.08,694.538 7143.18,725.246 7455.29,730.269 7767.39,778.957 8079.49,778.957 8391.6,816.15 8703.7,816.15 9015.81,865.464 9327.91,865.464 9640.02,904.195 9952.12,904.195 10264.2,948.871 10576.3,1026.28 10888.4,1026.28 11200.5,1026.28 11512.6,1191.41 11824.8,1191.41 12136.9,1191.41 12449,1191.41 12761.1,1191.41 13073.2,1191.41 13385.3,1366.27 13697.4,1366.27 14009.5,1366.27 14321.6,1366.27 14633.7,1366.27 14945.8,1366.27 15257.9,1366.27 15570,1366.27 15882.1,1366.27 16194.2,1366.27 16506.3,1366.27 16818.4,1366.27 17130.5,1366.27 17442.6,1366.27 17754.7,1366.27 18066.8,1366.27 18379,1366.27 18691.1,1366.27 19003.2,1366.27 19315.3,1366.27 19627.4,1366.27 19939.5,1366.27 20251.6,1366.27 20563.7,1366.27 20875.8,1376.46 21187.9,1376.46 21500,1376.46 21812.1,1376.46 22124.2,1395.04 22436.3,1395.04 22748.4,1395.04 23060.5,1408.18 23372.6,1408.18 23684.7,1408.18 23996.8,1408.18 24308.9,1408.18 24621,1408.18 24933.2,1887.38 "/>
<polyline clip-path="url(#clip942)" style="stroke:#fe6100; stroke-linecap:round; stroke-linejoin:round; stroke-width:8; stroke-opacity:1; fill:none" stroke-dasharray="32, 20" points="276.876,100.84 689.746,161.47 1102.62,180.027 1515.49,187.972 1928.36,418.904 2341.23,418.904 2754.1,429.738 3166.97,457.426 3579.84,487.209 3992.71,492.46 4405.58,545.784 4818.45,620.167 5231.32,620.167 5644.19,620.167 6057.06,669.232 6469.93,669.232 6882.8,691.76 7295.67,709.464 7708.54,746.935 8121.41,746.935 8534.28,830.702 8947.15,830.702 9360.02,830.702 9772.89,881.058 10185.8,903.972 10598.6,944.876 11011.5,944.876 11424.4,974.749 11837.2,1008.1 12250.1,1055.02 12663,1058.71 13075.8,1083.8 13488.7,1114.76 13901.6,1129.74 14314.5,1248.72 14727.3,1316.57 15140.2,1316.57 15553.1,1500 "/>
<polyline clip-path="url(#clip942)" style="stroke:#dc267f; stroke-linecap:round; stroke-linejoin:round; stroke-width:8; stroke-opacity:1; fill:none" points="276.876,100.84 454.278,100.84 631.681,100.84 809.083,100.863 986.486,102.396 1163.89,103.923 1341.29,105.475 1518.69,107.062 1696.1,108.686 1873.5,110.349 2050.9,112.053 2228.3,113.801 2405.71,115.594 2583.11,117.434 2760.51,119.325 2937.91,121.267 3115.32,123.264 3292.72,125.319 3470.12,127.434 3647.52,129.613 3824.93,131.859 4002.33,134.176 4179.73,136.567 4357.13,139.037 4534.54,141.591 4711.94,144.233 4889.34,146.97 5066.74,149.807 5244.15,152.751 5421.55,155.81 5598.95,158.991 5776.35,162.303 5953.76,165.756 6131.16,169.362 6308.56,173.132 6485.96,177.081 6663.37,181.224 6840.77,185.579 7018.17,190.167 7195.57,195.011 7372.98,200.137 7550.38,205.577 7727.78,211.369 7905.19,217.555 8082.59,224.189 8259.99,231.334 8437.39,239.068 8614.8,247.489 8792.2,256.723 8969.6,266.933 9147,278.338 9324.41,291.24 9501.81,306.078 9679.21,323.517 9856.61,344.638 10034,371.392 10211.4,407.86 10388.8,465.257 10566.2,538.237 10743.6,608.612 10921,676.479 11098.4,742.09 11275.8,805.774 11453.2,867.874 11630.6,928.703 11808,988.521 11985.4,1047.54 12162.8,1105.92 12340.2,1163.8 12517.7,1221.37 12695.1,1278.97 12872.5,1337.54 13049.9,1400.27 13227.3,1482.95 "/>
<polyline clip-path="url(#clip942)" style="stroke:#dc267f; stroke-linecap:round; stroke-linejoin:round; stroke-width:8; stroke-opacity:1; fill:none" stroke-dasharray="32, 20" points="276.876,100.84 495.396,100.84 713.917,100.84 932.438,100.84 1150.96,100.84 1369.48,100.84 1588,100.84 1806.52,100.857 2025.04,102.331 2243.56,103.837 2462.08,105.378 2680.61,106.955 2899.13,108.571 3117.65,110.226 3336.17,111.922 3554.69,113.662 3773.21,115.447 3991.73,117.279 4210.25,119.161 4428.77,121.094 4647.29,123.082 4865.81,125.127 5084.34,127.231 5302.86,129.399 5521.38,131.633 5739.9,133.937 5958.42,136.315 6176.94,138.772 6395.46,141.311 6613.98,143.938 6832.5,146.658 7051.02,149.477 7269.54,152.402 7488.06,155.44 7706.59,158.599 7925.11,161.888 8143.63,165.316 8362.15,168.894 8580.67,172.635 8799.19,176.551 9017.71,180.659 9236.23,184.976 9454.75,189.521 9673.27,194.318 9891.79,199.392 10110.3,204.775 10328.8,210.502 10547.4,216.615 10765.9,223.165 10984.4,230.214 11202.9,237.837 11421.4,246.128 11640,255.207 11858.5,265.229 12077,276.4 12295.5,289.007 12514,303.456 12732.6,320.362 12951.1,340.707 13169.6,366.227 13388.1,400.433 13606.6,452.359 13825.2,523.678 14043.7,592.686 14262.2,659.382 14480.7,723.945 14699.3,786.649 14917.8,847.799 15136.3,907.687 15354.8,966.563 15573.3,1024.63 15791.9,1082.06 16010.4,1138.98 16228.9,1195.53 16447.4,1251.94 16665.9,1308.75 16884.5,1367.58 17103,1434.55 "/>
<polyline clip-path="url(#clip942)" style="stroke:#ffb000; stroke-linecap:round; stroke-linejoin:round; stroke-width:8; stroke-opacity:1; fill:none" points="276.876,100.84 303.523,115.013 330.17,316.743 356.817,316.743 383.465,372.778 410.112,372.778 436.759,493.089 463.406,493.089 490.054,493.089 516.701,493.089 543.348,493.089 569.996,493.089 596.643,517.713 623.29,517.713 649.937,524.57 676.585,524.57 703.232,524.57 729.879,524.57 756.527,524.57 783.174,524.57 809.821,529.762 836.468,529.762 863.116,553.696 889.763,553.696 916.41,572.716 943.057,572.716 969.705,573.808 996.352,573.808 1023,573.808 1049.65,573.808 1076.29,573.808 1102.94,573.808 1129.59,573.808 1156.24,573.808 1182.88,585.051 1209.53,585.051 1236.18,601.259 1262.82,601.259 1289.47,616.156 1316.12,616.156 1342.77,624.224 1369.41,624.224 1396.06,624.224 1422.71,624.224 1449.36,624.224 1476,624.224 1502.65,624.224 1529.3,624.224 1555.94,624.224 1582.59,624.224 1609.24,624.224 1635.89,624.224 1662.53,629.847 1689.18,629.847 1715.83,641.711 1742.48,641.711 1769.12,653.121 1795.77,653.121 1822.42,661.718 1849.06,661.718 1875.71,663.328 1902.36,663.328 1929.01,663.328 1955.65,663.328 1982.3,663.328 2008.95,663.328 2035.6,663.328 2062.24,663.328 2088.89,663.328 2115.54,663.328 2142.18,663.328 2168.83,663.328 2195.48,663.328 2222.13,663.328 2248.77,667.086 2275.42,667.086 2302.07,676.211 2328.72,676.211 2355.36,685.174 2382.01,685.174 2408.66,692.925 2435.31,692.925 2461.95,697.314 2488.6,697.314 2515.25,697.314 2541.89,697.314 2568.54,697.314 2595.19,697.314 2621.84,697.314 2648.48,697.314 2675.13,697.314 2701.78,697.314 2728.43,697.314 2755.07,697.314 2781.72,697.314 2808.37,697.314 2835.01,697.314 2861.66,697.314 2888.31,697.314 2914.96,697.314 2941.6,698.434 2968.25,698.434 2994.9,705.664 3021.55,705.664 3048.19,712.875 3074.84,712.875 3101.49,719.601 3128.13,719.601 3154.78,724.875 3181.43,724.875 3208.08,726.834 3234.72,726.834 3261.37,726.834 3288.02,726.834 3314.67,726.834 3341.31,726.834 3367.96,726.834 3394.61,726.834 3421.25,726.834 3447.9,726.834 3474.55,726.834 3501.2,726.834 3527.84,726.834 3554.49,726.834 3581.14,726.834 3607.79,726.834 3634.43,726.834 3661.08,726.834 3687.73,726.834 3714.37,726.834 3741.02,726.834 3767.67,726.834 3794.32,730.808 3820.96,730.808 3847.61,736.697 3874.26,736.697 3900.91,742.452 3927.55,742.452 3954.2,747.693 3980.85,747.693 4007.49,751.639 4034.14,751.639 4060.79,752.821 4087.44,752.821 4114.08,752.821 4140.73,752.821 4167.38,752.821 4194.03,752.821 4220.67,752.821 4247.32,752.821 4273.97,752.821 4300.61,752.821 4327.26,752.821 4353.91,752.821 4380.56,752.821 4407.2,752.821 4433.85,752.821 4460.5,752.821 4487.15,752.821 4513.79,752.821 4540.44,752.821 4567.09,752.821 4593.73,752.821 4620.38,752.821 4647.03,752.821 4673.68,752.821 4700.32,752.821 4726.97,752.821 4753.62,757.087 4780.27,757.087 4806.91,761.936 4833.56,761.936 4860.21,766.68 4886.85,766.68 4913.5,771.073 4940.15,771.073 4966.8,774.614 4993.44,774.614 5020.09,776.334 5046.74,776.334 5073.39,776.334 5100.03,776.334 5126.68,776.334 5153.33,776.334 5179.97,776.334 5206.62,776.334 5233.27,776.334 5259.92,776.334 5286.56,776.334 5313.21,776.334 5339.86,776.334 5366.51,776.334 5393.15,776.334 5419.8,776.334 5446.45,776.334 5473.09,776.334 5499.74,776.334 5526.39,776.334 5553.04,776.334 5579.68,776.334 5606.33,776.334 5632.98,776.334 5659.63,776.334 5686.27,776.334 5712.92,776.334 5739.57,776.334 5766.21,776.334 5792.86,776.334 5819.51,778.524 5846.16,778.524 5872.8,782.575 5899.45,782.575 5926.1,786.595 5952.75,786.595 5979.39,790.475 6006.04,790.475 6032.69,793.989 6059.33,793.989 6085.98,796.69 6112.63,796.69 6139.28,797.734 6165.92,797.734 6192.57,797.734 6219.22,797.734 6245.87,797.734 6272.51,797.734 6299.16,797.734 6325.81,797.734 6352.45,797.734 6379.1,797.734 6405.75,797.734 6432.4,797.734 6459.04,797.734 6485.69,797.734 6512.34,797.734 6538.99,797.734 6565.63,797.734 6592.28,797.734 6618.93,797.734 6645.57,797.734 6672.22,797.734 6698.87,797.734 6725.52,797.734 6752.16,797.734 6778.81,797.734 6805.46,797.734 6832.11,797.734 6858.75,797.734 6885.4,797.734 6912.05,797.734 6938.7,797.734 6965.34,797.734 6991.99,797.734 7018.64,797.734 7045.28,799.455 7071.93,799.455 7098.58,802.868 7125.23,802.868 7151.87,806.27 7178.52,806.27 7205.17,809.597 7231.82,809.597 7258.46,812.726 7285.11,812.726 7311.76,815.412 7338.4,815.412 7365.05,817.175 7391.7,817.175 7418.35,817.175 7444.99,817.175 7471.64,817.175 7498.29,817.175 7524.94,817.175 7551.58,817.175 7578.23,817.175 7604.88,817.175 7631.52,817.175 7658.17,817.175 7684.82,817.175 7711.47,817.175 7738.11,817.175 7764.76,817.175 7791.41,817.175 7818.06,817.175 7844.7,817.175 7871.35,817.175 7898,817.175 7924.64,817.175 7951.29,817.175 7977.94,817.175 8004.59,817.175 8031.23,817.175 8057.88,817.175 8084.53,817.175 8111.18,817.175 8137.82,817.175 8164.47,817.175 8191.12,817.175 8217.76,817.175 8244.41,817.175 8271.06,817.175 8297.71,817.175 8324.35,817.175 8351,817.175 8377.65,817.175 8404.3,817.175 8430.94,819.038 8457.59,819.038 8484.24,821.938 8510.88,821.938 8537.53,824.835 8564.18,824.835 8590.83,827.691 8617.47,827.691 8644.12,830.436 8670.77,830.436 8697.42,832.927 8724.06,832.927 8750.71,834.891 8777.36,834.891 8804,835.813 8830.65,835.813 8857.3,835.813 8883.95,835.813 8910.59,835.813 8937.24,835.813 8963.89,835.813 8990.54,835.813 9017.18,835.813 9043.83,835.813 9070.48,835.813 9097.12,835.813 9123.77,835.813 9150.42,835.813 9177.07,835.813 9203.71,835.813 9230.36,835.813 9257.01,835.813 9283.66,835.813 9310.3,835.813 9336.95,835.813 9363.6,835.813 9390.24,835.813 9416.89,835.813 9443.54,835.813 9470.19,835.813 9496.83,835.813 9523.48,835.813 9550.13,835.813 9576.78,835.813 9603.42,835.813 9630.07,835.813 9656.72,835.813 9683.36,835.813 9710.01,835.813 9736.66,835.813 9763.31,835.813 9789.95,835.813 9816.6,835.813 9843.25,835.813 9869.9,835.813 9896.54,835.813 9923.19,835.813 9949.84,835.813 9976.48,836.851 10003.1,836.851 10029.8,839.33 10056.4,839.33 10083.1,841.813 10109.7,841.813 10136.4,844.282 10163,844.282 10189.7,846.699 10216.3,846.699 10243,848.991 10269.6,848.991 10296.3,851.023 10322.9,851.023 10349.5,852.529 10376.2,852.529 10402.8,853.024 10429.5,853.024 10456.1,853.024 10482.8,853.024 10509.4,853.024 10536.1,853.024 10562.7,853.024 10589.4,853.024 10616,853.024 10642.7,853.024 10669.3,853.024 10696,853.024 10722.6,853.024 10749.3,853.024 10775.9,853.024 10802.6,853.024 10829.2,853.024 10855.8,853.024 10882.5,853.024 10909.1,853.024 10935.8,853.024 10962.4,853.024 10989.1,853.024 11015.7,853.024 11042.4,853.024 11069,853.024 11095.7,853.024 11122.3,853.024 11149,853.024 11175.6,853.024 11202.3,853.024 11228.9,853.024 11255.6,853.024 11282.2,853.024 11308.8,853.024 11335.5,853.024 11362.1,853.024 11388.8,853.024 11415.4,853.024 11442.1,853.024 11468.7,853.024 11495.4,853.024 11522,853.024 11548.7,853.024 11575.3,853.024 11602,853.024 11628.6,853.024 11655.3,853.024 11681.9,853.024 11708.6,853.024 11735.2,854.851 11761.9,854.851 11788.5,856.988 11815.1,856.988 11841.8,859.127 11868.4,859.127 11895.1,861.255 11921.7,861.255 11948.4,863.343 11975,863.343 12001.7,865.341 12028.3,865.341 12055,867.15 12081.6,867.15 12108.3,868.584 12134.9,868.584 12161.6,869.297 12188.2,869.297 12214.9,869.297 12241.5,869.297 12268.2,869.297 12294.8,869.297 12321.4,869.297 12348.1,869.297 12374.7,869.297 12401.4,869.297 12428,869.297 12454.7,869.297 12481.3,869.297 12508,869.297 12534.6,869.297 12561.3,869.297 12587.9,869.297 12614.6,869.297 12641.2,869.297 12667.9,869.297 12694.5,869.297 12721.2,869.297 12747.8,869.297 12774.4,869.297 12801.1,869.297 12827.7,869.297 12854.4,869.297 12881,869.297 12907.7,869.297 12934.3,869.297 12961,869.297 12987.6,869.297 13014.3,869.297 13040.9,869.297 13067.6,869.297 13094.2,869.297 13120.9,869.297 13147.5,869.297 13174.2,869.297 13200.8,869.297 13227.5,869.297 13254.1,869.297 13280.7,869.297 13307.4,869.297 13334,869.297 13360.7,869.297 13387.3,869.297 13414,869.297 13440.6,869.297 13467.3,869.297 13493.9,869.297 13520.6,869.297 13547.2,869.297 13573.9,869.297 13600.5,869.297 "/>
<polyline clip-path="url(#clip942)" style="stroke:#ffb000; stroke-linecap:round; stroke-linejoin:round; stroke-width:8; stroke-opacity:1; fill:none" stroke-dasharray="32, 20" points="276.876,100.84 302.92,133.893 328.965,235.212 355.009,235.212 381.054,301.744 407.099,301.744 433.143,360.209 459.188,360.209 485.233,434.582 511.277,434.582 537.322,552.377 563.366,552.377 589.411,663.657 615.456,663.657 641.5,663.657 667.545,663.657 693.59,663.657 719.634,663.657 745.679,663.657 771.724,663.657 797.768,663.657 823.813,663.657 849.857,663.657 875.902,663.657 901.947,663.657 927.991,663.657 954.036,663.657 980.081,663.657 1006.13,663.657 1032.17,663.657 1058.21,663.657 1084.26,663.657 1110.3,663.657 1136.35,663.657 1162.39,663.657 1188.44,663.657 1214.48,663.657 1240.53,663.657 1266.57,663.657 1292.62,663.657 1318.66,663.657 1344.71,663.657 1370.75,663.657 1396.79,663.657 1422.84,663.657 1448.88,663.657 1474.93,663.657 1500.97,663.657 1527.02,663.657 1553.06,663.657 1579.11,663.657 1605.15,663.657 1631.2,663.657 1657.24,663.657 1683.29,663.657 1709.33,663.657 1735.38,663.657 1761.42,663.657 1787.46,663.657 1813.51,663.657 1839.55,663.657 1865.6,663.657 1891.64,663.657 1917.69,663.657 1943.73,663.657 1969.78,663.657 1995.82,663.657 2021.87,663.657 2047.91,667.637 2073.96,667.637 2100,678.26 2126.04,678.26 2152.09,688.003 2178.13,688.003 2204.18,698.836 2230.22,698.836 2256.27,705.333 2282.31,705.333 2308.36,707.629 2334.4,707.629 2360.45,707.629 2386.49,707.629 2412.54,707.629 2438.58,707.629 2464.62,707.629 2490.67,707.629 2516.71,707.629 2542.76,707.629 2568.8,707.629 2594.85,707.629 2620.89,707.629 2646.94,707.629 2672.98,707.629 2699.03,707.629 2725.07,707.629 2751.12,707.629 2777.16,707.629 2803.21,707.629 2829.25,707.629 2855.29,707.629 2881.34,707.629 2907.38,707.629 2933.43,707.629 2959.47,707.629 2985.52,711.14 3011.56,711.14 3037.61,718.557 3063.65,718.557 3089.7,725.906 3115.74,725.906 3141.79,733.891 3167.83,733.891 3193.87,741.249 3219.92,741.249 3245.96,748.785 3272.01,748.785 3298.05,750.878 3324.1,750.878 3350.14,750.878 3376.19,750.878 3402.23,750.878 3428.28,750.878 3454.32,750.878 3480.37,750.878 3506.41,750.878 3532.45,750.878 3558.5,750.878 3584.54,750.878 3610.59,750.878 3636.63,750.878 3662.68,750.878 3688.72,750.878 3714.77,750.878 3740.81,750.878 3766.86,750.878 3792.9,750.878 3818.95,750.878 3844.99,750.878 3871.04,750.878 3897.08,750.878 3923.12,750.878 3949.17,750.878 3975.21,750.878 4001.26,750.878 4027.3,750.878 4053.35,750.878 4079.39,750.878 4105.44,750.878 4131.48,750.878 4157.53,750.878 4183.57,754.357 4209.62,754.357 4235.66,760.235 4261.7,760.235 4287.75,766.476 4313.79,766.476 4339.84,772.566 4365.88,772.566 4391.93,778.972 4417.97,778.972 4444.02,783.789 4470.06,783.789 4496.11,786.141 4522.15,786.141 4548.2,786.141 4574.24,786.141 4600.28,786.141 4626.33,786.141 4652.37,786.141 4678.42,786.141 4704.46,786.141 4730.51,786.141 4756.55,786.141 4782.6,786.141 4808.64,786.141 4834.69,786.141 4860.73,786.141 4886.78,786.141 4912.82,786.141 4938.87,786.141 4964.91,786.141 4990.95,786.141 5017,786.141 5043.04,786.141 5069.09,786.141 5095.13,786.141 5121.18,786.141 5147.22,786.141 5173.27,786.141 5199.31,786.141 5225.36,786.141 5251.4,786.141 5277.45,786.141 5303.49,786.141 5329.53,786.141 5355.58,786.141 5381.62,786.141 5407.67,786.141 5433.71,786.141 5459.76,786.141 5485.8,786.141 5511.85,786.141 5537.89,786.141 5563.94,786.141 5589.98,789.47 5616.03,789.47 5642.07,794.34 5668.11,794.34 5694.16,799.211 5720.2,799.211 5746.25,804.318 5772.29,804.318 5798.34,809.065 5824.38,809.065 5850.43,813.585 5876.47,813.585 5902.52,814.708 5928.56,814.708 5954.61,814.708 5980.65,814.708 6006.7,814.708 6032.74,814.708 6058.78,814.708 6084.83,814.708 6110.87,814.708 6136.92,814.708 6162.96,814.708 6189.01,814.708 6215.05,814.708 6241.1,814.708 6267.14,814.708 6293.19,814.708 6319.23,814.708 6345.28,814.708 6371.32,814.708 6397.36,814.708 6423.41,814.708 6449.45,814.708 6475.5,814.708 6501.54,814.708 6527.59,814.708 6553.63,814.708 6579.68,814.708 6605.72,814.708 6631.77,814.708 6657.81,814.708 6683.86,814.708 6709.9,814.708 6735.94,814.708 6761.99,814.708 6788.03,814.708 6814.08,814.708 6840.12,814.708 6866.17,814.708 6892.21,814.708 6918.26,814.708 6944.3,814.708 6970.35,814.708 6996.39,814.708 7022.44,814.708 7048.48,814.708 7074.53,814.708 7100.57,814.708 7126.61,814.708 7152.66,814.708 7178.7,814.708 7204.75,815.969 7230.79,815.969 7256.84,819.749 7282.88,819.749 7308.93,823.657 7334.97,823.657 7361.02,827.57 7387.06,827.57 7413.11,831.629 7439.15,831.629 7465.19,835.456 7491.24,835.456 7517.28,839.135 7543.33,839.135 7569.37,840.725 7595.42,840.725 7621.46,840.725 7647.51,840.725 7673.55,840.725 7699.6,840.725 7725.64,840.725 7751.69,840.725 7777.73,840.725 7803.78,840.725 7829.82,840.725 7855.86,840.725 7881.91,840.725 7907.95,840.725 7934,840.725 7960.04,840.725 7986.09,840.725 8012.13,840.725 8038.18,840.725 8064.22,840.725 8090.27,840.725 8116.31,840.725 8142.36,840.725 8168.4,840.725 8194.44,840.725 8220.49,840.725 8246.53,840.725 8272.58,840.725 8298.62,840.725 8324.67,840.725 8350.71,840.725 8376.76,840.725 8402.8,840.725 8428.85,840.725 8454.89,840.725 8480.94,840.725 8506.98,840.725 8533.02,840.725 8559.07,840.725 8585.11,840.725 8611.16,840.725 8637.2,840.725 8663.25,840.725 8689.29,840.725 8715.34,840.725 8741.38,840.725 8767.43,840.725 8793.47,840.725 8819.52,840.725 8845.56,840.725 8871.61,840.725 8897.65,840.725 8923.69,840.725 8949.74,840.725 8975.78,840.725 9001.83,840.725 9027.87,840.725 9053.92,840.725 9079.96,840.725 9106.01,840.725 9132.05,840.804 9158.1,840.804 9184.14,843.834 9210.19,843.834 9236.23,846.897 9262.27,846.897 9288.32,850.044 9314.36,850.044 9340.41,853.196 9366.45,853.196 9392.5,856.44 9418.54,856.44 9444.59,859.537 9470.63,859.537 9496.68,862.548 9522.72,862.548 9548.77,864.305 9574.81,864.305 9600.85,864.305 9626.9,864.305 9652.94,864.305 9678.99,864.305 9705.03,864.305 9731.08,864.305 9757.12,864.305 9783.17,864.305 9809.21,864.305 9835.26,864.305 9861.3,864.305 9887.35,864.305 9913.39,864.305 9939.44,864.305 9965.48,864.305 9991.52,864.305 10017.6,864.305 10043.6,864.305 10069.7,864.305 10095.7,864.305 10121.7,864.305 10147.8,864.305 10173.8,864.305 10199.9,864.305 10225.9,864.305 10252,864.305 10278,864.305 10304.1,864.305 10330.1,864.305 10356.1,864.305 10382.2,864.305 10408.2,864.305 10434.3,864.305 10460.3,864.305 10486.4,864.305 10512.4,864.305 10538.5,864.305 10564.5,864.305 10590.6,864.305 10616.6,864.305 10642.6,864.305 10668.7,864.305 10694.7,864.305 10720.8,864.305 10746.8,864.305 10772.9,864.305 10798.9,864.305 10825,864.305 10851,864.305 10877,864.305 10903.1,864.305 10929.1,864.305 10955.2,864.305 10981.2,864.305 11007.3,864.305 11033.3,864.305 11059.4,864.305 11085.4,864.305 11111.4,864.305 11137.5,864.305 11163.5,864.305 11189.6,864.305 11215.6,864.305 11241.7,864.305 11267.7,864.305 11293.8,864.305 11319.8,864.305 11345.8,864.305 11371.9,864.305 11397.9,864.305 11424,864.43 11450,864.43 11476.1,866.865 11502.1,866.865 11528.2,869.327 11554.2,869.327 11580.2,871.838 11606.3,871.838 11632.3,874.367 11658.4,874.367 11684.4,876.955 11710.5,876.955 11736.5,879.514 11762.6,879.514 11788.6,882.112 11814.6,882.112 11840.7,884.421 11866.7,884.421 11892.8,886.302 11918.8,886.302 11944.9,886.302 11970.9,886.302 11997,886.302 12023,886.302 12049.1,886.302 12075.1,886.302 12101.1,886.302 12127.2,886.302 12153.2,886.302 12179.3,886.302 12205.3,886.302 12231.4,886.302 12257.4,886.302 12283.5,886.302 12309.5,886.302 12335.5,886.302 12361.6,886.302 12387.6,886.302 12413.7,886.302 12439.7,886.302 12465.8,886.302 12491.8,886.302 12517.9,886.302 12543.9,886.302 12569.9,886.302 12596,886.302 12622,886.302 12648.1,886.302 12674.1,886.302 12700.2,886.302 12726.2,886.302 12752.3,886.302 12778.3,886.302 12804.3,886.302 12830.4,886.302 12856.4,886.302 12882.5,886.302 12908.5,886.302 12934.6,886.302 12960.6,886.302 12986.7,886.302 13012.7,886.302 13038.7,886.302 13064.8,886.302 13090.8,886.302 13116.9,886.302 13142.9,886.302 13169,886.302 13195,886.302 13221.1,886.302 13247.1,886.302 13273.1,886.302 13299.2,886.302 "/>
<path clip-path="url(#clip940)" d="M1827.66 352.309 L2283.56 352.309 L2283.56 93.1086 L1827.66 93.1086  Z" fill="#000000" fill-rule="evenodd" fill-opacity="0"/>
<polyline clip-path="url(#clip940)" style="stroke:#000000; stroke-linecap:round; stroke-linejoin:round; stroke-width:4; stroke-opacity:0; fill:none" points="1827.66,352.309 2283.56,352.309 2283.56,93.1086 1827.66,93.1086 1827.66,352.309 "/>
<polyline clip-path="url(#clip940)" style="stroke:#785ef0; stroke-linecap:round; stroke-linejoin:round; stroke-width:8; stroke-opacity:1; fill:none" points="1850.73,144.949 1989.12,144.949 "/>
<path clip-path="url(#clip940)" d="M2012.19 156.824 L2012.19 155.348 L2013.33 155.348 Q2015.93 155.348 2016.52 154.926 Q2017.13 154.481 2017.13 153.076 L2017.13 127.803 Q2017.13 126.421 2016.52 126 Q2015.91 125.555 2013.33 125.555 L2012.19 125.555 L2012.19 124.056 L2027.25 124.056 Q2032.47 124.056 2036.1 126.632 Q2039.75 129.185 2039.75 132.699 Q2039.75 135.392 2037.39 137.5 Q2035.02 139.608 2031.37 140.522 Q2036.12 142.161 2037.22 146.073 L2037.83 149.914 Q2038.02 151.296 2038.14 151.999 Q2038.28 152.701 2038.49 153.662 Q2038.7 154.622 2038.91 155.09 Q2039.15 155.535 2039.47 156.027 Q2039.8 156.496 2040.22 156.66 Q2040.67 156.824 2041.25 156.824 Q2042.35 156.824 2043.29 155.84 Q2044.23 154.856 2044.42 152.561 Q2044.51 151.788 2045 151.788 Q2045.61 151.788 2045.61 152.561 Q2045.61 153.24 2045.42 154.036 Q2045.24 154.809 2044.77 155.723 Q2044.32 156.636 2043.34 157.245 Q2042.35 157.878 2041.07 157.878 Q2037.32 157.878 2035.02 155.863 Q2034.06 154.997 2033.62 153.872 Q2033.2 152.748 2033.13 151.858 Q2033.06 150.968 2033.06 149.001 Q2033.06 146.213 2032.75 144.995 Q2032.47 143.777 2031.23 142.583 Q2029.54 140.943 2026.75 140.943 L2021.25 140.943 L2021.25 153.076 Q2021.25 154.458 2021.84 154.903 Q2022.44 155.348 2025.04 155.348 L2026.19 155.348 L2026.19 156.824 Q2024.46 156.683 2019.19 156.683 Q2013.92 156.683 2012.19 156.824 M2021.25 139.889 L2026.57 139.889 Q2029.12 139.889 2030.83 139.28 Q2032.56 138.648 2033.38 137.524 Q2034.2 136.399 2034.51 135.275 Q2034.81 134.127 2034.81 132.699 Q2034.81 131.012 2034.44 129.747 Q2034.06 128.482 2033.24 127.733 Q2032.42 126.983 2031.6 126.515 Q2030.78 126.023 2029.52 125.836 Q2028.25 125.648 2027.39 125.602 Q2026.52 125.555 2025.14 125.555 Q2022.8 125.555 2022.3 125.648 Q2021.77 125.695 2021.55 125.953 Q2021.34 126.21 2021.3 126.515 Q2021.25 126.796 2021.25 127.475 L2021.25 139.889 Z" fill="#000000" fill-rule="nonzero" fill-opacity="1" /><path clip-path="url(#clip940)" d="M2047.91 156.824 L2047.91 155.348 L2049.05 155.348 Q2051.65 155.348 2052.24 154.926 Q2052.85 154.481 2052.85 153.076 L2052.85 127.803 Q2052.85 126.421 2052.24 126 Q2051.63 125.555 2049.05 125.555 L2047.91 125.555 L2047.91 124.056 L2064.84 124.056 Q2069.69 124.056 2072.92 126.726 Q2076.15 129.396 2076.15 132.98 Q2076.15 136.54 2072.85 139.116 Q2069.57 141.669 2065.22 141.669 L2057.11 141.669 L2057.11 153.076 Q2057.11 154.458 2057.7 154.903 Q2058.31 155.348 2060.91 155.348 L2062.05 155.348 L2062.05 156.824 Q2060.37 156.683 2054.96 156.683 Q2049.59 156.683 2047.91 156.824 M2056.97 140.428 L2063.58 140.428 Q2065.73 140.428 2067.3 139.819 Q2068.87 139.21 2069.57 138.484 Q2070.3 137.734 2070.7 136.54 Q2071.12 135.322 2071.16 134.666 Q2071.21 133.987 2071.21 132.98 Q2071.21 131.926 2071.16 131.27 Q2071.12 130.59 2070.7 129.396 Q2070.3 128.178 2069.57 127.452 Q2068.87 126.702 2067.3 126.14 Q2065.75 125.555 2063.58 125.555 L2059.31 125.555 Q2057.67 125.555 2057.32 125.883 Q2056.97 126.21 2056.97 127.475 L2056.97 140.428 Z" fill="#000000" fill-rule="nonzero" fill-opacity="1" /><path clip-path="url(#clip940)" d="M2086.53 156.824 L2086.53 155.348 L2087.68 155.348 Q2090.28 155.348 2090.86 154.926 Q2091.47 154.481 2091.47 153.076 L2091.47 127.803 Q2091.47 126.421 2090.86 126 Q2090.25 125.555 2087.68 125.555 L2086.53 125.555 L2086.53 124.056 L2104.07 124.056 Q2108.64 124.056 2111.68 126.515 Q2114.73 128.951 2114.73 132.16 Q2114.73 134.807 2112.48 136.915 Q2110.25 139.023 2106.76 139.702 Q2110.75 140.123 2113.37 142.536 Q2116.02 144.925 2116.02 148.04 Q2116.02 151.554 2112.99 154.2 Q2109.97 156.824 2105.34 156.824 L2086.53 156.824 M2095.45 153.427 Q2095.45 154.669 2095.8 155.02 Q2096.15 155.348 2097.79 155.348 L2103.79 155.348 Q2107.23 155.348 2109.22 153.099 Q2111.21 150.827 2111.21 147.993 Q2111.21 145.159 2109.46 142.747 Q2107.72 140.311 2104.47 140.311 L2095.45 140.311 L2095.45 153.427 M2095.45 139.257 L2102.41 139.257 Q2106.11 139.257 2108.08 137.032 Q2110.07 134.807 2110.07 132.16 Q2110.07 129.818 2108.47 127.686 Q2106.91 125.555 2103.74 125.555 L2097.79 125.555 Q2096.15 125.555 2095.8 125.883 Q2095.45 126.21 2095.45 127.475 L2095.45 139.257 Z" fill="#000000" fill-rule="nonzero" fill-opacity="1" /><path clip-path="url(#clip940)" d="M2125.51 144.831 Q2125.51 136.727 2128.53 130.192 Q2129.82 127.452 2131.62 125.156 Q2133.43 122.861 2134.62 121.854 Q2135.82 120.847 2136.14 120.847 Q2136.61 120.847 2136.64 121.315 Q2136.64 121.549 2136 122.135 Q2128.27 130.005 2128.3 144.831 Q2128.3 159.705 2135.82 167.27 Q2136.64 168.09 2136.64 168.347 Q2136.64 168.816 2136.14 168.816 Q2135.82 168.816 2134.67 167.856 Q2133.52 166.895 2131.74 164.694 Q2129.96 162.492 2128.67 159.798 Q2125.51 153.263 2125.51 144.831 Z" fill="#000000" fill-rule="nonzero" fill-opacity="1" /><path clip-path="url(#clip940)" d="M2141.24 140.568 Q2141.24 133.237 2145.92 128.131 Q2150.63 123.002 2157.17 123.002 Q2163.75 123.002 2168.43 128.131 Q2173.14 133.261 2173.14 140.568 Q2173.14 147.806 2168.43 152.842 Q2163.72 157.878 2157.17 157.878 Q2150.7 157.878 2145.97 152.865 Q2141.24 147.853 2141.24 140.568 M2146.18 139.889 Q2146.18 144.339 2147.23 147.759 Q2148.29 151.155 2149.97 153.006 Q2151.68 154.856 2153.51 155.746 Q2155.34 156.636 2157.21 156.636 Q2159.04 156.636 2160.82 155.77 Q2162.62 154.903 2164.33 153.076 Q2166.04 151.249 2167.12 147.829 Q2168.2 144.41 2168.2 139.889 Q2168.2 136.376 2167.45 133.565 Q2166.7 130.731 2165.53 129.021 Q2164.36 127.311 2162.83 126.187 Q2161.33 125.063 2159.91 124.641 Q2158.5 124.196 2157.17 124.196 Q2155.48 124.196 2153.72 124.946 Q2151.97 125.695 2150.19 127.358 Q2148.43 128.998 2147.3 132.253 Q2146.18 135.486 2146.18 139.889 Z" fill="#000000" fill-rule="nonzero" fill-opacity="1" /><path clip-path="url(#clip940)" d="M2177.75 137.641 L2177.75 136.142 L2184.8 135.626 L2184.8 151.554 Q2184.8 152.701 2184.9 153.381 Q2184.99 154.036 2185.37 154.809 Q2185.77 155.582 2186.66 155.934 Q2187.57 156.285 2189.02 156.285 Q2191.62 156.285 2193.21 154.153 Q2194.83 152.022 2194.83 148.86 L2194.83 140.311 Q2194.83 138.531 2194.2 138.086 Q2193.56 137.641 2191.08 137.641 L2191.08 136.142 L2198.13 135.626 L2198.13 152.654 Q2198.13 154.435 2198.74 154.903 Q2199.37 155.348 2201.88 155.348 L2201.88 156.824 L2194.97 157.362 L2194.97 153.029 Q2192.96 157.339 2188.79 157.362 Q2186.68 157.362 2185.23 156.824 Q2183.8 156.285 2183.07 155.629 Q2182.35 154.95 2181.95 153.662 Q2181.57 152.373 2181.53 151.577 Q2181.48 150.781 2181.48 149.235 L2181.48 142.044 Q2181.48 138.788 2181.01 138.226 Q2180.54 137.641 2177.75 137.641 Z" fill="#000000" fill-rule="nonzero" fill-opacity="1" /><path clip-path="url(#clip940)" d="M2203.53 156.824 L2203.53 155.348 Q2206.08 155.348 2206.67 155.044 Q2207.27 154.716 2207.27 153.17 L2207.27 140.311 Q2207.27 138.531 2206.64 138.086 Q2206.03 137.641 2203.53 137.641 L2203.53 136.142 L2210.2 135.626 L2210.2 140.896 Q2210.88 138.835 2212.31 137.242 Q2213.76 135.626 2216.1 135.626 Q2217.65 135.626 2218.63 136.493 Q2219.64 137.36 2219.64 138.554 Q2219.64 139.608 2218.99 140.147 Q2218.35 140.662 2217.58 140.662 Q2216.71 140.662 2216.1 140.123 Q2215.52 139.561 2215.52 138.601 Q2215.52 138.015 2215.78 137.57 Q2216.06 137.102 2216.27 136.938 Q2216.48 136.774 2216.62 136.727 Q2216.53 136.68 2216.1 136.68 Q2213.46 136.68 2211.94 139.327 Q2210.44 141.95 2210.44 145.698 L2210.44 153.076 Q2210.44 154.458 2211 154.903 Q2211.58 155.348 2214.09 155.348 L2215.1 155.348 L2215.1 156.824 Q2213.18 156.683 2209.01 156.683 Q2208.42 156.683 2207.51 156.707 Q2206.59 156.73 2205.4 156.777 Q2204.21 156.824 2203.53 156.824 Z" fill="#000000" fill-rule="nonzero" fill-opacity="1" /><path clip-path="url(#clip940)" d="M2222.62 156.191 L2222.62 149.867 Q2222.62 149.328 2222.64 149.141 Q2222.66 148.954 2222.8 148.813 Q2222.95 148.673 2223.23 148.673 Q2223.55 148.673 2223.67 148.813 Q2223.81 148.954 2223.91 149.492 Q2224.63 152.795 2226.18 154.552 Q2227.75 156.285 2230.58 156.285 Q2233.27 156.285 2234.63 155.09 Q2235.99 153.896 2235.99 151.928 Q2235.99 148.415 2231 147.525 Q2228.12 146.939 2226.93 146.565 Q2225.73 146.166 2224.68 145.3 Q2222.62 143.613 2222.62 141.224 Q2222.62 138.835 2224.42 137.078 Q2226.25 135.322 2230.28 135.322 Q2232.97 135.322 2234.8 136.68 Q2235.34 136.259 2235.62 135.907 Q2236.25 135.322 2236.58 135.322 Q2236.95 135.322 2237.02 135.579 Q2237.09 135.814 2237.09 136.493 L2237.09 141.318 Q2237.09 141.857 2237.07 142.044 Q2237.05 142.231 2236.9 142.372 Q2236.76 142.489 2236.46 142.489 Q2235.92 142.489 2235.9 142.044 Q2235.52 136.235 2230.28 136.235 Q2227.44 136.235 2226.18 137.336 Q2224.91 138.414 2224.91 139.889 Q2224.91 140.709 2225.29 141.341 Q2225.69 141.95 2226.18 142.325 Q2226.69 142.676 2227.63 143.028 Q2228.57 143.356 2229.13 143.473 Q2229.71 143.59 2230.82 143.824 Q2234.66 144.55 2236.27 146.12 Q2238.29 148.134 2238.29 150.687 Q2238.29 153.521 2236.37 155.442 Q2234.45 157.362 2230.58 157.362 Q2227.47 157.362 2225.29 155.278 Q2225.01 155.559 2224.8 155.816 Q2224.58 156.051 2224.49 156.144 Q2224.42 156.238 2224.4 156.308 Q2224.37 156.355 2224.33 156.402 Q2223.37 157.362 2223.13 157.362 Q2222.76 157.362 2222.69 157.105 Q2222.62 156.87 2222.62 156.191 Z" fill="#000000" fill-rule="nonzero" fill-opacity="1" /><path clip-path="url(#clip940)" d="M2242.08 168.347 Q2242.08 168.113 2242.69 167.528 Q2250.42 159.658 2250.42 144.831 Q2250.42 129.958 2242.99 122.439 Q2242.08 121.573 2242.08 121.315 Q2242.08 120.847 2242.55 120.847 Q2242.88 120.847 2244.02 121.807 Q2245.19 122.767 2246.95 124.969 Q2248.73 127.171 2250.04 129.864 Q2253.2 136.399 2253.2 144.831 Q2253.2 152.935 2250.18 159.47 Q2248.89 162.211 2247.09 164.506 Q2245.29 166.802 2244.09 167.809 Q2242.9 168.816 2242.55 168.816 Q2242.08 168.816 2242.08 168.347 Z" fill="#000000" fill-rule="nonzero" fill-opacity="1" /><polyline clip-path="url(#clip940)" style="stroke:#fe6100; stroke-linecap:round; stroke-linejoin:round; stroke-width:8; stroke-opacity:1; fill:none" points="1850.73,196.789 1989.12,196.789 "/>
<path clip-path="url(#clip940)" d="M2012.19 213.007 L2012.19 211.532 L2013.33 211.532 Q2015.93 211.532 2016.52 211.11 Q2017.13 210.665 2017.13 209.26 L2017.13 183.987 Q2017.13 182.605 2016.52 182.183 Q2015.91 181.738 2013.33 181.738 L2012.19 181.738 L2012.19 180.239 L2027.25 180.239 Q2032.47 180.239 2036.1 182.816 Q2039.75 185.369 2039.75 188.882 Q2039.75 191.576 2037.39 193.684 Q2035.02 195.792 2031.37 196.705 Q2036.12 198.345 2037.22 202.256 L2037.83 206.098 Q2038.02 207.48 2038.14 208.182 Q2038.28 208.885 2038.49 209.845 Q2038.7 210.806 2038.91 211.274 Q2039.15 211.719 2039.47 212.211 Q2039.8 212.679 2040.22 212.843 Q2040.67 213.007 2041.25 213.007 Q2042.35 213.007 2043.29 212.024 Q2044.23 211.04 2044.42 208.744 Q2044.51 207.972 2045 207.972 Q2045.61 207.972 2045.61 208.744 Q2045.61 209.424 2045.42 210.22 Q2045.24 210.993 2044.77 211.907 Q2044.32 212.82 2043.34 213.429 Q2042.35 214.061 2041.07 214.061 Q2037.32 214.061 2035.02 212.047 Q2034.06 211.18 2033.62 210.056 Q2033.2 208.932 2033.13 208.042 Q2033.06 207.152 2033.06 205.184 Q2033.06 202.397 2032.75 201.179 Q2032.47 199.961 2031.23 198.767 Q2029.54 197.127 2026.75 197.127 L2021.25 197.127 L2021.25 209.26 Q2021.25 210.642 2021.84 211.087 Q2022.44 211.532 2025.04 211.532 L2026.19 211.532 L2026.19 213.007 Q2024.46 212.867 2019.19 212.867 Q2013.92 212.867 2012.19 213.007 M2021.25 196.073 L2026.57 196.073 Q2029.12 196.073 2030.83 195.464 Q2032.56 194.832 2033.38 193.707 Q2034.2 192.583 2034.51 191.459 Q2034.81 190.311 2034.81 188.882 Q2034.81 187.196 2034.44 185.931 Q2034.06 184.666 2033.24 183.917 Q2032.42 183.167 2031.6 182.699 Q2030.78 182.207 2029.52 182.019 Q2028.25 181.832 2027.39 181.785 Q2026.52 181.738 2025.14 181.738 Q2022.8 181.738 2022.3 181.832 Q2021.77 181.879 2021.55 182.137 Q2021.34 182.394 2021.3 182.699 Q2021.25 182.98 2021.25 183.659 L2021.25 196.073 Z" fill="#000000" fill-rule="nonzero" fill-opacity="1" /><path clip-path="url(#clip940)" d="M2045.82 196.612 Q2045.82 189.374 2050.76 184.291 Q2055.71 179.185 2062.5 179.185 Q2064.61 179.185 2066.48 179.958 Q2068.35 180.731 2069.22 181.41 Q2070.09 182.066 2071.33 183.308 L2073.74 179.771 Q2074.12 179.185 2074.49 179.185 Q2074.89 179.185 2074.96 179.42 Q2075.03 179.63 2075.03 180.333 L2075.03 191.716 Q2075.03 192.489 2074.94 192.677 Q2074.84 192.864 2074.26 192.864 Q2073.79 192.864 2073.67 192.724 Q2073.58 192.583 2073.48 192.044 Q2072.76 186.868 2069.88 183.776 Q2067.02 180.684 2063.04 180.684 Q2061.89 180.684 2060.6 180.942 Q2059.34 181.2 2057.49 182.183 Q2055.66 183.167 2054.23 184.807 Q2052.82 186.423 2051.79 189.515 Q2050.76 192.583 2050.76 196.659 Q2050.76 200.687 2051.79 203.779 Q2052.82 206.871 2054.23 208.487 Q2055.66 210.08 2057.49 211.063 Q2059.34 212.047 2060.62 212.328 Q2061.94 212.586 2063.08 212.586 Q2067.21 212.586 2070.37 209.658 Q2073.53 206.73 2073.83 201.788 Q2073.88 201.554 2073.88 201.46 Q2073.88 201.343 2073.93 201.226 Q2073.98 201.109 2074.09 201.062 Q2074.21 201.015 2074.4 201.015 Q2075.03 201.015 2075.03 201.835 Q2075.03 206.402 2071.52 210.244 Q2068.03 214.061 2062.5 214.061 Q2055.68 214.061 2050.74 209.002 Q2045.82 203.943 2045.82 196.612 Z" fill="#000000" fill-rule="nonzero" fill-opacity="1" /><path clip-path="url(#clip940)" d="M2082.98 213.007 L2082.98 211.532 L2084.13 211.532 Q2086.73 211.532 2087.31 211.11 Q2087.92 210.665 2087.92 209.26 L2087.92 183.987 Q2087.92 182.605 2087.31 182.183 Q2086.71 181.738 2084.13 181.738 L2082.98 181.738 L2082.98 180.239 L2100.52 180.239 Q2105.09 180.239 2108.14 182.699 Q2111.18 185.135 2111.18 188.344 Q2111.18 190.99 2108.93 193.098 Q2106.71 195.206 2103.22 195.886 Q2107.2 196.307 2109.82 198.72 Q2112.47 201.109 2112.47 204.224 Q2112.47 207.737 2109.45 210.384 Q2106.43 213.007 2101.79 213.007 L2082.98 213.007 M2091.91 209.611 Q2091.91 210.853 2092.26 211.204 Q2092.61 211.532 2094.25 211.532 L2100.24 211.532 Q2103.69 211.532 2105.68 209.283 Q2107.67 207.011 2107.67 204.177 Q2107.67 201.343 2105.91 198.93 Q2104.18 196.495 2100.92 196.495 L2091.91 196.495 L2091.91 209.611 M2091.91 195.441 L2098.86 195.441 Q2102.56 195.441 2104.53 193.215 Q2106.52 190.99 2106.52 188.344 Q2106.52 186.001 2104.93 183.87 Q2103.36 181.738 2100.2 181.738 L2094.25 181.738 Q2092.61 181.738 2092.26 182.066 Q2091.91 182.394 2091.91 183.659 L2091.91 195.441 Z" fill="#000000" fill-rule="nonzero" fill-opacity="1" /><path clip-path="url(#clip940)" d="M2118.32 213.007 L2118.32 211.532 Q2120.05 211.532 2121.15 211.204 Q2122.25 210.853 2122.65 210.22 Q2123.07 209.564 2123.16 209.143 Q2123.26 208.698 2123.26 207.972 L2123.26 183.987 Q2123.26 182.605 2122.65 182.183 Q2122.06 181.738 2119.46 181.738 L2118.32 181.738 L2118.32 180.239 L2126.42 180.239 Q2127.29 180.239 2127.52 180.403 Q2127.76 180.544 2128.11 181.293 L2138.51 208.159 L2149 181.153 Q2149.23 180.474 2149.44 180.356 Q2149.68 180.239 2150.59 180.239 L2158.7 180.239 L2158.7 181.738 L2157.55 181.738 Q2154.95 181.738 2154.34 182.183 Q2153.75 182.605 2153.75 183.987 L2153.75 209.26 Q2153.75 210.642 2154.34 211.087 Q2154.95 211.532 2157.55 211.532 L2158.7 211.532 L2158.7 213.007 Q2156.92 212.867 2151.83 212.867 Q2146.7 212.867 2144.92 213.007 L2144.92 211.532 L2146.1 211.532 Q2148.7 211.532 2149.28 211.11 Q2149.87 210.665 2149.87 209.26 L2149.87 181.738 L2149.82 181.738 L2138.04 212.094 Q2137.71 213.007 2137.17 213.007 Q2136.59 213.007 2136.21 211.953 L2124.64 182.113 L2124.59 182.113 L2124.59 207.972 Q2124.59 208.698 2124.69 209.143 Q2124.78 209.564 2125.18 210.22 Q2125.6 210.853 2126.7 211.204 Q2127.8 211.532 2129.54 211.532 L2129.54 213.007 Q2124.5 212.867 2123.91 212.867 Q2123.35 212.867 2118.32 213.007 Z" fill="#000000" fill-rule="nonzero" fill-opacity="1" /><polyline clip-path="url(#clip940)" style="stroke:#dc267f; stroke-linecap:round; stroke-linejoin:round; stroke-width:8; stroke-opacity:1; fill:none" points="1850.73,248.629 1989.12,248.629 "/>
<path clip-path="url(#clip940)" d="M2012.19 265.629 L2012.19 264.153 L2013.33 264.153 Q2015.93 264.153 2016.52 263.731 Q2017.13 263.286 2017.13 261.881 L2017.13 236.608 Q2017.13 235.226 2016.52 234.805 Q2015.91 234.36 2013.33 234.36 L2012.19 234.36 L2012.19 232.861 L2029.12 232.861 Q2033.97 232.861 2037.2 235.531 Q2040.43 238.201 2040.43 241.785 Q2040.43 245.345 2037.13 247.921 Q2033.85 250.474 2029.5 250.474 L2021.39 250.474 L2021.39 261.881 Q2021.39 263.263 2021.98 263.708 Q2022.59 264.153 2025.19 264.153 L2026.33 264.153 L2026.33 265.629 Q2024.65 265.488 2019.24 265.488 Q2013.87 265.488 2012.19 265.629 M2021.25 249.233 L2027.86 249.233 Q2030.01 249.233 2031.58 248.624 Q2033.15 248.015 2033.85 247.289 Q2034.58 246.539 2034.98 245.345 Q2035.4 244.127 2035.44 243.471 Q2035.49 242.792 2035.49 241.785 Q2035.49 240.731 2035.44 240.075 Q2035.4 239.395 2034.98 238.201 Q2034.58 236.983 2033.85 236.257 Q2033.15 235.507 2031.58 234.945 Q2030.03 234.36 2027.86 234.36 L2023.59 234.36 Q2021.95 234.36 2021.6 234.688 Q2021.25 235.015 2021.25 236.28 L2021.25 249.233 Z" fill="#000000" fill-rule="nonzero" fill-opacity="1" /><path clip-path="url(#clip940)" d="M2050.81 265.629 L2050.81 264.153 L2051.95 264.153 Q2054.55 264.153 2055.14 263.731 Q2055.75 263.286 2055.75 261.881 L2055.75 236.608 Q2055.75 235.226 2055.14 234.805 Q2054.53 234.36 2051.95 234.36 L2050.81 234.36 L2050.81 232.861 L2068.35 232.861 Q2072.92 232.861 2075.96 235.32 Q2079.01 237.756 2079.01 240.965 Q2079.01 243.612 2076.76 245.72 Q2074.53 247.828 2071.04 248.507 Q2075.03 248.928 2077.65 251.341 Q2080.3 253.73 2080.3 256.845 Q2080.3 260.359 2077.27 263.005 Q2074.25 265.629 2069.62 265.629 L2050.81 265.629 M2059.73 262.232 Q2059.73 263.474 2060.08 263.825 Q2060.43 264.153 2062.07 264.153 L2068.07 264.153 Q2071.51 264.153 2073.5 261.904 Q2075.49 259.632 2075.49 256.798 Q2075.49 253.964 2073.74 251.552 Q2072 249.116 2068.75 249.116 L2059.73 249.116 L2059.73 262.232 M2059.73 248.062 L2066.69 248.062 Q2070.39 248.062 2072.36 245.837 Q2074.35 243.612 2074.35 240.965 Q2074.35 238.623 2072.75 236.491 Q2071.18 234.36 2068.02 234.36 L2062.07 234.36 Q2060.43 234.36 2060.08 234.688 Q2059.73 235.015 2059.73 236.28 L2059.73 248.062 Z" fill="#000000" fill-rule="nonzero" fill-opacity="1" /><path clip-path="url(#clip940)" d="M2084.81 265.629 L2084.81 264.153 Q2089.07 264.059 2090.17 260.921 L2100.1 232.252 Q2100.29 231.666 2100.5 231.479 Q2100.71 231.291 2101.25 231.291 Q2101.53 231.291 2101.69 231.338 Q2101.88 231.385 2102 231.549 Q2102.12 231.713 2102.16 231.807 Q2102.21 231.9 2102.35 232.252 L2112.7 262.232 Q2113.08 263.427 2113.85 263.802 Q2114.62 264.153 2116.8 264.153 L2117.65 264.153 L2117.65 265.629 Q2114.62 265.488 2111.37 265.488 Q2106.19 265.488 2104.46 265.629 L2104.46 264.153 Q2108.44 264.153 2108.44 262.701 Q2108.44 262.607 2108.3 262.022 L2105.77 254.69 L2093.92 254.69 L2091.69 260.968 Q2091.6 261.155 2091.6 261.694 Q2091.6 262.701 2092.54 263.427 Q2093.47 264.153 2095.21 264.153 L2095.21 265.629 Q2090.59 265.488 2089.68 265.488 Q2088.11 265.488 2084.81 265.629 M2094.43 253.215 L2105.23 253.215 L2099.82 237.615 L2094.43 253.215 Z" fill="#000000" fill-rule="nonzero" fill-opacity="1" /><polyline clip-path="url(#clip940)" style="stroke:#ffb000; stroke-linecap:round; stroke-linejoin:round; stroke-width:8; stroke-opacity:1; fill:none" points="1850.73,300.469 1989.12,300.469 "/>
<path clip-path="url(#clip940)" d="M2012.19 316.594 L2012.19 306.99 Q2012.19 306.452 2012.21 306.264 Q2012.23 306.077 2012.37 305.936 Q2012.51 305.796 2012.79 305.796 Q2013.33 305.796 2013.38 306.288 Q2013.52 311.043 2016.36 313.666 Q2019.14 316.266 2023.92 316.266 Q2026.8 316.266 2028.58 314.205 Q2030.36 312.12 2030.36 309.403 Q2030.36 306.803 2028.86 304.976 Q2028.23 304.156 2027.43 303.641 Q2026.66 303.102 2026.17 302.938 Q2025.7 302.774 2024.79 302.54 Q2018.84 301.111 2018.46 300.947 Q2015.63 299.987 2013.9 297.575 Q2012.19 295.139 2012.19 292.164 Q2012.19 288.323 2014.88 285.606 Q2017.6 282.865 2021.53 282.865 Q2023.5 282.865 2025.14 283.498 Q2026.8 284.107 2027.48 284.669 Q2028.16 285.231 2029.21 286.238 L2030.88 283.498 Q2031.25 282.865 2031.6 282.865 Q2031.98 282.865 2032.05 283.1 Q2032.14 283.31 2032.14 284.013 L2032.14 293.663 Q2032.14 294.202 2032.12 294.389 Q2032.1 294.577 2031.93 294.694 Q2031.79 294.811 2031.51 294.811 Q2031.04 294.811 2030.92 294.249 Q2029.59 284.224 2021.58 284.224 Q2018.84 284.224 2017.03 286.074 Q2015.25 287.901 2015.25 290.501 Q2015.25 292.609 2016.57 294.342 Q2017.88 296.052 2020.1 296.591 L2026.24 298.067 Q2029.31 298.793 2031.37 301.51 Q2033.43 304.227 2033.43 307.763 Q2033.43 311.839 2030.76 314.79 Q2028.11 317.741 2023.97 317.741 Q2020.99 317.741 2018.7 316.758 Q2016.4 315.774 2015.16 314.392 Q2014.2 315.985 2013.57 316.875 L2013.43 317.109 Q2013.05 317.741 2012.7 317.741 Q2012.33 317.741 2012.26 317.507 Q2012.19 317.273 2012.19 316.594 Z" fill="#000000" fill-rule="nonzero" fill-opacity="1" /><path clip-path="url(#clip940)" d="M2045.56 312.659 Q2040.65 307.576 2040.65 300.292 Q2040.65 292.984 2045.61 287.925 Q2050.58 282.865 2057.32 282.865 Q2059.01 282.865 2060.44 283.264 Q2061.89 283.638 2063.04 284.411 Q2064.19 285.161 2064.77 285.676 Q2065.38 286.168 2066.2 286.988 L2068.61 283.451 Q2068.99 282.865 2069.36 282.865 Q2069.76 282.865 2069.83 283.1 Q2069.9 283.31 2069.9 284.013 L2069.9 295.396 Q2069.9 296.169 2069.81 296.357 Q2069.71 296.544 2069.13 296.544 Q2068.66 296.544 2068.57 296.404 Q2068.47 296.263 2068.35 295.724 Q2067.63 290.548 2064.72 287.456 Q2061.84 284.364 2057.91 284.364 Q2056.76 284.364 2055.47 284.622 Q2054.21 284.88 2052.33 285.863 Q2050.48 286.847 2049.05 288.463 Q2047.65 290.056 2046.62 293.148 Q2045.59 296.216 2045.59 300.292 Q2045.59 304.32 2046.62 307.412 Q2047.65 310.504 2049.08 312.12 Q2050.53 313.713 2052.4 314.72 Q2054.3 315.727 2055.64 316.008 Q2056.99 316.266 2058.19 316.266 Q2059.01 316.266 2059.97 316.102 Q2060.93 315.914 2062.36 315.399 Q2063.81 314.86 2064.72 313.596 Q2065.64 312.331 2065.64 310.457 L2065.64 307.389 Q2065.64 305.96 2064.93 305.515 Q2064.23 305.07 2061.16 305.07 L2059.64 305.07 L2059.64 303.594 Q2061.37 303.735 2067.35 303.735 Q2067.89 303.735 2073.2 303.594 L2073.2 305.07 Q2070.91 305.07 2070.39 305.421 Q2069.9 305.749 2069.9 307.178 L2069.9 315.54 Q2069.9 316.641 2069.48 316.641 Q2069.1 316.641 2067.98 315.563 Q2066.88 314.486 2066.39 313.666 Q2065.24 315.68 2062.73 316.711 Q2060.25 317.741 2057.42 317.741 Q2050.51 317.741 2045.56 312.659 Z" fill="#000000" fill-rule="nonzero" fill-opacity="1" /><path clip-path="url(#clip940)" d="M2077.49 316.687 L2077.49 315.212 Q2079.22 315.212 2080.32 314.884 Q2081.42 314.533 2081.82 313.9 Q2082.24 313.244 2082.34 312.823 Q2082.43 312.378 2082.43 311.652 L2082.43 287.667 Q2082.43 286.285 2081.82 285.863 Q2081.23 285.418 2078.63 285.418 L2077.49 285.418 L2077.49 283.919 L2085.59 283.919 Q2086.46 283.919 2086.69 284.083 Q2086.93 284.224 2087.28 284.973 L2097.68 311.839 L2108.17 284.833 Q2108.4 284.154 2108.62 284.036 Q2108.85 283.919 2109.76 283.919 L2117.87 283.919 L2117.87 285.418 L2116.72 285.418 Q2114.12 285.418 2113.51 285.863 Q2112.93 286.285 2112.93 287.667 L2112.93 312.94 Q2112.93 314.322 2113.51 314.767 Q2114.12 315.212 2116.72 315.212 L2117.87 315.212 L2117.87 316.687 Q2116.09 316.547 2111 316.547 Q2105.87 316.547 2104.09 316.687 L2104.09 315.212 L2105.27 315.212 Q2107.87 315.212 2108.45 314.79 Q2109.04 314.345 2109.04 312.94 L2109.04 285.418 L2108.99 285.418 L2097.21 315.774 Q2096.88 316.687 2096.34 316.687 Q2095.76 316.687 2095.38 315.633 L2083.81 285.793 L2083.76 285.793 L2083.76 311.652 Q2083.76 312.378 2083.86 312.823 Q2083.95 313.244 2084.35 313.9 Q2084.77 314.533 2085.87 314.884 Q2086.97 315.212 2088.71 315.212 L2088.71 316.687 Q2083.67 316.547 2083.08 316.547 Q2082.52 316.547 2077.49 316.687 Z" fill="#000000" fill-rule="nonzero" fill-opacity="1" /></svg>
