<?xml version="1.0" encoding="utf-8"?>
<svg xmlns="http://www.w3.org/2000/svg" xmlns:xlink="http://www.w3.org/1999/xlink" width="600" height="400" viewBox="0 0 2400 1600">
<defs>
  <clipPath id="clip020">
    <rect x="0" y="0" width="2400" height="1600"/>
  </clipPath>
</defs>
<path clip-path="url(#clip020)" d="M0 1600 L2400 1600 L2400 8.88178e-14 L0 8.88178e-14  Z" fill="#ffffff" fill-rule="evenodd" fill-opacity="1"/>
<defs>
  <clipPath id="clip021">
    <rect x="480" y="0" width="1681" height="1600"/>
  </clipPath>
</defs>
<path clip-path="url(#clip020)" d="M276.876 1423.18 L2352.76 1423.18 L2352.76 47.2441 L276.876 47.2441  Z" fill="#ffffff" fill-rule="evenodd" fill-opacity="1"/>
<defs>
  <clipPath id="clip022">
    <rect x="276" y="47" width="2077" height="1377"/>
  </clipPath>
</defs>
<polyline clip-path="url(#clip022)" style="stroke:#000000; stroke-linecap:round; stroke-linejoin:round; stroke-width:2; stroke-opacity:0.1; fill:none" points="276.876,1423.18 276.876,47.2441 "/>
<polyline clip-path="url(#clip022)" style="stroke:#000000; stroke-linecap:round; stroke-linejoin:round; stroke-width:2; stroke-opacity:0.1; fill:none" points="711.497,1423.18 711.497,47.2441 "/>
<polyline clip-path="url(#clip022)" style="stroke:#000000; stroke-linecap:round; stroke-linejoin:round; stroke-width:2; stroke-opacity:0.1; fill:none" points="1146.12,1423.18 1146.12,47.2441 "/>
<polyline clip-path="url(#clip022)" style="stroke:#000000; stroke-linecap:round; stroke-linejoin:round; stroke-width:2; stroke-opacity:0.1; fill:none" points="1580.74,1423.18 1580.74,47.2441 "/>
<polyline clip-path="url(#clip022)" style="stroke:#000000; stroke-linecap:round; stroke-linejoin:round; stroke-width:2; stroke-opacity:0.1; fill:none" points="2015.36,1423.18 2015.36,47.2441 "/>
<polyline clip-path="url(#clip022)" style="stroke:#000000; stroke-linecap:round; stroke-linejoin:round; stroke-width:2; stroke-opacity:0.1; fill:none" points="276.876,1194.78 2352.76,1194.78 "/>
<polyline clip-path="url(#clip022)" style="stroke:#000000; stroke-linecap:round; stroke-linejoin:round; stroke-width:2; stroke-opacity:0.1; fill:none" points="276.876,623.777 2352.76,623.777 "/>
<polyline clip-path="url(#clip022)" style="stroke:#000000; stroke-linecap:round; stroke-linejoin:round; stroke-width:2; stroke-opacity:0.1; fill:none" points="276.876,52.7757 2352.76,52.7757 "/>
<polyline clip-path="url(#clip020)" style="stroke:#000000; stroke-linecap:round; stroke-linejoin:round; stroke-width:4; stroke-opacity:1; fill:none" points="276.876,1423.18 2352.76,1423.18 "/>
<polyline clip-path="url(#clip020)" style="stroke:#000000; stroke-linecap:round; stroke-linejoin:round; stroke-width:4; stroke-opacity:1; fill:none" points="276.876,1423.18 276.876,1404.28 "/>
<polyline clip-path="url(#clip020)" style="stroke:#000000; stroke-linecap:round; stroke-linejoin:round; stroke-width:4; stroke-opacity:1; fill:none" points="711.497,1423.18 711.497,1404.28 "/>
<polyline clip-path="url(#clip020)" style="stroke:#000000; stroke-linecap:round; stroke-linejoin:round; stroke-width:4; stroke-opacity:1; fill:none" points="1146.12,1423.18 1146.12,1404.28 "/>
<polyline clip-path="url(#clip020)" style="stroke:#000000; stroke-linecap:round; stroke-linejoin:round; stroke-width:4; stroke-opacity:1; fill:none" points="1580.74,1423.18 1580.74,1404.28 "/>
<polyline clip-path="url(#clip020)" style="stroke:#000000; stroke-linecap:round; stroke-linejoin:round; stroke-width:4; stroke-opacity:1; fill:none" points="2015.36,1423.18 2015.36,1404.28 "/>
<path clip-path="url(#clip020)" d="M254.26 1454.1 Q250.649 1454.1 248.82 1457.66 Q247.015 1461.2 247.015 1468.33 Q247.015 1475.44 248.82 1479.01 Q250.649 1482.55 254.26 1482.55 Q257.894 1482.55 259.7 1479.01 Q261.528 1475.44 261.528 1468.33 Q261.528 1461.2 259.7 1457.66 Q257.894 1454.1 254.26 1454.1 M254.26 1450.39 Q260.07 1450.39 263.126 1455 Q266.204 1459.58 266.204 1468.33 Q266.204 1477.06 263.126 1481.67 Q260.07 1486.25 254.26 1486.25 Q248.45 1486.25 245.371 1481.67 Q242.316 1477.06 242.316 1468.33 Q242.316 1459.58 245.371 1455 Q248.45 1450.39 254.26 1450.39 Z" fill="#000000" fill-rule="nonzero" fill-opacity="1" /><path clip-path="url(#clip020)" d="M274.422 1479.7 L279.306 1479.7 L279.306 1485.58 L274.422 1485.58 L274.422 1479.7 Z" fill="#000000" fill-rule="nonzero" fill-opacity="1" /><path clip-path="url(#clip020)" d="M299.491 1454.1 Q295.88 1454.1 294.051 1457.66 Q292.246 1461.2 292.246 1468.33 Q292.246 1475.44 294.051 1479.01 Q295.88 1482.55 299.491 1482.55 Q303.125 1482.55 304.931 1479.01 Q306.76 1475.44 306.76 1468.33 Q306.76 1461.2 304.931 1457.66 Q303.125 1454.1 299.491 1454.1 M299.491 1450.39 Q305.301 1450.39 308.357 1455 Q311.436 1459.58 311.436 1468.33 Q311.436 1477.06 308.357 1481.67 Q305.301 1486.25 299.491 1486.25 Q293.681 1486.25 290.602 1481.67 Q287.547 1477.06 287.547 1468.33 Q287.547 1459.58 290.602 1455 Q293.681 1450.39 299.491 1450.39 Z" fill="#000000" fill-rule="nonzero" fill-opacity="1" /><path clip-path="url(#clip020)" d="M689.494 1454.1 Q685.883 1454.1 684.055 1457.66 Q682.249 1461.2 682.249 1468.33 Q682.249 1475.44 684.055 1479.01 Q685.883 1482.55 689.494 1482.55 Q693.129 1482.55 694.934 1479.01 Q696.763 1475.44 696.763 1468.33 Q696.763 1461.2 694.934 1457.66 Q693.129 1454.1 689.494 1454.1 M689.494 1450.39 Q695.305 1450.39 698.36 1455 Q701.439 1459.58 701.439 1468.33 Q701.439 1477.06 698.36 1481.67 Q695.305 1486.25 689.494 1486.25 Q683.684 1486.25 680.606 1481.67 Q677.55 1477.06 677.55 1468.33 Q677.55 1459.58 680.606 1455 Q683.684 1450.39 689.494 1450.39 Z" fill="#000000" fill-rule="nonzero" fill-opacity="1" /><path clip-path="url(#clip020)" d="M709.656 1479.7 L714.541 1479.7 L714.541 1485.58 L709.656 1485.58 L709.656 1479.7 Z" fill="#000000" fill-rule="nonzero" fill-opacity="1" /><path clip-path="url(#clip020)" d="M725.536 1481.64 L733.175 1481.64 L733.175 1455.28 L724.865 1456.95 L724.865 1452.69 L733.128 1451.02 L737.804 1451.02 L737.804 1481.64 L745.443 1481.64 L745.443 1485.58 L725.536 1485.58 L725.536 1481.64 Z" fill="#000000" fill-rule="nonzero" fill-opacity="1" /><path clip-path="url(#clip020)" d="M1124.3 1454.1 Q1120.69 1454.1 1118.86 1457.66 Q1117.06 1461.2 1117.06 1468.33 Q1117.06 1475.44 1118.86 1479.01 Q1120.69 1482.55 1124.3 1482.55 Q1127.93 1482.55 1129.74 1479.01 Q1131.57 1475.44 1131.57 1468.33 Q1131.57 1461.2 1129.74 1457.66 Q1127.93 1454.1 1124.3 1454.1 M1124.3 1450.39 Q1130.11 1450.39 1133.17 1455 Q1136.25 1459.58 1136.25 1468.33 Q1136.25 1477.06 1133.17 1481.67 Q1130.11 1486.25 1124.3 1486.25 Q1118.49 1486.25 1115.41 1481.67 Q1112.36 1477.06 1112.36 1468.33 Q1112.36 1459.58 1115.41 1455 Q1118.49 1450.39 1124.3 1450.39 Z" fill="#000000" fill-rule="nonzero" fill-opacity="1" /><path clip-path="url(#clip020)" d="M1144.46 1479.7 L1149.35 1479.7 L1149.35 1485.58 L1144.46 1485.58 L1144.46 1479.7 Z" fill="#000000" fill-rule="nonzero" fill-opacity="1" /><path clip-path="url(#clip020)" d="M1163.56 1481.64 L1179.88 1481.64 L1179.88 1485.58 L1157.93 1485.58 L1157.93 1481.64 Q1160.6 1478.89 1165.18 1474.26 Q1169.79 1469.61 1170.97 1468.27 Q1173.21 1465.74 1174.09 1464.01 Q1174.99 1462.25 1174.99 1460.56 Q1174.99 1457.8 1173.05 1456.07 Q1171.13 1454.33 1168.03 1454.33 Q1165.83 1454.33 1163.37 1455.09 Q1160.94 1455.86 1158.17 1457.41 L1158.17 1452.69 Q1160.99 1451.55 1163.44 1450.97 Q1165.9 1450.39 1167.93 1450.39 Q1173.31 1450.39 1176.5 1453.08 Q1179.69 1455.77 1179.69 1460.26 Q1179.69 1462.39 1178.88 1464.31 Q1178.1 1466.2 1175.99 1468.8 Q1175.41 1469.47 1172.31 1472.69 Q1169.21 1475.88 1163.56 1481.64 Z" fill="#000000" fill-rule="nonzero" fill-opacity="1" /><path clip-path="url(#clip020)" d="M1558.45 1454.1 Q1554.84 1454.1 1553.01 1457.66 Q1551.2 1461.2 1551.2 1468.33 Q1551.2 1475.44 1553.01 1479.01 Q1554.84 1482.55 1558.45 1482.55 Q1562.08 1482.55 1563.89 1479.01 Q1565.72 1475.44 1565.72 1468.33 Q1565.72 1461.2 1563.89 1457.66 Q1562.08 1454.1 1558.45 1454.1 M1558.45 1450.39 Q1564.26 1450.39 1567.31 1455 Q1570.39 1459.58 1570.39 1468.33 Q1570.39 1477.06 1567.31 1481.67 Q1564.26 1486.25 1558.45 1486.25 Q1552.64 1486.25 1549.56 1481.67 Q1546.5 1477.06 1546.5 1468.33 Q1546.5 1459.58 1549.56 1455 Q1552.64 1450.39 1558.45 1450.39 Z" fill="#000000" fill-rule="nonzero" fill-opacity="1" /><path clip-path="url(#clip020)" d="M1578.61 1479.7 L1583.49 1479.7 L1583.49 1485.58 L1578.61 1485.58 L1578.61 1479.7 Z" fill="#000000" fill-rule="nonzero" fill-opacity="1" /><path clip-path="url(#clip020)" d="M1607.85 1466.95 Q1611.2 1467.66 1613.08 1469.93 Q1614.97 1472.2 1614.97 1475.53 Q1614.97 1480.65 1611.46 1483.45 Q1607.94 1486.25 1601.46 1486.25 Q1599.28 1486.25 1596.97 1485.81 Q1594.67 1485.39 1592.22 1484.54 L1592.22 1480.02 Q1594.16 1481.16 1596.48 1481.74 Q1598.79 1482.32 1601.32 1482.32 Q1605.72 1482.32 1608.01 1480.58 Q1610.32 1478.84 1610.32 1475.53 Q1610.32 1472.48 1608.17 1470.77 Q1606.04 1469.03 1602.22 1469.03 L1598.19 1469.03 L1598.19 1465.19 L1602.41 1465.19 Q1605.85 1465.19 1607.68 1463.82 Q1609.51 1462.43 1609.51 1459.84 Q1609.51 1457.18 1607.61 1455.77 Q1605.74 1454.33 1602.22 1454.33 Q1600.3 1454.33 1598.1 1454.75 Q1595.9 1455.16 1593.26 1456.04 L1593.26 1451.88 Q1595.92 1451.14 1598.24 1450.77 Q1600.58 1450.39 1602.64 1450.39 Q1607.96 1450.39 1611.06 1452.83 Q1614.16 1455.23 1614.16 1459.35 Q1614.16 1462.22 1612.52 1464.21 Q1610.88 1466.18 1607.85 1466.95 Z" fill="#000000" fill-rule="nonzero" fill-opacity="1" /><path clip-path="url(#clip020)" d="M1992.5 1454.1 Q1988.89 1454.1 1987.06 1457.66 Q1985.26 1461.2 1985.26 1468.33 Q1985.26 1475.44 1987.06 1479.01 Q1988.89 1482.55 1992.5 1482.55 Q1996.14 1482.55 1997.94 1479.01 Q1999.77 1475.44 1999.77 1468.33 Q1999.77 1461.2 1997.94 1457.66 Q1996.14 1454.1 1992.5 1454.1 M1992.5 1450.39 Q1998.31 1450.39 2001.37 1455 Q2004.45 1459.58 2004.45 1468.33 Q2004.45 1477.06 2001.37 1481.67 Q1998.31 1486.25 1992.5 1486.25 Q1986.69 1486.25 1983.61 1481.67 Q1980.56 1477.06 1980.56 1468.33 Q1980.56 1459.58 1983.61 1455 Q1986.69 1450.39 1992.5 1450.39 Z" fill="#000000" fill-rule="nonzero" fill-opacity="1" /><path clip-path="url(#clip020)" d="M2012.66 1479.7 L2017.55 1479.7 L2017.55 1485.58 L2012.66 1485.58 L2012.66 1479.7 Z" fill="#000000" fill-rule="nonzero" fill-opacity="1" /><path clip-path="url(#clip020)" d="M2040.58 1455.09 L2028.77 1473.54 L2040.58 1473.54 L2040.58 1455.09 M2039.35 1451.02 L2045.23 1451.02 L2045.23 1473.54 L2050.16 1473.54 L2050.16 1477.43 L2045.23 1477.43 L2045.23 1485.58 L2040.58 1485.58 L2040.58 1477.43 L2024.98 1477.43 L2024.98 1472.92 L2039.35 1451.02 Z" fill="#000000" fill-rule="nonzero" fill-opacity="1" /><path clip-path="url(#clip020)" d="M1104.12 1526.05 L1105.38 1511.23 L1145.66 1511.23 L1146.92 1526.05 L1145.28 1526.05 Q1145.02 1523.08 1144.76 1521.38 Q1144.54 1519.67 1143.96 1518.06 Q1143.41 1516.42 1142.7 1515.64 Q1142.03 1514.84 1140.7 1514.23 Q1139.38 1513.58 1137.68 1513.42 Q1135.97 1513.26 1133.39 1513.26 Q1130.37 1513.26 1129.63 1513.39 Q1128.82 1513.58 1128.63 1514.16 Q1128.43 1514.71 1128.43 1515.9 L1128.43 1550.65 Q1128.43 1551.97 1128.69 1552.52 Q1128.98 1553.03 1130.5 1553.45 Q1132.01 1553.84 1135.36 1553.84 L1138 1553.84 L1138 1555.87 Q1135.29 1555.67 1125.47 1555.67 Q1115.71 1555.67 1113.01 1555.87 L1113.01 1553.84 L1115.65 1553.84 Q1119 1553.84 1120.51 1553.45 Q1122.06 1553.03 1122.32 1552.52 Q1122.57 1551.97 1122.57 1550.65 L1122.57 1515.9 Q1122.57 1514.97 1122.51 1514.58 Q1122.44 1514.19 1122.15 1513.87 Q1121.86 1513.52 1121.19 1513.39 Q1120.54 1513.26 1117.65 1513.26 Q1115.07 1513.26 1113.33 1513.42 Q1111.62 1513.58 1110.3 1514.23 Q1108.98 1514.84 1108.27 1515.64 Q1107.6 1516.42 1107.02 1518.06 Q1106.47 1519.67 1106.24 1521.38 Q1106.02 1523.08 1105.76 1526.05 L1104.12 1526.05 Z" fill="#000000" fill-rule="nonzero" fill-opacity="1" /><path clip-path="url(#clip020)" d="M1156.46 1555.87 L1156.46 1553.84 Q1159.97 1553.84 1160.78 1553.42 Q1161.58 1552.97 1161.58 1550.84 L1161.58 1533.1 Q1161.58 1530.65 1160.75 1530.07 Q1159.94 1529.49 1156.72 1529.49 L1156.72 1527.43 L1165.93 1526.72 L1165.93 1550.91 Q1165.93 1552.87 1166.64 1553.36 Q1167.35 1553.84 1170.57 1553.84 L1170.57 1555.87 Q1163.84 1555.67 1163.71 1555.67 Q1162.81 1555.67 1156.46 1555.87 M1159.23 1515.22 Q1159.23 1513.9 1160.23 1512.84 Q1161.26 1511.75 1162.71 1511.75 Q1164.16 1511.75 1165.19 1512.74 Q1166.22 1513.71 1166.22 1515.26 Q1166.22 1516.77 1165.19 1517.77 Q1164.16 1518.73 1162.71 1518.73 Q1161.2 1518.73 1160.2 1517.67 Q1159.23 1516.61 1159.23 1515.22 Z" fill="#000000" fill-rule="nonzero" fill-opacity="1" /><path clip-path="url(#clip020)" d="M1175.08 1555.87 L1175.08 1553.84 Q1178.59 1553.84 1179.39 1553.42 Q1180.2 1552.97 1180.2 1550.84 L1180.2 1533.16 Q1180.2 1530.72 1179.33 1530.1 Q1178.49 1529.49 1175.08 1529.49 L1175.08 1527.43 L1184.35 1526.72 L1184.35 1533.65 Q1187.44 1526.72 1194.11 1526.72 Q1201.84 1526.72 1202.9 1533.16 Q1204.03 1530.65 1206.38 1528.69 Q1208.76 1526.72 1212.47 1526.72 Q1217.43 1526.72 1219.39 1529.17 Q1220.84 1530.81 1221.13 1532.65 Q1221.42 1534.48 1221.42 1539.25 L1221.42 1551.84 Q1221.49 1553.23 1222.55 1553.55 Q1223.61 1553.84 1226.57 1553.84 L1226.57 1555.87 Q1219.84 1555.67 1219.2 1555.67 Q1218.68 1555.67 1211.73 1555.87 L1211.73 1553.84 Q1215.24 1553.84 1216.04 1553.42 Q1216.88 1552.97 1216.88 1550.84 L1216.88 1535.48 Q1216.88 1532.13 1215.85 1530.17 Q1214.82 1528.17 1211.99 1528.17 Q1208.57 1528.17 1205.83 1531.04 Q1203.1 1533.9 1203.1 1538.73 L1203.1 1550.84 Q1203.1 1552.97 1203.9 1553.42 Q1204.74 1553.84 1208.25 1553.84 L1208.25 1555.87 Q1201.52 1555.67 1200.84 1555.67 Q1200.33 1555.67 1193.4 1555.87 L1193.4 1553.84 Q1196.91 1553.84 1197.72 1553.42 Q1198.56 1552.97 1198.56 1550.84 L1198.56 1535.48 Q1198.56 1532.13 1197.53 1530.17 Q1196.49 1528.17 1193.66 1528.17 Q1190.25 1528.17 1187.51 1531.04 Q1184.77 1533.9 1184.77 1538.73 L1184.77 1550.84 Q1184.77 1552.97 1185.58 1553.42 Q1186.41 1553.84 1189.89 1553.84 L1189.89 1555.87 Q1183.16 1555.67 1182.52 1555.67 Q1182 1555.67 1175.08 1555.87 Z" fill="#000000" fill-rule="nonzero" fill-opacity="1" /><path clip-path="url(#clip020)" d="M1230.52 1541.34 Q1230.52 1535.13 1234.51 1530.72 Q1238.51 1526.3 1244.24 1526.3 Q1250.04 1526.3 1253.03 1530.07 Q1256.06 1533.84 1256.06 1539.25 Q1256.06 1540.25 1255.8 1540.44 Q1255.54 1540.63 1254.42 1540.63 L1236 1540.63 Q1236 1547.37 1237.99 1550.52 Q1240.76 1554.93 1245.43 1554.93 Q1246.08 1554.93 1246.85 1554.8 Q1247.62 1554.68 1249.2 1554.13 Q1250.78 1553.55 1252.16 1552.04 Q1253.55 1550.52 1254.35 1548.14 Q1254.55 1547.2 1255.19 1547.24 Q1256.06 1547.24 1256.06 1548.01 Q1256.06 1548.59 1255.42 1549.91 Q1254.8 1551.2 1253.61 1552.74 Q1252.42 1554.29 1250.1 1555.45 Q1247.82 1556.61 1245.05 1556.61 Q1239.25 1556.61 1234.87 1552.23 Q1230.52 1547.82 1230.52 1541.34 M1236.06 1539.25 L1251.71 1539.25 Q1251.71 1537.86 1251.45 1536.32 Q1251.23 1534.77 1250.52 1532.65 Q1249.84 1530.49 1248.23 1529.14 Q1246.62 1527.78 1244.24 1527.78 Q1243.18 1527.78 1242.02 1528.24 Q1240.89 1528.69 1239.51 1529.78 Q1238.12 1530.88 1237.15 1533.36 Q1236.19 1535.84 1236.06 1539.25 Z" fill="#000000" fill-rule="nonzero" fill-opacity="1" /><path clip-path="url(#clip020)" d="M1263.21 1539.38 Q1263.21 1528.24 1267.37 1519.25 Q1269.14 1515.48 1271.62 1512.33 Q1274.1 1509.17 1275.74 1507.78 Q1277.38 1506.4 1277.83 1506.4 Q1278.48 1506.4 1278.51 1507.04 Q1278.51 1507.37 1277.64 1508.17 Q1267.01 1518.99 1267.04 1539.38 Q1267.04 1559.83 1277.38 1570.23 Q1278.51 1571.36 1278.51 1571.71 Q1278.51 1572.36 1277.83 1572.36 Q1277.38 1572.36 1275.8 1571.04 Q1274.23 1569.72 1271.78 1566.69 Q1269.33 1563.66 1267.56 1559.96 Q1263.21 1550.97 1263.21 1539.38 Z" fill="#000000" fill-rule="nonzero" fill-opacity="1" /><path clip-path="url(#clip020)" d="M1284.84 1555 L1284.84 1546.3 Q1284.84 1545.56 1284.88 1545.3 Q1284.91 1545.05 1285.1 1544.85 Q1285.29 1544.66 1285.68 1544.66 Q1286.13 1544.66 1286.29 1544.85 Q1286.49 1545.05 1286.61 1545.79 Q1287.61 1550.33 1289.74 1552.74 Q1291.9 1555.13 1295.79 1555.13 Q1299.5 1555.13 1301.37 1553.48 Q1303.23 1551.84 1303.23 1549.14 Q1303.23 1544.31 1296.37 1543.08 Q1292.41 1542.28 1290.77 1541.76 Q1289.13 1541.21 1287.68 1540.02 Q1284.84 1537.7 1284.84 1534.42 Q1284.84 1531.13 1287.32 1528.72 Q1289.84 1526.3 1295.37 1526.3 Q1299.08 1526.3 1301.59 1528.17 Q1302.33 1527.59 1302.72 1527.11 Q1303.59 1526.3 1304.04 1526.3 Q1304.55 1526.3 1304.65 1526.66 Q1304.75 1526.98 1304.75 1527.91 L1304.75 1534.55 Q1304.75 1535.29 1304.71 1535.55 Q1304.68 1535.8 1304.49 1536 Q1304.3 1536.16 1303.88 1536.16 Q1303.14 1536.16 1303.1 1535.55 Q1302.59 1527.56 1295.37 1527.56 Q1291.48 1527.56 1289.74 1529.07 Q1288 1530.55 1288 1532.58 Q1288 1533.71 1288.52 1534.58 Q1289.06 1535.42 1289.74 1535.93 Q1290.45 1536.42 1291.74 1536.9 Q1293.02 1537.35 1293.8 1537.51 Q1294.6 1537.67 1296.12 1537.99 Q1301.4 1538.99 1303.62 1541.15 Q1306.39 1543.92 1306.39 1547.43 Q1306.39 1551.33 1303.75 1553.97 Q1301.11 1556.61 1295.79 1556.61 Q1291.51 1556.61 1288.52 1553.74 Q1288.13 1554.13 1287.84 1554.48 Q1287.55 1554.8 1287.42 1554.93 Q1287.32 1555.06 1287.29 1555.16 Q1287.26 1555.22 1287.19 1555.29 Q1285.87 1556.61 1285.55 1556.61 Q1285.04 1556.61 1284.94 1556.25 Q1284.84 1555.93 1284.84 1555 Z" fill="#000000" fill-rule="nonzero" fill-opacity="1" /><path clip-path="url(#clip020)" d="M1310.29 1541.34 Q1310.29 1535.13 1314.28 1530.72 Q1318.28 1526.3 1324.01 1526.3 Q1329.81 1526.3 1332.8 1530.07 Q1335.83 1533.84 1335.83 1539.25 Q1335.83 1540.25 1335.57 1540.44 Q1335.31 1540.63 1334.19 1540.63 L1315.76 1540.63 Q1315.76 1547.37 1317.76 1550.52 Q1320.53 1554.93 1325.2 1554.93 Q1325.85 1554.93 1326.62 1554.8 Q1327.39 1554.68 1328.97 1554.13 Q1330.55 1553.55 1331.93 1552.04 Q1333.32 1550.52 1334.12 1548.14 Q1334.32 1547.2 1334.96 1547.24 Q1335.83 1547.24 1335.83 1548.01 Q1335.83 1548.59 1335.18 1549.91 Q1334.57 1551.2 1333.38 1552.74 Q1332.19 1554.29 1329.87 1555.45 Q1327.58 1556.61 1324.81 1556.61 Q1319.02 1556.61 1314.64 1552.23 Q1310.29 1547.82 1310.29 1541.34 M1315.83 1539.25 L1331.48 1539.25 Q1331.48 1537.86 1331.22 1536.32 Q1331 1534.77 1330.29 1532.65 Q1329.61 1530.49 1328 1529.14 Q1326.39 1527.78 1324.01 1527.78 Q1322.95 1527.78 1321.79 1528.24 Q1320.66 1528.69 1319.28 1529.78 Q1317.89 1530.88 1316.92 1533.36 Q1315.96 1535.84 1315.83 1539.25 Z" fill="#000000" fill-rule="nonzero" fill-opacity="1" /><path clip-path="url(#clip020)" d="M1343.47 1552.26 Q1339.29 1547.88 1339.29 1541.63 Q1339.29 1535.35 1343.41 1530.84 Q1347.53 1526.3 1353.58 1526.3 Q1357.61 1526.3 1360.64 1528.24 Q1363.67 1530.14 1363.67 1533.39 Q1363.67 1534.84 1362.8 1535.67 Q1361.96 1536.48 1360.64 1536.48 Q1359.25 1536.48 1358.42 1535.64 Q1357.61 1534.77 1357.61 1533.45 Q1357.61 1532.87 1357.8 1532.29 Q1358 1531.71 1358.71 1531.1 Q1359.45 1530.49 1360.7 1530.39 Q1358.35 1527.98 1353.78 1527.98 Q1353.71 1527.98 1353.65 1527.98 Q1350.3 1527.98 1347.53 1531.13 Q1344.76 1534.29 1344.76 1541.5 Q1344.76 1545.27 1345.66 1548.04 Q1346.6 1550.78 1348.11 1552.2 Q1349.62 1553.61 1351.11 1554.29 Q1352.59 1554.93 1354.04 1554.93 Q1360.51 1554.93 1362.7 1548.01 Q1362.89 1547.37 1363.54 1547.37 Q1364.41 1547.37 1364.41 1548.01 Q1364.41 1548.33 1364.15 1549.17 Q1363.89 1550.01 1363.09 1551.33 Q1362.28 1552.65 1361.12 1553.81 Q1359.99 1554.93 1357.96 1555.77 Q1355.97 1556.61 1353.46 1556.61 Q1347.66 1556.61 1343.47 1552.26 Z" fill="#000000" fill-rule="nonzero" fill-opacity="1" /><path clip-path="url(#clip020)" d="M1372.1 1552.33 Q1367.75 1548.01 1367.75 1541.76 Q1367.75 1535.48 1372 1530.91 Q1376.29 1526.3 1382.41 1526.3 Q1388.4 1526.3 1392.68 1530.88 Q1397 1535.42 1397 1541.76 Q1397 1547.98 1392.65 1552.29 Q1388.33 1556.61 1382.34 1556.61 Q1376.48 1556.61 1372.1 1552.33 M1373.23 1541.21 Q1373.23 1547.62 1374.9 1550.52 Q1377.48 1554.93 1382.41 1554.93 Q1384.85 1554.93 1386.88 1553.61 Q1388.94 1552.29 1390.07 1550.07 Q1391.52 1547.17 1391.52 1541.21 Q1391.52 1534.87 1389.78 1532.07 Q1387.21 1527.78 1382.34 1527.78 Q1380.22 1527.78 1378.12 1528.91 Q1376.06 1530.01 1374.81 1532.2 Q1373.23 1535.09 1373.23 1541.21 Z" fill="#000000" fill-rule="nonzero" fill-opacity="1" /><path clip-path="url(#clip020)" d="M1399.1 1555.87 L1399.1 1553.84 Q1402.61 1553.84 1403.41 1553.42 Q1404.22 1552.97 1404.22 1550.84 L1404.22 1533.16 Q1404.22 1530.72 1403.35 1530.1 Q1402.51 1529.49 1399.1 1529.49 L1399.1 1527.43 L1408.37 1526.72 L1408.37 1533.65 Q1411.46 1526.72 1418.13 1526.72 Q1423.09 1526.72 1425.06 1529.17 Q1426.5 1530.81 1426.79 1532.65 Q1427.12 1534.48 1427.12 1539.25 L1427.12 1551.84 Q1427.18 1553.23 1428.24 1553.55 Q1429.31 1553.84 1432.27 1553.84 L1432.27 1555.87 Q1425.54 1555.67 1424.86 1555.67 Q1424.35 1555.67 1417.42 1555.87 L1417.42 1553.84 Q1420.93 1553.84 1421.74 1553.42 Q1422.58 1552.97 1422.58 1550.84 L1422.58 1535.48 Q1422.58 1532.13 1421.54 1530.17 Q1420.51 1528.17 1417.68 1528.17 Q1414.27 1528.17 1411.53 1531.04 Q1408.79 1533.9 1408.79 1538.73 L1408.79 1550.84 Q1408.79 1552.97 1409.6 1553.42 Q1410.43 1553.84 1413.91 1553.84 L1413.91 1555.87 Q1407.18 1555.67 1406.54 1555.67 Q1406.02 1555.67 1399.1 1555.87 Z" fill="#000000" fill-rule="nonzero" fill-opacity="1" /><path clip-path="url(#clip020)" d="M1436.92 1541.7 Q1436.92 1535.42 1441.3 1531.07 Q1445.68 1526.72 1451.6 1526.72 Q1456.63 1526.72 1459.91 1530.81 L1459.91 1516.54 Q1459.91 1514.1 1459.04 1513.48 Q1458.21 1512.87 1454.79 1512.87 L1454.79 1510.81 L1464.29 1510.1 L1464.29 1550.14 Q1464.29 1552.58 1465.13 1553.23 Q1466 1553.84 1469.41 1553.84 L1469.41 1555.87 L1459.72 1556.61 L1459.72 1552.23 Q1456.31 1556.58 1450.9 1556.61 Q1445.23 1556.61 1441.07 1552.26 Q1436.92 1547.91 1436.92 1541.7 M1442.39 1541.76 Q1442.39 1547.88 1444.29 1550.91 Q1446.93 1555.13 1451.22 1555.13 Q1456.11 1555.13 1459.01 1550.52 Q1459.75 1549.39 1459.72 1548.07 L1459.72 1534.55 Q1459.72 1533.23 1459.01 1532.13 Q1456.31 1528.17 1451.89 1528.17 Q1447.29 1528.17 1444.42 1532.39 Q1442.39 1535.55 1442.39 1541.76 Z" fill="#000000" fill-rule="nonzero" fill-opacity="1" /><path clip-path="url(#clip020)" d="M1473.42 1555 L1473.42 1546.3 Q1473.42 1545.56 1473.45 1545.3 Q1473.48 1545.05 1473.68 1544.85 Q1473.87 1544.66 1474.26 1544.66 Q1474.71 1544.66 1474.87 1544.85 Q1475.06 1545.05 1475.19 1545.79 Q1476.19 1550.33 1478.31 1552.74 Q1480.47 1555.13 1484.37 1555.13 Q1488.07 1555.13 1489.94 1553.48 Q1491.81 1551.84 1491.81 1549.14 Q1491.81 1544.31 1484.95 1543.08 Q1480.99 1542.28 1479.34 1541.76 Q1477.7 1541.21 1476.25 1540.02 Q1473.42 1537.7 1473.42 1534.42 Q1473.42 1531.13 1475.9 1528.72 Q1478.41 1526.3 1483.95 1526.3 Q1487.65 1526.3 1490.17 1528.17 Q1490.91 1527.59 1491.29 1527.11 Q1492.16 1526.3 1492.61 1526.3 Q1493.13 1526.3 1493.23 1526.66 Q1493.32 1526.98 1493.32 1527.91 L1493.32 1534.55 Q1493.32 1535.29 1493.29 1535.55 Q1493.26 1535.8 1493.06 1536 Q1492.87 1536.16 1492.45 1536.16 Q1491.71 1536.16 1491.68 1535.55 Q1491.16 1527.56 1483.95 1527.56 Q1480.05 1527.56 1478.31 1529.07 Q1476.57 1530.55 1476.57 1532.58 Q1476.57 1533.71 1477.09 1534.58 Q1477.64 1535.42 1478.31 1535.93 Q1479.02 1536.42 1480.31 1536.9 Q1481.6 1537.35 1482.37 1537.51 Q1483.18 1537.67 1484.69 1537.99 Q1489.97 1538.99 1492.19 1541.15 Q1494.96 1543.92 1494.96 1547.43 Q1494.96 1551.33 1492.32 1553.97 Q1489.68 1556.61 1484.37 1556.61 Q1480.09 1556.61 1477.09 1553.74 Q1476.7 1554.13 1476.41 1554.48 Q1476.12 1554.8 1476 1554.93 Q1475.9 1555.06 1475.87 1555.16 Q1475.83 1555.22 1475.77 1555.29 Q1474.45 1556.61 1474.13 1556.61 Q1473.61 1556.61 1473.52 1556.25 Q1473.42 1555.93 1473.42 1555 Z" fill="#000000" fill-rule="nonzero" fill-opacity="1" /><path clip-path="url(#clip020)" d="M1500.18 1571.71 Q1500.18 1571.39 1501.02 1570.59 Q1511.65 1559.76 1511.65 1539.38 Q1511.65 1518.93 1501.44 1508.59 Q1500.18 1507.4 1500.18 1507.04 Q1500.18 1506.4 1500.83 1506.4 Q1501.28 1506.4 1502.86 1507.72 Q1504.47 1509.04 1506.88 1512.07 Q1509.33 1515.1 1511.13 1518.8 Q1515.48 1527.78 1515.48 1539.38 Q1515.48 1550.52 1511.33 1559.51 Q1509.56 1563.28 1507.08 1566.43 Q1504.6 1569.59 1502.95 1570.97 Q1501.31 1572.36 1500.83 1572.36 Q1500.18 1572.36 1500.18 1571.71 Z" fill="#000000" fill-rule="nonzero" fill-opacity="1" /><polyline clip-path="url(#clip020)" style="stroke:#000000; stroke-linecap:round; stroke-linejoin:round; stroke-width:4; stroke-opacity:1; fill:none" points="276.876,1423.18 276.876,47.2441 "/>
<polyline clip-path="url(#clip020)" style="stroke:#000000; stroke-linecap:round; stroke-linejoin:round; stroke-width:4; stroke-opacity:1; fill:none" points="276.876,1194.78 295.773,1194.78 "/>
<polyline clip-path="url(#clip020)" style="stroke:#000000; stroke-linecap:round; stroke-linejoin:round; stroke-width:4; stroke-opacity:1; fill:none" points="276.876,623.777 295.773,623.777 "/>
<polyline clip-path="url(#clip020)" style="stroke:#000000; stroke-linecap:round; stroke-linejoin:round; stroke-width:4; stroke-opacity:1; fill:none" points="276.876,52.7757 295.773,52.7757 "/>
<path clip-path="url(#clip020)" d="M114.931 1214.57 L122.57 1214.57 L122.57 1188.21 L114.26 1189.87 L114.26 1185.61 L122.524 1183.95 L127.2 1183.95 L127.2 1214.57 L134.839 1214.57 L134.839 1218.51 L114.931 1218.51 L114.931 1214.57 Z" fill="#000000" fill-rule="nonzero" fill-opacity="1" /><path clip-path="url(#clip020)" d="M154.283 1187.03 Q150.672 1187.03 148.843 1190.59 Q147.038 1194.13 147.038 1201.26 Q147.038 1208.37 148.843 1211.93 Q150.672 1215.47 154.283 1215.47 Q157.917 1215.47 159.723 1211.93 Q161.552 1208.37 161.552 1201.26 Q161.552 1194.13 159.723 1190.59 Q157.917 1187.03 154.283 1187.03 M154.283 1183.32 Q160.093 1183.32 163.149 1187.93 Q166.227 1192.51 166.227 1201.26 Q166.227 1209.99 163.149 1214.59 Q160.093 1219.18 154.283 1219.18 Q148.473 1219.18 145.394 1214.59 Q142.339 1209.99 142.339 1201.26 Q142.339 1192.51 145.394 1187.93 Q148.473 1183.32 154.283 1183.32 Z" fill="#000000" fill-rule="nonzero" fill-opacity="1" /><path clip-path="url(#clip020)" d="M166.227 1177.42 L190.339 1177.42 L190.339 1180.62 L166.227 1180.62 L166.227 1177.42 Z" fill="#000000" fill-rule="nonzero" fill-opacity="1" /><path clip-path="url(#clip020)" d="M199.197 1187.9 L205.404 1187.9 L205.404 1166.48 L198.652 1167.83 L198.652 1164.37 L205.366 1163.02 L209.166 1163.02 L209.166 1187.9 L215.372 1187.9 L215.372 1191.1 L199.197 1191.1 L199.197 1187.9 Z" fill="#000000" fill-rule="nonzero" fill-opacity="1" /><path clip-path="url(#clip020)" d="M231.171 1165.52 Q228.237 1165.52 226.751 1168.41 Q225.284 1171.29 225.284 1177.08 Q225.284 1182.86 226.751 1185.75 Q228.237 1188.63 231.171 1188.63 Q234.124 1188.63 235.591 1185.75 Q237.076 1182.86 237.076 1177.08 Q237.076 1171.29 235.591 1168.41 Q234.124 1165.52 231.171 1165.52 M231.171 1162.51 Q235.891 1162.51 238.374 1166.25 Q240.876 1169.98 240.876 1177.08 Q240.876 1184.18 238.374 1187.92 Q235.891 1191.64 231.171 1191.64 Q226.45 1191.64 223.949 1187.92 Q221.466 1184.18 221.466 1177.08 Q221.466 1169.98 223.949 1166.25 Q226.45 1162.51 231.171 1162.51 Z" fill="#000000" fill-rule="nonzero" fill-opacity="1" /><path clip-path="url(#clip020)" d="M140.247 643.57 L147.886 643.57 L147.886 617.204 L139.575 618.871 L139.575 614.612 L147.839 612.945 L152.515 612.945 L152.515 643.57 L160.154 643.57 L160.154 647.505 L140.247 647.505 L140.247 643.57 Z" fill="#000000" fill-rule="nonzero" fill-opacity="1" /><path clip-path="url(#clip020)" d="M179.598 616.024 Q175.987 616.024 174.159 619.588 Q172.353 623.13 172.353 630.26 Q172.353 637.366 174.159 640.931 Q175.987 644.473 179.598 644.473 Q183.233 644.473 185.038 640.931 Q186.867 637.366 186.867 630.26 Q186.867 623.13 185.038 619.588 Q183.233 616.024 179.598 616.024 M179.598 612.32 Q185.409 612.32 188.464 616.926 Q191.543 621.51 191.543 630.26 Q191.543 638.987 188.464 643.593 Q185.409 648.176 179.598 648.176 Q173.788 648.176 170.71 643.593 Q167.654 638.987 167.654 630.26 Q167.654 621.51 170.71 616.926 Q173.788 612.32 179.598 612.32 Z" fill="#000000" fill-rule="nonzero" fill-opacity="1" /><path clip-path="url(#clip020)" d="M191.543 606.421 L215.654 606.421 L215.654 609.619 L191.543 609.619 L191.543 606.421 Z" fill="#000000" fill-rule="nonzero" fill-opacity="1" /><path clip-path="url(#clip020)" d="M223.892 592.015 L238.807 592.015 L238.807 595.212 L227.372 595.212 L227.372 602.096 Q228.199 601.813 229.027 601.682 Q229.854 601.531 230.682 601.531 Q235.384 601.531 238.13 604.108 Q240.876 606.685 240.876 611.086 Q240.876 615.618 238.054 618.139 Q235.233 620.64 230.099 620.64 Q228.331 620.64 226.488 620.339 Q224.663 620.038 222.707 619.436 L222.707 615.618 Q224.4 616.54 226.205 616.991 Q228.011 617.443 230.023 617.443 Q233.277 617.443 235.177 615.731 Q237.076 614.02 237.076 611.086 Q237.076 608.152 235.177 606.44 Q233.277 604.729 230.023 604.729 Q228.5 604.729 226.977 605.067 Q225.472 605.406 223.892 606.12 L223.892 592.015 Z" fill="#000000" fill-rule="nonzero" fill-opacity="1" /><path clip-path="url(#clip020)" d="M170.17 72.5681 L177.809 72.5681 L177.809 46.2025 L169.499 47.8691 L169.499 43.6099 L177.762 41.9433 L182.438 41.9433 L182.438 72.5681 L190.077 72.5681 L190.077 76.5033 L170.17 76.5033 L170.17 72.5681 Z" fill="#000000" fill-rule="nonzero" fill-opacity="1" /><path clip-path="url(#clip020)" d="M209.522 45.0219 Q205.91 45.0219 204.082 48.5867 Q202.276 52.1284 202.276 59.258 Q202.276 66.3644 204.082 69.9292 Q205.91 73.4709 209.522 73.4709 Q213.156 73.4709 214.961 69.9292 Q216.79 66.3644 216.79 59.258 Q216.79 52.1284 214.961 48.5867 Q213.156 45.0219 209.522 45.0219 M209.522 41.3183 Q215.332 41.3183 218.387 45.9247 Q221.466 50.508 221.466 59.258 Q221.466 67.9848 218.387 72.5912 Q215.332 77.1745 209.522 77.1745 Q203.711 77.1745 200.633 72.5912 Q197.577 67.9848 197.577 59.258 Q197.577 50.508 200.633 45.9247 Q203.711 41.3183 209.522 41.3183 Z" fill="#000000" fill-rule="nonzero" fill-opacity="1" /><path clip-path="url(#clip020)" d="M231.171 23.5143 Q228.237 23.5143 226.751 26.4107 Q225.284 29.2883 225.284 35.0811 Q225.284 40.8551 226.751 43.7514 Q228.237 46.629 231.171 46.629 Q234.124 46.629 235.591 43.7514 Q237.076 40.8551 237.076 35.0811 Q237.076 29.2883 235.591 26.4107 Q234.124 23.5143 231.171 23.5143 M231.171 20.505 Q235.891 20.505 238.374 24.2478 Q240.876 27.9717 240.876 35.0811 Q240.876 42.1716 238.374 45.9143 Q235.891 49.6383 231.171 49.6383 Q226.45 49.6383 223.949 45.9143 Q221.466 42.1716 221.466 35.0811 Q221.466 27.9717 223.949 24.2478 Q226.45 20.505 231.171 20.505 Z" fill="#000000" fill-rule="nonzero" fill-opacity="1" /><path clip-path="url(#clip020)" d="M66.0841 1072.66 L64.0551 1072.66 Q64.0551 1070.27 63.6042 1068.76 Q63.1212 1067.25 62.2516 1066.7 Q61.3498 1066.12 60.7701 1065.99 Q60.1582 1065.86 59.1598 1065.86 L26.181 1065.86 Q24.2809 1065.86 23.7012 1066.7 Q23.0893 1067.5 23.0893 1071.08 L23.0893 1072.66 L21.0281 1072.66 L21.0281 1061.51 Q21.0281 1060.32 21.2535 1060 Q21.4468 1059.68 22.4774 1059.19 L59.4175 1044.9 L22.2841 1030.47 Q21.3502 1030.14 21.1891 1029.85 Q21.0281 1029.53 21.0281 1028.28 L21.0281 1017.13 L23.0893 1017.13 L23.0893 1018.71 Q23.0893 1022.29 23.7012 1023.12 Q24.2809 1023.93 26.181 1023.93 L60.9312 1023.93 Q62.8313 1023.93 63.4432 1023.12 Q64.0551 1022.29 64.0551 1018.71 L64.0551 1017.13 L66.0841 1017.13 Q65.8909 1019.58 65.8909 1026.57 Q65.8909 1033.62 66.0841 1036.07 L64.0551 1036.07 L64.0551 1034.46 Q64.0551 1030.89 63.4754 1030.08 Q62.8635 1029.28 60.9312 1029.28 L23.0893 1029.28 L23.0893 1029.34 L64.8281 1045.54 Q66.0841 1045.99 66.0841 1046.73 Q66.0841 1047.54 64.6348 1048.05 L23.6046 1063.96 L23.6046 1064.03 L59.1598 1064.03 Q60.1582 1064.03 60.7701 1063.9 Q61.3498 1063.77 62.2516 1063.22 Q63.1212 1062.64 63.6042 1061.13 Q64.0551 1059.61 64.0551 1057.23 L66.0841 1057.23 Q65.8909 1064.15 65.8909 1064.96 Q65.8909 1065.73 66.0841 1072.66 Z" fill="#000000" fill-rule="nonzero" fill-opacity="1" /><path clip-path="url(#clip020)" d="M66.0841 1006.77 L64.0551 1006.77 Q64.0551 1003.26 63.6364 1002.46 Q63.1856 1001.65 61.06 1001.65 L43.3146 1001.65 Q40.8669 1001.65 40.2872 1002.49 Q39.7075 1003.3 39.7075 1006.52 L37.6463 1006.52 L36.9378 997.306 L61.1244 997.306 Q63.0889 997.306 63.572 996.598 Q64.0551 995.889 64.0551 992.669 L66.0841 992.669 Q65.8909 999.4 65.8909 999.528 Q65.8909 1000.43 66.0841 1006.77 M25.4403 1004.01 Q24.1199 1004.01 23.0571 1003.01 Q21.9621 1001.98 21.9621 1000.53 Q21.9621 999.078 22.9604 998.047 Q23.9266 997.016 25.4725 997.016 Q26.9862 997.016 27.9846 998.047 Q28.9507 999.078 28.9507 1000.53 Q28.9507 1002.04 27.8879 1003.04 Q26.8252 1004.01 25.4403 1004.01 Z" fill="#000000" fill-rule="nonzero" fill-opacity="1" /><path clip-path="url(#clip020)" d="M66.0841 988.16 L64.0551 988.16 Q64.0551 984.65 63.6364 983.845 Q63.1856 983.04 61.06 983.04 L43.379 983.04 Q40.9313 983.04 40.3194 983.909 Q39.7075 984.747 39.7075 988.16 L37.6463 988.16 L36.9378 978.885 L43.8621 978.885 Q36.9378 975.793 36.9378 969.127 Q36.9378 964.167 39.3854 962.202 Q41.0279 960.753 42.8637 960.463 Q44.6994 960.141 49.4659 960.141 L62.0584 960.141 Q63.4432 960.077 63.7653 959.014 Q64.0551 957.951 64.0551 954.988 L66.0841 954.988 Q65.8909 961.719 65.8909 962.396 Q65.8909 962.911 66.0841 969.835 L64.0551 969.835 Q64.0551 966.325 63.6364 965.52 Q63.1856 964.682 61.06 964.682 L45.6978 964.682 Q42.3484 964.682 40.3838 965.713 Q38.3871 966.743 38.3871 969.578 Q38.3871 972.991 41.2534 975.729 Q44.1197 978.466 48.9506 978.466 L61.06 978.466 Q63.1856 978.466 63.6364 977.661 Q64.0551 976.824 64.0551 973.346 L66.0841 973.346 Q65.8909 980.077 65.8909 980.721 Q65.8909 981.236 66.0841 988.16 Z" fill="#000000" fill-rule="nonzero" fill-opacity="1" /><path clip-path="url(#clip020)" d="M66.0841 951.66 L64.0551 951.66 Q64.0551 948.149 63.6364 947.344 Q63.1856 946.539 61.06 946.539 L43.3146 946.539 Q40.8669 946.539 40.2872 947.376 Q39.7075 948.181 39.7075 951.402 L37.6463 951.402 L36.9378 942.191 L61.1244 942.191 Q63.0889 942.191 63.572 941.483 Q64.0551 940.774 64.0551 937.553 L66.0841 937.553 Q65.8909 944.285 65.8909 944.413 Q65.8909 945.315 66.0841 951.66 M25.4403 948.89 Q24.1199 948.89 23.0571 947.892 Q21.9621 946.861 21.9621 945.412 Q21.9621 943.962 22.9604 942.932 Q23.9266 941.901 25.4725 941.901 Q26.9862 941.901 27.9846 942.932 Q28.9507 943.962 28.9507 945.412 Q28.9507 946.925 27.8879 947.924 Q26.8252 948.89 25.4403 948.89 Z" fill="#000000" fill-rule="nonzero" fill-opacity="1" /><path clip-path="url(#clip020)" d="M66.0841 933.045 L64.0551 933.045 Q64.0551 929.535 63.6364 928.73 Q63.1856 927.924 61.06 927.924 L43.379 927.924 Q40.9313 927.924 40.3194 928.794 Q39.7075 929.631 39.7075 933.045 L37.6463 933.045 L36.9378 923.77 L43.8621 923.77 Q36.9378 920.678 36.9378 914.012 Q36.9378 906.282 43.379 905.219 Q40.8669 904.092 38.9023 901.741 Q36.9378 899.358 36.9378 895.654 Q36.9378 890.695 39.3854 888.73 Q41.0279 887.281 42.8637 886.991 Q44.6994 886.701 49.4659 886.701 L62.0584 886.701 Q63.4432 886.637 63.7653 885.574 Q64.0551 884.511 64.0551 881.548 L66.0841 881.548 Q65.8909 888.279 65.8909 888.923 Q65.8909 889.438 66.0841 896.395 L64.0551 896.395 Q64.0551 892.885 63.6364 892.079 Q63.1856 891.242 61.06 891.242 L45.6978 891.242 Q42.3484 891.242 40.3838 892.273 Q38.3871 893.303 38.3871 896.137 Q38.3871 899.551 41.2534 902.289 Q44.1197 905.026 48.9506 905.026 L61.06 905.026 Q63.1856 905.026 63.6364 904.221 Q64.0551 903.384 64.0551 899.873 L66.0841 899.873 Q65.8909 906.604 65.8909 907.281 Q65.8909 907.796 66.0841 914.72 L64.0551 914.72 Q64.0551 911.21 63.6364 910.405 Q63.1856 909.567 61.06 909.567 L45.6978 909.567 Q42.3484 909.567 40.3838 910.598 Q38.3871 911.628 38.3871 914.462 Q38.3871 917.876 41.2534 920.614 Q44.1197 923.351 48.9506 923.351 L61.06 923.351 Q63.1856 923.351 63.6364 922.546 Q64.0551 921.709 64.0551 918.231 L66.0841 918.231 Q65.8909 924.962 65.8909 925.606 Q65.8909 926.121 66.0841 933.045 Z" fill="#000000" fill-rule="nonzero" fill-opacity="1" /><path clip-path="url(#clip020)" d="M39.7075 878.922 L37.6463 878.922 L36.9378 869.228 L58.8378 869.228 Q60.4159 869.228 61.3498 869.1 Q62.2516 868.971 63.3144 868.455 Q64.3772 867.908 64.8603 866.684 Q65.3434 865.428 65.3434 863.431 Q65.3434 859.856 62.4126 857.666 Q59.4819 855.444 55.1341 855.444 L43.379 855.444 Q40.9313 855.444 40.3194 856.314 Q39.7075 857.183 39.7075 860.597 L37.6463 860.597 L36.9378 850.903 L60.3515 850.903 Q62.7991 850.903 63.4432 850.066 Q64.0551 849.196 64.0551 845.75 L66.0841 845.75 L66.8248 855.251 L60.8667 855.251 Q66.7926 858.021 66.8248 863.753 Q66.8248 866.652 66.0841 868.649 Q65.3434 870.613 64.4416 871.612 Q63.5076 872.61 61.7363 873.157 Q59.965 873.673 58.87 873.737 Q57.775 873.802 55.6494 873.802 L45.7622 873.802 Q41.2856 873.802 40.5126 874.446 Q39.7075 875.09 39.7075 878.922 Z" fill="#000000" fill-rule="nonzero" fill-opacity="1" /><path clip-path="url(#clip020)" d="M66.0841 843.478 L64.0551 843.478 Q64.0551 839.967 63.6364 839.162 Q63.1856 838.357 61.06 838.357 L43.379 838.357 Q40.9313 838.357 40.3194 839.226 Q39.7075 840.064 39.7075 843.478 L37.6463 843.478 L36.9378 834.202 L43.8621 834.202 Q36.9378 831.111 36.9378 824.444 Q36.9378 816.715 43.379 815.652 Q40.8669 814.525 38.9023 812.173 Q36.9378 809.79 36.9378 806.087 Q36.9378 801.127 39.3854 799.162 Q41.0279 797.713 42.8637 797.423 Q44.6994 797.133 49.4659 797.133 L62.0584 797.133 Q63.4432 797.069 63.7653 796.006 Q64.0551 794.943 64.0551 791.98 L66.0841 791.98 Q65.8909 798.711 65.8909 799.356 Q65.8909 799.871 66.0841 806.827 L64.0551 806.827 Q64.0551 803.317 63.6364 802.512 Q63.1856 801.674 61.06 801.674 L45.6978 801.674 Q42.3484 801.674 40.3838 802.705 Q38.3871 803.736 38.3871 806.57 Q38.3871 809.984 41.2534 812.721 Q44.1197 815.458 48.9506 815.458 L61.06 815.458 Q63.1856 815.458 63.6364 814.653 Q64.0551 813.816 64.0551 810.306 L66.0841 810.306 Q65.8909 817.037 65.8909 817.713 Q65.8909 818.228 66.0841 825.152 L64.0551 825.152 Q64.0551 821.642 63.6364 820.837 Q63.1856 820 61.06 820 L45.6978 820 Q42.3484 820 40.3838 821.03 Q38.3871 822.061 38.3871 824.895 Q38.3871 828.309 41.2534 831.046 Q44.1197 833.784 48.9506 833.784 L61.06 833.784 Q63.1856 833.784 63.6364 832.978 Q64.0551 832.141 64.0551 828.663 L66.0841 828.663 Q65.8909 835.394 65.8909 836.038 Q65.8909 836.553 66.0841 843.478 Z" fill="#000000" fill-rule="nonzero" fill-opacity="1" /><path clip-path="url(#clip020)" d="M43.7332 788.035 Q33.6528 788.035 26.6319 781.593 Q19.5788 775.12 19.5788 766.135 Q19.5788 757.085 26.6319 750.644 Q33.685 744.17 43.7332 744.17 Q53.6848 744.17 60.6091 750.644 Q67.5334 757.117 67.5334 766.135 Q67.5334 775.023 60.6413 781.529 Q53.7493 788.035 43.7332 788.035 M42.7993 781.239 Q48.9184 781.239 53.6204 779.79 Q58.2903 778.341 60.8345 776.022 Q63.3788 773.671 64.6026 771.159 Q65.8264 768.647 65.8264 766.07 Q65.8264 763.558 64.6348 761.111 Q63.4432 758.631 60.9312 756.28 Q58.4191 753.929 53.717 752.447 Q49.015 750.966 42.7993 750.966 Q37.9684 750.966 34.1037 751.996 Q30.2068 753.027 27.8557 754.637 Q25.5047 756.247 23.9588 758.341 Q22.4129 760.402 21.8332 762.367 Q21.2213 764.299 21.2213 766.135 Q21.2213 768.453 22.2519 770.869 Q23.2825 773.284 25.5691 775.732 Q27.8235 778.147 32.3001 779.693 Q36.7446 781.239 42.7993 781.239 Z" fill="#000000" fill-rule="nonzero" fill-opacity="1" /><path clip-path="url(#clip020)" d="M23.0893 736.492 L21.0281 736.492 L20.3196 726.991 L41.2212 726.991 Q36.9378 723.159 36.9378 717.942 Q36.9378 712.273 41.2856 708.119 Q45.6334 703.964 51.8491 703.964 Q58.1292 703.964 62.477 708.312 Q66.8248 712.66 66.8248 718.682 Q66.8248 724.157 61.994 727.313 Q66.0197 729.632 66.0841 729.697 L66.0841 731.339 L26.7607 731.339 Q24.3131 731.339 23.7012 732.209 Q23.0893 733.078 23.0893 736.492 M58.5801 726.798 Q59.965 726.798 61.3498 725.864 Q65.3434 723.256 65.3434 719.004 Q65.3434 718.972 65.3434 718.94 Q65.3434 714.335 61.1244 711.468 Q57.9682 709.439 51.7847 709.439 Q45.6656 709.439 42.606 711.339 Q38.3871 713.98 38.3871 718.264 Q38.3871 723.095 42.606 726.057 Q43.6688 726.798 44.9893 726.798 L58.5801 726.798 Z" fill="#000000" fill-rule="nonzero" fill-opacity="1" /><path clip-path="url(#clip020)" d="M74.3288 704.215 Q73.0084 704.215 72.1388 703.378 Q71.3014 702.573 71.3014 701.188 Q71.3014 699.803 72.1388 698.998 Q73.0084 698.161 74.3288 698.161 Q75.5204 698.161 76.2611 698.869 Q77.0341 699.546 77.2917 700.447 Q78.1613 698.74 78.1613 696.905 Q78.1613 695.391 77.2595 694.36 Q76.3578 693.33 74.8763 692.879 Q73.3948 692.396 72.1388 692.235 Q70.915 692.074 69.4979 692.074 L43.379 692.074 Q40.9313 692.074 40.3194 693.04 Q39.7075 693.974 39.7075 697.742 L37.6463 697.742 L36.9378 687.726 L69.3691 687.726 Q73.7813 687.726 76.6798 690.367 Q79.6106 693.008 79.6106 696.744 Q79.6106 699.771 78.1935 701.993 Q76.7764 704.215 74.3288 704.215 M27.9524 693.684 Q26.9218 694.715 25.4725 694.715 Q24.0232 694.715 22.9927 693.684 Q21.9621 692.654 21.9621 691.204 Q21.9621 689.755 22.9927 688.724 Q24.0232 687.694 25.4725 687.694 Q26.9218 687.694 27.9524 688.724 Q28.9507 689.755 28.9507 691.204 Q28.9507 692.654 27.9524 693.684 Z" fill="#000000" fill-rule="nonzero" fill-opacity="1" /><path clip-path="url(#clip020)" d="M51.5593 676.919 Q45.3435 676.919 40.9313 672.925 Q36.5191 668.932 36.5191 663.199 Q36.5191 657.402 40.2872 654.407 Q44.0553 651.38 49.4659 651.38 Q50.4643 651.38 50.6575 651.637 Q50.8507 651.895 50.8507 653.022 L50.8507 671.444 Q57.5817 671.444 60.7379 669.447 Q65.1501 666.677 65.1501 662.007 Q65.1501 661.363 65.0213 660.59 Q64.8925 659.817 64.345 658.239 Q63.7653 656.661 62.2516 655.276 Q60.7379 653.892 58.3547 653.086 Q57.4207 652.893 57.4529 652.249 Q57.4529 651.38 58.2259 651.38 Q58.8056 651.38 60.126 652.024 Q61.4142 652.636 62.9601 653.827 Q64.506 655.019 65.6654 657.338 Q66.8248 659.624 66.8248 662.394 Q66.8248 668.191 62.4448 672.571 Q58.0326 676.919 51.5593 676.919 M49.4659 671.379 L49.4659 655.727 Q48.081 655.727 46.5351 655.985 Q44.9893 656.21 42.8637 656.919 Q40.7059 657.595 39.3532 659.206 Q38.0006 660.816 38.0006 663.199 Q38.0006 664.262 38.4515 665.421 Q38.9023 666.549 39.9973 667.933 Q41.0923 669.318 43.5722 670.284 Q46.052 671.251 49.4659 671.379 Z" fill="#000000" fill-rule="nonzero" fill-opacity="1" /><path clip-path="url(#clip020)" d="M62.477 643.736 Q58.097 647.923 51.8491 647.923 Q45.569 647.923 41.0601 643.801 Q36.5191 639.678 36.5191 633.624 Q36.5191 629.598 38.4515 626.571 Q40.3516 623.543 43.6044 623.543 Q45.0537 623.543 45.891 624.413 Q46.6962 625.25 46.6962 626.571 Q46.6962 627.955 45.8588 628.793 Q44.9893 629.598 43.6688 629.598 Q43.0891 629.598 42.5094 629.405 Q41.9297 629.211 41.3178 628.503 Q40.7059 627.762 40.6093 626.506 Q38.1938 628.857 38.1938 633.43 Q38.1938 633.495 38.1938 633.559 Q38.1938 636.909 41.35 639.678 Q44.5062 642.448 51.7203 642.448 Q55.4884 642.448 58.2581 641.546 Q60.9956 640.612 62.4126 639.099 Q63.8297 637.585 64.506 636.104 Q65.1501 634.622 65.1501 633.173 Q65.1501 626.699 58.2259 624.509 Q57.5817 624.316 57.5817 623.672 Q57.5817 622.803 58.2259 622.803 Q58.5479 622.803 59.3853 623.06 Q60.2226 623.318 61.5431 624.123 Q62.8635 624.928 64.0229 626.088 Q65.1501 627.215 65.9875 629.244 Q66.8248 631.24 66.8248 633.752 Q66.8248 639.55 62.477 643.736 Z" fill="#000000" fill-rule="nonzero" fill-opacity="1" /><path clip-path="url(#clip020)" d="M39.7075 620.511 L38.2582 620.511 Q38.1294 617.484 36.0038 615.487 Q33.846 613.458 31.2051 612.782 Q28.5643 612.073 25.5047 612.009 L25.5047 610.367 L37.6463 610.367 L37.6463 600.93 L39.7075 600.93 L39.7075 610.367 L58.0326 610.367 Q65.1501 610.367 65.1501 605.922 Q65.1501 604.022 63.2178 602.766 Q61.2532 601.51 57.775 601.51 L54.1357 601.51 L54.1357 599.867 L57.9038 599.867 Q61.4787 599.867 64.1517 601.51 Q66.8248 603.152 66.8248 606.405 Q66.8248 607.597 66.5028 608.788 Q66.2129 609.948 65.44 611.494 Q64.6348 613.007 62.7025 613.974 Q60.7379 614.908 57.9038 614.908 L39.7075 614.908 L39.7075 620.511 Z" fill="#000000" fill-rule="nonzero" fill-opacity="1" /><path clip-path="url(#clip020)" d="M66.0841 595.976 L64.0551 595.976 Q64.0551 592.466 63.6364 591.66 Q63.1856 590.855 61.06 590.855 L43.3146 590.855 Q40.8669 590.855 40.2872 591.693 Q39.7075 592.498 39.7075 595.718 L37.6463 595.718 L36.9378 586.507 L61.1244 586.507 Q63.0889 586.507 63.572 585.799 Q64.0551 585.09 64.0551 581.87 L66.0841 581.87 Q65.8909 588.601 65.8909 588.73 Q65.8909 589.631 66.0841 595.976 M25.4403 593.206 Q24.1199 593.206 23.0571 592.208 Q21.9621 591.177 21.9621 589.728 Q21.9621 588.279 22.9604 587.248 Q23.9266 586.218 25.4725 586.218 Q26.9862 586.218 27.9846 587.248 Q28.9507 588.279 28.9507 589.728 Q28.9507 591.242 27.8879 592.24 Q26.8252 593.206 25.4403 593.206 Z" fill="#000000" fill-rule="nonzero" fill-opacity="1" /><path clip-path="url(#clip020)" d="M39.7075 577.361 L37.6463 577.361 Q37.8396 574.399 37.8396 570.953 Q37.8396 569.697 37.6463 563.771 L39.7075 563.771 Q39.7075 567.539 41.4144 567.539 Q41.6721 567.539 42.5416 567.152 L60.9312 559.745 L44.1197 553.014 Q42.9925 552.627 42.5416 552.627 Q41.4144 552.627 40.6093 553.4 Q39.7719 554.141 39.7075 555.784 L37.6463 555.784 Q37.8396 552.434 37.8396 550.051 Q37.8396 547.346 37.6463 545.123 L39.7075 545.123 Q39.7075 547.088 40.6093 548.473 Q41.4788 549.858 42.2518 550.309 Q42.9925 550.727 44.1197 551.178 L65.5688 559.809 Q66.8248 560.325 66.8248 561.194 Q66.8248 561.774 66.5672 562.032 Q66.3417 562.257 65.5688 562.579 L42.1551 572.08 Q40.5126 572.724 40.1262 573.561 Q39.7075 574.399 39.7075 577.361 Z" fill="#000000" fill-rule="nonzero" fill-opacity="1" /><path clip-path="url(#clip020)" d="M51.5593 541.053 Q45.3435 541.053 40.9313 537.059 Q36.5191 533.066 36.5191 527.333 Q36.5191 521.536 40.2872 518.541 Q44.0553 515.514 49.4659 515.514 Q50.4643 515.514 50.6575 515.771 Q50.8507 516.029 50.8507 517.156 L50.8507 535.578 Q57.5817 535.578 60.7379 533.581 Q65.1501 530.812 65.1501 526.142 Q65.1501 525.498 65.0213 524.725 Q64.8925 523.952 64.345 522.374 Q63.7653 520.796 62.2516 519.411 Q60.7379 518.026 58.3547 517.221 Q57.4207 517.027 57.4529 516.383 Q57.4529 515.514 58.2259 515.514 Q58.8056 515.514 60.126 516.158 Q61.4142 516.77 62.9601 517.961 Q64.506 519.153 65.6654 521.472 Q66.8248 523.758 66.8248 526.528 Q66.8248 532.325 62.4448 536.705 Q58.0326 541.053 51.5593 541.053 M49.4659 535.514 L49.4659 519.862 Q48.081 519.862 46.5351 520.119 Q44.9893 520.345 42.8637 521.053 Q40.7059 521.73 39.3532 523.34 Q38.0006 524.95 38.0006 527.333 Q38.0006 528.396 38.4515 529.556 Q38.9023 530.683 39.9973 532.068 Q41.0923 533.452 43.5722 534.419 Q46.052 535.385 49.4659 535.514 Z" fill="#000000" fill-rule="nonzero" fill-opacity="1" /><path clip-path="url(#clip020)" d="M60.5447 505.294 Q53.556 512.057 43.54 512.057 Q33.4918 512.057 26.5353 505.23 Q19.5788 498.402 19.5788 489.127 Q19.5788 486.808 20.1263 484.843 Q20.6416 482.847 21.7044 481.268 Q22.735 479.69 23.4435 478.885 Q24.1199 478.048 25.2471 476.921 L20.384 473.603 Q19.5788 473.088 19.5788 472.573 Q19.5788 472.025 19.9009 471.929 Q20.1907 471.832 21.1569 471.832 L36.809 471.832 Q37.8718 471.832 38.1294 471.961 Q38.3871 472.09 38.3871 472.895 Q38.3871 473.539 38.1938 473.668 Q38.0006 473.797 37.2598 473.958 Q30.1424 474.956 25.8912 478.95 Q21.64 482.911 21.64 488.322 Q21.64 489.9 21.9943 491.671 Q22.3485 493.41 23.7012 495.987 Q25.0538 498.531 27.276 500.495 Q29.466 502.428 33.7172 503.845 Q37.9362 505.262 43.54 505.262 Q49.0794 505.262 53.3306 503.845 Q57.5817 502.428 59.804 500.463 Q61.994 498.466 63.3788 495.89 Q64.7637 493.281 65.1501 491.446 Q65.5044 489.578 65.5044 487.935 Q65.5044 486.808 65.2789 485.487 Q65.0213 484.167 64.3128 482.202 Q63.572 480.206 61.8329 478.95 Q60.0938 477.694 57.5173 477.694 L53.2984 477.694 Q51.3338 477.694 50.7219 478.66 Q50.11 479.626 50.11 483.845 L50.11 485.938 L48.081 485.938 Q48.2743 483.555 48.2743 475.343 Q48.2743 474.602 48.081 467.291 L50.11 467.291 Q50.11 470.447 50.5931 471.156 Q51.044 471.832 53.0085 471.832 L64.506 471.832 Q66.0197 471.832 66.0197 472.412 Q66.0197 472.927 64.5382 474.473 Q63.0567 475.987 61.9295 476.663 Q64.6992 478.241 66.1163 481.687 Q67.5334 485.101 67.5334 488.998 Q67.5334 498.499 60.5447 505.294 Z" fill="#000000" fill-rule="nonzero" fill-opacity="1" /><path clip-path="url(#clip020)" d="M59.804 461.388 Q54.2001 461.388 51.2372 454.786 Q49.337 450.825 48.854 442.644 L46.4385 442.644 Q42.3484 442.644 40.1906 444.802 Q38.0006 446.928 38.0006 449.633 Q38.0006 454.464 41.0279 456.783 Q41.0923 454.818 42.0907 454.11 Q43.0569 453.401 44.0553 453.401 Q45.3757 453.401 46.2453 454.239 Q47.0826 455.044 47.0826 456.429 Q47.0826 457.749 46.2775 458.619 Q45.4401 459.488 43.9909 459.488 Q40.7703 459.488 38.6447 456.59 Q36.5191 453.659 36.5191 449.504 Q36.5191 444.094 40.1584 440.487 Q41.2856 439.359 42.7348 438.812 Q44.1841 438.232 45.1503 438.168 Q46.0843 438.103 47.9522 438.103 L61.1244 438.103 Q61.5109 438.103 62.155 437.975 Q62.7991 437.846 63.6364 437.266 Q64.4416 436.654 64.4416 435.656 Q64.4416 433.272 60.2226 433.305 L56.519 433.305 L56.519 431.63 L60.2226 431.63 Q63.7331 431.63 65.1179 433.498 Q66.4706 435.334 66.4706 437.041 Q66.4706 439.231 64.8603 440.615 Q63.25 442 61.06 442.194 Q63.572 443.192 65.2145 445.479 Q66.8248 447.733 66.8248 450.825 Q66.8248 453.208 66.2129 455.462 Q65.6332 457.685 63.9907 459.552 Q62.316 461.388 59.804 461.388 M59.7395 456.3 Q62.1872 456.3 63.7653 454.561 Q65.3434 452.821 65.3434 450.374 Q65.3434 447.604 63.2178 445.124 Q61.06 442.644 56.841 442.644 L50.2388 442.644 Q50.4965 449.955 53.4272 453.144 Q56.3257 456.3 59.7395 456.3 Z" fill="#000000" fill-rule="nonzero" fill-opacity="1" /><path clip-path="url(#clip020)" d="M76.8409 434.004 Q76.8409 430.494 76.39 429.689 Q75.9713 428.851 73.8779 428.851 L42.9925 428.851 Q40.8025 428.851 40.255 429.689 Q39.7075 430.494 39.7075 434.004 L37.6463 434.004 L36.9378 424.503 L41.2856 424.503 Q36.9378 420.542 36.9378 415.26 Q36.9378 409.657 41.2856 405.566 Q45.6334 401.476 51.8491 401.476 Q58.1292 401.476 62.477 405.824 Q66.8248 410.172 66.8248 416.194 Q66.8248 419.479 65.1501 421.702 Q63.4432 423.892 62.1872 424.31 L62.7991 424.31 L73.8779 424.31 Q76.0035 424.31 76.4222 423.473 Q76.8409 422.635 76.8409 419.157 L78.8698 419.157 Q78.6766 426.082 78.6766 426.597 Q78.6766 427.241 78.8698 434.004 L76.8409 434.004 M58.5801 424.31 Q59.5785 424.31 59.9328 424.181 Q60.287 424.02 61.3498 423.376 Q65.3434 420.768 65.3434 416.516 Q65.3434 416.484 65.3434 416.452 Q65.3434 412.684 61.5109 409.818 Q57.6462 406.951 51.8491 406.951 Q46.3097 406.951 42.445 409.56 Q38.5803 412.169 38.5803 415.776 Q38.5803 418.352 39.9651 420.607 Q41.35 422.861 43.8621 424.31 L58.5801 424.31 Z" fill="#000000" fill-rule="nonzero" fill-opacity="1" /><polyline clip-path="url(#clip022)" style="stroke:#785ef0; stroke-linecap:round; stroke-linejoin:round; stroke-width:8; stroke-opacity:1; fill:none" points="276.876,91.5919 332.605,177.203 388.335,330.426 444.065,532.972 499.795,740.32 555.525,946.114 611.255,1149.65 666.984,1350.78 722.714,1549.32 "/>
<polyline clip-path="url(#clip022)" style="stroke:#785ef0; stroke-linecap:round; stroke-linejoin:round; stroke-width:8; stroke-opacity:1; fill:none" stroke-dasharray="32, 20" points="276.876,91.5919 328.773,179.679 380.67,331.406 432.567,533.12 484.464,743.025 536.361,952.006 588.258,1159.45 640.155,1365.41 692.052,1569.85 "/>
<polyline clip-path="url(#clip022)" style="stroke:#fe6100; stroke-linecap:round; stroke-linejoin:round; stroke-width:8; stroke-opacity:1; fill:none" points="276.876,91.5919 731.167,91.5919 1185.46,167.375 1639.75,313.269 2094.04,514.039 2548.34,514.039 3002.63,516.059 3456.92,682.107 3911.21,888.847 4365.5,1093.48 4819.8,1093.48 5274.09,1093.48 5728.38,1307.07 6182.67,1307.07 6636.96,1307.07 7091.26,1307.07 7545.55,1307.07 7999.84,1308.1 8454.13,1308.1 8908.42,1308.1 9362.72,1308.1 9817.01,1308.1 10271.3,1308.1 10725.6,1308.1 11179.9,1308.1 11634.2,1308.1 12088.5,1308.1 12542.8,1308.1 12997.1,1308.1 13451.3,1308.1 13905.6,1308.1 14359.9,1308.1 14814.2,1308.1 15268.5,1308.1 15722.8,1369.17 16177.1,1386.91 16631.4,1386.91 17085.7,1386.91 17540,1386.91 17994.3,1386.91 18448.6,1386.91 18902.8,1386.91 19357.1,1386.91 19811.4,1386.91 20265.7,1386.91 20720,1386.91 21174.3,1386.91 21628.6,1386.91 22082.9,1386.91 22537.2,1386.91 22991.5,1386.91 23445.8,1386.91 23900.1,1386.91 24354.4,1386.91 24808.6,1416.29 25262.9,1509.57 "/>
<polyline clip-path="url(#clip022)" style="stroke:#fe6100; stroke-linecap:round; stroke-linejoin:round; stroke-width:8; stroke-opacity:1; fill:none" stroke-dasharray="32, 20" points="276.876,91.5919 530.658,91.5919 784.44,164.266 1038.22,164.266 1292,192.78 1545.79,192.78 1799.57,192.78 2053.35,257.938 2307.13,257.938 2560.92,448.724 2814.7,655.85 3068.48,862.514 3322.26,1067.05 3576.05,1270.67 3829.83,1270.67 4083.61,1377.07 4337.39,1377.07 4591.17,1377.07 4844.96,1377.07 5098.74,1377.07 5352.52,1377.07 5606.3,1377.07 5860.09,1415.78 6113.87,1415.78 6367.65,1415.78 6621.43,1415.78 6875.22,1415.78 7129,1415.78 7382.78,1415.78 7636.56,1415.78 7890.34,1415.78 8144.13,1415.78 8397.91,1415.78 8651.69,1415.78 8905.47,1415.78 9159.26,1415.78 9413.04,1415.78 9666.82,1415.79 9920.6,1415.79 10174.4,1415.79 10428.2,1415.79 10681.9,1415.79 10935.7,1415.79 11189.5,1415.79 11443.3,1415.79 11697.1,1415.79 11950.9,1415.79 12204.6,1415.79 12458.4,1415.79 12712.2,1415.79 12966,1415.79 13219.8,1415.79 13473.6,1504.67 "/>
<polyline clip-path="url(#clip022)" style="stroke:#dc267f; stroke-linecap:round; stroke-linejoin:round; stroke-width:8; stroke-opacity:1; fill:none" points="276.876,91.5919 313.513,91.5919 350.15,91.5919 386.787,91.6112 423.424,92.3613 460.061,93.0984 496.698,93.8384 533.335,94.5848 569.972,95.3387 606.609,96.1006 643.246,96.8708 679.883,97.6495 716.52,98.4369 753.157,99.2333 789.794,100.039 826.431,100.853 863.068,101.678 899.705,102.512 936.343,103.355 972.98,104.209 1009.62,105.074 1046.25,105.948 1082.89,106.834 1119.53,107.731 1156.16,108.638 1192.8,109.558 1229.44,110.489 1266.08,111.432 1302.71,112.387 1339.35,113.355 1375.99,114.336 1412.62,115.33 1449.26,116.337 1485.9,117.359 1522.54,118.394 1559.17,119.444 1595.81,120.508 1632.45,121.588 1669.08,122.684 1705.72,123.795 1742.36,124.923 1778.99,126.067 1815.63,127.229 1852.27,128.408 1888.91,129.606 1925.54,130.822 1962.18,132.058 1998.82,133.313 2035.45,134.589 2072.09,135.885 2108.73,137.203 2145.37,138.543 2182,139.906 2218.64,141.292 2255.28,142.703 2291.91,144.138 2328.55,145.599 2365.19,147.087 2401.82,148.602 2438.46,150.146 2475.1,151.719 2511.74,153.322 2548.37,154.956 2585.01,156.624 2621.65,158.324 2658.28,160.06 2694.92,161.832 2731.56,163.641 2768.2,165.49 2804.83,167.379 2841.47,169.311 2878.11,171.286 2914.74,173.307 2951.38,175.377 2988.02,177.496 3024.65,179.667 3061.29,181.894 3097.93,184.177 3134.57,186.52 3171.2,188.927 3207.84,191.399 3244.48,193.942 3281.11,196.557 3317.75,199.251 3354.39,202.026 3391.03,204.888 3427.66,207.841 3464.3,210.893 3500.94,214.048 3537.57,217.314 3574.21,220.699 3610.85,224.211 3647.48,227.86 3684.12,231.655 3720.76,235.609 3757.4,239.736 3794.03,244.049 3830.67,248.567 3867.31,253.309 3903.94,258.298 3940.58,263.559 3977.22,269.124 4013.86,275.03 4050.49,281.319 4087.13,288.043 4123.77,295.266 4160.4,303.067 4197.04,311.546 4233.68,320.828 4270.31,331.081 4306.95,342.53 4343.59,355.488 4380.23,370.411 4416.86,387.999 4453.5,408.246 4490.14,428.481 4526.77,448.696 4563.41,468.886 4600.05,489.048 4636.69,509.179 4673.32,529.277 4709.96,549.341 4746.6,569.37 4783.23,589.364 4819.87,609.322 4856.51,629.244 4893.14,649.13 4929.78,668.98 4966.42,688.794 5003.06,708.571 5039.69,728.314 5076.33,748.02 5112.97,767.692 5149.6,787.328 5186.24,806.93 5222.88,826.498 5259.52,846.031 5296.15,865.531 5332.79,884.997 5369.43,904.43 5406.06,923.83 5442.7,943.198 5479.34,962.533 5515.97,981.836 5552.61,1001.11 5589.25,1020.35 5625.89,1039.56 5662.52,1058.74 5699.16,1077.88 5735.8,1097 5772.43,1116.09 5809.07,1135.15 5845.71,1154.17 5882.35,1173.17 5918.98,1192.14 5955.62,1211.08 5992.26,1230 6028.89,1248.88 6065.53,1267.74 6102.17,1286.57 6138.8,1305.37 6175.44,1324.14 6212.08,1342.88 6248.72,1361.6 6285.35,1380.29 6321.99,1398.96 "/>
<polyline clip-path="url(#clip022)" style="stroke:#dc267f; stroke-linecap:round; stroke-linejoin:round; stroke-width:8; stroke-opacity:1; fill:none" stroke-dasharray="32, 20" points="276.876,91.5919 313.679,91.5919 350.482,91.5919 387.285,91.6171 424.089,92.3672 460.892,93.1043 497.695,93.8445 534.498,94.5911 571.302,95.3452 608.105,96.1074 644.908,96.8778 681.711,97.6567 718.515,98.4443 755.318,99.2409 792.121,100.047 828.925,100.862 865.728,101.686 902.531,102.52 939.334,103.364 976.138,104.218 1012.94,105.083 1049.74,105.958 1086.55,106.844 1123.35,107.741 1160.15,108.649 1196.96,109.569 1233.76,110.5 1270.56,111.443 1307.37,112.399 1344.17,113.367 1380.97,114.348 1417.78,115.343 1454.58,116.351 1491.38,117.372 1528.19,118.408 1564.99,119.458 1601.79,120.523 1638.6,121.603 1675.4,122.699 1712.2,123.811 1749.01,124.939 1785.81,126.084 1822.61,127.246 1859.42,128.426 1896.22,129.624 1933.02,130.841 1969.83,132.077 2006.63,133.333 2043.43,134.609 2080.24,135.906 2117.04,137.225 2153.84,138.565 2190.65,139.929 2227.45,141.316 2264.25,142.727 2301.06,144.163 2337.86,145.625 2374.66,147.113 2411.47,148.629 2448.27,150.174 2485.07,151.747 2521.87,153.351 2558.68,154.987 2595.48,156.655 2632.28,158.356 2669.09,160.093 2705.89,161.866 2742.69,163.676 2779.5,165.526 2816.3,167.416 2853.1,169.349 2889.91,171.326 2926.71,173.349 2963.51,175.419 3000.32,177.54 3037.12,179.713 3073.92,181.941 3110.73,184.226 3147.53,186.571 3184.33,188.979 3221.14,191.454 3257.94,193.998 3294.74,196.616 3331.55,199.311 3368.35,202.089 3405.15,204.953 3441.96,207.909 3478.76,210.964 3515.56,214.122 3552.37,217.392 3589.17,220.78 3625.97,224.296 3662.78,227.948 3699.58,231.748 3736.38,235.707 3773.19,239.838 3809.99,244.157 3846.79,248.681 3883.6,253.43 3920.4,258.426 3957.2,263.696 3994.01,269.27 4030.81,275.186 4067.61,281.487 4104.42,288.224 4141.22,295.463 4178.02,303.282 4214.83,311.782 4251.63,321.089 4288.43,331.373 4325.23,342.861 4362.04,355.868 4398.84,370.857 4435.64,388.536 4472.45,408.79 4509.25,429.03 4546.05,449.249 4582.86,469.443 4619.66,489.608 4656.46,509.742 4693.27,529.843 4730.07,549.909 4766.87,569.941 4803.68,589.937 4840.48,609.897 4877.28,629.821 4914.09,649.709 4950.89,669.561 4987.69,689.376 5024.5,709.156 5061.3,728.9 5098.1,748.608 5134.91,768.281 5171.71,787.92 5208.51,807.523 5245.32,827.092 5282.12,846.628 5318.92,866.129 5355.73,885.597 5392.53,905.032 5429.33,924.433 5466.14,943.803 5502.94,963.14 5539.74,982.445 5576.55,1001.72 5613.35,1020.96 5650.15,1040.17 5686.96,1059.35 5723.76,1078.5 5760.56,1097.62 5797.37,1116.71 5834.17,1135.77 5870.97,1154.8 5907.78,1173.8 5944.58,1192.77 5981.38,1211.71 6018.19,1230.63 6054.99,1249.52 6091.79,1268.37 6128.6,1287.2 6165.4,1306.01 6202.2,1324.78 6239,1343.53 6275.81,1362.25 6312.61,1380.94 6349.41,1399.62 "/>
<polyline clip-path="url(#clip022)" style="stroke:#ffb000; stroke-linecap:round; stroke-linejoin:round; stroke-width:8; stroke-opacity:1; fill:none" points="276.876,91.5919 303.728,278.037 330.58,278.037 357.432,534.46 384.284,534.46 411.136,534.46 437.988,534.46 464.84,534.46 491.692,534.46 518.545,710.142 545.397,710.142 572.249,710.142 599.101,710.142 625.953,713.789 652.805,713.789 679.657,713.789 706.509,713.789 733.362,750.937 760.214,750.937 787.066,750.937 813.918,750.937 840.77,786.172 867.622,786.172 894.474,786.172 921.326,786.172 948.178,786.172 975.031,786.172 1001.88,813.03 1028.73,813.03 1055.59,813.03 1082.44,813.03 1109.29,813.03 1136.14,813.03 1163,813.03 1189.85,813.03 1216.7,813.03 1243.55,813.03 1270.4,813.03 1297.26,813.03 1324.11,813.03 1350.96,813.03 1377.81,813.03 1404.66,813.03 1431.52,813.03 1458.37,813.03 1485.22,813.03 1512.07,813.03 1538.93,813.03 1565.78,813.03 1592.63,813.03 1619.48,813.03 1646.33,813.03 1673.19,813.03 1700.04,813.03 1726.89,813.03 1753.74,813.03 1780.59,813.03 1807.45,813.03 1834.3,813.03 1861.15,813.03 1888,813.03 1914.85,813.03 1941.71,813.03 1968.56,813.03 1995.41,813.03 2022.26,815.629 2049.12,815.629 2075.97,818.88 2102.82,818.88 2129.67,822.132 2156.52,822.132 2183.38,825.068 2210.23,825.068 2237.08,827.699 2263.93,827.699 2290.78,830.238 2317.64,830.238 2344.49,832.874 2371.34,832.874 2398.19,835.579 2425.05,835.579 2451.9,838.22 2478.75,838.22 2505.6,840.683 2532.45,840.683 2559.31,842.991 2586.16,842.991 2613.01,845.234 2639.86,845.234 2666.71,847.501 2693.57,847.501 2720.42,849.789 2747.27,849.789 2774.12,852.046 2800.97,852.046 2827.83,854.209 2854.68,854.209 2881.53,856.273 2908.38,856.273 2935.24,858.266 2962.09,858.266 2988.94,860.239 3015.79,860.239 3042.64,862.213 3069.5,862.213 3096.35,864.181 3123.2,864.181 3150.05,866.108 3176.9,866.108 3203.76,867.977 3230.61,867.977 3257.46,869.78 3284.31,869.78 3311.16,871.541 3338.02,871.541 3364.87,873.279 3391.72,873.279 3418.57,875.01 3445.43,875.01 3472.28,876.727 3499.13,876.727 3525.98,878.421 3552.83,878.421 3579.69,880.073 3606.54,880.073 3633.39,881.685 3660.24,881.685 3687.09,883.258 3713.95,883.258 3740.8,884.807 3767.65,884.807 3794.5,886.341 3821.36,886.341 3848.21,887.865 3875.06,887.865 3901.91,889.372 3928.76,889.372 3955.62,890.857 3982.47,890.857 4009.32,892.312 4036.17,892.312 4063.02,893.739 4089.88,893.739 4116.73,895.138 4143.58,895.138 4170.43,896.519 4197.28,896.519 4224.14,897.885 4250.99,897.885 4277.84,899.241 4304.69,899.241 4331.55,900.582 4358.4,900.582 4385.25,901.907 4412.1,901.907 4438.95,903.211 4465.81,903.211 4492.66,904.493 4519.51,904.493 4546.36,905.753 4573.21,905.753 4600.07,906.997 4626.92,906.997 4653.77,908.227 4680.62,908.227 4707.48,909.447 4734.33,909.447 4761.18,910.654 4788.03,910.654 4814.88,911.851 4841.74,911.851 4868.59,913.031 4895.44,913.031 4922.29,914.196 4949.14,914.196 4976,915.343 5002.85,915.343 5029.7,916.476 5056.55,916.476 5083.4,917.595 5110.26,917.595 5137.11,918.703 5163.96,918.703 5190.81,919.801 5217.67,919.801 5244.52,920.889 5271.37,920.889 5298.22,921.967 5325.07,921.967 5351.93,923.034 5378.78,923.034 5405.63,924.087 5432.48,924.087 5459.33,925.128 5486.19,925.128 5513.04,926.156 5539.89,926.156 5566.74,927.173 5593.6,927.173 5620.45,928.179 5647.3,928.179 5674.15,929.177 5701,929.177 5727.86,930.167 5754.71,930.167 5781.56,931.148 5808.41,931.148 5835.26,932.12 5862.12,932.12 5888.97,933.082 5915.82,933.082 5942.67,934.034 5969.52,934.034 5996.38,934.976 6023.23,934.976 6050.08,935.907 6076.93,935.907 6103.79,936.83 6130.64,936.83 6157.49,937.745 6184.34,937.745 6211.19,938.652 6238.05,938.652 6264.9,939.552 6291.75,939.552 6318.6,940.444 6345.45,940.444 6372.31,941.329 6399.16,941.329 6426.01,942.206 6452.86,942.206 6479.72,943.075 6506.57,943.075 6533.42,943.935 6560.27,943.935 6587.12,944.788 6613.98,944.788 6640.83,945.632 6667.68,945.632 6694.53,946.47 6721.38,946.47 6748.24,947.301 6775.09,947.301 6801.94,948.125 6828.79,948.125 6855.64,948.944 6882.5,948.944 6909.35,949.756 6936.2,949.756 6963.05,950.562 6989.91,950.562 7016.76,951.361 7043.61,951.361 7070.46,952.153 7097.31,952.153 7124.17,952.938 7151.02,952.938 7177.87,953.717 7204.72,953.717 7231.57,954.489 7258.43,954.489 7285.28,955.256 7312.13,955.256 7338.98,956.017 7365.83,956.017 7392.69,956.773 7419.54,956.773 7446.39,957.523 7473.24,957.523 7500.1,958.268 7526.95,958.268 7553.8,959.008 7580.65,959.008 7607.5,959.742 7634.36,959.742 7661.21,960.47 7688.06,960.47 7714.91,961.192 7741.76,961.192 7768.62,961.909 7795.47,961.909 7822.32,962.621 7849.17,962.621 7876.03,963.328 7902.88,963.328 7929.73,964.029 7956.58,964.029 7983.43,964.726 8010.29,964.726 8037.14,965.419 8063.99,965.419 8090.84,966.107 8117.69,966.107 8144.55,966.79 8171.4,966.79 8198.25,967.469 8225.1,967.469 8251.95,968.143 8278.81,968.143 8305.66,968.812 8332.51,968.812 8359.36,969.476 8386.22,969.476 8413.07,970.136 8439.92,970.136 8466.77,970.792 8493.62,970.792 8520.48,971.442 8547.33,971.442 8574.18,972.089 8601.03,972.089 8627.88,972.732 8654.74,972.732 8681.59,973.371 8708.44,973.371 8735.29,974.006 8762.15,974.006 8789,974.637 8815.85,974.637 8842.7,975.265 8869.55,975.265 8896.41,975.888 8923.26,975.888 8950.11,976.507 8976.96,976.507 9003.81,977.122 9030.67,977.122 9057.52,977.733 9084.37,977.733 9111.22,978.34 9138.07,978.34 9164.93,978.943 9191.78,978.943 9218.63,979.543 9245.48,979.543 9272.34,980.14 9299.19,980.14 9326.04,980.733 9352.89,980.733 9379.74,981.322 9406.6,981.322 9433.45,981.909 9460.3,981.909 9487.15,982.491 9514,982.491 9540.86,983.071 9567.71,983.071 9594.56,983.647 9621.41,983.647 9648.27,984.219 9675.12,984.219 9701.97,984.788 9728.82,984.788 9755.67,985.354 9782.53,985.354 9809.38,985.916 9836.23,985.916 9863.08,986.476 9889.93,986.476 9916.79,987.032 9943.64,987.032 9970.49,987.585 9997.34,987.585 10024.2,988.135 10051,988.135 10077.9,988.682 10104.8,988.682 10131.6,989.227 10158.5,989.227 10185.3,989.768 10212.2,989.768 10239,990.306 10265.9,990.306 10292.7,990.842 10319.6,990.842 10346.4,991.374 10373.3,991.374 10400.1,991.904 10427,991.904 10453.8,992.43 10480.7,992.43 10507.5,992.954 10534.4,992.954 10561.2,993.475 10588.1,993.475 10614.9,993.994 10641.8,993.994 10668.6,994.509 10695.5,994.509 10722.3,995.023 10749.2,995.023 10776.1,995.533 10802.9,995.533 10829.8,996.041 10856.6,996.041 10883.5,996.546 10910.3,996.546 10937.2,997.049 10964,997.049 10990.9,997.55 11017.7,997.55 11044.6,998.047 11071.4,998.047 11098.3,998.542 11125.1,998.542 11152,999.035 11178.8,999.035 11205.7,999.525 11232.5,999.525 11259.4,1000.01 11286.2,1000.01 11313.1,1000.5 11339.9,1000.5 11366.8,1000.98 11393.7,1000.98 11420.5,1001.46 11447.4,1001.46 11474.2,1001.94 11501.1,1001.94 11527.9,1002.42 11554.8,1002.42 11581.6,1002.89 11608.5,1002.89 11635.3,1003.36 11662.2,1003.36 11689,1003.83 11715.9,1003.83 11742.7,1004.3 11769.6,1004.3 11796.4,1004.76 11823.3,1004.76 11850.1,1005.23 11877,1005.23 11903.8,1005.69 11930.7,1005.69 11957.5,1006.15 11984.4,1006.15 12011.3,1006.6 12038.1,1006.6 12065,1007.06 12091.8,1007.06 12118.7,1007.51 12145.5,1007.51 12172.4,1007.96 12199.2,1007.96 12226.1,1008.41 12252.9,1008.41 12279.8,1008.85 12306.6,1008.85 12333.5,1009.3 12360.3,1009.3 12387.2,1009.74 12414,1009.74 12440.9,1010.18 12467.7,1010.18 12494.6,1010.62 12521.4,1010.62 12548.3,1011.05 12575.1,1011.05 12602,1011.49 12628.9,1011.49 12655.7,1011.92 12682.6,1011.92 12709.4,1012.35 12736.3,1012.35 12763.1,1012.78 12790,1012.78 12816.8,1013.21 12843.7,1013.21 12870.5,1013.63 12897.4,1013.63 12924.2,1014.05 12951.1,1014.05 12977.9,1014.48 13004.8,1014.48 13031.6,1014.89 13058.5,1014.89 13085.3,1015.31 13112.2,1015.31 13139,1015.73 13165.9,1015.73 13192.7,1016.14 13219.6,1016.14 13246.4,1016.56 13273.3,1016.56 13300.2,1016.97 13327,1016.97 13353.9,1017.38 13380.7,1017.38 13407.6,1017.78 13434.4,1017.78 13461.3,1018.19 13488.1,1018.19 13515,1018.59 13541.8,1018.59 13568.7,1019 13595.5,1019 13622.4,1019.4 13649.2,1019.4 13676.1,1019.8 13702.9,1019.8 "/>
<polyline clip-path="url(#clip022)" style="stroke:#ffb000; stroke-linecap:round; stroke-linejoin:round; stroke-width:8; stroke-opacity:1; fill:none" stroke-dasharray="32, 20" points="276.876,91.5919 303.719,263.458 330.563,263.458 357.406,364.08 384.25,364.08 411.093,433.737 437.937,433.737 464.78,497.813 491.624,497.813 518.468,570.866 545.311,570.866 572.155,681.615 598.998,681.615 625.842,786.026 652.685,786.026 679.529,786.026 706.372,786.026 733.216,786.026 760.06,786.026 786.903,789.974 813.747,789.974 840.59,789.974 867.434,789.974 894.277,789.974 921.121,789.974 947.964,789.974 974.808,789.974 1001.65,789.974 1028.5,789.974 1055.34,789.974 1082.18,789.974 1109.03,789.974 1135.87,789.974 1162.71,789.974 1189.56,789.974 1216.4,789.974 1243.24,789.974 1270.09,789.974 1296.93,789.974 1323.77,789.974 1350.62,789.974 1377.46,789.974 1404.3,789.974 1431.15,789.974 1457.99,789.974 1484.84,789.974 1511.68,789.974 1538.52,789.974 1565.37,789.974 1592.21,789.974 1619.05,789.974 1645.9,789.974 1672.74,789.974 1699.58,789.974 1726.43,789.974 1753.27,789.974 1780.11,789.974 1806.96,789.974 1833.8,789.974 1860.65,789.974 1887.49,789.974 1914.33,789.974 1941.18,789.974 1968.02,791.481 1994.86,791.481 2021.71,794.408 2048.55,794.408 2075.39,797.359 2102.24,797.359 2129.08,800.225 2155.92,800.225 2182.77,803.089 2209.61,803.089 2236.46,805.906 2263.3,805.906 2290.14,808.715 2316.99,808.715 2343.83,811.497 2370.67,811.497 2397.52,814.271 2424.36,814.271 2451.2,817.031 2478.05,817.031 2504.89,819.787 2531.73,819.787 2558.58,822.537 2585.42,822.537 2612.26,825.288 2639.11,825.288 2665.95,828.039 2692.8,828.039 2719.64,830.795 2746.48,830.795 2773.33,833.558 2800.17,833.558 2827.01,836.33 2853.86,836.33 2880.7,839.113 2907.54,839.113 2934.39,841.909 2961.23,841.909 2988.07,844.722 3014.92,844.722 3041.76,847.553 3068.61,847.553 3095.45,850.404 3122.29,850.404 3149.14,853.277 3175.98,853.277 3202.82,856.176 3229.67,856.176 3256.51,859.102 3283.35,859.102 3310.2,862.058 3337.04,862.058 3363.88,865.046 3390.73,865.046 3417.57,868.069 3444.42,868.069 3471.26,871.13 3498.1,871.13 3524.95,874.231 3551.79,874.231 3578.63,877.376 3605.48,877.376 3632.32,880.567 3659.16,880.567 3686.01,883.808 3712.85,883.808 3739.69,887.104 3766.54,887.104 3793.38,890.456 3820.22,890.456 3847.07,893.87 3873.91,893.87 3900.76,897.35 3927.6,897.35 3954.44,900.901 3981.29,900.901 4008.13,904.527 4034.97,904.527 4061.82,908.235 4088.66,908.235 4115.5,912.031 4142.35,912.031 4169.19,915.92 4196.03,915.92 4222.88,919.911 4249.72,919.911 4276.57,924.011 4303.41,924.011 4330.25,928.23 4357.1,928.23 4383.94,932.576 4410.78,932.576 4437.63,937.062 4464.47,937.062 4491.31,941.699 4518.16,941.699 4545,946.502 4571.84,946.502 4598.69,951.484 4625.53,951.484 4652.38,956.671 4679.22,956.671 4706.06,962.061 4732.91,962.061 4759.75,967.722 4786.59,967.722 4813.44,973.501 4840.28,973.501 4867.12,979.346 4893.97,979.346 4920.81,980.576 4947.65,980.576 4974.5,980.576 5001.34,980.576 5028.18,980.576 5055.03,980.576 5081.87,980.576 5108.72,980.576 5135.56,980.576 5162.4,980.576 5189.25,980.576 5216.09,980.576 5242.93,980.576 5269.78,980.576 5296.62,980.576 5323.46,980.576 5350.31,980.576 5377.15,980.576 5403.99,980.576 5430.84,980.576 5457.68,980.576 5484.53,980.576 5511.37,980.576 5538.21,980.576 5565.06,980.576 5591.9,980.576 5618.74,980.576 5645.59,980.576 5672.43,980.576 5699.27,980.576 5726.12,980.576 5752.96,980.576 5779.8,980.576 5806.65,980.576 5833.49,980.576 5860.34,980.576 5887.18,980.576 5914.02,980.576 5940.87,980.576 5967.71,980.576 5994.55,980.576 6021.4,980.576 6048.24,980.576 6075.08,980.576 6101.93,980.576 6128.77,980.576 6155.61,980.576 6182.46,980.576 6209.3,980.576 6236.14,980.576 6262.99,980.576 6289.83,980.576 6316.68,980.576 6343.52,980.576 6370.36,980.576 6397.21,980.576 6424.05,980.576 6450.89,980.576 6477.74,980.576 6504.58,980.576 6531.42,980.576 6558.27,980.576 6585.11,980.576 6611.95,980.576 6638.8,980.576 6665.64,980.576 6692.49,980.576 6719.33,980.576 6746.17,980.576 6773.02,980.576 6799.86,983.252 6826.7,983.252 6853.55,987.831 6880.39,987.831 6907.23,992.61 6934.08,992.61 6960.92,997.286 6987.76,997.286 7014.61,1001.52 7041.45,1001.52 7068.3,1001.52 7095.14,1001.52 7121.98,1001.52 7148.83,1001.52 7175.67,1001.52 7202.51,1001.52 7229.36,1001.52 7256.2,1001.52 7283.04,1001.52 7309.89,1001.52 7336.73,1001.52 7363.57,1001.52 7390.42,1001.52 7417.26,1001.52 7444.1,1001.52 7470.95,1001.52 7497.79,1001.52 7524.64,1001.52 7551.48,1001.52 7578.32,1001.52 7605.17,1001.52 7632.01,1001.52 7658.85,1001.52 7685.7,1001.52 7712.54,1001.52 7739.38,1001.52 7766.23,1001.52 7793.07,1001.52 7819.91,1001.52 7846.76,1001.52 7873.6,1001.52 7900.45,1001.52 7927.29,1001.52 7954.13,1001.52 7980.98,1001.52 8007.82,1001.52 8034.66,1001.52 8061.51,1001.52 8088.35,1001.52 8115.19,1001.52 8142.04,1001.52 8168.88,1001.52 8195.72,1001.52 8222.57,1001.52 8249.41,1001.52 8276.26,1001.52 8303.1,1001.52 8329.94,1001.52 8356.79,1001.52 8383.63,1001.52 8410.47,1001.52 8437.32,1001.52 8464.16,1001.52 8491,1001.52 8517.85,1001.52 8544.69,1001.52 8571.53,1001.52 8598.38,1001.52 8625.22,1001.52 8652.06,1001.52 8678.91,1004.78 8705.75,1004.78 8732.6,1008.78 8759.44,1008.78 8786.28,1011.95 8813.13,1011.95 8839.97,1012.92 8866.81,1012.92 8893.66,1012.92 8920.5,1012.92 8947.34,1012.92 8974.19,1012.92 9001.03,1012.92 9027.87,1012.92 9054.72,1012.92 9081.56,1012.92 9108.41,1012.92 9135.25,1012.92 9162.09,1012.92 9188.94,1012.92 9215.78,1012.92 9242.62,1012.92 9269.47,1012.92 9296.31,1012.92 9323.15,1012.92 9350,1012.92 9376.84,1012.92 9403.68,1012.92 9430.53,1012.92 9457.37,1012.92 9484.22,1012.92 9511.06,1012.92 9537.9,1012.92 9564.75,1012.92 9591.59,1012.92 9618.43,1012.92 9645.28,1012.92 9672.12,1012.92 9698.96,1012.92 9725.81,1012.92 9752.65,1012.92 9779.49,1012.92 9806.34,1012.92 9833.18,1012.92 9860.02,1012.92 9886.87,1012.92 9913.71,1012.92 9940.56,1012.92 9967.4,1012.92 9994.24,1012.92 10021.1,1012.92 10047.9,1012.92 10074.8,1012.92 10101.6,1012.92 10128.5,1012.92 10155.3,1012.92 10182.1,1012.92 10209,1012.92 10235.8,1012.92 10262.7,1012.92 10289.5,1015.5 10316.4,1015.5 10343.2,1018.84 10370.1,1018.84 10396.9,1021.3 10423.7,1021.3 10450.6,1021.97 10477.4,1021.97 10504.3,1021.97 10531.1,1021.97 10558,1021.97 10584.8,1021.97 10611.6,1021.97 10638.5,1021.97 10665.3,1021.97 10692.2,1021.97 10719,1021.97 10745.9,1021.97 10772.7,1021.97 10799.5,1021.97 10826.4,1021.97 10853.2,1021.97 10880.1,1021.97 10906.9,1021.97 10933.8,1021.97 10960.6,1021.97 10987.5,1021.97 11014.3,1021.97 11041.1,1021.97 11068,1021.97 11094.8,1021.97 11121.7,1021.97 11148.5,1021.97 11175.4,1021.97 11202.2,1021.97 11229,1021.97 11255.9,1021.97 11282.7,1021.97 11309.6,1021.97 11336.4,1021.97 11363.3,1021.97 11390.1,1021.97 11417,1021.97 11443.8,1021.97 11470.6,1021.97 11497.5,1021.97 11524.3,1021.97 11551.2,1021.97 11578,1021.97 11604.9,1021.97 11631.7,1021.97 11658.5,1021.97 11685.4,1021.97 11712.2,1021.97 11739.1,1021.97 11765.9,1021.97 11792.8,1024.42 11819.6,1024.42 11846.4,1027.28 11873.3,1027.28 11900.1,1029.37 11927,1029.37 11953.8,1030.18 11980.7,1030.18 12007.5,1030.18 12034.4,1030.18 12061.2,1030.18 12088,1030.18 12114.9,1030.18 12141.7,1030.18 12168.6,1030.18 12195.4,1030.18 12222.3,1030.18 12249.1,1030.18 12275.9,1030.18 12302.8,1030.18 12329.6,1030.18 12356.5,1030.18 12383.3,1030.18 12410.2,1030.18 12437,1030.18 12463.8,1030.18 12490.7,1030.18 12517.5,1030.18 12544.4,1030.18 12571.2,1030.18 12598.1,1030.18 12624.9,1030.18 12651.8,1030.18 12678.6,1030.18 12705.4,1030.18 12732.3,1030.18 12759.1,1030.18 12786,1030.18 12812.8,1030.18 12839.7,1030.18 12866.5,1030.18 12893.3,1030.18 12920.2,1030.18 12947,1030.18 12973.9,1030.18 13000.7,1030.18 13027.6,1030.18 13054.4,1030.18 13081.3,1030.18 13108.1,1030.18 13134.9,1030.18 13161.8,1030.18 13188.6,1030.22 13215.5,1030.22 13242.3,1032.88 13269.2,1032.88 13296,1035.19 13322.8,1035.19 13349.7,1037.08 13376.5,1037.08 13403.4,1037.42 13430.2,1037.42 13457.1,1037.42 13483.9,1037.42 13510.7,1037.42 13537.6,1037.42 13564.4,1037.42 13591.3,1037.42 13618.1,1037.42 13645,1037.42 13671.8,1037.42 13698.7,1037.42 "/>
<path clip-path="url(#clip020)" d="M1827.66 352.309 L2283.56 352.309 L2283.56 93.1086 L1827.66 93.1086  Z" fill="#000000" fill-rule="evenodd" fill-opacity="0"/>
<polyline clip-path="url(#clip020)" style="stroke:#000000; stroke-linecap:round; stroke-linejoin:round; stroke-width:4; stroke-opacity:0; fill:none" points="1827.66,352.309 2283.56,352.309 2283.56,93.1086 1827.66,93.1086 1827.66,352.309 "/>
<polyline clip-path="url(#clip020)" style="stroke:#785ef0; stroke-linecap:round; stroke-linejoin:round; stroke-width:8; stroke-opacity:1; fill:none" points="1850.73,144.949 1989.12,144.949 "/>
<path clip-path="url(#clip020)" d="M2012.19 156.824 L2012.19 155.348 L2013.33 155.348 Q2015.93 155.348 2016.52 154.926 Q2017.13 154.481 2017.13 153.076 L2017.13 127.803 Q2017.13 126.421 2016.52 126 Q2015.91 125.555 2013.33 125.555 L2012.19 125.555 L2012.19 124.056 L2027.25 124.056 Q2032.47 124.056 2036.1 126.632 Q2039.75 129.185 2039.75 132.699 Q2039.75 135.392 2037.39 137.5 Q2035.02 139.608 2031.37 140.522 Q2036.12 142.161 2037.22 146.073 L2037.83 149.914 Q2038.02 151.296 2038.14 151.999 Q2038.28 152.701 2038.49 153.662 Q2038.7 154.622 2038.91 155.09 Q2039.15 155.535 2039.47 156.027 Q2039.8 156.496 2040.22 156.66 Q2040.67 156.824 2041.25 156.824 Q2042.35 156.824 2043.29 155.84 Q2044.23 154.856 2044.42 152.561 Q2044.51 151.788 2045 151.788 Q2045.61 151.788 2045.61 152.561 Q2045.61 153.24 2045.42 154.036 Q2045.24 154.809 2044.77 155.723 Q2044.32 156.636 2043.34 157.245 Q2042.35 157.878 2041.07 157.878 Q2037.32 157.878 2035.02 155.863 Q2034.06 154.997 2033.62 153.872 Q2033.2 152.748 2033.13 151.858 Q2033.06 150.968 2033.06 149.001 Q2033.06 146.213 2032.75 144.995 Q2032.47 143.777 2031.23 142.583 Q2029.54 140.943 2026.75 140.943 L2021.25 140.943 L2021.25 153.076 Q2021.25 154.458 2021.84 154.903 Q2022.44 155.348 2025.04 155.348 L2026.19 155.348 L2026.19 156.824 Q2024.46 156.683 2019.19 156.683 Q2013.92 156.683 2012.19 156.824 M2021.25 139.889 L2026.57 139.889 Q2029.12 139.889 2030.83 139.28 Q2032.56 138.648 2033.38 137.524 Q2034.2 136.399 2034.51 135.275 Q2034.81 134.127 2034.81 132.699 Q2034.81 131.012 2034.44 129.747 Q2034.06 128.482 2033.24 127.733 Q2032.42 126.983 2031.6 126.515 Q2030.78 126.023 2029.52 125.836 Q2028.25 125.648 2027.39 125.602 Q2026.52 125.555 2025.14 125.555 Q2022.8 125.555 2022.3 125.648 Q2021.77 125.695 2021.55 125.953 Q2021.34 126.21 2021.3 126.515 Q2021.25 126.796 2021.25 127.475 L2021.25 139.889 Z" fill="#000000" fill-rule="nonzero" fill-opacity="1" /><path clip-path="url(#clip020)" d="M2047.91 156.824 L2047.91 155.348 L2049.05 155.348 Q2051.65 155.348 2052.24 154.926 Q2052.85 154.481 2052.85 153.076 L2052.85 127.803 Q2052.85 126.421 2052.24 126 Q2051.63 125.555 2049.05 125.555 L2047.91 125.555 L2047.91 124.056 L2064.84 124.056 Q2069.69 124.056 2072.92 126.726 Q2076.15 129.396 2076.15 132.98 Q2076.15 136.54 2072.85 139.116 Q2069.57 141.669 2065.22 141.669 L2057.11 141.669 L2057.11 153.076 Q2057.11 154.458 2057.7 154.903 Q2058.31 155.348 2060.91 155.348 L2062.05 155.348 L2062.05 156.824 Q2060.37 156.683 2054.96 156.683 Q2049.59 156.683 2047.91 156.824 M2056.97 140.428 L2063.58 140.428 Q2065.73 140.428 2067.3 139.819 Q2068.87 139.21 2069.57 138.484 Q2070.3 137.734 2070.7 136.54 Q2071.12 135.322 2071.16 134.666 Q2071.21 133.987 2071.21 132.98 Q2071.21 131.926 2071.16 131.27 Q2071.12 130.59 2070.7 129.396 Q2070.3 128.178 2069.57 127.452 Q2068.87 126.702 2067.3 126.14 Q2065.75 125.555 2063.58 125.555 L2059.31 125.555 Q2057.67 125.555 2057.32 125.883 Q2056.97 126.21 2056.97 127.475 L2056.97 140.428 Z" fill="#000000" fill-rule="nonzero" fill-opacity="1" /><path clip-path="url(#clip020)" d="M2086.53 156.824 L2086.53 155.348 L2087.68 155.348 Q2090.28 155.348 2090.86 154.926 Q2091.47 154.481 2091.47 153.076 L2091.47 127.803 Q2091.47 126.421 2090.86 126 Q2090.25 125.555 2087.68 125.555 L2086.53 125.555 L2086.53 124.056 L2104.07 124.056 Q2108.64 124.056 2111.68 126.515 Q2114.73 128.951 2114.73 132.16 Q2114.73 134.807 2112.48 136.915 Q2110.25 139.023 2106.76 139.702 Q2110.75 140.123 2113.37 142.536 Q2116.02 144.925 2116.02 148.04 Q2116.02 151.554 2112.99 154.2 Q2109.97 156.824 2105.34 156.824 L2086.53 156.824 M2095.45 153.427 Q2095.45 154.669 2095.8 155.02 Q2096.15 155.348 2097.79 155.348 L2103.79 155.348 Q2107.23 155.348 2109.22 153.099 Q2111.21 150.827 2111.21 147.993 Q2111.21 145.159 2109.46 142.747 Q2107.72 140.311 2104.47 140.311 L2095.45 140.311 L2095.45 153.427 M2095.45 139.257 L2102.41 139.257 Q2106.11 139.257 2108.08 137.032 Q2110.07 134.807 2110.07 132.16 Q2110.07 129.818 2108.47 127.686 Q2106.91 125.555 2103.74 125.555 L2097.79 125.555 Q2096.15 125.555 2095.8 125.883 Q2095.45 126.21 2095.45 127.475 L2095.45 139.257 Z" fill="#000000" fill-rule="nonzero" fill-opacity="1" /><path clip-path="url(#clip020)" d="M2125.51 144.831 Q2125.51 136.727 2128.53 130.192 Q2129.82 127.452 2131.62 125.156 Q2133.43 122.861 2134.62 121.854 Q2135.82 120.847 2136.14 120.847 Q2136.61 120.847 2136.64 121.315 Q2136.64 121.549 2136 122.135 Q2128.27 130.005 2128.3 144.831 Q2128.3 159.705 2135.82 167.27 Q2136.64 168.09 2136.64 168.347 Q2136.64 168.816 2136.14 168.816 Q2135.82 168.816 2134.67 167.856 Q2133.52 166.895 2131.74 164.694 Q2129.96 162.492 2128.67 159.798 Q2125.51 153.263 2125.51 144.831 Z" fill="#000000" fill-rule="nonzero" fill-opacity="1" /><path clip-path="url(#clip020)" d="M2141.24 140.568 Q2141.24 133.237 2145.92 128.131 Q2150.63 123.002 2157.17 123.002 Q2163.75 123.002 2168.43 128.131 Q2173.14 133.261 2173.14 140.568 Q2173.14 147.806 2168.43 152.842 Q2163.72 157.878 2157.17 157.878 Q2150.7 157.878 2145.97 152.865 Q2141.24 147.853 2141.24 140.568 M2146.18 139.889 Q2146.18 144.339 2147.23 147.759 Q2148.29 151.155 2149.97 153.006 Q2151.68 154.856 2153.51 155.746 Q2155.34 156.636 2157.21 156.636 Q2159.04 156.636 2160.82 155.77 Q2162.62 154.903 2164.33 153.076 Q2166.04 151.249 2167.12 147.829 Q2168.2 144.41 2168.2 139.889 Q2168.2 136.376 2167.45 133.565 Q2166.7 130.731 2165.53 129.021 Q2164.36 127.311 2162.83 126.187 Q2161.33 125.063 2159.91 124.641 Q2158.5 124.196 2157.17 124.196 Q2155.48 124.196 2153.72 124.946 Q2151.97 125.695 2150.19 127.358 Q2148.43 128.998 2147.3 132.253 Q2146.18 135.486 2146.18 139.889 Z" fill="#000000" fill-rule="nonzero" fill-opacity="1" /><path clip-path="url(#clip020)" d="M2177.75 137.641 L2177.75 136.142 L2184.8 135.626 L2184.8 151.554 Q2184.8 152.701 2184.9 153.381 Q2184.99 154.036 2185.37 154.809 Q2185.77 155.582 2186.66 155.934 Q2187.57 156.285 2189.02 156.285 Q2191.62 156.285 2193.21 154.153 Q2194.83 152.022 2194.83 148.86 L2194.83 140.311 Q2194.83 138.531 2194.2 138.086 Q2193.56 137.641 2191.08 137.641 L2191.08 136.142 L2198.13 135.626 L2198.13 152.654 Q2198.13 154.435 2198.74 154.903 Q2199.37 155.348 2201.88 155.348 L2201.88 156.824 L2194.97 157.362 L2194.97 153.029 Q2192.96 157.339 2188.79 157.362 Q2186.68 157.362 2185.23 156.824 Q2183.8 156.285 2183.07 155.629 Q2182.35 154.95 2181.95 153.662 Q2181.57 152.373 2181.53 151.577 Q2181.48 150.781 2181.48 149.235 L2181.48 142.044 Q2181.48 138.788 2181.01 138.226 Q2180.54 137.641 2177.75 137.641 Z" fill="#000000" fill-rule="nonzero" fill-opacity="1" /><path clip-path="url(#clip020)" d="M2203.53 156.824 L2203.53 155.348 Q2206.08 155.348 2206.67 155.044 Q2207.27 154.716 2207.27 153.17 L2207.27 140.311 Q2207.27 138.531 2206.64 138.086 Q2206.03 137.641 2203.53 137.641 L2203.53 136.142 L2210.2 135.626 L2210.2 140.896 Q2210.88 138.835 2212.31 137.242 Q2213.76 135.626 2216.1 135.626 Q2217.65 135.626 2218.63 136.493 Q2219.64 137.36 2219.64 138.554 Q2219.64 139.608 2218.99 140.147 Q2218.35 140.662 2217.58 140.662 Q2216.71 140.662 2216.1 140.123 Q2215.52 139.561 2215.52 138.601 Q2215.52 138.015 2215.78 137.57 Q2216.06 137.102 2216.27 136.938 Q2216.48 136.774 2216.62 136.727 Q2216.53 136.68 2216.1 136.68 Q2213.46 136.68 2211.94 139.327 Q2210.44 141.95 2210.44 145.698 L2210.44 153.076 Q2210.44 154.458 2211 154.903 Q2211.58 155.348 2214.09 155.348 L2215.1 155.348 L2215.1 156.824 Q2213.18 156.683 2209.01 156.683 Q2208.42 156.683 2207.51 156.707 Q2206.59 156.73 2205.4 156.777 Q2204.21 156.824 2203.53 156.824 Z" fill="#000000" fill-rule="nonzero" fill-opacity="1" /><path clip-path="url(#clip020)" d="M2222.62 156.191 L2222.62 149.867 Q2222.62 149.328 2222.64 149.141 Q2222.66 148.954 2222.8 148.813 Q2222.95 148.673 2223.23 148.673 Q2223.55 148.673 2223.67 148.813 Q2223.81 148.954 2223.91 149.492 Q2224.63 152.795 2226.18 154.552 Q2227.75 156.285 2230.58 156.285 Q2233.27 156.285 2234.63 155.09 Q2235.99 153.896 2235.99 151.928 Q2235.99 148.415 2231 147.525 Q2228.12 146.939 2226.93 146.565 Q2225.73 146.166 2224.68 145.3 Q2222.62 143.613 2222.62 141.224 Q2222.62 138.835 2224.42 137.078 Q2226.25 135.322 2230.28 135.322 Q2232.97 135.322 2234.8 136.68 Q2235.34 136.259 2235.62 135.907 Q2236.25 135.322 2236.58 135.322 Q2236.95 135.322 2237.02 135.579 Q2237.09 135.814 2237.09 136.493 L2237.09 141.318 Q2237.09 141.857 2237.07 142.044 Q2237.05 142.231 2236.9 142.372 Q2236.76 142.489 2236.46 142.489 Q2235.92 142.489 2235.9 142.044 Q2235.52 136.235 2230.28 136.235 Q2227.44 136.235 2226.18 137.336 Q2224.91 138.414 2224.91 139.889 Q2224.91 140.709 2225.29 141.341 Q2225.69 141.95 2226.18 142.325 Q2226.69 142.676 2227.63 143.028 Q2228.57 143.356 2229.13 143.473 Q2229.71 143.59 2230.82 143.824 Q2234.66 144.55 2236.27 146.12 Q2238.29 148.134 2238.29 150.687 Q2238.29 153.521 2236.37 155.442 Q2234.45 157.362 2230.58 157.362 Q2227.47 157.362 2225.29 155.278 Q2225.01 155.559 2224.8 155.816 Q2224.58 156.051 2224.49 156.144 Q2224.42 156.238 2224.4 156.308 Q2224.37 156.355 2224.33 156.402 Q2223.37 157.362 2223.13 157.362 Q2222.76 157.362 2222.69 157.105 Q2222.62 156.87 2222.62 156.191 Z" fill="#000000" fill-rule="nonzero" fill-opacity="1" /><path clip-path="url(#clip020)" d="M2242.08 168.347 Q2242.08 168.113 2242.69 167.528 Q2250.42 159.658 2250.42 144.831 Q2250.42 129.958 2242.99 122.439 Q2242.08 121.573 2242.08 121.315 Q2242.08 120.847 2242.55 120.847 Q2242.88 120.847 2244.02 121.807 Q2245.19 122.767 2246.95 124.969 Q2248.73 127.171 2250.04 129.864 Q2253.2 136.399 2253.2 144.831 Q2253.2 152.935 2250.18 159.47 Q2248.89 162.211 2247.09 164.506 Q2245.29 166.802 2244.09 167.809 Q2242.9 168.816 2242.55 168.816 Q2242.08 168.816 2242.08 168.347 Z" fill="#000000" fill-rule="nonzero" fill-opacity="1" /><polyline clip-path="url(#clip020)" style="stroke:#fe6100; stroke-linecap:round; stroke-linejoin:round; stroke-width:8; stroke-opacity:1; fill:none" points="1850.73,196.789 1989.12,196.789 "/>
<path clip-path="url(#clip020)" d="M2012.19 213.007 L2012.19 211.532 L2013.33 211.532 Q2015.93 211.532 2016.52 211.11 Q2017.13 210.665 2017.13 209.26 L2017.13 183.987 Q2017.13 182.605 2016.52 182.183 Q2015.91 181.738 2013.33 181.738 L2012.19 181.738 L2012.19 180.239 L2027.25 180.239 Q2032.47 180.239 2036.1 182.816 Q2039.75 185.369 2039.75 188.882 Q2039.75 191.576 2037.39 193.684 Q2035.02 195.792 2031.37 196.705 Q2036.12 198.345 2037.22 202.256 L2037.83 206.098 Q2038.02 207.48 2038.14 208.182 Q2038.28 208.885 2038.49 209.845 Q2038.7 210.806 2038.91 211.274 Q2039.15 211.719 2039.47 212.211 Q2039.8 212.679 2040.22 212.843 Q2040.67 213.007 2041.25 213.007 Q2042.35 213.007 2043.29 212.024 Q2044.23 211.04 2044.42 208.744 Q2044.51 207.972 2045 207.972 Q2045.61 207.972 2045.61 208.744 Q2045.61 209.424 2045.42 210.22 Q2045.24 210.993 2044.77 211.907 Q2044.32 212.82 2043.34 213.429 Q2042.35 214.061 2041.07 214.061 Q2037.32 214.061 2035.02 212.047 Q2034.06 211.18 2033.62 210.056 Q2033.2 208.932 2033.13 208.042 Q2033.06 207.152 2033.06 205.184 Q2033.06 202.397 2032.75 201.179 Q2032.47 199.961 2031.23 198.767 Q2029.54 197.127 2026.75 197.127 L2021.25 197.127 L2021.25 209.26 Q2021.25 210.642 2021.84 211.087 Q2022.44 211.532 2025.04 211.532 L2026.19 211.532 L2026.19 213.007 Q2024.46 212.867 2019.19 212.867 Q2013.92 212.867 2012.19 213.007 M2021.25 196.073 L2026.57 196.073 Q2029.12 196.073 2030.83 195.464 Q2032.56 194.832 2033.38 193.707 Q2034.2 192.583 2034.51 191.459 Q2034.81 190.311 2034.81 188.882 Q2034.81 187.196 2034.44 185.931 Q2034.06 184.666 2033.24 183.917 Q2032.42 183.167 2031.6 182.699 Q2030.78 182.207 2029.52 182.019 Q2028.25 181.832 2027.39 181.785 Q2026.52 181.738 2025.14 181.738 Q2022.8 181.738 2022.3 181.832 Q2021.77 181.879 2021.55 182.137 Q2021.34 182.394 2021.3 182.699 Q2021.25 182.98 2021.25 183.659 L2021.25 196.073 Z" fill="#000000" fill-rule="nonzero" fill-opacity="1" /><path clip-path="url(#clip020)" d="M2045.82 196.612 Q2045.82 189.374 2050.76 184.291 Q2055.71 179.185 2062.5 179.185 Q2064.61 179.185 2066.48 179.958 Q2068.35 180.731 2069.22 181.41 Q2070.09 182.066 2071.33 183.308 L2073.74 179.771 Q2074.12 179.185 2074.49 179.185 Q2074.89 179.185 2074.96 179.42 Q2075.03 179.63 2075.03 180.333 L2075.03 191.716 Q2075.03 192.489 2074.94 192.677 Q2074.84 192.864 2074.26 192.864 Q2073.79 192.864 2073.67 192.724 Q2073.58 192.583 2073.48 192.044 Q2072.76 186.868 2069.88 183.776 Q2067.02 180.684 2063.04 180.684 Q2061.89 180.684 2060.6 180.942 Q2059.34 181.2 2057.49 182.183 Q2055.66 183.167 2054.23 184.807 Q2052.82 186.423 2051.79 189.515 Q2050.76 192.583 2050.76 196.659 Q2050.76 200.687 2051.79 203.779 Q2052.82 206.871 2054.23 208.487 Q2055.66 210.08 2057.49 211.063 Q2059.34 212.047 2060.62 212.328 Q2061.94 212.586 2063.08 212.586 Q2067.21 212.586 2070.37 209.658 Q2073.53 206.73 2073.83 201.788 Q2073.88 201.554 2073.88 201.46 Q2073.88 201.343 2073.93 201.226 Q2073.98 201.109 2074.09 201.062 Q2074.21 201.015 2074.4 201.015 Q2075.03 201.015 2075.03 201.835 Q2075.03 206.402 2071.52 210.244 Q2068.03 214.061 2062.5 214.061 Q2055.68 214.061 2050.74 209.002 Q2045.82 203.943 2045.82 196.612 Z" fill="#000000" fill-rule="nonzero" fill-opacity="1" /><path clip-path="url(#clip020)" d="M2082.98 213.007 L2082.98 211.532 L2084.13 211.532 Q2086.73 211.532 2087.31 211.11 Q2087.92 210.665 2087.92 209.26 L2087.92 183.987 Q2087.92 182.605 2087.31 182.183 Q2086.71 181.738 2084.13 181.738 L2082.98 181.738 L2082.98 180.239 L2100.52 180.239 Q2105.09 180.239 2108.14 182.699 Q2111.18 185.135 2111.18 188.344 Q2111.18 190.99 2108.93 193.098 Q2106.71 195.206 2103.22 195.886 Q2107.2 196.307 2109.82 198.72 Q2112.47 201.109 2112.47 204.224 Q2112.47 207.737 2109.45 210.384 Q2106.43 213.007 2101.79 213.007 L2082.98 213.007 M2091.91 209.611 Q2091.91 210.853 2092.26 211.204 Q2092.61 211.532 2094.25 211.532 L2100.24 211.532 Q2103.69 211.532 2105.68 209.283 Q2107.67 207.011 2107.67 204.177 Q2107.67 201.343 2105.91 198.93 Q2104.18 196.495 2100.92 196.495 L2091.91 196.495 L2091.91 209.611 M2091.91 195.441 L2098.86 195.441 Q2102.56 195.441 2104.53 193.215 Q2106.52 190.99 2106.52 188.344 Q2106.52 186.001 2104.93 183.87 Q2103.36 181.738 2100.2 181.738 L2094.25 181.738 Q2092.61 181.738 2092.26 182.066 Q2091.91 182.394 2091.91 183.659 L2091.91 195.441 Z" fill="#000000" fill-rule="nonzero" fill-opacity="1" /><path clip-path="url(#clip020)" d="M2118.32 213.007 L2118.32 211.532 Q2120.05 211.532 2121.15 211.204 Q2122.25 210.853 2122.65 210.22 Q2123.07 209.564 2123.16 209.143 Q2123.26 208.698 2123.26 207.972 L2123.26 183.987 Q2123.26 182.605 2122.65 182.183 Q2122.06 181.738 2119.46 181.738 L2118.32 181.738 L2118.32 180.239 L2126.42 180.239 Q2127.29 180.239 2127.52 180.403 Q2127.76 180.544 2128.11 181.293 L2138.51 208.159 L2149 181.153 Q2149.23 180.474 2149.44 180.356 Q2149.68 180.239 2150.59 180.239 L2158.7 180.239 L2158.7 181.738 L2157.55 181.738 Q2154.95 181.738 2154.34 182.183 Q2153.75 182.605 2153.75 183.987 L2153.75 209.26 Q2153.75 210.642 2154.34 211.087 Q2154.95 211.532 2157.55 211.532 L2158.7 211.532 L2158.7 213.007 Q2156.92 212.867 2151.83 212.867 Q2146.7 212.867 2144.92 213.007 L2144.92 211.532 L2146.1 211.532 Q2148.7 211.532 2149.28 211.11 Q2149.87 210.665 2149.87 209.26 L2149.87 181.738 L2149.82 181.738 L2138.04 212.094 Q2137.71 213.007 2137.17 213.007 Q2136.59 213.007 2136.21 211.953 L2124.64 182.113 L2124.59 182.113 L2124.59 207.972 Q2124.59 208.698 2124.69 209.143 Q2124.78 209.564 2125.18 210.22 Q2125.6 210.853 2126.7 211.204 Q2127.8 211.532 2129.54 211.532 L2129.54 213.007 Q2124.5 212.867 2123.91 212.867 Q2123.35 212.867 2118.32 213.007 Z" fill="#000000" fill-rule="nonzero" fill-opacity="1" /><polyline clip-path="url(#clip020)" style="stroke:#dc267f; stroke-linecap:round; stroke-linejoin:round; stroke-width:8; stroke-opacity:1; fill:none" points="1850.73,248.629 1989.12,248.629 "/>
<path clip-path="url(#clip020)" d="M2012.19 265.629 L2012.19 264.153 L2013.33 264.153 Q2015.93 264.153 2016.52 263.731 Q2017.13 263.286 2017.13 261.881 L2017.13 236.608 Q2017.13 235.226 2016.52 234.805 Q2015.91 234.36 2013.33 234.36 L2012.19 234.36 L2012.19 232.861 L2029.12 232.861 Q2033.97 232.861 2037.2 235.531 Q2040.43 238.201 2040.43 241.785 Q2040.43 245.345 2037.13 247.921 Q2033.85 250.474 2029.5 250.474 L2021.39 250.474 L2021.39 261.881 Q2021.39 263.263 2021.98 263.708 Q2022.59 264.153 2025.19 264.153 L2026.33 264.153 L2026.33 265.629 Q2024.65 265.488 2019.24 265.488 Q2013.87 265.488 2012.19 265.629 M2021.25 249.233 L2027.86 249.233 Q2030.01 249.233 2031.58 248.624 Q2033.15 248.015 2033.85 247.289 Q2034.58 246.539 2034.98 245.345 Q2035.4 244.127 2035.44 243.471 Q2035.49 242.792 2035.49 241.785 Q2035.49 240.731 2035.44 240.075 Q2035.4 239.395 2034.98 238.201 Q2034.58 236.983 2033.85 236.257 Q2033.15 235.507 2031.58 234.945 Q2030.03 234.36 2027.86 234.36 L2023.59 234.36 Q2021.95 234.36 2021.6 234.688 Q2021.25 235.015 2021.25 236.28 L2021.25 249.233 Z" fill="#000000" fill-rule="nonzero" fill-opacity="1" /><path clip-path="url(#clip020)" d="M2050.81 265.629 L2050.81 264.153 L2051.95 264.153 Q2054.55 264.153 2055.14 263.731 Q2055.75 263.286 2055.75 261.881 L2055.75 236.608 Q2055.75 235.226 2055.14 234.805 Q2054.53 234.36 2051.95 234.36 L2050.81 234.36 L2050.81 232.861 L2068.35 232.861 Q2072.92 232.861 2075.96 235.32 Q2079.01 237.756 2079.01 240.965 Q2079.01 243.612 2076.76 245.72 Q2074.53 247.828 2071.04 248.507 Q2075.03 248.928 2077.65 251.341 Q2080.3 253.73 2080.3 256.845 Q2080.3 260.359 2077.27 263.005 Q2074.25 265.629 2069.62 265.629 L2050.81 265.629 M2059.73 262.232 Q2059.73 263.474 2060.08 263.825 Q2060.43 264.153 2062.07 264.153 L2068.07 264.153 Q2071.51 264.153 2073.5 261.904 Q2075.49 259.632 2075.49 256.798 Q2075.49 253.964 2073.74 251.552 Q2072 249.116 2068.75 249.116 L2059.73 249.116 L2059.73 262.232 M2059.73 248.062 L2066.69 248.062 Q2070.39 248.062 2072.36 245.837 Q2074.35 243.612 2074.35 240.965 Q2074.35 238.623 2072.75 236.491 Q2071.18 234.36 2068.02 234.36 L2062.07 234.36 Q2060.43 234.36 2060.08 234.688 Q2059.73 235.015 2059.73 236.28 L2059.73 248.062 Z" fill="#000000" fill-rule="nonzero" fill-opacity="1" /><path clip-path="url(#clip020)" d="M2084.81 265.629 L2084.81 264.153 Q2089.07 264.059 2090.17 260.921 L2100.1 232.252 Q2100.29 231.666 2100.5 231.479 Q2100.71 231.291 2101.25 231.291 Q2101.53 231.291 2101.69 231.338 Q2101.88 231.385 2102 231.549 Q2102.12 231.713 2102.16 231.807 Q2102.21 231.9 2102.35 232.252 L2112.7 262.232 Q2113.08 263.427 2113.85 263.802 Q2114.62 264.153 2116.8 264.153 L2117.65 264.153 L2117.65 265.629 Q2114.62 265.488 2111.37 265.488 Q2106.19 265.488 2104.46 265.629 L2104.46 264.153 Q2108.44 264.153 2108.44 262.701 Q2108.44 262.607 2108.3 262.022 L2105.77 254.69 L2093.92 254.69 L2091.69 260.968 Q2091.6 261.155 2091.6 261.694 Q2091.6 262.701 2092.54 263.427 Q2093.47 264.153 2095.21 264.153 L2095.21 265.629 Q2090.59 265.488 2089.68 265.488 Q2088.11 265.488 2084.81 265.629 M2094.43 253.215 L2105.23 253.215 L2099.82 237.615 L2094.43 253.215 Z" fill="#000000" fill-rule="nonzero" fill-opacity="1" /><polyline clip-path="url(#clip020)" style="stroke:#ffb000; stroke-linecap:round; stroke-linejoin:round; stroke-width:8; stroke-opacity:1; fill:none" points="1850.73,300.469 1989.12,300.469 "/>
<path clip-path="url(#clip020)" d="M2012.19 316.594 L2012.19 306.99 Q2012.19 306.452 2012.21 306.264 Q2012.23 306.077 2012.37 305.936 Q2012.51 305.796 2012.79 305.796 Q2013.33 305.796 2013.38 306.288 Q2013.52 311.043 2016.36 313.666 Q2019.14 316.266 2023.92 316.266 Q2026.8 316.266 2028.58 314.205 Q2030.36 312.12 2030.36 309.403 Q2030.36 306.803 2028.86 304.976 Q2028.23 304.156 2027.43 303.641 Q2026.66 303.102 2026.17 302.938 Q2025.7 302.774 2024.79 302.54 Q2018.84 301.111 2018.46 300.947 Q2015.63 299.987 2013.9 297.575 Q2012.19 295.139 2012.19 292.164 Q2012.19 288.323 2014.88 285.606 Q2017.6 282.865 2021.53 282.865 Q2023.5 282.865 2025.14 283.498 Q2026.8 284.107 2027.48 284.669 Q2028.16 285.231 2029.21 286.238 L2030.88 283.498 Q2031.25 282.865 2031.6 282.865 Q2031.98 282.865 2032.05 283.1 Q2032.14 283.31 2032.14 284.013 L2032.14 293.663 Q2032.14 294.202 2032.12 294.389 Q2032.1 294.577 2031.93 294.694 Q2031.79 294.811 2031.51 294.811 Q2031.04 294.811 2030.92 294.249 Q2029.59 284.224 2021.58 284.224 Q2018.84 284.224 2017.03 286.074 Q2015.25 287.901 2015.25 290.501 Q2015.25 292.609 2016.57 294.342 Q2017.88 296.052 2020.1 296.591 L2026.24 298.067 Q2029.31 298.793 2031.37 301.51 Q2033.43 304.227 2033.43 307.763 Q2033.43 311.839 2030.76 314.79 Q2028.11 317.741 2023.97 317.741 Q2020.99 317.741 2018.7 316.758 Q2016.4 315.774 2015.16 314.392 Q2014.2 315.985 2013.57 316.875 L2013.43 317.109 Q2013.05 317.741 2012.7 317.741 Q2012.33 317.741 2012.26 317.507 Q2012.19 317.273 2012.19 316.594 Z" fill="#000000" fill-rule="nonzero" fill-opacity="1" /><path clip-path="url(#clip020)" d="M2045.56 312.659 Q2040.65 307.576 2040.65 300.292 Q2040.65 292.984 2045.61 287.925 Q2050.58 282.865 2057.32 282.865 Q2059.01 282.865 2060.44 283.264 Q2061.89 283.638 2063.04 284.411 Q2064.19 285.161 2064.77 285.676 Q2065.38 286.168 2066.2 286.988 L2068.61 283.451 Q2068.99 282.865 2069.36 282.865 Q2069.76 282.865 2069.83 283.1 Q2069.9 283.31 2069.9 284.013 L2069.9 295.396 Q2069.9 296.169 2069.81 296.357 Q2069.71 296.544 2069.13 296.544 Q2068.66 296.544 2068.57 296.404 Q2068.47 296.263 2068.35 295.724 Q2067.63 290.548 2064.72 287.456 Q2061.84 284.364 2057.91 284.364 Q2056.76 284.364 2055.47 284.622 Q2054.21 284.88 2052.33 285.863 Q2050.48 286.847 2049.05 288.463 Q2047.65 290.056 2046.62 293.148 Q2045.59 296.216 2045.59 300.292 Q2045.59 304.32 2046.62 307.412 Q2047.65 310.504 2049.08 312.12 Q2050.53 313.713 2052.4 314.72 Q2054.3 315.727 2055.64 316.008 Q2056.99 316.266 2058.19 316.266 Q2059.01 316.266 2059.97 316.102 Q2060.93 315.914 2062.36 315.399 Q2063.81 314.86 2064.72 313.596 Q2065.64 312.331 2065.64 310.457 L2065.64 307.389 Q2065.64 305.96 2064.93 305.515 Q2064.23 305.07 2061.16 305.07 L2059.64 305.07 L2059.64 303.594 Q2061.37 303.735 2067.35 303.735 Q2067.89 303.735 2073.2 303.594 L2073.2 305.07 Q2070.91 305.07 2070.39 305.421 Q2069.9 305.749 2069.9 307.178 L2069.9 315.54 Q2069.9 316.641 2069.48 316.641 Q2069.1 316.641 2067.98 315.563 Q2066.88 314.486 2066.39 313.666 Q2065.24 315.68 2062.73 316.711 Q2060.25 317.741 2057.42 317.741 Q2050.51 317.741 2045.56 312.659 Z" fill="#000000" fill-rule="nonzero" fill-opacity="1" /><path clip-path="url(#clip020)" d="M2077.49 316.687 L2077.49 315.212 Q2079.22 315.212 2080.32 314.884 Q2081.42 314.533 2081.82 313.9 Q2082.24 313.244 2082.34 312.823 Q2082.43 312.378 2082.43 311.652 L2082.43 287.667 Q2082.43 286.285 2081.82 285.863 Q2081.23 285.418 2078.63 285.418 L2077.49 285.418 L2077.49 283.919 L2085.59 283.919 Q2086.46 283.919 2086.69 284.083 Q2086.93 284.224 2087.28 284.973 L2097.68 311.839 L2108.17 284.833 Q2108.4 284.154 2108.62 284.036 Q2108.85 283.919 2109.76 283.919 L2117.87 283.919 L2117.87 285.418 L2116.72 285.418 Q2114.12 285.418 2113.51 285.863 Q2112.93 286.285 2112.93 287.667 L2112.93 312.94 Q2112.93 314.322 2113.51 314.767 Q2114.12 315.212 2116.72 315.212 L2117.87 315.212 L2117.87 316.687 Q2116.09 316.547 2111 316.547 Q2105.87 316.547 2104.09 316.687 L2104.09 315.212 L2105.27 315.212 Q2107.87 315.212 2108.45 314.79 Q2109.04 314.345 2109.04 312.94 L2109.04 285.418 L2108.99 285.418 L2097.21 315.774 Q2096.88 316.687 2096.34 316.687 Q2095.76 316.687 2095.38 315.633 L2083.81 285.793 L2083.76 285.793 L2083.76 311.652 Q2083.76 312.378 2083.86 312.823 Q2083.95 313.244 2084.35 313.9 Q2084.77 314.533 2085.87 314.884 Q2086.97 315.212 2088.71 315.212 L2088.71 316.687 Q2083.67 316.547 2083.08 316.547 Q2082.52 316.547 2077.49 316.687 Z" fill="#000000" fill-rule="nonzero" fill-opacity="1" /></svg>
