<?xml version="1.0" encoding="utf-8"?>
<svg xmlns="http://www.w3.org/2000/svg" xmlns:xlink="http://www.w3.org/1999/xlink" width="600" height="400" viewBox="0 0 2400 1600">
<defs>
  <clipPath id="clip630">
    <rect x="0" y="0" width="2400" height="1600"/>
  </clipPath>
</defs>
<path clip-path="url(#clip630)" d="M0 1600 L2400 1600 L2400 8.88178e-14 L0 8.88178e-14  Z" fill="#ffffff" fill-rule="evenodd" fill-opacity="1"/>
<defs>
  <clipPath id="clip631">
    <rect x="480" y="0" width="1681" height="1600"/>
  </clipPath>
</defs>
<path clip-path="url(#clip630)" d="M276.876 1423.18 L2352.76 1423.18 L2352.76 47.2441 L276.876 47.2441  Z" fill="#ffffff" fill-rule="evenodd" fill-opacity="1"/>
<defs>
  <clipPath id="clip632">
    <rect x="276" y="47" width="2077" height="1377"/>
  </clipPath>
</defs>
<polyline clip-path="url(#clip632)" style="stroke:#000000; stroke-linecap:round; stroke-linejoin:round; stroke-width:2; stroke-opacity:0.1; fill:none" points="276.876,1423.18 276.876,47.2441 "/>
<polyline clip-path="url(#clip632)" style="stroke:#000000; stroke-linecap:round; stroke-linejoin:round; stroke-width:2; stroke-opacity:0.1; fill:none" points="722.738,1423.18 722.738,47.2441 "/>
<polyline clip-path="url(#clip632)" style="stroke:#000000; stroke-linecap:round; stroke-linejoin:round; stroke-width:2; stroke-opacity:0.1; fill:none" points="1168.6,1423.18 1168.6,47.2441 "/>
<polyline clip-path="url(#clip632)" style="stroke:#000000; stroke-linecap:round; stroke-linejoin:round; stroke-width:2; stroke-opacity:0.1; fill:none" points="1614.46,1423.18 1614.46,47.2441 "/>
<polyline clip-path="url(#clip632)" style="stroke:#000000; stroke-linecap:round; stroke-linejoin:round; stroke-width:2; stroke-opacity:0.1; fill:none" points="2060.33,1423.18 2060.33,47.2441 "/>
<polyline clip-path="url(#clip632)" style="stroke:#000000; stroke-linecap:round; stroke-linejoin:round; stroke-width:2; stroke-opacity:0.1; fill:none" points="276.876,1191.04 2352.76,1191.04 "/>
<polyline clip-path="url(#clip632)" style="stroke:#000000; stroke-linecap:round; stroke-linejoin:round; stroke-width:2; stroke-opacity:0.1; fill:none" points="276.876,610.705 2352.76,610.705 "/>
<polyline clip-path="url(#clip630)" style="stroke:#000000; stroke-linecap:round; stroke-linejoin:round; stroke-width:4; stroke-opacity:1; fill:none" points="276.876,1423.18 2352.76,1423.18 "/>
<polyline clip-path="url(#clip630)" style="stroke:#000000; stroke-linecap:round; stroke-linejoin:round; stroke-width:4; stroke-opacity:1; fill:none" points="276.876,1423.18 276.876,1404.28 "/>
<polyline clip-path="url(#clip630)" style="stroke:#000000; stroke-linecap:round; stroke-linejoin:round; stroke-width:4; stroke-opacity:1; fill:none" points="722.738,1423.18 722.738,1404.28 "/>
<polyline clip-path="url(#clip630)" style="stroke:#000000; stroke-linecap:round; stroke-linejoin:round; stroke-width:4; stroke-opacity:1; fill:none" points="1168.6,1423.18 1168.6,1404.28 "/>
<polyline clip-path="url(#clip630)" style="stroke:#000000; stroke-linecap:round; stroke-linejoin:round; stroke-width:4; stroke-opacity:1; fill:none" points="1614.46,1423.18 1614.46,1404.28 "/>
<polyline clip-path="url(#clip630)" style="stroke:#000000; stroke-linecap:round; stroke-linejoin:round; stroke-width:4; stroke-opacity:1; fill:none" points="2060.33,1423.18 2060.33,1404.28 "/>
<path clip-path="url(#clip630)" d="M254.26 1454.1 Q250.649 1454.1 248.82 1457.66 Q247.015 1461.2 247.015 1468.33 Q247.015 1475.44 248.82 1479.01 Q250.649 1482.55 254.26 1482.55 Q257.894 1482.55 259.7 1479.01 Q261.528 1475.44 261.528 1468.33 Q261.528 1461.2 259.7 1457.66 Q257.894 1454.1 254.26 1454.1 M254.26 1450.39 Q260.07 1450.39 263.126 1455 Q266.204 1459.58 266.204 1468.33 Q266.204 1477.06 263.126 1481.67 Q260.07 1486.25 254.26 1486.25 Q248.45 1486.25 245.371 1481.67 Q242.316 1477.06 242.316 1468.33 Q242.316 1459.58 245.371 1455 Q248.45 1450.39 254.26 1450.39 Z" fill="#000000" fill-rule="nonzero" fill-opacity="1" /><path clip-path="url(#clip630)" d="M274.422 1479.7 L279.306 1479.7 L279.306 1485.58 L274.422 1485.58 L274.422 1479.7 Z" fill="#000000" fill-rule="nonzero" fill-opacity="1" /><path clip-path="url(#clip630)" d="M299.491 1454.1 Q295.88 1454.1 294.051 1457.66 Q292.246 1461.2 292.246 1468.33 Q292.246 1475.44 294.051 1479.01 Q295.88 1482.55 299.491 1482.55 Q303.125 1482.55 304.931 1479.01 Q306.76 1475.44 306.76 1468.33 Q306.76 1461.2 304.931 1457.66 Q303.125 1454.1 299.491 1454.1 M299.491 1450.39 Q305.301 1450.39 308.357 1455 Q311.436 1459.58 311.436 1468.33 Q311.436 1477.06 308.357 1481.67 Q305.301 1486.25 299.491 1486.25 Q293.681 1486.25 290.602 1481.67 Q287.547 1477.06 287.547 1468.33 Q287.547 1459.58 290.602 1455 Q293.681 1450.39 299.491 1450.39 Z" fill="#000000" fill-rule="nonzero" fill-opacity="1" /><path clip-path="url(#clip630)" d="M700.921 1454.1 Q697.31 1454.1 695.481 1457.66 Q693.676 1461.2 693.676 1468.33 Q693.676 1475.44 695.481 1479.01 Q697.31 1482.55 700.921 1482.55 Q704.556 1482.55 706.361 1479.01 Q708.19 1475.44 708.19 1468.33 Q708.19 1461.2 706.361 1457.66 Q704.556 1454.1 700.921 1454.1 M700.921 1450.39 Q706.731 1450.39 709.787 1455 Q712.866 1459.58 712.866 1468.33 Q712.866 1477.06 709.787 1481.67 Q706.731 1486.25 700.921 1486.25 Q695.111 1486.25 692.032 1481.67 Q688.977 1477.06 688.977 1468.33 Q688.977 1459.58 692.032 1455 Q695.111 1450.39 700.921 1450.39 Z" fill="#000000" fill-rule="nonzero" fill-opacity="1" /><path clip-path="url(#clip630)" d="M721.083 1479.7 L725.967 1479.7 L725.967 1485.58 L721.083 1485.58 L721.083 1479.7 Z" fill="#000000" fill-rule="nonzero" fill-opacity="1" /><path clip-path="url(#clip630)" d="M740.18 1481.64 L756.5 1481.64 L756.5 1485.58 L734.555 1485.58 L734.555 1481.64 Q737.217 1478.89 741.801 1474.26 Q746.407 1469.61 747.588 1468.27 Q749.833 1465.74 750.713 1464.01 Q751.615 1462.25 751.615 1460.56 Q751.615 1457.8 749.671 1456.07 Q747.75 1454.33 744.648 1454.33 Q742.449 1454.33 739.995 1455.09 Q737.565 1455.86 734.787 1457.41 L734.787 1452.69 Q737.611 1451.55 740.065 1450.97 Q742.518 1450.39 744.555 1450.39 Q749.926 1450.39 753.12 1453.08 Q756.314 1455.77 756.314 1460.26 Q756.314 1462.39 755.504 1464.31 Q754.717 1466.2 752.611 1468.8 Q752.032 1469.47 748.93 1472.69 Q745.828 1475.88 740.18 1481.64 Z" fill="#000000" fill-rule="nonzero" fill-opacity="1" /><path clip-path="url(#clip630)" d="M1145.74 1454.1 Q1142.13 1454.1 1140.3 1457.66 Q1138.5 1461.2 1138.5 1468.33 Q1138.5 1475.44 1140.3 1479.01 Q1142.13 1482.55 1145.74 1482.55 Q1149.38 1482.55 1151.18 1479.01 Q1153.01 1475.44 1153.01 1468.33 Q1153.01 1461.2 1151.18 1457.66 Q1149.38 1454.1 1145.74 1454.1 M1145.74 1450.39 Q1151.55 1450.39 1154.61 1455 Q1157.69 1459.58 1157.69 1468.33 Q1157.69 1477.06 1154.61 1481.67 Q1151.55 1486.25 1145.74 1486.25 Q1139.93 1486.25 1136.85 1481.67 Q1133.8 1477.06 1133.8 1468.33 Q1133.8 1459.58 1136.85 1455 Q1139.93 1450.39 1145.74 1450.39 Z" fill="#000000" fill-rule="nonzero" fill-opacity="1" /><path clip-path="url(#clip630)" d="M1165.9 1479.7 L1170.79 1479.7 L1170.79 1485.58 L1165.9 1485.58 L1165.9 1479.7 Z" fill="#000000" fill-rule="nonzero" fill-opacity="1" /><path clip-path="url(#clip630)" d="M1193.82 1455.09 L1182.02 1473.54 L1193.82 1473.54 L1193.82 1455.09 M1192.59 1451.02 L1198.47 1451.02 L1198.47 1473.54 L1203.4 1473.54 L1203.4 1477.43 L1198.47 1477.43 L1198.47 1485.58 L1193.82 1485.58 L1193.82 1477.43 L1178.22 1477.43 L1178.22 1472.92 L1192.59 1451.02 Z" fill="#000000" fill-rule="nonzero" fill-opacity="1" /><path clip-path="url(#clip630)" d="M1591.77 1454.1 Q1588.16 1454.1 1586.33 1457.66 Q1584.52 1461.2 1584.52 1468.33 Q1584.52 1475.44 1586.33 1479.01 Q1588.16 1482.55 1591.77 1482.55 Q1595.4 1482.55 1597.21 1479.01 Q1599.04 1475.44 1599.04 1468.33 Q1599.04 1461.2 1597.21 1457.66 Q1595.4 1454.1 1591.77 1454.1 M1591.77 1450.39 Q1597.58 1450.39 1600.63 1455 Q1603.71 1459.58 1603.71 1468.33 Q1603.71 1477.06 1600.63 1481.67 Q1597.58 1486.25 1591.77 1486.25 Q1585.96 1486.25 1582.88 1481.67 Q1579.82 1477.06 1579.82 1468.33 Q1579.82 1459.58 1582.88 1455 Q1585.96 1450.39 1591.77 1450.39 Z" fill="#000000" fill-rule="nonzero" fill-opacity="1" /><path clip-path="url(#clip630)" d="M1611.93 1479.7 L1616.81 1479.7 L1616.81 1485.58 L1611.93 1485.58 L1611.93 1479.7 Z" fill="#000000" fill-rule="nonzero" fill-opacity="1" /><path clip-path="url(#clip630)" d="M1637.58 1466.44 Q1634.43 1466.44 1632.58 1468.59 Q1630.75 1470.74 1630.75 1474.49 Q1630.75 1478.22 1632.58 1480.39 Q1634.43 1482.55 1637.58 1482.55 Q1640.73 1482.55 1642.55 1480.39 Q1644.41 1478.22 1644.41 1474.49 Q1644.41 1470.74 1642.55 1468.59 Q1640.73 1466.44 1637.58 1466.44 M1646.86 1451.78 L1646.86 1456.04 Q1645.1 1455.21 1643.29 1454.77 Q1641.51 1454.33 1639.75 1454.33 Q1635.12 1454.33 1632.67 1457.45 Q1630.24 1460.58 1629.89 1466.9 Q1631.26 1464.89 1633.32 1463.82 Q1635.38 1462.73 1637.85 1462.73 Q1643.06 1462.73 1646.07 1465.9 Q1649.1 1469.05 1649.1 1474.49 Q1649.1 1479.82 1645.96 1483.03 Q1642.81 1486.25 1637.58 1486.25 Q1631.58 1486.25 1628.41 1481.67 Q1625.24 1477.06 1625.24 1468.33 Q1625.24 1460.14 1629.13 1455.28 Q1633.02 1450.39 1639.57 1450.39 Q1641.33 1450.39 1643.11 1450.74 Q1644.92 1451.09 1646.86 1451.78 Z" fill="#000000" fill-rule="nonzero" fill-opacity="1" /><path clip-path="url(#clip630)" d="M2037.76 1454.1 Q2034.15 1454.1 2032.32 1457.66 Q2030.51 1461.2 2030.51 1468.33 Q2030.51 1475.44 2032.32 1479.01 Q2034.15 1482.55 2037.76 1482.55 Q2041.39 1482.55 2043.2 1479.01 Q2045.03 1475.44 2045.03 1468.33 Q2045.03 1461.2 2043.2 1457.66 Q2041.39 1454.1 2037.76 1454.1 M2037.76 1450.39 Q2043.57 1450.39 2046.62 1455 Q2049.7 1459.58 2049.7 1468.33 Q2049.7 1477.06 2046.62 1481.67 Q2043.57 1486.25 2037.76 1486.25 Q2031.95 1486.25 2028.87 1481.67 Q2025.81 1477.06 2025.81 1468.33 Q2025.81 1459.58 2028.87 1455 Q2031.95 1450.39 2037.76 1450.39 Z" fill="#000000" fill-rule="nonzero" fill-opacity="1" /><path clip-path="url(#clip630)" d="M2057.92 1479.7 L2062.8 1479.7 L2062.8 1485.58 L2057.92 1485.58 L2057.92 1479.7 Z" fill="#000000" fill-rule="nonzero" fill-opacity="1" /><path clip-path="url(#clip630)" d="M2082.99 1469.17 Q2079.66 1469.17 2077.73 1470.95 Q2075.84 1472.73 2075.84 1475.86 Q2075.84 1478.98 2077.73 1480.77 Q2079.66 1482.55 2082.99 1482.55 Q2086.32 1482.55 2088.24 1480.77 Q2090.16 1478.96 2090.16 1475.86 Q2090.16 1472.73 2088.24 1470.95 Q2086.35 1469.17 2082.99 1469.17 M2078.31 1467.18 Q2075.3 1466.44 2073.61 1464.38 Q2071.95 1462.32 2071.95 1459.35 Q2071.95 1455.21 2074.89 1452.8 Q2077.85 1450.39 2082.99 1450.39 Q2088.15 1450.39 2091.09 1452.8 Q2094.03 1455.21 2094.03 1459.35 Q2094.03 1462.32 2092.34 1464.38 Q2090.67 1466.44 2087.69 1467.18 Q2091.07 1467.96 2092.94 1470.26 Q2094.84 1472.55 2094.84 1475.86 Q2094.84 1480.88 2091.76 1483.57 Q2088.71 1486.25 2082.99 1486.25 Q2077.27 1486.25 2074.19 1483.57 Q2071.14 1480.88 2071.14 1475.86 Q2071.14 1472.55 2073.03 1470.26 Q2074.93 1467.96 2078.31 1467.18 M2076.6 1459.79 Q2076.6 1462.48 2078.27 1463.98 Q2079.96 1465.49 2082.99 1465.49 Q2086 1465.49 2087.69 1463.98 Q2089.4 1462.48 2089.4 1459.79 Q2089.4 1457.11 2087.69 1455.6 Q2086 1454.1 2082.99 1454.1 Q2079.96 1454.1 2078.27 1455.6 Q2076.6 1457.11 2076.6 1459.79 Z" fill="#000000" fill-rule="nonzero" fill-opacity="1" /><path clip-path="url(#clip630)" d="M1104.12 1526.05 L1105.38 1511.23 L1145.66 1511.23 L1146.92 1526.05 L1145.28 1526.05 Q1145.02 1523.08 1144.76 1521.38 Q1144.54 1519.67 1143.96 1518.06 Q1143.41 1516.42 1142.7 1515.64 Q1142.03 1514.84 1140.7 1514.23 Q1139.38 1513.58 1137.68 1513.42 Q1135.97 1513.26 1133.39 1513.26 Q1130.37 1513.26 1129.63 1513.39 Q1128.82 1513.58 1128.63 1514.16 Q1128.43 1514.71 1128.43 1515.9 L1128.43 1550.65 Q1128.43 1551.97 1128.69 1552.52 Q1128.98 1553.03 1130.5 1553.45 Q1132.01 1553.84 1135.36 1553.84 L1138 1553.84 L1138 1555.87 Q1135.29 1555.67 1125.47 1555.67 Q1115.71 1555.67 1113.01 1555.87 L1113.01 1553.84 L1115.65 1553.84 Q1119 1553.84 1120.51 1553.45 Q1122.06 1553.03 1122.32 1552.52 Q1122.57 1551.97 1122.57 1550.65 L1122.57 1515.9 Q1122.57 1514.97 1122.51 1514.58 Q1122.44 1514.19 1122.15 1513.87 Q1121.86 1513.52 1121.19 1513.39 Q1120.54 1513.26 1117.65 1513.26 Q1115.07 1513.26 1113.33 1513.42 Q1111.62 1513.58 1110.3 1514.23 Q1108.98 1514.84 1108.27 1515.64 Q1107.6 1516.42 1107.02 1518.06 Q1106.47 1519.67 1106.24 1521.38 Q1106.02 1523.08 1105.76 1526.05 L1104.12 1526.05 Z" fill="#000000" fill-rule="nonzero" fill-opacity="1" /><path clip-path="url(#clip630)" d="M1156.46 1555.87 L1156.46 1553.84 Q1159.97 1553.84 1160.78 1553.42 Q1161.58 1552.97 1161.58 1550.84 L1161.58 1533.1 Q1161.58 1530.65 1160.75 1530.07 Q1159.94 1529.49 1156.72 1529.49 L1156.72 1527.43 L1165.93 1526.72 L1165.93 1550.91 Q1165.93 1552.87 1166.64 1553.36 Q1167.35 1553.84 1170.57 1553.84 L1170.57 1555.87 Q1163.84 1555.67 1163.71 1555.67 Q1162.81 1555.67 1156.46 1555.87 M1159.23 1515.22 Q1159.23 1513.9 1160.23 1512.84 Q1161.26 1511.75 1162.71 1511.75 Q1164.16 1511.75 1165.19 1512.74 Q1166.22 1513.71 1166.22 1515.26 Q1166.22 1516.77 1165.19 1517.77 Q1164.16 1518.73 1162.71 1518.73 Q1161.2 1518.73 1160.2 1517.67 Q1159.23 1516.61 1159.23 1515.22 Z" fill="#000000" fill-rule="nonzero" fill-opacity="1" /><path clip-path="url(#clip630)" d="M1175.08 1555.87 L1175.08 1553.84 Q1178.59 1553.84 1179.39 1553.42 Q1180.2 1552.97 1180.2 1550.84 L1180.2 1533.16 Q1180.2 1530.72 1179.33 1530.1 Q1178.49 1529.49 1175.08 1529.49 L1175.08 1527.43 L1184.35 1526.72 L1184.35 1533.65 Q1187.44 1526.72 1194.11 1526.72 Q1201.84 1526.72 1202.9 1533.16 Q1204.03 1530.65 1206.38 1528.69 Q1208.76 1526.72 1212.47 1526.72 Q1217.43 1526.72 1219.39 1529.17 Q1220.84 1530.81 1221.13 1532.65 Q1221.42 1534.48 1221.42 1539.25 L1221.42 1551.84 Q1221.49 1553.23 1222.55 1553.55 Q1223.61 1553.84 1226.57 1553.84 L1226.57 1555.87 Q1219.84 1555.67 1219.2 1555.67 Q1218.68 1555.67 1211.73 1555.87 L1211.73 1553.84 Q1215.24 1553.84 1216.04 1553.42 Q1216.88 1552.97 1216.88 1550.84 L1216.88 1535.48 Q1216.88 1532.13 1215.85 1530.17 Q1214.82 1528.17 1211.99 1528.17 Q1208.57 1528.17 1205.83 1531.04 Q1203.1 1533.9 1203.1 1538.73 L1203.1 1550.84 Q1203.1 1552.97 1203.9 1553.42 Q1204.74 1553.84 1208.25 1553.84 L1208.25 1555.87 Q1201.52 1555.67 1200.84 1555.67 Q1200.33 1555.67 1193.4 1555.87 L1193.4 1553.84 Q1196.91 1553.84 1197.72 1553.42 Q1198.56 1552.97 1198.56 1550.84 L1198.56 1535.48 Q1198.56 1532.13 1197.53 1530.17 Q1196.49 1528.17 1193.66 1528.17 Q1190.25 1528.17 1187.51 1531.04 Q1184.77 1533.9 1184.77 1538.73 L1184.77 1550.84 Q1184.77 1552.97 1185.58 1553.42 Q1186.41 1553.84 1189.89 1553.84 L1189.89 1555.87 Q1183.16 1555.67 1182.52 1555.67 Q1182 1555.67 1175.08 1555.87 Z" fill="#000000" fill-rule="nonzero" fill-opacity="1" /><path clip-path="url(#clip630)" d="M1230.52 1541.34 Q1230.52 1535.13 1234.51 1530.72 Q1238.51 1526.3 1244.24 1526.3 Q1250.04 1526.3 1253.03 1530.07 Q1256.06 1533.84 1256.06 1539.25 Q1256.06 1540.25 1255.8 1540.44 Q1255.54 1540.63 1254.42 1540.63 L1236 1540.63 Q1236 1547.37 1237.99 1550.52 Q1240.76 1554.93 1245.43 1554.93 Q1246.08 1554.93 1246.85 1554.8 Q1247.62 1554.68 1249.2 1554.13 Q1250.78 1553.55 1252.16 1552.04 Q1253.55 1550.52 1254.35 1548.14 Q1254.55 1547.2 1255.19 1547.24 Q1256.06 1547.24 1256.06 1548.01 Q1256.06 1548.59 1255.42 1549.91 Q1254.8 1551.2 1253.61 1552.74 Q1252.42 1554.29 1250.1 1555.45 Q1247.82 1556.61 1245.05 1556.61 Q1239.25 1556.61 1234.87 1552.23 Q1230.52 1547.82 1230.52 1541.34 M1236.06 1539.25 L1251.71 1539.25 Q1251.71 1537.86 1251.45 1536.32 Q1251.23 1534.77 1250.52 1532.65 Q1249.84 1530.49 1248.23 1529.14 Q1246.62 1527.78 1244.24 1527.78 Q1243.18 1527.78 1242.02 1528.24 Q1240.89 1528.69 1239.51 1529.78 Q1238.12 1530.88 1237.15 1533.36 Q1236.19 1535.84 1236.06 1539.25 Z" fill="#000000" fill-rule="nonzero" fill-opacity="1" /><path clip-path="url(#clip630)" d="M1263.21 1539.38 Q1263.21 1528.24 1267.37 1519.25 Q1269.14 1515.48 1271.62 1512.33 Q1274.1 1509.17 1275.74 1507.78 Q1277.38 1506.4 1277.83 1506.4 Q1278.48 1506.4 1278.51 1507.04 Q1278.51 1507.37 1277.64 1508.17 Q1267.01 1518.99 1267.04 1539.38 Q1267.04 1559.83 1277.38 1570.23 Q1278.51 1571.36 1278.51 1571.71 Q1278.51 1572.36 1277.83 1572.36 Q1277.38 1572.36 1275.8 1571.04 Q1274.23 1569.72 1271.78 1566.69 Q1269.33 1563.66 1267.56 1559.96 Q1263.21 1550.97 1263.21 1539.38 Z" fill="#000000" fill-rule="nonzero" fill-opacity="1" /><path clip-path="url(#clip630)" d="M1284.84 1555 L1284.84 1546.3 Q1284.84 1545.56 1284.88 1545.3 Q1284.91 1545.05 1285.1 1544.85 Q1285.29 1544.66 1285.68 1544.66 Q1286.13 1544.66 1286.29 1544.85 Q1286.49 1545.05 1286.61 1545.79 Q1287.61 1550.33 1289.74 1552.74 Q1291.9 1555.13 1295.79 1555.13 Q1299.5 1555.13 1301.37 1553.48 Q1303.23 1551.84 1303.23 1549.14 Q1303.23 1544.31 1296.37 1543.08 Q1292.41 1542.28 1290.77 1541.76 Q1289.13 1541.21 1287.68 1540.02 Q1284.84 1537.7 1284.84 1534.42 Q1284.84 1531.13 1287.32 1528.72 Q1289.84 1526.3 1295.37 1526.3 Q1299.08 1526.3 1301.59 1528.17 Q1302.33 1527.59 1302.72 1527.11 Q1303.59 1526.3 1304.04 1526.3 Q1304.55 1526.3 1304.65 1526.66 Q1304.75 1526.98 1304.75 1527.91 L1304.75 1534.55 Q1304.75 1535.29 1304.71 1535.55 Q1304.68 1535.8 1304.49 1536 Q1304.3 1536.16 1303.88 1536.16 Q1303.14 1536.16 1303.1 1535.55 Q1302.59 1527.56 1295.37 1527.56 Q1291.48 1527.56 1289.74 1529.07 Q1288 1530.55 1288 1532.58 Q1288 1533.71 1288.52 1534.58 Q1289.06 1535.42 1289.74 1535.93 Q1290.45 1536.42 1291.74 1536.9 Q1293.02 1537.35 1293.8 1537.51 Q1294.6 1537.67 1296.12 1537.99 Q1301.4 1538.99 1303.62 1541.15 Q1306.39 1543.92 1306.39 1547.43 Q1306.39 1551.33 1303.75 1553.97 Q1301.11 1556.61 1295.79 1556.61 Q1291.51 1556.61 1288.52 1553.74 Q1288.13 1554.13 1287.84 1554.48 Q1287.55 1554.8 1287.42 1554.93 Q1287.32 1555.06 1287.29 1555.16 Q1287.26 1555.22 1287.19 1555.29 Q1285.87 1556.61 1285.55 1556.61 Q1285.04 1556.61 1284.94 1556.25 Q1284.84 1555.93 1284.84 1555 Z" fill="#000000" fill-rule="nonzero" fill-opacity="1" /><path clip-path="url(#clip630)" d="M1310.29 1541.34 Q1310.29 1535.13 1314.28 1530.72 Q1318.28 1526.3 1324.01 1526.3 Q1329.81 1526.3 1332.8 1530.07 Q1335.83 1533.84 1335.83 1539.25 Q1335.83 1540.25 1335.57 1540.44 Q1335.31 1540.63 1334.19 1540.63 L1315.76 1540.63 Q1315.76 1547.37 1317.76 1550.52 Q1320.53 1554.93 1325.2 1554.93 Q1325.85 1554.93 1326.62 1554.8 Q1327.39 1554.68 1328.97 1554.13 Q1330.55 1553.55 1331.93 1552.04 Q1333.32 1550.52 1334.12 1548.14 Q1334.32 1547.2 1334.96 1547.24 Q1335.83 1547.24 1335.83 1548.01 Q1335.83 1548.59 1335.18 1549.91 Q1334.57 1551.2 1333.38 1552.74 Q1332.19 1554.29 1329.87 1555.45 Q1327.58 1556.61 1324.81 1556.61 Q1319.02 1556.61 1314.64 1552.23 Q1310.29 1547.82 1310.29 1541.34 M1315.83 1539.25 L1331.48 1539.25 Q1331.48 1537.86 1331.22 1536.32 Q1331 1534.77 1330.29 1532.65 Q1329.61 1530.49 1328 1529.14 Q1326.39 1527.78 1324.01 1527.78 Q1322.95 1527.78 1321.79 1528.24 Q1320.66 1528.69 1319.28 1529.78 Q1317.89 1530.88 1316.92 1533.36 Q1315.96 1535.84 1315.83 1539.25 Z" fill="#000000" fill-rule="nonzero" fill-opacity="1" /><path clip-path="url(#clip630)" d="M1343.47 1552.26 Q1339.29 1547.88 1339.29 1541.63 Q1339.29 1535.35 1343.41 1530.84 Q1347.53 1526.3 1353.58 1526.3 Q1357.61 1526.3 1360.64 1528.24 Q1363.67 1530.14 1363.67 1533.39 Q1363.67 1534.84 1362.8 1535.67 Q1361.96 1536.48 1360.64 1536.48 Q1359.25 1536.48 1358.42 1535.64 Q1357.61 1534.77 1357.61 1533.45 Q1357.61 1532.87 1357.8 1532.29 Q1358 1531.71 1358.71 1531.1 Q1359.45 1530.49 1360.7 1530.39 Q1358.35 1527.98 1353.78 1527.98 Q1353.71 1527.98 1353.65 1527.98 Q1350.3 1527.98 1347.53 1531.13 Q1344.76 1534.29 1344.76 1541.5 Q1344.76 1545.27 1345.66 1548.04 Q1346.6 1550.78 1348.11 1552.2 Q1349.62 1553.61 1351.11 1554.29 Q1352.59 1554.93 1354.04 1554.93 Q1360.51 1554.93 1362.7 1548.01 Q1362.89 1547.37 1363.54 1547.37 Q1364.41 1547.37 1364.41 1548.01 Q1364.41 1548.33 1364.15 1549.17 Q1363.89 1550.01 1363.09 1551.33 Q1362.28 1552.65 1361.12 1553.81 Q1359.99 1554.93 1357.96 1555.77 Q1355.97 1556.61 1353.46 1556.61 Q1347.66 1556.61 1343.47 1552.26 Z" fill="#000000" fill-rule="nonzero" fill-opacity="1" /><path clip-path="url(#clip630)" d="M1372.1 1552.33 Q1367.75 1548.01 1367.75 1541.76 Q1367.75 1535.48 1372 1530.91 Q1376.29 1526.3 1382.41 1526.3 Q1388.4 1526.3 1392.68 1530.88 Q1397 1535.42 1397 1541.76 Q1397 1547.98 1392.65 1552.29 Q1388.33 1556.61 1382.34 1556.61 Q1376.48 1556.61 1372.1 1552.33 M1373.23 1541.21 Q1373.23 1547.62 1374.9 1550.52 Q1377.48 1554.93 1382.41 1554.93 Q1384.85 1554.93 1386.88 1553.61 Q1388.94 1552.29 1390.07 1550.07 Q1391.52 1547.17 1391.52 1541.21 Q1391.52 1534.87 1389.78 1532.07 Q1387.21 1527.78 1382.34 1527.78 Q1380.22 1527.78 1378.12 1528.91 Q1376.06 1530.01 1374.81 1532.2 Q1373.23 1535.09 1373.23 1541.21 Z" fill="#000000" fill-rule="nonzero" fill-opacity="1" /><path clip-path="url(#clip630)" d="M1399.1 1555.87 L1399.1 1553.84 Q1402.61 1553.84 1403.41 1553.42 Q1404.22 1552.97 1404.22 1550.84 L1404.22 1533.16 Q1404.22 1530.72 1403.35 1530.1 Q1402.51 1529.49 1399.1 1529.49 L1399.1 1527.43 L1408.37 1526.72 L1408.37 1533.65 Q1411.46 1526.72 1418.13 1526.72 Q1423.09 1526.72 1425.06 1529.17 Q1426.5 1530.81 1426.79 1532.65 Q1427.12 1534.48 1427.12 1539.25 L1427.12 1551.84 Q1427.18 1553.23 1428.24 1553.55 Q1429.31 1553.84 1432.27 1553.84 L1432.27 1555.87 Q1425.54 1555.67 1424.86 1555.67 Q1424.35 1555.67 1417.42 1555.87 L1417.42 1553.84 Q1420.93 1553.84 1421.74 1553.42 Q1422.58 1552.97 1422.58 1550.84 L1422.58 1535.48 Q1422.58 1532.13 1421.54 1530.17 Q1420.51 1528.17 1417.68 1528.17 Q1414.27 1528.17 1411.53 1531.04 Q1408.79 1533.9 1408.79 1538.73 L1408.79 1550.84 Q1408.79 1552.97 1409.6 1553.42 Q1410.43 1553.84 1413.91 1553.84 L1413.91 1555.87 Q1407.18 1555.67 1406.54 1555.67 Q1406.02 1555.67 1399.1 1555.87 Z" fill="#000000" fill-rule="nonzero" fill-opacity="1" /><path clip-path="url(#clip630)" d="M1436.92 1541.7 Q1436.92 1535.42 1441.3 1531.07 Q1445.68 1526.72 1451.6 1526.72 Q1456.63 1526.72 1459.91 1530.81 L1459.91 1516.54 Q1459.91 1514.1 1459.04 1513.48 Q1458.21 1512.87 1454.79 1512.87 L1454.79 1510.81 L1464.29 1510.1 L1464.29 1550.14 Q1464.29 1552.58 1465.13 1553.23 Q1466 1553.84 1469.41 1553.84 L1469.41 1555.87 L1459.72 1556.61 L1459.72 1552.23 Q1456.31 1556.58 1450.9 1556.61 Q1445.23 1556.61 1441.07 1552.26 Q1436.92 1547.91 1436.92 1541.7 M1442.39 1541.76 Q1442.39 1547.88 1444.29 1550.91 Q1446.93 1555.13 1451.22 1555.13 Q1456.11 1555.13 1459.01 1550.52 Q1459.75 1549.39 1459.72 1548.07 L1459.72 1534.55 Q1459.72 1533.23 1459.01 1532.13 Q1456.31 1528.17 1451.89 1528.17 Q1447.29 1528.17 1444.42 1532.39 Q1442.39 1535.55 1442.39 1541.76 Z" fill="#000000" fill-rule="nonzero" fill-opacity="1" /><path clip-path="url(#clip630)" d="M1473.42 1555 L1473.42 1546.3 Q1473.42 1545.56 1473.45 1545.3 Q1473.48 1545.05 1473.68 1544.85 Q1473.87 1544.66 1474.26 1544.66 Q1474.71 1544.66 1474.87 1544.85 Q1475.06 1545.05 1475.19 1545.79 Q1476.19 1550.33 1478.31 1552.74 Q1480.47 1555.13 1484.37 1555.13 Q1488.07 1555.13 1489.94 1553.48 Q1491.81 1551.84 1491.81 1549.14 Q1491.81 1544.31 1484.95 1543.08 Q1480.99 1542.28 1479.34 1541.76 Q1477.7 1541.21 1476.25 1540.02 Q1473.42 1537.7 1473.42 1534.42 Q1473.42 1531.13 1475.9 1528.72 Q1478.41 1526.3 1483.95 1526.3 Q1487.65 1526.3 1490.17 1528.17 Q1490.91 1527.59 1491.29 1527.11 Q1492.16 1526.3 1492.61 1526.3 Q1493.13 1526.3 1493.23 1526.66 Q1493.32 1526.98 1493.32 1527.91 L1493.32 1534.55 Q1493.32 1535.29 1493.29 1535.55 Q1493.26 1535.8 1493.06 1536 Q1492.87 1536.16 1492.45 1536.16 Q1491.71 1536.16 1491.68 1535.55 Q1491.16 1527.56 1483.95 1527.56 Q1480.05 1527.56 1478.31 1529.07 Q1476.57 1530.55 1476.57 1532.58 Q1476.57 1533.71 1477.09 1534.58 Q1477.64 1535.42 1478.31 1535.93 Q1479.02 1536.42 1480.31 1536.9 Q1481.6 1537.35 1482.37 1537.51 Q1483.18 1537.67 1484.69 1537.99 Q1489.97 1538.99 1492.19 1541.15 Q1494.96 1543.92 1494.96 1547.43 Q1494.96 1551.33 1492.32 1553.97 Q1489.68 1556.61 1484.37 1556.61 Q1480.09 1556.61 1477.09 1553.74 Q1476.7 1554.13 1476.41 1554.48 Q1476.12 1554.8 1476 1554.93 Q1475.9 1555.06 1475.87 1555.16 Q1475.83 1555.22 1475.77 1555.29 Q1474.45 1556.61 1474.13 1556.61 Q1473.61 1556.61 1473.52 1556.25 Q1473.42 1555.93 1473.42 1555 Z" fill="#000000" fill-rule="nonzero" fill-opacity="1" /><path clip-path="url(#clip630)" d="M1500.18 1571.71 Q1500.18 1571.39 1501.02 1570.59 Q1511.65 1559.76 1511.65 1539.38 Q1511.65 1518.93 1501.44 1508.59 Q1500.18 1507.4 1500.18 1507.04 Q1500.18 1506.4 1500.83 1506.4 Q1501.28 1506.4 1502.86 1507.72 Q1504.47 1509.04 1506.88 1512.07 Q1509.33 1515.1 1511.13 1518.8 Q1515.48 1527.78 1515.48 1539.38 Q1515.48 1550.52 1511.33 1559.51 Q1509.56 1563.28 1507.08 1566.43 Q1504.6 1569.59 1502.95 1570.97 Q1501.31 1572.36 1500.83 1572.36 Q1500.18 1572.36 1500.18 1571.71 Z" fill="#000000" fill-rule="nonzero" fill-opacity="1" /><polyline clip-path="url(#clip630)" style="stroke:#000000; stroke-linecap:round; stroke-linejoin:round; stroke-width:4; stroke-opacity:1; fill:none" points="276.876,1423.18 276.876,47.2441 "/>
<polyline clip-path="url(#clip630)" style="stroke:#000000; stroke-linecap:round; stroke-linejoin:round; stroke-width:4; stroke-opacity:1; fill:none" points="276.876,1191.04 295.773,1191.04 "/>
<polyline clip-path="url(#clip630)" style="stroke:#000000; stroke-linecap:round; stroke-linejoin:round; stroke-width:4; stroke-opacity:1; fill:none" points="276.876,610.705 295.773,610.705 "/>
<path clip-path="url(#clip630)" d="M114.931 1210.84 L122.57 1210.84 L122.57 1184.47 L114.26 1186.14 L114.26 1181.88 L122.524 1180.21 L127.2 1180.21 L127.2 1210.84 L134.839 1210.84 L134.839 1214.77 L114.931 1214.77 L114.931 1210.84 Z" fill="#000000" fill-rule="nonzero" fill-opacity="1" /><path clip-path="url(#clip630)" d="M154.283 1183.29 Q150.672 1183.29 148.843 1186.86 Q147.038 1190.4 147.038 1197.53 Q147.038 1204.63 148.843 1208.2 Q150.672 1211.74 154.283 1211.74 Q157.917 1211.74 159.723 1208.2 Q161.552 1204.63 161.552 1197.53 Q161.552 1190.4 159.723 1186.86 Q157.917 1183.29 154.283 1183.29 M154.283 1179.59 Q160.093 1179.59 163.149 1184.19 Q166.227 1188.78 166.227 1197.53 Q166.227 1206.25 163.149 1210.86 Q160.093 1215.44 154.283 1215.44 Q148.473 1215.44 145.394 1210.86 Q142.339 1206.25 142.339 1197.53 Q142.339 1188.78 145.394 1184.19 Q148.473 1179.59 154.283 1179.59 Z" fill="#000000" fill-rule="nonzero" fill-opacity="1" /><path clip-path="url(#clip630)" d="M166.227 1173.69 L190.339 1173.69 L190.339 1176.89 L166.227 1176.89 L166.227 1173.69 Z" fill="#000000" fill-rule="nonzero" fill-opacity="1" /><path clip-path="url(#clip630)" d="M199.197 1184.16 L205.404 1184.16 L205.404 1162.74 L198.652 1164.1 L198.652 1160.64 L205.366 1159.28 L209.166 1159.28 L209.166 1184.16 L215.372 1184.16 L215.372 1187.36 L199.197 1187.36 L199.197 1184.16 Z" fill="#000000" fill-rule="nonzero" fill-opacity="1" /><path clip-path="url(#clip630)" d="M231.171 1161.78 Q228.237 1161.78 226.751 1164.68 Q225.284 1167.56 225.284 1173.35 Q225.284 1179.12 226.751 1182.02 Q228.237 1184.9 231.171 1184.9 Q234.124 1184.9 235.591 1182.02 Q237.076 1179.12 237.076 1173.35 Q237.076 1167.56 235.591 1164.68 Q234.124 1161.78 231.171 1161.78 M231.171 1158.77 Q235.891 1158.77 238.374 1162.52 Q240.876 1166.24 240.876 1173.35 Q240.876 1180.44 238.374 1184.18 Q235.891 1187.91 231.171 1187.91 Q226.45 1187.91 223.949 1184.18 Q221.466 1180.44 221.466 1173.35 Q221.466 1166.24 223.949 1162.52 Q226.45 1158.77 231.171 1158.77 Z" fill="#000000" fill-rule="nonzero" fill-opacity="1" /><path clip-path="url(#clip630)" d="M140.247 630.497 L147.886 630.497 L147.886 604.132 L139.575 605.798 L139.575 601.539 L147.839 599.872 L152.515 599.872 L152.515 630.497 L160.154 630.497 L160.154 634.432 L140.247 634.432 L140.247 630.497 Z" fill="#000000" fill-rule="nonzero" fill-opacity="1" /><path clip-path="url(#clip630)" d="M179.598 602.951 Q175.987 602.951 174.159 606.516 Q172.353 610.058 172.353 617.187 Q172.353 624.294 174.159 627.858 Q175.987 631.4 179.598 631.4 Q183.233 631.4 185.038 627.858 Q186.867 624.294 186.867 617.187 Q186.867 610.058 185.038 606.516 Q183.233 602.951 179.598 602.951 M179.598 599.247 Q185.409 599.247 188.464 603.854 Q191.543 608.437 191.543 617.187 Q191.543 625.914 188.464 630.52 Q185.409 635.104 179.598 635.104 Q173.788 635.104 170.71 630.52 Q167.654 625.914 167.654 617.187 Q167.654 608.437 170.71 603.854 Q173.788 599.247 179.598 599.247 Z" fill="#000000" fill-rule="nonzero" fill-opacity="1" /><path clip-path="url(#clip630)" d="M191.543 593.349 L215.654 593.349 L215.654 596.546 L191.543 596.546 L191.543 593.349 Z" fill="#000000" fill-rule="nonzero" fill-opacity="1" /><path clip-path="url(#clip630)" d="M223.892 578.942 L238.807 578.942 L238.807 582.139 L227.372 582.139 L227.372 589.023 Q228.199 588.741 229.027 588.609 Q229.854 588.459 230.682 588.459 Q235.384 588.459 238.13 591.035 Q240.876 593.612 240.876 598.013 Q240.876 602.546 238.054 605.066 Q235.233 607.567 230.099 607.567 Q228.331 607.567 226.488 607.267 Q224.663 606.966 222.707 606.364 L222.707 602.546 Q224.4 603.467 226.205 603.919 Q228.011 604.37 230.023 604.37 Q233.277 604.37 235.177 602.659 Q237.076 600.947 237.076 598.013 Q237.076 595.079 235.177 593.368 Q233.277 591.656 230.023 591.656 Q228.5 591.656 226.977 591.995 Q225.472 592.333 223.892 593.048 L223.892 578.942 Z" fill="#000000" fill-rule="nonzero" fill-opacity="1" /><path clip-path="url(#clip630)" d="M66.0841 1072.66 L64.0551 1072.66 Q64.0551 1070.27 63.6042 1068.76 Q63.1212 1067.25 62.2516 1066.7 Q61.3498 1066.12 60.7701 1065.99 Q60.1582 1065.86 59.1598 1065.86 L26.181 1065.86 Q24.2809 1065.86 23.7012 1066.7 Q23.0893 1067.5 23.0893 1071.08 L23.0893 1072.66 L21.0281 1072.66 L21.0281 1061.51 Q21.0281 1060.32 21.2535 1060 Q21.4468 1059.68 22.4774 1059.19 L59.4175 1044.9 L22.2841 1030.47 Q21.3502 1030.14 21.1891 1029.85 Q21.0281 1029.53 21.0281 1028.28 L21.0281 1017.13 L23.0893 1017.13 L23.0893 1018.71 Q23.0893 1022.29 23.7012 1023.12 Q24.2809 1023.93 26.181 1023.93 L60.9312 1023.93 Q62.8313 1023.93 63.4432 1023.12 Q64.0551 1022.29 64.0551 1018.71 L64.0551 1017.13 L66.0841 1017.13 Q65.8909 1019.58 65.8909 1026.57 Q65.8909 1033.62 66.0841 1036.07 L64.0551 1036.07 L64.0551 1034.46 Q64.0551 1030.89 63.4754 1030.08 Q62.8635 1029.28 60.9312 1029.28 L23.0893 1029.28 L23.0893 1029.34 L64.8281 1045.54 Q66.0841 1045.99 66.0841 1046.73 Q66.0841 1047.54 64.6348 1048.05 L23.6046 1063.96 L23.6046 1064.03 L59.1598 1064.03 Q60.1582 1064.03 60.7701 1063.9 Q61.3498 1063.77 62.2516 1063.22 Q63.1212 1062.64 63.6042 1061.13 Q64.0551 1059.61 64.0551 1057.23 L66.0841 1057.23 Q65.8909 1064.15 65.8909 1064.96 Q65.8909 1065.73 66.0841 1072.66 Z" fill="#000000" fill-rule="nonzero" fill-opacity="1" /><path clip-path="url(#clip630)" d="M66.0841 1006.77 L64.0551 1006.77 Q64.0551 1003.26 63.6364 1002.46 Q63.1856 1001.65 61.06 1001.65 L43.3146 1001.65 Q40.8669 1001.65 40.2872 1002.49 Q39.7075 1003.3 39.7075 1006.52 L37.6463 1006.52 L36.9378 997.306 L61.1244 997.306 Q63.0889 997.306 63.572 996.598 Q64.0551 995.889 64.0551 992.669 L66.0841 992.669 Q65.8909 999.4 65.8909 999.528 Q65.8909 1000.43 66.0841 1006.77 M25.4403 1004.01 Q24.1199 1004.01 23.0571 1003.01 Q21.9621 1001.98 21.9621 1000.53 Q21.9621 999.078 22.9604 998.047 Q23.9266 997.016 25.4725 997.016 Q26.9862 997.016 27.9846 998.047 Q28.9507 999.078 28.9507 1000.53 Q28.9507 1002.04 27.8879 1003.04 Q26.8252 1004.01 25.4403 1004.01 Z" fill="#000000" fill-rule="nonzero" fill-opacity="1" /><path clip-path="url(#clip630)" d="M66.0841 988.16 L64.0551 988.16 Q64.0551 984.65 63.6364 983.845 Q63.1856 983.04 61.06 983.04 L43.379 983.04 Q40.9313 983.04 40.3194 983.909 Q39.7075 984.747 39.7075 988.16 L37.6463 988.16 L36.9378 978.885 L43.8621 978.885 Q36.9378 975.793 36.9378 969.127 Q36.9378 964.167 39.3854 962.202 Q41.0279 960.753 42.8637 960.463 Q44.6994 960.141 49.4659 960.141 L62.0584 960.141 Q63.4432 960.077 63.7653 959.014 Q64.0551 957.951 64.0551 954.988 L66.0841 954.988 Q65.8909 961.719 65.8909 962.396 Q65.8909 962.911 66.0841 969.835 L64.0551 969.835 Q64.0551 966.325 63.6364 965.52 Q63.1856 964.682 61.06 964.682 L45.6978 964.682 Q42.3484 964.682 40.3838 965.713 Q38.3871 966.743 38.3871 969.578 Q38.3871 972.991 41.2534 975.729 Q44.1197 978.466 48.9506 978.466 L61.06 978.466 Q63.1856 978.466 63.6364 977.661 Q64.0551 976.824 64.0551 973.346 L66.0841 973.346 Q65.8909 980.077 65.8909 980.721 Q65.8909 981.236 66.0841 988.16 Z" fill="#000000" fill-rule="nonzero" fill-opacity="1" /><path clip-path="url(#clip630)" d="M66.0841 951.66 L64.0551 951.66 Q64.0551 948.149 63.6364 947.344 Q63.1856 946.539 61.06 946.539 L43.3146 946.539 Q40.8669 946.539 40.2872 947.376 Q39.7075 948.181 39.7075 951.402 L37.6463 951.402 L36.9378 942.191 L61.1244 942.191 Q63.0889 942.191 63.572 941.483 Q64.0551 940.774 64.0551 937.553 L66.0841 937.553 Q65.8909 944.285 65.8909 944.413 Q65.8909 945.315 66.0841 951.66 M25.4403 948.89 Q24.1199 948.89 23.0571 947.892 Q21.9621 946.861 21.9621 945.412 Q21.9621 943.962 22.9604 942.932 Q23.9266 941.901 25.4725 941.901 Q26.9862 941.901 27.9846 942.932 Q28.9507 943.962 28.9507 945.412 Q28.9507 946.925 27.8879 947.924 Q26.8252 948.89 25.4403 948.89 Z" fill="#000000" fill-rule="nonzero" fill-opacity="1" /><path clip-path="url(#clip630)" d="M66.0841 933.045 L64.0551 933.045 Q64.0551 929.535 63.6364 928.73 Q63.1856 927.924 61.06 927.924 L43.379 927.924 Q40.9313 927.924 40.3194 928.794 Q39.7075 929.631 39.7075 933.045 L37.6463 933.045 L36.9378 923.77 L43.8621 923.77 Q36.9378 920.678 36.9378 914.012 Q36.9378 906.282 43.379 905.219 Q40.8669 904.092 38.9023 901.741 Q36.9378 899.358 36.9378 895.654 Q36.9378 890.695 39.3854 888.73 Q41.0279 887.281 42.8637 886.991 Q44.6994 886.701 49.4659 886.701 L62.0584 886.701 Q63.4432 886.637 63.7653 885.574 Q64.0551 884.511 64.0551 881.548 L66.0841 881.548 Q65.8909 888.279 65.8909 888.923 Q65.8909 889.438 66.0841 896.395 L64.0551 896.395 Q64.0551 892.885 63.6364 892.079 Q63.1856 891.242 61.06 891.242 L45.6978 891.242 Q42.3484 891.242 40.3838 892.273 Q38.3871 893.303 38.3871 896.137 Q38.3871 899.551 41.2534 902.289 Q44.1197 905.026 48.9506 905.026 L61.06 905.026 Q63.1856 905.026 63.6364 904.221 Q64.0551 903.384 64.0551 899.873 L66.0841 899.873 Q65.8909 906.604 65.8909 907.281 Q65.8909 907.796 66.0841 914.72 L64.0551 914.72 Q64.0551 911.21 63.6364 910.405 Q63.1856 909.567 61.06 909.567 L45.6978 909.567 Q42.3484 909.567 40.3838 910.598 Q38.3871 911.628 38.3871 914.462 Q38.3871 917.876 41.2534 920.614 Q44.1197 923.351 48.9506 923.351 L61.06 923.351 Q63.1856 923.351 63.6364 922.546 Q64.0551 921.709 64.0551 918.231 L66.0841 918.231 Q65.8909 924.962 65.8909 925.606 Q65.8909 926.121 66.0841 933.045 Z" fill="#000000" fill-rule="nonzero" fill-opacity="1" /><path clip-path="url(#clip630)" d="M39.7075 878.922 L37.6463 878.922 L36.9378 869.228 L58.8378 869.228 Q60.4159 869.228 61.3498 869.1 Q62.2516 868.971 63.3144 868.455 Q64.3772 867.908 64.8603 866.684 Q65.3434 865.428 65.3434 863.431 Q65.3434 859.856 62.4126 857.666 Q59.4819 855.444 55.1341 855.444 L43.379 855.444 Q40.9313 855.444 40.3194 856.314 Q39.7075 857.183 39.7075 860.597 L37.6463 860.597 L36.9378 850.903 L60.3515 850.903 Q62.7991 850.903 63.4432 850.066 Q64.0551 849.196 64.0551 845.75 L66.0841 845.75 L66.8248 855.251 L60.8667 855.251 Q66.7926 858.021 66.8248 863.753 Q66.8248 866.652 66.0841 868.649 Q65.3434 870.613 64.4416 871.612 Q63.5076 872.61 61.7363 873.157 Q59.965 873.673 58.87 873.737 Q57.775 873.802 55.6494 873.802 L45.7622 873.802 Q41.2856 873.802 40.5126 874.446 Q39.7075 875.09 39.7075 878.922 Z" fill="#000000" fill-rule="nonzero" fill-opacity="1" /><path clip-path="url(#clip630)" d="M66.0841 843.478 L64.0551 843.478 Q64.0551 839.967 63.6364 839.162 Q63.1856 838.357 61.06 838.357 L43.379 838.357 Q40.9313 838.357 40.3194 839.226 Q39.7075 840.064 39.7075 843.478 L37.6463 843.478 L36.9378 834.202 L43.8621 834.202 Q36.9378 831.111 36.9378 824.444 Q36.9378 816.715 43.379 815.652 Q40.8669 814.525 38.9023 812.173 Q36.9378 809.79 36.9378 806.087 Q36.9378 801.127 39.3854 799.162 Q41.0279 797.713 42.8637 797.423 Q44.6994 797.133 49.4659 797.133 L62.0584 797.133 Q63.4432 797.069 63.7653 796.006 Q64.0551 794.943 64.0551 791.98 L66.0841 791.98 Q65.8909 798.711 65.8909 799.356 Q65.8909 799.871 66.0841 806.827 L64.0551 806.827 Q64.0551 803.317 63.6364 802.512 Q63.1856 801.674 61.06 801.674 L45.6978 801.674 Q42.3484 801.674 40.3838 802.705 Q38.3871 803.736 38.3871 806.57 Q38.3871 809.984 41.2534 812.721 Q44.1197 815.458 48.9506 815.458 L61.06 815.458 Q63.1856 815.458 63.6364 814.653 Q64.0551 813.816 64.0551 810.306 L66.0841 810.306 Q65.8909 817.037 65.8909 817.713 Q65.8909 818.228 66.0841 825.152 L64.0551 825.152 Q64.0551 821.642 63.6364 820.837 Q63.1856 820 61.06 820 L45.6978 820 Q42.3484 820 40.3838 821.03 Q38.3871 822.061 38.3871 824.895 Q38.3871 828.309 41.2534 831.046 Q44.1197 833.784 48.9506 833.784 L61.06 833.784 Q63.1856 833.784 63.6364 832.978 Q64.0551 832.141 64.0551 828.663 L66.0841 828.663 Q65.8909 835.394 65.8909 836.038 Q65.8909 836.553 66.0841 843.478 Z" fill="#000000" fill-rule="nonzero" fill-opacity="1" /><path clip-path="url(#clip630)" d="M43.7332 788.035 Q33.6528 788.035 26.6319 781.593 Q19.5788 775.12 19.5788 766.135 Q19.5788 757.085 26.6319 750.644 Q33.685 744.17 43.7332 744.17 Q53.6848 744.17 60.6091 750.644 Q67.5334 757.117 67.5334 766.135 Q67.5334 775.023 60.6413 781.529 Q53.7493 788.035 43.7332 788.035 M42.7993 781.239 Q48.9184 781.239 53.6204 779.79 Q58.2903 778.341 60.8345 776.022 Q63.3788 773.671 64.6026 771.159 Q65.8264 768.647 65.8264 766.07 Q65.8264 763.558 64.6348 761.111 Q63.4432 758.631 60.9312 756.28 Q58.4191 753.929 53.717 752.447 Q49.015 750.966 42.7993 750.966 Q37.9684 750.966 34.1037 751.996 Q30.2068 753.027 27.8557 754.637 Q25.5047 756.247 23.9588 758.341 Q22.4129 760.402 21.8332 762.367 Q21.2213 764.299 21.2213 766.135 Q21.2213 768.453 22.2519 770.869 Q23.2825 773.284 25.5691 775.732 Q27.8235 778.147 32.3001 779.693 Q36.7446 781.239 42.7993 781.239 Z" fill="#000000" fill-rule="nonzero" fill-opacity="1" /><path clip-path="url(#clip630)" d="M23.0893 736.492 L21.0281 736.492 L20.3196 726.991 L41.2212 726.991 Q36.9378 723.159 36.9378 717.942 Q36.9378 712.273 41.2856 708.119 Q45.6334 703.964 51.8491 703.964 Q58.1292 703.964 62.477 708.312 Q66.8248 712.66 66.8248 718.682 Q66.8248 724.157 61.994 727.313 Q66.0197 729.632 66.0841 729.697 L66.0841 731.339 L26.7607 731.339 Q24.3131 731.339 23.7012 732.209 Q23.0893 733.078 23.0893 736.492 M58.5801 726.798 Q59.965 726.798 61.3498 725.864 Q65.3434 723.256 65.3434 719.004 Q65.3434 718.972 65.3434 718.94 Q65.3434 714.335 61.1244 711.468 Q57.9682 709.439 51.7847 709.439 Q45.6656 709.439 42.606 711.339 Q38.3871 713.98 38.3871 718.264 Q38.3871 723.095 42.606 726.057 Q43.6688 726.798 44.9893 726.798 L58.5801 726.798 Z" fill="#000000" fill-rule="nonzero" fill-opacity="1" /><path clip-path="url(#clip630)" d="M74.3288 704.215 Q73.0084 704.215 72.1388 703.378 Q71.3014 702.573 71.3014 701.188 Q71.3014 699.803 72.1388 698.998 Q73.0084 698.161 74.3288 698.161 Q75.5204 698.161 76.2611 698.869 Q77.0341 699.546 77.2917 700.447 Q78.1613 698.74 78.1613 696.905 Q78.1613 695.391 77.2595 694.36 Q76.3578 693.33 74.8763 692.879 Q73.3948 692.396 72.1388 692.235 Q70.915 692.074 69.4979 692.074 L43.379 692.074 Q40.9313 692.074 40.3194 693.04 Q39.7075 693.974 39.7075 697.742 L37.6463 697.742 L36.9378 687.726 L69.3691 687.726 Q73.7813 687.726 76.6798 690.367 Q79.6106 693.008 79.6106 696.744 Q79.6106 699.771 78.1935 701.993 Q76.7764 704.215 74.3288 704.215 M27.9524 693.684 Q26.9218 694.715 25.4725 694.715 Q24.0232 694.715 22.9927 693.684 Q21.9621 692.654 21.9621 691.204 Q21.9621 689.755 22.9927 688.724 Q24.0232 687.694 25.4725 687.694 Q26.9218 687.694 27.9524 688.724 Q28.9507 689.755 28.9507 691.204 Q28.9507 692.654 27.9524 693.684 Z" fill="#000000" fill-rule="nonzero" fill-opacity="1" /><path clip-path="url(#clip630)" d="M51.5593 676.919 Q45.3435 676.919 40.9313 672.925 Q36.5191 668.932 36.5191 663.199 Q36.5191 657.402 40.2872 654.407 Q44.0553 651.38 49.4659 651.38 Q50.4643 651.38 50.6575 651.637 Q50.8507 651.895 50.8507 653.022 L50.8507 671.444 Q57.5817 671.444 60.7379 669.447 Q65.1501 666.677 65.1501 662.007 Q65.1501 661.363 65.0213 660.59 Q64.8925 659.817 64.345 658.239 Q63.7653 656.661 62.2516 655.276 Q60.7379 653.892 58.3547 653.086 Q57.4207 652.893 57.4529 652.249 Q57.4529 651.38 58.2259 651.38 Q58.8056 651.38 60.126 652.024 Q61.4142 652.636 62.9601 653.827 Q64.506 655.019 65.6654 657.338 Q66.8248 659.624 66.8248 662.394 Q66.8248 668.191 62.4448 672.571 Q58.0326 676.919 51.5593 676.919 M49.4659 671.379 L49.4659 655.727 Q48.081 655.727 46.5351 655.985 Q44.9893 656.21 42.8637 656.919 Q40.7059 657.595 39.3532 659.206 Q38.0006 660.816 38.0006 663.199 Q38.0006 664.262 38.4515 665.421 Q38.9023 666.549 39.9973 667.933 Q41.0923 669.318 43.5722 670.284 Q46.052 671.251 49.4659 671.379 Z" fill="#000000" fill-rule="nonzero" fill-opacity="1" /><path clip-path="url(#clip630)" d="M62.477 643.736 Q58.097 647.923 51.8491 647.923 Q45.569 647.923 41.0601 643.801 Q36.5191 639.678 36.5191 633.624 Q36.5191 629.598 38.4515 626.571 Q40.3516 623.543 43.6044 623.543 Q45.0537 623.543 45.891 624.413 Q46.6962 625.25 46.6962 626.571 Q46.6962 627.955 45.8588 628.793 Q44.9893 629.598 43.6688 629.598 Q43.0891 629.598 42.5094 629.405 Q41.9297 629.211 41.3178 628.503 Q40.7059 627.762 40.6093 626.506 Q38.1938 628.857 38.1938 633.43 Q38.1938 633.495 38.1938 633.559 Q38.1938 636.909 41.35 639.678 Q44.5062 642.448 51.7203 642.448 Q55.4884 642.448 58.2581 641.546 Q60.9956 640.612 62.4126 639.099 Q63.8297 637.585 64.506 636.104 Q65.1501 634.622 65.1501 633.173 Q65.1501 626.699 58.2259 624.509 Q57.5817 624.316 57.5817 623.672 Q57.5817 622.803 58.2259 622.803 Q58.5479 622.803 59.3853 623.06 Q60.2226 623.318 61.5431 624.123 Q62.8635 624.928 64.0229 626.088 Q65.1501 627.215 65.9875 629.244 Q66.8248 631.24 66.8248 633.752 Q66.8248 639.55 62.477 643.736 Z" fill="#000000" fill-rule="nonzero" fill-opacity="1" /><path clip-path="url(#clip630)" d="M39.7075 620.511 L38.2582 620.511 Q38.1294 617.484 36.0038 615.487 Q33.846 613.458 31.2051 612.782 Q28.5643 612.073 25.5047 612.009 L25.5047 610.367 L37.6463 610.367 L37.6463 600.93 L39.7075 600.93 L39.7075 610.367 L58.0326 610.367 Q65.1501 610.367 65.1501 605.922 Q65.1501 604.022 63.2178 602.766 Q61.2532 601.51 57.775 601.51 L54.1357 601.51 L54.1357 599.867 L57.9038 599.867 Q61.4787 599.867 64.1517 601.51 Q66.8248 603.152 66.8248 606.405 Q66.8248 607.597 66.5028 608.788 Q66.2129 609.948 65.44 611.494 Q64.6348 613.007 62.7025 613.974 Q60.7379 614.908 57.9038 614.908 L39.7075 614.908 L39.7075 620.511 Z" fill="#000000" fill-rule="nonzero" fill-opacity="1" /><path clip-path="url(#clip630)" d="M66.0841 595.976 L64.0551 595.976 Q64.0551 592.466 63.6364 591.66 Q63.1856 590.855 61.06 590.855 L43.3146 590.855 Q40.8669 590.855 40.2872 591.693 Q39.7075 592.498 39.7075 595.718 L37.6463 595.718 L36.9378 586.507 L61.1244 586.507 Q63.0889 586.507 63.572 585.799 Q64.0551 585.09 64.0551 581.87 L66.0841 581.87 Q65.8909 588.601 65.8909 588.73 Q65.8909 589.631 66.0841 595.976 M25.4403 593.206 Q24.1199 593.206 23.0571 592.208 Q21.9621 591.177 21.9621 589.728 Q21.9621 588.279 22.9604 587.248 Q23.9266 586.218 25.4725 586.218 Q26.9862 586.218 27.9846 587.248 Q28.9507 588.279 28.9507 589.728 Q28.9507 591.242 27.8879 592.24 Q26.8252 593.206 25.4403 593.206 Z" fill="#000000" fill-rule="nonzero" fill-opacity="1" /><path clip-path="url(#clip630)" d="M39.7075 577.361 L37.6463 577.361 Q37.8396 574.399 37.8396 570.953 Q37.8396 569.697 37.6463 563.771 L39.7075 563.771 Q39.7075 567.539 41.4144 567.539 Q41.6721 567.539 42.5416 567.152 L60.9312 559.745 L44.1197 553.014 Q42.9925 552.627 42.5416 552.627 Q41.4144 552.627 40.6093 553.4 Q39.7719 554.141 39.7075 555.784 L37.6463 555.784 Q37.8396 552.434 37.8396 550.051 Q37.8396 547.346 37.6463 545.123 L39.7075 545.123 Q39.7075 547.088 40.6093 548.473 Q41.4788 549.858 42.2518 550.309 Q42.9925 550.727 44.1197 551.178 L65.5688 559.809 Q66.8248 560.325 66.8248 561.194 Q66.8248 561.774 66.5672 562.032 Q66.3417 562.257 65.5688 562.579 L42.1551 572.08 Q40.5126 572.724 40.1262 573.561 Q39.7075 574.399 39.7075 577.361 Z" fill="#000000" fill-rule="nonzero" fill-opacity="1" /><path clip-path="url(#clip630)" d="M51.5593 541.053 Q45.3435 541.053 40.9313 537.059 Q36.5191 533.066 36.5191 527.333 Q36.5191 521.536 40.2872 518.541 Q44.0553 515.514 49.4659 515.514 Q50.4643 515.514 50.6575 515.771 Q50.8507 516.029 50.8507 517.156 L50.8507 535.578 Q57.5817 535.578 60.7379 533.581 Q65.1501 530.812 65.1501 526.142 Q65.1501 525.498 65.0213 524.725 Q64.8925 523.952 64.345 522.374 Q63.7653 520.796 62.2516 519.411 Q60.7379 518.026 58.3547 517.221 Q57.4207 517.027 57.4529 516.383 Q57.4529 515.514 58.2259 515.514 Q58.8056 515.514 60.126 516.158 Q61.4142 516.77 62.9601 517.961 Q64.506 519.153 65.6654 521.472 Q66.8248 523.758 66.8248 526.528 Q66.8248 532.325 62.4448 536.705 Q58.0326 541.053 51.5593 541.053 M49.4659 535.514 L49.4659 519.862 Q48.081 519.862 46.5351 520.119 Q44.9893 520.345 42.8637 521.053 Q40.7059 521.73 39.3532 523.34 Q38.0006 524.95 38.0006 527.333 Q38.0006 528.396 38.4515 529.556 Q38.9023 530.683 39.9973 532.068 Q41.0923 533.452 43.5722 534.419 Q46.052 535.385 49.4659 535.514 Z" fill="#000000" fill-rule="nonzero" fill-opacity="1" /><path clip-path="url(#clip630)" d="M60.5447 505.294 Q53.556 512.057 43.54 512.057 Q33.4918 512.057 26.5353 505.23 Q19.5788 498.402 19.5788 489.127 Q19.5788 486.808 20.1263 484.843 Q20.6416 482.847 21.7044 481.268 Q22.735 479.69 23.4435 478.885 Q24.1199 478.048 25.2471 476.921 L20.384 473.603 Q19.5788 473.088 19.5788 472.573 Q19.5788 472.025 19.9009 471.929 Q20.1907 471.832 21.1569 471.832 L36.809 471.832 Q37.8718 471.832 38.1294 471.961 Q38.3871 472.09 38.3871 472.895 Q38.3871 473.539 38.1938 473.668 Q38.0006 473.797 37.2598 473.958 Q30.1424 474.956 25.8912 478.95 Q21.64 482.911 21.64 488.322 Q21.64 489.9 21.9943 491.671 Q22.3485 493.41 23.7012 495.987 Q25.0538 498.531 27.276 500.495 Q29.466 502.428 33.7172 503.845 Q37.9362 505.262 43.54 505.262 Q49.0794 505.262 53.3306 503.845 Q57.5817 502.428 59.804 500.463 Q61.994 498.466 63.3788 495.89 Q64.7637 493.281 65.1501 491.446 Q65.5044 489.578 65.5044 487.935 Q65.5044 486.808 65.2789 485.487 Q65.0213 484.167 64.3128 482.202 Q63.572 480.206 61.8329 478.95 Q60.0938 477.694 57.5173 477.694 L53.2984 477.694 Q51.3338 477.694 50.7219 478.66 Q50.11 479.626 50.11 483.845 L50.11 485.938 L48.081 485.938 Q48.2743 483.555 48.2743 475.343 Q48.2743 474.602 48.081 467.291 L50.11 467.291 Q50.11 470.447 50.5931 471.156 Q51.044 471.832 53.0085 471.832 L64.506 471.832 Q66.0197 471.832 66.0197 472.412 Q66.0197 472.927 64.5382 474.473 Q63.0567 475.987 61.9295 476.663 Q64.6992 478.241 66.1163 481.687 Q67.5334 485.101 67.5334 488.998 Q67.5334 498.499 60.5447 505.294 Z" fill="#000000" fill-rule="nonzero" fill-opacity="1" /><path clip-path="url(#clip630)" d="M59.804 461.388 Q54.2001 461.388 51.2372 454.786 Q49.337 450.825 48.854 442.644 L46.4385 442.644 Q42.3484 442.644 40.1906 444.802 Q38.0006 446.928 38.0006 449.633 Q38.0006 454.464 41.0279 456.783 Q41.0923 454.818 42.0907 454.11 Q43.0569 453.401 44.0553 453.401 Q45.3757 453.401 46.2453 454.239 Q47.0826 455.044 47.0826 456.429 Q47.0826 457.749 46.2775 458.619 Q45.4401 459.488 43.9909 459.488 Q40.7703 459.488 38.6447 456.59 Q36.5191 453.659 36.5191 449.504 Q36.5191 444.094 40.1584 440.487 Q41.2856 439.359 42.7348 438.812 Q44.1841 438.232 45.1503 438.168 Q46.0843 438.103 47.9522 438.103 L61.1244 438.103 Q61.5109 438.103 62.155 437.975 Q62.7991 437.846 63.6364 437.266 Q64.4416 436.654 64.4416 435.656 Q64.4416 433.272 60.2226 433.305 L56.519 433.305 L56.519 431.63 L60.2226 431.63 Q63.7331 431.63 65.1179 433.498 Q66.4706 435.334 66.4706 437.041 Q66.4706 439.231 64.8603 440.615 Q63.25 442 61.06 442.194 Q63.572 443.192 65.2145 445.479 Q66.8248 447.733 66.8248 450.825 Q66.8248 453.208 66.2129 455.462 Q65.6332 457.685 63.9907 459.552 Q62.316 461.388 59.804 461.388 M59.7395 456.3 Q62.1872 456.3 63.7653 454.561 Q65.3434 452.821 65.3434 450.374 Q65.3434 447.604 63.2178 445.124 Q61.06 442.644 56.841 442.644 L50.2388 442.644 Q50.4965 449.955 53.4272 453.144 Q56.3257 456.3 59.7395 456.3 Z" fill="#000000" fill-rule="nonzero" fill-opacity="1" /><path clip-path="url(#clip630)" d="M76.8409 434.004 Q76.8409 430.494 76.39 429.689 Q75.9713 428.851 73.8779 428.851 L42.9925 428.851 Q40.8025 428.851 40.255 429.689 Q39.7075 430.494 39.7075 434.004 L37.6463 434.004 L36.9378 424.503 L41.2856 424.503 Q36.9378 420.542 36.9378 415.26 Q36.9378 409.657 41.2856 405.566 Q45.6334 401.476 51.8491 401.476 Q58.1292 401.476 62.477 405.824 Q66.8248 410.172 66.8248 416.194 Q66.8248 419.479 65.1501 421.702 Q63.4432 423.892 62.1872 424.31 L62.7991 424.31 L73.8779 424.31 Q76.0035 424.31 76.4222 423.473 Q76.8409 422.635 76.8409 419.157 L78.8698 419.157 Q78.6766 426.082 78.6766 426.597 Q78.6766 427.241 78.8698 434.004 L76.8409 434.004 M58.5801 424.31 Q59.5785 424.31 59.9328 424.181 Q60.287 424.02 61.3498 423.376 Q65.3434 420.768 65.3434 416.516 Q65.3434 416.484 65.3434 416.452 Q65.3434 412.684 61.5109 409.818 Q57.6462 406.951 51.8491 406.951 Q46.3097 406.951 42.445 409.56 Q38.5803 412.169 38.5803 415.776 Q38.5803 418.352 39.9651 420.607 Q41.35 422.861 43.8621 424.31 L58.5801 424.31 Z" fill="#000000" fill-rule="nonzero" fill-opacity="1" /><polyline clip-path="url(#clip632)" style="stroke:#785ef0; stroke-linecap:round; stroke-linejoin:round; stroke-width:8; stroke-opacity:1; fill:none" points="276.876,90.1663 285.334,311.1 293.793,465.609 302.252,597.237 310.711,719.328 319.17,836.655 327.629,951.769 336.087,1065.49 344.546,1178.18 353.005,1290.03 361.464,1401.17 369.923,1512.08 "/>
<polyline clip-path="url(#clip632)" style="stroke:#785ef0; stroke-linecap:round; stroke-linejoin:round; stroke-width:8; stroke-opacity:1; fill:none" stroke-dasharray="32, 20" points="276.876,90.1663 284.788,341.944 292.7,462.23 300.612,568.407 308.524,676.154 316.436,782.249 324.348,888.188 332.26,993.733 340.172,1099.11 348.084,1204.34 355.996,1309.48 363.908,1414.62 371.82,1520.25 "/>
<polyline clip-path="url(#clip632)" style="stroke:#fe6100; stroke-linecap:round; stroke-linejoin:round; stroke-width:8; stroke-opacity:1; fill:none" points="276.876,90.1663 329.193,285.204 381.511,308.643 433.829,452.243 486.146,585.172 538.464,697.905 590.782,818.135 643.099,818.137 695.417,936.772 747.735,1175.82 800.052,1176.07 852.37,1181.56 904.688,1181.56 957.005,1320.82 1009.32,1320.82 1061.64,1320.82 1113.96,1320.82 1166.28,1320.82 1218.59,1320.82 1270.91,1320.82 1323.23,1320.82 1375.55,1320.82 1427.86,1320.82 1480.18,1320.82 1532.5,1408.85 1584.82,1408.85 1637.13,1408.85 1689.45,1408.85 1741.77,1408.85 1794.09,1408.85 1846.41,1408.85 1898.72,1408.85 1951.04,1408.85 2003.36,1408.85 2055.68,1520.91 "/>
<polyline clip-path="url(#clip632)" style="stroke:#fe6100; stroke-linecap:round; stroke-linejoin:round; stroke-width:8; stroke-opacity:1; fill:none" stroke-dasharray="32, 20" points="276.876,90.1663 370.572,298.38 464.268,298.38 557.965,507.483 651.661,627.354 745.357,627.354 839.054,745.9 932.75,757.302 1026.45,898.21 1120.14,898.31 1213.84,1006.47 1307.54,1112.61 1401.23,1217 1494.93,1217 1588.62,1217 1682.32,1217 1776.02,1462.35 "/>
<polyline clip-path="url(#clip632)" style="stroke:#ffb000; stroke-linecap:round; stroke-linejoin:round; stroke-width:8; stroke-opacity:1; fill:none" points="276.876,90.1663 280.906,208.604 284.937,208.604 288.968,349.219 292.999,349.219 297.03,549.399 301.061,549.399 305.091,549.399 309.122,549.399 313.153,549.555 317.184,549.555 321.215,617.988 325.246,617.988 329.276,617.988 333.307,617.988 337.338,654.028 341.369,654.028 345.4,654.028 349.431,654.028 353.461,654.028 357.492,654.028 361.523,704.327 365.554,704.327 369.585,704.327 373.616,704.327 377.646,704.327 381.677,704.327 385.708,704.327 389.739,704.327 393.77,717.886 397.801,717.886 401.831,717.886 405.862,717.886 409.893,717.886 413.924,717.886 417.955,717.886 421.986,717.886 426.016,717.886 430.047,717.886 434.078,718.544 438.109,718.544 442.14,718.544 446.171,718.544 450.201,718.544 454.232,718.544 458.263,718.544 462.294,718.544 466.325,718.544 470.356,718.544 474.386,725.258 478.417,725.258 482.448,732.518 486.479,732.518 490.51,732.518 494.541,732.518 498.571,732.518 502.602,732.518 506.633,732.518 510.664,732.518 514.695,732.518 518.726,732.518 522.756,737.979 526.787,737.979 530.818,747.882 534.849,747.882 538.88,750.907 542.911,750.907 546.942,750.907 550.972,750.907 555.003,750.907 559.034,750.907 563.065,750.907 567.096,750.907 571.127,750.907 575.157,750.907 579.188,755.438 583.219,755.438 587.25,763.361 591.281,763.361 595.312,768.672 599.342,768.672 603.373,769.321 607.404,769.321 611.435,769.321 615.466,769.321 619.497,769.321 623.527,769.321 627.558,769.321 631.589,769.321 635.62,769.321 639.651,769.321 643.682,774.207 647.712,774.207 651.743,780.168 655.774,780.168 659.805,784.975 663.836,784.975 667.867,787.303 671.897,787.303 675.928,787.303 679.959,787.303 683.99,787.303 688.021,787.303 692.052,787.303 696.082,787.303 700.113,787.303 704.144,787.303 708.175,788.42 712.206,788.42 716.237,792.683 720.267,792.683 724.298,797.205 728.329,797.205 732.36,801.09 736.391,801.09 740.422,803.518 744.452,803.518 748.483,804.111 752.514,804.111 756.545,804.111 760.576,804.111 764.607,804.111 768.637,804.111 772.668,804.111 776.699,804.111 780.73,804.173 784.761,804.173 788.792,806.882 792.822,806.882 796.853,810.273 800.884,810.273 804.915,813.774 808.946,813.774 812.977,816.816 817.007,816.816 821.038,818.894 825.069,818.894 829.1,819.759 833.131,819.759 837.162,819.759 841.193,819.759 845.223,819.759 849.254,819.759 853.285,819.759 857.316,819.759 861.347,819.887 865.378,819.887 869.408,821.614 873.439,821.614 877.47,824.038 881.501,824.038 885.532,826.812 889.563,826.812 893.593,829.558 897.624,829.558 901.655,831.905 905.686,831.905 909.717,833.551 913.748,833.551 917.778,834.361 921.809,834.361 925.84,834.477 929.871,834.477 933.902,834.477 937.933,834.477 941.963,834.477 945.994,834.477 950.025,834.862 954.056,834.862 958.087,836.073 962.118,836.073 966.148,837.855 970.179,837.855 974.21,840.011 978.241,840.011 982.272,842.292 986.303,842.292 990.333,844.443 994.364,844.443 998.395,846.223 1002.43,846.223 1006.46,847.464 1010.49,847.464 1014.52,848.119 1018.55,848.119 1022.58,848.314 1026.61,848.314 1030.64,848.318 1034.67,848.318 1038.7,848.45 1042.73,848.45 1046.77,848.947 1050.8,848.947 1054.83,849.91 1058.86,849.91 1062.89,851.309 1066.92,851.309 1070.95,853.027 1074.98,853.027 1079.01,854.9 1083.04,854.9 1087.07,856.751 1091.1,856.751 1095.14,858.407 1099.17,858.407 1103.2,859.725 1107.23,859.725 1111.26,860.623 1115.29,860.623 1119.32,861.116 1123.35,861.116 1127.38,861.323 1131.41,861.323 1135.44,861.442 1139.47,861.442 1143.51,861.681 1147.54,861.681 1151.57,862.194 1155.6,862.194 1159.63,863.046 1163.66,863.046 1167.69,864.223 1171.72,864.223 1175.75,865.647 1179.78,865.647 1183.81,867.207 1187.84,867.207 1191.88,868.779 1195.91,868.779 1199.94,870.238 1203.97,870.238 1208,871.476 1212.03,871.476 1216.06,872.419 1220.09,872.419 1224.12,873.047 1228.15,873.047 1232.18,873.412 1236.21,873.412 1240.25,873.623 1244.28,873.623 1248.31,873.826 1252.34,873.826 1256.37,874.155 1260.4,874.155 1264.43,874.706 1268.46,874.706 1272.49,875.511 1276.52,875.511 1280.55,876.554 1284.58,876.554 1288.62,877.779 1292.65,877.779 1296.68,879.107 1300.71,879.107 1304.74,880.446 1308.77,880.446 1312.8,881.708 1316.83,881.708 1320.86,882.812 1324.89,882.812 1328.92,883.701 1332.95,883.701 1336.99,884.353 1341.02,884.353 1345.05,884.789 1349.08,884.789 1353.11,885.074 1357.14,885.074 1361.17,885.304 1365.2,885.304 1369.23,885.581 1373.26,885.581 1377.29,885.99 1381.32,885.99 1385.36,886.58 1389.39,886.58 1393.42,887.363 1397.45,887.363 1401.48,888.319 1405.51,888.319 1409.54,889.401 1413.57,889.401 1417.6,890.55 1421.63,890.55 1425.66,891.699 1429.69,891.699 1433.73,892.782 1437.76,892.782 1441.79,893.743 1445.82,893.743 1449.85,894.54 1453.88,894.54 1457.91,895.155 1461.94,895.155 1465.97,895.601 1470,895.601 1474.03,895.92 1478.06,895.92 1482.1,896.177 1486.13,896.177 1490.16,896.447 1494.19,896.447 1498.22,896.796 1502.25,896.796 1506.28,897.272 1510.31,897.272 1514.34,897.895 1518.37,897.895 1522.4,898.664 1526.43,898.664 1530.47,899.552 1534.5,899.552 1538.53,900.522 1542.56,900.522 1546.59,901.526 1550.62,901.526 1554.65,902.515 1558.68,902.515 1562.71,903.442 1566.74,903.442 1570.77,904.265 1574.8,904.265 1578.84,904.958 1582.87,904.958 1586.9,905.509 1590.93,905.509 1594.96,905.93 1598.99,905.93 1603.02,906.253 1607.05,906.253 1611.08,906.523 1615.11,906.523 1619.14,906.795 1623.17,906.795 1627.21,907.121 1631.24,907.121 1635.27,907.538 1639.3,907.538 1643.33,908.068 1647.36,908.068 1651.39,908.713 1655.42,908.713 1659.45,909.462 1663.48,909.462 1667.51,910.288 1671.54,910.288 1675.58,911.16 1679.61,911.16 1683.64,912.039 1687.67,912.039 1691.7,912.89 1695.73,912.89 1699.76,913.677 1703.79,913.677 1707.82,914.374 1711.85,914.374 1715.88,914.965 1719.91,914.965 1723.95,915.444 1727.98,915.444 1732.01,915.826 1736.04,915.826 1740.07,916.134 1744.1,916.134 1748.13,916.405 1752.16,916.405 1756.19,916.68 1760.22,916.68 1764.25,916.997 1768.28,916.997 1772.32,917.384 1776.35,917.384 1780.38,917.858 1784.41,917.858 1788.44,918.425 1792.47,918.425 1796.5,919.077 1800.53,919.077 1804.56,919.795 1808.59,919.795 1812.62,920.558 1816.65,920.558 1820.69,921.336 1824.72,921.336 1828.75,922.102 1832.78,922.102 1836.81,922.828 1840.84,922.828 1844.87,923.492 1848.9,923.492 1852.93,924.075 1856.96,924.075 1860.99,924.57 1865.02,924.57 1869.06,924.98 1873.09,924.98 1877.12,925.318 1881.15,925.318 1885.18,925.606 1889.21,925.606 1893.24,925.873 1897.27,925.873 1901.3,926.149 1905.33,926.149 1909.36,926.463 1913.39,926.463 1917.43,926.835 1921.46,926.835 1925.49,927.277 1929.52,927.277 1933.55,927.793 1937.58,927.793 1941.61,928.376 1945.64,928.376 1949.67,929.015 1953.7,929.015 1957.73,929.691 1961.76,929.691 1965.8,930.383 1969.83,930.383 1973.86,931.069 1977.89,931.069 1981.92,931.728 1985.95,931.728 1989.98,932.341 1994.01,932.341 1998.04,932.893 2002.07,932.893 2006.1,933.376 2010.13,933.376 2014.17,933.788 2018.2,933.788 2022.23,934.136 2026.26,934.136 2030.29,934.435 2034.32,934.435 2038.35,934.704 2042.38,934.704 2046.41,934.966 2050.44,934.966 2054.47,935.244 2058.5,935.244 2062.54,935.558 2066.57,935.558 2070.6,935.922 2074.63,935.922 2078.66,936.344 2082.69,936.344 2086.72,936.826 2090.75,936.826 2094.78,937.36 2098.81,937.36 2102.84,937.939 2106.87,937.939 2110.91,938.546 2114.94,938.546 2118.97,939.166 2123,939.166 2127.03,939.781 2131.06,939.781 2135.09,940.375 2139.12,940.375 2143.15,940.933 2147.18,940.933 2151.21,941.442 2155.24,941.442 2159.28,941.896 2163.31,941.896 2167.34,942.293 2171.37,942.293 2175.4,942.635 2179.43,942.635 2183.46,942.933 2187.49,942.933 2191.52,943.201 2195.55,943.201 2199.58,943.456 2203.61,943.456 2207.65,943.716 2211.68,943.716 2215.71,943.998 2219.74,943.998 2223.77,944.314 2227.8,944.314 2231.83,944.675 2235.86,944.675 2239.89,945.085 2243.92,945.085 2247.95,945.541 2251.99,945.541 2256.02,946.039 2260.05,946.039 2264.08,946.57 2268.11,946.57 2272.14,947.121 2276.17,947.121 2280.2,947.68 2284.23,947.68 2288.26,948.232 2292.29,948.232 "/>
<polyline clip-path="url(#clip632)" style="stroke:#ffb000; stroke-linecap:round; stroke-linejoin:round; stroke-width:8; stroke-opacity:1; fill:none" stroke-dasharray="32, 20" points="276.876,90.1663 280.791,149.489 284.707,323.593 288.622,323.593 292.538,390.474 296.453,390.474 300.369,454.2 304.284,454.2 308.2,534.238 312.115,534.238 316.031,628.56 319.946,628.56 323.862,628.56 327.778,628.56 331.693,628.56 335.609,628.56 339.524,628.56 343.44,628.56 347.355,628.56 351.271,628.56 355.186,628.56 359.102,628.56 363.017,628.56 366.933,628.56 370.849,628.56 374.764,628.56 378.68,628.56 382.595,628.56 386.511,628.56 390.426,628.56 394.342,628.56 398.257,628.56 402.173,628.56 406.088,628.56 410.004,628.56 413.92,628.56 417.835,629.843 421.751,629.843 425.666,632.292 429.582,632.292 433.497,634.549 437.413,634.549 441.328,636.636 445.244,636.636 449.159,638.577 453.075,638.577 456.991,640.389 460.906,640.389 464.822,642.086 468.737,642.086 472.653,643.682 476.568,643.682 480.484,645.187 484.399,645.187 488.315,646.609 492.23,646.609 496.146,647.958 500.062,647.958 503.977,649.241 507.893,649.241 511.808,650.462 515.724,650.462 519.639,651.628 523.555,651.628 527.47,652.744 531.386,652.744 535.301,653.814 539.217,653.814 543.132,654.841 547.048,654.841 550.964,655.829 554.879,655.829 558.795,656.782 562.71,656.782 566.626,657.701 570.541,657.701 574.457,658.589 578.372,658.589 582.288,659.448 586.203,659.448 590.119,660.281 594.035,660.281 597.95,661.089 601.866,661.089 605.781,661.874 609.697,661.874 613.612,662.637 617.528,662.637 621.443,663.38 625.359,663.38 629.274,664.104 633.19,664.104 637.106,664.81 641.021,664.81 644.937,665.499 648.852,665.499 652.768,666.172 656.683,666.172 660.599,666.83 664.514,666.83 668.43,667.473 672.345,667.473 676.261,668.104 680.177,668.104 684.092,668.721 688.008,668.721 691.923,669.326 695.839,669.326 699.754,669.92 703.67,669.92 707.585,670.503 711.501,670.503 715.416,671.075 719.332,671.075 723.248,671.638 727.163,671.638 731.079,672.191 734.994,672.191 738.91,672.734 742.825,672.734 746.741,673.269 750.656,673.269 754.572,673.796 758.487,673.796 762.403,674.314 766.318,674.314 770.234,674.825 774.15,674.825 778.065,675.329 781.981,675.329 785.896,675.825 789.812,675.825 793.727,676.315 797.643,676.315 801.558,676.798 805.474,676.798 809.389,677.275 813.305,677.275 817.221,677.746 821.136,677.746 825.052,678.21 828.967,678.21 832.883,678.669 836.798,678.669 840.714,679.123 844.629,679.123 848.545,679.571 852.46,679.571 856.376,680.014 860.292,680.014 864.207,680.452 868.123,680.452 872.038,680.885 875.954,680.885 879.869,681.314 883.785,681.314 887.7,681.738 891.616,681.738 895.531,682.157 899.447,682.157 903.363,682.573 907.278,682.573 911.194,682.984 915.109,682.984 919.025,683.391 922.94,683.391 926.856,683.794 930.771,683.794 934.687,684.193 938.602,684.193 942.518,684.589 946.433,684.589 950.349,684.98 954.265,684.98 958.18,685.369 962.096,685.369 966.011,685.753 969.927,685.753 973.842,686.135 977.758,686.135 981.673,686.513 985.589,686.513 989.504,686.888 993.42,686.888 997.336,687.26 1001.25,687.26 1005.17,687.628 1009.08,687.628 1013,687.994 1016.91,687.994 1020.83,688.357 1024.74,688.357 1028.66,688.717 1032.58,688.717 1036.49,689.074 1040.41,689.074 1044.32,689.428 1048.24,689.428 1052.15,689.78 1056.07,689.78 1059.98,690.129 1063.9,690.129 1067.82,690.475 1071.73,690.475 1075.65,690.819 1079.56,690.819 1083.48,691.16 1087.39,691.16 1091.31,691.499 1095.22,691.499 1099.14,691.836 1103.06,691.836 1106.97,692.17 1110.89,692.17 1114.8,692.502 1118.72,692.502 1122.63,692.831 1126.55,692.831 1130.46,693.159 1134.38,693.159 1138.3,693.484 1142.21,693.484 1146.13,693.807 1150.04,693.807 1153.96,694.128 1157.87,694.128 1161.79,694.447 1165.7,694.447 1169.62,694.763 1173.54,694.763 1177.45,695.078 1181.37,695.078 1185.28,695.391 1189.2,695.391 1193.11,695.702 1197.03,695.702 1200.94,696.011 1204.86,696.011 1208.77,696.318 1212.69,696.318 1216.61,696.623 1220.52,696.623 1224.44,696.926 1228.35,696.926 1232.27,697.228 1236.18,697.228 1240.1,697.528 1244.01,697.528 1247.93,697.826 1251.85,697.826 1255.76,698.122 1259.68,698.122 1263.59,698.417 1267.51,698.417 1271.42,698.71 1275.34,698.71 1279.25,699.001 1283.17,699.001 1287.09,699.291 1291,699.291 1294.92,699.579 1298.83,699.579 1302.75,699.865 1306.66,699.865 1310.58,700.15 1314.49,700.15 1318.41,700.434 1322.33,700.434 1326.24,700.716 1330.16,700.716 1334.07,700.996 1337.99,700.996 1341.9,701.275 1345.82,701.275 1349.73,701.553 1353.65,701.553 1357.57,701.829 1361.48,701.829 1365.4,702.103 1369.31,702.103 1373.23,702.376 1377.14,702.376 1381.06,702.648 1384.97,702.648 1388.89,702.919 1392.81,702.919 1396.72,703.188 1400.64,703.188 1404.55,703.455 1408.47,703.455 1412.38,703.722 1416.3,703.722 1420.21,703.987 1424.13,703.987 1428.05,704.251 1431.96,704.251 1435.88,704.513 1439.79,704.513 1443.71,704.774 1447.62,704.774 1451.54,705.034 1455.45,705.034 1459.37,705.293 1463.29,705.293 1467.2,705.551 1471.12,705.551 1475.03,705.807 1478.95,705.807 1482.86,706.062 1486.78,706.062 1490.69,706.316 1494.61,706.316 1498.53,706.569 1502.44,706.569 1506.36,706.821 1510.27,706.821 1514.19,707.071 1518.1,707.071 1522.02,707.321 1525.93,707.321 1529.85,707.569 1533.77,707.569 1537.68,707.816 1541.6,707.816 1545.51,708.062 1549.43,708.062 1553.34,708.307 1557.26,708.307 1561.17,708.551 1565.09,708.551 1569,708.794 1572.92,708.794 1576.84,709.035 1580.75,709.035 1584.67,709.276 1588.58,709.276 1592.5,709.516 1596.41,709.516 1600.33,709.754 1604.24,709.754 1608.16,709.992 1612.08,709.992 1615.99,710.229 1619.91,710.229 1623.82,710.464 1627.74,710.464 1631.65,710.699 1635.57,710.699 1639.48,710.933 1643.4,710.933 1647.32,711.165 1651.23,711.165 1655.15,711.397 1659.06,711.397 1662.98,711.628 1666.89,712.131 1670.81,712.131 1674.72,713.035 1678.64,713.035 1682.56,713.936 1686.47,713.936 1690.39,714.833 1694.3,714.833 1698.22,715.728 1702.13,715.728 1706.05,716.62 1709.96,716.62 1713.88,717.508 1717.8,717.508 1721.71,718.394 1725.63,718.394 1729.54,719.276 1733.46,719.276 1737.37,720.156 1741.29,720.156 1745.2,721.033 1749.12,721.033 1753.04,721.907 1756.95,721.907 1760.87,722.779 1764.78,722.779 1768.7,723.648 1772.61,723.648 1776.53,724.514 1780.44,724.514 1784.36,725.377 1788.28,725.377 1792.19,726.238 1796.11,726.238 1800.02,727.096 1803.94,727.096 1807.85,727.951 1811.77,727.951 1815.68,728.804 1819.6,728.804 1823.52,729.654 1827.43,729.654 1831.35,730.502 1835.26,730.502 1839.18,731.348 1843.09,731.348 1847.01,732.191 1850.92,732.191 1854.84,733.032 1858.76,733.032 1862.67,733.87 1866.59,733.87 1870.5,734.706 1874.42,734.706 1878.33,735.54 1882.25,735.54 1886.16,736.371 1890.08,736.371 1894,737.2 1897.91,737.2 1901.83,738.027 1905.74,738.027 1909.66,738.852 1913.57,738.852 1917.49,739.674 1921.4,739.674 1925.32,740.495 1929.23,740.495 1933.15,741.313 1937.07,741.313 1940.98,742.129 1944.9,742.129 1948.81,742.944 1952.73,742.944 1956.64,743.756 1960.56,743.756 1964.47,744.566 1968.39,744.566 1972.31,745.374 1976.22,745.374 1980.14,746.18 1984.05,746.18 1987.97,746.984 1991.88,746.984 1995.8,747.786 1999.71,747.786 2003.63,748.587 2007.55,748.587 2011.46,749.385 2015.38,749.385 2019.29,750.182 2023.21,750.182 2027.12,750.977 2031.04,750.977 2034.95,751.77 2038.87,751.77 2042.79,752.561 2046.7,752.561 2050.62,753.35 2054.53,753.35 2058.45,754.138 2062.36,754.138 2066.28,754.924 2070.19,754.924 2074.11,755.708 2078.03,755.708 2081.94,756.491 2085.86,756.491 2089.77,757.272 2093.69,757.272 2097.6,758.051 2101.52,758.051 2105.43,758.829 2109.35,758.829 2113.27,759.605 2117.18,759.605 2121.1,760.38 2125.01,760.38 2128.93,761.152 2132.84,761.152 2136.76,761.924 2140.67,761.924 2144.59,762.694 2148.51,762.694 2152.42,763.462 2156.34,763.462 2160.25,764.229 2164.17,764.229 2168.08,764.995 2172,764.995 2175.91,765.759 2179.83,765.759 2183.75,766.521 2187.66,766.521 2191.58,767.282 2195.49,767.282 2199.41,768.042 2203.32,768.042 2207.24,768.801 2211.15,768.801 2215.07,769.558 2218.99,769.558 2222.9,770.313 2226.82,770.313 2230.73,771.068 2234.65,771.068 "/>
<path clip-path="url(#clip630)" d="M1827.66 300.469 L2283.56 300.469 L2283.56 93.1086 L1827.66 93.1086  Z" fill="#000000" fill-rule="evenodd" fill-opacity="0"/>
<polyline clip-path="url(#clip630)" style="stroke:#000000; stroke-linecap:round; stroke-linejoin:round; stroke-width:4; stroke-opacity:0; fill:none" points="1827.66,300.469 2283.56,300.469 2283.56,93.1086 1827.66,93.1086 1827.66,300.469 "/>
<polyline clip-path="url(#clip630)" style="stroke:#785ef0; stroke-linecap:round; stroke-linejoin:round; stroke-width:8; stroke-opacity:1; fill:none" points="1850.73,144.949 1989.12,144.949 "/>
<path clip-path="url(#clip630)" d="M2012.19 156.824 L2012.19 155.348 L2013.33 155.348 Q2015.93 155.348 2016.52 154.926 Q2017.13 154.481 2017.13 153.076 L2017.13 127.803 Q2017.13 126.421 2016.52 126 Q2015.91 125.555 2013.33 125.555 L2012.19 125.555 L2012.19 124.056 L2027.25 124.056 Q2032.47 124.056 2036.1 126.632 Q2039.75 129.185 2039.75 132.699 Q2039.75 135.392 2037.39 137.5 Q2035.02 139.608 2031.37 140.522 Q2036.12 142.161 2037.22 146.073 L2037.83 149.914 Q2038.02 151.296 2038.14 151.999 Q2038.28 152.701 2038.49 153.662 Q2038.7 154.622 2038.91 155.09 Q2039.15 155.535 2039.47 156.027 Q2039.8 156.496 2040.22 156.66 Q2040.67 156.824 2041.25 156.824 Q2042.35 156.824 2043.29 155.84 Q2044.23 154.856 2044.42 152.561 Q2044.51 151.788 2045 151.788 Q2045.61 151.788 2045.61 152.561 Q2045.61 153.24 2045.42 154.036 Q2045.24 154.809 2044.77 155.723 Q2044.32 156.636 2043.34 157.245 Q2042.35 157.878 2041.07 157.878 Q2037.32 157.878 2035.02 155.863 Q2034.06 154.997 2033.62 153.872 Q2033.2 152.748 2033.13 151.858 Q2033.06 150.968 2033.06 149.001 Q2033.06 146.213 2032.75 144.995 Q2032.47 143.777 2031.23 142.583 Q2029.54 140.943 2026.75 140.943 L2021.25 140.943 L2021.25 153.076 Q2021.25 154.458 2021.84 154.903 Q2022.44 155.348 2025.04 155.348 L2026.19 155.348 L2026.19 156.824 Q2024.46 156.683 2019.19 156.683 Q2013.92 156.683 2012.19 156.824 M2021.25 139.889 L2026.57 139.889 Q2029.12 139.889 2030.83 139.28 Q2032.56 138.648 2033.38 137.524 Q2034.2 136.399 2034.51 135.275 Q2034.81 134.127 2034.81 132.699 Q2034.81 131.012 2034.44 129.747 Q2034.06 128.482 2033.24 127.733 Q2032.42 126.983 2031.6 126.515 Q2030.78 126.023 2029.52 125.836 Q2028.25 125.648 2027.39 125.602 Q2026.52 125.555 2025.14 125.555 Q2022.8 125.555 2022.3 125.648 Q2021.77 125.695 2021.55 125.953 Q2021.34 126.21 2021.3 126.515 Q2021.25 126.796 2021.25 127.475 L2021.25 139.889 Z" fill="#000000" fill-rule="nonzero" fill-opacity="1" /><path clip-path="url(#clip630)" d="M2047.91 156.824 L2047.91 155.348 L2049.05 155.348 Q2051.65 155.348 2052.24 154.926 Q2052.85 154.481 2052.85 153.076 L2052.85 127.803 Q2052.85 126.421 2052.24 126 Q2051.63 125.555 2049.05 125.555 L2047.91 125.555 L2047.91 124.056 L2064.84 124.056 Q2069.69 124.056 2072.92 126.726 Q2076.15 129.396 2076.15 132.98 Q2076.15 136.54 2072.85 139.116 Q2069.57 141.669 2065.22 141.669 L2057.11 141.669 L2057.11 153.076 Q2057.11 154.458 2057.7 154.903 Q2058.31 155.348 2060.91 155.348 L2062.05 155.348 L2062.05 156.824 Q2060.37 156.683 2054.96 156.683 Q2049.59 156.683 2047.91 156.824 M2056.97 140.428 L2063.58 140.428 Q2065.73 140.428 2067.3 139.819 Q2068.87 139.21 2069.57 138.484 Q2070.3 137.734 2070.7 136.54 Q2071.12 135.322 2071.16 134.666 Q2071.21 133.987 2071.21 132.98 Q2071.21 131.926 2071.16 131.27 Q2071.12 130.59 2070.7 129.396 Q2070.3 128.178 2069.57 127.452 Q2068.87 126.702 2067.3 126.14 Q2065.75 125.555 2063.58 125.555 L2059.31 125.555 Q2057.67 125.555 2057.32 125.883 Q2056.97 126.21 2056.97 127.475 L2056.97 140.428 Z" fill="#000000" fill-rule="nonzero" fill-opacity="1" /><path clip-path="url(#clip630)" d="M2086.53 156.824 L2086.53 155.348 L2087.68 155.348 Q2090.28 155.348 2090.86 154.926 Q2091.47 154.481 2091.47 153.076 L2091.47 127.803 Q2091.47 126.421 2090.86 126 Q2090.25 125.555 2087.68 125.555 L2086.53 125.555 L2086.53 124.056 L2104.07 124.056 Q2108.64 124.056 2111.68 126.515 Q2114.73 128.951 2114.73 132.16 Q2114.73 134.807 2112.48 136.915 Q2110.25 139.023 2106.76 139.702 Q2110.75 140.123 2113.37 142.536 Q2116.02 144.925 2116.02 148.04 Q2116.02 151.554 2112.99 154.2 Q2109.97 156.824 2105.34 156.824 L2086.53 156.824 M2095.45 153.427 Q2095.45 154.669 2095.8 155.02 Q2096.15 155.348 2097.79 155.348 L2103.79 155.348 Q2107.23 155.348 2109.22 153.099 Q2111.21 150.827 2111.21 147.993 Q2111.21 145.159 2109.46 142.747 Q2107.72 140.311 2104.47 140.311 L2095.45 140.311 L2095.45 153.427 M2095.45 139.257 L2102.41 139.257 Q2106.11 139.257 2108.08 137.032 Q2110.07 134.807 2110.07 132.16 Q2110.07 129.818 2108.47 127.686 Q2106.91 125.555 2103.74 125.555 L2097.79 125.555 Q2096.15 125.555 2095.8 125.883 Q2095.45 126.21 2095.45 127.475 L2095.45 139.257 Z" fill="#000000" fill-rule="nonzero" fill-opacity="1" /><path clip-path="url(#clip630)" d="M2125.51 144.831 Q2125.51 136.727 2128.53 130.192 Q2129.82 127.452 2131.62 125.156 Q2133.43 122.861 2134.62 121.854 Q2135.82 120.847 2136.14 120.847 Q2136.61 120.847 2136.64 121.315 Q2136.64 121.549 2136 122.135 Q2128.27 130.005 2128.3 144.831 Q2128.3 159.705 2135.82 167.27 Q2136.64 168.09 2136.64 168.347 Q2136.64 168.816 2136.14 168.816 Q2135.82 168.816 2134.67 167.856 Q2133.52 166.895 2131.74 164.694 Q2129.96 162.492 2128.67 159.798 Q2125.51 153.263 2125.51 144.831 Z" fill="#000000" fill-rule="nonzero" fill-opacity="1" /><path clip-path="url(#clip630)" d="M2141.24 140.568 Q2141.24 133.237 2145.92 128.131 Q2150.63 123.002 2157.17 123.002 Q2163.75 123.002 2168.43 128.131 Q2173.14 133.261 2173.14 140.568 Q2173.14 147.806 2168.43 152.842 Q2163.72 157.878 2157.17 157.878 Q2150.7 157.878 2145.97 152.865 Q2141.24 147.853 2141.24 140.568 M2146.18 139.889 Q2146.18 144.339 2147.23 147.759 Q2148.29 151.155 2149.97 153.006 Q2151.68 154.856 2153.51 155.746 Q2155.34 156.636 2157.21 156.636 Q2159.04 156.636 2160.82 155.77 Q2162.62 154.903 2164.33 153.076 Q2166.04 151.249 2167.12 147.829 Q2168.2 144.41 2168.2 139.889 Q2168.2 136.376 2167.45 133.565 Q2166.7 130.731 2165.53 129.021 Q2164.36 127.311 2162.83 126.187 Q2161.33 125.063 2159.91 124.641 Q2158.5 124.196 2157.17 124.196 Q2155.48 124.196 2153.72 124.946 Q2151.97 125.695 2150.19 127.358 Q2148.43 128.998 2147.3 132.253 Q2146.18 135.486 2146.18 139.889 Z" fill="#000000" fill-rule="nonzero" fill-opacity="1" /><path clip-path="url(#clip630)" d="M2177.75 137.641 L2177.75 136.142 L2184.8 135.626 L2184.8 151.554 Q2184.8 152.701 2184.9 153.381 Q2184.99 154.036 2185.37 154.809 Q2185.77 155.582 2186.66 155.934 Q2187.57 156.285 2189.02 156.285 Q2191.62 156.285 2193.21 154.153 Q2194.83 152.022 2194.83 148.86 L2194.83 140.311 Q2194.83 138.531 2194.2 138.086 Q2193.56 137.641 2191.08 137.641 L2191.08 136.142 L2198.13 135.626 L2198.13 152.654 Q2198.13 154.435 2198.74 154.903 Q2199.37 155.348 2201.88 155.348 L2201.88 156.824 L2194.97 157.362 L2194.97 153.029 Q2192.96 157.339 2188.79 157.362 Q2186.68 157.362 2185.23 156.824 Q2183.8 156.285 2183.07 155.629 Q2182.35 154.95 2181.95 153.662 Q2181.57 152.373 2181.53 151.577 Q2181.48 150.781 2181.48 149.235 L2181.48 142.044 Q2181.48 138.788 2181.01 138.226 Q2180.54 137.641 2177.75 137.641 Z" fill="#000000" fill-rule="nonzero" fill-opacity="1" /><path clip-path="url(#clip630)" d="M2203.53 156.824 L2203.53 155.348 Q2206.08 155.348 2206.67 155.044 Q2207.27 154.716 2207.27 153.17 L2207.27 140.311 Q2207.27 138.531 2206.64 138.086 Q2206.03 137.641 2203.53 137.641 L2203.53 136.142 L2210.2 135.626 L2210.2 140.896 Q2210.88 138.835 2212.31 137.242 Q2213.76 135.626 2216.1 135.626 Q2217.65 135.626 2218.63 136.493 Q2219.64 137.36 2219.64 138.554 Q2219.64 139.608 2218.99 140.147 Q2218.35 140.662 2217.58 140.662 Q2216.71 140.662 2216.1 140.123 Q2215.52 139.561 2215.52 138.601 Q2215.52 138.015 2215.78 137.57 Q2216.06 137.102 2216.27 136.938 Q2216.48 136.774 2216.62 136.727 Q2216.53 136.68 2216.1 136.68 Q2213.46 136.68 2211.94 139.327 Q2210.44 141.95 2210.44 145.698 L2210.44 153.076 Q2210.44 154.458 2211 154.903 Q2211.58 155.348 2214.09 155.348 L2215.1 155.348 L2215.1 156.824 Q2213.18 156.683 2209.01 156.683 Q2208.42 156.683 2207.51 156.707 Q2206.59 156.73 2205.4 156.777 Q2204.21 156.824 2203.53 156.824 Z" fill="#000000" fill-rule="nonzero" fill-opacity="1" /><path clip-path="url(#clip630)" d="M2222.62 156.191 L2222.62 149.867 Q2222.62 149.328 2222.64 149.141 Q2222.66 148.954 2222.8 148.813 Q2222.95 148.673 2223.23 148.673 Q2223.55 148.673 2223.67 148.813 Q2223.81 148.954 2223.91 149.492 Q2224.63 152.795 2226.18 154.552 Q2227.75 156.285 2230.58 156.285 Q2233.27 156.285 2234.63 155.09 Q2235.99 153.896 2235.99 151.928 Q2235.99 148.415 2231 147.525 Q2228.12 146.939 2226.93 146.565 Q2225.73 146.166 2224.68 145.3 Q2222.62 143.613 2222.62 141.224 Q2222.62 138.835 2224.42 137.078 Q2226.25 135.322 2230.28 135.322 Q2232.97 135.322 2234.8 136.68 Q2235.34 136.259 2235.62 135.907 Q2236.25 135.322 2236.58 135.322 Q2236.95 135.322 2237.02 135.579 Q2237.09 135.814 2237.09 136.493 L2237.09 141.318 Q2237.09 141.857 2237.07 142.044 Q2237.05 142.231 2236.9 142.372 Q2236.76 142.489 2236.46 142.489 Q2235.92 142.489 2235.9 142.044 Q2235.52 136.235 2230.28 136.235 Q2227.44 136.235 2226.18 137.336 Q2224.91 138.414 2224.91 139.889 Q2224.91 140.709 2225.29 141.341 Q2225.69 141.95 2226.18 142.325 Q2226.69 142.676 2227.63 143.028 Q2228.57 143.356 2229.13 143.473 Q2229.71 143.59 2230.82 143.824 Q2234.66 144.55 2236.27 146.12 Q2238.29 148.134 2238.29 150.687 Q2238.29 153.521 2236.37 155.442 Q2234.45 157.362 2230.58 157.362 Q2227.47 157.362 2225.29 155.278 Q2225.01 155.559 2224.8 155.816 Q2224.58 156.051 2224.49 156.144 Q2224.42 156.238 2224.4 156.308 Q2224.37 156.355 2224.33 156.402 Q2223.37 157.362 2223.13 157.362 Q2222.76 157.362 2222.69 157.105 Q2222.62 156.87 2222.62 156.191 Z" fill="#000000" fill-rule="nonzero" fill-opacity="1" /><path clip-path="url(#clip630)" d="M2242.08 168.347 Q2242.08 168.113 2242.69 167.528 Q2250.42 159.658 2250.42 144.831 Q2250.42 129.958 2242.99 122.439 Q2242.08 121.573 2242.08 121.315 Q2242.08 120.847 2242.55 120.847 Q2242.88 120.847 2244.02 121.807 Q2245.19 122.767 2246.95 124.969 Q2248.73 127.171 2250.04 129.864 Q2253.2 136.399 2253.2 144.831 Q2253.2 152.935 2250.18 159.47 Q2248.89 162.211 2247.09 164.506 Q2245.29 166.802 2244.09 167.809 Q2242.9 168.816 2242.55 168.816 Q2242.08 168.816 2242.08 168.347 Z" fill="#000000" fill-rule="nonzero" fill-opacity="1" /><polyline clip-path="url(#clip630)" style="stroke:#fe6100; stroke-linecap:round; stroke-linejoin:round; stroke-width:8; stroke-opacity:1; fill:none" points="1850.73,196.789 1989.12,196.789 "/>
<path clip-path="url(#clip630)" d="M2012.19 213.007 L2012.19 211.532 L2013.33 211.532 Q2015.93 211.532 2016.52 211.11 Q2017.13 210.665 2017.13 209.26 L2017.13 183.987 Q2017.13 182.605 2016.52 182.183 Q2015.91 181.738 2013.33 181.738 L2012.19 181.738 L2012.19 180.239 L2027.25 180.239 Q2032.47 180.239 2036.1 182.816 Q2039.75 185.369 2039.75 188.882 Q2039.75 191.576 2037.39 193.684 Q2035.02 195.792 2031.37 196.705 Q2036.12 198.345 2037.22 202.256 L2037.83 206.098 Q2038.02 207.48 2038.14 208.182 Q2038.28 208.885 2038.49 209.845 Q2038.7 210.806 2038.91 211.274 Q2039.15 211.719 2039.47 212.211 Q2039.8 212.679 2040.22 212.843 Q2040.67 213.007 2041.25 213.007 Q2042.35 213.007 2043.29 212.024 Q2044.23 211.04 2044.42 208.744 Q2044.51 207.972 2045 207.972 Q2045.61 207.972 2045.61 208.744 Q2045.61 209.424 2045.42 210.22 Q2045.24 210.993 2044.77 211.907 Q2044.32 212.82 2043.34 213.429 Q2042.35 214.061 2041.07 214.061 Q2037.32 214.061 2035.02 212.047 Q2034.06 211.18 2033.62 210.056 Q2033.2 208.932 2033.13 208.042 Q2033.06 207.152 2033.06 205.184 Q2033.06 202.397 2032.75 201.179 Q2032.47 199.961 2031.23 198.767 Q2029.54 197.127 2026.75 197.127 L2021.25 197.127 L2021.25 209.26 Q2021.25 210.642 2021.84 211.087 Q2022.44 211.532 2025.04 211.532 L2026.19 211.532 L2026.19 213.007 Q2024.46 212.867 2019.19 212.867 Q2013.92 212.867 2012.19 213.007 M2021.25 196.073 L2026.57 196.073 Q2029.12 196.073 2030.83 195.464 Q2032.56 194.832 2033.38 193.707 Q2034.2 192.583 2034.51 191.459 Q2034.81 190.311 2034.81 188.882 Q2034.81 187.196 2034.44 185.931 Q2034.06 184.666 2033.24 183.917 Q2032.42 183.167 2031.6 182.699 Q2030.78 182.207 2029.52 182.019 Q2028.25 181.832 2027.39 181.785 Q2026.52 181.738 2025.14 181.738 Q2022.8 181.738 2022.3 181.832 Q2021.77 181.879 2021.55 182.137 Q2021.34 182.394 2021.3 182.699 Q2021.25 182.98 2021.25 183.659 L2021.25 196.073 Z" fill="#000000" fill-rule="nonzero" fill-opacity="1" /><path clip-path="url(#clip630)" d="M2045.82 196.612 Q2045.82 189.374 2050.76 184.291 Q2055.71 179.185 2062.5 179.185 Q2064.61 179.185 2066.48 179.958 Q2068.35 180.731 2069.22 181.41 Q2070.09 182.066 2071.33 183.308 L2073.74 179.771 Q2074.12 179.185 2074.49 179.185 Q2074.89 179.185 2074.96 179.42 Q2075.03 179.63 2075.03 180.333 L2075.03 191.716 Q2075.03 192.489 2074.94 192.677 Q2074.84 192.864 2074.26 192.864 Q2073.79 192.864 2073.67 192.724 Q2073.58 192.583 2073.48 192.044 Q2072.76 186.868 2069.88 183.776 Q2067.02 180.684 2063.04 180.684 Q2061.89 180.684 2060.6 180.942 Q2059.34 181.2 2057.49 182.183 Q2055.66 183.167 2054.23 184.807 Q2052.82 186.423 2051.79 189.515 Q2050.76 192.583 2050.76 196.659 Q2050.76 200.687 2051.79 203.779 Q2052.82 206.871 2054.23 208.487 Q2055.66 210.08 2057.49 211.063 Q2059.34 212.047 2060.62 212.328 Q2061.94 212.586 2063.08 212.586 Q2067.21 212.586 2070.37 209.658 Q2073.53 206.73 2073.83 201.788 Q2073.88 201.554 2073.88 201.46 Q2073.88 201.343 2073.93 201.226 Q2073.98 201.109 2074.09 201.062 Q2074.21 201.015 2074.4 201.015 Q2075.03 201.015 2075.03 201.835 Q2075.03 206.402 2071.52 210.244 Q2068.03 214.061 2062.5 214.061 Q2055.68 214.061 2050.74 209.002 Q2045.82 203.943 2045.82 196.612 Z" fill="#000000" fill-rule="nonzero" fill-opacity="1" /><path clip-path="url(#clip630)" d="M2082.98 213.007 L2082.98 211.532 L2084.13 211.532 Q2086.73 211.532 2087.31 211.11 Q2087.92 210.665 2087.92 209.26 L2087.92 183.987 Q2087.92 182.605 2087.31 182.183 Q2086.71 181.738 2084.13 181.738 L2082.98 181.738 L2082.98 180.239 L2100.52 180.239 Q2105.09 180.239 2108.14 182.699 Q2111.18 185.135 2111.18 188.344 Q2111.18 190.99 2108.93 193.098 Q2106.71 195.206 2103.22 195.886 Q2107.2 196.307 2109.82 198.72 Q2112.47 201.109 2112.47 204.224 Q2112.47 207.737 2109.45 210.384 Q2106.43 213.007 2101.79 213.007 L2082.98 213.007 M2091.91 209.611 Q2091.91 210.853 2092.26 211.204 Q2092.61 211.532 2094.25 211.532 L2100.24 211.532 Q2103.69 211.532 2105.68 209.283 Q2107.67 207.011 2107.67 204.177 Q2107.67 201.343 2105.91 198.93 Q2104.18 196.495 2100.92 196.495 L2091.91 196.495 L2091.91 209.611 M2091.91 195.441 L2098.86 195.441 Q2102.56 195.441 2104.53 193.215 Q2106.52 190.99 2106.52 188.344 Q2106.52 186.001 2104.93 183.87 Q2103.36 181.738 2100.2 181.738 L2094.25 181.738 Q2092.61 181.738 2092.26 182.066 Q2091.91 182.394 2091.91 183.659 L2091.91 195.441 Z" fill="#000000" fill-rule="nonzero" fill-opacity="1" /><path clip-path="url(#clip630)" d="M2118.32 213.007 L2118.32 211.532 Q2120.05 211.532 2121.15 211.204 Q2122.25 210.853 2122.65 210.22 Q2123.07 209.564 2123.16 209.143 Q2123.26 208.698 2123.26 207.972 L2123.26 183.987 Q2123.26 182.605 2122.65 182.183 Q2122.06 181.738 2119.46 181.738 L2118.32 181.738 L2118.32 180.239 L2126.42 180.239 Q2127.29 180.239 2127.52 180.403 Q2127.76 180.544 2128.11 181.293 L2138.51 208.159 L2149 181.153 Q2149.23 180.474 2149.44 180.356 Q2149.68 180.239 2150.59 180.239 L2158.7 180.239 L2158.7 181.738 L2157.55 181.738 Q2154.95 181.738 2154.34 182.183 Q2153.75 182.605 2153.75 183.987 L2153.75 209.26 Q2153.75 210.642 2154.34 211.087 Q2154.95 211.532 2157.55 211.532 L2158.7 211.532 L2158.7 213.007 Q2156.92 212.867 2151.83 212.867 Q2146.7 212.867 2144.92 213.007 L2144.92 211.532 L2146.1 211.532 Q2148.7 211.532 2149.28 211.11 Q2149.87 210.665 2149.87 209.26 L2149.87 181.738 L2149.82 181.738 L2138.04 212.094 Q2137.71 213.007 2137.17 213.007 Q2136.59 213.007 2136.21 211.953 L2124.64 182.113 L2124.59 182.113 L2124.59 207.972 Q2124.59 208.698 2124.69 209.143 Q2124.78 209.564 2125.18 210.22 Q2125.6 210.853 2126.7 211.204 Q2127.8 211.532 2129.54 211.532 L2129.54 213.007 Q2124.5 212.867 2123.91 212.867 Q2123.35 212.867 2118.32 213.007 Z" fill="#000000" fill-rule="nonzero" fill-opacity="1" /><polyline clip-path="url(#clip630)" style="stroke:#ffb000; stroke-linecap:round; stroke-linejoin:round; stroke-width:8; stroke-opacity:1; fill:none" points="1850.73,248.629 1989.12,248.629 "/>
<path clip-path="url(#clip630)" d="M2012.19 264.754 L2012.19 255.15 Q2012.19 254.612 2012.21 254.424 Q2012.23 254.237 2012.37 254.096 Q2012.51 253.956 2012.79 253.956 Q2013.33 253.956 2013.38 254.448 Q2013.52 259.203 2016.36 261.826 Q2019.14 264.426 2023.92 264.426 Q2026.8 264.426 2028.58 262.365 Q2030.36 260.28 2030.36 257.563 Q2030.36 254.963 2028.86 253.136 Q2028.23 252.316 2027.43 251.801 Q2026.66 251.262 2026.17 251.098 Q2025.7 250.934 2024.79 250.7 Q2018.84 249.271 2018.46 249.107 Q2015.63 248.147 2013.9 245.735 Q2012.19 243.299 2012.19 240.324 Q2012.19 236.483 2014.88 233.766 Q2017.6 231.025 2021.53 231.025 Q2023.5 231.025 2025.14 231.658 Q2026.8 232.267 2027.48 232.829 Q2028.16 233.391 2029.21 234.398 L2030.88 231.658 Q2031.25 231.025 2031.6 231.025 Q2031.98 231.025 2032.05 231.26 Q2032.14 231.47 2032.14 232.173 L2032.14 241.823 Q2032.14 242.362 2032.12 242.549 Q2032.1 242.737 2031.93 242.854 Q2031.79 242.971 2031.51 242.971 Q2031.04 242.971 2030.92 242.409 Q2029.59 232.384 2021.58 232.384 Q2018.84 232.384 2017.03 234.234 Q2015.25 236.061 2015.25 238.661 Q2015.25 240.769 2016.57 242.502 Q2017.88 244.212 2020.1 244.751 L2026.24 246.227 Q2029.31 246.953 2031.37 249.67 Q2033.43 252.387 2033.43 255.923 Q2033.43 259.999 2030.76 262.95 Q2028.11 265.901 2023.97 265.901 Q2020.99 265.901 2018.7 264.918 Q2016.4 263.934 2015.16 262.552 Q2014.2 264.145 2013.57 265.035 L2013.43 265.269 Q2013.05 265.901 2012.7 265.901 Q2012.33 265.901 2012.26 265.667 Q2012.19 265.433 2012.19 264.754 Z" fill="#000000" fill-rule="nonzero" fill-opacity="1" /><path clip-path="url(#clip630)" d="M2045.56 260.819 Q2040.65 255.736 2040.65 248.452 Q2040.65 241.144 2045.61 236.085 Q2050.58 231.025 2057.32 231.025 Q2059.01 231.025 2060.44 231.424 Q2061.89 231.798 2063.04 232.571 Q2064.19 233.321 2064.77 233.836 Q2065.38 234.328 2066.2 235.148 L2068.61 231.611 Q2068.99 231.025 2069.36 231.025 Q2069.76 231.025 2069.83 231.26 Q2069.9 231.47 2069.9 232.173 L2069.9 243.556 Q2069.9 244.329 2069.81 244.517 Q2069.71 244.704 2069.13 244.704 Q2068.66 244.704 2068.57 244.564 Q2068.47 244.423 2068.35 243.884 Q2067.63 238.708 2064.72 235.616 Q2061.84 232.524 2057.91 232.524 Q2056.76 232.524 2055.47 232.782 Q2054.21 233.04 2052.33 234.023 Q2050.48 235.007 2049.05 236.623 Q2047.65 238.216 2046.62 241.308 Q2045.59 244.376 2045.59 248.452 Q2045.59 252.48 2046.62 255.572 Q2047.65 258.664 2049.08 260.28 Q2050.53 261.873 2052.4 262.88 Q2054.3 263.887 2055.64 264.168 Q2056.99 264.426 2058.19 264.426 Q2059.01 264.426 2059.97 264.262 Q2060.93 264.074 2062.36 263.559 Q2063.81 263.02 2064.72 261.756 Q2065.64 260.491 2065.64 258.617 L2065.64 255.549 Q2065.64 254.12 2064.93 253.675 Q2064.23 253.23 2061.16 253.23 L2059.64 253.23 L2059.64 251.754 Q2061.37 251.895 2067.35 251.895 Q2067.89 251.895 2073.2 251.754 L2073.2 253.23 Q2070.91 253.23 2070.39 253.581 Q2069.9 253.909 2069.9 255.338 L2069.9 263.7 Q2069.9 264.801 2069.48 264.801 Q2069.1 264.801 2067.98 263.723 Q2066.88 262.646 2066.39 261.826 Q2065.24 263.84 2062.73 264.871 Q2060.25 265.901 2057.42 265.901 Q2050.51 265.901 2045.56 260.819 Z" fill="#000000" fill-rule="nonzero" fill-opacity="1" /><path clip-path="url(#clip630)" d="M2077.49 264.847 L2077.49 263.372 Q2079.22 263.372 2080.32 263.044 Q2081.42 262.693 2081.82 262.06 Q2082.24 261.404 2082.34 260.983 Q2082.43 260.538 2082.43 259.812 L2082.43 235.827 Q2082.43 234.445 2081.82 234.023 Q2081.23 233.578 2078.63 233.578 L2077.49 233.578 L2077.49 232.079 L2085.59 232.079 Q2086.46 232.079 2086.69 232.243 Q2086.93 232.384 2087.28 233.133 L2097.68 259.999 L2108.17 232.993 Q2108.4 232.314 2108.62 232.196 Q2108.85 232.079 2109.76 232.079 L2117.87 232.079 L2117.87 233.578 L2116.72 233.578 Q2114.12 233.578 2113.51 234.023 Q2112.93 234.445 2112.93 235.827 L2112.93 261.1 Q2112.93 262.482 2113.51 262.927 Q2114.12 263.372 2116.72 263.372 L2117.87 263.372 L2117.87 264.847 Q2116.09 264.707 2111 264.707 Q2105.87 264.707 2104.09 264.847 L2104.09 263.372 L2105.27 263.372 Q2107.87 263.372 2108.45 262.95 Q2109.04 262.505 2109.04 261.1 L2109.04 233.578 L2108.99 233.578 L2097.21 263.934 Q2096.88 264.847 2096.34 264.847 Q2095.76 264.847 2095.38 263.793 L2083.81 233.953 L2083.76 233.953 L2083.76 259.812 Q2083.76 260.538 2083.86 260.983 Q2083.95 261.404 2084.35 262.06 Q2084.77 262.693 2085.87 263.044 Q2086.97 263.372 2088.71 263.372 L2088.71 264.847 Q2083.67 264.707 2083.08 264.707 Q2082.52 264.707 2077.49 264.847 Z" fill="#000000" fill-rule="nonzero" fill-opacity="1" /></svg>
