<?xml version="1.0" encoding="utf-8"?>
<svg xmlns="http://www.w3.org/2000/svg" xmlns:xlink="http://www.w3.org/1999/xlink" width="600" height="400" viewBox="0 0 2400 1600">
<defs>
  <clipPath id="clip400">
    <rect x="0" y="0" width="2400" height="1600"/>
  </clipPath>
</defs>
<path clip-path="url(#clip400)" d="M0 1600 L2400 1600 L2400 8.88178e-14 L0 8.88178e-14  Z" fill="#ffffff" fill-rule="evenodd" fill-opacity="1"/>
<defs>
  <clipPath id="clip401">
    <rect x="480" y="0" width="1681" height="1600"/>
  </clipPath>
</defs>
<path clip-path="url(#clip400)" d="M276.876 1423.18 L2352.76 1423.18 L2352.76 47.2441 L276.876 47.2441  Z" fill="#ffffff" fill-rule="evenodd" fill-opacity="1"/>
<defs>
  <clipPath id="clip402">
    <rect x="276" y="47" width="2077" height="1377"/>
  </clipPath>
</defs>
<polyline clip-path="url(#clip402)" style="stroke:#000000; stroke-linecap:round; stroke-linejoin:round; stroke-width:2; stroke-opacity:0.1; fill:none" points="276.876,1423.18 276.876,47.2441 "/>
<polyline clip-path="url(#clip402)" style="stroke:#000000; stroke-linecap:round; stroke-linejoin:round; stroke-width:2; stroke-opacity:0.1; fill:none" points="581.435,1423.18 581.435,47.2441 "/>
<polyline clip-path="url(#clip402)" style="stroke:#000000; stroke-linecap:round; stroke-linejoin:round; stroke-width:2; stroke-opacity:0.1; fill:none" points="885.995,1423.18 885.995,47.2441 "/>
<polyline clip-path="url(#clip402)" style="stroke:#000000; stroke-linecap:round; stroke-linejoin:round; stroke-width:2; stroke-opacity:0.1; fill:none" points="1190.55,1423.18 1190.55,47.2441 "/>
<polyline clip-path="url(#clip402)" style="stroke:#000000; stroke-linecap:round; stroke-linejoin:round; stroke-width:2; stroke-opacity:0.1; fill:none" points="1495.11,1423.18 1495.11,47.2441 "/>
<polyline clip-path="url(#clip402)" style="stroke:#000000; stroke-linecap:round; stroke-linejoin:round; stroke-width:2; stroke-opacity:0.1; fill:none" points="1799.67,1423.18 1799.67,47.2441 "/>
<polyline clip-path="url(#clip402)" style="stroke:#000000; stroke-linecap:round; stroke-linejoin:round; stroke-width:2; stroke-opacity:0.1; fill:none" points="2104.23,1423.18 2104.23,47.2441 "/>
<polyline clip-path="url(#clip402)" style="stroke:#000000; stroke-linecap:round; stroke-linejoin:round; stroke-width:2; stroke-opacity:0.1; fill:none" points="276.876,1200.18 2352.76,1200.18 "/>
<polyline clip-path="url(#clip402)" style="stroke:#000000; stroke-linecap:round; stroke-linejoin:round; stroke-width:2; stroke-opacity:0.1; fill:none" points="276.876,642.672 2352.76,642.672 "/>
<polyline clip-path="url(#clip402)" style="stroke:#000000; stroke-linecap:round; stroke-linejoin:round; stroke-width:2; stroke-opacity:0.1; fill:none" points="276.876,85.1656 2352.76,85.1656 "/>
<polyline clip-path="url(#clip400)" style="stroke:#000000; stroke-linecap:round; stroke-linejoin:round; stroke-width:4; stroke-opacity:1; fill:none" points="276.876,1423.18 2352.76,1423.18 "/>
<polyline clip-path="url(#clip400)" style="stroke:#000000; stroke-linecap:round; stroke-linejoin:round; stroke-width:4; stroke-opacity:1; fill:none" points="276.876,1423.18 276.876,1404.28 "/>
<polyline clip-path="url(#clip400)" style="stroke:#000000; stroke-linecap:round; stroke-linejoin:round; stroke-width:4; stroke-opacity:1; fill:none" points="581.435,1423.18 581.435,1404.28 "/>
<polyline clip-path="url(#clip400)" style="stroke:#000000; stroke-linecap:round; stroke-linejoin:round; stroke-width:4; stroke-opacity:1; fill:none" points="885.995,1423.18 885.995,1404.28 "/>
<polyline clip-path="url(#clip400)" style="stroke:#000000; stroke-linecap:round; stroke-linejoin:round; stroke-width:4; stroke-opacity:1; fill:none" points="1190.55,1423.18 1190.55,1404.28 "/>
<polyline clip-path="url(#clip400)" style="stroke:#000000; stroke-linecap:round; stroke-linejoin:round; stroke-width:4; stroke-opacity:1; fill:none" points="1495.11,1423.18 1495.11,1404.28 "/>
<polyline clip-path="url(#clip400)" style="stroke:#000000; stroke-linecap:round; stroke-linejoin:round; stroke-width:4; stroke-opacity:1; fill:none" points="1799.67,1423.18 1799.67,1404.28 "/>
<polyline clip-path="url(#clip400)" style="stroke:#000000; stroke-linecap:round; stroke-linejoin:round; stroke-width:4; stroke-opacity:1; fill:none" points="2104.23,1423.18 2104.23,1404.28 "/>
<path clip-path="url(#clip400)" d="M276.876 1454.1 Q273.264 1454.1 271.436 1457.66 Q269.63 1461.2 269.63 1468.33 Q269.63 1475.44 271.436 1479.01 Q273.264 1482.55 276.876 1482.55 Q280.51 1482.55 282.315 1479.01 Q284.144 1475.44 284.144 1468.33 Q284.144 1461.2 282.315 1457.66 Q280.51 1454.1 276.876 1454.1 M276.876 1450.39 Q282.686 1450.39 285.741 1455 Q288.82 1459.58 288.82 1468.33 Q288.82 1477.06 285.741 1481.67 Q282.686 1486.25 276.876 1486.25 Q271.065 1486.25 267.987 1481.67 Q264.931 1477.06 264.931 1468.33 Q264.931 1459.58 267.987 1455 Q271.065 1450.39 276.876 1450.39 Z" fill="#000000" fill-rule="nonzero" fill-opacity="1" /><path clip-path="url(#clip400)" d="M556.123 1481.64 L563.762 1481.64 L563.762 1455.28 L555.452 1456.95 L555.452 1452.69 L563.716 1451.02 L568.391 1451.02 L568.391 1481.64 L576.03 1481.64 L576.03 1485.58 L556.123 1485.58 L556.123 1481.64 Z" fill="#000000" fill-rule="nonzero" fill-opacity="1" /><path clip-path="url(#clip400)" d="M595.475 1454.1 Q591.864 1454.1 590.035 1457.66 Q588.229 1461.2 588.229 1468.33 Q588.229 1475.44 590.035 1479.01 Q591.864 1482.55 595.475 1482.55 Q599.109 1482.55 600.914 1479.01 Q602.743 1475.44 602.743 1468.33 Q602.743 1461.2 600.914 1457.66 Q599.109 1454.1 595.475 1454.1 M595.475 1450.39 Q601.285 1450.39 604.34 1455 Q607.419 1459.58 607.419 1468.33 Q607.419 1477.06 604.34 1481.67 Q601.285 1486.25 595.475 1486.25 Q589.664 1486.25 586.586 1481.67 Q583.53 1477.06 583.53 1468.33 Q583.53 1459.58 586.586 1455 Q589.664 1450.39 595.475 1450.39 Z" fill="#000000" fill-rule="nonzero" fill-opacity="1" /><path clip-path="url(#clip400)" d="M864.768 1481.64 L881.088 1481.64 L881.088 1485.58 L859.143 1485.58 L859.143 1481.64 Q861.805 1478.89 866.389 1474.26 Q870.995 1469.61 872.176 1468.27 Q874.421 1465.74 875.301 1464.01 Q876.204 1462.25 876.204 1460.56 Q876.204 1457.8 874.259 1456.07 Q872.338 1454.33 869.236 1454.33 Q867.037 1454.33 864.583 1455.09 Q862.153 1455.86 859.375 1457.41 L859.375 1452.69 Q862.199 1451.55 864.653 1450.97 Q867.106 1450.39 869.143 1450.39 Q874.514 1450.39 877.708 1453.08 Q880.903 1455.77 880.903 1460.26 Q880.903 1462.39 880.092 1464.31 Q879.305 1466.2 877.199 1468.8 Q876.62 1469.47 873.518 1472.69 Q870.417 1475.88 864.768 1481.64 Z" fill="#000000" fill-rule="nonzero" fill-opacity="1" /><path clip-path="url(#clip400)" d="M900.902 1454.1 Q897.291 1454.1 895.463 1457.66 Q893.657 1461.2 893.657 1468.33 Q893.657 1475.44 895.463 1479.01 Q897.291 1482.55 900.902 1482.55 Q904.537 1482.55 906.342 1479.01 Q908.171 1475.44 908.171 1468.33 Q908.171 1461.2 906.342 1457.66 Q904.537 1454.1 900.902 1454.1 M900.902 1450.39 Q906.713 1450.39 909.768 1455 Q912.847 1459.58 912.847 1468.33 Q912.847 1477.06 909.768 1481.67 Q906.713 1486.25 900.902 1486.25 Q895.092 1486.25 892.014 1481.67 Q888.958 1477.06 888.958 1468.33 Q888.958 1459.58 892.014 1455 Q895.092 1450.39 900.902 1450.39 Z" fill="#000000" fill-rule="nonzero" fill-opacity="1" /><path clip-path="url(#clip400)" d="M1179.4 1466.95 Q1182.75 1467.66 1184.63 1469.93 Q1186.53 1472.2 1186.53 1475.53 Q1186.53 1480.65 1183.01 1483.45 Q1179.49 1486.25 1173.01 1486.25 Q1170.83 1486.25 1168.52 1485.81 Q1166.23 1485.39 1163.77 1484.54 L1163.77 1480.02 Q1165.72 1481.16 1168.03 1481.74 Q1170.35 1482.32 1172.87 1482.32 Q1177.27 1482.32 1179.56 1480.58 Q1181.87 1478.84 1181.87 1475.53 Q1181.87 1472.48 1179.72 1470.77 Q1177.59 1469.03 1173.77 1469.03 L1169.74 1469.03 L1169.74 1465.19 L1173.96 1465.19 Q1177.41 1465.19 1179.24 1463.82 Q1181.06 1462.43 1181.06 1459.84 Q1181.06 1457.18 1179.17 1455.77 Q1177.29 1454.33 1173.77 1454.33 Q1171.85 1454.33 1169.65 1454.75 Q1167.45 1455.16 1164.81 1456.04 L1164.81 1451.88 Q1167.48 1451.14 1169.79 1450.77 Q1172.13 1450.39 1174.19 1450.39 Q1179.51 1450.39 1182.62 1452.83 Q1185.72 1455.23 1185.72 1459.35 Q1185.72 1462.22 1184.07 1464.21 Q1182.43 1466.18 1179.4 1466.95 Z" fill="#000000" fill-rule="nonzero" fill-opacity="1" /><path clip-path="url(#clip400)" d="M1205.39 1454.1 Q1201.78 1454.1 1199.95 1457.66 Q1198.15 1461.2 1198.15 1468.33 Q1198.15 1475.44 1199.95 1479.01 Q1201.78 1482.55 1205.39 1482.55 Q1209.03 1482.55 1210.83 1479.01 Q1212.66 1475.44 1212.66 1468.33 Q1212.66 1461.2 1210.83 1457.66 Q1209.03 1454.1 1205.39 1454.1 M1205.39 1450.39 Q1211.2 1450.39 1214.26 1455 Q1217.34 1459.58 1217.34 1468.33 Q1217.34 1477.06 1214.26 1481.67 Q1211.2 1486.25 1205.39 1486.25 Q1199.58 1486.25 1196.5 1481.67 Q1193.45 1477.06 1193.45 1468.33 Q1193.45 1459.58 1196.5 1455 Q1199.58 1450.39 1205.39 1450.39 Z" fill="#000000" fill-rule="nonzero" fill-opacity="1" /><path clip-path="url(#clip400)" d="M1483.29 1455.09 L1471.48 1473.54 L1483.29 1473.54 L1483.29 1455.09 M1482.06 1451.02 L1487.94 1451.02 L1487.94 1473.54 L1492.87 1473.54 L1492.87 1477.43 L1487.94 1477.43 L1487.94 1485.58 L1483.29 1485.58 L1483.29 1477.43 L1467.68 1477.43 L1467.68 1472.92 L1482.06 1451.02 Z" fill="#000000" fill-rule="nonzero" fill-opacity="1" /><path clip-path="url(#clip400)" d="M1510.6 1454.1 Q1506.99 1454.1 1505.16 1457.66 Q1503.36 1461.2 1503.36 1468.33 Q1503.36 1475.44 1505.16 1479.01 Q1506.99 1482.55 1510.6 1482.55 Q1514.24 1482.55 1516.04 1479.01 Q1517.87 1475.44 1517.87 1468.33 Q1517.87 1461.2 1516.04 1457.66 Q1514.24 1454.1 1510.6 1454.1 M1510.6 1450.39 Q1516.41 1450.39 1519.47 1455 Q1522.55 1459.58 1522.55 1468.33 Q1522.55 1477.06 1519.47 1481.67 Q1516.41 1486.25 1510.6 1486.25 Q1504.79 1486.25 1501.71 1481.67 Q1498.66 1477.06 1498.66 1468.33 Q1498.66 1459.58 1501.71 1455 Q1504.79 1450.39 1510.6 1450.39 Z" fill="#000000" fill-rule="nonzero" fill-opacity="1" /><path clip-path="url(#clip400)" d="M1774.37 1451.02 L1792.73 1451.02 L1792.73 1454.96 L1778.66 1454.96 L1778.66 1463.43 Q1779.67 1463.08 1780.69 1462.92 Q1781.71 1462.73 1782.73 1462.73 Q1788.52 1462.73 1791.9 1465.9 Q1795.28 1469.08 1795.28 1474.49 Q1795.28 1480.07 1791.8 1483.17 Q1788.33 1486.25 1782.01 1486.25 Q1779.84 1486.25 1777.57 1485.88 Q1775.32 1485.51 1772.92 1484.77 L1772.92 1480.07 Q1775 1481.2 1777.22 1481.76 Q1779.44 1482.32 1781.92 1482.32 Q1785.92 1482.32 1788.26 1480.21 Q1790.6 1478.1 1790.6 1474.49 Q1790.6 1470.88 1788.26 1468.77 Q1785.92 1466.67 1781.92 1466.67 Q1780.05 1466.67 1778.17 1467.08 Q1776.32 1467.5 1774.37 1468.38 L1774.37 1451.02 Z" fill="#000000" fill-rule="nonzero" fill-opacity="1" /><path clip-path="url(#clip400)" d="M1814.49 1454.1 Q1810.88 1454.1 1809.05 1457.66 Q1807.24 1461.2 1807.24 1468.33 Q1807.24 1475.44 1809.05 1479.01 Q1810.88 1482.55 1814.49 1482.55 Q1818.12 1482.55 1819.93 1479.01 Q1821.76 1475.44 1821.76 1468.33 Q1821.76 1461.2 1819.93 1457.66 Q1818.12 1454.1 1814.49 1454.1 M1814.49 1450.39 Q1820.3 1450.39 1823.36 1455 Q1826.43 1459.58 1826.43 1468.33 Q1826.43 1477.06 1823.36 1481.67 Q1820.3 1486.25 1814.49 1486.25 Q1808.68 1486.25 1805.6 1481.67 Q1802.55 1477.06 1802.55 1468.33 Q1802.55 1459.58 1805.6 1455 Q1808.68 1450.39 1814.49 1450.39 Z" fill="#000000" fill-rule="nonzero" fill-opacity="1" /><path clip-path="url(#clip400)" d="M2089.64 1466.44 Q2086.49 1466.44 2084.64 1468.59 Q2082.81 1470.74 2082.81 1474.49 Q2082.81 1478.22 2084.64 1480.39 Q2086.49 1482.55 2089.64 1482.55 Q2092.79 1482.55 2094.62 1480.39 Q2096.47 1478.22 2096.47 1474.49 Q2096.47 1470.74 2094.62 1468.59 Q2092.79 1466.44 2089.64 1466.44 M2098.92 1451.78 L2098.92 1456.04 Q2097.16 1455.21 2095.36 1454.77 Q2093.57 1454.33 2091.82 1454.33 Q2087.19 1454.33 2084.73 1457.45 Q2082.3 1460.58 2081.95 1466.9 Q2083.32 1464.89 2085.38 1463.82 Q2087.44 1462.73 2089.92 1462.73 Q2095.13 1462.73 2098.13 1465.9 Q2101.17 1469.05 2101.17 1474.49 Q2101.17 1479.82 2098.02 1483.03 Q2094.87 1486.25 2089.64 1486.25 Q2083.64 1486.25 2080.47 1481.67 Q2077.3 1477.06 2077.3 1468.33 Q2077.3 1460.14 2081.19 1455.28 Q2085.08 1450.39 2091.63 1450.39 Q2093.39 1450.39 2095.17 1450.74 Q2096.98 1451.09 2098.92 1451.78 Z" fill="#000000" fill-rule="nonzero" fill-opacity="1" /><path clip-path="url(#clip400)" d="M2119.22 1454.1 Q2115.61 1454.1 2113.78 1457.66 Q2111.98 1461.2 2111.98 1468.33 Q2111.98 1475.44 2113.78 1479.01 Q2115.61 1482.55 2119.22 1482.55 Q2122.86 1482.55 2124.66 1479.01 Q2126.49 1475.44 2126.49 1468.33 Q2126.49 1461.2 2124.66 1457.66 Q2122.86 1454.1 2119.22 1454.1 M2119.22 1450.39 Q2125.03 1450.39 2128.09 1455 Q2131.17 1459.58 2131.17 1468.33 Q2131.17 1477.06 2128.09 1481.67 Q2125.03 1486.25 2119.22 1486.25 Q2113.41 1486.25 2110.33 1481.67 Q2107.28 1477.06 2107.28 1468.33 Q2107.28 1459.58 2110.33 1455 Q2113.41 1450.39 2119.22 1450.39 Z" fill="#000000" fill-rule="nonzero" fill-opacity="1" /><path clip-path="url(#clip400)" d="M1104.12 1526.05 L1105.38 1511.23 L1145.66 1511.23 L1146.92 1526.05 L1145.28 1526.05 Q1145.02 1523.08 1144.76 1521.38 Q1144.54 1519.67 1143.96 1518.06 Q1143.41 1516.42 1142.7 1515.64 Q1142.03 1514.84 1140.7 1514.23 Q1139.38 1513.58 1137.68 1513.42 Q1135.97 1513.26 1133.39 1513.26 Q1130.37 1513.26 1129.63 1513.39 Q1128.82 1513.58 1128.63 1514.16 Q1128.43 1514.71 1128.43 1515.9 L1128.43 1550.65 Q1128.43 1551.97 1128.69 1552.52 Q1128.98 1553.03 1130.5 1553.45 Q1132.01 1553.84 1135.36 1553.84 L1138 1553.84 L1138 1555.87 Q1135.29 1555.67 1125.47 1555.67 Q1115.71 1555.67 1113.01 1555.87 L1113.01 1553.84 L1115.65 1553.84 Q1119 1553.84 1120.51 1553.45 Q1122.06 1553.03 1122.32 1552.52 Q1122.57 1551.97 1122.57 1550.65 L1122.57 1515.9 Q1122.57 1514.97 1122.51 1514.58 Q1122.44 1514.19 1122.15 1513.87 Q1121.86 1513.52 1121.19 1513.39 Q1120.54 1513.26 1117.65 1513.26 Q1115.07 1513.26 1113.33 1513.42 Q1111.62 1513.58 1110.3 1514.23 Q1108.98 1514.84 1108.27 1515.64 Q1107.6 1516.42 1107.02 1518.06 Q1106.47 1519.67 1106.24 1521.38 Q1106.02 1523.08 1105.76 1526.05 L1104.12 1526.05 Z" fill="#000000" fill-rule="nonzero" fill-opacity="1" /><path clip-path="url(#clip400)" d="M1156.46 1555.87 L1156.46 1553.84 Q1159.97 1553.84 1160.78 1553.42 Q1161.58 1552.97 1161.58 1550.84 L1161.58 1533.1 Q1161.58 1530.65 1160.75 1530.07 Q1159.94 1529.49 1156.72 1529.49 L1156.72 1527.43 L1165.93 1526.72 L1165.93 1550.91 Q1165.93 1552.87 1166.64 1553.36 Q1167.35 1553.84 1170.57 1553.84 L1170.57 1555.87 Q1163.84 1555.67 1163.71 1555.67 Q1162.81 1555.67 1156.46 1555.87 M1159.23 1515.22 Q1159.23 1513.9 1160.23 1512.84 Q1161.26 1511.75 1162.71 1511.75 Q1164.16 1511.75 1165.19 1512.74 Q1166.22 1513.71 1166.22 1515.26 Q1166.22 1516.77 1165.19 1517.77 Q1164.16 1518.73 1162.71 1518.73 Q1161.2 1518.73 1160.2 1517.67 Q1159.23 1516.61 1159.23 1515.22 Z" fill="#000000" fill-rule="nonzero" fill-opacity="1" /><path clip-path="url(#clip400)" d="M1175.08 1555.87 L1175.08 1553.84 Q1178.59 1553.84 1179.39 1553.42 Q1180.2 1552.97 1180.2 1550.84 L1180.2 1533.16 Q1180.2 1530.72 1179.33 1530.1 Q1178.49 1529.49 1175.08 1529.49 L1175.08 1527.43 L1184.35 1526.72 L1184.35 1533.65 Q1187.44 1526.72 1194.11 1526.72 Q1201.84 1526.72 1202.9 1533.16 Q1204.03 1530.65 1206.38 1528.69 Q1208.76 1526.72 1212.47 1526.72 Q1217.43 1526.72 1219.39 1529.17 Q1220.84 1530.81 1221.13 1532.65 Q1221.42 1534.48 1221.42 1539.25 L1221.42 1551.84 Q1221.49 1553.23 1222.55 1553.55 Q1223.61 1553.84 1226.57 1553.84 L1226.57 1555.87 Q1219.84 1555.67 1219.2 1555.67 Q1218.68 1555.67 1211.73 1555.87 L1211.73 1553.84 Q1215.24 1553.84 1216.04 1553.42 Q1216.88 1552.97 1216.88 1550.84 L1216.88 1535.48 Q1216.88 1532.13 1215.85 1530.17 Q1214.82 1528.17 1211.99 1528.17 Q1208.57 1528.17 1205.83 1531.04 Q1203.1 1533.9 1203.1 1538.73 L1203.1 1550.84 Q1203.1 1552.97 1203.9 1553.42 Q1204.74 1553.84 1208.25 1553.84 L1208.25 1555.87 Q1201.52 1555.67 1200.84 1555.67 Q1200.33 1555.67 1193.4 1555.87 L1193.4 1553.84 Q1196.91 1553.84 1197.72 1553.42 Q1198.56 1552.97 1198.56 1550.84 L1198.56 1535.48 Q1198.56 1532.13 1197.53 1530.17 Q1196.49 1528.17 1193.66 1528.17 Q1190.25 1528.17 1187.51 1531.04 Q1184.77 1533.9 1184.77 1538.73 L1184.77 1550.84 Q1184.77 1552.97 1185.58 1553.42 Q1186.41 1553.84 1189.89 1553.84 L1189.89 1555.87 Q1183.16 1555.67 1182.52 1555.67 Q1182 1555.67 1175.08 1555.87 Z" fill="#000000" fill-rule="nonzero" fill-opacity="1" /><path clip-path="url(#clip400)" d="M1230.52 1541.34 Q1230.52 1535.13 1234.51 1530.72 Q1238.51 1526.3 1244.24 1526.3 Q1250.04 1526.3 1253.03 1530.07 Q1256.06 1533.84 1256.06 1539.25 Q1256.06 1540.25 1255.8 1540.44 Q1255.54 1540.63 1254.42 1540.63 L1236 1540.63 Q1236 1547.37 1237.99 1550.52 Q1240.76 1554.93 1245.43 1554.93 Q1246.08 1554.93 1246.85 1554.8 Q1247.62 1554.68 1249.2 1554.13 Q1250.78 1553.55 1252.16 1552.04 Q1253.55 1550.52 1254.35 1548.14 Q1254.55 1547.2 1255.19 1547.24 Q1256.06 1547.24 1256.06 1548.01 Q1256.06 1548.59 1255.42 1549.91 Q1254.8 1551.2 1253.61 1552.74 Q1252.42 1554.29 1250.1 1555.45 Q1247.82 1556.61 1245.05 1556.61 Q1239.25 1556.61 1234.87 1552.23 Q1230.52 1547.82 1230.52 1541.34 M1236.06 1539.25 L1251.71 1539.25 Q1251.71 1537.86 1251.45 1536.32 Q1251.23 1534.77 1250.52 1532.65 Q1249.84 1530.49 1248.23 1529.14 Q1246.62 1527.78 1244.24 1527.78 Q1243.18 1527.78 1242.02 1528.24 Q1240.89 1528.69 1239.51 1529.78 Q1238.12 1530.88 1237.15 1533.36 Q1236.19 1535.84 1236.06 1539.25 Z" fill="#000000" fill-rule="nonzero" fill-opacity="1" /><path clip-path="url(#clip400)" d="M1263.21 1539.38 Q1263.21 1528.24 1267.37 1519.25 Q1269.14 1515.48 1271.62 1512.33 Q1274.1 1509.17 1275.74 1507.78 Q1277.38 1506.4 1277.83 1506.4 Q1278.48 1506.4 1278.51 1507.04 Q1278.51 1507.37 1277.64 1508.17 Q1267.01 1518.99 1267.04 1539.38 Q1267.04 1559.83 1277.38 1570.23 Q1278.51 1571.36 1278.51 1571.71 Q1278.51 1572.36 1277.83 1572.36 Q1277.38 1572.36 1275.8 1571.04 Q1274.23 1569.72 1271.78 1566.69 Q1269.33 1563.66 1267.56 1559.96 Q1263.21 1550.97 1263.21 1539.38 Z" fill="#000000" fill-rule="nonzero" fill-opacity="1" /><path clip-path="url(#clip400)" d="M1284.84 1555 L1284.84 1546.3 Q1284.84 1545.56 1284.88 1545.3 Q1284.91 1545.05 1285.1 1544.85 Q1285.29 1544.66 1285.68 1544.66 Q1286.13 1544.66 1286.29 1544.85 Q1286.49 1545.05 1286.61 1545.79 Q1287.61 1550.33 1289.74 1552.74 Q1291.9 1555.13 1295.79 1555.13 Q1299.5 1555.13 1301.37 1553.48 Q1303.23 1551.84 1303.23 1549.14 Q1303.23 1544.31 1296.37 1543.08 Q1292.41 1542.28 1290.77 1541.76 Q1289.13 1541.21 1287.68 1540.02 Q1284.84 1537.7 1284.84 1534.42 Q1284.84 1531.13 1287.32 1528.72 Q1289.84 1526.3 1295.37 1526.3 Q1299.08 1526.3 1301.59 1528.17 Q1302.33 1527.59 1302.72 1527.11 Q1303.59 1526.3 1304.04 1526.3 Q1304.55 1526.3 1304.65 1526.66 Q1304.75 1526.98 1304.75 1527.91 L1304.75 1534.55 Q1304.75 1535.29 1304.71 1535.55 Q1304.68 1535.8 1304.49 1536 Q1304.3 1536.16 1303.88 1536.16 Q1303.14 1536.16 1303.1 1535.55 Q1302.59 1527.56 1295.37 1527.56 Q1291.48 1527.56 1289.74 1529.07 Q1288 1530.55 1288 1532.58 Q1288 1533.71 1288.52 1534.58 Q1289.06 1535.42 1289.74 1535.93 Q1290.45 1536.42 1291.74 1536.9 Q1293.02 1537.35 1293.8 1537.51 Q1294.6 1537.67 1296.12 1537.99 Q1301.4 1538.99 1303.62 1541.15 Q1306.39 1543.92 1306.39 1547.43 Q1306.39 1551.33 1303.75 1553.97 Q1301.11 1556.61 1295.79 1556.61 Q1291.51 1556.61 1288.52 1553.74 Q1288.13 1554.13 1287.84 1554.48 Q1287.55 1554.8 1287.42 1554.93 Q1287.32 1555.06 1287.29 1555.16 Q1287.26 1555.22 1287.19 1555.29 Q1285.87 1556.61 1285.55 1556.61 Q1285.04 1556.61 1284.94 1556.25 Q1284.84 1555.93 1284.84 1555 Z" fill="#000000" fill-rule="nonzero" fill-opacity="1" /><path clip-path="url(#clip400)" d="M1310.29 1541.34 Q1310.29 1535.13 1314.28 1530.72 Q1318.28 1526.3 1324.01 1526.3 Q1329.81 1526.3 1332.8 1530.07 Q1335.83 1533.84 1335.83 1539.25 Q1335.83 1540.25 1335.57 1540.44 Q1335.31 1540.63 1334.19 1540.63 L1315.76 1540.63 Q1315.76 1547.37 1317.76 1550.52 Q1320.53 1554.93 1325.2 1554.93 Q1325.85 1554.93 1326.62 1554.8 Q1327.39 1554.68 1328.97 1554.13 Q1330.55 1553.55 1331.93 1552.04 Q1333.32 1550.52 1334.12 1548.14 Q1334.32 1547.2 1334.96 1547.24 Q1335.83 1547.24 1335.83 1548.01 Q1335.83 1548.59 1335.18 1549.91 Q1334.57 1551.2 1333.38 1552.74 Q1332.19 1554.29 1329.87 1555.45 Q1327.58 1556.61 1324.81 1556.61 Q1319.02 1556.61 1314.64 1552.23 Q1310.29 1547.82 1310.29 1541.34 M1315.83 1539.25 L1331.48 1539.25 Q1331.48 1537.86 1331.22 1536.32 Q1331 1534.77 1330.29 1532.65 Q1329.61 1530.49 1328 1529.14 Q1326.39 1527.78 1324.01 1527.78 Q1322.95 1527.78 1321.79 1528.24 Q1320.66 1528.69 1319.28 1529.78 Q1317.89 1530.88 1316.92 1533.36 Q1315.96 1535.84 1315.83 1539.25 Z" fill="#000000" fill-rule="nonzero" fill-opacity="1" /><path clip-path="url(#clip400)" d="M1343.47 1552.26 Q1339.29 1547.88 1339.29 1541.63 Q1339.29 1535.35 1343.41 1530.84 Q1347.53 1526.3 1353.58 1526.3 Q1357.61 1526.3 1360.64 1528.24 Q1363.67 1530.14 1363.67 1533.39 Q1363.67 1534.84 1362.8 1535.67 Q1361.96 1536.48 1360.64 1536.48 Q1359.25 1536.48 1358.42 1535.64 Q1357.61 1534.77 1357.61 1533.45 Q1357.61 1532.87 1357.8 1532.29 Q1358 1531.71 1358.71 1531.1 Q1359.45 1530.49 1360.7 1530.39 Q1358.35 1527.98 1353.78 1527.98 Q1353.71 1527.98 1353.65 1527.98 Q1350.3 1527.98 1347.53 1531.13 Q1344.76 1534.29 1344.76 1541.5 Q1344.76 1545.27 1345.66 1548.04 Q1346.6 1550.78 1348.11 1552.2 Q1349.62 1553.61 1351.11 1554.29 Q1352.59 1554.93 1354.04 1554.93 Q1360.51 1554.93 1362.7 1548.01 Q1362.89 1547.37 1363.54 1547.37 Q1364.41 1547.37 1364.41 1548.01 Q1364.41 1548.33 1364.15 1549.17 Q1363.89 1550.01 1363.09 1551.33 Q1362.28 1552.65 1361.12 1553.81 Q1359.99 1554.93 1357.96 1555.77 Q1355.97 1556.61 1353.46 1556.61 Q1347.66 1556.61 1343.47 1552.26 Z" fill="#000000" fill-rule="nonzero" fill-opacity="1" /><path clip-path="url(#clip400)" d="M1372.1 1552.33 Q1367.75 1548.01 1367.75 1541.76 Q1367.75 1535.48 1372 1530.91 Q1376.29 1526.3 1382.41 1526.3 Q1388.4 1526.3 1392.68 1530.88 Q1397 1535.42 1397 1541.76 Q1397 1547.98 1392.65 1552.29 Q1388.33 1556.61 1382.34 1556.61 Q1376.48 1556.61 1372.1 1552.33 M1373.23 1541.21 Q1373.23 1547.62 1374.9 1550.52 Q1377.48 1554.93 1382.41 1554.93 Q1384.85 1554.93 1386.88 1553.61 Q1388.94 1552.29 1390.07 1550.07 Q1391.52 1547.17 1391.52 1541.21 Q1391.52 1534.87 1389.78 1532.07 Q1387.21 1527.78 1382.34 1527.78 Q1380.22 1527.78 1378.12 1528.91 Q1376.06 1530.01 1374.81 1532.2 Q1373.23 1535.09 1373.23 1541.21 Z" fill="#000000" fill-rule="nonzero" fill-opacity="1" /><path clip-path="url(#clip400)" d="M1399.1 1555.87 L1399.1 1553.84 Q1402.61 1553.84 1403.41 1553.42 Q1404.22 1552.97 1404.22 1550.84 L1404.22 1533.16 Q1404.22 1530.72 1403.35 1530.1 Q1402.51 1529.49 1399.1 1529.49 L1399.1 1527.43 L1408.37 1526.72 L1408.37 1533.65 Q1411.46 1526.72 1418.13 1526.72 Q1423.09 1526.72 1425.06 1529.17 Q1426.5 1530.81 1426.79 1532.65 Q1427.12 1534.48 1427.12 1539.25 L1427.12 1551.84 Q1427.18 1553.23 1428.24 1553.55 Q1429.31 1553.84 1432.27 1553.84 L1432.27 1555.87 Q1425.54 1555.67 1424.86 1555.67 Q1424.35 1555.67 1417.42 1555.87 L1417.42 1553.84 Q1420.93 1553.84 1421.74 1553.42 Q1422.58 1552.97 1422.58 1550.84 L1422.58 1535.48 Q1422.58 1532.13 1421.54 1530.17 Q1420.51 1528.17 1417.68 1528.17 Q1414.27 1528.17 1411.53 1531.04 Q1408.79 1533.9 1408.79 1538.73 L1408.79 1550.84 Q1408.79 1552.97 1409.6 1553.42 Q1410.43 1553.84 1413.91 1553.84 L1413.91 1555.87 Q1407.18 1555.67 1406.54 1555.67 Q1406.02 1555.67 1399.1 1555.87 Z" fill="#000000" fill-rule="nonzero" fill-opacity="1" /><path clip-path="url(#clip400)" d="M1436.92 1541.7 Q1436.92 1535.42 1441.3 1531.07 Q1445.68 1526.72 1451.6 1526.72 Q1456.63 1526.72 1459.91 1530.81 L1459.91 1516.54 Q1459.91 1514.1 1459.04 1513.48 Q1458.21 1512.87 1454.79 1512.87 L1454.79 1510.81 L1464.29 1510.1 L1464.29 1550.14 Q1464.29 1552.58 1465.13 1553.23 Q1466 1553.84 1469.41 1553.84 L1469.41 1555.87 L1459.72 1556.61 L1459.72 1552.23 Q1456.31 1556.58 1450.9 1556.61 Q1445.23 1556.61 1441.07 1552.26 Q1436.92 1547.91 1436.92 1541.7 M1442.39 1541.76 Q1442.39 1547.88 1444.29 1550.91 Q1446.93 1555.13 1451.22 1555.13 Q1456.11 1555.13 1459.01 1550.52 Q1459.75 1549.39 1459.72 1548.07 L1459.72 1534.55 Q1459.72 1533.23 1459.01 1532.13 Q1456.31 1528.17 1451.89 1528.17 Q1447.29 1528.17 1444.42 1532.39 Q1442.39 1535.55 1442.39 1541.76 Z" fill="#000000" fill-rule="nonzero" fill-opacity="1" /><path clip-path="url(#clip400)" d="M1473.42 1555 L1473.42 1546.3 Q1473.42 1545.56 1473.45 1545.3 Q1473.48 1545.05 1473.68 1544.85 Q1473.87 1544.66 1474.26 1544.66 Q1474.71 1544.66 1474.87 1544.85 Q1475.06 1545.05 1475.19 1545.79 Q1476.19 1550.33 1478.31 1552.74 Q1480.47 1555.13 1484.37 1555.13 Q1488.07 1555.13 1489.94 1553.48 Q1491.81 1551.84 1491.81 1549.14 Q1491.81 1544.31 1484.95 1543.08 Q1480.99 1542.28 1479.34 1541.76 Q1477.7 1541.21 1476.25 1540.02 Q1473.42 1537.7 1473.42 1534.42 Q1473.42 1531.13 1475.9 1528.72 Q1478.41 1526.3 1483.95 1526.3 Q1487.65 1526.3 1490.17 1528.17 Q1490.91 1527.59 1491.29 1527.11 Q1492.16 1526.3 1492.61 1526.3 Q1493.13 1526.3 1493.23 1526.66 Q1493.32 1526.98 1493.32 1527.91 L1493.32 1534.55 Q1493.32 1535.29 1493.29 1535.55 Q1493.26 1535.8 1493.06 1536 Q1492.87 1536.16 1492.45 1536.16 Q1491.71 1536.16 1491.68 1535.55 Q1491.16 1527.56 1483.95 1527.56 Q1480.05 1527.56 1478.31 1529.07 Q1476.57 1530.55 1476.57 1532.58 Q1476.57 1533.71 1477.09 1534.58 Q1477.64 1535.42 1478.31 1535.93 Q1479.02 1536.42 1480.31 1536.9 Q1481.6 1537.35 1482.37 1537.51 Q1483.18 1537.67 1484.69 1537.99 Q1489.97 1538.99 1492.19 1541.15 Q1494.96 1543.92 1494.96 1547.43 Q1494.96 1551.33 1492.32 1553.97 Q1489.68 1556.61 1484.37 1556.61 Q1480.09 1556.61 1477.09 1553.74 Q1476.7 1554.13 1476.41 1554.48 Q1476.12 1554.8 1476 1554.93 Q1475.9 1555.06 1475.87 1555.16 Q1475.83 1555.22 1475.77 1555.29 Q1474.45 1556.61 1474.13 1556.61 Q1473.61 1556.61 1473.52 1556.25 Q1473.42 1555.93 1473.42 1555 Z" fill="#000000" fill-rule="nonzero" fill-opacity="1" /><path clip-path="url(#clip400)" d="M1500.18 1571.71 Q1500.18 1571.39 1501.02 1570.59 Q1511.65 1559.76 1511.65 1539.38 Q1511.65 1518.93 1501.44 1508.59 Q1500.18 1507.4 1500.18 1507.04 Q1500.18 1506.4 1500.83 1506.4 Q1501.28 1506.4 1502.86 1507.72 Q1504.47 1509.04 1506.88 1512.07 Q1509.33 1515.1 1511.13 1518.8 Q1515.48 1527.78 1515.48 1539.38 Q1515.48 1550.52 1511.33 1559.51 Q1509.56 1563.28 1507.08 1566.43 Q1504.6 1569.59 1502.95 1570.97 Q1501.31 1572.36 1500.83 1572.36 Q1500.18 1572.36 1500.18 1571.71 Z" fill="#000000" fill-rule="nonzero" fill-opacity="1" /><polyline clip-path="url(#clip400)" style="stroke:#000000; stroke-linecap:round; stroke-linejoin:round; stroke-width:4; stroke-opacity:1; fill:none" points="276.876,1423.18 276.876,47.2441 "/>
<polyline clip-path="url(#clip400)" style="stroke:#000000; stroke-linecap:round; stroke-linejoin:round; stroke-width:4; stroke-opacity:1; fill:none" points="276.876,1200.18 295.773,1200.18 "/>
<polyline clip-path="url(#clip400)" style="stroke:#000000; stroke-linecap:round; stroke-linejoin:round; stroke-width:4; stroke-opacity:1; fill:none" points="276.876,642.672 295.773,642.672 "/>
<polyline clip-path="url(#clip400)" style="stroke:#000000; stroke-linecap:round; stroke-linejoin:round; stroke-width:4; stroke-opacity:1; fill:none" points="276.876,85.1656 295.773,85.1656 "/>
<path clip-path="url(#clip400)" d="M114.931 1219.97 L122.57 1219.97 L122.57 1193.6 L114.26 1195.27 L114.26 1191.01 L122.524 1189.35 L127.2 1189.35 L127.2 1219.97 L134.839 1219.97 L134.839 1223.91 L114.931 1223.91 L114.931 1219.97 Z" fill="#000000" fill-rule="nonzero" fill-opacity="1" /><path clip-path="url(#clip400)" d="M154.283 1192.42 Q150.672 1192.42 148.843 1195.99 Q147.038 1199.53 147.038 1206.66 Q147.038 1213.77 148.843 1217.33 Q150.672 1220.87 154.283 1220.87 Q157.917 1220.87 159.723 1217.33 Q161.552 1213.77 161.552 1206.66 Q161.552 1199.53 159.723 1195.99 Q157.917 1192.42 154.283 1192.42 M154.283 1188.72 Q160.093 1188.72 163.149 1193.33 Q166.227 1197.91 166.227 1206.66 Q166.227 1215.39 163.149 1219.99 Q160.093 1224.58 154.283 1224.58 Q148.473 1224.58 145.394 1219.99 Q142.339 1215.39 142.339 1206.66 Q142.339 1197.91 145.394 1193.33 Q148.473 1188.72 154.283 1188.72 Z" fill="#000000" fill-rule="nonzero" fill-opacity="1" /><path clip-path="url(#clip400)" d="M166.227 1182.82 L190.339 1182.82 L190.339 1186.02 L166.227 1186.02 L166.227 1182.82 Z" fill="#000000" fill-rule="nonzero" fill-opacity="1" /><path clip-path="url(#clip400)" d="M199.197 1193.3 L205.404 1193.3 L205.404 1171.88 L198.652 1173.23 L198.652 1169.77 L205.366 1168.41 L209.166 1168.41 L209.166 1193.3 L215.372 1193.3 L215.372 1196.49 L199.197 1196.49 L199.197 1193.3 Z" fill="#000000" fill-rule="nonzero" fill-opacity="1" /><path clip-path="url(#clip400)" d="M231.171 1170.92 Q228.237 1170.92 226.751 1173.81 Q225.284 1176.69 225.284 1182.48 Q225.284 1188.26 226.751 1191.15 Q228.237 1194.03 231.171 1194.03 Q234.124 1194.03 235.591 1191.15 Q237.076 1188.26 237.076 1182.48 Q237.076 1176.69 235.591 1173.81 Q234.124 1170.92 231.171 1170.92 M231.171 1167.91 Q235.891 1167.91 238.374 1171.65 Q240.876 1175.37 240.876 1182.48 Q240.876 1189.57 238.374 1193.32 Q235.891 1197.04 231.171 1197.04 Q226.45 1197.04 223.949 1193.32 Q221.466 1189.57 221.466 1182.48 Q221.466 1175.37 223.949 1171.65 Q226.45 1167.91 231.171 1167.91 Z" fill="#000000" fill-rule="nonzero" fill-opacity="1" /><path clip-path="url(#clip400)" d="M140.247 662.464 L147.886 662.464 L147.886 636.098 L139.575 637.765 L139.575 633.506 L147.839 631.839 L152.515 631.839 L152.515 662.464 L160.154 662.464 L160.154 666.399 L140.247 666.399 L140.247 662.464 Z" fill="#000000" fill-rule="nonzero" fill-opacity="1" /><path clip-path="url(#clip400)" d="M179.598 634.918 Q175.987 634.918 174.159 638.483 Q172.353 642.024 172.353 649.154 Q172.353 656.26 174.159 659.825 Q175.987 663.367 179.598 663.367 Q183.233 663.367 185.038 659.825 Q186.867 656.26 186.867 649.154 Q186.867 642.024 185.038 638.483 Q183.233 634.918 179.598 634.918 M179.598 631.214 Q185.409 631.214 188.464 635.821 Q191.543 640.404 191.543 649.154 Q191.543 657.881 188.464 662.487 Q185.409 667.07 179.598 667.07 Q173.788 667.07 170.71 662.487 Q167.654 657.881 167.654 649.154 Q167.654 640.404 170.71 635.821 Q173.788 631.214 179.598 631.214 Z" fill="#000000" fill-rule="nonzero" fill-opacity="1" /><path clip-path="url(#clip400)" d="M191.543 625.315 L215.654 625.315 L215.654 628.513 L191.543 628.513 L191.543 625.315 Z" fill="#000000" fill-rule="nonzero" fill-opacity="1" /><path clip-path="url(#clip400)" d="M223.892 610.909 L238.807 610.909 L238.807 614.106 L227.372 614.106 L227.372 620.99 Q228.199 620.708 229.027 620.576 Q229.854 620.425 230.682 620.425 Q235.384 620.425 238.13 623.002 Q240.876 625.579 240.876 629.98 Q240.876 634.512 238.054 637.033 Q235.233 639.534 230.099 639.534 Q228.331 639.534 226.488 639.233 Q224.663 638.932 222.707 638.33 L222.707 634.512 Q224.4 635.434 226.205 635.885 Q228.011 636.337 230.023 636.337 Q233.277 636.337 235.177 634.625 Q237.076 632.914 237.076 629.98 Q237.076 627.046 235.177 625.334 Q233.277 623.623 230.023 623.623 Q228.5 623.623 226.977 623.961 Q225.472 624.3 223.892 625.015 L223.892 610.909 Z" fill="#000000" fill-rule="nonzero" fill-opacity="1" /><path clip-path="url(#clip400)" d="M170.17 104.958 L177.809 104.958 L177.809 78.5924 L169.499 80.2591 L169.499 75.9998 L177.762 74.3332 L182.438 74.3332 L182.438 104.958 L190.077 104.958 L190.077 108.893 L170.17 108.893 L170.17 104.958 Z" fill="#000000" fill-rule="nonzero" fill-opacity="1" /><path clip-path="url(#clip400)" d="M209.522 77.4118 Q205.91 77.4118 204.082 80.9766 Q202.276 84.5183 202.276 91.6479 Q202.276 98.7543 204.082 102.319 Q205.91 105.861 209.522 105.861 Q213.156 105.861 214.961 102.319 Q216.79 98.7543 216.79 91.6479 Q216.79 84.5183 214.961 80.9766 Q213.156 77.4118 209.522 77.4118 M209.522 73.7082 Q215.332 73.7082 218.387 78.3146 Q221.466 82.8979 221.466 91.6479 Q221.466 100.375 218.387 104.981 Q215.332 109.564 209.522 109.564 Q203.711 109.564 200.633 104.981 Q197.577 100.375 197.577 91.6479 Q197.577 82.8979 200.633 78.3146 Q203.711 73.7082 209.522 73.7082 Z" fill="#000000" fill-rule="nonzero" fill-opacity="1" /><path clip-path="url(#clip400)" d="M231.171 55.9042 Q228.237 55.9042 226.751 58.8006 Q225.284 61.6782 225.284 67.471 Q225.284 73.245 226.751 76.1414 Q228.237 79.0189 231.171 79.0189 Q234.124 79.0189 235.591 76.1414 Q237.076 73.245 237.076 67.471 Q237.076 61.6782 235.591 58.8006 Q234.124 55.9042 231.171 55.9042 M231.171 52.8949 Q235.891 52.8949 238.374 56.6377 Q240.876 60.3616 240.876 67.471 Q240.876 74.5615 238.374 78.3042 Q235.891 82.0282 231.171 82.0282 Q226.45 82.0282 223.949 78.3042 Q221.466 74.5615 221.466 67.471 Q221.466 60.3616 223.949 56.6377 Q226.45 52.8949 231.171 52.8949 Z" fill="#000000" fill-rule="nonzero" fill-opacity="1" /><path clip-path="url(#clip400)" d="M66.0841 1072.66 L64.0551 1072.66 Q64.0551 1070.27 63.6042 1068.76 Q63.1212 1067.25 62.2516 1066.7 Q61.3498 1066.12 60.7701 1065.99 Q60.1582 1065.86 59.1598 1065.86 L26.181 1065.86 Q24.2809 1065.86 23.7012 1066.7 Q23.0893 1067.5 23.0893 1071.08 L23.0893 1072.66 L21.0281 1072.66 L21.0281 1061.51 Q21.0281 1060.32 21.2535 1060 Q21.4468 1059.68 22.4774 1059.19 L59.4175 1044.9 L22.2841 1030.47 Q21.3502 1030.14 21.1891 1029.85 Q21.0281 1029.53 21.0281 1028.28 L21.0281 1017.13 L23.0893 1017.13 L23.0893 1018.71 Q23.0893 1022.29 23.7012 1023.12 Q24.2809 1023.93 26.181 1023.93 L60.9312 1023.93 Q62.8313 1023.93 63.4432 1023.12 Q64.0551 1022.29 64.0551 1018.71 L64.0551 1017.13 L66.0841 1017.13 Q65.8909 1019.58 65.8909 1026.57 Q65.8909 1033.62 66.0841 1036.07 L64.0551 1036.07 L64.0551 1034.46 Q64.0551 1030.89 63.4754 1030.08 Q62.8635 1029.28 60.9312 1029.28 L23.0893 1029.28 L23.0893 1029.34 L64.8281 1045.54 Q66.0841 1045.99 66.0841 1046.73 Q66.0841 1047.54 64.6348 1048.05 L23.6046 1063.96 L23.6046 1064.03 L59.1598 1064.03 Q60.1582 1064.03 60.7701 1063.9 Q61.3498 1063.77 62.2516 1063.22 Q63.1212 1062.64 63.6042 1061.13 Q64.0551 1059.61 64.0551 1057.23 L66.0841 1057.23 Q65.8909 1064.15 65.8909 1064.96 Q65.8909 1065.73 66.0841 1072.66 Z" fill="#000000" fill-rule="nonzero" fill-opacity="1" /><path clip-path="url(#clip400)" d="M66.0841 1006.77 L64.0551 1006.77 Q64.0551 1003.26 63.6364 1002.46 Q63.1856 1001.65 61.06 1001.65 L43.3146 1001.65 Q40.8669 1001.65 40.2872 1002.49 Q39.7075 1003.3 39.7075 1006.52 L37.6463 1006.52 L36.9378 997.306 L61.1244 997.306 Q63.0889 997.306 63.572 996.598 Q64.0551 995.889 64.0551 992.669 L66.0841 992.669 Q65.8909 999.4 65.8909 999.528 Q65.8909 1000.43 66.0841 1006.77 M25.4403 1004.01 Q24.1199 1004.01 23.0571 1003.01 Q21.9621 1001.98 21.9621 1000.53 Q21.9621 999.078 22.9604 998.047 Q23.9266 997.016 25.4725 997.016 Q26.9862 997.016 27.9846 998.047 Q28.9507 999.078 28.9507 1000.53 Q28.9507 1002.04 27.8879 1003.04 Q26.8252 1004.01 25.4403 1004.01 Z" fill="#000000" fill-rule="nonzero" fill-opacity="1" /><path clip-path="url(#clip400)" d="M66.0841 988.16 L64.0551 988.16 Q64.0551 984.65 63.6364 983.845 Q63.1856 983.04 61.06 983.04 L43.379 983.04 Q40.9313 983.04 40.3194 983.909 Q39.7075 984.747 39.7075 988.16 L37.6463 988.16 L36.9378 978.885 L43.8621 978.885 Q36.9378 975.793 36.9378 969.127 Q36.9378 964.167 39.3854 962.202 Q41.0279 960.753 42.8637 960.463 Q44.6994 960.141 49.4659 960.141 L62.0584 960.141 Q63.4432 960.077 63.7653 959.014 Q64.0551 957.951 64.0551 954.988 L66.0841 954.988 Q65.8909 961.719 65.8909 962.396 Q65.8909 962.911 66.0841 969.835 L64.0551 969.835 Q64.0551 966.325 63.6364 965.52 Q63.1856 964.682 61.06 964.682 L45.6978 964.682 Q42.3484 964.682 40.3838 965.713 Q38.3871 966.743 38.3871 969.578 Q38.3871 972.991 41.2534 975.729 Q44.1197 978.466 48.9506 978.466 L61.06 978.466 Q63.1856 978.466 63.6364 977.661 Q64.0551 976.824 64.0551 973.346 L66.0841 973.346 Q65.8909 980.077 65.8909 980.721 Q65.8909 981.236 66.0841 988.16 Z" fill="#000000" fill-rule="nonzero" fill-opacity="1" /><path clip-path="url(#clip400)" d="M66.0841 951.66 L64.0551 951.66 Q64.0551 948.149 63.6364 947.344 Q63.1856 946.539 61.06 946.539 L43.3146 946.539 Q40.8669 946.539 40.2872 947.376 Q39.7075 948.181 39.7075 951.402 L37.6463 951.402 L36.9378 942.191 L61.1244 942.191 Q63.0889 942.191 63.572 941.483 Q64.0551 940.774 64.0551 937.553 L66.0841 937.553 Q65.8909 944.285 65.8909 944.413 Q65.8909 945.315 66.0841 951.66 M25.4403 948.89 Q24.1199 948.89 23.0571 947.892 Q21.9621 946.861 21.9621 945.412 Q21.9621 943.962 22.9604 942.932 Q23.9266 941.901 25.4725 941.901 Q26.9862 941.901 27.9846 942.932 Q28.9507 943.962 28.9507 945.412 Q28.9507 946.925 27.8879 947.924 Q26.8252 948.89 25.4403 948.89 Z" fill="#000000" fill-rule="nonzero" fill-opacity="1" /><path clip-path="url(#clip400)" d="M66.0841 933.045 L64.0551 933.045 Q64.0551 929.535 63.6364 928.73 Q63.1856 927.924 61.06 927.924 L43.379 927.924 Q40.9313 927.924 40.3194 928.794 Q39.7075 929.631 39.7075 933.045 L37.6463 933.045 L36.9378 923.77 L43.8621 923.77 Q36.9378 920.678 36.9378 914.012 Q36.9378 906.282 43.379 905.219 Q40.8669 904.092 38.9023 901.741 Q36.9378 899.358 36.9378 895.654 Q36.9378 890.695 39.3854 888.73 Q41.0279 887.281 42.8637 886.991 Q44.6994 886.701 49.4659 886.701 L62.0584 886.701 Q63.4432 886.637 63.7653 885.574 Q64.0551 884.511 64.0551 881.548 L66.0841 881.548 Q65.8909 888.279 65.8909 888.923 Q65.8909 889.438 66.0841 896.395 L64.0551 896.395 Q64.0551 892.885 63.6364 892.079 Q63.1856 891.242 61.06 891.242 L45.6978 891.242 Q42.3484 891.242 40.3838 892.273 Q38.3871 893.303 38.3871 896.137 Q38.3871 899.551 41.2534 902.289 Q44.1197 905.026 48.9506 905.026 L61.06 905.026 Q63.1856 905.026 63.6364 904.221 Q64.0551 903.384 64.0551 899.873 L66.0841 899.873 Q65.8909 906.604 65.8909 907.281 Q65.8909 907.796 66.0841 914.72 L64.0551 914.72 Q64.0551 911.21 63.6364 910.405 Q63.1856 909.567 61.06 909.567 L45.6978 909.567 Q42.3484 909.567 40.3838 910.598 Q38.3871 911.628 38.3871 914.462 Q38.3871 917.876 41.2534 920.614 Q44.1197 923.351 48.9506 923.351 L61.06 923.351 Q63.1856 923.351 63.6364 922.546 Q64.0551 921.709 64.0551 918.231 L66.0841 918.231 Q65.8909 924.962 65.8909 925.606 Q65.8909 926.121 66.0841 933.045 Z" fill="#000000" fill-rule="nonzero" fill-opacity="1" /><path clip-path="url(#clip400)" d="M39.7075 878.922 L37.6463 878.922 L36.9378 869.228 L58.8378 869.228 Q60.4159 869.228 61.3498 869.1 Q62.2516 868.971 63.3144 868.455 Q64.3772 867.908 64.8603 866.684 Q65.3434 865.428 65.3434 863.431 Q65.3434 859.856 62.4126 857.666 Q59.4819 855.444 55.1341 855.444 L43.379 855.444 Q40.9313 855.444 40.3194 856.314 Q39.7075 857.183 39.7075 860.597 L37.6463 860.597 L36.9378 850.903 L60.3515 850.903 Q62.7991 850.903 63.4432 850.066 Q64.0551 849.196 64.0551 845.75 L66.0841 845.75 L66.8248 855.251 L60.8667 855.251 Q66.7926 858.021 66.8248 863.753 Q66.8248 866.652 66.0841 868.649 Q65.3434 870.613 64.4416 871.612 Q63.5076 872.61 61.7363 873.157 Q59.965 873.673 58.87 873.737 Q57.775 873.802 55.6494 873.802 L45.7622 873.802 Q41.2856 873.802 40.5126 874.446 Q39.7075 875.09 39.7075 878.922 Z" fill="#000000" fill-rule="nonzero" fill-opacity="1" /><path clip-path="url(#clip400)" d="M66.0841 843.478 L64.0551 843.478 Q64.0551 839.967 63.6364 839.162 Q63.1856 838.357 61.06 838.357 L43.379 838.357 Q40.9313 838.357 40.3194 839.226 Q39.7075 840.064 39.7075 843.478 L37.6463 843.478 L36.9378 834.202 L43.8621 834.202 Q36.9378 831.111 36.9378 824.444 Q36.9378 816.715 43.379 815.652 Q40.8669 814.525 38.9023 812.173 Q36.9378 809.79 36.9378 806.087 Q36.9378 801.127 39.3854 799.162 Q41.0279 797.713 42.8637 797.423 Q44.6994 797.133 49.4659 797.133 L62.0584 797.133 Q63.4432 797.069 63.7653 796.006 Q64.0551 794.943 64.0551 791.98 L66.0841 791.98 Q65.8909 798.711 65.8909 799.356 Q65.8909 799.871 66.0841 806.827 L64.0551 806.827 Q64.0551 803.317 63.6364 802.512 Q63.1856 801.674 61.06 801.674 L45.6978 801.674 Q42.3484 801.674 40.3838 802.705 Q38.3871 803.736 38.3871 806.57 Q38.3871 809.984 41.2534 812.721 Q44.1197 815.458 48.9506 815.458 L61.06 815.458 Q63.1856 815.458 63.6364 814.653 Q64.0551 813.816 64.0551 810.306 L66.0841 810.306 Q65.8909 817.037 65.8909 817.713 Q65.8909 818.228 66.0841 825.152 L64.0551 825.152 Q64.0551 821.642 63.6364 820.837 Q63.1856 820 61.06 820 L45.6978 820 Q42.3484 820 40.3838 821.03 Q38.3871 822.061 38.3871 824.895 Q38.3871 828.309 41.2534 831.046 Q44.1197 833.784 48.9506 833.784 L61.06 833.784 Q63.1856 833.784 63.6364 832.978 Q64.0551 832.141 64.0551 828.663 L66.0841 828.663 Q65.8909 835.394 65.8909 836.038 Q65.8909 836.553 66.0841 843.478 Z" fill="#000000" fill-rule="nonzero" fill-opacity="1" /><path clip-path="url(#clip400)" d="M43.7332 788.035 Q33.6528 788.035 26.6319 781.593 Q19.5788 775.12 19.5788 766.135 Q19.5788 757.085 26.6319 750.644 Q33.685 744.17 43.7332 744.17 Q53.6848 744.17 60.6091 750.644 Q67.5334 757.117 67.5334 766.135 Q67.5334 775.023 60.6413 781.529 Q53.7493 788.035 43.7332 788.035 M42.7993 781.239 Q48.9184 781.239 53.6204 779.79 Q58.2903 778.341 60.8345 776.022 Q63.3788 773.671 64.6026 771.159 Q65.8264 768.647 65.8264 766.07 Q65.8264 763.558 64.6348 761.111 Q63.4432 758.631 60.9312 756.28 Q58.4191 753.929 53.717 752.447 Q49.015 750.966 42.7993 750.966 Q37.9684 750.966 34.1037 751.996 Q30.2068 753.027 27.8557 754.637 Q25.5047 756.247 23.9588 758.341 Q22.4129 760.402 21.8332 762.367 Q21.2213 764.299 21.2213 766.135 Q21.2213 768.453 22.2519 770.869 Q23.2825 773.284 25.5691 775.732 Q27.8235 778.147 32.3001 779.693 Q36.7446 781.239 42.7993 781.239 Z" fill="#000000" fill-rule="nonzero" fill-opacity="1" /><path clip-path="url(#clip400)" d="M23.0893 736.492 L21.0281 736.492 L20.3196 726.991 L41.2212 726.991 Q36.9378 723.159 36.9378 717.942 Q36.9378 712.273 41.2856 708.119 Q45.6334 703.964 51.8491 703.964 Q58.1292 703.964 62.477 708.312 Q66.8248 712.66 66.8248 718.682 Q66.8248 724.157 61.994 727.313 Q66.0197 729.632 66.0841 729.697 L66.0841 731.339 L26.7607 731.339 Q24.3131 731.339 23.7012 732.209 Q23.0893 733.078 23.0893 736.492 M58.5801 726.798 Q59.965 726.798 61.3498 725.864 Q65.3434 723.256 65.3434 719.004 Q65.3434 718.972 65.3434 718.94 Q65.3434 714.335 61.1244 711.468 Q57.9682 709.439 51.7847 709.439 Q45.6656 709.439 42.606 711.339 Q38.3871 713.98 38.3871 718.264 Q38.3871 723.095 42.606 726.057 Q43.6688 726.798 44.9893 726.798 L58.5801 726.798 Z" fill="#000000" fill-rule="nonzero" fill-opacity="1" /><path clip-path="url(#clip400)" d="M74.3288 704.215 Q73.0084 704.215 72.1388 703.378 Q71.3014 702.573 71.3014 701.188 Q71.3014 699.803 72.1388 698.998 Q73.0084 698.161 74.3288 698.161 Q75.5204 698.161 76.2611 698.869 Q77.0341 699.546 77.2917 700.447 Q78.1613 698.74 78.1613 696.905 Q78.1613 695.391 77.2595 694.36 Q76.3578 693.33 74.8763 692.879 Q73.3948 692.396 72.1388 692.235 Q70.915 692.074 69.4979 692.074 L43.379 692.074 Q40.9313 692.074 40.3194 693.04 Q39.7075 693.974 39.7075 697.742 L37.6463 697.742 L36.9378 687.726 L69.3691 687.726 Q73.7813 687.726 76.6798 690.367 Q79.6106 693.008 79.6106 696.744 Q79.6106 699.771 78.1935 701.993 Q76.7764 704.215 74.3288 704.215 M27.9524 693.684 Q26.9218 694.715 25.4725 694.715 Q24.0232 694.715 22.9927 693.684 Q21.9621 692.654 21.9621 691.204 Q21.9621 689.755 22.9927 688.724 Q24.0232 687.694 25.4725 687.694 Q26.9218 687.694 27.9524 688.724 Q28.9507 689.755 28.9507 691.204 Q28.9507 692.654 27.9524 693.684 Z" fill="#000000" fill-rule="nonzero" fill-opacity="1" /><path clip-path="url(#clip400)" d="M51.5593 676.919 Q45.3435 676.919 40.9313 672.925 Q36.5191 668.932 36.5191 663.199 Q36.5191 657.402 40.2872 654.407 Q44.0553 651.38 49.4659 651.38 Q50.4643 651.38 50.6575 651.637 Q50.8507 651.895 50.8507 653.022 L50.8507 671.444 Q57.5817 671.444 60.7379 669.447 Q65.1501 666.677 65.1501 662.007 Q65.1501 661.363 65.0213 660.59 Q64.8925 659.817 64.345 658.239 Q63.7653 656.661 62.2516 655.276 Q60.7379 653.892 58.3547 653.086 Q57.4207 652.893 57.4529 652.249 Q57.4529 651.38 58.2259 651.38 Q58.8056 651.38 60.126 652.024 Q61.4142 652.636 62.9601 653.827 Q64.506 655.019 65.6654 657.338 Q66.8248 659.624 66.8248 662.394 Q66.8248 668.191 62.4448 672.571 Q58.0326 676.919 51.5593 676.919 M49.4659 671.379 L49.4659 655.727 Q48.081 655.727 46.5351 655.985 Q44.9893 656.21 42.8637 656.919 Q40.7059 657.595 39.3532 659.206 Q38.0006 660.816 38.0006 663.199 Q38.0006 664.262 38.4515 665.421 Q38.9023 666.549 39.9973 667.933 Q41.0923 669.318 43.5722 670.284 Q46.052 671.251 49.4659 671.379 Z" fill="#000000" fill-rule="nonzero" fill-opacity="1" /><path clip-path="url(#clip400)" d="M62.477 643.736 Q58.097 647.923 51.8491 647.923 Q45.569 647.923 41.0601 643.801 Q36.5191 639.678 36.5191 633.624 Q36.5191 629.598 38.4515 626.571 Q40.3516 623.543 43.6044 623.543 Q45.0537 623.543 45.891 624.413 Q46.6962 625.25 46.6962 626.571 Q46.6962 627.955 45.8588 628.793 Q44.9893 629.598 43.6688 629.598 Q43.0891 629.598 42.5094 629.405 Q41.9297 629.211 41.3178 628.503 Q40.7059 627.762 40.6093 626.506 Q38.1938 628.857 38.1938 633.43 Q38.1938 633.495 38.1938 633.559 Q38.1938 636.909 41.35 639.678 Q44.5062 642.448 51.7203 642.448 Q55.4884 642.448 58.2581 641.546 Q60.9956 640.612 62.4126 639.099 Q63.8297 637.585 64.506 636.104 Q65.1501 634.622 65.1501 633.173 Q65.1501 626.699 58.2259 624.509 Q57.5817 624.316 57.5817 623.672 Q57.5817 622.803 58.2259 622.803 Q58.5479 622.803 59.3853 623.06 Q60.2226 623.318 61.5431 624.123 Q62.8635 624.928 64.0229 626.088 Q65.1501 627.215 65.9875 629.244 Q66.8248 631.24 66.8248 633.752 Q66.8248 639.55 62.477 643.736 Z" fill="#000000" fill-rule="nonzero" fill-opacity="1" /><path clip-path="url(#clip400)" d="M39.7075 620.511 L38.2582 620.511 Q38.1294 617.484 36.0038 615.487 Q33.846 613.458 31.2051 612.782 Q28.5643 612.073 25.5047 612.009 L25.5047 610.367 L37.6463 610.367 L37.6463 600.93 L39.7075 600.93 L39.7075 610.367 L58.0326 610.367 Q65.1501 610.367 65.1501 605.922 Q65.1501 604.022 63.2178 602.766 Q61.2532 601.51 57.775 601.51 L54.1357 601.51 L54.1357 599.867 L57.9038 599.867 Q61.4787 599.867 64.1517 601.51 Q66.8248 603.152 66.8248 606.405 Q66.8248 607.597 66.5028 608.788 Q66.2129 609.948 65.44 611.494 Q64.6348 613.007 62.7025 613.974 Q60.7379 614.908 57.9038 614.908 L39.7075 614.908 L39.7075 620.511 Z" fill="#000000" fill-rule="nonzero" fill-opacity="1" /><path clip-path="url(#clip400)" d="M66.0841 595.976 L64.0551 595.976 Q64.0551 592.466 63.6364 591.66 Q63.1856 590.855 61.06 590.855 L43.3146 590.855 Q40.8669 590.855 40.2872 591.693 Q39.7075 592.498 39.7075 595.718 L37.6463 595.718 L36.9378 586.507 L61.1244 586.507 Q63.0889 586.507 63.572 585.799 Q64.0551 585.09 64.0551 581.87 L66.0841 581.87 Q65.8909 588.601 65.8909 588.73 Q65.8909 589.631 66.0841 595.976 M25.4403 593.206 Q24.1199 593.206 23.0571 592.208 Q21.9621 591.177 21.9621 589.728 Q21.9621 588.279 22.9604 587.248 Q23.9266 586.218 25.4725 586.218 Q26.9862 586.218 27.9846 587.248 Q28.9507 588.279 28.9507 589.728 Q28.9507 591.242 27.8879 592.24 Q26.8252 593.206 25.4403 593.206 Z" fill="#000000" fill-rule="nonzero" fill-opacity="1" /><path clip-path="url(#clip400)" d="M39.7075 577.361 L37.6463 577.361 Q37.8396 574.399 37.8396 570.953 Q37.8396 569.697 37.6463 563.771 L39.7075 563.771 Q39.7075 567.539 41.4144 567.539 Q41.6721 567.539 42.5416 567.152 L60.9312 559.745 L44.1197 553.014 Q42.9925 552.627 42.5416 552.627 Q41.4144 552.627 40.6093 553.4 Q39.7719 554.141 39.7075 555.784 L37.6463 555.784 Q37.8396 552.434 37.8396 550.051 Q37.8396 547.346 37.6463 545.123 L39.7075 545.123 Q39.7075 547.088 40.6093 548.473 Q41.4788 549.858 42.2518 550.309 Q42.9925 550.727 44.1197 551.178 L65.5688 559.809 Q66.8248 560.325 66.8248 561.194 Q66.8248 561.774 66.5672 562.032 Q66.3417 562.257 65.5688 562.579 L42.1551 572.08 Q40.5126 572.724 40.1262 573.561 Q39.7075 574.399 39.7075 577.361 Z" fill="#000000" fill-rule="nonzero" fill-opacity="1" /><path clip-path="url(#clip400)" d="M51.5593 541.053 Q45.3435 541.053 40.9313 537.059 Q36.5191 533.066 36.5191 527.333 Q36.5191 521.536 40.2872 518.541 Q44.0553 515.514 49.4659 515.514 Q50.4643 515.514 50.6575 515.771 Q50.8507 516.029 50.8507 517.156 L50.8507 535.578 Q57.5817 535.578 60.7379 533.581 Q65.1501 530.812 65.1501 526.142 Q65.1501 525.498 65.0213 524.725 Q64.8925 523.952 64.345 522.374 Q63.7653 520.796 62.2516 519.411 Q60.7379 518.026 58.3547 517.221 Q57.4207 517.027 57.4529 516.383 Q57.4529 515.514 58.2259 515.514 Q58.8056 515.514 60.126 516.158 Q61.4142 516.77 62.9601 517.961 Q64.506 519.153 65.6654 521.472 Q66.8248 523.758 66.8248 526.528 Q66.8248 532.325 62.4448 536.705 Q58.0326 541.053 51.5593 541.053 M49.4659 535.514 L49.4659 519.862 Q48.081 519.862 46.5351 520.119 Q44.9893 520.345 42.8637 521.053 Q40.7059 521.73 39.3532 523.34 Q38.0006 524.95 38.0006 527.333 Q38.0006 528.396 38.4515 529.556 Q38.9023 530.683 39.9973 532.068 Q41.0923 533.452 43.5722 534.419 Q46.052 535.385 49.4659 535.514 Z" fill="#000000" fill-rule="nonzero" fill-opacity="1" /><path clip-path="url(#clip400)" d="M60.5447 505.294 Q53.556 512.057 43.54 512.057 Q33.4918 512.057 26.5353 505.23 Q19.5788 498.402 19.5788 489.127 Q19.5788 486.808 20.1263 484.843 Q20.6416 482.847 21.7044 481.268 Q22.735 479.69 23.4435 478.885 Q24.1199 478.048 25.2471 476.921 L20.384 473.603 Q19.5788 473.088 19.5788 472.573 Q19.5788 472.025 19.9009 471.929 Q20.1907 471.832 21.1569 471.832 L36.809 471.832 Q37.8718 471.832 38.1294 471.961 Q38.3871 472.09 38.3871 472.895 Q38.3871 473.539 38.1938 473.668 Q38.0006 473.797 37.2598 473.958 Q30.1424 474.956 25.8912 478.95 Q21.64 482.911 21.64 488.322 Q21.64 489.9 21.9943 491.671 Q22.3485 493.41 23.7012 495.987 Q25.0538 498.531 27.276 500.495 Q29.466 502.428 33.7172 503.845 Q37.9362 505.262 43.54 505.262 Q49.0794 505.262 53.3306 503.845 Q57.5817 502.428 59.804 500.463 Q61.994 498.466 63.3788 495.89 Q64.7637 493.281 65.1501 491.446 Q65.5044 489.578 65.5044 487.935 Q65.5044 486.808 65.2789 485.487 Q65.0213 484.167 64.3128 482.202 Q63.572 480.206 61.8329 478.95 Q60.0938 477.694 57.5173 477.694 L53.2984 477.694 Q51.3338 477.694 50.7219 478.66 Q50.11 479.626 50.11 483.845 L50.11 485.938 L48.081 485.938 Q48.2743 483.555 48.2743 475.343 Q48.2743 474.602 48.081 467.291 L50.11 467.291 Q50.11 470.447 50.5931 471.156 Q51.044 471.832 53.0085 471.832 L64.506 471.832 Q66.0197 471.832 66.0197 472.412 Q66.0197 472.927 64.5382 474.473 Q63.0567 475.987 61.9295 476.663 Q64.6992 478.241 66.1163 481.687 Q67.5334 485.101 67.5334 488.998 Q67.5334 498.499 60.5447 505.294 Z" fill="#000000" fill-rule="nonzero" fill-opacity="1" /><path clip-path="url(#clip400)" d="M59.804 461.388 Q54.2001 461.388 51.2372 454.786 Q49.337 450.825 48.854 442.644 L46.4385 442.644 Q42.3484 442.644 40.1906 444.802 Q38.0006 446.928 38.0006 449.633 Q38.0006 454.464 41.0279 456.783 Q41.0923 454.818 42.0907 454.11 Q43.0569 453.401 44.0553 453.401 Q45.3757 453.401 46.2453 454.239 Q47.0826 455.044 47.0826 456.429 Q47.0826 457.749 46.2775 458.619 Q45.4401 459.488 43.9909 459.488 Q40.7703 459.488 38.6447 456.59 Q36.5191 453.659 36.5191 449.504 Q36.5191 444.094 40.1584 440.487 Q41.2856 439.359 42.7348 438.812 Q44.1841 438.232 45.1503 438.168 Q46.0843 438.103 47.9522 438.103 L61.1244 438.103 Q61.5109 438.103 62.155 437.975 Q62.7991 437.846 63.6364 437.266 Q64.4416 436.654 64.4416 435.656 Q64.4416 433.272 60.2226 433.305 L56.519 433.305 L56.519 431.63 L60.2226 431.63 Q63.7331 431.63 65.1179 433.498 Q66.4706 435.334 66.4706 437.041 Q66.4706 439.231 64.8603 440.615 Q63.25 442 61.06 442.194 Q63.572 443.192 65.2145 445.479 Q66.8248 447.733 66.8248 450.825 Q66.8248 453.208 66.2129 455.462 Q65.6332 457.685 63.9907 459.552 Q62.316 461.388 59.804 461.388 M59.7395 456.3 Q62.1872 456.3 63.7653 454.561 Q65.3434 452.821 65.3434 450.374 Q65.3434 447.604 63.2178 445.124 Q61.06 442.644 56.841 442.644 L50.2388 442.644 Q50.4965 449.955 53.4272 453.144 Q56.3257 456.3 59.7395 456.3 Z" fill="#000000" fill-rule="nonzero" fill-opacity="1" /><path clip-path="url(#clip400)" d="M76.8409 434.004 Q76.8409 430.494 76.39 429.689 Q75.9713 428.851 73.8779 428.851 L42.9925 428.851 Q40.8025 428.851 40.255 429.689 Q39.7075 430.494 39.7075 434.004 L37.6463 434.004 L36.9378 424.503 L41.2856 424.503 Q36.9378 420.542 36.9378 415.26 Q36.9378 409.657 41.2856 405.566 Q45.6334 401.476 51.8491 401.476 Q58.1292 401.476 62.477 405.824 Q66.8248 410.172 66.8248 416.194 Q66.8248 419.479 65.1501 421.702 Q63.4432 423.892 62.1872 424.31 L62.7991 424.31 L73.8779 424.31 Q76.0035 424.31 76.4222 423.473 Q76.8409 422.635 76.8409 419.157 L78.8698 419.157 Q78.6766 426.082 78.6766 426.597 Q78.6766 427.241 78.8698 434.004 L76.8409 434.004 M58.5801 424.31 Q59.5785 424.31 59.9328 424.181 Q60.287 424.02 61.3498 423.376 Q65.3434 420.768 65.3434 416.516 Q65.3434 416.484 65.3434 416.452 Q65.3434 412.684 61.5109 409.818 Q57.6462 406.951 51.8491 406.951 Q46.3097 406.951 42.445 409.56 Q38.5803 412.169 38.5803 415.776 Q38.5803 418.352 39.9651 420.607 Q41.35 422.861 43.8621 424.31 L58.5801 424.31 Z" fill="#000000" fill-rule="nonzero" fill-opacity="1" /><polyline clip-path="url(#clip402)" style="stroke:#785ef0; stroke-linecap:round; stroke-linejoin:round; stroke-width:8; stroke-opacity:1; fill:none" points="276.876,96.2523 308.812,146.039 340.749,225.264 372.685,329.926 404.622,442.127 436.559,555.307 468.495,668.591 500.432,781.884 532.368,895.175 564.305,1008.46 596.242,1121.74 628.178,1235.02 660.115,1348.32 692.052,1461.96 "/>
<polyline clip-path="url(#clip402)" style="stroke:#785ef0; stroke-linecap:round; stroke-linejoin:round; stroke-width:8; stroke-opacity:1; fill:none" stroke-dasharray="32, 20" points="276.876,96.2523 309.351,145.265 341.827,222.109 374.303,323.887 406.779,434.65 439.254,547.216 471.73,660.153 504.206,773.171 536.682,886.192 569.157,999.195 601.633,1112.17 634.109,1225.11 666.585,1338.04 699.061,1451.2 "/>
<polyline clip-path="url(#clip402)" style="stroke:#fe6100; stroke-linecap:round; stroke-linejoin:round; stroke-width:8; stroke-opacity:1; fill:none" points="276.876,96.2523 307.06,140.993 337.244,217.595 367.428,217.595 397.613,217.595 427.797,320.91 457.981,432.894 488.165,546.051 518.35,546.051 548.534,659.333 578.718,772.627 608.903,880.687 639.087,993.975 669.271,1110.59 699.455,1110.59 729.64,1245.94 759.824,1245.94 790.008,1245.94 820.193,1245.94 850.377,1318.12 880.561,1318.12 910.745,1318.12 940.93,1318.12 971.114,1318.12 1001.3,1318.12 1031.48,1318.12 1061.67,1318.12 1091.85,1318.12 1122.04,1318.12 1152.22,1318.12 1182.4,1318.12 1212.59,1318.12 1242.77,1318.12 1272.96,1318.12 1303.14,1318.12 1333.33,1318.12 1363.51,1318.12 1393.69,1318.12 1423.88,1318.12 1454.06,1326.73 1484.25,1326.73 1514.43,1387.83 1544.62,1729.86 "/>
<polyline clip-path="url(#clip402)" style="stroke:#fe6100; stroke-linecap:round; stroke-linejoin:round; stroke-width:8; stroke-opacity:1; fill:none" stroke-dasharray="32, 20" points="276.876,96.2523 303.945,146.037 331.014,225.261 358.083,325.272 385.152,325.272 412.221,427.445 439.29,429.774 466.359,542.923 493.428,544.251 520.497,657.533 547.566,770.826 574.635,884.122 601.704,884.122 628.773,987.351 655.842,1107.49 682.911,1220.94 709.98,1220.94 737.049,1220.94 764.118,1220.94 791.187,1220.94 818.256,1220.94 845.325,1220.94 872.394,1530.1 "/>
<polyline clip-path="url(#clip402)" style="stroke:#ffb000; stroke-linecap:round; stroke-linejoin:round; stroke-width:8; stroke-opacity:1; fill:none" points="276.876,96.2523 293.822,171.765 310.768,285.123 327.714,344.881 344.66,344.881 361.607,399.036 378.553,399.036 395.499,441.822 412.445,441.822 429.392,479.763 446.338,479.763 463.284,516.253 480.23,516.253 497.177,553.984 514.123,553.984 531.069,596.285 548.015,596.285 564.962,649.516 581.908,649.516 598.854,734.126 615.8,734.126 632.746,924.746 649.693,924.746 666.639,924.746 683.585,924.746 700.531,1063.68 717.478,1063.68 734.424,1063.68 751.37,1063.68 768.316,1063.68 785.263,1063.68 802.209,1063.68 819.155,1063.68 836.101,1063.68 853.048,1063.68 869.994,1063.68 886.94,1063.68 903.886,1063.68 920.832,1063.68 937.779,1063.68 954.725,1063.68 971.671,1063.68 988.617,1063.68 1005.56,1063.68 1022.51,1063.68 1039.46,1063.68 1056.4,1063.68 1073.35,1063.68 1090.29,1063.68 1107.24,1063.68 1124.19,1063.68 1141.13,1063.68 1158.08,1063.68 1175.03,1063.68 1191.97,1063.68 1208.92,1063.68 1225.86,1063.68 1242.81,1063.68 1259.76,1063.68 1276.7,1063.68 1293.65,1063.68 1310.6,1063.68 1327.54,1063.68 1344.49,1063.68 1361.43,1063.68 1378.38,1063.68 1395.33,1063.68 1412.27,1063.68 1429.22,1063.68 1446.17,1063.68 1463.11,1063.68 1480.06,1063.68 1497,1063.68 1513.95,1063.68 1530.9,1063.68 1547.84,1063.68 1564.79,1063.68 1581.74,1063.68 1598.68,1063.68 1615.63,1063.68 1632.57,1063.68 1649.52,1063.68 1666.47,1063.68 1683.41,1063.68 1700.36,1063.68 1717.31,1063.68 1734.25,1063.68 1751.2,1063.68 1768.14,1063.68 1785.09,1063.68 1802.04,1063.68 1818.98,1063.68 1835.93,1063.68 1852.88,1063.68 1869.82,1063.68 1886.77,1063.68 1903.71,1063.68 1920.66,1063.68 1937.61,1063.68 1954.55,1063.68 1971.5,1063.68 1988.45,1063.68 2005.39,1063.68 2022.34,1063.68 2039.28,1063.68 2056.23,1063.68 2073.18,1063.68 2090.12,1063.68 2107.07,1063.68 2124.02,1063.68 2140.96,1063.68 2157.91,1063.68 2174.85,1063.68 2191.8,1063.68 2208.75,1063.68 2225.69,1063.68 2242.64,1063.68 2259.59,1063.68 2276.53,1063.68 2293.48,1063.68 2310.42,1063.68 2327.37,1063.68 2344.32,1063.68 2361.26,1063.68 2378.21,1063.68 2395.15,1063.68 2412.1,1063.68 2429.05,1063.68 2445.99,1063.68 2462.94,1063.68 2479.89,1063.68 2496.83,1063.68 2513.78,1063.68 2530.72,1063.68 2547.67,1063.68 2564.62,1063.68 2581.56,1063.68 2598.51,1063.68 2615.46,1063.68 2632.4,1063.68 2649.35,1063.68 2666.29,1063.68 2683.24,1063.68 2700.19,1063.68 2717.13,1063.68 2734.08,1063.68 2751.03,1063.68 2767.97,1063.68 2784.92,1063.68 2801.86,1063.68 2818.81,1063.68 2835.76,1063.68 2852.7,1063.68 2869.65,1063.68 2886.6,1063.68 2903.54,1063.68 2920.49,1063.68 2937.43,1063.68 2954.38,1063.68 2971.33,1063.68 2988.27,1063.68 3005.22,1063.68 3022.17,1063.68 3039.11,1063.68 3056.06,1063.68 3073,1063.68 3089.95,1063.68 3106.9,1063.68 3123.84,1063.68 3140.79,1063.68 3157.74,1063.68 3174.68,1063.68 3191.63,1063.68 3208.57,1063.68 3225.52,1063.68 3242.47,1063.68 3259.41,1063.68 3276.36,1063.68 3293.31,1063.68 3310.25,1063.68 3327.2,1063.68 3344.14,1063.68 3361.09,1063.68 3378.04,1064.66 3394.98,1064.66 3411.93,1065.71 3428.88,1065.71 3445.82,1066.75 3462.77,1066.75 3479.71,1067.79 3496.66,1067.79 3513.61,1068.81 3530.55,1068.81 3547.5,1069.82 3564.45,1069.82 3581.39,1070.82 3598.34,1070.82 3615.28,1071.81 3632.23,1071.81 3649.18,1072.79 3666.12,1072.79 3683.07,1073.76 3700.02,1073.76 3716.96,1074.72 3733.91,1074.72 3750.85,1075.67 3767.8,1075.67 3784.75,1076.61 3801.69,1076.61 3818.64,1077.55 3835.59,1077.55 3852.53,1078.47 3869.48,1078.47 3886.42,1079.39 3903.37,1079.39 3920.32,1080.29 3937.26,1080.29 3954.21,1081.19 3971.15,1081.19 3988.1,1082.08 4005.05,1082.08 4021.99,1082.97 4038.94,1082.97 4055.89,1083.84 4072.83,1083.84 4089.78,1084.71 4106.72,1084.71 4123.67,1085.57 4140.62,1085.57 4157.56,1086.42 4174.51,1086.42 4191.46,1087.26 4208.4,1087.26 4225.35,1088.1 4242.29,1088.1 4259.24,1088.93 4276.19,1088.93 4293.13,1089.75 4310.08,1089.75 4327.03,1090.57 4343.97,1090.57 4360.92,1091.38 4377.86,1091.38 4394.81,1092.18 4411.76,1092.18 4428.7,1092.98 4445.65,1092.98 4462.6,1093.76 4479.54,1093.76 4496.49,1094.55 4513.43,1094.55 4530.38,1095.32 4547.33,1095.32 4564.27,1096.1 4581.22,1096.1 4598.17,1096.86 4615.11,1096.86 4632.06,1097.62 4649,1097.62 4665.95,1098.37 4682.9,1098.37 4699.84,1099.12 4716.79,1099.12 4733.74,1099.86 4750.68,1099.86 4767.63,1100.6 4784.57,1100.6 4801.52,1101.33 4818.47,1101.33 4835.41,1102.05 4852.36,1102.05 4869.31,1102.77 4886.25,1102.77 4903.2,1103.48 4920.14,1103.48 4937.09,1104.19 4954.04,1104.19 4970.98,1104.9 4987.93,1104.9 5004.88,1105.59 5021.82,1105.59 5038.77,1106.29 5055.71,1106.29 5072.66,1106.98 5089.61,1106.98 5106.55,1107.66 5123.5,1107.66 5140.45,1108.34 5157.39,1108.34 5174.34,1109.01 5191.28,1109.01 5208.23,1109.68 5225.18,1109.68 5242.12,1110.35 5259.07,1110.35 5276.02,1111.01 5292.96,1111.01 5309.91,1111.67 5326.85,1111.67 5343.8,1112.32 5360.75,1112.32 5377.69,1112.96 5394.64,1112.96 5411.58,1113.61 5428.53,1113.61 5445.48,1114.25 5462.42,1114.25 5479.37,1114.88 5496.32,1114.88 5513.26,1115.51 5530.21,1115.51 5547.15,1116.14 5564.1,1116.14 5581.05,1116.76 5597.99,1116.76 5614.94,1117.38 5631.89,1117.38 5648.83,1117.99 5665.78,1117.99 5682.72,1118.6 5699.67,1118.6 5716.62,1119.21 5733.56,1119.21 5750.51,1119.81 5767.46,1119.81 5784.4,1120.41 5801.35,1120.41 5818.29,1121.01 5835.24,1121.01 5852.19,1121.6 5869.13,1121.6 5886.08,1122.19 5903.03,1122.19 5919.97,1122.78 5936.92,1122.78 5953.86,1123.36 5970.81,1123.36 5987.76,1123.93 6004.7,1123.93 6021.65,1124.51 6038.6,1124.51 6055.54,1125.08 6072.49,1125.08 6089.43,1125.65 6106.38,1125.65 6123.33,1126.21 6140.27,1126.21 6157.22,1126.77 6174.17,1126.77 6191.11,1127.33 6208.06,1127.33 6225,1127.89 6241.95,1127.89 6258.9,1128.44 6275.84,1128.44 6292.79,1128.99 6309.74,1128.99 6326.68,1129.53 6343.63,1129.53 6360.57,1130.07 6377.52,1130.07 6394.47,1130.61 6411.41,1130.61 6428.36,1131.15 6445.31,1131.15 6462.25,1131.68 6479.2,1131.68 6496.14,1132.21 6513.09,1132.21 6530.04,1132.74 6546.98,1132.74 6563.93,1133.27 6580.88,1133.27 6597.82,1133.79 6614.77,1133.79 6631.71,1134.31 6648.66,1134.31 6665.61,1134.82 6682.55,1134.82 6699.5,1135.34 6716.45,1135.34 6733.39,1135.85 6750.34,1135.85 6767.28,1136.36 6784.23,1136.36 6801.18,1136.86 6818.12,1136.86 6835.07,1137.37 6852.02,1137.37 6868.96,1137.87 6885.91,1137.87 6902.85,1138.36 6919.8,1138.36 6936.75,1138.86 6953.69,1138.86 6970.64,1139.35 6987.58,1139.35 7004.53,1139.84 7021.48,1139.84 7038.42,1140.33 7055.37,1140.33 7072.32,1140.82 7089.26,1140.82 7106.21,1141.3 7123.15,1141.3 7140.1,1141.78 7157.05,1141.78 7173.99,1142.26 7190.94,1142.26 7207.89,1142.73 7224.83,1142.73 7241.78,1143.21 7258.72,1143.21 7275.67,1143.68 7292.62,1143.68 7309.56,1144.15 7326.51,1144.15 7343.46,1144.61 7360.4,1144.61 7377.35,1145.08 7394.29,1145.08 7411.24,1145.54 7428.19,1145.54 7445.13,1146 7462.08,1146 7479.03,1146.46 7495.97,1146.46 7512.92,1146.91 7529.86,1146.91 7546.81,1147.37 7563.76,1147.37 7580.7,1147.82 7597.65,1147.82 7614.6,1148.27 7631.54,1148.27 7648.49,1148.72 7665.43,1148.72 7682.38,1149.16 7699.33,1149.16 7716.27,1149.6 7733.22,1149.6 7750.17,1150.04 7767.11,1150.04 7784.06,1150.48 7801,1150.48 7817.95,1150.92 7834.9,1150.92 7851.84,1151.36 7868.79,1151.36 7885.74,1151.79 7902.68,1151.79 7919.63,1152.22 7936.57,1152.22 7953.52,1152.65 7970.47,1152.65 7987.41,1153.08 8004.36,1153.08 8021.31,1153.5 8038.25,1153.5 8055.2,1153.93 8072.14,1153.93 8089.09,1154.35 8106.04,1154.35 8122.98,1154.77 8139.93,1154.77 8156.88,1155.19 8173.82,1155.19 8190.77,1155.6 8207.71,1155.6 8224.66,1156.02 8241.61,1156.02 8258.55,1156.43 8275.5,1156.43 8292.45,1156.84 8309.39,1156.84 8326.34,1157.25 8343.28,1157.25 8360.23,1157.66 8377.18,1157.66 8394.12,1158.07 8411.07,1158.07 8428.01,1158.47 8444.96,1158.47 8461.91,1158.87 8478.85,1158.87 8495.8,1159.27 8512.75,1159.27 8529.69,1159.67 8546.64,1159.67 8563.58,1160.07 8580.53,1160.07 8597.48,1160.47 8614.42,1160.47 8631.37,1160.86 8648.32,1160.86 8665.26,1161.25 8682.21,1161.25 8699.15,1161.64 8716.1,1161.64 8733.05,1162.03 8749.99,1162.03 8766.94,1162.42 8783.89,1162.42 8800.83,1162.81 8817.78,1162.81 8834.72,1163.19 8851.67,1163.19 8868.62,1163.58 8885.56,1163.58 8902.51,1163.96 8919.46,1163.96 8936.4,1164.34 8953.35,1164.34 8970.29,1164.72 8987.24,1164.72 9004.19,1165.1 9021.13,1165.1 9038.08,1165.47 9055.03,1165.47 9071.97,1165.85 9088.92,1165.85 9105.86,1166.22 9122.81,1166.22 9139.76,1166.59 9156.7,1166.59 9173.65,1166.96 9190.6,1166.96 9207.54,1167.33 9224.49,1167.33 9241.43,1167.7 9258.38,1167.7 9275.33,1168.06 9292.27,1168.06 9309.22,1168.43 9326.17,1168.43 9343.11,1168.79 9360.06,1168.79 9377,1169.15 9393.95,1169.15 9410.9,1169.52 9427.84,1169.52 9444.79,1169.87 9461.74,1169.87 9478.68,1170.23 9495.63,1170.23 9512.57,1170.59 9529.52,1170.59 9546.47,1170.94 9563.41,1170.94 9580.36,1171.3 9597.31,1171.3 9614.25,1171.65 9631.2,1171.65 9648.14,1172 9665.09,1172 9682.04,1172.35 9698.98,1172.35 9715.93,1172.7 9732.88,1172.7 9749.82,1173.05 9766.77,1173.05 9783.71,1173.4 9800.66,1173.4 9817.61,1173.74 9834.55,1173.74 9851.5,1174.08 9868.44,1174.08 9885.39,1174.43 9902.34,1174.43 9919.28,1174.77 9936.23,1174.77 9953.18,1175.11 9970.12,1175.11 9987.07,1175.45 10004,1175.45 10021,1175.79 10037.9,1175.79 10054.9,1176.12 10071.8,1176.12 10088.7,1176.46 10105.7,1176.46 10122.6,1176.79 10139.6,1176.79 10156.5,1177.13 10173.5,1177.13 10190.4,1177.46 10207.4,1177.46 10224.3,1177.79 10241.3,1177.79 10258.2,1178.12 10275.2,1178.12 10292.1,1178.45 10309,1178.45 10326,1178.78 10342.9,1178.78 10359.9,1179.1 10376.8,1179.1 10393.8,1179.43 10410.7,1179.43 10427.7,1179.75 10444.6,1179.75 10461.6,1180.08 10478.5,1180.08 10495.5,1180.4 10512.4,1180.4 10529.3,1180.72 10546.3,1180.72 10563.2,1181.04 10580.2,1181.04 10597.1,1181.36 10614.1,1181.36 10631,1181.68 10648,1181.68 10664.9,1181.99 10681.9,1181.99 10698.8,1182.31 10715.8,1182.31 10732.7,1182.62 10749.6,1182.62 10766.6,1182.94 10783.5,1182.94 10800.5,1183.25 10817.4,1183.25 10834.4,1183.56 10851.3,1183.56 10868.3,1183.87 10885.2,1183.87 10902.2,1184.18 10919.1,1184.18 10936.1,1184.49 10953,1184.49 10970,1184.8 10986.9,1184.8 11003.8,1185.11 11020.8,1185.11 11037.7,1185.41 11054.7,1185.41 11071.6,1185.72 11088.6,1185.72 11105.5,1186.02 11122.5,1186.02 11139.4,1186.32 11156.4,1186.32 11173.3,1186.63 11190.3,1186.63 11207.2,1186.93 11224.1,1186.93 11241.1,1187.23 11258,1187.23 11275,1187.53 11291.9,1187.53 11308.9,1187.83 11325.8,1187.83 11342.8,1188.12 11359.7,1188.12 11376.7,1188.42 11393.6,1188.42 11410.6,1188.71 11427.5,1188.71 11444.4,1189.01 11461.4,1189.01 11478.3,1189.3 11495.3,1189.3 11512.2,1189.6 11529.2,1189.6 11546.1,1189.89 11563.1,1189.89 11580,1190.18 11597,1190.18 11613.9,1190.47 11630.9,1190.47 11647.8,1190.76 11664.7,1190.76 11681.7,1191.05 11698.6,1191.05 11715.6,1191.34 11732.5,1191.34 11749.5,1191.62 11766.4,1191.62 11783.4,1191.91 11800.3,1191.91 11817.3,1192.19 11834.2,1192.19 11851.2,1192.48 11868.1,1192.48 11885,1192.76 11902,1192.76 11918.9,1193.04 11935.9,1193.04 11952.8,1193.33 11969.8,1193.33 11986.7,1193.61 12003.7,1193.61 12020.6,1193.89 12037.6,1193.89 12054.5,1194.17 12071.5,1194.17 12088.4,1194.44 12105.3,1194.44 12122.3,1194.72 12139.2,1194.72 12156.2,1195 12173.1,1195 12190.1,1195.28 12207,1195.28 12224,1195.55 12240.9,1195.55 12257.9,1195.83 12274.8,1195.83 12291.8,1196.1 12308.7,1196.1 12325.6,1196.37 12342.6,1196.37 12359.5,1196.65 12376.5,1196.65 12393.4,1196.92 12410.4,1196.92 12427.3,1197.19 12444.3,1197.19 12461.2,1197.46 12478.2,1197.46 12495.1,1197.73 12512.1,1197.73 12529,1198 12546,1198 12562.9,1198.26 12579.8,1198.26 12596.8,1198.53 12613.7,1198.53 12630.7,1198.8 12647.6,1198.8 12664.6,1199.06 12681.5,1199.06 12698.5,1199.33 12715.4,1199.33 12732.4,1199.59 12749.3,1199.59 12766.3,1199.85 12783.2,1199.85 12800.1,1200.12 12817.1,1200.12 12834,1200.38 12851,1200.38 12867.9,1200.64 12884.9,1200.64 12901.8,1200.9 12918.8,1200.9 12935.7,1201.16 12952.7,1201.16 12969.6,1201.42 12986.6,1201.42 13003.5,1201.68 13020.4,1201.68 13037.4,1201.94 13054.3,1201.94 13071.3,1202.19 13088.2,1202.19 13105.2,1202.45 13122.1,1202.45 13139.1,1202.71 13156,1202.71 13173,1202.96 13189.9,1202.96 13206.9,1203.22 13223.8,1203.22 13240.7,1203.47 13257.7,1203.47 13274.6,1203.72 13291.6,1203.72 13308.5,1203.97 13325.5,1203.97 13342.4,1204.23 13359.4,1204.23 13376.3,1204.48 13393.3,1204.48 13410.2,1204.73 13427.2,1204.73 13444.1,1204.98 13461,1204.98 13478,1205.23 13494.9,1205.23 13511.9,1205.48 13528.8,1205.48 13545.8,1205.72 13562.7,1205.72 13579.7,1205.97 13596.6,1205.97 13613.6,1206.22 13630.5,1206.22 13647.5,1206.46 13664.4,1206.46 13681.3,1206.71 13698.3,1206.71 13715.2,1206.95 13732.2,1206.95 13749.1,1207.2 13766.1,1207.2 13783,1207.44 13800,1207.44 13816.9,1207.68 13833.9,1207.68 13850.8,1207.93 13867.8,1207.93 13884.7,1208.17 13901.6,1208.17 13918.6,1208.41 13935.5,1208.41 13952.5,1208.65 13969.4,1208.65 13986.4,1208.89 14003.3,1208.89 14020.3,1209.13 14037.2,1209.13 14054.2,1209.37 14071.1,1209.37 14088.1,1209.61 14105,1209.61 14122,1209.84 14138.9,1209.84 14155.8,1210.08 14172.8,1210.08 14189.7,1210.32 14206.7,1210.32 14223.6,1210.55 14240.6,1210.55 14257.5,1210.79 14274.5,1210.79 14291.4,1211.02 14308.4,1211.02 14325.3,1211.26 14342.3,1211.26 14359.2,1211.49 14376.1,1211.49 14393.1,1211.72 14410,1211.72 14427,1211.96 14443.9,1211.96 14460.9,1212.19 14477.8,1212.19 14494.8,1212.42 14511.7,1212.42 14528.7,1212.65 14545.6,1212.65 14562.6,1212.88 14579.5,1212.88 14596.4,1213.11 14613.4,1213.11 14630.3,1213.34 14647.3,1213.34 14664.2,1213.57 14681.2,1213.57 14698.1,1213.79 14715.1,1213.79 14732,1214.02 14749,1214.02 14765.9,1214.25 14782.9,1214.25 14799.8,1214.48 14816.7,1214.48 14833.7,1214.7 14850.6,1214.7 14867.6,1214.93 14884.5,1214.93 14901.5,1215.15 14918.4,1215.15 14935.4,1215.38 14952.3,1215.38 14969.3,1215.6 14986.2,1215.6 15003.2,1215.82 15020.1,1215.82 15037,1216.05 15054,1216.05 15070.9,1216.27 15087.9,1216.27 15104.8,1216.49 15121.8,1216.49 15138.7,1216.71 15155.7,1216.71 15172.6,1216.93 15189.6,1216.93 15206.5,1217.15 15223.5,1217.15 15240.4,1217.37 15257.3,1217.37 15274.3,1217.59 15291.2,1217.59 15308.2,1217.81 15325.1,1217.81 15342.1,1218.03 15359,1218.03 15376,1218.25 15392.9,1218.25 15409.9,1218.46 15426.8,1218.46 15443.8,1218.68 15460.7,1218.68 15477.6,1218.9 15494.6,1218.9 15511.5,1219.11 15528.5,1219.11 15545.4,1219.33 15562.4,1219.33 15579.3,1219.54 15596.3,1219.54 15613.2,1219.76 15630.2,1219.76 15647.1,1219.97 15664.1,1219.97 15681,1220.18 15698,1220.18 15714.9,1220.4 15731.8,1220.4 15748.8,1220.61 15765.7,1220.61 15782.7,1220.82 15799.6,1220.82 15816.6,1221.03 15833.5,1221.03 15850.5,1221.24 15867.4,1221.24 15884.4,1221.46 15901.3,1221.46 15918.3,1221.67 15935.2,1221.67 15952.1,1221.87 15969.1,1221.87 15986,1222.08 16003,1222.08 16019.9,1222.29 16036.9,1222.29 16053.8,1222.5 16070.8,1222.5 16087.7,1222.71 16104.7,1222.71 16121.6,1222.92 16138.6,1222.92 16155.5,1223.12 16172.4,1223.12 16189.4,1223.33 16206.3,1223.33 16223.3,1223.54 16240.2,1223.54 16257.2,1223.74 16274.1,1223.74 16291.1,1223.95 16308,1223.95 16325,1224.15 16341.9,1224.15 16358.9,1224.36 16375.8,1224.36 16392.7,1224.56 16409.7,1224.56 16426.6,1224.76 16443.6,1224.76 16460.5,1224.97 16477.5,1224.97 16494.4,1225.17 16511.4,1225.17 16528.3,1225.37 16545.3,1225.37 16562.2,1225.57 16579.2,1225.57 16596.1,1225.78 16613,1225.78 16630,1225.98 16646.9,1225.98 16663.9,1226.18 16680.8,1226.18 16697.8,1226.38 16714.7,1226.38 16731.7,1226.58 16748.6,1226.58 16765.6,1226.78 16782.5,1226.78 16799.5,1226.98 16816.4,1226.98 16833.3,1227.17 16850.3,1227.17 16867.2,1227.37 16884.2,1227.37 16901.1,1227.57 16918.1,1227.57 16935,1227.77 16952,1227.77 16968.9,1227.96 16985.9,1227.96 17002.8,1228.16 17019.8,1228.16 17036.7,1228.36 17053.6,1228.36 17070.6,1228.55 17087.5,1228.55 17104.5,1228.75 17121.4,1228.75 17138.4,1228.94 17155.3,1228.94 17172.3,1229.14 17189.2,1229.14 17206.2,1229.33 17223.1,1229.33 "/>
<polyline clip-path="url(#clip402)" style="stroke:#ffb000; stroke-linecap:round; stroke-linejoin:round; stroke-width:8; stroke-opacity:1; fill:none" stroke-dasharray="32, 20" points="276.876,96.2523 293.92,169.901 310.965,274.326 328.009,375.941 345.054,375.941 362.099,475.21 379.143,475.21 396.188,635.003 413.233,635.003 430.277,635.003 447.322,635.003 464.367,697.188 481.411,697.188 498.456,725.137 515.501,725.137 532.545,725.137 549.59,725.137 566.635,825.326 583.679,825.326 600.724,825.326 617.769,825.326 634.813,952.374 651.858,952.374 668.902,952.374 685.947,952.374 702.992,952.374 720.036,952.374 737.081,952.374 754.126,952.374 771.17,952.374 788.215,952.374 805.26,986.457 822.304,986.457 839.349,986.457 856.394,986.457 873.438,986.457 890.483,986.457 907.528,986.457 924.572,986.457 941.617,986.457 958.662,986.457 975.706,1017.31 992.751,1017.31 1009.8,1017.31 1026.84,1017.31 1043.88,1017.31 1060.93,1017.31 1077.97,1017.31 1095.02,1017.31 1112.06,1017.31 1129.11,1017.31 1146.15,1017.31 1163.2,1017.31 1180.24,1017.31 1197.29,1017.31 1214.33,1069.02 1231.38,1069.02 1248.42,1069.02 1265.47,1069.02 1282.51,1069.02 1299.55,1069.02 1316.6,1069.02 1333.64,1069.02 1350.69,1069.02 1367.73,1069.02 1384.78,1069.02 1401.82,1069.02 1418.87,1069.02 1435.91,1069.02 1452.96,1069.02 1470,1069.02 1487.05,1069.02 1504.09,1069.02 1521.14,1069.02 1538.18,1069.02 1555.22,1069.02 1572.27,1069.02 1589.31,1069.02 1606.36,1069.02 1623.4,1069.02 1640.45,1069.02 1657.49,1069.02 1674.54,1069.02 1691.58,1069.02 1708.63,1069.02 1725.67,1069.02 1742.72,1069.02 1759.76,1069.02 1776.8,1069.02 1793.85,1069.02 1810.89,1069.02 1827.94,1069.02 1844.98,1069.02 1862.03,1069.02 1879.07,1069.02 1896.12,1069.02 1913.16,1069.02 1930.21,1069.02 1947.25,1069.02 1964.3,1069.02 1981.34,1069.02 1998.39,1069.02 2015.43,1069.02 2032.47,1069.02 2049.52,1069.02 2066.56,1069.02 2083.61,1069.02 2100.65,1069.02 2117.7,1069.02 2134.74,1069.02 2151.79,1069.02 2168.83,1069.02 2185.88,1069.02 2202.92,1069.02 2219.97,1069.02 2237.01,1069.02 2254.06,1069.02 2271.1,1069.02 2288.14,1069.02 2305.19,1069.02 2322.23,1069.02 2339.28,1069.02 2356.32,1069.02 2373.37,1069.02 2390.41,1069.02 2407.46,1069.02 2424.5,1069.02 2441.55,1069.02 2458.59,1069.02 2475.64,1069.02 2492.68,1069.02 2509.72,1069.02 2526.77,1069.02 2543.81,1069.02 2560.86,1069.02 2577.9,1069.02 2594.95,1069.02 2611.99,1069.02 2629.04,1069.02 2646.08,1069.02 2663.13,1069.02 2680.17,1069.02 2697.22,1069.02 2714.26,1069.02 2731.31,1069.02 2748.35,1069.02 2765.39,1069.02 2782.44,1069.02 2799.48,1069.02 2816.53,1069.02 2833.57,1069.02 2850.62,1069.02 2867.66,1069.02 2884.71,1069.02 2901.75,1069.02 2918.8,1069.02 2935.84,1069.02 2952.89,1069.02 2969.93,1069.02 2986.98,1069.02 3004.02,1069.02 3021.06,1069.02 3038.11,1069.02 3055.15,1069.02 3072.2,1069.02 3089.24,1069.05 3106.29,1069.05 3123.33,1072.41 3140.38,1072.41 3157.42,1076.42 3174.47,1076.42 3191.51,1078.71 3208.56,1078.71 3225.6,1081.41 3242.64,1081.41 3259.69,1081.41 3276.73,1081.41 3293.78,1081.41 3310.82,1081.41 3327.87,1081.41 3344.91,1081.41 3361.96,1081.41 3379,1081.41 3396.05,1081.41 3413.09,1081.41 3430.14,1081.41 3447.18,1081.41 3464.23,1081.41 3481.27,1081.41 3498.31,1081.41 3515.36,1081.41 3532.4,1081.41 3549.45,1081.41 3566.49,1081.41 3583.54,1081.41 3600.58,1081.41 3617.63,1081.41 3634.67,1081.41 3651.72,1081.41 3668.76,1081.41 3685.81,1081.41 3702.85,1081.41 3719.9,1081.41 3736.94,1081.41 3753.98,1081.41 3771.03,1081.41 3788.07,1081.41 3805.12,1081.41 3822.16,1081.41 3839.21,1081.41 3856.25,1081.41 3873.3,1081.41 3890.34,1081.41 3907.39,1081.41 3924.43,1081.41 3941.48,1081.41 3958.52,1081.41 3975.56,1083.09 3992.61,1083.09 4009.65,1086.15 4026.7,1086.15 4043.74,1089.59 4060.79,1089.59 4077.83,1092.66 4094.88,1092.66 4111.92,1096.27 4128.97,1096.27 4146.01,1098.99 4163.06,1098.99 4180.1,1102.41 4197.15,1102.41 4214.19,1103.08 4231.23,1103.08 4248.28,1103.62 4265.32,1103.62 4282.37,1103.62 4299.41,1103.62 4316.46,1103.62 4333.5,1103.62 4350.55,1103.62 4367.59,1103.62 4384.64,1103.62 4401.68,1103.62 4418.73,1103.62 4435.77,1103.62 4452.82,1103.62 4469.86,1103.62 4486.9,1103.62 4503.95,1103.62 4520.99,1103.62 4538.04,1103.62 4555.08,1103.62 4572.13,1103.62 4589.17,1103.62 4606.22,1103.62 4623.26,1103.62 4640.31,1103.62 4657.35,1103.62 4674.4,1103.62 4691.44,1103.62 4708.48,1103.62 4725.53,1103.62 4742.57,1103.62 4759.62,1103.62 4776.66,1103.62 4793.71,1103.62 4810.75,1103.62 4827.8,1103.62 4844.84,1103.62 4861.89,1103.87 4878.93,1103.87 4895.98,1106.64 4913.02,1106.64 4930.07,1109.99 4947.11,1109.99 4964.15,1112.51 4981.2,1112.51 4998.24,1115.71 5015.29,1115.71 5032.33,1117.02 5049.38,1117.02 5066.42,1118.78 5083.47,1118.78 5100.51,1118.78 5117.56,1118.78 5134.6,1118.78 5151.65,1118.78 5168.69,1118.78 5185.74,1118.78 5202.78,1118.78 5219.82,1118.78 5236.87,1118.78 5253.91,1118.78 5270.96,1118.78 5288,1118.78 5305.05,1118.78 5322.09,1118.78 5339.14,1118.78 5356.18,1118.78 5373.23,1118.78 5390.27,1118.78 5407.32,1118.78 5424.36,1118.78 5441.4,1118.78 5458.45,1118.78 5475.49,1118.78 5492.54,1118.78 5509.58,1118.78 5526.63,1118.78 5543.67,1118.78 5560.72,1118.78 5577.76,1118.78 5594.81,1118.78 5611.85,1118.78 5628.9,1118.78 5645.94,1118.78 5662.99,1118.78 5680.03,1121.45 5697.07,1121.45 5714.12,1123.67 5731.16,1123.67 5748.21,1126.61 5765.25,1126.61 5782.3,1127.87 5799.34,1127.87 5816.39,1129.73 5833.43,1129.73 5850.48,1129.73 5867.52,1129.73 5884.57,1129.73 5901.61,1129.73 5918.66,1129.73 5935.7,1129.73 5952.74,1129.73 5969.79,1129.73 5986.83,1129.73 6003.88,1129.73 6020.92,1129.73 6037.97,1129.73 6055.01,1129.73 6072.06,1129.73 6089.1,1129.73 6106.15,1129.73 6123.19,1129.73 6140.24,1129.73 6157.28,1129.73 6174.32,1129.73 6191.37,1129.73 6208.41,1129.73 6225.46,1129.73 6242.5,1129.73 6259.55,1129.73 6276.59,1129.73 6293.64,1129.73 6310.68,1129.73 6327.73,1129.73 6344.77,1129.73 6361.82,1129.73 6378.86,1129.73 6395.91,1131.48 6412.95,1131.48 6429.99,1134.28 6447.04,1134.28 6464.08,1135.84 6481.13,1135.84 6498.17,1138.11 6515.22,1138.11 6532.26,1138.22 6549.31,1138.22 6566.35,1138.89 6583.4,1138.89 6600.44,1138.89 6617.49,1138.89 6634.53,1138.89 6651.58,1138.89 6668.62,1138.89 6685.66,1138.89 6702.71,1138.89 6719.75,1138.89 6736.8,1138.89 6753.84,1138.89 6770.89,1138.89 6787.93,1138.89 6804.98,1138.89 6822.02,1138.89 6839.07,1138.89 6856.11,1138.89 6873.16,1138.89 6890.2,1138.89 6907.24,1138.89 6924.29,1138.89 6941.33,1138.89 6958.38,1138.89 6975.42,1138.89 6992.47,1138.89 7009.51,1138.89 7026.56,1138.89 7043.6,1138.89 7060.65,1138.89 7077.69,1140.19 7094.74,1140.19 7111.78,1142.75 7128.83,1142.75 7145.87,1144.11 7162.91,1144.11 7179.96,1146.22 7197,1146.22 7214.05,1146.5 7231.09,1146.5 7248.14,1147.45 7265.18,1147.45 7282.23,1147.45 7299.27,1147.45 7316.32,1147.45 7333.36,1147.45 7350.41,1147.45 7367.45,1147.45 7384.5,1147.45 7401.54,1147.45 7418.58,1147.45 7435.63,1147.45 7452.67,1147.45 7469.72,1147.45 7486.76,1147.45 7503.81,1147.45 7520.85,1147.45 7537.9,1147.45 7554.94,1147.45 7571.99,1147.45 7589.03,1147.45 7606.08,1147.45 7623.12,1147.45 7640.16,1147.45 7657.21,1147.45 7674.25,1147.45 7691.3,1147.45 7708.34,1147.45 7725.39,1147.59 7742.43,1147.59 7759.48,1149.03 7776.52,1149.03 7793.57,1151.3 7810.61,1151.3 7827.66,1152.35 7844.7,1152.35 7861.75,1154.16 7878.79,1154.16 7895.83,1154.26 7912.88,1154.26 7929.92,1155.09 7946.97,1155.09 7964.01,1155.09 7981.06,1155.09 7998.1,1155.09 8015.15,1155.09 8032.19,1155.09 8049.24,1155.09 8066.28,1155.09 8083.33,1155.09 8100.37,1155.09 8117.42,1155.09 8134.46,1155.09 8151.5,1155.09 8168.55,1155.09 8185.59,1155.09 8202.64,1155.09 8219.68,1155.09 8236.73,1155.09 8253.77,1155.09 8270.82,1155.09 8287.86,1155.09 8304.91,1155.09 8321.95,1155.09 8339,1155.09 8356.04,1155.09 8373.08,1155.09 8390.13,1155.09 8407.17,1156.4 8424.22,1156.4 8441.26,1157.53 8458.31,1157.53 8475.35,1159.49 8492.4,1159.49 8509.44,1160.2 8526.49,1160.2 8543.53,1161.69 8560.58,1161.69 8577.62,1161.69 8594.67,1161.69 8611.71,1162.15 8628.75,1162.15 8645.8,1162.15 8662.84,1162.15 8679.89,1162.15 8696.93,1162.15 8713.98,1162.15 8731.02,1162.15 8748.07,1162.15 8765.11,1162.15 8782.16,1162.15 8799.2,1162.15 8816.25,1162.15 8833.29,1162.15 8850.34,1162.15 8867.38,1162.15 8884.42,1162.15 8901.47,1162.15 8918.51,1162.15 8935.56,1162.15 8952.6,1162.15 8969.65,1162.15 8986.69,1162.15 9003.74,1162.15 9020.78,1162.15 9037.83,1162.15 9054.87,1162.78 9071.92,1162.78 9088.96,1164.63 9106,1164.63 9123.05,1165.47 9140.09,1165.47 9157.14,1167.12 9174.18,1167.12 9191.23,1167.51 9208.27,1167.51 9225.32,1168.68 9242.36,1168.68 9259.41,1168.68 9276.45,1168.68 9293.5,1168.75 9310.54,1168.75 9327.59,1168.75 9344.63,1168.75 9361.67,1168.75 9378.72,1168.75 9395.76,1168.75 9412.81,1168.75 9429.85,1168.75 9446.9,1168.75 9463.94,1168.75 9480.99,1168.75 9498.03,1168.75 9515.08,1168.75 9532.12,1168.75 9549.17,1168.75 9566.21,1168.75 9583.26,1168.75 9600.3,1168.75 9617.34,1168.75 9634.39,1168.75 9651.43,1168.75 9668.48,1168.75 9685.52,1168.75 9702.57,1169.86 9719.61,1169.86 9736.66,1170.6 9753.7,1170.6 9770.75,1172.21 9787.79,1172.21 9804.84,1172.78 9821.88,1172.78 9838.92,1174.15 9855.97,1174.15 9873.01,1174.27 9890.06,1174.27 9907.1,1175.18 9924.15,1175.18 9941.19,1175.18 9958.24,1175.18 9975.28,1175.18 9992.33,1175.18 10009.4,1175.18 10026.4,1175.18 10043.5,1175.18 10060.5,1175.18 10077.6,1175.18 10094.6,1175.18 10111.6,1175.18 10128.7,1175.18 10145.7,1175.18 10162.8,1175.18 10179.8,1175.18 10196.9,1175.18 10213.9,1175.18 10231,1175.18 10248,1175.18 10265,1175.18 10282.1,1175.18 10299.1,1175.18 10316.2,1175.23 10333.2,1175.23 10350.3,1175.76 10367.3,1175.76 10384.4,1177.22 10401.4,1177.22 10418.4,1177.77 10435.5,1177.77 10452.5,1179.16 10469.6,1179.16 10486.6,1179.5 10503.7,1179.5 10520.7,1180.62 10537.8,1180.62 10554.8,1180.62 10571.8,1180.62 10588.9,1181.25 10605.9,1181.25 10623,1181.25 10640,1181.25 10657.1,1181.25 10674.1,1181.25 10691.2,1181.25 10708.2,1181.25 10725.2,1181.25 10742.3,1181.25 10759.3,1181.25 10776.4,1181.25 10793.4,1181.25 10810.5,1181.25 10827.5,1181.25 10844.6,1181.25 10861.6,1181.25 10878.6,1181.25 10895.7,1181.25 10912.7,1181.25 10929.8,1181.25 10946.8,1181.25 10963.9,1181.25 10980.9,1181.25 10998,1182.26 11015,1182.26 11032.1,1182.68 11049.1,1182.68 11066.1,1183.97 11083.2,1183.97 11100.2,1184.35 11117.3,1184.35 11134.3,1185.54 11151.4,1185.54 11168.4,1185.69 11185.5,1185.69 11202.5,1186.62 11219.5,1186.62 11236.6,1186.62 11253.6,1186.62 11270.7,1187 11287.7,1187 11304.8,1187 11321.8,1187 11338.9,1187 11355.9,1187 11372.9,1187 11390,1187 11407,1187 11424.1,1187 11441.1,1187 11458.2,1187 11475.2,1187 11492.3,1187 11509.3,1187 11526.3,1187 11543.4,1187 11560.4,1187 11577.5,1187 11594.5,1187 11611.6,1187.37 11628.6,1187.37 11645.7,1187.6 11662.7,1187.6 11679.7,1188.73 11696.8,1188.73 11713.8,1189.05 11730.9,1189.05 11747.9,1190.18 11765,1190.18 11782,1190.43 11799.1,1190.43 11816.1,1191.44 11833.1,1191.44 11850.2,1191.46 11867.2,1191.46 11884.3,1192.24 11901.3,1192.24 11918.4,1192.24 11935.4,1192.24 11952.5,1192.48 11969.5,1192.48 11986.6,1192.48 12003.6,1192.48 12020.6,1192.48 12037.7,1192.48 12054.7,1192.48 12071.8,1192.48 12088.8,1192.48 12105.9,1192.48 12122.9,1192.48 12140,1192.48 12157,1192.48 12174,1192.48 12191.1,1192.48 12208.1,1192.48 12225.2,1192.55 12242.2,1192.55 12259.3,1192.56 12276.3,1192.56 12293.4,1193.5 12310.4,1193.5 12327.4,1193.68 12344.5,1193.68 12361.5,1194.71 12378.6,1194.71 12395.6,1194.94 12412.7,1194.94 12429.7,1195.94 12446.8,1195.94 12463.8,1196.07 12480.8,1196.07 12497.9,1196.95 12514.9,1196.95 12532,1196.95 12549,1196.95 12566.1,1197.56 12583.1,1197.56 12600.2,1197.56 12617.2,1197.56 12634.2,1197.74 12651.3,1197.74 12668.3,1197.74 12685.4,1197.74 12702.4,1197.74 12719.5,1197.74 12736.5,1197.74 12753.6,1197.74 12770.6,1197.74 12787.6,1197.74 12804.7,1197.74 12821.7,1197.74 12838.8,1197.74 12855.8,1197.74 12872.9,1197.74 12889.9,1197.74 12907,1198.31 12924,1198.31 12941.1,1198.33 12958.1,1198.33 12975.1,1199.21 12992.2,1199.21 13009.2,1199.34 13026.3,1199.34 13043.3,1200.27 13060.4,1200.27 13077.4,1200.42 13094.5,1200.42 13111.5,1201.31 13128.5,1201.31 13145.6,1201.36 13162.6,1201.36 13179.7,1202.13 13196.7,1202.13 13213.8,1202.13 13230.8,1202.13 13247.9,1202.62 13264.9,1202.62 13281.9,1202.62 13299,1202.62 13316,1202.79 13333.1,1202.79 13350.1,1202.79 13367.2,1202.79 13384.2,1202.79 13401.3,1202.79 13418.3,1202.79 13435.3,1202.79 13452.4,1202.83 13469.4,1202.83 13486.5,1202.83 13503.5,1202.83 13520.6,1203.12 13537.6,1203.12 13554.7,1203.12 13571.7,1203.12 13588.7,1203.71 13605.8,1203.71 13622.8,1203.72 13639.9,1203.72 13656.9,1204.54 13674,1204.54 13691,1204.63 13708.1,1204.63 13725.1,1205.48 13742.2,1205.48 13759.2,1205.56 13776.2,1205.56 13793.3,1206.36 13810.3,1206.36 13827.4,1206.36 13844.4,1206.36 13861.5,1207.05 13878.5,1207.05 13895.6,1207.05 13912.6,1207.05 13929.6,1207.47 13946.7,1207.47 13963.7,1207.47 13980.8,1207.47 13997.8,1207.65 14014.9,1207.65 14031.9,1207.65 14049,1207.65 14066,1207.72 14083,1207.72 14100.1,1207.72 14117.1,1207.72 14134.2,1207.87 14151.2,1207.87 14168.3,1207.87 14185.3,1207.87 14202.4,1208.21 14219.4,1208.21 14236.4,1208.21 14253.5,1208.21 14270.5,1208.79 14287.6,1208.79 14304.6,1208.79 14321.7,1208.79 14338.7,1209.55 14355.8,1209.55 14372.8,1209.6 14389.8,1209.6 14406.9,1210.37 14423.9,1210.37 14441,1210.41 14458,1210.41 14475.1,1211.14 14492.1,1211.14 14509.2,1211.14 14526.2,1211.14 14543.2,1211.73 14560.3,1211.73 14577.3,1211.73 14594.4,1211.73 14611.4,1212.11 14628.5,1212.11 14645.5,1212.11 14662.6,1212.11 14679.6,1212.32 14696.7,1212.32 14713.7,1212.32 14730.7,1212.32 14747.8,1212.46 14764.8,1212.46 14781.9,1212.46 14798.9,1212.46 14816,1212.66 14833,1212.66 14850.1,1212.66 14867.1,1212.66 14884.1,1213.03 14901.2,1213.03 14918.2,1213.03 14935.3,1213.03 14952.3,1213.59 14969.4,1213.59 14986.4,1213.59 15003.5,1213.59 15020.5,1214.28 15037.5,1214.28 15054.6,1214.3 15071.6,1214.3 15088.7,1215.01 15105.7,1215.01 15122.8,1215.01 15139.8,1215.01 15156.9,1215.68 15173.9,1215.68 15190.9,1215.68 15208,1215.68 15225,1216.21 15242.1,1216.21 15259.1,1216.21 15276.2,1216.21 15293.2,1216.57 15310.3,1216.57 15327.3,1216.57 15344.3,1216.57 15361.4,1216.8 15378.4,1216.8 15395.5,1216.8 15412.5,1216.8 15429.6,1216.99 15446.6,1216.99 15463.7,1216.99 15480.7,1216.99 15497.7,1217.24 15514.8,1217.24 15531.8,1217.24 15548.9,1217.24 15565.9,1217.61 15583,1217.61 15600,1217.61 15617.1,1217.61 15634.1,1218.13 15651.2,1218.13 15668.2,1218.13 15685.2,1218.13 15702.3,1218.76 15719.3,1218.76 15736.4,1218.76 15753.4,1218.76 15770.5,1219.41 15787.5,1219.41 15804.6,1219.41 15821.6,1219.41 15838.6,1220.01 15855.7,1220.01 15872.7,1220.01 15889.8,1220.01 15906.8,1220.5 15923.9,1220.5 15940.9,1220.5 15958,1220.5 15975,1220.86 15992,1220.86 16009.1,1220.86 16026.1,1220.86 16043.2,1221.11 16060.2,1221.11 16077.3,1221.11 16094.3,1221.11 16111.4,1221.33 16128.4,1221.33 16145.4,1221.33 16162.5,1221.33 16179.5,1221.6 16196.6,1221.6 16213.6,1221.6 16230.7,1221.6 16247.7,1221.97 16264.8,1221.97 16281.8,1221.97 16298.8,1221.97 16315.9,1222.46 16332.9,1222.46 16350,1222.46 16367,1222.46 16384.1,1223.03 16401.1,1223.03 16418.2,1223.03 16435.2,1223.03 16452.2,1223.62 16469.3,1223.62 16486.3,1223.62 16503.4,1223.62 16520.4,1224.16 16537.5,1224.16 16554.5,1224.16 16571.6,1224.16 16588.6,1224.62 16605.7,1224.62 16622.7,1224.62 16639.7,1224.62 16656.8,1224.98 16673.8,1224.98 16690.9,1224.98 16707.9,1224.98 16725,1225.25 16742,1225.25 16759.1,1225.25 16776.1,1225.25 16793.1,1225.49 16810.2,1225.49 16827.2,1225.49 16844.3,1225.49 16861.3,1225.78 16878.4,1225.78 16895.4,1225.78 16912.5,1225.78 16929.5,1226.14 16946.5,1226.14 16963.6,1226.14 16980.6,1226.14 16997.7,1226.59 17014.7,1226.59 17031.8,1226.59 17048.8,1226.59 17065.9,1227.1 17082.9,1227.1 17099.9,1227.1 17117,1227.1 17134,1227.64 17151.1,1227.64 17168.1,1227.64 17185.2,1227.64 17202.2,1228.15 17219.3,1228.15 17236.3,1228.15 17253.3,1228.15 17270.4,1228.58 17287.4,1228.58 17304.5,1228.58 17321.5,1228.58 "/>
<path clip-path="url(#clip400)" d="M1827.04 300.469 L2283.56 300.469 L2283.56 93.1086 L1827.04 93.1086  Z" fill="#000000" fill-rule="evenodd" fill-opacity="0"/>
<polyline clip-path="url(#clip400)" style="stroke:#000000; stroke-linecap:round; stroke-linejoin:round; stroke-width:4; stroke-opacity:0; fill:none" points="1827.04,300.469 2283.56,300.469 2283.56,93.1086 1827.04,93.1086 1827.04,300.469 "/>
<polyline clip-path="url(#clip400)" style="stroke:#785ef0; stroke-linecap:round; stroke-linejoin:round; stroke-width:8; stroke-opacity:1; fill:none" points="1850.1,144.949 1988.5,144.949 "/>
<path clip-path="url(#clip400)" d="M2027.95 146.025 Q2029.45 146.534 2030.87 148.201 Q2032.3 149.868 2033.74 152.784 L2038.48 162.229 L2033.46 162.229 L2029.04 153.363 Q2027.32 149.891 2025.7 148.756 Q2024.11 147.622 2021.33 147.622 L2016.24 147.622 L2016.24 162.229 L2011.56 162.229 L2011.56 127.669 L2022.12 127.669 Q2028.04 127.669 2030.96 130.145 Q2033.88 132.622 2033.88 137.622 Q2033.88 140.886 2032.35 143.039 Q2030.84 145.192 2027.95 146.025 M2016.24 131.511 L2016.24 143.78 L2022.12 143.78 Q2025.5 143.78 2027.21 142.229 Q2028.94 140.655 2028.94 137.622 Q2028.94 134.59 2027.21 133.062 Q2025.5 131.511 2022.12 131.511 L2016.24 131.511 Z" fill="#000000" fill-rule="nonzero" fill-opacity="1" /><path clip-path="url(#clip400)" d="M2049.18 131.511 L2049.18 144.497 L2055.06 144.497 Q2058.32 144.497 2060.1 142.807 Q2061.88 141.118 2061.88 137.993 Q2061.88 134.891 2060.1 133.201 Q2058.32 131.511 2055.06 131.511 L2049.18 131.511 M2044.5 127.669 L2055.06 127.669 Q2060.87 127.669 2063.83 130.307 Q2066.82 132.923 2066.82 137.993 Q2066.82 143.108 2063.83 145.724 Q2060.87 148.34 2055.06 148.34 L2049.18 148.34 L2049.18 162.229 L2044.5 162.229 L2044.5 127.669 Z" fill="#000000" fill-rule="nonzero" fill-opacity="1" /><path clip-path="url(#clip400)" d="M2077.76 145.724 L2077.76 158.386 L2085.26 158.386 Q2089.04 158.386 2090.84 156.835 Q2092.67 155.261 2092.67 152.043 Q2092.67 148.803 2090.84 147.275 Q2089.04 145.724 2085.26 145.724 L2077.76 145.724 M2077.76 131.511 L2077.76 141.928 L2084.69 141.928 Q2088.11 141.928 2089.78 140.655 Q2091.47 139.358 2091.47 136.719 Q2091.47 134.104 2089.78 132.807 Q2088.11 131.511 2084.69 131.511 L2077.76 131.511 M2073.09 127.669 L2085.03 127.669 Q2090.38 127.669 2093.27 129.891 Q2096.17 132.113 2096.17 136.21 Q2096.17 139.382 2094.69 141.257 Q2093.2 143.131 2090.33 143.594 Q2093.78 144.335 2095.68 146.696 Q2097.6 149.034 2097.6 152.553 Q2097.6 157.182 2094.45 159.705 Q2091.31 162.229 2085.5 162.229 L2073.09 162.229 L2073.09 127.669 Z" fill="#000000" fill-rule="nonzero" fill-opacity="1" /><path clip-path="url(#clip400)" d="M2130.73 126.257 Q2127.62 131.581 2126.12 136.789 Q2124.62 141.997 2124.62 147.344 Q2124.62 152.692 2126.12 157.946 Q2127.65 163.178 2130.73 168.479 L2127.02 168.479 Q2123.55 163.039 2121.81 157.784 Q2120.1 152.53 2120.1 147.344 Q2120.1 142.182 2121.81 136.951 Q2123.53 131.72 2127.02 126.257 L2130.73 126.257 Z" fill="#000000" fill-rule="nonzero" fill-opacity="1" /><path clip-path="url(#clip400)" d="M2153.2 130.84 Q2148.11 130.84 2145.1 134.636 Q2142.12 138.432 2142.12 144.983 Q2142.12 151.511 2145.1 155.307 Q2148.11 159.104 2153.2 159.104 Q2158.3 159.104 2161.26 155.307 Q2164.25 151.511 2164.25 144.983 Q2164.25 138.432 2161.26 134.636 Q2158.3 130.84 2153.2 130.84 M2153.2 127.044 Q2160.47 127.044 2164.82 131.928 Q2169.18 136.789 2169.18 144.983 Q2169.18 153.155 2164.82 158.039 Q2160.47 162.9 2153.2 162.9 Q2145.91 162.9 2141.54 158.039 Q2137.19 153.178 2137.19 144.983 Q2137.19 136.789 2141.54 131.928 Q2145.91 127.044 2153.2 127.044 Z" fill="#000000" fill-rule="nonzero" fill-opacity="1" /><path clip-path="url(#clip400)" d="M2175.87 151.997 L2175.87 136.303 L2180.12 136.303 L2180.12 151.835 Q2180.12 155.516 2181.56 157.368 Q2182.99 159.196 2185.87 159.196 Q2189.31 159.196 2191.31 156.997 Q2193.32 154.798 2193.32 151.002 L2193.32 136.303 L2197.58 136.303 L2197.58 162.229 L2193.32 162.229 L2193.32 158.247 Q2191.77 160.608 2189.71 161.766 Q2187.67 162.9 2184.96 162.9 Q2180.49 162.9 2178.18 160.122 Q2175.87 157.344 2175.87 151.997 M2186.58 135.678 L2186.58 135.678 Z" fill="#000000" fill-rule="nonzero" fill-opacity="1" /><path clip-path="url(#clip400)" d="M2221.37 140.284 Q2220.66 139.868 2219.8 139.682 Q2218.97 139.474 2217.95 139.474 Q2214.34 139.474 2212.39 141.835 Q2210.47 144.173 2210.47 148.571 L2210.47 162.229 L2206.19 162.229 L2206.19 136.303 L2210.47 136.303 L2210.47 140.331 Q2211.81 137.969 2213.97 136.835 Q2216.12 135.678 2219.2 135.678 Q2219.64 135.678 2220.17 135.747 Q2220.7 135.794 2221.35 135.909 L2221.37 140.284 Z" fill="#000000" fill-rule="nonzero" fill-opacity="1" /><path clip-path="url(#clip400)" d="M2242.37 137.067 L2242.37 141.094 Q2240.56 140.169 2238.62 139.706 Q2236.68 139.243 2234.59 139.243 Q2231.42 139.243 2229.82 140.215 Q2228.25 141.187 2228.25 143.131 Q2228.25 144.613 2229.38 145.469 Q2230.52 146.303 2233.94 147.067 L2235.4 147.391 Q2239.94 148.363 2241.84 150.145 Q2243.76 151.905 2243.76 155.076 Q2243.76 158.687 2240.89 160.793 Q2238.04 162.9 2233.04 162.9 Q2230.96 162.9 2228.69 162.483 Q2226.44 162.09 2223.94 161.28 L2223.94 156.881 Q2226.3 158.108 2228.6 158.733 Q2230.89 159.335 2233.13 159.335 Q2236.14 159.335 2237.76 158.317 Q2239.38 157.275 2239.38 155.4 Q2239.38 153.664 2238.2 152.738 Q2237.05 151.812 2233.09 150.956 L2231.61 150.608 Q2227.65 149.775 2225.89 148.062 Q2224.13 146.326 2224.13 143.317 Q2224.13 139.659 2226.72 137.669 Q2229.31 135.678 2234.08 135.678 Q2236.44 135.678 2238.53 136.025 Q2240.61 136.372 2242.37 137.067 Z" fill="#000000" fill-rule="nonzero" fill-opacity="1" /><path clip-path="url(#clip400)" d="M2249.87 126.257 L2253.57 126.257 Q2257.05 131.72 2258.76 136.951 Q2260.49 142.182 2260.49 147.344 Q2260.49 152.53 2258.76 157.784 Q2257.05 163.039 2253.57 168.479 L2249.87 168.479 Q2252.95 163.178 2254.45 157.946 Q2255.98 152.692 2255.98 147.344 Q2255.98 141.997 2254.45 136.789 Q2252.95 131.581 2249.87 126.257 Z" fill="#000000" fill-rule="nonzero" fill-opacity="1" /><polyline clip-path="url(#clip400)" style="stroke:#fe6100; stroke-linecap:round; stroke-linejoin:round; stroke-width:8; stroke-opacity:1; fill:none" points="1850.1,196.789 1988.5,196.789 "/>
<path clip-path="url(#clip400)" d="M2027.95 197.865 Q2029.45 198.374 2030.87 200.041 Q2032.3 201.708 2033.74 204.624 L2038.48 214.069 L2033.46 214.069 L2029.04 205.203 Q2027.32 201.731 2025.7 200.596 Q2024.11 199.462 2021.33 199.462 L2016.24 199.462 L2016.24 214.069 L2011.56 214.069 L2011.56 179.509 L2022.12 179.509 Q2028.04 179.509 2030.96 181.985 Q2033.88 184.462 2033.88 189.462 Q2033.88 192.726 2032.35 194.879 Q2030.84 197.032 2027.95 197.865 M2016.24 183.351 L2016.24 195.62 L2022.12 195.62 Q2025.5 195.62 2027.21 194.069 Q2028.94 192.495 2028.94 189.462 Q2028.94 186.43 2027.21 184.902 Q2025.5 183.351 2022.12 183.351 L2016.24 183.351 Z" fill="#000000" fill-rule="nonzero" fill-opacity="1" /><path clip-path="url(#clip400)" d="M2068.02 182.171 L2068.02 187.101 Q2065.66 184.902 2062.97 183.814 Q2060.31 182.726 2057.3 182.726 Q2051.38 182.726 2048.23 186.36 Q2045.08 189.972 2045.08 196.823 Q2045.08 203.652 2048.23 207.286 Q2051.38 210.897 2057.3 210.897 Q2060.31 210.897 2062.97 209.809 Q2065.66 208.721 2068.02 206.522 L2068.02 211.407 Q2065.57 213.073 2062.81 213.907 Q2060.08 214.74 2057.02 214.74 Q2049.18 214.74 2044.66 209.948 Q2040.15 205.133 2040.15 196.823 Q2040.15 188.49 2044.66 183.698 Q2049.18 178.884 2057.02 178.884 Q2060.13 178.884 2062.86 179.717 Q2065.61 180.527 2068.02 182.171 Z" fill="#000000" fill-rule="nonzero" fill-opacity="1" /><path clip-path="url(#clip400)" d="M2079.92 197.564 L2079.92 210.226 L2087.42 210.226 Q2091.19 210.226 2093 208.675 Q2094.82 207.101 2094.82 203.883 Q2094.82 200.643 2093 199.115 Q2091.19 197.564 2087.42 197.564 L2079.92 197.564 M2079.92 183.351 L2079.92 193.768 L2086.84 193.768 Q2090.26 193.768 2091.93 192.495 Q2093.62 191.198 2093.62 188.559 Q2093.62 185.944 2091.93 184.647 Q2090.26 183.351 2086.84 183.351 L2079.92 183.351 M2075.24 179.509 L2087.19 179.509 Q2092.53 179.509 2095.43 181.731 Q2098.32 183.953 2098.32 188.05 Q2098.32 191.222 2096.84 193.097 Q2095.36 194.971 2092.49 195.434 Q2095.94 196.175 2097.83 198.536 Q2099.75 200.874 2099.75 204.393 Q2099.75 209.022 2096.61 211.545 Q2093.46 214.069 2087.65 214.069 L2075.24 214.069 L2075.24 179.509 Z" fill="#000000" fill-rule="nonzero" fill-opacity="1" /><path clip-path="url(#clip400)" d="M2107.76 179.509 L2114.73 179.509 L2123.55 203.027 L2132.42 179.509 L2139.38 179.509 L2139.38 214.069 L2134.82 214.069 L2134.82 183.722 L2125.91 207.425 L2121.21 207.425 L2112.3 183.722 L2112.3 214.069 L2107.76 214.069 L2107.76 179.509 Z" fill="#000000" fill-rule="nonzero" fill-opacity="1" /><polyline clip-path="url(#clip400)" style="stroke:#ffb000; stroke-linecap:round; stroke-linejoin:round; stroke-width:8; stroke-opacity:1; fill:none" points="1850.1,248.629 1988.5,248.629 "/>
<path clip-path="url(#clip400)" d="M2033.81 232.483 L2033.81 237.043 Q2031.14 235.77 2028.78 235.145 Q2026.42 234.52 2024.22 234.52 Q2020.4 234.52 2018.32 236.001 Q2016.26 237.483 2016.26 240.214 Q2016.26 242.506 2017.63 243.687 Q2019.01 244.844 2022.86 245.562 L2025.68 246.14 Q2030.91 247.136 2033.39 249.659 Q2035.89 252.159 2035.89 256.372 Q2035.89 261.395 2032.51 263.987 Q2029.15 266.58 2022.65 266.58 Q2020.19 266.58 2017.42 266.024 Q2014.66 265.469 2011.7 264.381 L2011.7 259.566 Q2014.55 261.163 2017.28 261.973 Q2020.01 262.784 2022.65 262.784 Q2026.65 262.784 2028.83 261.21 Q2031.01 259.636 2031.01 256.719 Q2031.01 254.173 2029.43 252.737 Q2027.88 251.302 2024.32 250.585 L2021.47 250.029 Q2016.24 248.987 2013.9 246.765 Q2011.56 244.543 2011.56 240.585 Q2011.56 236.001 2014.78 233.362 Q2018.02 230.724 2023.69 230.724 Q2026.12 230.724 2028.64 231.163 Q2031.17 231.603 2033.81 232.483 Z" fill="#000000" fill-rule="nonzero" fill-opacity="1" /><path clip-path="url(#clip400)" d="M2066.75 260.978 L2066.75 251.696 L2059.11 251.696 L2059.11 247.853 L2071.38 247.853 L2071.38 262.691 Q2068.67 264.612 2065.4 265.608 Q2062.14 266.58 2058.44 266.58 Q2050.33 266.58 2045.75 261.858 Q2041.19 257.112 2041.19 248.663 Q2041.19 240.191 2045.75 235.469 Q2050.33 230.724 2058.44 230.724 Q2061.82 230.724 2064.85 231.557 Q2067.9 232.39 2070.47 234.011 L2070.47 238.987 Q2067.88 236.788 2064.96 235.677 Q2062.05 234.566 2058.83 234.566 Q2052.49 234.566 2049.29 238.108 Q2046.12 241.649 2046.12 248.663 Q2046.12 255.654 2049.29 259.196 Q2052.49 262.737 2058.83 262.737 Q2061.31 262.737 2063.25 262.321 Q2065.19 261.881 2066.75 260.978 Z" fill="#000000" fill-rule="nonzero" fill-opacity="1" /><path clip-path="url(#clip400)" d="M2079.92 231.349 L2086.88 231.349 L2095.7 254.867 L2104.57 231.349 L2111.54 231.349 L2111.54 265.909 L2106.98 265.909 L2106.98 235.562 L2098.06 259.265 L2093.37 259.265 L2084.45 235.562 L2084.45 265.909 L2079.92 265.909 L2079.92 231.349 Z" fill="#000000" fill-rule="nonzero" fill-opacity="1" /></svg>
