<?xml version="1.0" encoding="utf-8"?>
<svg xmlns="http://www.w3.org/2000/svg" xmlns:xlink="http://www.w3.org/1999/xlink" width="600" height="400" viewBox="0 0 2400 1600">
<defs>
  <clipPath id="clip660">
    <rect x="0" y="0" width="2400" height="1600"/>
  </clipPath>
</defs>
<path clip-path="url(#clip660)" d="M0 1600 L2400 1600 L2400 8.88178e-14 L0 8.88178e-14  Z" fill="#ffffff" fill-rule="evenodd" fill-opacity="1"/>
<defs>
  <clipPath id="clip661">
    <rect x="480" y="0" width="1681" height="1600"/>
  </clipPath>
</defs>
<path clip-path="url(#clip660)" d="M276.876 1423.18 L2352.76 1423.18 L2352.76 47.2441 L276.876 47.2441  Z" fill="#ffffff" fill-rule="evenodd" fill-opacity="1"/>
<defs>
  <clipPath id="clip662">
    <rect x="276" y="47" width="2077" height="1377"/>
  </clipPath>
</defs>
<polyline clip-path="url(#clip662)" style="stroke:#000000; stroke-linecap:round; stroke-linejoin:round; stroke-width:2; stroke-opacity:0.1; fill:none" points="276.876,1423.18 276.876,47.2441 "/>
<polyline clip-path="url(#clip662)" style="stroke:#000000; stroke-linecap:round; stroke-linejoin:round; stroke-width:2; stroke-opacity:0.1; fill:none" points="774.235,1423.18 774.235,47.2441 "/>
<polyline clip-path="url(#clip662)" style="stroke:#000000; stroke-linecap:round; stroke-linejoin:round; stroke-width:2; stroke-opacity:0.1; fill:none" points="1271.59,1423.18 1271.59,47.2441 "/>
<polyline clip-path="url(#clip662)" style="stroke:#000000; stroke-linecap:round; stroke-linejoin:round; stroke-width:2; stroke-opacity:0.1; fill:none" points="1768.95,1423.18 1768.95,47.2441 "/>
<polyline clip-path="url(#clip662)" style="stroke:#000000; stroke-linecap:round; stroke-linejoin:round; stroke-width:2; stroke-opacity:0.1; fill:none" points="2266.31,1423.18 2266.31,47.2441 "/>
<polyline clip-path="url(#clip662)" style="stroke:#000000; stroke-linecap:round; stroke-linejoin:round; stroke-width:2; stroke-opacity:0.1; fill:none" points="276.876,1191.04 2352.76,1191.04 "/>
<polyline clip-path="url(#clip662)" style="stroke:#000000; stroke-linecap:round; stroke-linejoin:round; stroke-width:2; stroke-opacity:0.1; fill:none" points="276.876,610.705 2352.76,610.705 "/>
<polyline clip-path="url(#clip660)" style="stroke:#000000; stroke-linecap:round; stroke-linejoin:round; stroke-width:4; stroke-opacity:1; fill:none" points="276.876,1423.18 2352.76,1423.18 "/>
<polyline clip-path="url(#clip660)" style="stroke:#000000; stroke-linecap:round; stroke-linejoin:round; stroke-width:4; stroke-opacity:1; fill:none" points="276.876,1423.18 276.876,1404.28 "/>
<polyline clip-path="url(#clip660)" style="stroke:#000000; stroke-linecap:round; stroke-linejoin:round; stroke-width:4; stroke-opacity:1; fill:none" points="774.235,1423.18 774.235,1404.28 "/>
<polyline clip-path="url(#clip660)" style="stroke:#000000; stroke-linecap:round; stroke-linejoin:round; stroke-width:4; stroke-opacity:1; fill:none" points="1271.59,1423.18 1271.59,1404.28 "/>
<polyline clip-path="url(#clip660)" style="stroke:#000000; stroke-linecap:round; stroke-linejoin:round; stroke-width:4; stroke-opacity:1; fill:none" points="1768.95,1423.18 1768.95,1404.28 "/>
<polyline clip-path="url(#clip660)" style="stroke:#000000; stroke-linecap:round; stroke-linejoin:round; stroke-width:4; stroke-opacity:1; fill:none" points="2266.31,1423.18 2266.31,1404.28 "/>
<path clip-path="url(#clip660)" d="M239.179 1454.1 Q235.568 1454.1 233.739 1457.66 Q231.934 1461.2 231.934 1468.33 Q231.934 1475.44 233.739 1479.01 Q235.568 1482.55 239.179 1482.55 Q242.813 1482.55 244.619 1479.01 Q246.447 1475.44 246.447 1468.33 Q246.447 1461.2 244.619 1457.66 Q242.813 1454.1 239.179 1454.1 M239.179 1450.39 Q244.989 1450.39 248.045 1455 Q251.123 1459.58 251.123 1468.33 Q251.123 1477.06 248.045 1481.67 Q244.989 1486.25 239.179 1486.25 Q233.369 1486.25 230.29 1481.67 Q227.235 1477.06 227.235 1468.33 Q227.235 1459.58 230.29 1455 Q233.369 1450.39 239.179 1450.39 Z" fill="#000000" fill-rule="nonzero" fill-opacity="1" /><path clip-path="url(#clip660)" d="M259.341 1479.7 L264.225 1479.7 L264.225 1485.58 L259.341 1485.58 L259.341 1479.7 Z" fill="#000000" fill-rule="nonzero" fill-opacity="1" /><path clip-path="url(#clip660)" d="M284.41 1454.1 Q280.799 1454.1 278.97 1457.66 Q277.165 1461.2 277.165 1468.33 Q277.165 1475.44 278.97 1479.01 Q280.799 1482.55 284.41 1482.55 Q288.044 1482.55 289.85 1479.01 Q291.679 1475.44 291.679 1468.33 Q291.679 1461.2 289.85 1457.66 Q288.044 1454.1 284.41 1454.1 M284.41 1450.39 Q290.22 1450.39 293.276 1455 Q296.355 1459.58 296.355 1468.33 Q296.355 1477.06 293.276 1481.67 Q290.22 1486.25 284.41 1486.25 Q278.6 1486.25 275.521 1481.67 Q272.466 1477.06 272.466 1468.33 Q272.466 1459.58 275.521 1455 Q278.6 1450.39 284.41 1450.39 Z" fill="#000000" fill-rule="nonzero" fill-opacity="1" /><path clip-path="url(#clip660)" d="M314.572 1454.1 Q310.961 1454.1 309.132 1457.66 Q307.327 1461.2 307.327 1468.33 Q307.327 1475.44 309.132 1479.01 Q310.961 1482.55 314.572 1482.55 Q318.206 1482.55 320.012 1479.01 Q321.841 1475.44 321.841 1468.33 Q321.841 1461.2 320.012 1457.66 Q318.206 1454.1 314.572 1454.1 M314.572 1450.39 Q320.382 1450.39 323.438 1455 Q326.516 1459.58 326.516 1468.33 Q326.516 1477.06 323.438 1481.67 Q320.382 1486.25 314.572 1486.25 Q308.762 1486.25 305.683 1481.67 Q302.628 1477.06 302.628 1468.33 Q302.628 1459.58 305.683 1455 Q308.762 1450.39 314.572 1450.39 Z" fill="#000000" fill-rule="nonzero" fill-opacity="1" /><path clip-path="url(#clip660)" d="M737.036 1454.1 Q733.425 1454.1 731.596 1457.66 Q729.791 1461.2 729.791 1468.33 Q729.791 1475.44 731.596 1479.01 Q733.425 1482.55 737.036 1482.55 Q740.67 1482.55 742.476 1479.01 Q744.305 1475.44 744.305 1468.33 Q744.305 1461.2 742.476 1457.66 Q740.67 1454.1 737.036 1454.1 M737.036 1450.39 Q742.846 1450.39 745.902 1455 Q748.98 1459.58 748.98 1468.33 Q748.98 1477.06 745.902 1481.67 Q742.846 1486.25 737.036 1486.25 Q731.226 1486.25 728.147 1481.67 Q725.092 1477.06 725.092 1468.33 Q725.092 1459.58 728.147 1455 Q731.226 1450.39 737.036 1450.39 Z" fill="#000000" fill-rule="nonzero" fill-opacity="1" /><path clip-path="url(#clip660)" d="M757.198 1479.7 L762.082 1479.7 L762.082 1485.58 L757.198 1485.58 L757.198 1479.7 Z" fill="#000000" fill-rule="nonzero" fill-opacity="1" /><path clip-path="url(#clip660)" d="M782.267 1454.1 Q778.656 1454.1 776.828 1457.66 Q775.022 1461.2 775.022 1468.33 Q775.022 1475.44 776.828 1479.01 Q778.656 1482.55 782.267 1482.55 Q785.902 1482.55 787.707 1479.01 Q789.536 1475.44 789.536 1468.33 Q789.536 1461.2 787.707 1457.66 Q785.902 1454.1 782.267 1454.1 M782.267 1450.39 Q788.077 1450.39 791.133 1455 Q794.212 1459.58 794.212 1468.33 Q794.212 1477.06 791.133 1481.67 Q788.077 1486.25 782.267 1486.25 Q776.457 1486.25 773.378 1481.67 Q770.323 1477.06 770.323 1468.33 Q770.323 1459.58 773.378 1455 Q776.457 1450.39 782.267 1450.39 Z" fill="#000000" fill-rule="nonzero" fill-opacity="1" /><path clip-path="url(#clip660)" d="M802.476 1451.02 L820.832 1451.02 L820.832 1454.96 L806.758 1454.96 L806.758 1463.43 Q807.776 1463.08 808.795 1462.92 Q809.813 1462.73 810.832 1462.73 Q816.619 1462.73 819.999 1465.9 Q823.378 1469.08 823.378 1474.49 Q823.378 1480.07 819.906 1483.17 Q816.434 1486.25 810.114 1486.25 Q807.938 1486.25 805.67 1485.88 Q803.425 1485.51 801.017 1484.77 L801.017 1480.07 Q803.101 1481.2 805.323 1481.76 Q807.545 1482.32 810.022 1482.32 Q814.026 1482.32 816.364 1480.21 Q818.702 1478.1 818.702 1474.49 Q818.702 1470.88 816.364 1468.77 Q814.026 1466.67 810.022 1466.67 Q808.147 1466.67 806.272 1467.08 Q804.42 1467.5 802.476 1468.38 L802.476 1451.02 Z" fill="#000000" fill-rule="nonzero" fill-opacity="1" /><path clip-path="url(#clip660)" d="M1233.9 1454.1 Q1230.29 1454.1 1228.46 1457.66 Q1226.65 1461.2 1226.65 1468.33 Q1226.65 1475.44 1228.46 1479.01 Q1230.29 1482.55 1233.9 1482.55 Q1237.53 1482.55 1239.34 1479.01 Q1241.17 1475.44 1241.17 1468.33 Q1241.17 1461.2 1239.34 1457.66 Q1237.53 1454.1 1233.9 1454.1 M1233.9 1450.39 Q1239.71 1450.39 1242.76 1455 Q1245.84 1459.58 1245.84 1468.33 Q1245.84 1477.06 1242.76 1481.67 Q1239.71 1486.25 1233.9 1486.25 Q1228.09 1486.25 1225.01 1481.67 Q1221.95 1477.06 1221.95 1468.33 Q1221.95 1459.58 1225.01 1455 Q1228.09 1450.39 1233.9 1450.39 Z" fill="#000000" fill-rule="nonzero" fill-opacity="1" /><path clip-path="url(#clip660)" d="M1254.06 1479.7 L1258.94 1479.7 L1258.94 1485.58 L1254.06 1485.58 L1254.06 1479.7 Z" fill="#000000" fill-rule="nonzero" fill-opacity="1" /><path clip-path="url(#clip660)" d="M1269.94 1481.64 L1277.58 1481.64 L1277.58 1455.28 L1269.27 1456.95 L1269.27 1452.69 L1277.53 1451.02 L1282.21 1451.02 L1282.21 1481.64 L1289.85 1481.64 L1289.85 1485.58 L1269.94 1485.58 L1269.94 1481.64 Z" fill="#000000" fill-rule="nonzero" fill-opacity="1" /><path clip-path="url(#clip660)" d="M1309.29 1454.1 Q1305.68 1454.1 1303.85 1457.66 Q1302.05 1461.2 1302.05 1468.33 Q1302.05 1475.44 1303.85 1479.01 Q1305.68 1482.55 1309.29 1482.55 Q1312.93 1482.55 1314.73 1479.01 Q1316.56 1475.44 1316.56 1468.33 Q1316.56 1461.2 1314.73 1457.66 Q1312.93 1454.1 1309.29 1454.1 M1309.29 1450.39 Q1315.1 1450.39 1318.16 1455 Q1321.24 1459.58 1321.24 1468.33 Q1321.24 1477.06 1318.16 1481.67 Q1315.1 1486.25 1309.29 1486.25 Q1303.48 1486.25 1300.4 1481.67 Q1297.35 1477.06 1297.35 1468.33 Q1297.35 1459.58 1300.4 1455 Q1303.48 1450.39 1309.29 1450.39 Z" fill="#000000" fill-rule="nonzero" fill-opacity="1" /><path clip-path="url(#clip660)" d="M1731.75 1454.1 Q1728.14 1454.1 1726.32 1457.66 Q1724.51 1461.2 1724.51 1468.33 Q1724.51 1475.44 1726.32 1479.01 Q1728.14 1482.55 1731.75 1482.55 Q1735.39 1482.55 1737.19 1479.01 Q1739.02 1475.44 1739.02 1468.33 Q1739.02 1461.2 1737.19 1457.66 Q1735.39 1454.1 1731.75 1454.1 M1731.75 1450.39 Q1737.57 1450.39 1740.62 1455 Q1743.7 1459.58 1743.7 1468.33 Q1743.7 1477.06 1740.62 1481.67 Q1737.57 1486.25 1731.75 1486.25 Q1725.94 1486.25 1722.87 1481.67 Q1719.81 1477.06 1719.81 1468.33 Q1719.81 1459.58 1722.87 1455 Q1725.94 1450.39 1731.75 1450.39 Z" fill="#000000" fill-rule="nonzero" fill-opacity="1" /><path clip-path="url(#clip660)" d="M1751.92 1479.7 L1756.8 1479.7 L1756.8 1485.58 L1751.92 1485.58 L1751.92 1479.7 Z" fill="#000000" fill-rule="nonzero" fill-opacity="1" /><path clip-path="url(#clip660)" d="M1767.8 1481.64 L1775.44 1481.64 L1775.44 1455.28 L1767.13 1456.95 L1767.13 1452.69 L1775.39 1451.02 L1780.06 1451.02 L1780.06 1481.64 L1787.7 1481.64 L1787.7 1485.58 L1767.8 1485.58 L1767.8 1481.64 Z" fill="#000000" fill-rule="nonzero" fill-opacity="1" /><path clip-path="url(#clip660)" d="M1797.19 1451.02 L1815.55 1451.02 L1815.55 1454.96 L1801.48 1454.96 L1801.48 1463.43 Q1802.5 1463.08 1803.51 1462.92 Q1804.53 1462.73 1805.55 1462.73 Q1811.34 1462.73 1814.72 1465.9 Q1818.1 1469.08 1818.1 1474.49 Q1818.1 1480.07 1814.62 1483.17 Q1811.15 1486.25 1804.83 1486.25 Q1802.66 1486.25 1800.39 1485.88 Q1798.14 1485.51 1795.74 1484.77 L1795.74 1480.07 Q1797.82 1481.2 1800.04 1481.76 Q1802.26 1482.32 1804.74 1482.32 Q1808.75 1482.32 1811.08 1480.21 Q1813.42 1478.1 1813.42 1474.49 Q1813.42 1470.88 1811.08 1468.77 Q1808.75 1466.67 1804.74 1466.67 Q1802.87 1466.67 1800.99 1467.08 Q1799.14 1467.5 1797.19 1468.38 L1797.19 1451.02 Z" fill="#000000" fill-rule="nonzero" fill-opacity="1" /><path clip-path="url(#clip660)" d="M2228.62 1454.1 Q2225.01 1454.1 2223.18 1457.66 Q2221.37 1461.2 2221.37 1468.33 Q2221.37 1475.44 2223.18 1479.01 Q2225.01 1482.55 2228.62 1482.55 Q2232.25 1482.55 2234.06 1479.01 Q2235.89 1475.44 2235.89 1468.33 Q2235.89 1461.2 2234.06 1457.66 Q2232.25 1454.1 2228.62 1454.1 M2228.62 1450.39 Q2234.43 1450.39 2237.48 1455 Q2240.56 1459.58 2240.56 1468.33 Q2240.56 1477.06 2237.48 1481.67 Q2234.43 1486.25 2228.62 1486.25 Q2222.81 1486.25 2219.73 1481.67 Q2216.67 1477.06 2216.67 1468.33 Q2216.67 1459.58 2219.73 1455 Q2222.81 1450.39 2228.62 1450.39 Z" fill="#000000" fill-rule="nonzero" fill-opacity="1" /><path clip-path="url(#clip660)" d="M2248.78 1479.7 L2253.66 1479.7 L2253.66 1485.58 L2248.78 1485.58 L2248.78 1479.7 Z" fill="#000000" fill-rule="nonzero" fill-opacity="1" /><path clip-path="url(#clip660)" d="M2267.88 1481.64 L2284.2 1481.64 L2284.2 1485.58 L2262.25 1485.58 L2262.25 1481.64 Q2264.91 1478.89 2269.5 1474.26 Q2274.1 1469.61 2275.28 1468.27 Q2277.53 1465.74 2278.41 1464.01 Q2279.31 1462.25 2279.31 1460.56 Q2279.31 1457.8 2277.37 1456.07 Q2275.45 1454.33 2272.34 1454.33 Q2270.14 1454.33 2267.69 1455.09 Q2265.26 1455.86 2262.48 1457.41 L2262.48 1452.69 Q2265.31 1451.55 2267.76 1450.97 Q2270.21 1450.39 2272.25 1450.39 Q2277.62 1450.39 2280.82 1453.08 Q2284.01 1455.77 2284.01 1460.26 Q2284.01 1462.39 2283.2 1464.31 Q2282.41 1466.2 2280.31 1468.8 Q2279.73 1469.47 2276.63 1472.69 Q2273.52 1475.88 2267.88 1481.64 Z" fill="#000000" fill-rule="nonzero" fill-opacity="1" /><path clip-path="url(#clip660)" d="M2304.01 1454.1 Q2300.4 1454.1 2298.57 1457.66 Q2296.76 1461.2 2296.76 1468.33 Q2296.76 1475.44 2298.57 1479.01 Q2300.4 1482.55 2304.01 1482.55 Q2307.64 1482.55 2309.45 1479.01 Q2311.28 1475.44 2311.28 1468.33 Q2311.28 1461.2 2309.45 1457.66 Q2307.64 1454.1 2304.01 1454.1 M2304.01 1450.39 Q2309.82 1450.39 2312.88 1455 Q2315.95 1459.58 2315.95 1468.33 Q2315.95 1477.06 2312.88 1481.67 Q2309.82 1486.25 2304.01 1486.25 Q2298.2 1486.25 2295.12 1481.67 Q2292.07 1477.06 2292.07 1468.33 Q2292.07 1459.58 2295.12 1455 Q2298.2 1450.39 2304.01 1450.39 Z" fill="#000000" fill-rule="nonzero" fill-opacity="1" /><path clip-path="url(#clip660)" d="M1104.12 1526.05 L1105.38 1511.23 L1145.66 1511.23 L1146.92 1526.05 L1145.28 1526.05 Q1145.02 1523.08 1144.76 1521.38 Q1144.54 1519.67 1143.96 1518.06 Q1143.41 1516.42 1142.7 1515.64 Q1142.03 1514.84 1140.7 1514.23 Q1139.38 1513.58 1137.68 1513.42 Q1135.97 1513.26 1133.39 1513.26 Q1130.37 1513.26 1129.63 1513.39 Q1128.82 1513.58 1128.63 1514.16 Q1128.43 1514.71 1128.43 1515.9 L1128.43 1550.65 Q1128.43 1551.97 1128.69 1552.52 Q1128.98 1553.03 1130.5 1553.45 Q1132.01 1553.84 1135.36 1553.84 L1138 1553.84 L1138 1555.87 Q1135.29 1555.67 1125.47 1555.67 Q1115.71 1555.67 1113.01 1555.87 L1113.01 1553.84 L1115.65 1553.84 Q1119 1553.84 1120.51 1553.45 Q1122.06 1553.03 1122.32 1552.52 Q1122.57 1551.97 1122.57 1550.65 L1122.57 1515.9 Q1122.57 1514.97 1122.51 1514.58 Q1122.44 1514.19 1122.15 1513.87 Q1121.86 1513.52 1121.19 1513.39 Q1120.54 1513.26 1117.65 1513.26 Q1115.07 1513.26 1113.33 1513.42 Q1111.62 1513.58 1110.3 1514.23 Q1108.98 1514.84 1108.27 1515.64 Q1107.6 1516.42 1107.02 1518.06 Q1106.47 1519.67 1106.24 1521.38 Q1106.02 1523.08 1105.76 1526.05 L1104.12 1526.05 Z" fill="#000000" fill-rule="nonzero" fill-opacity="1" /><path clip-path="url(#clip660)" d="M1156.46 1555.87 L1156.46 1553.84 Q1159.97 1553.84 1160.78 1553.42 Q1161.58 1552.97 1161.58 1550.84 L1161.58 1533.1 Q1161.58 1530.65 1160.75 1530.07 Q1159.94 1529.49 1156.72 1529.49 L1156.72 1527.43 L1165.93 1526.72 L1165.93 1550.91 Q1165.93 1552.87 1166.64 1553.36 Q1167.35 1553.84 1170.57 1553.84 L1170.57 1555.87 Q1163.84 1555.67 1163.71 1555.67 Q1162.81 1555.67 1156.46 1555.87 M1159.23 1515.22 Q1159.23 1513.9 1160.23 1512.84 Q1161.26 1511.75 1162.71 1511.75 Q1164.16 1511.75 1165.19 1512.74 Q1166.22 1513.71 1166.22 1515.26 Q1166.22 1516.77 1165.19 1517.77 Q1164.16 1518.73 1162.71 1518.73 Q1161.2 1518.73 1160.2 1517.67 Q1159.23 1516.61 1159.23 1515.22 Z" fill="#000000" fill-rule="nonzero" fill-opacity="1" /><path clip-path="url(#clip660)" d="M1175.08 1555.87 L1175.08 1553.84 Q1178.59 1553.84 1179.39 1553.42 Q1180.2 1552.97 1180.2 1550.84 L1180.2 1533.16 Q1180.2 1530.72 1179.33 1530.1 Q1178.49 1529.49 1175.08 1529.49 L1175.08 1527.43 L1184.35 1526.72 L1184.35 1533.65 Q1187.44 1526.72 1194.11 1526.72 Q1201.84 1526.72 1202.9 1533.16 Q1204.03 1530.65 1206.38 1528.69 Q1208.76 1526.72 1212.47 1526.72 Q1217.43 1526.72 1219.39 1529.17 Q1220.84 1530.81 1221.13 1532.65 Q1221.42 1534.48 1221.42 1539.25 L1221.42 1551.84 Q1221.49 1553.23 1222.55 1553.55 Q1223.61 1553.84 1226.57 1553.84 L1226.57 1555.87 Q1219.84 1555.67 1219.2 1555.67 Q1218.68 1555.67 1211.73 1555.87 L1211.73 1553.84 Q1215.24 1553.84 1216.04 1553.42 Q1216.88 1552.97 1216.88 1550.84 L1216.88 1535.48 Q1216.88 1532.13 1215.85 1530.17 Q1214.82 1528.17 1211.99 1528.17 Q1208.57 1528.17 1205.83 1531.04 Q1203.1 1533.9 1203.1 1538.73 L1203.1 1550.84 Q1203.1 1552.97 1203.9 1553.42 Q1204.74 1553.84 1208.25 1553.84 L1208.25 1555.87 Q1201.52 1555.67 1200.84 1555.67 Q1200.33 1555.67 1193.4 1555.87 L1193.4 1553.84 Q1196.91 1553.84 1197.72 1553.42 Q1198.56 1552.97 1198.56 1550.84 L1198.56 1535.48 Q1198.56 1532.13 1197.53 1530.17 Q1196.49 1528.17 1193.66 1528.17 Q1190.25 1528.17 1187.51 1531.04 Q1184.77 1533.9 1184.77 1538.73 L1184.77 1550.84 Q1184.77 1552.97 1185.58 1553.42 Q1186.41 1553.84 1189.89 1553.84 L1189.89 1555.87 Q1183.16 1555.67 1182.52 1555.67 Q1182 1555.67 1175.08 1555.87 Z" fill="#000000" fill-rule="nonzero" fill-opacity="1" /><path clip-path="url(#clip660)" d="M1230.52 1541.34 Q1230.52 1535.13 1234.51 1530.72 Q1238.51 1526.3 1244.24 1526.3 Q1250.04 1526.3 1253.03 1530.07 Q1256.06 1533.84 1256.06 1539.25 Q1256.06 1540.25 1255.8 1540.44 Q1255.54 1540.63 1254.42 1540.63 L1236 1540.63 Q1236 1547.37 1237.99 1550.52 Q1240.76 1554.93 1245.43 1554.93 Q1246.08 1554.93 1246.85 1554.8 Q1247.62 1554.68 1249.2 1554.13 Q1250.78 1553.55 1252.16 1552.04 Q1253.55 1550.52 1254.35 1548.14 Q1254.55 1547.2 1255.19 1547.24 Q1256.06 1547.24 1256.06 1548.01 Q1256.06 1548.59 1255.42 1549.91 Q1254.8 1551.2 1253.61 1552.74 Q1252.42 1554.29 1250.1 1555.45 Q1247.82 1556.61 1245.05 1556.61 Q1239.25 1556.61 1234.87 1552.23 Q1230.52 1547.82 1230.52 1541.34 M1236.06 1539.25 L1251.71 1539.25 Q1251.71 1537.86 1251.45 1536.32 Q1251.23 1534.77 1250.52 1532.65 Q1249.84 1530.49 1248.23 1529.14 Q1246.62 1527.78 1244.24 1527.78 Q1243.18 1527.78 1242.02 1528.24 Q1240.89 1528.69 1239.51 1529.78 Q1238.12 1530.88 1237.15 1533.36 Q1236.19 1535.84 1236.06 1539.25 Z" fill="#000000" fill-rule="nonzero" fill-opacity="1" /><path clip-path="url(#clip660)" d="M1263.21 1539.38 Q1263.21 1528.24 1267.37 1519.25 Q1269.14 1515.48 1271.62 1512.33 Q1274.1 1509.17 1275.74 1507.78 Q1277.38 1506.4 1277.83 1506.4 Q1278.48 1506.4 1278.51 1507.04 Q1278.51 1507.37 1277.64 1508.17 Q1267.01 1518.99 1267.04 1539.38 Q1267.04 1559.83 1277.38 1570.23 Q1278.51 1571.36 1278.51 1571.71 Q1278.51 1572.36 1277.83 1572.36 Q1277.38 1572.36 1275.8 1571.04 Q1274.23 1569.72 1271.78 1566.69 Q1269.33 1563.66 1267.56 1559.96 Q1263.21 1550.97 1263.21 1539.38 Z" fill="#000000" fill-rule="nonzero" fill-opacity="1" /><path clip-path="url(#clip660)" d="M1284.84 1555 L1284.84 1546.3 Q1284.84 1545.56 1284.88 1545.3 Q1284.91 1545.05 1285.1 1544.85 Q1285.29 1544.66 1285.68 1544.66 Q1286.13 1544.66 1286.29 1544.85 Q1286.49 1545.05 1286.61 1545.79 Q1287.61 1550.33 1289.74 1552.74 Q1291.9 1555.13 1295.79 1555.13 Q1299.5 1555.13 1301.37 1553.48 Q1303.23 1551.84 1303.23 1549.14 Q1303.23 1544.31 1296.37 1543.08 Q1292.41 1542.28 1290.77 1541.76 Q1289.13 1541.21 1287.68 1540.02 Q1284.84 1537.7 1284.84 1534.42 Q1284.84 1531.13 1287.32 1528.72 Q1289.84 1526.3 1295.37 1526.3 Q1299.08 1526.3 1301.59 1528.17 Q1302.33 1527.59 1302.72 1527.11 Q1303.59 1526.3 1304.04 1526.3 Q1304.55 1526.3 1304.65 1526.66 Q1304.75 1526.98 1304.75 1527.91 L1304.75 1534.55 Q1304.75 1535.29 1304.71 1535.55 Q1304.68 1535.8 1304.49 1536 Q1304.3 1536.16 1303.88 1536.16 Q1303.14 1536.16 1303.1 1535.55 Q1302.59 1527.56 1295.37 1527.56 Q1291.48 1527.56 1289.74 1529.07 Q1288 1530.55 1288 1532.58 Q1288 1533.71 1288.52 1534.58 Q1289.06 1535.42 1289.74 1535.93 Q1290.45 1536.42 1291.74 1536.9 Q1293.02 1537.35 1293.8 1537.51 Q1294.6 1537.67 1296.12 1537.99 Q1301.4 1538.99 1303.62 1541.15 Q1306.39 1543.92 1306.39 1547.43 Q1306.39 1551.33 1303.75 1553.97 Q1301.11 1556.61 1295.79 1556.61 Q1291.51 1556.61 1288.52 1553.74 Q1288.13 1554.13 1287.84 1554.48 Q1287.55 1554.8 1287.42 1554.93 Q1287.32 1555.06 1287.29 1555.16 Q1287.26 1555.22 1287.19 1555.29 Q1285.87 1556.61 1285.55 1556.61 Q1285.04 1556.61 1284.94 1556.25 Q1284.84 1555.93 1284.84 1555 Z" fill="#000000" fill-rule="nonzero" fill-opacity="1" /><path clip-path="url(#clip660)" d="M1310.29 1541.34 Q1310.29 1535.13 1314.28 1530.72 Q1318.28 1526.3 1324.01 1526.3 Q1329.81 1526.3 1332.8 1530.07 Q1335.83 1533.84 1335.83 1539.25 Q1335.83 1540.25 1335.57 1540.44 Q1335.31 1540.63 1334.19 1540.63 L1315.76 1540.63 Q1315.76 1547.37 1317.76 1550.52 Q1320.53 1554.93 1325.2 1554.93 Q1325.85 1554.93 1326.62 1554.8 Q1327.39 1554.68 1328.97 1554.13 Q1330.55 1553.55 1331.93 1552.04 Q1333.32 1550.52 1334.12 1548.14 Q1334.32 1547.2 1334.96 1547.24 Q1335.83 1547.24 1335.83 1548.01 Q1335.83 1548.59 1335.18 1549.91 Q1334.57 1551.2 1333.38 1552.74 Q1332.19 1554.29 1329.87 1555.45 Q1327.58 1556.61 1324.81 1556.61 Q1319.02 1556.61 1314.64 1552.23 Q1310.29 1547.82 1310.29 1541.34 M1315.83 1539.25 L1331.48 1539.25 Q1331.48 1537.86 1331.22 1536.32 Q1331 1534.77 1330.29 1532.65 Q1329.61 1530.49 1328 1529.14 Q1326.39 1527.78 1324.01 1527.78 Q1322.95 1527.78 1321.79 1528.24 Q1320.66 1528.69 1319.28 1529.78 Q1317.89 1530.88 1316.92 1533.36 Q1315.96 1535.84 1315.83 1539.25 Z" fill="#000000" fill-rule="nonzero" fill-opacity="1" /><path clip-path="url(#clip660)" d="M1343.47 1552.26 Q1339.29 1547.88 1339.29 1541.63 Q1339.29 1535.35 1343.41 1530.84 Q1347.53 1526.3 1353.58 1526.3 Q1357.61 1526.3 1360.64 1528.24 Q1363.67 1530.14 1363.67 1533.39 Q1363.67 1534.84 1362.8 1535.67 Q1361.96 1536.48 1360.64 1536.48 Q1359.25 1536.48 1358.42 1535.64 Q1357.61 1534.77 1357.61 1533.45 Q1357.61 1532.87 1357.8 1532.29 Q1358 1531.71 1358.71 1531.1 Q1359.45 1530.49 1360.7 1530.39 Q1358.35 1527.98 1353.78 1527.98 Q1353.71 1527.98 1353.65 1527.98 Q1350.3 1527.98 1347.53 1531.13 Q1344.76 1534.29 1344.76 1541.5 Q1344.76 1545.27 1345.66 1548.04 Q1346.6 1550.78 1348.11 1552.2 Q1349.62 1553.61 1351.11 1554.29 Q1352.59 1554.93 1354.04 1554.93 Q1360.51 1554.93 1362.7 1548.01 Q1362.89 1547.37 1363.54 1547.37 Q1364.41 1547.37 1364.41 1548.01 Q1364.41 1548.33 1364.15 1549.17 Q1363.89 1550.01 1363.09 1551.33 Q1362.28 1552.65 1361.12 1553.81 Q1359.99 1554.93 1357.96 1555.77 Q1355.97 1556.61 1353.46 1556.61 Q1347.66 1556.61 1343.47 1552.26 Z" fill="#000000" fill-rule="nonzero" fill-opacity="1" /><path clip-path="url(#clip660)" d="M1372.1 1552.33 Q1367.75 1548.01 1367.75 1541.76 Q1367.75 1535.48 1372 1530.91 Q1376.29 1526.3 1382.41 1526.3 Q1388.4 1526.3 1392.68 1530.88 Q1397 1535.42 1397 1541.76 Q1397 1547.98 1392.65 1552.29 Q1388.33 1556.61 1382.34 1556.61 Q1376.48 1556.61 1372.1 1552.33 M1373.23 1541.21 Q1373.23 1547.62 1374.9 1550.52 Q1377.48 1554.93 1382.41 1554.93 Q1384.85 1554.93 1386.88 1553.61 Q1388.94 1552.29 1390.07 1550.07 Q1391.52 1547.17 1391.52 1541.21 Q1391.52 1534.87 1389.78 1532.07 Q1387.21 1527.78 1382.34 1527.78 Q1380.22 1527.78 1378.12 1528.91 Q1376.06 1530.01 1374.81 1532.2 Q1373.23 1535.09 1373.23 1541.21 Z" fill="#000000" fill-rule="nonzero" fill-opacity="1" /><path clip-path="url(#clip660)" d="M1399.1 1555.87 L1399.1 1553.84 Q1402.61 1553.84 1403.41 1553.42 Q1404.22 1552.97 1404.22 1550.84 L1404.22 1533.16 Q1404.22 1530.72 1403.35 1530.1 Q1402.51 1529.49 1399.1 1529.49 L1399.1 1527.43 L1408.37 1526.72 L1408.37 1533.65 Q1411.46 1526.72 1418.13 1526.72 Q1423.09 1526.72 1425.06 1529.17 Q1426.5 1530.81 1426.79 1532.65 Q1427.12 1534.48 1427.12 1539.25 L1427.12 1551.84 Q1427.18 1553.23 1428.24 1553.55 Q1429.31 1553.84 1432.27 1553.84 L1432.27 1555.87 Q1425.54 1555.67 1424.86 1555.67 Q1424.35 1555.67 1417.42 1555.87 L1417.42 1553.84 Q1420.93 1553.84 1421.74 1553.42 Q1422.58 1552.97 1422.58 1550.84 L1422.58 1535.48 Q1422.58 1532.13 1421.54 1530.17 Q1420.51 1528.17 1417.68 1528.17 Q1414.27 1528.17 1411.53 1531.04 Q1408.79 1533.9 1408.79 1538.73 L1408.79 1550.84 Q1408.79 1552.97 1409.6 1553.42 Q1410.43 1553.84 1413.91 1553.84 L1413.91 1555.87 Q1407.18 1555.67 1406.54 1555.67 Q1406.02 1555.67 1399.1 1555.87 Z" fill="#000000" fill-rule="nonzero" fill-opacity="1" /><path clip-path="url(#clip660)" d="M1436.92 1541.7 Q1436.92 1535.42 1441.3 1531.07 Q1445.68 1526.72 1451.6 1526.72 Q1456.63 1526.72 1459.91 1530.81 L1459.91 1516.54 Q1459.91 1514.1 1459.04 1513.48 Q1458.21 1512.87 1454.79 1512.87 L1454.79 1510.81 L1464.29 1510.1 L1464.29 1550.14 Q1464.29 1552.58 1465.13 1553.23 Q1466 1553.84 1469.41 1553.84 L1469.41 1555.87 L1459.72 1556.61 L1459.72 1552.23 Q1456.31 1556.58 1450.9 1556.61 Q1445.23 1556.61 1441.07 1552.26 Q1436.92 1547.91 1436.92 1541.7 M1442.39 1541.76 Q1442.39 1547.88 1444.29 1550.91 Q1446.93 1555.13 1451.22 1555.13 Q1456.11 1555.13 1459.01 1550.52 Q1459.75 1549.39 1459.72 1548.07 L1459.72 1534.55 Q1459.72 1533.23 1459.01 1532.13 Q1456.31 1528.17 1451.89 1528.17 Q1447.29 1528.17 1444.42 1532.39 Q1442.39 1535.55 1442.39 1541.76 Z" fill="#000000" fill-rule="nonzero" fill-opacity="1" /><path clip-path="url(#clip660)" d="M1473.42 1555 L1473.42 1546.3 Q1473.42 1545.56 1473.45 1545.3 Q1473.48 1545.05 1473.68 1544.85 Q1473.87 1544.66 1474.26 1544.66 Q1474.71 1544.66 1474.87 1544.85 Q1475.06 1545.05 1475.19 1545.79 Q1476.19 1550.33 1478.31 1552.74 Q1480.47 1555.13 1484.37 1555.13 Q1488.07 1555.13 1489.94 1553.48 Q1491.81 1551.84 1491.81 1549.14 Q1491.81 1544.31 1484.95 1543.08 Q1480.99 1542.28 1479.34 1541.76 Q1477.7 1541.21 1476.25 1540.02 Q1473.42 1537.7 1473.42 1534.42 Q1473.42 1531.13 1475.9 1528.72 Q1478.41 1526.3 1483.95 1526.3 Q1487.65 1526.3 1490.17 1528.17 Q1490.91 1527.59 1491.29 1527.11 Q1492.16 1526.3 1492.61 1526.3 Q1493.13 1526.3 1493.23 1526.66 Q1493.32 1526.98 1493.32 1527.91 L1493.32 1534.55 Q1493.32 1535.29 1493.29 1535.55 Q1493.26 1535.8 1493.06 1536 Q1492.87 1536.16 1492.45 1536.16 Q1491.71 1536.16 1491.68 1535.55 Q1491.16 1527.56 1483.95 1527.56 Q1480.05 1527.56 1478.31 1529.07 Q1476.57 1530.55 1476.57 1532.58 Q1476.57 1533.71 1477.09 1534.58 Q1477.64 1535.42 1478.31 1535.93 Q1479.02 1536.42 1480.31 1536.9 Q1481.6 1537.35 1482.37 1537.51 Q1483.18 1537.67 1484.69 1537.99 Q1489.97 1538.99 1492.19 1541.15 Q1494.96 1543.92 1494.96 1547.43 Q1494.96 1551.33 1492.32 1553.97 Q1489.68 1556.61 1484.37 1556.61 Q1480.09 1556.61 1477.09 1553.74 Q1476.7 1554.13 1476.41 1554.48 Q1476.12 1554.8 1476 1554.93 Q1475.9 1555.06 1475.87 1555.16 Q1475.83 1555.22 1475.77 1555.29 Q1474.45 1556.61 1474.13 1556.61 Q1473.61 1556.61 1473.52 1556.25 Q1473.42 1555.93 1473.42 1555 Z" fill="#000000" fill-rule="nonzero" fill-opacity="1" /><path clip-path="url(#clip660)" d="M1500.18 1571.71 Q1500.18 1571.39 1501.02 1570.59 Q1511.65 1559.76 1511.65 1539.38 Q1511.65 1518.93 1501.44 1508.59 Q1500.18 1507.4 1500.18 1507.04 Q1500.18 1506.4 1500.83 1506.4 Q1501.28 1506.4 1502.86 1507.72 Q1504.47 1509.04 1506.88 1512.07 Q1509.33 1515.1 1511.13 1518.8 Q1515.48 1527.78 1515.48 1539.38 Q1515.48 1550.52 1511.33 1559.51 Q1509.56 1563.28 1507.08 1566.43 Q1504.6 1569.59 1502.95 1570.97 Q1501.31 1572.36 1500.83 1572.36 Q1500.18 1572.36 1500.18 1571.71 Z" fill="#000000" fill-rule="nonzero" fill-opacity="1" /><polyline clip-path="url(#clip660)" style="stroke:#000000; stroke-linecap:round; stroke-linejoin:round; stroke-width:4; stroke-opacity:1; fill:none" points="276.876,1423.18 276.876,47.2441 "/>
<polyline clip-path="url(#clip660)" style="stroke:#000000; stroke-linecap:round; stroke-linejoin:round; stroke-width:4; stroke-opacity:1; fill:none" points="276.876,1191.04 295.773,1191.04 "/>
<polyline clip-path="url(#clip660)" style="stroke:#000000; stroke-linecap:round; stroke-linejoin:round; stroke-width:4; stroke-opacity:1; fill:none" points="276.876,610.705 295.773,610.705 "/>
<path clip-path="url(#clip660)" d="M114.931 1210.84 L122.57 1210.84 L122.57 1184.47 L114.26 1186.14 L114.26 1181.88 L122.524 1180.21 L127.2 1180.21 L127.2 1210.84 L134.839 1210.84 L134.839 1214.77 L114.931 1214.77 L114.931 1210.84 Z" fill="#000000" fill-rule="nonzero" fill-opacity="1" /><path clip-path="url(#clip660)" d="M154.283 1183.29 Q150.672 1183.29 148.843 1186.86 Q147.038 1190.4 147.038 1197.53 Q147.038 1204.63 148.843 1208.2 Q150.672 1211.74 154.283 1211.74 Q157.917 1211.74 159.723 1208.2 Q161.552 1204.63 161.552 1197.53 Q161.552 1190.4 159.723 1186.86 Q157.917 1183.29 154.283 1183.29 M154.283 1179.59 Q160.093 1179.59 163.149 1184.19 Q166.227 1188.78 166.227 1197.53 Q166.227 1206.25 163.149 1210.86 Q160.093 1215.44 154.283 1215.44 Q148.473 1215.44 145.394 1210.86 Q142.339 1206.25 142.339 1197.53 Q142.339 1188.78 145.394 1184.19 Q148.473 1179.59 154.283 1179.59 Z" fill="#000000" fill-rule="nonzero" fill-opacity="1" /><path clip-path="url(#clip660)" d="M166.227 1173.69 L190.339 1173.69 L190.339 1176.89 L166.227 1176.89 L166.227 1173.69 Z" fill="#000000" fill-rule="nonzero" fill-opacity="1" /><path clip-path="url(#clip660)" d="M199.197 1184.16 L205.404 1184.16 L205.404 1162.74 L198.652 1164.1 L198.652 1160.64 L205.366 1159.28 L209.166 1159.28 L209.166 1184.16 L215.372 1184.16 L215.372 1187.36 L199.197 1187.36 L199.197 1184.16 Z" fill="#000000" fill-rule="nonzero" fill-opacity="1" /><path clip-path="url(#clip660)" d="M231.171 1161.78 Q228.237 1161.78 226.751 1164.68 Q225.284 1167.56 225.284 1173.35 Q225.284 1179.12 226.751 1182.02 Q228.237 1184.9 231.171 1184.9 Q234.124 1184.9 235.591 1182.02 Q237.076 1179.12 237.076 1173.35 Q237.076 1167.56 235.591 1164.68 Q234.124 1161.78 231.171 1161.78 M231.171 1158.77 Q235.891 1158.77 238.374 1162.52 Q240.876 1166.24 240.876 1173.35 Q240.876 1180.44 238.374 1184.18 Q235.891 1187.91 231.171 1187.91 Q226.45 1187.91 223.949 1184.18 Q221.466 1180.44 221.466 1173.35 Q221.466 1166.24 223.949 1162.52 Q226.45 1158.77 231.171 1158.77 Z" fill="#000000" fill-rule="nonzero" fill-opacity="1" /><path clip-path="url(#clip660)" d="M140.247 630.497 L147.886 630.497 L147.886 604.132 L139.575 605.798 L139.575 601.539 L147.839 599.872 L152.515 599.872 L152.515 630.497 L160.154 630.497 L160.154 634.432 L140.247 634.432 L140.247 630.497 Z" fill="#000000" fill-rule="nonzero" fill-opacity="1" /><path clip-path="url(#clip660)" d="M179.598 602.951 Q175.987 602.951 174.159 606.516 Q172.353 610.058 172.353 617.187 Q172.353 624.294 174.159 627.858 Q175.987 631.4 179.598 631.4 Q183.233 631.4 185.038 627.858 Q186.867 624.294 186.867 617.187 Q186.867 610.058 185.038 606.516 Q183.233 602.951 179.598 602.951 M179.598 599.247 Q185.409 599.247 188.464 603.854 Q191.543 608.437 191.543 617.187 Q191.543 625.914 188.464 630.52 Q185.409 635.104 179.598 635.104 Q173.788 635.104 170.71 630.52 Q167.654 625.914 167.654 617.187 Q167.654 608.437 170.71 603.854 Q173.788 599.247 179.598 599.247 Z" fill="#000000" fill-rule="nonzero" fill-opacity="1" /><path clip-path="url(#clip660)" d="M191.543 593.349 L215.654 593.349 L215.654 596.546 L191.543 596.546 L191.543 593.349 Z" fill="#000000" fill-rule="nonzero" fill-opacity="1" /><path clip-path="url(#clip660)" d="M223.892 578.942 L238.807 578.942 L238.807 582.139 L227.372 582.139 L227.372 589.023 Q228.199 588.741 229.027 588.609 Q229.854 588.459 230.682 588.459 Q235.384 588.459 238.13 591.035 Q240.876 593.612 240.876 598.013 Q240.876 602.546 238.054 605.066 Q235.233 607.567 230.099 607.567 Q228.331 607.567 226.488 607.267 Q224.663 606.966 222.707 606.364 L222.707 602.546 Q224.4 603.467 226.205 603.919 Q228.011 604.37 230.023 604.37 Q233.277 604.37 235.177 602.659 Q237.076 600.947 237.076 598.013 Q237.076 595.079 235.177 593.368 Q233.277 591.656 230.023 591.656 Q228.5 591.656 226.977 591.995 Q225.472 592.333 223.892 593.048 L223.892 578.942 Z" fill="#000000" fill-rule="nonzero" fill-opacity="1" /><path clip-path="url(#clip660)" d="M66.0841 1072.66 L64.0551 1072.66 Q64.0551 1070.27 63.6042 1068.76 Q63.1212 1067.25 62.2516 1066.7 Q61.3498 1066.12 60.7701 1065.99 Q60.1582 1065.86 59.1598 1065.86 L26.181 1065.86 Q24.2809 1065.86 23.7012 1066.7 Q23.0893 1067.5 23.0893 1071.08 L23.0893 1072.66 L21.0281 1072.66 L21.0281 1061.51 Q21.0281 1060.32 21.2535 1060 Q21.4468 1059.68 22.4774 1059.19 L59.4175 1044.9 L22.2841 1030.47 Q21.3502 1030.14 21.1891 1029.85 Q21.0281 1029.53 21.0281 1028.28 L21.0281 1017.13 L23.0893 1017.13 L23.0893 1018.71 Q23.0893 1022.29 23.7012 1023.12 Q24.2809 1023.93 26.181 1023.93 L60.9312 1023.93 Q62.8313 1023.93 63.4432 1023.12 Q64.0551 1022.29 64.0551 1018.71 L64.0551 1017.13 L66.0841 1017.13 Q65.8909 1019.58 65.8909 1026.57 Q65.8909 1033.62 66.0841 1036.07 L64.0551 1036.07 L64.0551 1034.46 Q64.0551 1030.89 63.4754 1030.08 Q62.8635 1029.28 60.9312 1029.28 L23.0893 1029.28 L23.0893 1029.34 L64.8281 1045.54 Q66.0841 1045.99 66.0841 1046.73 Q66.0841 1047.54 64.6348 1048.05 L23.6046 1063.96 L23.6046 1064.03 L59.1598 1064.03 Q60.1582 1064.03 60.7701 1063.9 Q61.3498 1063.77 62.2516 1063.22 Q63.1212 1062.64 63.6042 1061.13 Q64.0551 1059.61 64.0551 1057.23 L66.0841 1057.23 Q65.8909 1064.15 65.8909 1064.96 Q65.8909 1065.73 66.0841 1072.66 Z" fill="#000000" fill-rule="nonzero" fill-opacity="1" /><path clip-path="url(#clip660)" d="M66.0841 1006.77 L64.0551 1006.77 Q64.0551 1003.26 63.6364 1002.46 Q63.1856 1001.65 61.06 1001.65 L43.3146 1001.65 Q40.8669 1001.65 40.2872 1002.49 Q39.7075 1003.3 39.7075 1006.52 L37.6463 1006.52 L36.9378 997.306 L61.1244 997.306 Q63.0889 997.306 63.572 996.598 Q64.0551 995.889 64.0551 992.669 L66.0841 992.669 Q65.8909 999.4 65.8909 999.528 Q65.8909 1000.43 66.0841 1006.77 M25.4403 1004.01 Q24.1199 1004.01 23.0571 1003.01 Q21.9621 1001.98 21.9621 1000.53 Q21.9621 999.078 22.9604 998.047 Q23.9266 997.016 25.4725 997.016 Q26.9862 997.016 27.9846 998.047 Q28.9507 999.078 28.9507 1000.53 Q28.9507 1002.04 27.8879 1003.04 Q26.8252 1004.01 25.4403 1004.01 Z" fill="#000000" fill-rule="nonzero" fill-opacity="1" /><path clip-path="url(#clip660)" d="M66.0841 988.16 L64.0551 988.16 Q64.0551 984.65 63.6364 983.845 Q63.1856 983.04 61.06 983.04 L43.379 983.04 Q40.9313 983.04 40.3194 983.909 Q39.7075 984.747 39.7075 988.16 L37.6463 988.16 L36.9378 978.885 L43.8621 978.885 Q36.9378 975.793 36.9378 969.127 Q36.9378 964.167 39.3854 962.202 Q41.0279 960.753 42.8637 960.463 Q44.6994 960.141 49.4659 960.141 L62.0584 960.141 Q63.4432 960.077 63.7653 959.014 Q64.0551 957.951 64.0551 954.988 L66.0841 954.988 Q65.8909 961.719 65.8909 962.396 Q65.8909 962.911 66.0841 969.835 L64.0551 969.835 Q64.0551 966.325 63.6364 965.52 Q63.1856 964.682 61.06 964.682 L45.6978 964.682 Q42.3484 964.682 40.3838 965.713 Q38.3871 966.743 38.3871 969.578 Q38.3871 972.991 41.2534 975.729 Q44.1197 978.466 48.9506 978.466 L61.06 978.466 Q63.1856 978.466 63.6364 977.661 Q64.0551 976.824 64.0551 973.346 L66.0841 973.346 Q65.8909 980.077 65.8909 980.721 Q65.8909 981.236 66.0841 988.16 Z" fill="#000000" fill-rule="nonzero" fill-opacity="1" /><path clip-path="url(#clip660)" d="M66.0841 951.66 L64.0551 951.66 Q64.0551 948.149 63.6364 947.344 Q63.1856 946.539 61.06 946.539 L43.3146 946.539 Q40.8669 946.539 40.2872 947.376 Q39.7075 948.181 39.7075 951.402 L37.6463 951.402 L36.9378 942.191 L61.1244 942.191 Q63.0889 942.191 63.572 941.483 Q64.0551 940.774 64.0551 937.553 L66.0841 937.553 Q65.8909 944.285 65.8909 944.413 Q65.8909 945.315 66.0841 951.66 M25.4403 948.89 Q24.1199 948.89 23.0571 947.892 Q21.9621 946.861 21.9621 945.412 Q21.9621 943.962 22.9604 942.932 Q23.9266 941.901 25.4725 941.901 Q26.9862 941.901 27.9846 942.932 Q28.9507 943.962 28.9507 945.412 Q28.9507 946.925 27.8879 947.924 Q26.8252 948.89 25.4403 948.89 Z" fill="#000000" fill-rule="nonzero" fill-opacity="1" /><path clip-path="url(#clip660)" d="M66.0841 933.045 L64.0551 933.045 Q64.0551 929.535 63.6364 928.73 Q63.1856 927.924 61.06 927.924 L43.379 927.924 Q40.9313 927.924 40.3194 928.794 Q39.7075 929.631 39.7075 933.045 L37.6463 933.045 L36.9378 923.77 L43.8621 923.77 Q36.9378 920.678 36.9378 914.012 Q36.9378 906.282 43.379 905.219 Q40.8669 904.092 38.9023 901.741 Q36.9378 899.358 36.9378 895.654 Q36.9378 890.695 39.3854 888.73 Q41.0279 887.281 42.8637 886.991 Q44.6994 886.701 49.4659 886.701 L62.0584 886.701 Q63.4432 886.637 63.7653 885.574 Q64.0551 884.511 64.0551 881.548 L66.0841 881.548 Q65.8909 888.279 65.8909 888.923 Q65.8909 889.438 66.0841 896.395 L64.0551 896.395 Q64.0551 892.885 63.6364 892.079 Q63.1856 891.242 61.06 891.242 L45.6978 891.242 Q42.3484 891.242 40.3838 892.273 Q38.3871 893.303 38.3871 896.137 Q38.3871 899.551 41.2534 902.289 Q44.1197 905.026 48.9506 905.026 L61.06 905.026 Q63.1856 905.026 63.6364 904.221 Q64.0551 903.384 64.0551 899.873 L66.0841 899.873 Q65.8909 906.604 65.8909 907.281 Q65.8909 907.796 66.0841 914.72 L64.0551 914.72 Q64.0551 911.21 63.6364 910.405 Q63.1856 909.567 61.06 909.567 L45.6978 909.567 Q42.3484 909.567 40.3838 910.598 Q38.3871 911.628 38.3871 914.462 Q38.3871 917.876 41.2534 920.614 Q44.1197 923.351 48.9506 923.351 L61.06 923.351 Q63.1856 923.351 63.6364 922.546 Q64.0551 921.709 64.0551 918.231 L66.0841 918.231 Q65.8909 924.962 65.8909 925.606 Q65.8909 926.121 66.0841 933.045 Z" fill="#000000" fill-rule="nonzero" fill-opacity="1" /><path clip-path="url(#clip660)" d="M39.7075 878.922 L37.6463 878.922 L36.9378 869.228 L58.8378 869.228 Q60.4159 869.228 61.3498 869.1 Q62.2516 868.971 63.3144 868.455 Q64.3772 867.908 64.8603 866.684 Q65.3434 865.428 65.3434 863.431 Q65.3434 859.856 62.4126 857.666 Q59.4819 855.444 55.1341 855.444 L43.379 855.444 Q40.9313 855.444 40.3194 856.314 Q39.7075 857.183 39.7075 860.597 L37.6463 860.597 L36.9378 850.903 L60.3515 850.903 Q62.7991 850.903 63.4432 850.066 Q64.0551 849.196 64.0551 845.75 L66.0841 845.75 L66.8248 855.251 L60.8667 855.251 Q66.7926 858.021 66.8248 863.753 Q66.8248 866.652 66.0841 868.649 Q65.3434 870.613 64.4416 871.612 Q63.5076 872.61 61.7363 873.157 Q59.965 873.673 58.87 873.737 Q57.775 873.802 55.6494 873.802 L45.7622 873.802 Q41.2856 873.802 40.5126 874.446 Q39.7075 875.09 39.7075 878.922 Z" fill="#000000" fill-rule="nonzero" fill-opacity="1" /><path clip-path="url(#clip660)" d="M66.0841 843.478 L64.0551 843.478 Q64.0551 839.967 63.6364 839.162 Q63.1856 838.357 61.06 838.357 L43.379 838.357 Q40.9313 838.357 40.3194 839.226 Q39.7075 840.064 39.7075 843.478 L37.6463 843.478 L36.9378 834.202 L43.8621 834.202 Q36.9378 831.111 36.9378 824.444 Q36.9378 816.715 43.379 815.652 Q40.8669 814.525 38.9023 812.173 Q36.9378 809.79 36.9378 806.087 Q36.9378 801.127 39.3854 799.162 Q41.0279 797.713 42.8637 797.423 Q44.6994 797.133 49.4659 797.133 L62.0584 797.133 Q63.4432 797.069 63.7653 796.006 Q64.0551 794.943 64.0551 791.98 L66.0841 791.98 Q65.8909 798.711 65.8909 799.356 Q65.8909 799.871 66.0841 806.827 L64.0551 806.827 Q64.0551 803.317 63.6364 802.512 Q63.1856 801.674 61.06 801.674 L45.6978 801.674 Q42.3484 801.674 40.3838 802.705 Q38.3871 803.736 38.3871 806.57 Q38.3871 809.984 41.2534 812.721 Q44.1197 815.458 48.9506 815.458 L61.06 815.458 Q63.1856 815.458 63.6364 814.653 Q64.0551 813.816 64.0551 810.306 L66.0841 810.306 Q65.8909 817.037 65.8909 817.713 Q65.8909 818.228 66.0841 825.152 L64.0551 825.152 Q64.0551 821.642 63.6364 820.837 Q63.1856 820 61.06 820 L45.6978 820 Q42.3484 820 40.3838 821.03 Q38.3871 822.061 38.3871 824.895 Q38.3871 828.309 41.2534 831.046 Q44.1197 833.784 48.9506 833.784 L61.06 833.784 Q63.1856 833.784 63.6364 832.978 Q64.0551 832.141 64.0551 828.663 L66.0841 828.663 Q65.8909 835.394 65.8909 836.038 Q65.8909 836.553 66.0841 843.478 Z" fill="#000000" fill-rule="nonzero" fill-opacity="1" /><path clip-path="url(#clip660)" d="M43.7332 788.035 Q33.6528 788.035 26.6319 781.593 Q19.5788 775.12 19.5788 766.135 Q19.5788 757.085 26.6319 750.644 Q33.685 744.17 43.7332 744.17 Q53.6848 744.17 60.6091 750.644 Q67.5334 757.117 67.5334 766.135 Q67.5334 775.023 60.6413 781.529 Q53.7493 788.035 43.7332 788.035 M42.7993 781.239 Q48.9184 781.239 53.6204 779.79 Q58.2903 778.341 60.8345 776.022 Q63.3788 773.671 64.6026 771.159 Q65.8264 768.647 65.8264 766.07 Q65.8264 763.558 64.6348 761.111 Q63.4432 758.631 60.9312 756.28 Q58.4191 753.929 53.717 752.447 Q49.015 750.966 42.7993 750.966 Q37.9684 750.966 34.1037 751.996 Q30.2068 753.027 27.8557 754.637 Q25.5047 756.247 23.9588 758.341 Q22.4129 760.402 21.8332 762.367 Q21.2213 764.299 21.2213 766.135 Q21.2213 768.453 22.2519 770.869 Q23.2825 773.284 25.5691 775.732 Q27.8235 778.147 32.3001 779.693 Q36.7446 781.239 42.7993 781.239 Z" fill="#000000" fill-rule="nonzero" fill-opacity="1" /><path clip-path="url(#clip660)" d="M23.0893 736.492 L21.0281 736.492 L20.3196 726.991 L41.2212 726.991 Q36.9378 723.159 36.9378 717.942 Q36.9378 712.273 41.2856 708.119 Q45.6334 703.964 51.8491 703.964 Q58.1292 703.964 62.477 708.312 Q66.8248 712.66 66.8248 718.682 Q66.8248 724.157 61.994 727.313 Q66.0197 729.632 66.0841 729.697 L66.0841 731.339 L26.7607 731.339 Q24.3131 731.339 23.7012 732.209 Q23.0893 733.078 23.0893 736.492 M58.5801 726.798 Q59.965 726.798 61.3498 725.864 Q65.3434 723.256 65.3434 719.004 Q65.3434 718.972 65.3434 718.94 Q65.3434 714.335 61.1244 711.468 Q57.9682 709.439 51.7847 709.439 Q45.6656 709.439 42.606 711.339 Q38.3871 713.98 38.3871 718.264 Q38.3871 723.095 42.606 726.057 Q43.6688 726.798 44.9893 726.798 L58.5801 726.798 Z" fill="#000000" fill-rule="nonzero" fill-opacity="1" /><path clip-path="url(#clip660)" d="M74.3288 704.215 Q73.0084 704.215 72.1388 703.378 Q71.3014 702.573 71.3014 701.188 Q71.3014 699.803 72.1388 698.998 Q73.0084 698.161 74.3288 698.161 Q75.5204 698.161 76.2611 698.869 Q77.0341 699.546 77.2917 700.447 Q78.1613 698.74 78.1613 696.905 Q78.1613 695.391 77.2595 694.36 Q76.3578 693.33 74.8763 692.879 Q73.3948 692.396 72.1388 692.235 Q70.915 692.074 69.4979 692.074 L43.379 692.074 Q40.9313 692.074 40.3194 693.04 Q39.7075 693.974 39.7075 697.742 L37.6463 697.742 L36.9378 687.726 L69.3691 687.726 Q73.7813 687.726 76.6798 690.367 Q79.6106 693.008 79.6106 696.744 Q79.6106 699.771 78.1935 701.993 Q76.7764 704.215 74.3288 704.215 M27.9524 693.684 Q26.9218 694.715 25.4725 694.715 Q24.0232 694.715 22.9927 693.684 Q21.9621 692.654 21.9621 691.204 Q21.9621 689.755 22.9927 688.724 Q24.0232 687.694 25.4725 687.694 Q26.9218 687.694 27.9524 688.724 Q28.9507 689.755 28.9507 691.204 Q28.9507 692.654 27.9524 693.684 Z" fill="#000000" fill-rule="nonzero" fill-opacity="1" /><path clip-path="url(#clip660)" d="M51.5593 676.919 Q45.3435 676.919 40.9313 672.925 Q36.5191 668.932 36.5191 663.199 Q36.5191 657.402 40.2872 654.407 Q44.0553 651.38 49.4659 651.38 Q50.4643 651.38 50.6575 651.637 Q50.8507 651.895 50.8507 653.022 L50.8507 671.444 Q57.5817 671.444 60.7379 669.447 Q65.1501 666.677 65.1501 662.007 Q65.1501 661.363 65.0213 660.59 Q64.8925 659.817 64.345 658.239 Q63.7653 656.661 62.2516 655.276 Q60.7379 653.892 58.3547 653.086 Q57.4207 652.893 57.4529 652.249 Q57.4529 651.38 58.2259 651.38 Q58.8056 651.38 60.126 652.024 Q61.4142 652.636 62.9601 653.827 Q64.506 655.019 65.6654 657.338 Q66.8248 659.624 66.8248 662.394 Q66.8248 668.191 62.4448 672.571 Q58.0326 676.919 51.5593 676.919 M49.4659 671.379 L49.4659 655.727 Q48.081 655.727 46.5351 655.985 Q44.9893 656.21 42.8637 656.919 Q40.7059 657.595 39.3532 659.206 Q38.0006 660.816 38.0006 663.199 Q38.0006 664.262 38.4515 665.421 Q38.9023 666.549 39.9973 667.933 Q41.0923 669.318 43.5722 670.284 Q46.052 671.251 49.4659 671.379 Z" fill="#000000" fill-rule="nonzero" fill-opacity="1" /><path clip-path="url(#clip660)" d="M62.477 643.736 Q58.097 647.923 51.8491 647.923 Q45.569 647.923 41.0601 643.801 Q36.5191 639.678 36.5191 633.624 Q36.5191 629.598 38.4515 626.571 Q40.3516 623.543 43.6044 623.543 Q45.0537 623.543 45.891 624.413 Q46.6962 625.25 46.6962 626.571 Q46.6962 627.955 45.8588 628.793 Q44.9893 629.598 43.6688 629.598 Q43.0891 629.598 42.5094 629.405 Q41.9297 629.211 41.3178 628.503 Q40.7059 627.762 40.6093 626.506 Q38.1938 628.857 38.1938 633.43 Q38.1938 633.495 38.1938 633.559 Q38.1938 636.909 41.35 639.678 Q44.5062 642.448 51.7203 642.448 Q55.4884 642.448 58.2581 641.546 Q60.9956 640.612 62.4126 639.099 Q63.8297 637.585 64.506 636.104 Q65.1501 634.622 65.1501 633.173 Q65.1501 626.699 58.2259 624.509 Q57.5817 624.316 57.5817 623.672 Q57.5817 622.803 58.2259 622.803 Q58.5479 622.803 59.3853 623.06 Q60.2226 623.318 61.5431 624.123 Q62.8635 624.928 64.0229 626.088 Q65.1501 627.215 65.9875 629.244 Q66.8248 631.24 66.8248 633.752 Q66.8248 639.55 62.477 643.736 Z" fill="#000000" fill-rule="nonzero" fill-opacity="1" /><path clip-path="url(#clip660)" d="M39.7075 620.511 L38.2582 620.511 Q38.1294 617.484 36.0038 615.487 Q33.846 613.458 31.2051 612.782 Q28.5643 612.073 25.5047 612.009 L25.5047 610.367 L37.6463 610.367 L37.6463 600.93 L39.7075 600.93 L39.7075 610.367 L58.0326 610.367 Q65.1501 610.367 65.1501 605.922 Q65.1501 604.022 63.2178 602.766 Q61.2532 601.51 57.775 601.51 L54.1357 601.51 L54.1357 599.867 L57.9038 599.867 Q61.4787 599.867 64.1517 601.51 Q66.8248 603.152 66.8248 606.405 Q66.8248 607.597 66.5028 608.788 Q66.2129 609.948 65.44 611.494 Q64.6348 613.007 62.7025 613.974 Q60.7379 614.908 57.9038 614.908 L39.7075 614.908 L39.7075 620.511 Z" fill="#000000" fill-rule="nonzero" fill-opacity="1" /><path clip-path="url(#clip660)" d="M66.0841 595.976 L64.0551 595.976 Q64.0551 592.466 63.6364 591.66 Q63.1856 590.855 61.06 590.855 L43.3146 590.855 Q40.8669 590.855 40.2872 591.693 Q39.7075 592.498 39.7075 595.718 L37.6463 595.718 L36.9378 586.507 L61.1244 586.507 Q63.0889 586.507 63.572 585.799 Q64.0551 585.09 64.0551 581.87 L66.0841 581.87 Q65.8909 588.601 65.8909 588.73 Q65.8909 589.631 66.0841 595.976 M25.4403 593.206 Q24.1199 593.206 23.0571 592.208 Q21.9621 591.177 21.9621 589.728 Q21.9621 588.279 22.9604 587.248 Q23.9266 586.218 25.4725 586.218 Q26.9862 586.218 27.9846 587.248 Q28.9507 588.279 28.9507 589.728 Q28.9507 591.242 27.8879 592.24 Q26.8252 593.206 25.4403 593.206 Z" fill="#000000" fill-rule="nonzero" fill-opacity="1" /><path clip-path="url(#clip660)" d="M39.7075 577.361 L37.6463 577.361 Q37.8396 574.399 37.8396 570.953 Q37.8396 569.697 37.6463 563.771 L39.7075 563.771 Q39.7075 567.539 41.4144 567.539 Q41.6721 567.539 42.5416 567.152 L60.9312 559.745 L44.1197 553.014 Q42.9925 552.627 42.5416 552.627 Q41.4144 552.627 40.6093 553.4 Q39.7719 554.141 39.7075 555.784 L37.6463 555.784 Q37.8396 552.434 37.8396 550.051 Q37.8396 547.346 37.6463 545.123 L39.7075 545.123 Q39.7075 547.088 40.6093 548.473 Q41.4788 549.858 42.2518 550.309 Q42.9925 550.727 44.1197 551.178 L65.5688 559.809 Q66.8248 560.325 66.8248 561.194 Q66.8248 561.774 66.5672 562.032 Q66.3417 562.257 65.5688 562.579 L42.1551 572.08 Q40.5126 572.724 40.1262 573.561 Q39.7075 574.399 39.7075 577.361 Z" fill="#000000" fill-rule="nonzero" fill-opacity="1" /><path clip-path="url(#clip660)" d="M51.5593 541.053 Q45.3435 541.053 40.9313 537.059 Q36.5191 533.066 36.5191 527.333 Q36.5191 521.536 40.2872 518.541 Q44.0553 515.514 49.4659 515.514 Q50.4643 515.514 50.6575 515.771 Q50.8507 516.029 50.8507 517.156 L50.8507 535.578 Q57.5817 535.578 60.7379 533.581 Q65.1501 530.812 65.1501 526.142 Q65.1501 525.498 65.0213 524.725 Q64.8925 523.952 64.345 522.374 Q63.7653 520.796 62.2516 519.411 Q60.7379 518.026 58.3547 517.221 Q57.4207 517.027 57.4529 516.383 Q57.4529 515.514 58.2259 515.514 Q58.8056 515.514 60.126 516.158 Q61.4142 516.77 62.9601 517.961 Q64.506 519.153 65.6654 521.472 Q66.8248 523.758 66.8248 526.528 Q66.8248 532.325 62.4448 536.705 Q58.0326 541.053 51.5593 541.053 M49.4659 535.514 L49.4659 519.862 Q48.081 519.862 46.5351 520.119 Q44.9893 520.345 42.8637 521.053 Q40.7059 521.73 39.3532 523.34 Q38.0006 524.95 38.0006 527.333 Q38.0006 528.396 38.4515 529.556 Q38.9023 530.683 39.9973 532.068 Q41.0923 533.452 43.5722 534.419 Q46.052 535.385 49.4659 535.514 Z" fill="#000000" fill-rule="nonzero" fill-opacity="1" /><path clip-path="url(#clip660)" d="M60.5447 505.294 Q53.556 512.057 43.54 512.057 Q33.4918 512.057 26.5353 505.23 Q19.5788 498.402 19.5788 489.127 Q19.5788 486.808 20.1263 484.843 Q20.6416 482.847 21.7044 481.268 Q22.735 479.69 23.4435 478.885 Q24.1199 478.048 25.2471 476.921 L20.384 473.603 Q19.5788 473.088 19.5788 472.573 Q19.5788 472.025 19.9009 471.929 Q20.1907 471.832 21.1569 471.832 L36.809 471.832 Q37.8718 471.832 38.1294 471.961 Q38.3871 472.09 38.3871 472.895 Q38.3871 473.539 38.1938 473.668 Q38.0006 473.797 37.2598 473.958 Q30.1424 474.956 25.8912 478.95 Q21.64 482.911 21.64 488.322 Q21.64 489.9 21.9943 491.671 Q22.3485 493.41 23.7012 495.987 Q25.0538 498.531 27.276 500.495 Q29.466 502.428 33.7172 503.845 Q37.9362 505.262 43.54 505.262 Q49.0794 505.262 53.3306 503.845 Q57.5817 502.428 59.804 500.463 Q61.994 498.466 63.3788 495.89 Q64.7637 493.281 65.1501 491.446 Q65.5044 489.578 65.5044 487.935 Q65.5044 486.808 65.2789 485.487 Q65.0213 484.167 64.3128 482.202 Q63.572 480.206 61.8329 478.95 Q60.0938 477.694 57.5173 477.694 L53.2984 477.694 Q51.3338 477.694 50.7219 478.66 Q50.11 479.626 50.11 483.845 L50.11 485.938 L48.081 485.938 Q48.2743 483.555 48.2743 475.343 Q48.2743 474.602 48.081 467.291 L50.11 467.291 Q50.11 470.447 50.5931 471.156 Q51.044 471.832 53.0085 471.832 L64.506 471.832 Q66.0197 471.832 66.0197 472.412 Q66.0197 472.927 64.5382 474.473 Q63.0567 475.987 61.9295 476.663 Q64.6992 478.241 66.1163 481.687 Q67.5334 485.101 67.5334 488.998 Q67.5334 498.499 60.5447 505.294 Z" fill="#000000" fill-rule="nonzero" fill-opacity="1" /><path clip-path="url(#clip660)" d="M59.804 461.388 Q54.2001 461.388 51.2372 454.786 Q49.337 450.825 48.854 442.644 L46.4385 442.644 Q42.3484 442.644 40.1906 444.802 Q38.0006 446.928 38.0006 449.633 Q38.0006 454.464 41.0279 456.783 Q41.0923 454.818 42.0907 454.11 Q43.0569 453.401 44.0553 453.401 Q45.3757 453.401 46.2453 454.239 Q47.0826 455.044 47.0826 456.429 Q47.0826 457.749 46.2775 458.619 Q45.4401 459.488 43.9909 459.488 Q40.7703 459.488 38.6447 456.59 Q36.5191 453.659 36.5191 449.504 Q36.5191 444.094 40.1584 440.487 Q41.2856 439.359 42.7348 438.812 Q44.1841 438.232 45.1503 438.168 Q46.0843 438.103 47.9522 438.103 L61.1244 438.103 Q61.5109 438.103 62.155 437.975 Q62.7991 437.846 63.6364 437.266 Q64.4416 436.654 64.4416 435.656 Q64.4416 433.272 60.2226 433.305 L56.519 433.305 L56.519 431.63 L60.2226 431.63 Q63.7331 431.63 65.1179 433.498 Q66.4706 435.334 66.4706 437.041 Q66.4706 439.231 64.8603 440.615 Q63.25 442 61.06 442.194 Q63.572 443.192 65.2145 445.479 Q66.8248 447.733 66.8248 450.825 Q66.8248 453.208 66.2129 455.462 Q65.6332 457.685 63.9907 459.552 Q62.316 461.388 59.804 461.388 M59.7395 456.3 Q62.1872 456.3 63.7653 454.561 Q65.3434 452.821 65.3434 450.374 Q65.3434 447.604 63.2178 445.124 Q61.06 442.644 56.841 442.644 L50.2388 442.644 Q50.4965 449.955 53.4272 453.144 Q56.3257 456.3 59.7395 456.3 Z" fill="#000000" fill-rule="nonzero" fill-opacity="1" /><path clip-path="url(#clip660)" d="M76.8409 434.004 Q76.8409 430.494 76.39 429.689 Q75.9713 428.851 73.8779 428.851 L42.9925 428.851 Q40.8025 428.851 40.255 429.689 Q39.7075 430.494 39.7075 434.004 L37.6463 434.004 L36.9378 424.503 L41.2856 424.503 Q36.9378 420.542 36.9378 415.26 Q36.9378 409.657 41.2856 405.566 Q45.6334 401.476 51.8491 401.476 Q58.1292 401.476 62.477 405.824 Q66.8248 410.172 66.8248 416.194 Q66.8248 419.479 65.1501 421.702 Q63.4432 423.892 62.1872 424.31 L62.7991 424.31 L73.8779 424.31 Q76.0035 424.31 76.4222 423.473 Q76.8409 422.635 76.8409 419.157 L78.8698 419.157 Q78.6766 426.082 78.6766 426.597 Q78.6766 427.241 78.8698 434.004 L76.8409 434.004 M58.5801 424.31 Q59.5785 424.31 59.9328 424.181 Q60.287 424.02 61.3498 423.376 Q65.3434 420.768 65.3434 416.516 Q65.3434 416.484 65.3434 416.452 Q65.3434 412.684 61.5109 409.818 Q57.6462 406.951 51.8491 406.951 Q46.3097 406.951 42.445 409.56 Q38.5803 412.169 38.5803 415.776 Q38.5803 418.352 39.9651 420.607 Q41.35 422.861 43.8621 424.31 L58.5801 424.31 Z" fill="#000000" fill-rule="nonzero" fill-opacity="1" /><polyline clip-path="url(#clip662)" style="stroke:#785ef0; stroke-linecap:round; stroke-linejoin:round; stroke-width:8; stroke-opacity:1; fill:none" points="276.876,90.1663 314.619,311.1 352.362,465.609 390.105,597.237 427.849,719.328 465.592,836.655 503.335,951.769 541.078,1065.49 578.822,1178.18 616.565,1290.03 654.308,1401.17 692.052,1512.08 "/>
<polyline clip-path="url(#clip662)" style="stroke:#785ef0; stroke-linecap:round; stroke-linejoin:round; stroke-width:8; stroke-opacity:1; fill:none" stroke-dasharray="32, 20" points="276.876,90.1663 312.179,341.944 347.482,462.23 382.786,568.407 418.089,676.154 453.392,782.249 488.696,888.188 523.999,993.733 559.302,1099.11 594.606,1204.34 629.909,1309.48 665.212,1414.62 700.516,1520.25 "/>
<polyline clip-path="url(#clip662)" style="stroke:#fe6100; stroke-linecap:round; stroke-linejoin:round; stroke-width:8; stroke-opacity:1; fill:none" points="276.876,90.1663 510.317,285.204 743.758,308.643 977.199,452.243 1210.64,585.172 1444.08,697.905 1677.52,818.135 1910.96,818.137 2144.41,936.772 2377.85,1175.82 2611.29,1176.07 2844.73,1181.56 3078.17,1181.56 3311.61,1320.82 3545.05,1320.82 3778.49,1320.82 4011.93,1320.82 4245.38,1320.82 4478.82,1320.82 4712.26,1320.82 4945.7,1320.82 5179.14,1320.82 5412.58,1320.82 5646.02,1320.82 5879.46,1408.85 6112.91,1408.85 6346.35,1408.85 6579.79,1408.85 6813.23,1408.85 7046.67,1408.85 7280.11,1408.85 7513.55,1408.85 7746.99,1408.85 7980.44,1408.85 8213.88,1520.91 "/>
<polyline clip-path="url(#clip662)" style="stroke:#fe6100; stroke-linecap:round; stroke-linejoin:round; stroke-width:8; stroke-opacity:1; fill:none" stroke-dasharray="32, 20" points="276.876,90.1663 694.948,298.38 1113.02,298.38 1531.09,507.483 1949.17,627.354 2367.24,627.354 2785.31,745.9 3203.39,757.302 3621.46,898.21 4039.53,898.31 4457.6,1006.47 4875.68,1112.61 5293.75,1217 5711.82,1217 6129.9,1217 6547.97,1217 6966.04,1462.35 "/>
<polyline clip-path="url(#clip662)" style="stroke:#ffb000; stroke-linecap:round; stroke-linejoin:round; stroke-width:8; stroke-opacity:1; fill:none" points="276.876,90.1663 294.861,208.604 312.847,208.604 330.832,349.219 348.818,349.219 366.803,549.399 384.789,549.399 402.775,549.399 420.76,549.399 438.746,549.555 456.731,549.555 474.717,617.988 492.702,617.988 510.688,617.988 528.673,617.988 546.659,654.028 564.645,654.028 582.63,654.028 600.616,654.028 618.601,654.028 636.587,654.028 654.572,704.327 672.558,704.327 690.544,704.327 708.529,704.327 726.515,704.327 744.5,704.327 762.486,704.327 780.471,704.327 798.457,717.886 816.443,717.886 834.428,717.886 852.414,717.886 870.399,717.886 888.385,717.886 906.37,717.886 924.356,717.886 942.342,717.886 960.327,717.886 978.313,718.544 996.298,718.544 1014.28,718.544 1032.27,718.544 1050.26,718.544 1068.24,718.544 1086.23,718.544 1104.21,718.544 1122.2,718.544 1140.18,718.544 1158.17,725.258 1176.15,725.258 1194.14,732.518 1212.13,732.518 1230.11,732.518 1248.1,732.518 1266.08,732.518 1284.07,732.518 1302.05,732.518 1320.04,732.518 1338.02,732.518 1356.01,732.518 1374,737.979 1391.98,737.979 1409.97,747.882 1427.95,747.882 1445.94,750.907 1463.92,750.907 1481.91,750.907 1499.89,750.907 1517.88,750.907 1535.87,750.907 1553.85,750.907 1571.84,750.907 1589.82,750.907 1607.81,750.907 1625.79,755.438 1643.78,755.438 1661.76,763.361 1679.75,763.361 1697.74,768.672 1715.72,768.672 1733.71,769.321 1751.69,769.321 1769.68,769.321 1787.66,769.321 1805.65,769.321 1823.63,769.321 1841.62,769.321 1859.61,769.321 1877.59,769.321 1895.58,769.321 1913.56,774.207 1931.55,774.207 1949.53,780.168 1967.52,780.168 1985.5,784.975 2003.49,784.975 2021.48,787.303 2039.46,787.303 2057.45,787.303 2075.43,787.303 2093.42,787.303 2111.4,787.303 2129.39,787.303 2147.37,787.303 2165.36,787.303 2183.35,787.303 2201.33,788.42 2219.32,788.42 2237.3,792.683 2255.29,792.683 2273.27,797.205 2291.26,797.205 2309.24,801.09 2327.23,801.09 2345.22,803.518 2363.2,803.518 2381.19,804.111 2399.17,804.111 2417.16,804.111 2435.14,804.111 2453.13,804.111 2471.12,804.111 2489.1,804.111 2507.09,804.111 2525.07,804.173 2543.06,804.173 2561.04,806.882 2579.03,806.882 2597.01,810.273 2615,810.273 2632.99,813.774 2650.97,813.774 2668.96,816.816 2686.94,816.816 2704.93,818.894 2722.91,818.894 2740.9,819.759 2758.88,819.759 2776.87,819.759 2794.86,819.759 2812.84,819.759 2830.83,819.759 2848.81,819.759 2866.8,819.759 2884.78,819.887 2902.77,819.887 2920.75,821.614 2938.74,821.614 2956.73,824.038 2974.71,824.038 2992.7,826.812 3010.68,826.812 3028.67,829.558 3046.65,829.558 3064.64,831.905 3082.62,831.905 3100.61,833.551 3118.6,833.551 3136.58,834.361 3154.57,834.361 3172.55,834.477 3190.54,834.477 3208.52,834.477 3226.51,834.477 3244.49,834.477 3262.48,834.477 3280.47,834.862 3298.45,834.862 3316.44,836.073 3334.42,836.073 3352.41,837.855 3370.39,837.855 3388.38,840.011 3406.36,840.011 3424.35,842.292 3442.34,842.292 3460.32,844.443 3478.31,844.443 3496.29,846.223 3514.28,846.223 3532.26,847.464 3550.25,847.464 3568.23,848.119 3586.22,848.119 3604.21,848.314 3622.19,848.314 3640.18,848.318 3658.16,848.318 3676.15,848.45 3694.13,848.45 3712.12,848.947 3730.11,848.947 3748.09,849.91 3766.08,849.91 3784.06,851.309 3802.05,851.309 3820.03,853.027 3838.02,853.027 3856,854.9 3873.99,854.9 3891.98,856.751 3909.96,856.751 3927.95,858.407 3945.93,858.407 3963.92,859.725 3981.9,859.725 3999.89,860.623 4017.87,860.623 4035.86,861.116 4053.85,861.116 4071.83,861.323 4089.82,861.323 4107.8,861.442 4125.79,861.442 4143.77,861.681 4161.76,861.681 4179.74,862.194 4197.73,862.194 4215.72,863.046 4233.7,863.046 4251.69,864.223 4269.67,864.223 4287.66,865.647 4305.64,865.647 4323.63,867.207 4341.61,867.207 4359.6,868.779 4377.59,868.779 4395.57,870.238 4413.56,870.238 4431.54,871.476 4449.53,871.476 4467.51,872.419 4485.5,872.419 4503.48,873.047 4521.47,873.047 4539.46,873.412 4557.44,873.412 4575.43,873.623 4593.41,873.623 4611.4,873.826 4629.38,873.826 4647.37,874.155 4665.35,874.155 4683.34,874.706 4701.33,874.706 4719.31,875.511 4737.3,875.511 4755.28,876.554 4773.27,876.554 4791.25,877.779 4809.24,877.779 4827.22,879.107 4845.21,879.107 4863.2,880.446 4881.18,880.446 4899.17,881.708 4917.15,881.708 4935.14,882.812 4953.12,882.812 4971.11,883.701 4989.09,883.701 5007.08,884.353 5025.07,884.353 5043.05,884.789 5061.04,884.789 5079.02,885.074 5097.01,885.074 5114.99,885.304 5132.98,885.304 5150.97,885.581 5168.95,885.581 5186.94,885.99 5204.92,885.99 5222.91,886.58 5240.89,886.58 5258.88,887.363 5276.86,887.363 5294.85,888.319 5312.84,888.319 5330.82,889.401 5348.81,889.401 5366.79,890.55 5384.78,890.55 5402.76,891.699 5420.75,891.699 5438.73,892.782 5456.72,892.782 5474.71,893.743 5492.69,893.743 5510.68,894.54 5528.66,894.54 5546.65,895.155 5564.63,895.155 5582.62,895.601 5600.6,895.601 5618.59,895.92 5636.58,895.92 5654.56,896.177 5672.55,896.177 5690.53,896.447 5708.52,896.447 5726.5,896.796 5744.49,896.796 5762.47,897.272 5780.46,897.272 5798.45,897.895 5816.43,897.895 5834.42,898.664 5852.4,898.664 5870.39,899.552 5888.37,899.552 5906.36,900.522 5924.34,900.522 5942.33,901.526 5960.32,901.526 5978.3,902.515 5996.29,902.515 6014.27,903.442 6032.26,903.442 6050.24,904.265 6068.23,904.265 6086.21,904.958 6104.2,904.958 6122.19,905.509 6140.17,905.509 6158.16,905.93 6176.14,905.93 6194.13,906.253 6212.11,906.253 6230.1,906.523 6248.08,906.523 6266.07,906.795 6284.06,906.795 6302.04,907.121 6320.03,907.121 6338.01,907.538 6356,907.538 6373.98,908.068 6391.97,908.068 6409.96,908.713 6427.94,908.713 6445.93,909.462 6463.91,909.462 6481.9,910.288 6499.88,910.288 6517.87,911.16 6535.85,911.16 6553.84,912.039 6571.83,912.039 6589.81,912.89 6607.8,912.89 6625.78,913.677 6643.77,913.677 6661.75,914.374 6679.74,914.374 6697.72,914.965 6715.71,914.965 6733.7,915.444 6751.68,915.444 6769.67,915.826 6787.65,915.826 6805.64,916.134 6823.62,916.134 6841.61,916.405 6859.59,916.405 6877.58,916.68 6895.57,916.68 6913.55,916.997 6931.54,916.997 6949.52,917.384 6967.51,917.384 6985.49,917.858 7003.48,917.858 7021.46,918.425 7039.45,918.425 7057.44,919.077 7075.42,919.077 7093.41,919.795 7111.39,919.795 7129.38,920.558 7147.36,920.558 7165.35,921.336 7183.33,921.336 7201.32,922.102 7219.31,922.102 7237.29,922.828 7255.28,922.828 7273.26,923.492 7291.25,923.492 7309.23,924.075 7327.22,924.075 7345.2,924.57 7363.19,924.57 7381.18,924.98 7399.16,924.98 7417.15,925.318 7435.13,925.318 7453.12,925.606 7471.1,925.606 7489.09,925.873 7507.07,925.873 7525.06,926.149 7543.05,926.149 7561.03,926.463 7579.02,926.463 7597,926.835 7614.99,926.835 7632.97,927.277 7650.96,927.277 7668.94,927.793 7686.93,927.793 7704.92,928.376 7722.9,928.376 7740.89,929.015 7758.87,929.015 7776.86,929.691 7794.84,929.691 7812.83,930.383 7830.82,930.383 7848.8,931.069 7866.79,931.069 7884.77,931.728 7902.76,931.728 7920.74,932.341 7938.73,932.341 7956.71,932.893 7974.7,932.893 7992.69,933.376 8010.67,933.376 8028.66,933.788 8046.64,933.788 8064.63,934.136 8082.61,934.136 8100.6,934.435 8118.58,934.435 8136.57,934.704 8154.56,934.704 8172.54,934.966 8190.53,934.966 8208.51,935.244 8226.5,935.244 8244.48,935.558 8262.47,935.558 8280.45,935.922 8298.44,935.922 8316.43,936.344 8334.41,936.344 8352.4,936.826 8370.38,936.826 8388.37,937.36 8406.35,937.36 8424.34,937.939 8442.32,937.939 8460.31,938.546 8478.3,938.546 8496.28,939.166 8514.27,939.166 8532.25,939.781 8550.24,939.781 8568.22,940.375 8586.21,940.375 8604.19,940.933 8622.18,940.933 8640.17,941.442 8658.15,941.442 8676.14,941.896 8694.12,941.896 8712.11,942.293 8730.09,942.293 8748.08,942.635 8766.06,942.635 8784.05,942.933 8802.04,942.933 8820.02,943.201 8838.01,943.201 8855.99,943.456 8873.98,943.456 8891.96,943.716 8909.95,943.716 8927.93,943.998 8945.92,943.998 8963.91,944.314 8981.89,944.314 8999.88,944.675 9017.86,944.675 9035.85,945.085 9053.83,945.085 9071.82,945.541 9089.81,945.541 9107.79,946.039 9125.78,946.039 9143.76,946.57 9161.75,946.57 9179.73,947.121 9197.72,947.121 9215.7,947.68 9233.69,947.68 9251.68,948.232 9269.66,948.232 "/>
<polyline clip-path="url(#clip662)" style="stroke:#ffb000; stroke-linecap:round; stroke-linejoin:round; stroke-width:8; stroke-opacity:1; fill:none" stroke-dasharray="32, 20" points="276.876,90.1663 294.347,149.489 311.818,323.593 329.289,323.593 346.76,390.474 364.231,390.474 381.702,454.2 399.173,454.2 416.645,534.238 434.116,534.238 451.587,628.56 469.058,628.56 486.529,628.56 504,628.56 521.471,628.56 538.943,628.56 556.414,628.56 573.885,628.56 591.356,628.56 608.827,628.56 626.298,628.56 643.769,628.56 661.241,628.56 678.712,628.56 696.183,628.56 713.654,628.56 731.125,628.56 748.596,628.56 766.067,628.56 783.539,628.56 801.01,628.56 818.481,628.56 835.952,628.56 853.423,628.56 870.894,628.56 888.365,628.56 905.836,629.843 923.308,629.843 940.779,632.292 958.25,632.292 975.721,634.549 993.192,634.549 1010.66,636.636 1028.13,636.636 1045.61,638.577 1063.08,638.577 1080.55,640.389 1098.02,640.389 1115.49,642.086 1132.96,642.086 1150.43,643.682 1167.9,643.682 1185.37,645.187 1202.85,645.187 1220.32,646.609 1237.79,646.609 1255.26,647.958 1272.73,647.958 1290.2,649.241 1307.67,649.241 1325.14,650.462 1342.61,650.462 1360.09,651.628 1377.56,651.628 1395.03,652.744 1412.5,652.744 1429.97,653.814 1447.44,653.814 1464.91,654.841 1482.38,654.841 1499.86,655.829 1517.33,655.829 1534.8,656.782 1552.27,656.782 1569.74,657.701 1587.21,657.701 1604.68,658.589 1622.15,658.589 1639.62,659.448 1657.1,659.448 1674.57,660.281 1692.04,660.281 1709.51,661.089 1726.98,661.089 1744.45,661.874 1761.92,661.874 1779.39,662.637 1796.86,662.637 1814.34,663.38 1831.81,663.38 1849.28,664.104 1866.75,664.104 1884.22,664.81 1901.69,664.81 1919.16,665.499 1936.63,665.499 1954.1,666.172 1971.58,666.172 1989.05,666.83 2006.52,666.83 2023.99,667.473 2041.46,667.473 2058.93,668.104 2076.4,668.104 2093.87,668.721 2111.35,668.721 2128.82,669.326 2146.29,669.326 2163.76,669.92 2181.23,669.92 2198.7,670.503 2216.17,670.503 2233.64,671.075 2251.11,671.075 2268.59,671.638 2286.06,671.638 2303.53,672.191 2321,672.191 2338.47,672.734 2355.94,672.734 2373.41,673.269 2390.88,673.269 2408.35,673.796 2425.83,673.796 2443.3,674.314 2460.77,674.314 2478.24,674.825 2495.71,674.825 2513.18,675.329 2530.65,675.329 2548.12,675.825 2565.59,675.825 2583.07,676.315 2600.54,676.315 2618.01,676.798 2635.48,676.798 2652.95,677.275 2670.42,677.275 2687.89,677.746 2705.36,677.746 2722.83,678.21 2740.31,678.21 2757.78,678.669 2775.25,678.669 2792.72,679.123 2810.19,679.123 2827.66,679.571 2845.13,679.571 2862.6,680.014 2880.08,680.014 2897.55,680.452 2915.02,680.452 2932.49,680.885 2949.96,680.885 2967.43,681.314 2984.9,681.314 3002.37,681.738 3019.84,681.738 3037.32,682.157 3054.79,682.157 3072.26,682.573 3089.73,682.573 3107.2,682.984 3124.67,682.984 3142.14,683.391 3159.61,683.391 3177.08,683.794 3194.56,683.794 3212.03,684.193 3229.5,684.193 3246.97,684.589 3264.44,684.589 3281.91,684.98 3299.38,684.98 3316.85,685.369 3334.32,685.369 3351.8,685.753 3369.27,685.753 3386.74,686.135 3404.21,686.135 3421.68,686.513 3439.15,686.513 3456.62,686.888 3474.09,686.888 3491.56,687.26 3509.04,687.26 3526.51,687.628 3543.98,687.628 3561.45,687.994 3578.92,687.994 3596.39,688.357 3613.86,688.357 3631.33,688.717 3648.81,688.717 3666.28,689.074 3683.75,689.074 3701.22,689.428 3718.69,689.428 3736.16,689.78 3753.63,689.78 3771.1,690.129 3788.57,690.129 3806.05,690.475 3823.52,690.475 3840.99,690.819 3858.46,690.819 3875.93,691.16 3893.4,691.16 3910.87,691.499 3928.34,691.499 3945.81,691.836 3963.29,691.836 3980.76,692.17 3998.23,692.17 4015.7,692.502 4033.17,692.502 4050.64,692.831 4068.11,692.831 4085.58,693.159 4103.05,693.159 4120.53,693.484 4138,693.484 4155.47,693.807 4172.94,693.807 4190.41,694.128 4207.88,694.128 4225.35,694.447 4242.82,694.447 4260.3,694.763 4277.77,694.763 4295.24,695.078 4312.71,695.078 4330.18,695.391 4347.65,695.391 4365.12,695.702 4382.59,695.702 4400.06,696.011 4417.54,696.011 4435.01,696.318 4452.48,696.318 4469.95,696.623 4487.42,696.623 4504.89,696.926 4522.36,696.926 4539.83,697.228 4557.3,697.228 4574.78,697.528 4592.25,697.528 4609.72,697.826 4627.19,697.826 4644.66,698.122 4662.13,698.122 4679.6,698.417 4697.07,698.417 4714.54,698.71 4732.02,698.71 4749.49,699.001 4766.96,699.001 4784.43,699.291 4801.9,699.291 4819.37,699.579 4836.84,699.579 4854.31,699.865 4871.78,699.865 4889.26,700.15 4906.73,700.15 4924.2,700.434 4941.67,700.434 4959.14,700.716 4976.61,700.716 4994.08,700.996 5011.55,700.996 5029.03,701.275 5046.5,701.275 5063.97,701.553 5081.44,701.553 5098.91,701.829 5116.38,701.829 5133.85,702.103 5151.32,702.103 5168.79,702.376 5186.27,702.376 5203.74,702.648 5221.21,702.648 5238.68,702.919 5256.15,702.919 5273.62,703.188 5291.09,703.188 5308.56,703.455 5326.03,703.455 5343.51,703.722 5360.98,703.722 5378.45,703.987 5395.92,703.987 5413.39,704.251 5430.86,704.251 5448.33,704.513 5465.8,704.513 5483.27,704.774 5500.75,704.774 5518.22,705.034 5535.69,705.034 5553.16,705.293 5570.63,705.293 5588.1,705.551 5605.57,705.551 5623.04,705.807 5640.51,705.807 5657.99,706.062 5675.46,706.062 5692.93,706.316 5710.4,706.316 5727.87,706.569 5745.34,706.569 5762.81,706.821 5780.28,706.821 5797.76,707.071 5815.23,707.071 5832.7,707.321 5850.17,707.321 5867.64,707.569 5885.11,707.569 5902.58,707.816 5920.05,707.816 5937.52,708.062 5955,708.062 5972.47,708.307 5989.94,708.307 6007.41,708.551 6024.88,708.551 6042.35,708.794 6059.82,708.794 6077.29,709.035 6094.76,709.035 6112.24,709.276 6129.71,709.276 6147.18,709.516 6164.65,709.516 6182.12,709.754 6199.59,709.754 6217.06,709.992 6234.53,709.992 6252,710.229 6269.48,710.229 6286.95,710.464 6304.42,710.464 6321.89,710.699 6339.36,710.699 6356.83,710.933 6374.3,710.933 6391.77,711.165 6409.25,711.165 6426.72,711.397 6444.19,711.397 6461.66,711.628 6479.13,712.131 6496.6,712.131 6514.07,713.035 6531.54,713.035 6549.01,713.936 6566.49,713.936 6583.96,714.833 6601.43,714.833 6618.9,715.728 6636.37,715.728 6653.84,716.62 6671.31,716.62 6688.78,717.508 6706.25,717.508 6723.73,718.394 6741.2,718.394 6758.67,719.276 6776.14,719.276 6793.61,720.156 6811.08,720.156 6828.55,721.033 6846.02,721.033 6863.49,721.907 6880.97,721.907 6898.44,722.779 6915.91,722.779 6933.38,723.648 6950.85,723.648 6968.32,724.514 6985.79,724.514 7003.26,725.377 7020.73,725.377 7038.21,726.238 7055.68,726.238 7073.15,727.096 7090.62,727.096 7108.09,727.951 7125.56,727.951 7143.03,728.804 7160.5,728.804 7177.98,729.654 7195.45,729.654 7212.92,730.502 7230.39,730.502 7247.86,731.348 7265.33,731.348 7282.8,732.191 7300.27,732.191 7317.74,733.032 7335.22,733.032 7352.69,733.87 7370.16,733.87 7387.63,734.706 7405.1,734.706 7422.57,735.54 7440.04,735.54 7457.51,736.371 7474.98,736.371 7492.46,737.2 7509.93,737.2 7527.4,738.027 7544.87,738.027 7562.34,738.852 7579.81,738.852 7597.28,739.674 7614.75,739.674 7632.22,740.495 7649.7,740.495 7667.17,741.313 7684.64,741.313 7702.11,742.129 7719.58,742.129 7737.05,742.944 7754.52,742.944 7771.99,743.756 7789.47,743.756 7806.94,744.566 7824.41,744.566 7841.88,745.374 7859.35,745.374 7876.82,746.18 7894.29,746.18 7911.76,746.984 7929.23,746.984 7946.71,747.786 7964.18,747.786 7981.65,748.587 7999.12,748.587 8016.59,749.385 8034.06,749.385 8051.53,750.182 8069,750.182 8086.47,750.977 8103.95,750.977 8121.42,751.77 8138.89,751.77 8156.36,752.561 8173.83,752.561 8191.3,753.35 8208.77,753.35 8226.24,754.138 8243.71,754.138 8261.19,754.924 8278.66,754.924 8296.13,755.708 8313.6,755.708 8331.07,756.491 8348.54,756.491 8366.01,757.272 8383.48,757.272 8400.95,758.051 8418.43,758.051 8435.9,758.829 8453.37,758.829 8470.84,759.605 8488.31,759.605 8505.78,760.38 8523.25,760.38 8540.72,761.152 8558.2,761.152 8575.67,761.924 8593.14,761.924 8610.61,762.694 8628.08,762.694 8645.55,763.462 8663.02,763.462 8680.49,764.229 8697.96,764.229 8715.44,764.995 8732.91,764.995 8750.38,765.759 8767.85,765.759 8785.32,766.521 8802.79,766.521 8820.26,767.282 8837.73,767.282 8855.2,768.042 8872.68,768.042 8890.15,768.801 8907.62,768.801 8925.09,769.558 8942.56,769.558 8960.03,770.313 8977.5,770.313 8994.97,771.068 9012.44,771.068 "/>
<path clip-path="url(#clip660)" d="M1827.66 300.469 L2283.56 300.469 L2283.56 93.1086 L1827.66 93.1086  Z" fill="#000000" fill-rule="evenodd" fill-opacity="0"/>
<polyline clip-path="url(#clip660)" style="stroke:#000000; stroke-linecap:round; stroke-linejoin:round; stroke-width:4; stroke-opacity:0; fill:none" points="1827.66,300.469 2283.56,300.469 2283.56,93.1086 1827.66,93.1086 1827.66,300.469 "/>
<polyline clip-path="url(#clip660)" style="stroke:#785ef0; stroke-linecap:round; stroke-linejoin:round; stroke-width:8; stroke-opacity:1; fill:none" points="1850.73,144.949 1989.12,144.949 "/>
<path clip-path="url(#clip660)" d="M2012.19 156.824 L2012.19 155.348 L2013.33 155.348 Q2015.93 155.348 2016.52 154.926 Q2017.13 154.481 2017.13 153.076 L2017.13 127.803 Q2017.13 126.421 2016.52 126 Q2015.91 125.555 2013.33 125.555 L2012.19 125.555 L2012.19 124.056 L2027.25 124.056 Q2032.47 124.056 2036.1 126.632 Q2039.75 129.185 2039.75 132.699 Q2039.75 135.392 2037.39 137.5 Q2035.02 139.608 2031.37 140.522 Q2036.12 142.161 2037.22 146.073 L2037.83 149.914 Q2038.02 151.296 2038.14 151.999 Q2038.28 152.701 2038.49 153.662 Q2038.7 154.622 2038.91 155.09 Q2039.15 155.535 2039.47 156.027 Q2039.8 156.496 2040.22 156.66 Q2040.67 156.824 2041.25 156.824 Q2042.35 156.824 2043.29 155.84 Q2044.23 154.856 2044.42 152.561 Q2044.51 151.788 2045 151.788 Q2045.61 151.788 2045.61 152.561 Q2045.61 153.24 2045.42 154.036 Q2045.24 154.809 2044.77 155.723 Q2044.32 156.636 2043.34 157.245 Q2042.35 157.878 2041.07 157.878 Q2037.32 157.878 2035.02 155.863 Q2034.06 154.997 2033.62 153.872 Q2033.2 152.748 2033.13 151.858 Q2033.06 150.968 2033.06 149.001 Q2033.06 146.213 2032.75 144.995 Q2032.47 143.777 2031.23 142.583 Q2029.54 140.943 2026.75 140.943 L2021.25 140.943 L2021.25 153.076 Q2021.25 154.458 2021.84 154.903 Q2022.44 155.348 2025.04 155.348 L2026.19 155.348 L2026.19 156.824 Q2024.46 156.683 2019.19 156.683 Q2013.92 156.683 2012.19 156.824 M2021.25 139.889 L2026.57 139.889 Q2029.12 139.889 2030.83 139.28 Q2032.56 138.648 2033.38 137.524 Q2034.2 136.399 2034.51 135.275 Q2034.81 134.127 2034.81 132.699 Q2034.81 131.012 2034.44 129.747 Q2034.06 128.482 2033.24 127.733 Q2032.42 126.983 2031.6 126.515 Q2030.78 126.023 2029.52 125.836 Q2028.25 125.648 2027.39 125.602 Q2026.52 125.555 2025.14 125.555 Q2022.8 125.555 2022.3 125.648 Q2021.77 125.695 2021.55 125.953 Q2021.34 126.21 2021.3 126.515 Q2021.25 126.796 2021.25 127.475 L2021.25 139.889 Z" fill="#000000" fill-rule="nonzero" fill-opacity="1" /><path clip-path="url(#clip660)" d="M2047.91 156.824 L2047.91 155.348 L2049.05 155.348 Q2051.65 155.348 2052.24 154.926 Q2052.85 154.481 2052.85 153.076 L2052.85 127.803 Q2052.85 126.421 2052.24 126 Q2051.63 125.555 2049.05 125.555 L2047.91 125.555 L2047.91 124.056 L2064.84 124.056 Q2069.69 124.056 2072.92 126.726 Q2076.15 129.396 2076.15 132.98 Q2076.15 136.54 2072.85 139.116 Q2069.57 141.669 2065.22 141.669 L2057.11 141.669 L2057.11 153.076 Q2057.11 154.458 2057.7 154.903 Q2058.31 155.348 2060.91 155.348 L2062.05 155.348 L2062.05 156.824 Q2060.37 156.683 2054.96 156.683 Q2049.59 156.683 2047.91 156.824 M2056.97 140.428 L2063.58 140.428 Q2065.73 140.428 2067.3 139.819 Q2068.87 139.21 2069.57 138.484 Q2070.3 137.734 2070.7 136.54 Q2071.12 135.322 2071.16 134.666 Q2071.21 133.987 2071.21 132.98 Q2071.21 131.926 2071.16 131.27 Q2071.12 130.59 2070.7 129.396 Q2070.3 128.178 2069.57 127.452 Q2068.87 126.702 2067.3 126.14 Q2065.75 125.555 2063.58 125.555 L2059.31 125.555 Q2057.67 125.555 2057.32 125.883 Q2056.97 126.21 2056.97 127.475 L2056.97 140.428 Z" fill="#000000" fill-rule="nonzero" fill-opacity="1" /><path clip-path="url(#clip660)" d="M2086.53 156.824 L2086.53 155.348 L2087.68 155.348 Q2090.28 155.348 2090.86 154.926 Q2091.47 154.481 2091.47 153.076 L2091.47 127.803 Q2091.47 126.421 2090.86 126 Q2090.25 125.555 2087.68 125.555 L2086.53 125.555 L2086.53 124.056 L2104.07 124.056 Q2108.64 124.056 2111.68 126.515 Q2114.73 128.951 2114.73 132.16 Q2114.73 134.807 2112.48 136.915 Q2110.25 139.023 2106.76 139.702 Q2110.75 140.123 2113.37 142.536 Q2116.02 144.925 2116.02 148.04 Q2116.02 151.554 2112.99 154.2 Q2109.97 156.824 2105.34 156.824 L2086.53 156.824 M2095.45 153.427 Q2095.45 154.669 2095.8 155.02 Q2096.15 155.348 2097.79 155.348 L2103.79 155.348 Q2107.23 155.348 2109.22 153.099 Q2111.21 150.827 2111.21 147.993 Q2111.21 145.159 2109.46 142.747 Q2107.72 140.311 2104.47 140.311 L2095.45 140.311 L2095.45 153.427 M2095.45 139.257 L2102.41 139.257 Q2106.11 139.257 2108.08 137.032 Q2110.07 134.807 2110.07 132.16 Q2110.07 129.818 2108.47 127.686 Q2106.91 125.555 2103.74 125.555 L2097.79 125.555 Q2096.15 125.555 2095.8 125.883 Q2095.45 126.21 2095.45 127.475 L2095.45 139.257 Z" fill="#000000" fill-rule="nonzero" fill-opacity="1" /><path clip-path="url(#clip660)" d="M2125.51 144.831 Q2125.51 136.727 2128.53 130.192 Q2129.82 127.452 2131.62 125.156 Q2133.43 122.861 2134.62 121.854 Q2135.82 120.847 2136.14 120.847 Q2136.61 120.847 2136.64 121.315 Q2136.64 121.549 2136 122.135 Q2128.27 130.005 2128.3 144.831 Q2128.3 159.705 2135.82 167.27 Q2136.64 168.09 2136.64 168.347 Q2136.64 168.816 2136.14 168.816 Q2135.82 168.816 2134.67 167.856 Q2133.52 166.895 2131.74 164.694 Q2129.96 162.492 2128.67 159.798 Q2125.51 153.263 2125.51 144.831 Z" fill="#000000" fill-rule="nonzero" fill-opacity="1" /><path clip-path="url(#clip660)" d="M2141.24 140.568 Q2141.24 133.237 2145.92 128.131 Q2150.63 123.002 2157.17 123.002 Q2163.75 123.002 2168.43 128.131 Q2173.14 133.261 2173.14 140.568 Q2173.14 147.806 2168.43 152.842 Q2163.72 157.878 2157.17 157.878 Q2150.7 157.878 2145.97 152.865 Q2141.24 147.853 2141.24 140.568 M2146.18 139.889 Q2146.18 144.339 2147.23 147.759 Q2148.29 151.155 2149.97 153.006 Q2151.68 154.856 2153.51 155.746 Q2155.34 156.636 2157.21 156.636 Q2159.04 156.636 2160.82 155.77 Q2162.62 154.903 2164.33 153.076 Q2166.04 151.249 2167.12 147.829 Q2168.2 144.41 2168.2 139.889 Q2168.2 136.376 2167.45 133.565 Q2166.7 130.731 2165.53 129.021 Q2164.36 127.311 2162.83 126.187 Q2161.33 125.063 2159.91 124.641 Q2158.5 124.196 2157.17 124.196 Q2155.48 124.196 2153.72 124.946 Q2151.97 125.695 2150.19 127.358 Q2148.43 128.998 2147.3 132.253 Q2146.18 135.486 2146.18 139.889 Z" fill="#000000" fill-rule="nonzero" fill-opacity="1" /><path clip-path="url(#clip660)" d="M2177.75 137.641 L2177.75 136.142 L2184.8 135.626 L2184.8 151.554 Q2184.8 152.701 2184.9 153.381 Q2184.99 154.036 2185.37 154.809 Q2185.77 155.582 2186.66 155.934 Q2187.57 156.285 2189.02 156.285 Q2191.62 156.285 2193.21 154.153 Q2194.83 152.022 2194.83 148.86 L2194.83 140.311 Q2194.83 138.531 2194.2 138.086 Q2193.56 137.641 2191.08 137.641 L2191.08 136.142 L2198.13 135.626 L2198.13 152.654 Q2198.13 154.435 2198.74 154.903 Q2199.37 155.348 2201.88 155.348 L2201.88 156.824 L2194.97 157.362 L2194.97 153.029 Q2192.96 157.339 2188.79 157.362 Q2186.68 157.362 2185.23 156.824 Q2183.8 156.285 2183.07 155.629 Q2182.35 154.95 2181.95 153.662 Q2181.57 152.373 2181.53 151.577 Q2181.48 150.781 2181.48 149.235 L2181.48 142.044 Q2181.48 138.788 2181.01 138.226 Q2180.54 137.641 2177.75 137.641 Z" fill="#000000" fill-rule="nonzero" fill-opacity="1" /><path clip-path="url(#clip660)" d="M2203.53 156.824 L2203.53 155.348 Q2206.08 155.348 2206.67 155.044 Q2207.27 154.716 2207.27 153.17 L2207.27 140.311 Q2207.27 138.531 2206.64 138.086 Q2206.03 137.641 2203.53 137.641 L2203.53 136.142 L2210.2 135.626 L2210.2 140.896 Q2210.88 138.835 2212.31 137.242 Q2213.76 135.626 2216.1 135.626 Q2217.65 135.626 2218.63 136.493 Q2219.64 137.36 2219.64 138.554 Q2219.64 139.608 2218.99 140.147 Q2218.35 140.662 2217.58 140.662 Q2216.71 140.662 2216.1 140.123 Q2215.52 139.561 2215.52 138.601 Q2215.52 138.015 2215.78 137.57 Q2216.06 137.102 2216.27 136.938 Q2216.48 136.774 2216.62 136.727 Q2216.53 136.68 2216.1 136.68 Q2213.46 136.68 2211.94 139.327 Q2210.44 141.95 2210.44 145.698 L2210.44 153.076 Q2210.44 154.458 2211 154.903 Q2211.58 155.348 2214.09 155.348 L2215.1 155.348 L2215.1 156.824 Q2213.18 156.683 2209.01 156.683 Q2208.42 156.683 2207.51 156.707 Q2206.59 156.73 2205.4 156.777 Q2204.21 156.824 2203.53 156.824 Z" fill="#000000" fill-rule="nonzero" fill-opacity="1" /><path clip-path="url(#clip660)" d="M2222.62 156.191 L2222.62 149.867 Q2222.62 149.328 2222.64 149.141 Q2222.66 148.954 2222.8 148.813 Q2222.95 148.673 2223.23 148.673 Q2223.55 148.673 2223.67 148.813 Q2223.81 148.954 2223.91 149.492 Q2224.63 152.795 2226.18 154.552 Q2227.75 156.285 2230.58 156.285 Q2233.27 156.285 2234.63 155.09 Q2235.99 153.896 2235.99 151.928 Q2235.99 148.415 2231 147.525 Q2228.12 146.939 2226.93 146.565 Q2225.73 146.166 2224.68 145.3 Q2222.62 143.613 2222.62 141.224 Q2222.62 138.835 2224.42 137.078 Q2226.25 135.322 2230.28 135.322 Q2232.97 135.322 2234.8 136.68 Q2235.34 136.259 2235.62 135.907 Q2236.25 135.322 2236.58 135.322 Q2236.95 135.322 2237.02 135.579 Q2237.09 135.814 2237.09 136.493 L2237.09 141.318 Q2237.09 141.857 2237.07 142.044 Q2237.05 142.231 2236.9 142.372 Q2236.76 142.489 2236.46 142.489 Q2235.92 142.489 2235.9 142.044 Q2235.52 136.235 2230.28 136.235 Q2227.44 136.235 2226.18 137.336 Q2224.91 138.414 2224.91 139.889 Q2224.91 140.709 2225.29 141.341 Q2225.69 141.95 2226.18 142.325 Q2226.69 142.676 2227.63 143.028 Q2228.57 143.356 2229.13 143.473 Q2229.71 143.59 2230.82 143.824 Q2234.66 144.55 2236.27 146.12 Q2238.29 148.134 2238.29 150.687 Q2238.29 153.521 2236.37 155.442 Q2234.45 157.362 2230.58 157.362 Q2227.47 157.362 2225.29 155.278 Q2225.01 155.559 2224.8 155.816 Q2224.58 156.051 2224.49 156.144 Q2224.42 156.238 2224.4 156.308 Q2224.37 156.355 2224.33 156.402 Q2223.37 157.362 2223.13 157.362 Q2222.76 157.362 2222.69 157.105 Q2222.62 156.87 2222.62 156.191 Z" fill="#000000" fill-rule="nonzero" fill-opacity="1" /><path clip-path="url(#clip660)" d="M2242.08 168.347 Q2242.08 168.113 2242.69 167.528 Q2250.42 159.658 2250.42 144.831 Q2250.42 129.958 2242.99 122.439 Q2242.08 121.573 2242.08 121.315 Q2242.08 120.847 2242.55 120.847 Q2242.88 120.847 2244.02 121.807 Q2245.19 122.767 2246.95 124.969 Q2248.73 127.171 2250.04 129.864 Q2253.2 136.399 2253.2 144.831 Q2253.2 152.935 2250.18 159.47 Q2248.89 162.211 2247.09 164.506 Q2245.29 166.802 2244.09 167.809 Q2242.9 168.816 2242.55 168.816 Q2242.08 168.816 2242.08 168.347 Z" fill="#000000" fill-rule="nonzero" fill-opacity="1" /><polyline clip-path="url(#clip660)" style="stroke:#fe6100; stroke-linecap:round; stroke-linejoin:round; stroke-width:8; stroke-opacity:1; fill:none" points="1850.73,196.789 1989.12,196.789 "/>
<path clip-path="url(#clip660)" d="M2012.19 213.007 L2012.19 211.532 L2013.33 211.532 Q2015.93 211.532 2016.52 211.11 Q2017.13 210.665 2017.13 209.26 L2017.13 183.987 Q2017.13 182.605 2016.52 182.183 Q2015.91 181.738 2013.33 181.738 L2012.19 181.738 L2012.19 180.239 L2027.25 180.239 Q2032.47 180.239 2036.1 182.816 Q2039.75 185.369 2039.75 188.882 Q2039.75 191.576 2037.39 193.684 Q2035.02 195.792 2031.37 196.705 Q2036.12 198.345 2037.22 202.256 L2037.83 206.098 Q2038.02 207.48 2038.14 208.182 Q2038.28 208.885 2038.49 209.845 Q2038.7 210.806 2038.91 211.274 Q2039.15 211.719 2039.47 212.211 Q2039.8 212.679 2040.22 212.843 Q2040.67 213.007 2041.25 213.007 Q2042.35 213.007 2043.29 212.024 Q2044.23 211.04 2044.42 208.744 Q2044.51 207.972 2045 207.972 Q2045.61 207.972 2045.61 208.744 Q2045.61 209.424 2045.42 210.22 Q2045.24 210.993 2044.77 211.907 Q2044.32 212.82 2043.34 213.429 Q2042.35 214.061 2041.07 214.061 Q2037.32 214.061 2035.02 212.047 Q2034.06 211.18 2033.62 210.056 Q2033.2 208.932 2033.13 208.042 Q2033.06 207.152 2033.06 205.184 Q2033.06 202.397 2032.75 201.179 Q2032.47 199.961 2031.23 198.767 Q2029.54 197.127 2026.75 197.127 L2021.25 197.127 L2021.25 209.26 Q2021.25 210.642 2021.84 211.087 Q2022.44 211.532 2025.04 211.532 L2026.19 211.532 L2026.19 213.007 Q2024.46 212.867 2019.19 212.867 Q2013.92 212.867 2012.19 213.007 M2021.25 196.073 L2026.57 196.073 Q2029.12 196.073 2030.83 195.464 Q2032.56 194.832 2033.38 193.707 Q2034.2 192.583 2034.51 191.459 Q2034.81 190.311 2034.81 188.882 Q2034.81 187.196 2034.44 185.931 Q2034.06 184.666 2033.24 183.917 Q2032.42 183.167 2031.6 182.699 Q2030.78 182.207 2029.52 182.019 Q2028.25 181.832 2027.39 181.785 Q2026.52 181.738 2025.14 181.738 Q2022.8 181.738 2022.3 181.832 Q2021.77 181.879 2021.55 182.137 Q2021.34 182.394 2021.3 182.699 Q2021.25 182.98 2021.25 183.659 L2021.25 196.073 Z" fill="#000000" fill-rule="nonzero" fill-opacity="1" /><path clip-path="url(#clip660)" d="M2045.82 196.612 Q2045.82 189.374 2050.76 184.291 Q2055.71 179.185 2062.5 179.185 Q2064.61 179.185 2066.48 179.958 Q2068.35 180.731 2069.22 181.41 Q2070.09 182.066 2071.33 183.308 L2073.74 179.771 Q2074.12 179.185 2074.49 179.185 Q2074.89 179.185 2074.96 179.42 Q2075.03 179.63 2075.03 180.333 L2075.03 191.716 Q2075.03 192.489 2074.94 192.677 Q2074.84 192.864 2074.26 192.864 Q2073.79 192.864 2073.67 192.724 Q2073.58 192.583 2073.48 192.044 Q2072.76 186.868 2069.88 183.776 Q2067.02 180.684 2063.04 180.684 Q2061.89 180.684 2060.6 180.942 Q2059.34 181.2 2057.49 182.183 Q2055.66 183.167 2054.23 184.807 Q2052.82 186.423 2051.79 189.515 Q2050.76 192.583 2050.76 196.659 Q2050.76 200.687 2051.79 203.779 Q2052.82 206.871 2054.23 208.487 Q2055.66 210.08 2057.49 211.063 Q2059.34 212.047 2060.62 212.328 Q2061.94 212.586 2063.08 212.586 Q2067.21 212.586 2070.37 209.658 Q2073.53 206.73 2073.83 201.788 Q2073.88 201.554 2073.88 201.46 Q2073.88 201.343 2073.93 201.226 Q2073.98 201.109 2074.09 201.062 Q2074.21 201.015 2074.4 201.015 Q2075.03 201.015 2075.03 201.835 Q2075.03 206.402 2071.52 210.244 Q2068.03 214.061 2062.5 214.061 Q2055.68 214.061 2050.74 209.002 Q2045.82 203.943 2045.82 196.612 Z" fill="#000000" fill-rule="nonzero" fill-opacity="1" /><path clip-path="url(#clip660)" d="M2082.98 213.007 L2082.98 211.532 L2084.13 211.532 Q2086.73 211.532 2087.31 211.11 Q2087.92 210.665 2087.92 209.26 L2087.92 183.987 Q2087.92 182.605 2087.31 182.183 Q2086.71 181.738 2084.13 181.738 L2082.98 181.738 L2082.98 180.239 L2100.52 180.239 Q2105.09 180.239 2108.14 182.699 Q2111.18 185.135 2111.18 188.344 Q2111.18 190.99 2108.93 193.098 Q2106.71 195.206 2103.22 195.886 Q2107.2 196.307 2109.82 198.72 Q2112.47 201.109 2112.47 204.224 Q2112.47 207.737 2109.45 210.384 Q2106.43 213.007 2101.79 213.007 L2082.98 213.007 M2091.91 209.611 Q2091.91 210.853 2092.26 211.204 Q2092.61 211.532 2094.25 211.532 L2100.24 211.532 Q2103.69 211.532 2105.68 209.283 Q2107.67 207.011 2107.67 204.177 Q2107.67 201.343 2105.91 198.93 Q2104.18 196.495 2100.92 196.495 L2091.91 196.495 L2091.91 209.611 M2091.91 195.441 L2098.86 195.441 Q2102.56 195.441 2104.53 193.215 Q2106.52 190.99 2106.52 188.344 Q2106.52 186.001 2104.93 183.87 Q2103.36 181.738 2100.2 181.738 L2094.25 181.738 Q2092.61 181.738 2092.26 182.066 Q2091.91 182.394 2091.91 183.659 L2091.91 195.441 Z" fill="#000000" fill-rule="nonzero" fill-opacity="1" /><path clip-path="url(#clip660)" d="M2118.32 213.007 L2118.32 211.532 Q2120.05 211.532 2121.15 211.204 Q2122.25 210.853 2122.65 210.22 Q2123.07 209.564 2123.16 209.143 Q2123.26 208.698 2123.26 207.972 L2123.26 183.987 Q2123.26 182.605 2122.65 182.183 Q2122.06 181.738 2119.46 181.738 L2118.32 181.738 L2118.32 180.239 L2126.42 180.239 Q2127.29 180.239 2127.52 180.403 Q2127.76 180.544 2128.11 181.293 L2138.51 208.159 L2149 181.153 Q2149.23 180.474 2149.44 180.356 Q2149.68 180.239 2150.59 180.239 L2158.7 180.239 L2158.7 181.738 L2157.55 181.738 Q2154.95 181.738 2154.34 182.183 Q2153.75 182.605 2153.75 183.987 L2153.75 209.26 Q2153.75 210.642 2154.34 211.087 Q2154.95 211.532 2157.55 211.532 L2158.7 211.532 L2158.7 213.007 Q2156.92 212.867 2151.83 212.867 Q2146.7 212.867 2144.92 213.007 L2144.92 211.532 L2146.1 211.532 Q2148.7 211.532 2149.28 211.11 Q2149.87 210.665 2149.87 209.26 L2149.87 181.738 L2149.82 181.738 L2138.04 212.094 Q2137.71 213.007 2137.17 213.007 Q2136.59 213.007 2136.21 211.953 L2124.64 182.113 L2124.59 182.113 L2124.59 207.972 Q2124.59 208.698 2124.69 209.143 Q2124.78 209.564 2125.18 210.22 Q2125.6 210.853 2126.7 211.204 Q2127.8 211.532 2129.54 211.532 L2129.54 213.007 Q2124.5 212.867 2123.91 212.867 Q2123.35 212.867 2118.32 213.007 Z" fill="#000000" fill-rule="nonzero" fill-opacity="1" /><polyline clip-path="url(#clip660)" style="stroke:#ffb000; stroke-linecap:round; stroke-linejoin:round; stroke-width:8; stroke-opacity:1; fill:none" points="1850.73,248.629 1989.12,248.629 "/>
<path clip-path="url(#clip660)" d="M2012.19 264.754 L2012.19 255.15 Q2012.19 254.612 2012.21 254.424 Q2012.23 254.237 2012.37 254.096 Q2012.51 253.956 2012.79 253.956 Q2013.33 253.956 2013.38 254.448 Q2013.52 259.203 2016.36 261.826 Q2019.14 264.426 2023.92 264.426 Q2026.8 264.426 2028.58 262.365 Q2030.36 260.28 2030.36 257.563 Q2030.36 254.963 2028.86 253.136 Q2028.23 252.316 2027.43 251.801 Q2026.66 251.262 2026.17 251.098 Q2025.7 250.934 2024.79 250.7 Q2018.84 249.271 2018.46 249.107 Q2015.63 248.147 2013.9 245.735 Q2012.19 243.299 2012.19 240.324 Q2012.19 236.483 2014.88 233.766 Q2017.6 231.025 2021.53 231.025 Q2023.5 231.025 2025.14 231.658 Q2026.8 232.267 2027.48 232.829 Q2028.16 233.391 2029.21 234.398 L2030.88 231.658 Q2031.25 231.025 2031.6 231.025 Q2031.98 231.025 2032.05 231.26 Q2032.14 231.47 2032.14 232.173 L2032.14 241.823 Q2032.14 242.362 2032.12 242.549 Q2032.1 242.737 2031.93 242.854 Q2031.79 242.971 2031.51 242.971 Q2031.04 242.971 2030.92 242.409 Q2029.59 232.384 2021.58 232.384 Q2018.84 232.384 2017.03 234.234 Q2015.25 236.061 2015.25 238.661 Q2015.25 240.769 2016.57 242.502 Q2017.88 244.212 2020.1 244.751 L2026.24 246.227 Q2029.31 246.953 2031.37 249.67 Q2033.43 252.387 2033.43 255.923 Q2033.43 259.999 2030.76 262.95 Q2028.11 265.901 2023.97 265.901 Q2020.99 265.901 2018.7 264.918 Q2016.4 263.934 2015.16 262.552 Q2014.2 264.145 2013.57 265.035 L2013.43 265.269 Q2013.05 265.901 2012.7 265.901 Q2012.33 265.901 2012.26 265.667 Q2012.19 265.433 2012.19 264.754 Z" fill="#000000" fill-rule="nonzero" fill-opacity="1" /><path clip-path="url(#clip660)" d="M2045.56 260.819 Q2040.65 255.736 2040.65 248.452 Q2040.65 241.144 2045.61 236.085 Q2050.58 231.025 2057.32 231.025 Q2059.01 231.025 2060.44 231.424 Q2061.89 231.798 2063.04 232.571 Q2064.19 233.321 2064.77 233.836 Q2065.38 234.328 2066.2 235.148 L2068.61 231.611 Q2068.99 231.025 2069.36 231.025 Q2069.76 231.025 2069.83 231.26 Q2069.9 231.47 2069.9 232.173 L2069.9 243.556 Q2069.9 244.329 2069.81 244.517 Q2069.71 244.704 2069.13 244.704 Q2068.66 244.704 2068.57 244.564 Q2068.47 244.423 2068.35 243.884 Q2067.63 238.708 2064.72 235.616 Q2061.84 232.524 2057.91 232.524 Q2056.76 232.524 2055.47 232.782 Q2054.21 233.04 2052.33 234.023 Q2050.48 235.007 2049.05 236.623 Q2047.65 238.216 2046.62 241.308 Q2045.59 244.376 2045.59 248.452 Q2045.59 252.48 2046.62 255.572 Q2047.65 258.664 2049.08 260.28 Q2050.53 261.873 2052.4 262.88 Q2054.3 263.887 2055.64 264.168 Q2056.99 264.426 2058.19 264.426 Q2059.01 264.426 2059.97 264.262 Q2060.93 264.074 2062.36 263.559 Q2063.81 263.02 2064.72 261.756 Q2065.64 260.491 2065.64 258.617 L2065.64 255.549 Q2065.64 254.12 2064.93 253.675 Q2064.23 253.23 2061.16 253.23 L2059.64 253.23 L2059.64 251.754 Q2061.37 251.895 2067.35 251.895 Q2067.89 251.895 2073.2 251.754 L2073.2 253.23 Q2070.91 253.23 2070.39 253.581 Q2069.9 253.909 2069.9 255.338 L2069.9 263.7 Q2069.9 264.801 2069.48 264.801 Q2069.1 264.801 2067.98 263.723 Q2066.88 262.646 2066.39 261.826 Q2065.24 263.84 2062.73 264.871 Q2060.25 265.901 2057.42 265.901 Q2050.51 265.901 2045.56 260.819 Z" fill="#000000" fill-rule="nonzero" fill-opacity="1" /><path clip-path="url(#clip660)" d="M2077.49 264.847 L2077.49 263.372 Q2079.22 263.372 2080.32 263.044 Q2081.42 262.693 2081.82 262.06 Q2082.24 261.404 2082.34 260.983 Q2082.43 260.538 2082.43 259.812 L2082.43 235.827 Q2082.43 234.445 2081.82 234.023 Q2081.23 233.578 2078.63 233.578 L2077.49 233.578 L2077.49 232.079 L2085.59 232.079 Q2086.46 232.079 2086.69 232.243 Q2086.93 232.384 2087.28 233.133 L2097.68 259.999 L2108.17 232.993 Q2108.4 232.314 2108.62 232.196 Q2108.85 232.079 2109.76 232.079 L2117.87 232.079 L2117.87 233.578 L2116.72 233.578 Q2114.12 233.578 2113.51 234.023 Q2112.93 234.445 2112.93 235.827 L2112.93 261.1 Q2112.93 262.482 2113.51 262.927 Q2114.12 263.372 2116.72 263.372 L2117.87 263.372 L2117.87 264.847 Q2116.09 264.707 2111 264.707 Q2105.87 264.707 2104.09 264.847 L2104.09 263.372 L2105.27 263.372 Q2107.87 263.372 2108.45 262.95 Q2109.04 262.505 2109.04 261.1 L2109.04 233.578 L2108.99 233.578 L2097.21 263.934 Q2096.88 264.847 2096.34 264.847 Q2095.76 264.847 2095.38 263.793 L2083.81 233.953 L2083.76 233.953 L2083.76 259.812 Q2083.76 260.538 2083.86 260.983 Q2083.95 261.404 2084.35 262.06 Q2084.77 262.693 2085.87 263.044 Q2086.97 263.372 2088.71 263.372 L2088.71 264.847 Q2083.67 264.707 2083.08 264.707 Q2082.52 264.707 2077.49 264.847 Z" fill="#000000" fill-rule="nonzero" fill-opacity="1" /></svg>
